<svg xmlns="http://www.w3.org/2000/svg" width="88" height="88" viewBox="0 0 88 88">
  <g id="Grupo_18756" data-name="Grupo 18756" transform="translate(-1531 2552)">
    <g id="Elipse_1103" data-name="Elipse 1103" transform="translate(1531 -2552)" fill="#f56b6b" stroke="#2643a2" stroke-width="3">
      <circle cx="44" cy="44" r="44" stroke="none"/>
      <circle cx="44" cy="44" r="42.5" fill="none"/>
    </g>
    <path id="Trazado_34997" data-name="Trazado 34997" d="M20.689-16.393q5.844,1.611,5.844,7.691a8.337,8.337,0,0,1-2.471,6.37Q21.592,0,16.8,0H4.018V-31.045H14.072q4.963,0,7.595,2.245A7.788,7.788,0,0,1,24.3-22.537a7.3,7.3,0,0,1-.913,3.685A6.013,6.013,0,0,1,20.689-16.393Zm-6.553-9.3h-3.91v7.3h4.189a3.925,3.925,0,0,0,2.965-1.031,3.749,3.749,0,0,0,.988-2.707,3.332,3.332,0,0,0-1.074-2.589A4.545,4.545,0,0,0,14.137-25.7ZM15.6-5.521a4.951,4.951,0,0,0,3.556-1.1A3.726,3.726,0,0,0,20.281-9.41a3.9,3.9,0,0,0-1.139-2.879,5.039,5.039,0,0,0-3.674-1.139H10.227v7.906Z" transform="translate(1559.982 -2492.955)" fill="#fff"/>
  </g>
</svg>
