<svg xmlns="http://www.w3.org/2000/svg" width="88" height="88" viewBox="0 0 88 88">
  <g id="Grupo_18755" data-name="Grupo 18755" transform="translate(-1531 2405)">
    <g id="Elipse_1104" data-name="Elipse 1104" transform="translate(1531 -2405)" fill="#f56b6b" stroke="#2643a2" stroke-width="3">
      <circle cx="44" cy="44" r="44" stroke="none"/>
      <circle cx="44" cy="44" r="42.5" fill="none"/>
    </g>
    <path id="Trazado_34998" data-name="Trazado 34998" d="M17.768.43A17.329,17.329,0,0,1,11.44-.709,14.879,14.879,0,0,1,6.4-3.889,14.333,14.333,0,0,1,3.094-8.937a17.6,17.6,0,0,1-1.2-6.6,16.816,16.816,0,0,1,2.063-8.433,14.041,14.041,0,0,1,5.661-5.575,16.951,16.951,0,0,1,8.153-1.934,16.474,16.474,0,0,1,9.109,2.514,13.76,13.76,0,0,1,5.564,6.918l-6.016,2.191a8.5,8.5,0,0,0-3.33-4.189,9.511,9.511,0,0,0-5.328-1.5,9.118,9.118,0,0,0-6.789,2.707,9.961,9.961,0,0,0-2.664,7.3,9.975,9.975,0,0,0,2.675,7.315A9.109,9.109,0,0,0,17.768-5.5a9.476,9.476,0,0,0,5.317-1.515,8.543,8.543,0,0,0,3.341-4.2l6.016,2.191a13.816,13.816,0,0,1-5.564,6.929A16.421,16.421,0,0,1,17.768.43Z" transform="translate(1558.109 -2345.525)" fill="#fff"/>
  </g>
</svg>
