<svg xmlns="http://www.w3.org/2000/svg" width="382.523" height="318.56" viewBox="0 0 382.523 318.56">
  <g id="Grupo_19118" data-name="Grupo 19118" transform="translate(-769 -12624.875)">
    <g id="Grupo_10556" data-name="Grupo 10556" transform="translate(749.512 12542.733)">
      <g id="Grupo_10532" data-name="Grupo 10532" transform="translate(19.488 87.705)">
        <path id="Trazado_20291" data-name="Trazado 20291" d="M293.929,99.554S251.061,110.5,185.9,94.5,70.157,94.5,36.72,162.723s-27.436,193.72,102.026,229.1,249.653-26.734,261.5-134.762C412.245,147.563,361.661,86.078,293.929,99.554Z" transform="translate(-19.488 -88.782)" fill="#d4efef"/>
        <path id="Trazado_20292" data-name="Trazado 20292" d="M401.187,297.214c-67.926,32.9-143.916-17.129-239.415-22.705C106.315,271.27,56.08,307.141,34.195,333.976,50.29,372.483,83.448,406.142,141.131,421.9,266.514,456.164,383.2,398.987,401.187,297.214Z" transform="translate(-21.873 -118.868)" fill="#bfefef" opacity="0.3" style="mix-blend-mode: multiply;isolation: isolate"/>
      </g>
      <path id="Trazado_20293" data-name="Trazado 20293" d="M303.4,162.489c-3.156-4.184-7.029-5.071-11.652-5.054,1.969-14.382-2.385-37.06-10.247-51.1C269.676,85.214,239.11,79.948,212.58,82.9s-50.115,18.951-54.045,39.165c-3.154,16.224,1.446,40.69,3.51,47.588-7.681-.427-12.2.957-13.895,8.372-3.511,15.36,8.968,28.9,15.242,37.681,3.956,5.538,19.987,29.5,23.287,33.871,15.665,20.745,49.535,16.935,49.535,16.935s32.257.095,44.456-22.863c.628-1.183,12.7-29.637,16.088-38.1C300.766,195.518,314.176,176.768,303.4,162.489Z" transform="translate(-20.766)" fill="#d4efef" opacity="0.5" style="mix-blend-mode: screen;isolation: isolate"/>
      <path id="Trazado_20294" data-name="Trazado 20294" d="M189.83,308.239s-19.794,64.433-18.952,72.013,13.056,38.323,42.114,45.061c21.989,5.1,51.378-8.844,56.431-16,2.832-4.012,21.056-74.539,21.056-74.539l-46.324-29.058Z" transform="translate(-24.547 -36.256)" fill="#d4efef" opacity="0.5" style="mix-blend-mode: screen;isolation: isolate"/>
      <g id="Grupo_10535" data-name="Grupo 10535" transform="translate(270.976 180.036)">
        <path id="Trazado_20295" data-name="Trazado 20295" d="M331.456,314.795s10.95-11.37,11.792-27.374-.421-55.589,10.528-62.327,16,11.792,16,11.792,10.528-32.006,18.108-34.112,9.686,6.317,9.686,6.317,7.58-10.107,13.476-10.107,8.423,17.687,8.423,17.687a14.666,14.666,0,0,1,10.528.842c7.159,3.79,3.369,23.163,2.105,29.9,0,0,8.844,2.527,8,14.319s-9.685,30.742-21.056,42.534-42.534,61.906-42.534,61.906-27.185,1.651-44.219-14.319c-13.476-12.634-12.634-24-12.634-24Z" transform="translate(-319.654 -198.984)" fill="#d4efef" opacity="0.5" style="mix-blend-mode: screen;isolation: isolate"/>
        <g id="Grupo_10534" data-name="Grupo 10534" transform="translate(14.459 8.139)">
          <path id="Trazado_20296" data-name="Trazado 20296" d="M348.583,340.564s-11.2,17.924-11.653,19.268,7.17,9.633,12.995,12.772,17.926,6.5,17.926,6.5L379.5,358.712Z" transform="translate(-336.912 -230.083)" fill="#ffd28b"/>
          <path id="Trazado_20297" data-name="Trazado 20297" d="M342.779,351.482c4.454,6.256,14.39,17.956,28.988,22.427l8.685-15.2-30.918-18.148S345.969,346.267,342.779,351.482Z" transform="translate(-337.863 -230.083)" fill="#eab68e"/>
          <path id="Trazado_20298" data-name="Trazado 20298" d="M432.833,257.787c-2.018,4.93-8.288,14.347-9.3,15.46-2.241,2.467-2.016-.671-2.016-.671,2.911-4.705,7.392-18.821,9.408-30.472s-2.462-17.475-6.5-16.58c-1.708.38-1.568,4.705-2.688,11.652s-6.05,16.69-7.393,19.6-6.274,11.317-7.841,9.972,3.3-7.282,7.338-20.053c2.43-7.7,3.025-14.956,2.744-23.638-.275-8.521-2.186-14.789-5.77-14.339s-4.76,4.257-6.105,12.771-1.9,13.555-4.817,22.518-7.225,16.972-9.3,16.468c-1.172-.286,4.033-12.323,7.171-21.509s2.239-25.99-4.707-25.095c-3.779.488-3.36,11.2-8.962,25.541-1,2.557-2.239,7.394-4.033,11.652-4.595,10.91-6.729,14.4-9.86,13.667-3.809-.9-2.687-19.268-3.135-23.973s-9.857-7.842-12.323,6.048-.448,28.68-.224,44.588-14.115,33.16-14.115,33.16c18.148,17.925,38.089,23.076,38.089,23.076s12.995-26.885,22.4-34.057,9.989-11.392,19.158-19.829c8.4-7.727,16.242-21.4,17.363-29.91S434.849,252.859,432.833,257.787Z" transform="translate(-337.479 -208.698)" fill="#27c79a"/>
          <path id="Trazado_20299" data-name="Trazado 20299" d="M432.833,266.8c-1.432,3.5-5.009,9.262-7.323,12.708a144.27,144.27,0,0,1-25.726,32.552c-12.1,11.65-29.125,25.766-41.9,18.821a19.083,19.083,0,0,1-9.005-10.387,80.4,80.4,0,0,1-8.47,13.074C358.559,351.5,378.5,356.648,378.5,356.648s12.995-26.885,22.4-34.057,9.989-11.392,19.158-19.829c8.4-7.727,16.242-21.4,17.363-29.91S434.849,261.874,432.833,266.8Z" transform="translate(-337.479 -217.713)" fill="#27b690"/>
          <g id="Grupo_10533" data-name="Grupo 10533" transform="translate(0.468 113.281)">
            <path id="Trazado_20300" data-name="Trazado 20300" d="M379.146,371.464a2.144,2.144,0,0,1-.434-.047c-.389-.085-9.629-2.164-22.186-9.29-12.65-7.179-18.408-14.672-18.647-14.987a2.017,2.017,0,0,1,3.212-2.439h0c.053.07,5.558,7.182,17.426,13.919,12.03,6.828,20.969,8.84,21.058,8.858a2.017,2.017,0,0,1-.43,3.986Z" transform="translate(-337.47 -343.905)" fill="#27617e"/>
          </g>
          <path id="Trazado_20301" data-name="Trazado 20301" d="M375.142,272.934c-1.856-.437-2.539-5.019-2.807-10.148-.483,2.581-3.611,20.241.9,23.2,4.873,3.192,10.253-20.335,11.763-26.72C380.406,270.177,378.272,273.671,375.142,272.934Z" transform="translate(-342.412 -216.899)" fill="#27b690"/>
          <path id="Trazado_20302" data-name="Trazado 20302" d="M399.782,269.473c-.464-.113.074-2.068,1.081-4.953-1.279,2.073-5.848,9.891-2.789,11,2.772,1.006,6.3-10.924,6.3-10.924l.075-.427C402.627,267.593,400.885,269.742,399.782,269.473Z" transform="translate(-346.662 -217.694)" fill="#27b690"/>
          <path id="Trazado_20303" data-name="Trazado 20303" d="M423.54,272.243c-1.8,2.756-3.791,5.174-4.686,4.405-.874-.751.254-2.927,2.12-6.917-3.017,3.248-5.621,10.115-3.858,11.732,2.017,1.851,6.387-9.073,6.387-9.073Z" transform="translate(-349.825 -218.596)" fill="#27b690"/>
          <path id="Trazado_20304" data-name="Trazado 20304" d="M440.622,282.294l0,0c-.948,1.406-1.684,2.431-1.977,2.753-2.241,2.467-2.016-.671-2.016-.671a25.776,25.776,0,0,0,1.5-2.924c-1.138,1.7-5.924,9.055-4.13,9.979C436.6,292.777,440.622,282.294,440.622,282.294Z" transform="translate(-352.591 -220.496)" fill="#27b690"/>
          <path id="Trazado_20305" data-name="Trazado 20305" d="M367.051,303.051s0-10.979-3.585-11.428-2.911,20.839-.223,20.389S367.276,307.532,367.051,303.051Z" transform="translate(-340.818 -222.145)" fill="#9ae7b5" opacity="0.4" style="mix-blend-mode: screen;isolation: isolate"/>
          <path id="Trazado_20306" data-name="Trazado 20306" d="M368.337,322.169a2.464,2.464,0,1,1-2.465-2.465A2.463,2.463,0,0,1,368.337,322.169Z" transform="translate(-341.208 -226.7)" fill="#9ae7b5" opacity="0.4" style="mix-blend-mode: screen;isolation: isolate"/>
        </g>
      </g>
      <g id="Grupo_10539" data-name="Grupo 10539" transform="translate(153.687 277.871)">
        <g id="Grupo_10537" data-name="Grupo 10537">
          <path id="Trazado_20307" data-name="Trazado 20307" d="M243.565,315.756l-43.812.038-3.479,4.178s.87.395,2.117.953l-15.981,60.233s6.7,29.146,35.428,36.769,49-14.37,49-14.37l17.147-64.629Z" transform="translate(-180.108 -315.756)" fill="#d33465"/>
          <path id="Trazado_20308" data-name="Trazado 20308" d="M251.421,320.349s-.857,19.609-.872,20.658,39.356.874,39.356.874l5.128-2.953-40.418-23.173Z" transform="translate(-191.158 -315.756)" fill="#ae3465"/>
          <g id="Grupo_10536" data-name="Grupo 10536" transform="translate(48.55 58.442)">
            <path id="Trazado_20309" data-name="Trazado 20309" d="M237.609,385.51c-.005,0,.184.05.179.048-.029-.008-.059-.019-.088-.028S237.639,385.518,237.609,385.51Z" transform="translate(-237.609 -385.51)" fill="#ffd28b"/>
          </g>
          <path id="Trazado_20310" data-name="Trazado 20310" d="M264.386,418.5s-70.887-7.068-71.459-5.9a9.448,9.448,0,0,0,.281,2.909,47.443,47.443,0,0,0,26.33,18.1c28.733,7.624,49-14.37,49-14.37Z" transform="translate(-181.806 -331.44)" fill="#ae3465"/>
          <path id="Trazado_20311" data-name="Trazado 20311" d="M195.829,320.788l44.1.377L278.41,342.7l-16.168,60.938s-19.508,20.342-47.615,12.886-34.965-34.794-34.965-34.794Z" transform="translate(-179.662 -316.572)" fill="#ff4d65"/>
        </g>
        <path id="Trazado_20312" data-name="Trazado 20312" d="M260.549,369.931l-14.222-3.773,3.774-14.221a2.3,2.3,0,0,0-1.382-2.914l-15.652-4.153a2.3,2.3,0,0,0-2.645,1.845l-3.774,14.224-14.223-3.774a2.3,2.3,0,0,0-2.913,1.381L205.359,374.2a2.3,2.3,0,0,0,1.846,2.643l14.224,3.773-3.774,14.222a2.3,2.3,0,0,0,1.382,2.915l15.653,4.152a2.3,2.3,0,0,0,2.643-1.847l3.773-14.221,14.223,3.773a2.3,2.3,0,0,0,2.913-1.38l4.153-15.654A2.3,2.3,0,0,0,260.549,369.931Z" transform="translate(-183.82 -320.468)" fill="#d33465"/>
        <path id="Trazado_20313" data-name="Trazado 20313" d="M257.781,369.2l-14.222-3.774,3.773-14.223a2.294,2.294,0,0,0-1.381-2.912L230.3,344.135a2.3,2.3,0,0,0-2.644,1.845L223.881,360.2l-14.224-3.774a2.3,2.3,0,0,0-2.912,1.382l-4.153,15.654a2.3,2.3,0,0,0,1.845,2.643l14.224,3.774L214.887,394.1a2.3,2.3,0,0,0,1.381,2.914l15.653,4.153a2.3,2.3,0,0,0,2.643-1.847l3.774-14.221,14.222,3.773a2.3,2.3,0,0,0,2.913-1.38l4.153-15.654A2.3,2.3,0,0,0,257.781,369.2Z" transform="translate(-183.371 -320.349)" fill="#fff"/>
        <path id="Trazado_20314" data-name="Trazado 20314" d="M214.627,420.762c28.107,7.456,47.615-12.886,47.615-12.886l16.168-60.938s-38.726,46.313-98.747,39.029C179.662,385.967,186.521,413.3,214.627,420.762Z" transform="translate(-179.662 -320.813)" fill="#d0d2d3" style="mix-blend-mode: multiply;isolation: isolate"/>
        <g id="Grupo_10538" data-name="Grupo 10538" transform="translate(16.818 9.546)">
          <path id="Trazado_20315" data-name="Trazado 20315" d="M234.994,327.337c-4.776-.714-22.186.457-25.957,6.353s12.25,2.708,16.143,1.525C231.481,333.3,239.805,328.058,234.994,327.337Z" transform="translate(-201.151 -327.15)" fill="#fff" opacity="0.6" style="mix-blend-mode: overlay;isolation: isolate"/>
          <path id="Trazado_20316" data-name="Trazado 20316" d="M204.963,341.194a2.18,2.18,0,0,1-2.668,1.549l-.937-.248a2.182,2.182,0,0,1-1.55-2.669l.249-.937a2.179,2.179,0,0,1,2.668-1.548l.938.247a2.18,2.18,0,0,1,1.548,2.668Z" transform="translate(-199.735 -328.791)" fill="#fff" opacity="0.6" style="mix-blend-mode: overlay;isolation: isolate"/>
        </g>
      </g>
      <g id="Grupo_10550" data-name="Grupo 10550" transform="translate(134.507 91.375)">
        <g id="Grupo_10549" data-name="Grupo 10549">
          <g id="Grupo_10548" data-name="Grupo 10548">
            <path id="Trazado_20317" data-name="Trazado 20317" d="M280.839,136.719l-27.723-33.538-26.347,17.707h0l-24.35-15.438L173.443,143.4s.182,30.029,8.03,74.486c7.771,44.015,56.363,42.3,56.7,42.27s47.511-3.454,49.7-49.1C290.034,165.962,280.839,136.719,280.839,136.719Z" transform="translate(-159.474 -94.787)" fill="#ffd28b"/>
            <path id="Trazado_20318" data-name="Trazado 20318" d="M285.42,140.916c-4.2-51.252-51.342-48.267-61.823-47.408-12.639,1.036-57.366,7.324-53.2,58.2,0,0,4.676,38.4,9.157,38.031s6.017-31.556,5-38.46,5.148-19.055,12.572-17.2c9.567,2.388,16.263,12.931,30.554,11.761,15.847-1.3,19.485-13.854,28.234-16.576,7.308-2.273,15.015,7.081,15.136,14.057s7.415,34.08,11.893,33.714C290.189,176.437,285.42,140.916,285.42,140.916Z" transform="translate(-158.936 -93.162)" fill="#27617e"/>
            <g id="Grupo_10540" data-name="Grupo 10540" transform="translate(5.368 85.312)">
              <path id="Trazado_20319" data-name="Trazado 20319" d="M193.69,246.1a1.917,1.917,0,0,1-1.16-.269c-16.244-9.807-28.888-29.639-29.339-40.819-.183-4.465,1.591-6.725,3.11-7.836,6.915-5.061,13.787-.369,20.429,4.167a61.669,61.669,0,0,0,7.908,4.847c8.212,3.9,15.45-1.708,15.5-1.764a1.954,1.954,0,0,1,2.624-.124,1.653,1.653,0,0,1,.1,2.448c-2.554,2.606-11.383,6.6-19.945,2.532a64.089,64.089,0,0,1-8.4-5.134c-6.978-4.763-11.482-7.521-15.947-4.252-1.5,1.1-1.737,3.3-1.67,4.944.411,10.129,12.588,28.967,27.671,38.076a1.655,1.655,0,0,1,.53,2.4A1.9,1.9,0,0,1,193.69,246.1Z" transform="translate(-163.177 -194.988)" fill="#5e84ef"/>
            </g>
            <g id="Grupo_10541" data-name="Grupo 10541" transform="translate(90.906 72.177)">
              <path id="Trazado_20320" data-name="Trazado 20320" d="M289.793,241.862a1.8,1.8,0,0,1-1.485-.488,1.7,1.7,0,0,1,.009-2.451c12.323-11.973,23.034-38.11,21.348-48.1-.271-1.629-2.617-6.551-4.256-7.321-4.866-2.291-8.537,1.317-14.129,7.395a61.989,61.989,0,0,1-6.857,6.728c-7.222,5.718-15.476,4.326-18.411,2.294a1.7,1.7,0,0,1-.4-2.417,1.826,1.826,0,0,1,2.487-.415,13.746,13.746,0,0,0,14.082-2.142,59.34,59.34,0,0,0,6.445-6.346c5.322-5.785,10.825-11.768,18.364-8.218,1.656.778,5.458,5.453,6.2,9.855,1.861,11.034-9.085,38.239-22.358,51.133A1.832,1.832,0,0,1,289.793,241.862Z" transform="translate(-265.272 -179.31)" fill="#5e7de1"/>
            </g>
            <path id="Trazado_20321" data-name="Trazado 20321" d="M319.25,181.671a9.219,9.219,0,0,0-10.171,1.62c-.777,11.877-1.434,23.629.524,34.891C327.629,211.838,329.589,185.924,319.25,181.671Z" transform="translate(-181.346 -107.378)" fill="#ffd28b"/>
            <path id="Trazado_20322" data-name="Trazado 20322" d="M263.575,205.952c-9.008-8.7-15.491-14.544-28.092-13.511-12.5,1.025-18.052,7.854-25.524,17.9-7.5,10.1-21.377,21.2-11.5,40.073,9.322,17.814,39.822,19.606,43.234,19.755v.035s.057-.009.154-.031l.158.005,0-.035c3.343-.7,33.143-7.433,39.444-26.527C288.118,223.386,272.625,214.691,263.575,205.952Z" transform="translate(-162.975 -109.243)" fill="#5ea7ef"/>
            <path id="Trazado_20323" data-name="Trazado 20323" d="M257.935,259.8c-29.8,15.42-52.493,1.055-52.493,1.055l-.016.054c12.358,11.493,35.038,12.829,37.952,12.955v.035s.057-.009.154-.031l.158.005,0-.035c3.343-.7,33.143-7.433,39.444-26.527,5.309-16.1-3.413-24.889-11.756-32.212C280.4,232,278.385,249.221,257.935,259.8Z" transform="translate(-164.661 -112.937)" fill="#5e7de1"/>
            <g id="Grupo_10542" data-name="Grupo 10542" transform="translate(53.169 87.801)">
              <path id="Trazado_20324" data-name="Trazado 20324" d="M221.385,210.958a1.082,1.082,0,0,1-.7-.176,1.02,1.02,0,0,1-.27-1.445c.289-.408,7.209-10,18.1-11.252s21.293,7.2,21.73,7.563a1.018,1.018,0,0,1,.122,1.465,1.094,1.094,0,0,1-1.51.125c-.1-.082-10.14-8.225-20.1-7.088-9.908,1.139-16.514,10.27-16.581,10.362A1.08,1.08,0,0,1,221.385,210.958Z" transform="translate(-220.23 -197.958)" fill="#27617e"/>
            </g>
            <g id="Grupo_10543" data-name="Grupo 10543" transform="translate(49.394 106.646)">
              <path id="Trazado_20325" data-name="Trazado 20325" d="M241.2,230.564a66.661,66.661,0,0,1-24.554-2.555,1.33,1.33,0,0,1-.848-1.708,1.4,1.4,0,0,1,1.766-.83c.246.082,24.961,8.126,46.541-4.819a1.406,1.406,0,0,1,1.9.435,1.321,1.321,0,0,1-.456,1.847A55.886,55.886,0,0,1,241.2,230.564Z" transform="translate(-215.725 -220.45)" fill="#6fbbff"/>
            </g>
            <g id="Grupo_10544" data-name="Grupo 10544" transform="translate(45.639 117.99)">
              <path id="Trazado_20326" data-name="Trazado 20326" d="M241.632,245.464a82.133,82.133,0,0,1-29.463-2.934,1.329,1.329,0,0,1-.848-1.708,1.4,1.4,0,0,1,1.765-.832c.3.1,30.02,9.782,55.99-5.8a1.4,1.4,0,0,1,1.905.433,1.326,1.326,0,0,1-.457,1.849A66.29,66.29,0,0,1,241.632,245.464Z" transform="translate(-211.242 -233.991)" fill="#6fbbff"/>
            </g>
            <g id="Grupo_10545" data-name="Grupo 10545" transform="translate(43.368 129.184)">
              <path id="Trazado_20327" data-name="Trazado 20327" d="M242.172,259.815a91.109,91.109,0,0,1-32.713-3.26,1.325,1.325,0,0,1-.847-1.707,1.4,1.4,0,0,1,1.765-.829c.33.111,33.462,10.907,62.418-6.465a1.406,1.406,0,0,1,1.905.434,1.323,1.323,0,0,1-.458,1.85A73.614,73.614,0,0,1,242.172,259.815Z" transform="translate(-208.533 -247.351)" fill="#6fbbff"/>
            </g>
            <path id="Trazado_20328" data-name="Trazado 20328" d="M211.678,220.066s-11.373,9.974-10.207,15.439,8.629,1.986,11.064-2.064C217.372,225.4,218.167,214.669,211.678,220.066Z" transform="translate(-164.006 -113.506)" fill="#5ea7ef" style="mix-blend-mode: overlay;isolation: isolate"/>
            <path id="Trazado_20329" data-name="Trazado 20329" d="M205.613,247.49a3.1,3.1,0,1,1-3.332-2.741A3.053,3.053,0,0,1,205.613,247.49Z" transform="translate(-163.688 -117.743)" fill="#5ea7ef" style="mix-blend-mode: overlay;isolation: isolate"/>
            <path id="Trazado_20330" data-name="Trazado 20330" d="M173.751,198.166c-2.519-2.525-7.362-6.653-13.093-3.111-9.9,6.119.21,34.119,17.78,34.524C176.821,216.948,175.278,208.763,173.751,198.166Z" transform="translate(-156.77 -109.463)" fill="#ffd28b"/>
            <g id="Grupo_10546" data-name="Grupo 10546" transform="translate(3.279 91.048)">
              <path id="Trazado_20331" data-name="Trazado 20331" d="M160.684,205.332s2.623-5.016,7.179-3.035c5.777,2.514,8.071,13.282,6.259,21.561,0,0-2.883-15.644-6.955-18.093C164.5,204.159,160.684,205.332,160.684,205.332Z" transform="translate(-160.684 -201.834)" fill="#eab68e"/>
              <path id="Trazado_20332" data-name="Trazado 20332" d="M168.484,205.024s-2.756,4.309-1.4,8.131c0,0,3.1-5.168,5.491-6.073Z" transform="translate(-161.661 -202.351)" fill="#eab68e"/>
            </g>
            <g id="Grupo_10547" data-name="Grupo 10547" transform="translate(127.206 80.715)">
              <path id="Trazado_20333" data-name="Trazado 20333" d="M320.781,192.186s-3.4-4.525-7.578-1.827c-5.29,3.419-5.8,14.417-2.667,22.29,0,0,.3-15.9,3.919-18.981C316.83,191.648,320.781,192.186,320.781,192.186Z" transform="translate(-308.598 -189.501)" fill="#eab68e"/>
              <path id="Trazado_20334" data-name="Trazado 20334" d="M314.23,193.055s3.417,3.8,2.7,7.8c0,0-3.9-4.595-6.405-5.1Z" transform="translate(-308.911 -190.077)" fill="#eab68e"/>
            </g>
          </g>
        </g>
        <path id="Trazado_20335" data-name="Trazado 20335" d="M226.892,101.637s-24.145.843-28.637,11.23,2.526,10.668,9.826,14.88,16.193,7.282,22.461,6.176c9.545-1.685,18.811-11.792,28.075-13.2S260.582,101.075,226.892,101.637Z" transform="translate(-163.269 -94.535)" fill="#908179" opacity="0.2" style="mix-blend-mode: screen;isolation: isolate"/>
      </g>
      <g id="Grupo_10555" data-name="Grupo 10555" transform="translate(29.591 178.767)">
        <path id="Trazado_20336" data-name="Trazado 20336" d="M94.8,368.735a116.482,116.482,0,0,1-12.915-18.249c-7.042-12.032-7.861-22.74-14.6-29.76S38.507,285.238,33.6,269.348c-5.9-19.091,2.527-30.882,5.054-29.76,0,0-5.054-17.968,4.492-27.514,5.615-5.614,10.388,0,10.388,0s1.4-14.037,10.95-14.6c5.076-.3,10.949,11.511,10.949,11.511s5.334-10.387,12.634-7.58c4.576,1.76,6.457,30.322,11.511,30.04s9.4-7.464,17.126-6.176c11.791,1.965,16.4,24.265,10.668,45.763-2.246,8.422,6.053,28.454,8.423,37.34,3.369,12.634,9.545,28.356,8.423,32.287S115.3,364.523,94.8,368.735Z" transform="translate(-31.547 -197.469)" fill="#d4efef" opacity="0.5" style="mix-blend-mode: screen;isolation: isolate"/>
        <g id="Grupo_10554" data-name="Grupo 10554" transform="translate(6.271 6.988)">
          <path id="Trazado_20337" data-name="Trazado 20337" d="M133.474,339.9s10.528,18.677,10.92,20.062-7.708,9.432-13.755,12.344-18.463,5.76-18.463,5.76l-10.869-21.2Z" transform="translate(-49.131 -227.555)" fill="#ffd28b"/>
          <path id="Trazado_20338" data-name="Trazado 20338" d="M139.816,351.276c-4.8,6.136-15.409,17.534-30.407,21.393l-8.1-15.8L133.474,339.9S136.825,345.845,139.816,351.276Z" transform="translate(-49.131 -227.555)" fill="#eab68e"/>
          <g id="Grupo_10551" data-name="Grupo 10551">
            <path id="Trazado_20339" data-name="Trazado 20339" d="M119.2,289.754c.958-16.11,3.681-31,1.824-45.193s-11.539-11.445-12.21-6.7-.38,23.417-4.281,24.15c-3.206.6-5.208-3.037-9.362-14.3-1.62-4.4-3.315-9.151-3.958-11.86-2.891-12.166-3.406-25.694-7.266-25.838-5.958-.222-6.63,14.844-5.129,24.769,1.472,9.737,6.45,21.744,5.25,21.98-2.123.416-6.125-7.9-8.665-17.117s-2.876-14.349-3.846-23.039-4.218-10.129-7.83-10.749-3.559,5.04-4.229,13.663c-.683,8.784-.463,14.291,1.647,22.209,3.5,13.127,8.164,19.367,6.512,20.658s-5.448-7.993-6.676-11-5.012-9.316-6.105-18.065c-.886-7.082-3.838-12.8-5.552-13.265-4.045-1.093-6.787,4.337-5.28,16.236s12.392,33.529,11.405,34.4c-.982,1.306-2.877-2.161-4.239-3.8-.974-1.174-5.26-10.81-7.076-15.9s-5.758-1.856-5.014,6.824,5.4,23.091,13.561,31.311c8.9,8.97,9.294,13.277,18.5,20.973s21.138,35.545,21.138,35.545,20.445-4.306,39.66-21.634C131.983,324.006,118.246,305.863,119.2,289.754Zm-66.148-21.1c.095.114.115.14,0,0Z" transform="translate(-39.032 -205.81)" fill="#27c79a"/>
          </g>
          <path id="Trazado_20340" data-name="Trazado 20340" d="M115.4,270.123c1.9-.358,2.805-4.969,3.311-10.155.372,2.638,2.73,20.677-1.981,23.467-5.085,3.011-9.452-21.075-10.692-27.616C110.2,267.086,112.2,270.726,115.4,270.123Z" transform="translate(-49.899 -213.92)" fill="#27b690"/>
          <path id="Trazado_20341" data-name="Trazado 20341" d="M93.374,271.752c3.151-.987-1.12-9.119-2.32-11.279a19.193,19.193,0,0,1,1.05,4.694.746.746,0,0,1-.042.226.326.326,0,0,1-.019.039.186.186,0,0,1-.121.111.851.851,0,0,1-.212.013c-.025,0-.051-.01-.075-.013a1,1,0,0,1-.147-.028c-.032-.008-.065-.023-.1-.034s-.091-.034-.138-.056-.07-.04-.106-.059-.09-.052-.137-.083-.074-.054-.111-.082-.094-.07-.14-.108-.08-.069-.119-.1-.094-.086-.142-.133l-.122-.125c-.048-.051-.1-.1-.145-.158s-.085-.1-.127-.146-.1-.116-.148-.179l-.131-.166c-.05-.066-.1-.132-.151-.2s-.089-.121-.133-.184-.1-.149-.155-.225-.09-.132-.136-.2-.1-.163-.158-.247-.09-.142-.135-.216-.111-.182-.166-.275l-.133-.224c-.058-.1-.117-.209-.176-.314-.041-.073-.082-.144-.123-.22-.068-.123-.135-.25-.2-.377-.034-.064-.068-.125-.1-.19q-.308-.591-.62-1.244v0l.058.437S90.519,272.646,93.374,271.752Z" transform="translate(-46.881 -214.591)" fill="#27b690"/>
          <path id="Trazado_20342" data-name="Trazado 20342" d="M71.275,266.2c.034.085.068.166.1.249.14.337.274.664.4.969.06.147.116.288.171.429.092.231.18.458.261.669.053.141.1.277.15.409q.1.284.185.542c.04.123.078.245.111.359.046.158.083.307.115.449.023.1.048.2.064.3a3.525,3.525,0,0,1,.039.373c0,.076.013.159.011.229a1.385,1.385,0,0,1-.055.312,1.108,1.108,0,0,1-.036.149.816.816,0,0,1-.244.327c-.8.628-2.119-1.257-3.4-3.7,1.167,3.688,3.419,9.932,4.936,8.664,1.863-1.557-.459-8.635-3.367-12.067C70.913,265.33,71.1,265.776,71.275,266.2Z" transform="translate(-43.916 -215.386)" fill="#27b690"/>
          <path id="Trazado_20343" data-name="Trazado 20343" d="M120.442,307.389s.54-11.886,4.858-12.177,2.466,22.719-.733,22.089S119.951,312.231,120.442,307.389Z" transform="translate(-52.219 -220.308)" fill="#9ae7b5" opacity="0.4" style="mix-blend-mode: screen;isolation: isolate"/>
          <path id="Trazado_20344" data-name="Trazado 20344" d="M122.1,329a2.961,2.961,0,1,0,3.095-2.988A3.046,3.046,0,0,0,122.1,329Z" transform="translate(-52.503 -225.303)" fill="#9ae7b5" opacity="0.4" style="mix-blend-mode: screen;isolation: isolate"/>
          <g id="Grupo_10552" data-name="Grupo 10552" transform="translate(12.17 59.223)">
            <path id="Trazado_20345" data-name="Trazado 20345" d="M60.14,287.2c2.141-1.589-3.03-8.844-4.11-10.7,1.286,3.221,2.078,5.391,1.78,5.652-.982,1.306-2.877-2.161-4.239-3.8C53.313,278.875,57.06,289.478,60.14,287.2Z" transform="translate(-53.558 -276.496)" fill="#27b690"/>
            <path id="Trazado_20346" data-name="Trazado 20346" d="M55.772,280.817c.115.14.095.114,0,0Z" transform="translate(-53.917 -277.197)" fill="#27b690"/>
          </g>
          <path id="Trazado_20347" data-name="Trazado 20347" d="M83.841,314.437c-16.165-12.228-30.264-34.474-32.626-39.276-.974-1.174-5.26-10.81-7.076-15.9s-5.758-1.856-5.014,6.824,5.4,23.091,13.561,31.311c8.9,8.97,9.294,13.277,18.5,20.973s21.138,35.545,21.138,35.545,20.445-4.306,39.66-21.635a75.511,75.511,0,0,1-4.732-7.348C113.467,331.926,96.356,323.9,83.841,314.437Z" transform="translate(-39.032 -214.085)" fill="#27b690"/>
          <g id="Grupo_10553" data-name="Grupo 10553" transform="translate(50.114 115.603)">
            <path id="Trazado_20348" data-name="Trazado 20348" d="M100.8,369.894a2.091,2.091,0,0,0,.443-.028c.4-.069,9.855-1.749,22.908-8.391,13.15-6.7,19.33-14.024,19.588-14.331a2.046,2.046,0,0,0-3.144-2.618h0c-.058.07-5.962,7.02-18.3,13.3-12.506,6.367-21.657,7.991-21.748,8.006a2.046,2.046,0,0,0,.252,4.06Z" transform="translate(-98.846 -343.789)" fill="#27617e"/>
          </g>
        </g>
      </g>
      <path id="Trazado_20349" data-name="Trazado 20349" d="M107.323,166.518l5.374,8.535,9.984,1.422-8.535,5.373-1.422,9.985-5.373-8.535-9.985-1.422L105.9,176.5Z" transform="translate(-12.63 -13.683)" fill="#fff"/>
      <path id="Trazado_20350" data-name="Trazado 20350" d="M67.232,162.808l4.08,6.48,7.581,1.08-6.48,4.08-1.08,7.581-4.08-6.48-7.581-1.08,6.48-4.081Z" transform="translate(-6.517 -13.082)" fill="#aee0e0"/>
      <path id="Trazado_20351" data-name="Trazado 20351" d="M377.24,179.254,378.273,189l8.1,5.512-9.742,1.034-5.511,8.1-1.034-9.742-8.1-5.512,9.741-1.034Z" transform="translate(-55.543 -15.749)" fill="#fff"/>
      <path id="Trazado_20352" data-name="Trazado 20352" d="M319.313,290.484l.871,8.211,6.826,4.646-8.211.871-4.646,6.825-.871-8.21-6.826-4.646,8.211-.872Z" transform="translate(-46.538 -33.787)" fill="#aee0e0"/>
      <path id="Trazado_20353" data-name="Trazado 20353" d="M150.316,397.375l4.147,7.14,8.128,1.456-7.14,4.147L154,418.244l-4.147-7.14-8.128-1.455,7.14-4.147Z" transform="translate(-19.823 -51.121)" fill="#fff"/>
      <path id="Trazado_20354" data-name="Trazado 20354" d="M175.353,300.659a5.334,5.334,0,1,1-5.334-5.335A5.334,5.334,0,0,1,175.353,300.659Z" transform="translate(-23.546 -34.572)" fill="#fff"/>
      <circle id="Elipse_646" data-name="Elipse 646" cx="5.896" cy="5.896" r="5.896" transform="translate(309.87 126.271)" fill="#aee0e0"/>
      <path id="Trazado_20355" data-name="Trazado 20355" d="M98.38,147.736a4.211,4.211,0,1,1-4.211-4.21A4.212,4.212,0,0,1,98.38,147.736Z" transform="translate(-11.428 -9.955)" fill="#aee0e0"/>
      <circle id="Elipse_647" data-name="Elipse 647" cx="3.931" cy="3.931" r="3.931" transform="translate(46.243 309.042)" fill="#aee0e0"/>
      <path id="Trazado_20356" data-name="Trazado 20356" d="M341.107,413.359a4.772,4.772,0,1,1-4.771-4.773A4.773,4.773,0,0,1,341.107,413.359Z" transform="translate(-50.609 -52.939)" fill="#aee0e0"/>
      <path id="Trazado_20357" data-name="Trazado 20357" d="M140.594,151.251a3.369,3.369,0,1,1-3.37-3.369A3.369,3.369,0,0,1,140.594,151.251Z" transform="translate(-18.547 -10.661)" fill="#fff"/>
      <path id="Trazado_20358" data-name="Trazado 20358" d="M435.939,167.735a4.773,4.773,0,1,1-4.773-4.773A4.772,4.772,0,0,1,435.939,167.735Z" transform="translate(-65.988 -13.107)" fill="#fff"/>
    </g>
  </g>
</svg>
