<svg xmlns="http://www.w3.org/2000/svg" width="344.531" height="260.838" viewBox="0 0 344.531 260.838">
  <g id="Grupo_19115" data-name="Grupo 19115" transform="translate(-786 -8853.756)">
    <g id="Grupo_10600" data-name="Grupo 10600" transform="translate(-306 1869.756)">
      <path id="Trazado_20255" data-name="Trazado 20255" d="M154.6,0C271.337,0,300.568,24.473,300.568,95.414S288.027,258.272,171.293,258.272,0,150.611,0,79.67,37.868,0,154.6,0Z" transform="translate(1414.873 7244.838) rotate(180)" fill="rgba(152,152,152,0.12)"/>
      <g id="Grupo_10239" data-name="Grupo 10239" transform="translate(1092 6984)">
        <g id="Grupo_10237" data-name="Grupo 10237" transform="translate(126.53 0)">
          <path id="Trazado_19759" data-name="Trazado 19759" d="M270.282,483.489h-31.3c3.783-26.133,9.24-79.127,10.41-110.878,1.193-32.351.97-88.9.97-88.9H258.9s.013,56.7,1.2,88.933C261.268,404.247,266.618,457.218,270.282,483.489Z" transform="translate(-145.629 -283.707)" fill="#eaa51b"/>
          <path id="Trazado_19760" data-name="Trazado 19760" d="M255.57,296.732c-.033-7.96-.034-13.025-.034-13.025h-8.545s.02,5.065.016,13.025Z" transform="translate(-142.263 -283.707)" fill="#5b2872" opacity="0.3" style="mix-blend-mode: multiply;isolation: isolate"/>
          <path id="Trazado_19761" data-name="Trazado 19761" d="M241.2,428.457c-.771,6.32-1.522,12.037-2.218,16.839h31.3c-2.344-16.814-5.379-44.563-7.566-70.651C261.8,406.235,258.135,419.424,241.2,428.457Z" transform="translate(-145.629 -245.515)" fill="#5b2872" opacity="0.2" style="mix-blend-mode: multiply;isolation: isolate"/>
          <path id="Trazado_19762" data-name="Trazado 19762" d="M309.992,425.693h-85.94a14.586,14.586,0,0,0-14.585,14.586H324.577A14.586,14.586,0,0,0,309.992,425.693Z" transform="translate(-158.022 -224.076)" fill="#774825"/>
          <path id="Trazado_19763" data-name="Trazado 19763" d="M320.1,428.663c-3.016,5.633-24.29,5.12-52.877,5.12-29.266,0-50.669.72-52.95-5.426a14.53,14.53,0,0,0-4.809,10.8H324.577A14.529,14.529,0,0,0,320.1,428.663Z" transform="translate(-158.022 -222.957)" fill="#5b2872" opacity="0.3" style="mix-blend-mode: multiply;isolation: isolate"/>
          <path id="Trazado_19764" data-name="Trazado 19764" d="M289.72,418.891h-56.9a9.657,9.657,0,0,0-9.657,9.656h76.213A9.657,9.657,0,0,0,289.72,418.891Z" transform="translate(-152.27 -226.933)" fill="#774825"/>
          <path id="Trazado_19765" data-name="Trazado 19765" d="M296.415,420.858c-2,3.729-16.081,3.39-35.01,3.39-19.377,0-33.547.477-35.056-3.593a9.621,9.621,0,0,0-3.185,7.151h76.213A9.618,9.618,0,0,0,296.415,420.858Z" transform="translate(-152.27 -226.192)" fill="#5b2872" opacity="0.3" style="mix-blend-mode: multiply;isolation: isolate"/>
          <g id="Grupo_10236" data-name="Grupo 10236" transform="translate(0 0.001)">
            <g id="Grupo_10233" data-name="Grupo 10233" transform="translate(104.952)">
              <path id="Trazado_19766" data-name="Trazado 19766" d="M247.149,283.708h73.774a8.231,8.231,0,0,0,7.692,4.741,7.568,7.568,0,0,0,7.377-4.741h1.9s-2.109,7.586-9.167,7.586-10.328-3.793-10.328-3.793l-70.939,2.107Z" transform="translate(-247.149 -283.708)" fill="#774825"/>
              <path id="Trazado_19767" data-name="Trazado 19767" d="M247.421,288.954l70.939-2.107s3.267,3.793,10.327,3.793a8.989,8.989,0,0,0,7.708-4.484c-9.571,7.524-17.087-.889-17.087-.889H247.229Z" transform="translate(-247.115 -283.054)" fill="#5b2872" opacity="0.3" style="mix-blend-mode: multiply;isolation: isolate"/>
              <g id="Grupo_10232" data-name="Grupo 10232" transform="translate(50.442 104.33)">
                <path id="Trazado_19768" data-name="Trazado 19768" d="M331.573,367.748H291.236a2.451,2.451,0,0,1-2.444-2.445h0a2.451,2.451,0,0,1,2.444-2.444h40.337a2.452,2.452,0,0,1,2.445,2.444h0A2.453,2.453,0,0,1,331.573,367.748Z" transform="translate(-280.102 -354.796)" fill="#774825"/>
                <path id="Trazado_19769" data-name="Trazado 19769" d="M331.573,364.941H291.236a2.443,2.443,0,0,1-2.1-1.221,2.406,2.406,0,0,0-.341,1.221,2.451,2.451,0,0,0,2.444,2.445h40.337a2.453,2.453,0,0,0,2.445-2.445,2.407,2.407,0,0,0-.342-1.221A2.439,2.439,0,0,1,331.573,364.941Z" transform="translate(-280.102 -354.435)" fill="#5b2872" opacity="0.2" style="mix-blend-mode: multiply;isolation: isolate"/>
                <path id="Trazado_19770" data-name="Trazado 19770" d="M341.246,365.244H286.7a4.044,4.044,0,0,1-4.031-4.031h0a4.043,4.043,0,0,1,4.031-4.031h54.543a4.043,4.043,0,0,1,4.033,4.031h0A4.044,4.044,0,0,1,341.246,365.244Z" transform="translate(-282.672 -357.181)" fill="#eaa51b"/>
                <path id="Trazado_19771" data-name="Trazado 19771" d="M341.246,361.024H286.7a4.032,4.032,0,0,1-3.6-2.255,3.963,3.963,0,0,0-.433,1.776,4.044,4.044,0,0,0,4.031,4.031h54.543a4.044,4.044,0,0,0,4.033-4.031,3.983,3.983,0,0,0-.433-1.776A4.034,4.034,0,0,1,341.246,361.024Z" transform="translate(-282.672 -356.514)" fill="#5b2872" opacity="0.2" style="mix-blend-mode: multiply;isolation: isolate"/>
              </g>
              <line id="Línea_4" data-name="Línea 4" y2="101.844" transform="translate(81.466 4.741)" fill="none" stroke="#eaa51b" stroke-linecap="round" stroke-linejoin="round" stroke-width="1"/>
              <path id="Trazado_19772" data-name="Trazado 19772" d="M285.152,389.171l27.5-102.792,28.134,102.792" transform="translate(-231.188 -282.586)" fill="none" stroke="#eaa51b" stroke-linecap="round" stroke-linejoin="round" stroke-width="1"/>
            </g>
            <g id="Grupo_10235" data-name="Grupo 10235">
              <path id="Trazado_19773" data-name="Trazado 19773" d="M279.688,283.708H205.915a8.231,8.231,0,0,1-7.692,4.741,7.568,7.568,0,0,1-7.377-4.741h-1.9s2.107,7.586,9.167,7.586,10.328-3.793,10.328-3.793l70.939,2.107Z" transform="translate(-166.64 -283.708)" fill="#774825"/>
              <path id="Trazado_19774" data-name="Trazado 19774" d="M278.951,288.954l-70.939-2.107s-3.267,3.793-10.327,3.793a8.985,8.985,0,0,1-7.708-4.484c9.571,7.524,17.087-.889,17.087-.889h72.079Z" transform="translate(-166.208 -283.054)" fill="#5b2872" opacity="0.3" style="mix-blend-mode: multiply;isolation: isolate"/>
              <g id="Grupo_10234" data-name="Grupo 10234" transform="translate(0 104.33)">
                <path id="Trazado_19775" data-name="Trazado 19775" d="M181.8,367.748h40.337a2.452,2.452,0,0,0,2.444-2.445h0a2.452,2.452,0,0,0-2.444-2.444H181.8a2.452,2.452,0,0,0-2.445,2.444h0A2.453,2.453,0,0,0,181.8,367.748Z" transform="translate(-170.668 -354.796)" fill="#774825"/>
                <path id="Trazado_19776" data-name="Trazado 19776" d="M181.8,364.941h40.337a2.443,2.443,0,0,0,2.1-1.221,2.42,2.42,0,0,1,.341,1.221,2.452,2.452,0,0,1-2.444,2.445H181.8a2.453,2.453,0,0,1-2.445-2.445,2.407,2.407,0,0,1,.342-1.221A2.439,2.439,0,0,0,181.8,364.941Z" transform="translate(-170.668 -354.435)" fill="#5b2872" opacity="0.2" style="mix-blend-mode: multiply;isolation: isolate"/>
                <path id="Trazado_19777" data-name="Trazado 19777" d="M177.271,365.244h54.543a4.044,4.044,0,0,0,4.031-4.031h0a4.043,4.043,0,0,0-4.031-4.031H177.271a4.043,4.043,0,0,0-4.033,4.031h0A4.044,4.044,0,0,0,177.271,365.244Z" transform="translate(-173.238 -357.181)" fill="#eaa51b"/>
                <path id="Trazado_19778" data-name="Trazado 19778" d="M177.271,361.024h54.543a4.032,4.032,0,0,0,3.6-2.255,3.963,3.963,0,0,1,.433,1.776,4.044,4.044,0,0,1-4.031,4.031H177.271a4.044,4.044,0,0,1-4.033-4.031,3.982,3.982,0,0,1,.433-1.776A4.034,4.034,0,0,0,177.271,361.024Z" transform="translate(-173.238 -356.514)" fill="#5b2872" opacity="0.2" style="mix-blend-mode: multiply;isolation: isolate"/>
              </g>
              <line id="Línea_5" data-name="Línea 5" y2="101.844" transform="translate(31.583 4.741)" fill="none" stroke="#eaa51b" stroke-linecap="round" stroke-linejoin="round" stroke-width="1"/>
              <path id="Trazado_19779" data-name="Trazado 19779" d="M231.3,389.171,203.8,286.379,175.666,389.171" transform="translate(-172.218 -282.586)" fill="none" stroke="#eaa51b" stroke-linecap="round" stroke-linejoin="round" stroke-width="1"/>
            </g>
          </g>
        </g>
        <g id="Grupo_10238" data-name="Grupo 10238" transform="translate(0 37.103)">
          <path id="Trazado_19780" data-name="Trazado 19780" d="M136.966,429.531H41.4V308.088L61.2,288.294h75.769Z" transform="translate(-41.402 -288.294)" fill="#ede4d6"/>
          <path id="Trazado_19781" data-name="Trazado 19781" d="M122.855,321.1H56.871a1.5,1.5,0,0,1-1.5-1.5h0a1.5,1.5,0,0,1,1.5-1.5h65.984a1.5,1.5,0,0,1,1.5,1.5h0A1.5,1.5,0,0,1,122.855,321.1Z" transform="translate(-42.081 -289.743)" fill="#b2a89d"/>
          <path id="Trazado_19782" data-name="Trazado 19782" d="M122.855,332.949H56.871a1.5,1.5,0,0,1-1.5-1.5h0a1.5,1.5,0,0,1,1.5-1.5h65.984a1.5,1.5,0,0,1,1.5,1.5h0A1.5,1.5,0,0,1,122.855,332.949Z" transform="translate(-42.081 -290.32)" fill="#b2a89d"/>
          <path id="Trazado_19783" data-name="Trazado 19783" d="M122.855,344.8H56.871a1.5,1.5,0,0,1-1.5-1.5h0a1.5,1.5,0,0,1,1.5-1.5h65.984a1.5,1.5,0,0,1,1.5,1.5h0A1.5,1.5,0,0,1,122.855,344.8Z" transform="translate(-42.081 -290.896)" fill="#b2a89d"/>
          <rect id="Rectángulo_2276" data-name="Rectángulo 2276" width="68.993" height="3.008" rx="1.504" transform="translate(13.285 62.17)" fill="#b2a89d"/>
          <rect id="Rectángulo_2277" data-name="Rectángulo 2277" width="68.993" height="3.008" rx="1.504" transform="translate(13.285 73.444)" fill="#b2a89d"/>
          <path id="Trazado_19784" data-name="Trazado 19784" d="M122.855,380.352H56.871a1.5,1.5,0,0,1-1.5-1.5h0a1.5,1.5,0,0,1,1.5-1.505h65.984a1.5,1.5,0,0,1,1.5,1.505h0A1.5,1.5,0,0,1,122.855,380.352Z" transform="translate(-42.081 -292.625)" fill="#b2a89d"/>
          <path id="Trazado_19785" data-name="Trazado 19785" d="M122.855,392.2H56.871a1.5,1.5,0,0,1-1.5-1.5h0a1.5,1.5,0,0,1,1.5-1.5h65.984a1.5,1.5,0,0,1,1.5,1.5h0A1.5,1.5,0,0,1,122.855,392.2Z" transform="translate(-42.081 -293.202)" fill="#b2a89d"/>
          <path id="Trazado_19786" data-name="Trazado 19786" d="M88.359,404.053H56.871a1.5,1.5,0,0,1-1.5-1.5h0a1.5,1.5,0,0,1,1.5-1.5H88.359a1.5,1.5,0,0,1,1.5,1.5h0A1.5,1.5,0,0,1,88.359,404.053Z" transform="translate(-42.081 -293.779)" fill="#b2a89d"/>
          <path id="Trazado_19787" data-name="Trazado 19787" d="M124.619,427.12H93.131a1.5,1.5,0,0,1-1.5-1.5h0a1.5,1.5,0,0,1,1.5-1.5h31.488a1.5,1.5,0,0,1,1.5,1.5h0A1.5,1.5,0,0,1,124.619,427.12Z" transform="translate(-43.845 -294.901)" fill="#b2a89d"/>
          <path id="Trazado_19788" data-name="Trazado 19788" d="M61.2,288.294,41.4,308.088H61.2Z" transform="translate(-41.402 -288.294)" fill="#d1c4b2"/>
          <circle id="Elipse_637" data-name="Elipse 637" cx="9.851" cy="9.851" r="9.851" transform="translate(55.18 105.306)" fill="#eaa51b"/>
          <circle id="Elipse_638" data-name="Elipse 638" cx="6.386" cy="6.386" r="6.386" transform="translate(58.644 108.77)" fill="#ffc050"/>
        </g>
      </g>
    </g>
  </g>
</svg>
