<svg xmlns="http://www.w3.org/2000/svg" width="77" height="77" viewBox="0 0 77 77">
  <g id="Grupo_18763" data-name="Grupo 18763" transform="translate(-1203 -5119)">
    <g id="Grupo_18701" data-name="Grupo 18701" transform="translate(-7 -49)">
      <g id="Elipse_1100" data-name="Elipse 1100" transform="translate(1210 5168)" fill="#f56b6b" stroke="#2643a2" stroke-width="3">
        <circle cx="38.5" cy="38.5" r="38.5" stroke="none"/>
        <circle cx="38.5" cy="38.5" r="37" fill="none"/>
      </g>
      <path id="Trazado_34824" data-name="Trazado 34824" d="M33.8,253.9H31.485l-1.111-1.111-1.438-1.442a9.624,9.624,0,1,0-.024,0l-1.442,1.442L26.359,253.9H24.042a12.455,12.455,0,0,0-12.457,12.461v16.26H46.259v-16.26A12.458,12.458,0,0,0,33.8,253.9Zm-2.449,18.554-2.429,2.429-2.433-2.429L28.4,258.579l-1.906-1.906,2.433-2.433,2.429,2.433-1.906,1.906Zm-10-30.727a7.575,7.575,0,1,1,7.575,7.567A7.584,7.584,0,0,1,21.349,241.732Zm22.857,38.841H39.364V265.8H37.31v14.77H20.339V265.8h-2.05v14.77h-4.65V266.366a10.416,10.416,0,0,1,10.4-10.411h.264l-.715.719,1.45,1.45,1.187,1.187-1.77,12.869-.136,1.007.719.723,2.429,2.429,1.454,1.45,1.45-1.45,2.429-2.429.723-.723-.14-1.007-1.77-12.869,1.187-1.187,1.45-1.45-.715-.719H33.8a10.421,10.421,0,0,1,10.4,10.411Z" transform="translate(1219.415 4945.897)" fill="#fff"/>
    </g>
  </g>
</svg>
