<svg xmlns="http://www.w3.org/2000/svg" width="77" height="77" viewBox="0 0 77 77">
  <g id="Grupo_18696" data-name="Grupo 18696" transform="translate(-656 -4451)">
    <g id="Elipse_1081" data-name="Elipse 1081" transform="translate(656 4451)" fill="#f56b6b" stroke="#2643a2" stroke-width="3">
      <circle cx="38.5" cy="38.5" r="38.5" stroke="none"/>
      <circle cx="38.5" cy="38.5" r="37" fill="none"/>
    </g>
    <path id="Trazado_34785" data-name="Trazado 34785" d="M159.346,341.382l-11.8-11.8,6.288-6.288-5.984-5.98h0L129.19,298.65l5.113-5.117-1.589-1.593-5.113,5.126,0,0-6.283,6.283-5.7-5.7,4.391-4.387-1.589-1.589-10.375,10.371,1.593,1.589,4.391-4.391,5.694,5.69-6.283,6.292h0l-5.113,5.113,1.589,1.589,5.113-5.117,20.251,20.255h0l4.4,4.391.79-.795,5.493-5.489,11.8,11.8ZM122.1,305.733l5.5-5.489,1.79,1.794-4.912,4.912,1.589,1.589,4.916-4.912,1.832,1.828-4.912,4.921,1.589,1.589,4.912-4.912,1.837,1.832L131.33,313.8l1.589,1.585,4.912-4.912,1.837,1.832-4.916,4.912,1.589,1.593,4.916-4.912,5,5-10.982,10.982-18.662-18.662Zm17.568,28.542-2.806-2.8,10.986-10.982,2.8,2.8Z" transform="translate(558.971 4174.133)" fill="#fff"/>
  </g>
</svg>
