<svg xmlns="http://www.w3.org/2000/svg" width="77" height="77" viewBox="0 0 77 77">
  <g id="Grupo_18693" data-name="Grupo 18693" transform="translate(-1186 -3929)">
    <g id="Elipse_1095" data-name="Elipse 1095" transform="translate(1186 3929)" fill="#f56b6b" stroke="#2643a2" stroke-width="3">
      <circle cx="38.5" cy="38.5" r="38.5" stroke="none"/>
      <circle cx="38.5" cy="38.5" r="37" fill="none"/>
    </g>
    <path id="Trazado_34803" data-name="Trazado 34803" d="M73.881,419.437a2.061,2.061,0,1,0,2.061,2.061A2.059,2.059,0,0,0,73.881,419.437ZM58.013,403.828c0-.148-.03-.3-.044-.444l3.323-2.576L71.6,415.381h28.509V402.5H88.883V392.03H79.706l-8.149,8.149v1.336l-5.566-5.007a3.919,3.919,0,0,0,.074-.725,4.082,4.082,0,0,0-8.163,0,3.4,3.4,0,0,0,.041.385l-3.216,3.664a4,4,0,0,0-.8-.081,4.068,4.068,0,0,0-2.968,6.861,83.921,83.921,0,0,0-2.609,8.848,8.566,8.566,0,0,0-.248,1.921,3.169,3.169,0,0,0,1.887,3.186,8.552,8.552,0,0,0,3.223.407h0c2.457,0,11.986-.285,11.993-.285l1.728-.048-10.273-13.8A4.067,4.067,0,0,0,58.013,403.828Zm15.339-2.9,7.1-7.1h6.635v9.2l-3.464,3.46H73.352Zm-8.13-2.69,6.335,5.7v4.356H84.368l3.989-3.993H98.3v9.277H72.53l-9.762-13.8A4.079,4.079,0,0,0,65.222,398.236ZM61.984,393.5a2.278,2.278,0,1,1-2.28,2.279A2.278,2.278,0,0,1,61.984,393.5Zm-3.345,4.6a4.114,4.114,0,0,0,1.521,1.3L57.34,401.6a3.942,3.942,0,0,0-.914-.973Zm-4.707,3.441a2.281,2.281,0,1,1-2.28,2.28A2.281,2.281,0,0,1,53.931,401.548Zm9.5,17.389c-2.868.081-8.467.237-10.213.237h0a7.2,7.2,0,0,1-2.524-.266c-.5-.263-.733-.411-.785-1.528a7.221,7.221,0,0,1,.2-1.521,81.39,81.39,0,0,1,2.405-8.215,4.058,4.058,0,0,0,1.421.266,4,4,0,0,0,1.158-.189Zm17.574.5a2.061,2.061,0,1,0,2.054,2.061A2.059,2.059,0,0,0,81.008,419.437Zm7.12,0a2.061,2.061,0,1,0,2.061,2.061A2.059,2.059,0,0,0,88.128,419.437Zm7.124,0a2.061,2.061,0,1,0,2.061,2.061A2.059,2.059,0,0,0,95.252,419.437Zm0-3.116H73.881a5.175,5.175,0,1,0,0,10.35H95.252a5.175,5.175,0,1,0,0-10.35Zm0,8.552H73.881a3.375,3.375,0,0,1,0-6.75H95.252a3.375,3.375,0,1,1,0,6.75Z" transform="translate(1149.896 3556.779)" fill="#fff"/>
  </g>
</svg>
