<svg xmlns="http://www.w3.org/2000/svg" width="77" height="77" viewBox="0 0 77 77">
  <g id="Grupo_18698" data-name="Grupo 18698" transform="translate(-656 -4680)">
    <g id="Elipse_1086" data-name="Elipse 1086" transform="translate(656 4680)" fill="#f56b6b" stroke="#2643a2" stroke-width="3">
      <circle cx="38.5" cy="38.5" r="38.5" stroke="none"/>
      <circle cx="38.5" cy="38.5" r="37" fill="none"/>
    </g>
    <path id="Trazado_34823" data-name="Trazado 34823" d="M385.26,303.905a11.624,11.624,0,0,0-2.339.239L381,297.607h-.03V293.9h2.363v.454h5.925v-1.8h-5.925v.45h-6.745v-.45h-5.918v1.795h5.918v-.45h2.584v3.707H362.2l-1.4-3.253h4.984v-1.795h-9.511v1.795h2.571l2.218,5.152L357.83,305.1a11.356,11.356,0,0,0-5.011-1.19,11.529,11.529,0,1,0,11.426,12.5h1.869a3.088,3.088,0,0,0,2.927,2.147,3.125,3.125,0,0,0,3.119-3.119,3.078,3.078,0,0,0-.8-2.037l8.429-13.53,1.415,4.809a11.448,11.448,0,1,0,4.056-.773Zm-7.289-4.5-8.146,13.073a3.032,3.032,0,0,0-.783-.154,2.738,2.738,0,0,0-.467.094l-5.6-13.013Zm-16.027,2.151,5,11.6a3.022,3.022,0,0,0-.857,1.455h-1.822a11.477,11.477,0,0,0-4.873-8.634Zm-7.071,13.06a2.214,2.214,0,0,0-.242-.39l3.848-6.667a9.7,9.7,0,0,1,3.986,7.057Zm-2.053,10.559a9.734,9.734,0,1,1,0-19.469,9.65,9.65,0,0,1,4.113.948l-3.828,6.624a2.151,2.151,0,0,0-.286-.061,2.223,2.223,0,1,0,1.976,3.193h7.652A9.719,9.719,0,0,1,352.819,325.172Zm32.441,0a9.722,9.722,0,0,1-3.552-18.776l2.164,7.346a2.185,2.185,0,0,0-.837,1.694,2.225,2.225,0,0,0,4.45,0,2.184,2.184,0,0,0-1.872-2.148l-2.181-7.4a9.729,9.729,0,1,1,1.828,19.284Z" transform="translate(325.728 4406.716)" fill="#fff"/>
  </g>
</svg>
