<svg xmlns="http://www.w3.org/2000/svg" width="154" height="154" viewBox="0 0 154 154">
  <g id="Grupo_19041" data-name="Grupo 19041" transform="translate(-390 -1696)">
    <g id="Elipse_811" data-name="Elipse 811" transform="translate(390 1696)" fill="#739ee3" stroke="#2643a2" stroke-width="3">
      <circle cx="77" cy="77" r="77" stroke="none"/>
      <circle cx="77" cy="77" r="75.5" fill="none"/>
    </g>
    <g id="Grupo_12007" data-name="Grupo 12007" transform="translate(-865 -885.004)">
      <g id="Grupo_12006" data-name="Grupo 12006" transform="translate(1294 2608)">
        <g id="Grupo_12004" data-name="Grupo 12004" transform="translate(1.22 1.22)">
          <path id="Trazado_24541" data-name="Trazado 24541" d="M1361.791,2617.252v6.5h-35.774l-16.261,16.261v61.791H1300V2614h61.791Z" transform="translate(-1300 -2614)" fill="#ebedf0"/>
          <path id="Trazado_24542" data-name="Trazado 24542" d="M1409.791,2733.547v16.261H1348v-71.547h16.261V2662h45.53v43.9l-19.513,19.513-2.163,6.5-2.715,8.13,7.771-2.585,6.863-2.293,9.756-9.756Z" transform="translate(-1338.244 -2652.243)" fill="#fff"/>
          <path id="Trazado_24543" data-name="Trazado 24543" d="M1538.457,3007.658a5.091,5.091,0,0,1,1.315,3.887L1532,3014.13l2.715-8.13A5.072,5.072,0,0,1,1538.457,3007.658Z" transform="translate(-1484.844 -2926.322)" fill="#8ff3ad"/>
          <path id="Trazado_24544" data-name="Trazado 24544" d="M1564.13,2854.521,1556,2852.9l19.513-19.513L1586.9,2822l4.878,4.878,4.878,4.878-21.139,21.139-9.756,9.756Z" transform="translate(-1503.965 -2779.722)" fill="#8ff3ad"/>
          <path id="Trazado_24545" data-name="Trazado 24545" d="M1364.261,2662v16.261H1348Z" transform="translate(-1338.244 -2652.243)" fill="#8ff3ad"/>
        </g>
        <g id="Grupo_12005" data-name="Grupo 12005" transform="translate(0 0)">
          <path id="Trazado_24546" data-name="Trazado 24546" d="M1591.219,2889.2a1.22,1.22,0,0,1-.862-2.082l22.765-22.765a1.219,1.219,0,0,1,1.725,1.724l-22.765,22.765A1.215,1.215,0,0,1,1591.219,2889.2Z" transform="translate(-1529.835 -2811.966)" fill="#fff"/>
          <path id="Trazado_24547" data-name="Trazado 24547" d="M1298.472,2698.247h-3.252a1.22,1.22,0,0,1-1.219-1.219v-87.808a1.22,1.22,0,0,1,1.219-1.219h61.791a1.22,1.22,0,0,1,1.22,1.219v3.252a1.22,1.22,0,0,1-2.439,0v-2.033h-59.352v85.369h2.033a1.22,1.22,0,0,1,0,2.439Z" transform="translate(-1294 -2608)" fill="#303e58"/>
          <path id="Trazado_24548" data-name="Trazado 24548" d="M1405.01,2835.482h-61.791a1.22,1.22,0,0,1-1.219-1.22V2769.22a1.22,1.22,0,1,1,2.439,0v63.823h59.352V2818a1.22,1.22,0,0,1,2.439,0v16.261A1.22,1.22,0,0,1,1405.01,2835.482Z" transform="translate(-1332.244 -2735.479)" fill="#303e58"/>
          <path id="Trazado_24549" data-name="Trazado 24549" d="M1647.219,2842.57a1.22,1.22,0,0,1-1.219-1.219v-8.13a1.22,1.22,0,1,1,2.439,0v8.13A1.22,1.22,0,0,1,1647.219,2842.57Z" transform="translate(-1574.453 -2786.47)" fill="#303e58"/>
          <path id="Trazado_24550" data-name="Trazado 24550" d="M1468.75,2694.213a1.22,1.22,0,0,1-1.219-1.219v-34.554H1423.22a1.22,1.22,0,1,1,0-2.439h45.53a1.22,1.22,0,0,1,1.22,1.22v35.774A1.22,1.22,0,0,1,1468.75,2694.213Z" transform="translate(-1395.983 -2646.243)" fill="#303e58"/>
          <path id="Trazado_24551" data-name="Trazado 24551" d="M1359.48,2674.7h-16.261a1.22,1.22,0,0,1-.862-2.082l16.261-16.261a1.22,1.22,0,0,1,2.082.862v16.261A1.22,1.22,0,0,1,1359.48,2674.7Zm-13.317-2.439h12.1v-12.1Z" transform="translate(-1332.244 -2646.243)" fill="#303e58"/>
          <path id="Trazado_24552" data-name="Trazado 24552" d="M1527.22,2844.848a1.219,1.219,0,0,1-1.157-1.606l2.715-8.13,2.162-6.5a1.22,1.22,0,0,1,.295-.477l35.774-35.774a1.219,1.219,0,0,1,1.725,0l9.756,9.756a1.22,1.22,0,0,1,0,1.725l-35.774,35.774a1.214,1.214,0,0,1-.476.294l-6.863,2.293-7.773,2.585A1.22,1.22,0,0,1,1527.22,2844.848Zm5.944-15.2-2.072,6.231-1.943,5.818,5.457-1.815,6.589-2.2,34.708-34.708-8.032-8.032Zm8.69,9.1h0Z" transform="translate(-1478.844 -2754.6)" fill="#303e58"/>
          <path id="Trazado_24553" data-name="Trazado 24553" d="M1732.1,2847.317a1.216,1.216,0,0,1-.862-.357l-4.878-4.878a1.219,1.219,0,0,1,1.725-1.724l4.878,4.878a1.22,1.22,0,0,1-.862,2.082Z" transform="translate(-1638.192 -2792.844)" fill="#303e58"/>
          <path id="Trazado_24554" data-name="Trazado 24554" d="M1560.974,2980.2a1.22,1.22,0,0,1-1.195-.98l-1.467-7.333-7.333-1.467a1.22,1.22,0,0,1,.479-2.392l8.13,1.626a1.219,1.219,0,0,1,.957.957l1.626,8.13a1.219,1.219,0,0,1-1.2,1.459Z" transform="translate(-1497.965 -2894.827)" fill="#303e58"/>
          <path id="Trazado_24555" data-name="Trazado 24555" d="M1545.636,3007.984c-.037,0-.074,0-.112,0a1.22,1.22,0,0,1-1.1-1.325,3.894,3.894,0,0,0-1-2.958,3.847,3.847,0,0,0-2.838-1.258,1.22,1.22,0,1,1,0-2.439,6.315,6.315,0,0,1,6.271,6.875A1.219,1.219,0,0,1,1545.636,3007.984Z" transform="translate(-1489.487 -2920.322)" fill="#303e58"/>
          <path id="Trazado_24556" data-name="Trazado 24556" d="M1386.471,2784.943a1.215,1.215,0,0,1-.862-.357l-3.252-3.252a1.219,1.219,0,0,1,1.725-1.724l2.39,2.39,5.642-5.642a1.22,1.22,0,0,1,1.725,1.724l-6.5,6.5A1.215,1.215,0,0,1,1386.471,2784.943Z" transform="translate(-1364.113 -2741.852)" fill="#303e58"/>
          <path id="Trazado_24557" data-name="Trazado 24557" d="M1492.489,2802.439H1463.22a1.219,1.219,0,1,1,0-2.439h29.269a1.219,1.219,0,1,1,0,2.439Z" transform="translate(-1427.852 -2760.974)" fill="#979faf"/>
          <path id="Trazado_24558" data-name="Trazado 24558" d="M1492.489,2722.439H1463.22a1.219,1.219,0,1,1,0-2.439h29.269a1.219,1.219,0,1,1,0,2.439Z" transform="translate(-1427.852 -2697.235)" fill="#979faf"/>
          <path id="Trazado_24559" data-name="Trazado 24559" d="M1386.471,2864.943a1.215,1.215,0,0,1-.862-.357l-3.252-3.252a1.22,1.22,0,0,1,1.725-1.725l2.39,2.39,5.642-5.642a1.22,1.22,0,0,1,1.725,1.724l-6.5,6.5A1.215,1.215,0,0,1,1386.471,2864.943Z" transform="translate(-1364.113 -2805.592)" fill="#303e58"/>
          <path id="Trazado_24560" data-name="Trazado 24560" d="M1489.237,2882.439H1463.22a1.22,1.22,0,1,1,0-2.439h26.017a1.22,1.22,0,1,1,0,2.439Z" transform="translate(-1427.852 -2824.713)" fill="#979faf"/>
          <path id="Trazado_24561" data-name="Trazado 24561" d="M1386.471,2944.943a1.215,1.215,0,0,1-.862-.357l-3.252-3.252a1.22,1.22,0,0,1,1.725-1.725l2.39,2.39,5.642-5.642a1.22,1.22,0,0,1,1.725,1.724l-6.5,6.5A1.215,1.215,0,0,1,1386.471,2944.943Z" transform="translate(-1364.113 -2869.331)" fill="#303e58"/>
          <path id="Trazado_24562" data-name="Trazado 24562" d="M1474.6,2962.439H1463.22a1.22,1.22,0,1,1,0-2.439H1474.6a1.22,1.22,0,1,1,0,2.439Z" transform="translate(-1427.852 -2888.453)" fill="#979faf"/>
          <path id="Trazado_24563" data-name="Trazado 24563" d="M1386.471,3024.943a1.216,1.216,0,0,1-.862-.357l-3.252-3.252a1.219,1.219,0,0,1,1.725-1.724l2.39,2.39,5.642-5.642a1.22,1.22,0,0,1,1.725,1.724l-6.5,6.5A1.216,1.216,0,0,1,1386.471,3024.943Z" transform="translate(-1364.113 -2933.07)" fill="#303e58"/>
          <path id="Trazado_24564" data-name="Trazado 24564" d="M1469.724,3042.439h-6.5a1.22,1.22,0,1,1,0-2.439h6.5a1.22,1.22,0,1,1,0,2.439Z" transform="translate(-1427.852 -2952.192)" fill="#979faf"/>
        </g>
      </g>
    </g>
  </g>
</svg>
