<svg xmlns="http://www.w3.org/2000/svg" width="154" height="154" viewBox="0 0 154 154">
  <g id="Grupo_19039" data-name="Grupo 19039" transform="translate(-390 -1156)">
    <g id="Elipse_809" data-name="Elipse 809" transform="translate(390 1156)" fill="#739ee3" stroke="#2643a2" stroke-width="3">
      <circle cx="77" cy="77" r="77" stroke="none"/>
      <circle cx="77" cy="77" r="75.5" fill="none"/>
    </g>
    <g id="Grupo_11984" data-name="Grupo 11984" transform="translate(-877.009 -625.832)">
      <circle id="Elipse_815" data-name="Elipse 815" cx="35.713" cy="35.713" r="35.713" transform="translate(1308.213 1809.211)" fill="#ebedf0"/>
      <g id="Grupo_11983" data-name="Grupo 11983" transform="translate(1294.009 1808)">
        <g id="Grupo_11982" data-name="Grupo 11982" transform="translate(0 0)">
          <g id="Grupo_11980" data-name="Grupo 11980" transform="translate(1.218 1.217)">
            <path id="Trazado_24475" data-name="Trazado 24475" d="M1326.6,1903.282c-.357-2.127-3.1-11.347-3.1-11.347-7.582-20.567-22.647-31.329-23.49-43.845,10.78-3.881,25.114-17.841,32.336-21.379,12.11-5.926,27.19-3.782,39.089-12.711,5.957,6.9,9.641,32.824,12.986,43.829,3.782,12.45,6.639,14.09,12.986,22.726a22.534,22.534,0,0,1-5.228,5.746,53.569,53.569,0,0,1-5.307,4.188c-.276-3.327-.6-7.841-2.159-11.85-1.525-3.962-6.785-15.926-7.207-17.5-2.159-7.823-4.547-19.2-6.43-24.17-1.655-4.4-3.018-4.48-4.35-3.7-3.328,1.9,2,23.489-.438,24.885-1.363.778-4.188-6.932-5.811-12.094-3.523-11.119-5.583-15.356-8.052-13.944-3.489,2.013-1.866,6.119,1.493,16.347,2.11,6.411,4.481,12.337,3.02,13.18-1.608.926-5.552-6.314-8.814-11.931-8-13.814-8.459-15.843-11.154-14.285-3.231,1.85-1.541,5.455,5.472,17.547,3.392,5.877,6.557,13.166,5.875,13.554-3.733,2.143-14.545-18.018-18.506-15.729-1.785,1.022-2,3.117-.388,5.892,2.192,3.782,21.8,27.125,18.668,28.944-3.213,1.834-15.372-11.948-19.935-9.317-3.554,2.045-1.688,4.74-1.688,4.74s7.4,5.664,10.845,8.877a80.95,80.95,0,0,0,13.8,11.251,33.521,33.521,0,0,0,6.59,3.068c-5.163,1.639-8.619,2.419-8.619,2.419-9.3,2.923-17.387,4.724-21.477,4.724A72.511,72.511,0,0,0,1326.6,1903.282Z" transform="translate(-1300.01 -1814)" fill="#8ff3ad"/>
            <path id="Trazado_24476" data-name="Trazado 24476" d="M1614.265,2195.474l9.771,11.525a71.668,71.668,0,0,1-29.22,4.87,22.389,22.389,0,0,0-1.688-3.848c-.666-1.168-4.383-1.736-8.8-3.3,7.808-2.482,19.545-6.963,29.171-13.765A14.175,14.175,0,0,0,1614.265,2195.474Z" transform="translate(-1526.638 -2114.47)" fill="#fff"/>
            <path id="Trazado_24477" data-name="Trazado 24477" d="M1486.729,1948.774c1.56,4.009,1.883,8.522,2.159,11.85-9.626,6.8-21.363,11.282-29.17,13.765a33.521,33.521,0,0,1-6.59-3.068,80.95,80.95,0,0,1-13.8-11.251c-3.443-3.213-10.845-8.877-10.845-8.877s-1.866-2.695,1.688-4.74c4.562-2.632,16.721,11.151,19.935,9.317,3.132-1.818-16.476-25.161-18.668-28.944-1.607-2.776-1.4-4.87.388-5.892,3.961-2.289,14.773,17.872,18.506,15.729.682-.388-2.482-7.677-5.875-13.554-7.013-12.092-8.7-15.7-5.472-17.547,2.695-1.558,3.15.471,11.154,14.285,3.262,5.617,7.206,12.856,8.814,11.931,1.462-.843-.91-6.769-3.02-13.18-3.359-10.228-4.983-14.334-1.493-16.347,2.468-1.412,4.529,2.825,8.052,13.944,1.623,5.162,4.448,12.872,5.811,12.094,2.435-1.4-2.89-22.986.438-24.885,1.332-.778,2.695-.7,4.35,3.7,1.883,4.967,4.271,16.347,6.43,24.17C1479.945,1932.849,1485.2,1944.813,1486.729,1948.774Z" transform="translate(-1402.026 -1884.134)" fill="#fff"/>
            <path id="Trazado_24478" data-name="Trazado 24478" d="M1307.64,1828.188a4.2,4.2,0,0,0-2.338-2.338l-5.292-2.11,5.292-2.11a4.2,4.2,0,0,0,2.338-2.338l2.11-5.292,2.127,5.292a4.187,4.187,0,0,0,2.337,2.338l5.276,2.11-5.276,2.11a4.188,4.188,0,0,0-2.337,2.338l-2.127,5.292Z" transform="translate(-1300.01 -1814)" fill="#fff"/>
            <path id="Trazado_24479" data-name="Trazado 24479" d="M1308.891,2190.541a4.893,4.893,0,0,0-2.712-2.711l-6.168-2.467,6.168-2.467a4.892,4.892,0,0,0,2.712-2.711l2.483-6.186,2.467,6.186a4.894,4.894,0,0,0,2.711,2.711l6.17,2.467-6.17,2.467a4.895,4.895,0,0,0-2.711,2.711l-2.467,6.186Z" transform="translate(-1300.01 -2100.951)" fill="#fff"/>
            <path id="Trazado_24480" data-name="Trazado 24480" d="M1716.243,1822.117l-4.417,1.769a3.483,3.483,0,0,0-1.931,1.931l-1.769,4.417-1.769-4.417a3.483,3.483,0,0,0-1.931-1.931l-4.416-1.769,4.416-1.769a3.483,3.483,0,0,0,1.931-1.931l1.769-4.417,1.769,4.417a3.483,3.483,0,0,0,1.931,1.931Z" transform="translate(-1618.845 -1814)" fill="#fff"/>
          </g>
          <g id="Grupo_11981" data-name="Grupo 11981">
            <path id="Trazado_24481" data-name="Trazado 24481" d="M1465.419,1977.971a1.218,1.218,0,0,1-1.159-.846,21.284,21.284,0,0,0-1.576-3.6c-.345-.4-2.29-.962-3.854-1.418-1.285-.374-2.741-.8-4.3-1.35a34.148,34.148,0,0,1-6.827-3.182,75.522,75.522,0,0,1-12.766-10.234c-.437-.418-.843-.807-1.221-1.161-3.358-3.134-10.679-8.743-10.752-8.8a1.212,1.212,0,0,1-.261-.274,4.327,4.327,0,0,1-.609-3.241,5.124,5.124,0,0,1,2.691-3.247c3.165-1.826,8.092,1.743,12.855,5.2,1.734,1.257,3.372,2.443,4.75,3.236a6.687,6.687,0,0,0,2.018.871c-.167-.737-.957-2.722-4.388-7.716-2.774-4.038-6.349-8.717-9.221-12.476-2.535-3.318-4.537-5.939-5.194-7.072a6.792,6.792,0,0,1-1.1-5.106,4,4,0,0,1,1.94-2.453c2.9-1.678,6.682,2.947,11.056,8.3,1.646,2.015,3.348,4.1,4.8,5.547a11.13,11.13,0,0,0,1.853,1.557,77.4,77.4,0,0,0-5.531-11.567c-5.615-9.681-7.827-13.906-7.068-16.73a4.018,4.018,0,0,1,2.045-2.483,3.347,3.347,0,0,1,2.585-.515c1.8.487,2.974,2.55,6.867,9.385.962,1.69,2.053,3.605,3.36,5.861.316.544.639,1.1.965,1.671,1.64,2.844,4.513,7.829,6.033,9.332a52.078,52.078,0,0,0-2.34-8.069c-.352-1.034-.716-2.1-1.074-3.191q-.305-.93-.59-1.792c-1.485-4.5-2.557-7.746-2.839-10.155-.432-3.7,1.211-5.1,2.484-5.835a2.834,2.834,0,0,1,2.518-.232c2.241.875,4.016,4.486,7.3,14.863a61.129,61.129,0,0,0,4.082,10.453,72.877,72.877,0,0,0-.614-8.763c-.91-8.527-1.348-13.821,1.017-15.171a3.156,3.156,0,0,1,2.673-.38c1.316.467,2.37,1.92,3.42,4.71,1.2,3.166,2.55,8.673,3.979,14.5.825,3.365,1.677,6.846,2.485,9.771.216.807,2.062,5.167,3.691,9.013,1.375,3.248,2.8,6.607,3.478,8.373,1.564,4.019,1.934,8.52,2.2,11.806l.031.38a18.975,18.975,0,0,0,.567,3.93l9.684,11.422a1.217,1.217,0,0,1-1.857,1.575l-9.772-11.525a1.2,1.2,0,0,1-.126-.179c-.546-.946-.713-2.527-.923-5.02l-.032-.384c-.273-3.312-.612-7.434-2.049-11.127-.667-1.733-2.081-5.073-3.449-8.3-2.2-5.2-3.558-8.427-3.8-9.323-.814-2.95-1.671-6.448-2.5-9.83-1.349-5.5-2.743-11.195-3.892-14.224-1.04-2.764-1.76-3.206-1.956-3.275-.053-.018-.192-.068-.638.192-.061.06-.6.7-.521,4.248.057,2.491.386,5.575.7,8.558.874,8.184,1.031,11.132-.633,12.087a1.645,1.645,0,0,1-1.441.094c-.589-.231-2.381-.934-6.137-12.878-1.193-3.767-3.99-12.6-5.866-13.327-.072-.028-.171-.067-.419.075-2.306,1.33-1.486,4.211,1.454,13.116q.285.864.591,1.795c.354,1.075.716,2.138,1.066,3.167,2.249,6.607,3.487,10.246,1.406,11.447a1.844,1.844,0,0,1-.932.264c-2.143,0-4.568-4.01-8.582-10.972-.325-.564-.647-1.122-.962-1.665-1.312-2.265-2.405-4.184-3.37-5.878-2.749-4.828-4.566-8.017-5.387-8.24a1.385,1.385,0,0,0-.734.275,1.613,1.613,0,0,0-.908,1c-.532,1.979,2.357,7.176,6.824,14.878a93.611,93.611,0,0,1,4.346,8.544c2.048,4.636,1.839,5.409,1.726,5.825a1.387,1.387,0,0,1-.648.854c-2.731,1.568-6.179-2.655-10.544-8a71.436,71.436,0,0,0-5.291-6.04c-2.057-1.957-2.659-1.7-2.665-1.692a1.575,1.575,0,0,0-.8.975,4.72,4.72,0,0,0,.859,3.253c.579,1,2.638,3.694,5.022,6.814,9.986,13.072,14.644,19.774,14.1,22.5a1.886,1.886,0,0,1-.9,1.291c-2.154,1.228-5.33-1.072-9.727-4.258-3.55-2.572-8.412-6.1-10.211-5.057a2.877,2.877,0,0,0-1.526,1.65,1.869,1.869,0,0,0,.165,1.219c1.221.938,7.565,5.841,10.74,8.8.386.361.8.756,1.242,1.181a72.378,72.378,0,0,0,12.369,9.926,31.844,31.844,0,0,0,6.352,2.953c1.5.529,2.918.943,4.172,1.308,2.868.836,4.6,1.34,5.278,2.532a23.417,23.417,0,0,1,1.79,4.079,1.219,1.219,0,0,1-1.16,1.589Zm-2.739-4.45h0Zm1.892-73.846h0Zm.007-.006h0Z" transform="translate(-1396.023 -1878.137)" fill="#303e58"/>
            <path id="Trazado_24482" data-name="Trazado 24482" d="M1427.272,2258.551a1.217,1.217,0,0,1-1.215-1.134,71.464,71.464,0,0,0-.99-7.98,1.218,1.218,0,0,1,2.4-.44c.418,2.275.731,4.651.934,7.079,4.193-.276,11.5-1.962,19.987-4.628a1.217,1.217,0,1,1,.73,2.323C1439.589,2256.764,1431.424,2258.551,1427.272,2258.551Z" transform="translate(-1398.458 -2158.718)" fill="#303e58"/>
            <path id="Trazado_24483" data-name="Trazado 24483" d="M1318.717,1888.37a1.218,1.218,0,0,1-1.142-.8c-3.6-9.772-8.921-17.3-13.614-23.937-5.092-7.205-9.49-13.428-9.949-20.247a1.218,1.218,0,0,1,.8-1.227c6.256-2.252,13.825-8.059,20.5-13.182,4.662-3.576,8.688-6.665,11.709-8.145,5.3-2.592,11.191-3.692,16.891-4.756,7.566-1.412,15.389-2.873,22-7.835a1.218,1.218,0,0,1,1.652.178c4.293,4.972,7.3,18.63,9.953,30.68,1.154,5.241,2.244,10.191,3.277,13.591,2.927,9.635,5.3,12.662,9.223,17.676,1.052,1.344,2.245,2.867,3.58,4.684a1.217,1.217,0,0,1,.073,1.33,23.683,23.683,0,0,1-5.507,6.077,1.218,1.218,0,0,1-1.551-1.877,23.268,23.268,0,0,0,4.533-4.749c-1.119-1.5-2.135-2.8-3.045-3.962-4.1-5.237-6.576-8.4-9.635-18.469-1.061-3.491-2.161-8.486-3.325-13.775-2.319-10.532-5.171-23.489-8.744-28.728-6.833,4.737-14.558,6.179-22.039,7.575-5.8,1.082-11.269,2.1-16.267,4.549-2.8,1.373-6.929,4.538-11.3,7.89-6.516,5-13.863,10.634-20.273,13.2.736,5.826,4.778,11.544,9.422,18.116,4.779,6.763,10.2,14.427,13.91,24.5a1.218,1.218,0,0,1-1.142,1.639Z" transform="translate(-1294.009 -1808)" fill="#303e58"/>
          </g>
        </g>
      </g>
    </g>
  </g>
</svg>
