<svg xmlns="http://www.w3.org/2000/svg" width="154" height="154" viewBox="0 0 154 154">
  <g id="Grupo_19051" data-name="Grupo 19051" transform="translate(-390 -4457)">
    <g id="Elipse_843" data-name="Elipse 843" transform="translate(390 4457)" fill="#f56b6b" stroke="#2643a2" stroke-width="3">
      <circle cx="77" cy="77" r="77" stroke="none"/>
      <circle cx="77" cy="77" r="75.5" fill="none"/>
    </g>
    <g id="Grupo_12048" data-name="Grupo 12048" transform="translate(-1706.158 3801.502)">
      <circle id="Elipse_846" data-name="Elipse 846" cx="37.865" cy="37.865" r="37.865" transform="translate(2125.147 678.741) rotate(-9.827)" fill="#ebedf0"/>
      <g id="Grupo_12047" data-name="Grupo 12047" transform="translate(2121.158 670.432)">
        <g id="Grupo_12046" data-name="Grupo 12046" transform="translate(0 0)">
          <g id="Grupo_12044" data-name="Grupo 12044" transform="translate(6.454 1.291)">
            <path id="Trazado_24770" data-name="Trazado 24770" d="M2176.521,813.369a5.4,5.4,0,0,1,8.744,4.957h-19.071a5.156,5.156,0,0,0-5.164,5.163v15.49a3.453,3.453,0,0,1-3.442,3.442,3.383,3.383,0,0,1-2.427-1.015,3.3,3.3,0,0,1-1-2.427l.035-15.352a5.3,5.3,0,0,0-1.532-3.753,5.36,5.36,0,0,0-3.752-1.548h-5.094a6.62,6.62,0,0,1,12.048-5.3,5.062,5.062,0,0,1,4.405-2.237,5.121,5.121,0,0,1,4.2,2.581,6.906,6.906,0,0,1,12.048,0Z" transform="translate(-2142.098 -764.971)" fill="#fff"/>
            <path id="Trazado_24771" data-name="Trazado 24771" d="M2317.531,686.041v82.615h-6.884V686.041a3.442,3.442,0,1,1,6.884,0Z" transform="translate(-2250.407 -682.599)" fill="#8ff3ad"/>
            <path id="Trazado_24772" data-name="Trazado 24772" d="M2265.188,780.4a3.442,3.442,0,1,1-3.442,3.442A3.441,3.441,0,0,1,2265.188,780.4Z" transform="translate(-2218.718 -745.976)" fill="#fff"/>
            <path id="Trazado_24773" data-name="Trazado 24773" d="M2301.6,933.984h-44.75v-3.442a3.453,3.453,0,0,1,3.443-3.442h37.865a3.452,3.452,0,0,1,3.442,3.442Z" transform="translate(-2215.548 -841.043)" fill="#8ff3ad"/>
            <path id="Trazado_24774" data-name="Trazado 24774" d="M2187.1,909.838l-1.842,23.287h-34.285l-1.4-16.626-.55-6.643c4.629,3.838,11.066,6.059,19.019,6.059C2176.018,915.914,2182.472,913.693,2187.1,909.838Z" transform="translate(-2145.675 -829.857)" fill="#8ff3ad"/>
            <path id="Trazado_24775" data-name="Trazado 24775" d="M2196.728,775.509a3.442,3.442,0,1,1-3.442,3.442A3.441,3.441,0,0,1,2196.728,775.509Z" transform="translate(-2174.353 -742.807)" fill="#fff"/>
            <path id="Trazado_24776" data-name="Trazado 24776" d="M2148.689,755.949a4.3,4.3,0,1,1-4.3,4.3A4.305,4.305,0,0,1,2148.689,755.949Z" transform="translate(-2142.665 -730.132)" fill="#fff"/>
            <path id="Trazado_24777" data-name="Trazado 24777" d="M2180.924,860.816c-4.631,3.855-11.085,6.076-19.053,6.076-7.952,0-14.389-2.221-19.019-6.059l-.636-7.8-1-11.962H2139.5V834.19h6.815a5.36,5.36,0,0,1,3.752,1.548,5.3,5.3,0,0,1,1.532,3.753l-.035,15.352a3.305,3.305,0,0,0,1,2.427,3.384,3.384,0,0,0,2.427,1.015,3.453,3.453,0,0,0,3.442-3.442v-15.49a5.156,5.156,0,0,1,5.163-5.163h20.654v6.884h-1.721l-.981,11.893Z" transform="translate(-2139.496 -780.834)" fill="#8ff3ad"/>
          </g>
          <g id="Grupo_12045" data-name="Grupo 12045">
            <path id="Trazado_24778" data-name="Trazado 24778" d="M2332.719,965.406a1.291,1.291,0,0,1-1.291-1.291v-5.163a1.291,1.291,0,1,1,2.582,0v5.163A1.291,1.291,0,0,1,2332.719,965.406Z" transform="translate(-2257.419 -859.556)" fill="#979faf"/>
            <path id="Trazado_24779" data-name="Trazado 24779" d="M2303.379,965.406a1.291,1.291,0,0,1-1.291-1.291v-5.163a1.291,1.291,0,0,1,2.582,0v5.163A1.291,1.291,0,0,1,2303.379,965.406Z" transform="translate(-2238.406 -859.556)" fill="#979faf"/>
            <path id="Trazado_24780" data-name="Trazado 24780" d="M2360.473,965.407a1.291,1.291,0,0,1-1.272-1.079l-.86-5.163a1.291,1.291,0,1,1,2.546-.424l.861,5.163a1.293,1.293,0,0,1-1.275,1.5Z" transform="translate(-2274.848 -859.556)" fill="#979faf"/>
            <path id="Trazado_24781" data-name="Trazado 24781" d="M2274.041,965.407a1.293,1.293,0,0,1-1.275-1.5l.861-5.163a1.291,1.291,0,0,1,2.547.424l-.861,5.163A1.291,1.291,0,0,1,2274.041,965.407Z" transform="translate(-2219.393 -859.557)" fill="#979faf"/>
            <path id="Trazado_24782" data-name="Trazado 24782" d="M2141.438,817.231a1.291,1.291,0,0,1-1.231-.9,7.911,7.911,0,0,1,14.4-6.334,1.291,1.291,0,1,1-2.236,1.29,5.329,5.329,0,0,0-9.7,4.268,1.292,1.292,0,0,1-1.232,1.679Z" transform="translate(-2133.263 -761.293)" fill="#979faf"/>
            <path id="Trazado_24783" data-name="Trazado 24783" d="M2184.846,814.261a1.291,1.291,0,0,1-1.123-.653,3.808,3.808,0,0,0-3.142-1.93,3.73,3.73,0,0,0-3.27,1.667,1.291,1.291,0,1,1-2.144-1.437,6.317,6.317,0,0,1,5.527-2.809,6.383,6.383,0,0,1,5.273,3.234,1.291,1.291,0,0,1-1.121,1.929Z" transform="translate(-2156.016 -763.28)" fill="#979faf"/>
            <path id="Trazado_24784" data-name="Trazado 24784" d="M2200.688,812.523a1.291,1.291,0,0,1-1.126-1.921,8.2,8.2,0,0,1,14.3,0,1.291,1.291,0,1,1-2.253,1.26,5.615,5.615,0,0,0-9.794,0A1.29,1.29,0,0,1,2200.688,812.523Z" transform="translate(-2171.86 -761.542)" fill="#979faf"/>
            <path id="Trazado_24785" data-name="Trazado 24785" d="M2243.665,821.8a1.271,1.271,0,0,1-.181-.013,1.291,1.291,0,0,1-1.1-1.458,4.11,4.11,0,0,0-2.048-4.156,4.172,4.172,0,0,0-4.611.386,1.291,1.291,0,0,1-1.613-2.016,6.78,6.78,0,0,1,7.5-.616,6.682,6.682,0,0,1,3.331,6.76A1.291,1.291,0,0,1,2243.665,821.8Z" transform="translate(-2194.042 -765.861)" fill="#979faf"/>
            <path id="Trazado_24786" data-name="Trazado 24786" d="M2297.781,955.9H2249.59a1.291,1.291,0,0,1-1.273-1.5l1.721-10.326a1.291,1.291,0,1,1,2.547.424l-1.47,8.823h45.145l-1.47-8.823a1.291,1.291,0,1,1,2.546-.424l1.721,10.326a1.291,1.291,0,0,1-1.273,1.5Z" transform="translate(-2203.549 -850.05)" fill="#303e58"/>
            <path id="Trazado_24787" data-name="Trazado 24787" d="M2299.229,932.9h-37.865a1.291,1.291,0,0,1,0-2.582h36.574v-2.151a2.154,2.154,0,0,0-2.151-2.151h-37.865a2.154,2.154,0,0,0-2.151,2.151v3.442a1.291,1.291,0,1,1-2.582,0v-3.442a4.738,4.738,0,0,1,4.733-4.733h37.865a4.739,4.739,0,0,1,4.733,4.733v3.442A1.291,1.291,0,0,1,2299.229,932.9Z" transform="translate(-2206.717 -837.375)" fill="#303e58"/>
            <path id="Trazado_24788" data-name="Trazado 24788" d="M2315.155,767.57a1.291,1.291,0,0,1-1.291-1.291V683.664a2.151,2.151,0,1,0-4.3,0v82.615a1.291,1.291,0,1,1-2.582,0V683.664a4.733,4.733,0,1,1,9.466,0v82.615A1.291,1.291,0,0,1,2315.155,767.57Z" transform="translate(-2241.575 -678.931)" fill="#303e58"/>
            <path id="Trazado_24789" data-name="Trazado 24789" d="M2226.233,839.988H2207.3a1.291,1.291,0,0,1,0-2.582h17.642v-4.3h-19.363a1.291,1.291,0,1,1,0-2.582h20.653a1.291,1.291,0,0,1,1.291,1.291V838.7A1.291,1.291,0,0,1,2226.233,839.988Z" transform="translate(-2175.029 -777.166)" fill="#303e58"/>
            <path id="Trazado_24790" data-name="Trazado 24790" d="M2142.334,839.988h-5.215a1.291,1.291,0,0,1-1.291-1.291v-6.885a1.291,1.291,0,0,1,1.291-1.291h6.815a1.291,1.291,0,1,1,0,2.582h-5.524v4.3h3.924a1.291,1.291,0,0,1,0,2.582Z" transform="translate(-2130.665 -777.166)" fill="#303e58"/>
            <path id="Trazado_24791" data-name="Trazado 24791" d="M2177.013,944.3h-27.4a1.291,1.291,0,0,1-1.286-1.183l-1.4-16.627a1.291,1.291,0,0,1,2.573-.216l1.3,15.443h26.213a1.291,1.291,0,0,1,0,2.582Z" transform="translate(-2137.856 -838.451)" fill="#303e58"/>
            <path id="Trazado_24792" data-name="Trazado 24792" d="M2143.006,864.626a1.292,1.292,0,0,1-1.286-1.184l-1-11.962a1.291,1.291,0,0,1,2.573-.215l1,11.962a1.291,1.291,0,0,1-1.179,1.394C2143.078,864.625,2143.041,864.626,2143.006,864.626Z" transform="translate(-2133.833 -789.842)" fill="#303e58"/>
            <path id="Trazado_24793" data-name="Trazado 24793" d="M2256.582,864.557c-.035,0-.072,0-.108,0a1.291,1.291,0,0,1-1.18-1.393l.982-11.893a1.291,1.291,0,1,1,2.573.213l-.981,11.893A1.291,1.291,0,0,1,2256.582,864.557Z" transform="translate(-2208.079 -789.842)" fill="#303e58"/>
            <path id="Trazado_24794" data-name="Trazado 24794" d="M2149.987,872.143c-7.967,0-14.828-2.2-19.843-6.356-5.794-4.784-8.987-12.075-8.987-20.529a5.17,5.17,0,0,1,1.393-3.458,4.726,4.726,0,0,1,3.461-1.5h1.6a1.291,1.291,0,1,1,0,2.582h-1.6a2.134,2.134,0,0,0-1.566.67,2.563,2.563,0,0,0-.706,1.7c0,7.78,2.784,14.191,8.051,18.54,4.548,3.771,10.839,5.763,18.2,5.763,7.385,0,13.688-2,18.228-5.777,5.248-4.348,8.02-10.753,8.02-18.526a2.562,2.562,0,0,0-.707-1.7,2.132,2.132,0,0,0-1.566-.67h-1.6a1.291,1.291,0,0,1,0-2.582h1.6a4.72,4.72,0,0,1,3.46,1.5,5.165,5.165,0,0,1,1.394,3.458c0,8.445-3.18,15.73-8.952,20.512C2164.857,869.938,2157.983,872.143,2149.987,872.143Z" transform="translate(-2121.158 -783.503)" fill="#303e58"/>
            <path id="Trazado_24795" data-name="Trazado 24795" d="M2146.312,763.469a5.594,5.594,0,1,1,5.594-5.594A5.6,5.6,0,0,1,2146.312,763.469Zm0-8.606a3.012,3.012,0,1,0,3.012,3.012A3.015,3.015,0,0,0,2146.312,754.863Z" transform="translate(-2133.833 -726.464)" fill="#979faf"/>
            <path id="Trazado_24796" data-name="Trazado 24796" d="M2194.351,781.308a4.733,4.733,0,1,1,4.733-4.733A4.739,4.739,0,0,1,2194.351,781.308Zm0-6.885a2.151,2.151,0,1,0,2.151,2.151A2.154,2.154,0,0,0,2194.351,774.423Z" transform="translate(-2165.522 -739.139)" fill="#979faf"/>
            <path id="Trazado_24797" data-name="Trazado 24797" d="M2262.811,786.2a4.733,4.733,0,1,1,4.734-4.733A4.738,4.738,0,0,1,2262.811,786.2Zm0-6.885a2.151,2.151,0,1,0,2.152,2.151A2.154,2.154,0,0,0,2262.811,779.313Z" transform="translate(-2209.886 -742.308)" fill="#979faf"/>
            <path id="Trazado_24798" data-name="Trazado 24798" d="M2165.156,857.2a4.7,4.7,0,0,1-3.352-1.406,4.591,4.591,0,0,1-1.364-3.351l.035-15.332a3.969,3.969,0,0,0-3.994-4.008,1.291,1.291,0,0,1,0-2.582,6.553,6.553,0,0,1,6.575,6.608l-.035,15.34a2.035,2.035,0,0,0,.608,1.5,2.127,2.127,0,0,0,1.527.649,2.154,2.154,0,0,0,2.151-2.151v-15.49a6.462,6.462,0,0,1,6.454-6.454,1.291,1.291,0,0,1,0,2.582,3.877,3.877,0,0,0-3.873,3.872v15.49A4.739,4.739,0,0,1,2165.156,857.2Z" transform="translate(-2143.212 -777.166)" fill="#303e58"/>
          </g>
        </g>
      </g>
    </g>
  </g>
</svg>
