<svg xmlns="http://www.w3.org/2000/svg" width="154" height="154" viewBox="0 0 154 154">
  <g id="Grupo_19047" data-name="Grupo 19047" transform="translate(-390 -3353)">
    <g id="Elipse_827" data-name="Elipse 827" transform="translate(390 3353)" fill="#f56b6b" stroke="#2643a2" stroke-width="3">
      <circle cx="77" cy="77" r="77" stroke="none"/>
      <circle cx="77" cy="77" r="75.5" fill="none"/>
    </g>
    <g id="Grupo_12027" data-name="Grupo 12027" transform="translate(-1844.021 2369.005)">
      <ellipse id="Elipse_834" data-name="Elipse 834" cx="40.5" cy="40" rx="40.5" ry="40" transform="translate(2270.021 1020.995)" fill="#ebedf0"/>
      <g id="Grupo_12026" data-name="Grupo 12026" transform="translate(2254.021 1007.997)">
        <g id="Grupo_12025" data-name="Grupo 12025" transform="translate(0 0)">
          <g id="Grupo_12023" data-name="Grupo 12023" transform="translate(1.38 1.378)">
            <path id="Trazado_24634" data-name="Trazado 24634" d="M2520.243,1207.4l13.506-23.427a3.653,3.653,0,0,1,6.337,3.637l2.169-3.784a3.66,3.66,0,0,1,6.688.883,3.733,3.733,0,0,1-.368,2.774l-2.921,5.071v.018h.018a3.652,3.652,0,1,1,6.322,3.657l-3.4,5.9a3.654,3.654,0,0,1,6.045,4.078l-12.991,22.582a17.579,17.579,0,0,1-4.8,5.347c-2.553,1.893-6.119,4.778-7.533,7.24a108.185,108.185,0,0,0-5.292,12.126c-4.852.7-8.783-.845-13.836-3.786-4.337-2.5-8.36-5.548-10.179-10.106,0,0,5.568-6.743,6.781-8.837,1.965-3.418.478-9.3.826-11.669.552-3.693,3.289-8.581,4.281-11.464q.387-1.16.662-2.259v-.038c1.157-4.576,1.01-8.306,1.855-9.756.974-1.69,2.444-1.748,4.337-.644C2521.915,1196.758,2521.107,1204.46,2520.243,1207.4Z" transform="translate(-2444.895 -1143.419)" fill="#8ff3ad"/>
            <path id="Trazado_24635" data-name="Trazado 24635" d="M2557.395,1042.276l.644,3.14-6.1,1.342v-.018l-2.076-10.052-2.3-11.116-2.114-10.233,6.1-1.342.642,3.142Z" transform="translate(-2479.896 -1013.997)" fill="#fff"/>
            <path id="Trazado_24636" data-name="Trazado 24636" d="M2413.346,1122.846v.018l-9.682,2.114-9.078,1.984v-.111a3.675,3.675,0,1,0-7.35,0v1.726l-.974.2a3.66,3.66,0,0,0-6.192,1.36l-6.817,1.488-5.639,1.231-2.076-10.05,45.733-10.014Z" transform="translate(-2341.305 -1090.102)" fill="#8ff3ad"/>
            <path id="Trazado_24637" data-name="Trazado 24637" d="M2401.27,1064.4l2.3,11.116-45.733,10.014-2.3-11.116Z" transform="translate(-2333.601 -1052.82)" fill="#8ff3ad"/>
            <path id="Trazado_24638" data-name="Trazado 24638" d="M2413.087,1187.6a3.685,3.685,0,0,1,3.675-3.675,3.618,3.618,0,0,1,1.873.515s2.555-1.453,1.489,15.1v.038q-.275,1.1-.662,2.259c-.992,2.883-3.729,7.771-4.281,11.464-.348,2.372,1.139,8.25-.825,11.669-1.213,2.094-6.781,8.837-6.781,8.837,1.82,4.558,5.843,7.608,10.18,10.106a23.839,23.839,0,0,1-6.469,3.253,34.225,34.225,0,0,1-7.753.7c-5.035,0-10.088-.625-13.964-3.675,0,0,1.469-8.674,1.469-11.116,0-3.951-4.263-8.324-5.144-10.565-1.378-3.492-1.434-9.114-2.022-12.128-1.158-5.824-3.858-9.794-3.858-11.758s1.249-2.756,3.454-2.756c3.675,0,6.835,7.111,7.571,10.106V1178.78a3.284,3.284,0,0,1,.183-1.122l6.192-1.36a3.616,3.616,0,0,1,.974,2.481V1176.1l7.35-1.615v5.769a3.675,3.675,0,0,1,7.35,0Z" transform="translate(-2352.456 -1137.621)" fill="#8ff3ad"/>
            <path id="Trazado_24639" data-name="Trazado 24639" d="M2392.066,1019.841l2.114,10.233-45.733,10.014-2.114-10.235v-.018Z" transform="translate(-2326.512 -1018.499)" fill="#8ff3ad"/>
            <path id="Trazado_24640" data-name="Trazado 24640" d="M2467.363,1161.672v.111l-7.35,1.615v-1.726a3.675,3.675,0,1,1,7.35,0Z" transform="translate(-2414.082 -1124.923)" fill="#8ff3ad"/>
            <path id="Trazado_24641" data-name="Trazado 24641" d="M2435,1178.393l-6.192,1.36a3.66,3.66,0,0,1,6.192-1.36Z" transform="translate(-2390.045 -1139.716)" fill="#8ff3ad"/>
            <path id="Trazado_24642" data-name="Trazado 24642" d="M2330.282,1084.726l2.076,10.05-6.1,1.342-.643-3.142-5.2-25.137-.644-3.14,6.1-1.342v.018l2.114,10.235Z" transform="translate(-2306.05 -1052.02)" fill="#fff"/>
            <path id="Trazado_24643" data-name="Trazado 24643" d="M2274.4,1082.872l5.2,25.137c-6.174-6.246-17.419.533-19.366-8.893S2271.235,1091.16,2274.4,1082.872Z" transform="translate(-2260.031 -1067.053)" fill="#fff"/>
          </g>
          <g id="Grupo_12024" data-name="Grupo 12024">
            <path id="Trazado_24644" data-name="Trazado 24644" d="M2575.389,1049.57a1.38,1.38,0,0,1-1.288-1.87c1.586-4.157,5.24-6.089,8.465-7.793,4.161-2.2,6.475-3.641,5.64-7.681-.831-4.024-3.366-4.352-8.15-4.622-3.627-.2-7.739-.436-10.847-3.581a1.378,1.378,0,0,1,1.96-1.938c2.363,2.391,5.759,2.582,9.042,2.767,4.4.248,9.4.53,10.694,6.816,1.295,6.263-3.139,8.607-7.051,10.675-2.931,1.549-5.962,3.152-7.178,6.339A1.379,1.379,0,0,1,2575.389,1049.57Z" transform="translate(-2496.51 -1018.535)" fill="#979faf"/>
            <path id="Trazado_24645" data-name="Trazado 24645" d="M2274.966,1104.764a1.374,1.374,0,0,1-.98-.409c-2.363-2.391-5.758-2.582-9.042-2.767-4.4-.248-9.4-.529-10.694-6.816-1.295-6.263,3.139-8.607,7.051-10.675,2.931-1.549,5.961-3.152,7.177-6.339a1.378,1.378,0,0,1,2.575.983c-1.586,4.157-5.241,6.089-8.465,7.793-4.162,2.2-6.475,3.641-5.64,7.681.831,4.024,3.366,4.352,8.15,4.622,3.627.2,7.739.436,10.847,3.581a1.378,1.378,0,0,1-.98,2.347Z" transform="translate(-2254.021 -1061.051)" fill="#979faf"/>
            <path id="Trazado_24646" data-name="Trazado 24646" d="M2351.837,1071.814a1.1,1.1,0,0,1-.235-2.18l45.733-10.014a1.1,1.1,0,1,1,.471,2.154l-45.733,10.015A1.1,1.1,0,0,1,2351.837,1071.814Z" transform="translate(-2328.522 -1047.744)" fill="#fff"/>
            <path id="Trazado_24647" data-name="Trazado 24647" d="M2361.837,1120.213a1.1,1.1,0,0,1-.235-2.179l45.733-10.014a1.1,1.1,0,0,1,.471,2.154l-45.733,10.014A1.1,1.1,0,0,1,2361.837,1120.213Z" transform="translate(-2336.226 -1085.026)" fill="#fff"/>
            <path id="Trazado_24648" data-name="Trazado 24648" d="M2423.391,1209.969a1.378,1.378,0,0,1-1.378-1.378v-32.338a4.657,4.657,0,0,1,.257-1.568,5.038,5.038,0,0,1,8.507-1.85,4.969,4.969,0,0,1,1.341,3.418,1.378,1.378,0,0,1-2.756,0,2.23,2.23,0,0,0-.6-1.537,2.282,2.282,0,0,0-3.877.838c-.005.017-.011.033-.017.049a1.935,1.935,0,0,0-.1.65v32.338A1.378,1.378,0,0,1,2423.391,1209.969Z" transform="translate(-2383.429 -1133.716)" fill="#303e58"/>
            <path id="Trazado_24649" data-name="Trazado 24649" d="M2462.741,1182.314a1.378,1.378,0,0,1-1.378-1.378V1157.05a2.3,2.3,0,0,0-4.594,0v23.887a1.378,1.378,0,1,1-2.756,0V1157.05a5.053,5.053,0,1,1,10.106,0v23.887A1.378,1.378,0,0,1,2462.741,1182.314Z" transform="translate(-2408.079 -1118.923)" fill="#303e58"/>
            <path id="Trazado_24650" data-name="Trazado 24650" d="M2494.741,1202.036a1.378,1.378,0,0,1-1.378-1.378v-18.006a2.3,2.3,0,0,0-4.594,0,1.378,1.378,0,1,1-2.756,0,5.053,5.053,0,0,1,10.106,0v18.006A1.378,1.378,0,0,1,2494.741,1202.036Z" transform="translate(-2432.729 -1138.645)" fill="#303e58"/>
            <path id="Trazado_24651" data-name="Trazado 24651" d="M2519.392,1216.03a1.378,1.378,0,0,1-1.378-1.378,5.059,5.059,0,0,1,5.053-5.053,5,5,0,0,1,2.584.713,1.378,1.378,0,1,1-1.422,2.361,2.25,2.25,0,0,0-1.162-.317,2.3,2.3,0,0,0-2.3,2.3A1.378,1.378,0,0,1,2519.392,1216.03Z" transform="translate(-2457.381 -1163.296)" fill="#303e58"/>
            <path id="Trazado_24652" data-name="Trazado 24652" d="M2398.91,1316.354c-4.55,0-10.345-.451-14.816-3.97a1.377,1.377,0,0,1-.506-1.313c.4-2.381,1.45-8.978,1.45-10.886,0-2.234-1.786-4.872-3.22-6.992a18.006,18.006,0,0,1-1.829-3.069,35.075,35.075,0,0,1-1.619-8.666c-.146-1.4-.283-2.73-.473-3.7a38.783,38.783,0,0,0-2.548-7.695,12.579,12.579,0,0,1-1.335-4.328c0-1.544.628-4.134,4.832-4.134,2.125,0,4.163,1.541,6.057,4.579a25.171,25.171,0,0,1,2.852,6.576,1.378,1.378,0,0,1-2.676.658c-.785-3.193-3.747-9.056-6.232-9.056-2.076,0-2.076.732-2.076,1.378a13.042,13.042,0,0,0,1.12,3.26,41.68,41.68,0,0,1,2.711,8.23c.214,1.1.358,2.483.511,3.95a33.283,33.283,0,0,0,1.442,7.941,17.262,17.262,0,0,0,1.546,2.534c1.646,2.432,3.694,5.458,3.694,8.537,0,2.092-.978,8.243-1.349,10.508,3.733,2.562,8.588,2.9,12.466,2.9a32.548,32.548,0,0,0,7.439-.662,1.378,1.378,0,0,1,.628,2.684A35.08,35.08,0,0,1,2398.91,1316.354Z" transform="translate(-2346.453 -1203.352)" fill="#303e58"/>
            <path id="Trazado_24653" data-name="Trazado 24653" d="M2572.351,1209.043a1.379,1.379,0,0,1-1.194-2.065l2.553-4.446,13.507-23.429a5.032,5.032,0,0,1,8.73,5.006,1.378,1.378,0,0,1-2.4-1.362,2.3,2.3,0,0,0-.852-3.107,2.234,2.234,0,0,0-1.714-.224,2.272,2.272,0,0,0-1.381,1.064l-13.505,23.425-2.552,4.444A1.378,1.378,0,0,1,2572.351,1209.043Z" transform="translate(-2498.176 -1137.861)" fill="#303e58"/>
            <path id="Trazado_24654" data-name="Trazado 24654" d="M2634.012,1204.847a1.379,1.379,0,0,1-1.192-2.067l8.881-15.391a1.293,1.293,0,0,1,.066-.133l2.921-5.071a2.353,2.353,0,0,0,.229-1.734,2.233,2.233,0,0,0-1.053-1.359,2.272,2.272,0,0,0-3.109.814l-2.167,3.779c-.021.037-.044.073-.068.108l-9.615,16.707a1.378,1.378,0,1,1-2.388-1.375l9.664-16.793c.021-.036.042-.071.066-.1l2.12-3.7a5.031,5.031,0,0,1,6.864-1.832,4.961,4.961,0,0,1,2.348,3.037c0,.008,0,.016.006.023a5.131,5.131,0,0,1-.51,3.8l-2.853,4.953a1.241,1.241,0,0,1-.067.135l-8.948,15.507A1.379,1.379,0,0,1,2634.012,1204.847Z" transform="translate(-2540.821 -1137.432)" fill="#303e58"/>
            <path id="Trazado_24655" data-name="Trazado 24655" d="M2697.109,1228.179a1.379,1.379,0,0,1-1.192-2.066l3.4-5.9a2.285,2.285,0,0,0-.82-3.119,2.259,2.259,0,0,0-3.112.836,1.378,1.378,0,1,1-2.391-1.372,5.03,5.03,0,1,1,8.709,5.033l-3.4,5.9A1.378,1.378,0,0,1,2697.109,1228.179Z" transform="translate(-2592.03 -1166.717)" fill="#303e58"/>
            <path id="Trazado_24656" data-name="Trazado 24656" d="M2682.749,1276.15a1.379,1.379,0,0,1-1.192-2.067l5.512-9.553a1.378,1.378,0,0,1,2.387,1.377l-5.512,9.553A1.378,1.378,0,0,1,2682.749,1276.15Z" transform="translate(-2583.219 -1205.078)" fill="#303e58"/>
            <path id="Trazado_24657" data-name="Trazado 24657" d="M2517.135,1313.19c-4.21,0-7.916-1.612-12.258-4.14-3.9-2.248-8.659-5.508-10.766-10.786a1.377,1.377,0,0,1,.217-1.388c1.528-1.851,5.7-7.014,6.651-8.651,1.112-1.935.886-5.1.7-7.648a18.04,18.04,0,0,1-.051-3.53,35.33,35.33,0,0,1,2.921-8.309c.567-1.275,1.1-2.479,1.421-3.4.243-.728.456-1.453.628-2.144a1.378,1.378,0,0,1,2.674.667c-.19.76-.422,1.555-.692,2.362-.361,1.05-.92,2.307-1.512,3.639a33.6,33.6,0,0,0-2.713,7.593,17.393,17.393,0,0,0,.074,2.931c.208,2.919.467,6.552-1.067,9.221-1.04,1.8-4.93,6.6-6.375,8.372,1.943,4.077,5.94,6.774,9.266,8.69,4.5,2.618,8,4.084,12.153,3.71a99.445,99.445,0,0,1,5.092-11.542c1.194-2.079,3.855-4.657,7.908-7.662a16.258,16.258,0,0,0,4.427-4.935l12.986-22.574a2.276,2.276,0,0,0,.234-1.735,2.25,2.25,0,0,0-1.053-1.383,2.3,2.3,0,0,0-2.886.5,1.519,1.519,0,0,1-.132.174c-.022.033-.067.111-.092.155a1.378,1.378,0,0,1-2.4-1.364,3.915,3.915,0,0,1,.328-.5c.019-.028.038-.055.059-.082a5.067,5.067,0,0,1,6.5-1.267,5.037,5.037,0,0,1,1.83,6.883l-12.989,22.578a19.027,19.027,0,0,1-5.181,5.775c-4.656,3.452-6.458,5.61-7.147,6.812a107.515,107.515,0,0,0-5.194,11.917,1.378,1.378,0,0,1-1.1.887A17.3,17.3,0,0,1,2517.135,1313.19Zm25.46-52.922v0Zm0,0v0Zm0,0v0Zm.006-.124c0,.04-.006.081-.006.124C2542.6,1260.219,2542.6,1260.178,2542.6,1260.137Z" transform="translate(-2438.892 -1200.188)" fill="#303e58"/>
            <path id="Trazado_24658" data-name="Trazado 24658" d="M2557.712,1245.036a1.379,1.379,0,0,1-1.323-1.767c.9-3.049,1.264-9.657-.853-10.875a2.719,2.719,0,0,0-1.764-.532,1.3,1.3,0,0,0-.692.67,12.8,12.8,0,0,0-.659,3.361,48.6,48.6,0,0,1-1.054,6.044,1.378,1.378,0,1,1-2.672-.676,46.283,46.283,0,0,0,.992-5.714,12.393,12.393,0,0,1,1.009-4.4,3.892,3.892,0,0,1,2.368-1.952,5.02,5.02,0,0,1,3.854.811c4.39,2.525,2.756,11.862,2.115,14.038A1.379,1.379,0,0,1,2557.712,1245.036Z" transform="translate(-2480.983 -1178.3)" fill="#303e58"/>
            <path id="Trazado_24659" data-name="Trazado 24659" d="M2321.635,1054.852a1.378,1.378,0,0,1-1.35-1.1l-.643-3.142-5.2-25.134-.645-3.142a1.378,1.378,0,0,1,1.054-1.623l6.1-1.342,45.735-10,6.1-1.342a1.378,1.378,0,0,1,1.646,1.07l.642,3.142,5.2,25.134.645,3.142a1.378,1.378,0,0,1-1.054,1.623l-6.1,1.342-9.685,2.114a1.378,1.378,0,0,1-.588-2.693l9.682-2.114,4.772-1.05-.371-1.809-5.2-25.135-.363-1.775-4.735,1.042-45.735,9.995-4.772,1.05.371,1.809,5.2,25.135.363,1.775,10.376-2.273a1.378,1.378,0,0,1,.588,2.693l-5.64,1.231-6.1,1.342A1.376,1.376,0,0,1,2321.635,1054.852Z" transform="translate(-2300.047 -1007.997)" fill="#303e58"/>
            <path id="Trazado_24660" data-name="Trazado 24660" d="M2349.121,1092.24a1.1,1.1,0,0,1-1.078-.88l-6.487-31.4a1.1,1.1,0,1,1,2.159-.446l6.486,31.4a1.1,1.1,0,0,1-1.081,1.326Z" transform="translate(-2321.434 -1047.003)" fill="#303e58"/>
            <path id="Trazado_24661" data-name="Trazado 24661" d="M2548.238,1048.646a1.1,1.1,0,0,1-1.079-.88l-6.487-31.4a1.1,1.1,0,0,1,2.159-.446l6.487,31.4a1.1,1.1,0,0,1-1.081,1.325Z" transform="translate(-2474.817 -1013.422)" fill="#303e58"/>
          </g>
        </g>
      </g>
    </g>
  </g>
</svg>
