<svg xmlns="http://www.w3.org/2000/svg" width="154" height="154" viewBox="0 0 154 154">
  <g id="Grupo_19058" data-name="Grupo 19058" transform="translate(-390 -5813)">
    <g id="Grupo_19055" data-name="Grupo 19055">
      <g id="Elipse_854" data-name="Elipse 854" transform="translate(390 5813)" fill="#f59b6b" stroke="#2643a2" stroke-width="3">
        <circle cx="77" cy="77" r="77" stroke="none"/>
        <circle cx="77" cy="77" r="75.5" fill="none"/>
      </g>
      <g id="Grupo_12065" data-name="Grupo 12065" transform="translate(-2832 4032.599)">
        <circle id="Elipse_856" data-name="Elipse 856" cx="31" cy="31" r="31" transform="translate(3276 1809.402)" fill="#ebedf0"/>
        <g id="Grupo_12064" data-name="Grupo 12064" transform="translate(3262 1808)">
          <g id="Grupo_12063" data-name="Grupo 12063" transform="translate(0)">
            <g id="Grupo_12061" data-name="Grupo 12061" transform="translate(8.92 1.163)">
              <path id="Trazado_24827" data-name="Trazado 24827" d="M3354.537,2014l-.667,7.756-3.987,46.537h-37.23l-3.987-46.537L3308,2014Z" transform="translate(-3308 -1975.219)" fill="#8ff3ad"/>
            </g>
            <g id="Grupo_12062" data-name="Grupo 12062">
              <path id="Trazado_24829" data-name="Trazado 24829" d="M3345.047,2064.62h-37.23a1.164,1.164,0,0,1-1.159-1.064l-3.987-46.537-.667-7.756a1.163,1.163,0,0,1,1.159-1.263H3349.7a1.163,1.163,0,0,1,1.159,1.263l-.667,7.756-3.987,46.537A1.164,1.164,0,0,1,3345.047,2064.62Zm-36.162-2.327h35.094l3.9-45.473.558-6.494h-44l.558,6.493h0Z" transform="translate(-3294.244 -1969.219)" fill="#303e58"/>
              <path id="Trazado_24830" data-name="Trazado 24830" d="M3548.149,2050.327h-8.423a1.163,1.163,0,0,1,0-2.327h8.423a1.163,1.163,0,0,1,0,2.327Z" transform="translate(-3484.936 -2001.463)" fill="#303e58"/>
              <path id="Trazado_24831" data-name="Trazado 24831" d="M3271.586,2050.327h-8.423a1.163,1.163,0,1,1,0-2.327h8.423a1.163,1.163,0,1,1,0,2.327Z" transform="translate(-3262 -2001.463)" fill="#303e58"/>
              <path id="Trazado_24832" data-name="Trazado 24832" d="M3423.163,2100.454a1.164,1.164,0,0,1-1.163-1.164v-34.127a1.163,1.163,0,0,1,2.327,0v34.127A1.164,1.164,0,0,1,3423.163,2100.454Z" transform="translate(-3390.975 -2014.36)" fill="#303e58"/>
              <path id="Trazado_24833" data-name="Trazado 24833" d="M3471.164,2100.454c-.035,0-.071,0-.107,0a1.164,1.164,0,0,1-1.053-1.264l3.1-34.127a1.164,1.164,0,0,1,2.318.211l-3.1,34.127A1.164,1.164,0,0,1,3471.164,2100.454Z" transform="translate(-3429.667 -2014.36)" fill="#303e58"/>
              <path id="Trazado_24834" data-name="Trazado 24834" d="M3362.264,2100.454a1.164,1.164,0,0,1-1.158-1.058l-3.1-34.127a1.163,1.163,0,1,1,2.317-.211l3.1,34.127a1.163,1.163,0,0,1-1.053,1.264C3362.334,2100.452,3362.3,2100.454,3362.264,2100.454Z" transform="translate(-3339.384 -2014.36)" fill="#303e58"/>
            </g>
          </g>
        </g>
      </g>
    </g>
    <g id="Grupo_12026" data-name="Grupo 12026" transform="matrix(0.966, 0.259, -0.259, 0.966, 446.677, 5783.154)">
      <g id="Grupo_12025" data-name="Grupo 12025" transform="translate(27.56 33.073)">
        <g id="Grupo_12023" data-name="Grupo 12023" transform="translate(0.747 0.747)">
          <path id="Trazado_24634" data-name="Trazado 24634" d="M2510.973,1195.763l7.317-12.692a1.979,1.979,0,0,1,3.433,1.97l1.175-2.05a1.983,1.983,0,0,1,3.623.478,2.024,2.024,0,0,1-.2,1.5l-1.583,2.747v.01h.01a1.978,1.978,0,1,1,3.425,1.981l-1.841,3.2a1.98,1.98,0,0,1,3.275,2.209l-7.038,12.234a9.52,9.52,0,0,1-2.6,2.9,16.553,16.553,0,0,0-4.081,3.922,58.631,58.631,0,0,0-2.866,6.57c-2.628.378-4.758-.458-7.5-2.051-2.35-1.353-4.529-3.006-5.515-5.475,0,0,3.017-3.653,3.674-4.788,1.064-1.852.259-5.036.447-6.321.3-2,1.781-4.649,2.319-6.211q.21-.628.359-1.224v-.02c.627-2.479.547-4.5,1-5.285.528-.916,1.324-.947,2.35-.349C2511.878,1190,2511.441,1194.171,2510.973,1195.763Z" transform="translate(-2485.082 -1179.02)" fill="#8ff3ad"/>
          <path id="Trazado_24638" data-name="Trazado 24638" d="M2397.931,1181.588a2,2,0,0,1,1.991-1.991,1.96,1.96,0,0,1,1.015.279s1.384-.787.807,8.182v.02q-.148.6-.358,1.224c-.538,1.562-2.02,4.21-2.32,6.211-.189,1.285.617,4.47-.447,6.322-.657,1.135-3.674,4.788-3.674,4.788.986,2.469,3.166,4.122,5.515,5.475a12.916,12.916,0,0,1-3.5,1.762,18.54,18.54,0,0,1-4.2.378c-2.728,0-5.465-.339-7.565-1.991,0,0,.8-4.7.8-6.022,0-2.141-2.31-4.51-2.787-5.724-.747-1.892-.777-4.937-1.1-6.571-.627-3.155-2.09-5.306-2.09-6.37s.677-1.493,1.871-1.493c1.991,0,3.7,3.853,4.1,5.475V1176.81a1.781,1.781,0,0,1,.1-.608l3.354-.737a1.958,1.958,0,0,1,.528,1.344v-1.454l3.982-.875v3.125a1.991,1.991,0,1,1,3.982,0Z" transform="translate(-2380.013 -1172.43)" fill="#8ff3ad"/>
          <path id="Trazado_24640" data-name="Trazado 24640" d="M2463.995,1159.988v.06l-3.982.875v-.935a1.991,1.991,0,1,1,3.982,0Z" transform="translate(-2450.059 -1157.997)" fill="#8ff3ad"/>
          <path id="Trazado_24641" data-name="Trazado 24641" d="M2432.165,1177.847l-3.354.737a1.983,1.983,0,0,1,3.354-.737Z" transform="translate(-2422.738 -1174.811)" fill="#8ff3ad"/>
        </g>
        <g id="Grupo_12024" data-name="Grupo 12024">
          <path id="Trazado_24648" data-name="Trazado 24648" d="M2422.76,1192.2a.747.747,0,0,1-.747-.746v-17.52a2.519,2.519,0,0,1,.139-.849,2.729,2.729,0,0,1,4.609-1,2.692,2.692,0,0,1,.727,1.852.747.747,0,1,1-1.493,0,1.208,1.208,0,0,0-.325-.833,1.236,1.236,0,0,0-2.1.454l-.009.026a1.042,1.042,0,0,0-.055.352v17.52A.746.746,0,0,1,2422.76,1192.2Z" transform="translate(-2416.04 -1168.81)" fill="#303e58"/>
          <path id="Trazado_24649" data-name="Trazado 24649" d="M2458.741,1168.422a.747.747,0,0,1-.747-.746v-12.941a1.244,1.244,0,1,0-2.489,0v12.941a.746.746,0,1,1-1.493,0v-12.941a2.737,2.737,0,0,1,5.475,0v12.941A.746.746,0,0,1,2458.741,1168.422Z" transform="translate(-2444.059 -1151.997)" fill="#303e58"/>
          <path id="Trazado_24650" data-name="Trazado 24650" d="M2490.741,1190.838a.747.747,0,0,1-.747-.747v-9.755a1.244,1.244,0,1,0-2.489,0,.746.746,0,1,1-1.493,0,2.738,2.738,0,1,1,5.475,0v9.755A.747.747,0,0,1,2490.741,1190.838Z" transform="translate(-2472.077 -1174.413)" fill="#303e58"/>
          <path id="Trazado_24651" data-name="Trazado 24651" d="M2518.76,1213.083a.747.747,0,0,1-.747-.746,2.741,2.741,0,0,1,2.738-2.738,2.711,2.711,0,0,1,1.4.386.746.746,0,1,1-.771,1.279,1.221,1.221,0,0,0-.629-.172,1.246,1.246,0,0,0-1.245,1.244A.747.747,0,0,1,2518.76,1213.083Z" transform="translate(-2500.096 -1202.432)" fill="#303e58"/>
          <path id="Trazado_24652" data-name="Trazado 24652" d="M2387.5,1291.263c-2.465,0-5.6-.245-8.026-2.151a.746.746,0,0,1-.275-.711c.218-1.29.786-4.864.786-5.9,0-1.21-.968-2.639-1.745-3.788a9.726,9.726,0,0,1-.991-1.662,18.994,18.994,0,0,1-.877-4.7c-.079-.761-.153-1.479-.256-2.006a21.017,21.017,0,0,0-1.381-4.169,6.814,6.814,0,0,1-.723-2.344c0-.837.34-2.24,2.618-2.24,1.151,0,2.256.835,3.281,2.481a13.637,13.637,0,0,1,1.545,3.562.747.747,0,0,1-1.45.356c-.425-1.73-2.03-4.906-3.376-4.906-1.125,0-1.125.4-1.125.747a7.077,7.077,0,0,0,.607,1.766,22.582,22.582,0,0,1,1.469,4.458c.116.594.194,1.345.277,2.14a18.016,18.016,0,0,0,.781,4.3,9.341,9.341,0,0,0,.838,1.373c.891,1.317,2,2.957,2,4.625,0,1.134-.53,4.466-.731,5.693,2.022,1.388,4.653,1.574,6.753,1.574a17.631,17.631,0,0,0,4.031-.359.747.747,0,0,1,.34,1.454A19,19,0,0,1,2387.5,1291.263Z" transform="translate(-2374.013 -1247.961)" fill="#303e58"/>
          <path id="Trazado_24653" data-name="Trazado 24653" d="M2571.719,1194.167a.747.747,0,0,1-.647-1.119l1.384-2.409,7.317-12.693a2.726,2.726,0,0,1,4.729,2.712.747.747,0,0,1-1.3-.738,1.243,1.243,0,0,0-.461-1.683,1.211,1.211,0,0,0-.929-.121,1.23,1.23,0,0,0-.748.577l-7.317,12.691-1.383,2.408A.747.747,0,0,1,2571.719,1194.167Z" transform="translate(-2546.466 -1173.521)" fill="#303e58"/>
          <path id="Trazado_24654" data-name="Trazado 24654" d="M2630.493,1191.639a.747.747,0,0,1-.646-1.12l4.812-8.338a.663.663,0,0,1,.036-.072l1.583-2.747a1.272,1.272,0,0,0,.125-.94,1.21,1.21,0,0,0-.571-.736,1.231,1.231,0,0,0-1.685.441l-1.174,2.047c-.011.02-.024.04-.037.058l-5.209,9.051a.746.746,0,1,1-1.294-.745l5.236-9.1a.666.666,0,0,1,.036-.056l1.148-2a2.726,2.726,0,0,1,3.719-.993,2.688,2.688,0,0,1,1.272,1.645s0,.008,0,.012a2.778,2.778,0,0,1-.277,2.061l-1.546,2.683a.678.678,0,0,1-.036.073l-4.848,8.4A.747.747,0,0,1,2630.493,1191.639Z" transform="translate(-2594.937 -1173.035)" fill="#303e58"/>
          <path id="Trazado_24655" data-name="Trazado 24655" d="M2695.139,1221.7a.747.747,0,0,1-.646-1.12l1.841-3.2a1.238,1.238,0,0,0-.445-1.69,1.224,1.224,0,0,0-1.686.453.747.747,0,0,1-1.3-.743,2.725,2.725,0,1,1,4.719,2.727l-1.841,3.194A.746.746,0,0,1,2695.139,1221.7Z" transform="translate(-2653.142 -1206.32)" fill="#303e58"/>
          <path id="Trazado_24656" data-name="Trazado 24656" d="M2682.118,1270.509a.747.747,0,0,1-.646-1.12l2.986-5.175a.747.747,0,0,1,1.293.746l-2.987,5.176A.747.747,0,0,1,2682.118,1270.509Z" transform="translate(-2643.127 -1249.923)" fill="#303e58"/>
          <path id="Trazado_24657" data-name="Trazado 24657" d="M2506.54,1287.666c-2.281,0-4.289-.873-6.641-2.243-2.115-1.218-4.691-2.984-5.833-5.843a.746.746,0,0,1,.118-.752c.828-1,3.089-3.8,3.6-4.687.6-1.048.48-2.764.382-4.143a9.779,9.779,0,0,1-.027-1.913,19.143,19.143,0,0,1,1.583-4.5c.307-.691.6-1.343.77-1.844.131-.394.247-.787.34-1.162a.747.747,0,0,1,1.449.361c-.1.412-.229.843-.375,1.28-.2.569-.5,1.25-.819,1.971a18.18,18.18,0,0,0-1.47,4.113,9.4,9.4,0,0,0,.04,1.588c.112,1.582.253,3.55-.578,5-.563.973-2.671,3.578-3.454,4.536,1.053,2.209,3.218,3.67,5.02,4.708,2.437,1.418,4.332,2.213,6.584,2.01a53.91,53.91,0,0,1,2.759-6.253,16.1,16.1,0,0,1,4.284-4.151,8.814,8.814,0,0,0,2.4-2.674l7.035-12.229a1.234,1.234,0,0,0,.127-.94,1.22,1.22,0,0,0-.571-.749,1.246,1.246,0,0,0-1.563.271.838.838,0,0,1-.072.094c-.012.018-.036.06-.05.084a.747.747,0,0,1-1.3-.739,2.1,2.1,0,0,1,.178-.273.525.525,0,0,1,.032-.044,2.744,2.744,0,0,1,3.519-.687,2.729,2.729,0,0,1,.992,3.729l-7.037,12.232a10.312,10.312,0,0,1-2.807,3.129,14.247,14.247,0,0,0-3.872,3.69,58.335,58.335,0,0,0-2.814,6.456.747.747,0,0,1-.594.481A9.373,9.373,0,0,1,2506.54,1287.666ZM2520.333,1259v0Zm0,0h0Zm0,0h0Zm0-.067c0,.022,0,.044,0,.067C2520.333,1258.969,2520.334,1258.947,2520.337,1258.924Z" transform="translate(-2479.082 -1244.364)" fill="#303e58"/>
          <path id="Trazado_24658" data-name="Trazado 24658" d="M2553.561,1237.723a.748.748,0,0,1-.717-.958c.487-1.652.685-5.232-.462-5.891a1.473,1.473,0,0,0-.956-.288.7.7,0,0,0-.375.363,6.938,6.938,0,0,0-.357,1.821,26.268,26.268,0,0,1-.571,3.274.747.747,0,1,1-1.448-.366,25.086,25.086,0,0,0,.537-3.1,6.714,6.714,0,0,1,.547-2.383,2.108,2.108,0,0,1,1.283-1.057,2.719,2.719,0,0,1,2.088.439c2.378,1.368,1.493,6.426,1.146,7.6A.747.747,0,0,1,2553.561,1237.723Z" transform="translate(-2526.923 -1219.487)" fill="#303e58"/>
        </g>
      </g>
    </g>
  </g>
</svg>
