<svg xmlns="http://www.w3.org/2000/svg" width="154" height="154" viewBox="0 0 154 154">
  <g id="Grupo_19059" data-name="Grupo 19059" transform="translate(-390 -9000)">
    <g id="Elipse_867" data-name="Elipse 867" transform="translate(390 9000)" fill="#ffc917" stroke="#2643a2" stroke-width="3">
      <circle cx="77" cy="77" r="77" stroke="none"/>
      <circle cx="77" cy="77" r="75.5" fill="none"/>
    </g>
    <g id="Grupo_12478" data-name="Grupo 12478" transform="translate(-866.51 8820)">
      <ellipse id="Elipse_830" data-name="Elipse 830" cx="34.5" cy="35" rx="34.5" ry="35" transform="translate(1307.51 221)" fill="#ebedf0"/>
      <g id="Grupo_12021" data-name="Grupo 12021" transform="translate(1294.01 208)">
        <g id="Grupo_12020" data-name="Grupo 12020">
          <g id="Grupo_12018" data-name="Grupo 12018" transform="translate(1.191 1.191)">
            <ellipse id="Elipse_831" data-name="Elipse 831" cx="5" cy="5.5" rx="5" ry="5.5" transform="translate(9.309 37.809)" fill="#fff"/>
            <circle id="Elipse_832" data-name="Elipse 832" cx="5" cy="5" r="5" transform="translate(79.309 38.809)" fill="#fff"/>
            <circle id="Elipse_833" data-name="Elipse 833" cx="4" cy="4" r="4" transform="translate(58.309 29.809)" fill="#fff"/>
            <path id="Trazado_24607" data-name="Trazado 24607" d="M1409.508,540.171h-6.352a2.378,2.378,0,0,1-2.382-2.382,3.971,3.971,0,0,1,3.97-3.97h-6.352a2.379,2.379,0,0,1-2.382-2.382,3.972,3.972,0,0,1,3.97-3.97h3.176a2.378,2.378,0,0,1-2.382-2.382,3.972,3.972,0,0,1,3.97-3.97h24.423s-10.925-3.97-10.925-7.94c0-1.985,1.191-3.176,2.478-3.176,1,0,7.146,2.732,10.226,3.176,7.337,1.064,11.258,1.4,20.547,6.845,2.018,1.191,4.463,4.271,8.036,4.271h12.7v17.468H1458.75a19.47,19.47,0,0,0-7.655,1.572l-3.778,1.619a19.466,19.466,0,0,1-7.654,1.572H1407.92a2.378,2.378,0,0,1-2.382-2.382A3.972,3.972,0,0,1,1409.508,540.171Z" transform="translate(-1376.954 -451.245)" fill="#fff"/>
            <path id="Trazado_24608" data-name="Trazado 24608" d="M1347.649,233.056v6.352h-12.7v-4.764a9.534,9.534,0,0,0-9.528-9.528H1300.01V214h28.583A19.051,19.051,0,0,1,1347.649,233.056Z" transform="translate(-1300.01 -214)" fill="#8ff3ad"/>
          </g>
          <g id="Grupo_12019" data-name="Grupo 12019">
            <path id="Trazado_24609" data-name="Trazado 24609" d="M1342.84,235.789h-12.7a1.191,1.191,0,0,1-1.191-1.191v-4.764a8.346,8.346,0,0,0-8.337-8.337H1295.2a1.191,1.191,0,0,1,0-2.382h25.408a10.731,10.731,0,0,1,10.719,10.719v3.573h10.322v-5.161a17.885,17.885,0,0,0-17.865-17.865H1295.2a1.191,1.191,0,0,1,0-2.382h28.583a20.27,20.27,0,0,1,20.247,20.247V234.6A1.191,1.191,0,0,1,1342.84,235.789Z" transform="translate(-1294.01 -208)" fill="#303e58"/>
            <path id="Trazado_24610" data-name="Trazado 24610" d="M1595.171,370.322a5.161,5.161,0,1,1,5.161-5.161A5.167,5.167,0,0,1,1595.171,370.322Zm0-7.94a2.779,2.779,0,1,0,2.779,2.779A2.782,2.782,0,0,0,1595.171,362.382Z" transform="translate(-1531.255 -329.829)" fill="#979faf"/>
            <path id="Trazado_24611" data-name="Trazado 24611" d="M1699.965,419.91a5.955,5.955,0,1,1,5.955-5.955A5.962,5.962,0,0,1,1699.965,419.91Zm0-9.528a3.573,3.573,0,1,0,3.573,3.573A3.577,3.577,0,0,0,1699.965,410.382Z" transform="translate(-1614.612 -368.301)" fill="#979faf"/>
            <path id="Trazado_24612" data-name="Trazado 24612" d="M1340.759,413.5a6.749,6.749,0,1,1,6.749-6.749A6.756,6.756,0,0,1,1340.759,413.5Zm0-11.116a4.367,4.367,0,1,0,4.367,4.367A4.372,4.372,0,0,0,1340.759,402.382Z" transform="translate(-1326.07 -361.889)" fill="#979faf"/>
            <path id="Trazado_24613" data-name="Trazado 24613" d="M1458.257,594.382H1439.2a1.191,1.191,0,0,1,0-2.382h19.056a1.191,1.191,0,1,1,0,2.382Z" transform="translate(-1409.427 -515.777)" fill="#303e58"/>
            <path id="Trazado_24614" data-name="Trazado 24614" d="M1417.583,568.734a3.577,3.577,0,0,1-3.573-3.573,5.167,5.167,0,0,1,5.161-5.161h27.789a1.191,1.191,0,1,1,0,2.382h-27.789a2.782,2.782,0,0,0-2.779,2.779,1.192,1.192,0,0,0,1.191,1.191,1.191,1.191,0,1,1,0,2.382Z" transform="translate(-1390.19 -490.129)" fill="#303e58"/>
            <path id="Trazado_24615" data-name="Trazado 24615" d="M1419.785,600.734h-26.2a3.577,3.577,0,0,1-3.573-3.573,5.167,5.167,0,0,1,5.161-5.161h5.558a1.191,1.191,0,0,1,0,2.382h-5.558a2.782,2.782,0,0,0-2.779,2.779,1.192,1.192,0,0,0,1.191,1.191h26.2a1.191,1.191,0,0,1,0,2.382Z" transform="translate(-1370.954 -515.777)" fill="#303e58"/>
            <path id="Trazado_24616" data-name="Trazado 24616" d="M1439.021,632.734h-21.437a3.577,3.577,0,0,1-3.573-3.573,5.167,5.167,0,0,1,5.161-5.161,1.191,1.191,0,0,1,0,2.382,2.782,2.782,0,0,0-2.779,2.779,1.192,1.192,0,0,0,1.191,1.191h21.438a1.191,1.191,0,1,1,0,2.382Z" transform="translate(-1390.19 -541.426)" fill="#303e58"/>
            <path id="Trazado_24617" data-name="Trazado 24617" d="M1473.327,664.734h-31.744a3.577,3.577,0,0,1-3.573-3.573,5.167,5.167,0,0,1,5.161-5.161,1.191,1.191,0,0,1,0,2.382,2.782,2.782,0,0,0-2.779,2.779,1.192,1.192,0,0,0,1.191,1.191h31.744a18.172,18.172,0,0,0,7.186-1.476l3.777-1.619a20.543,20.543,0,0,1,8.124-1.669H1505.9a1.191,1.191,0,0,1,0,2.382h-13.482a18.172,18.172,0,0,0-7.186,1.476l-3.777,1.619A20.546,20.546,0,0,1,1473.327,664.734Z" transform="translate(-1409.427 -567.074)" fill="#303e58"/>
            <path id="Trazado_24618" data-name="Trazado 24618" d="M1557.192,520.674h-12.7c-2.995,0-5.2-1.776-6.977-3.2a15.856,15.856,0,0,0-1.665-1.234c-8.6-5.041-12.5-5.6-18.981-6.529l-1.132-.163a42.929,42.929,0,0,1-7.055-2.149,31.335,31.335,0,0,0-3.026-1.014c-.617.019-1.262.713-1.262,1.985,0,.415.348,1.959,4.82,4.4a44.285,44.285,0,0,0,5.321,2.419,1.191,1.191,0,0,1-.814,2.239,45.972,45.972,0,0,1-5.626-2.555c-4.094-2.231-6.083-4.359-6.083-6.5,0-2.837,1.89-4.367,3.669-4.367a15.125,15.125,0,0,1,3.814,1.158,41.887,41.887,0,0,0,6.581,2.03l1.129.163c6.765.969,10.849,1.554,19.851,6.834a17.334,17.334,0,0,1,1.949,1.431c1.56,1.254,3.328,2.676,5.484,2.676h12.7a1.191,1.191,0,1,1,0,2.382Z" transform="translate(-1460.723 -445.245)" fill="#303e58"/>
            <path id="Trazado_24619" data-name="Trazado 24619" d="M1545.737,475.678a1.191,1.191,0,0,1-1.184-1.071l-.381-3.781a1.191,1.191,0,0,1,2.37-.239l.381,3.781a1.193,1.193,0,0,1-1.186,1.311Z" transform="translate(-1494.51 -417.605)" fill="#303e58"/>
            <path id="Trazado_24620" data-name="Trazado 24620" d="M1452.717,524.273a1.158,1.158,0,0,1-.142-.008,1.191,1.191,0,0,1-1.043-1.323l.414-3.494a1.191,1.191,0,0,1,2.366.28l-.414,3.494A1.191,1.191,0,0,1,1452.717,524.273Z" transform="translate(-1420.259 -456.785)" fill="#303e58"/>
            <path id="Trazado_24621" data-name="Trazado 24621" d="M1458.405,475.678a1.192,1.192,0,0,1-1.186-1.311l.381-3.781a1.191,1.191,0,1,1,2.37.239l-.381,3.781A1.191,1.191,0,0,1,1458.405,475.678Z" transform="translate(-1424.818 -417.606)" fill="#303e58"/>
            <path id="Trazado_24622" data-name="Trazado 24622" d="M1540.635,424.735a1.191,1.191,0,0,1-1.184-1.072l-.4-3.954a1.191,1.191,0,1,1,2.37-.238l.4,3.954a1.192,1.192,0,0,1-1.066,1.3Q1540.695,424.735,1540.635,424.735Z" transform="translate(-1490.409 -376.636)" fill="#303e58"/>
            <path id="Trazado_24623" data-name="Trazado 24623" d="M1463.436,424.736c-.039,0-.08,0-.12-.006a1.191,1.191,0,0,1-1.066-1.3l.4-3.954a1.191,1.191,0,1,1,2.37.238l-.4,3.954A1.191,1.191,0,0,1,1463.436,424.736Z" transform="translate(-1428.85 -376.636)" fill="#303e58"/>
            <path id="Trazado_24624" data-name="Trazado 24624" d="M1535.581,374.239a1.191,1.191,0,0,1-1.184-1.074l-.382-3.858a1.191,1.191,0,1,1,2.37-.234l.382,3.858a1.19,1.19,0,0,1-1.068,1.3C1535.659,374.237,1535.62,374.239,1535.581,374.239Z" transform="translate(-1486.37 -336.239)" fill="#303e58"/>
            <path id="Trazado_24625" data-name="Trazado 24625" d="M1468.561,374.24q-.059,0-.119-.006a1.191,1.191,0,0,1-1.068-1.3l.381-3.858a1.191,1.191,0,0,1,2.371.234l-.382,3.858A1.191,1.191,0,0,1,1468.561,374.24Z" transform="translate(-1432.958 -336.24)" fill="#303e58"/>
            <path id="Trazado_24626" data-name="Trazado 24626" d="M1503.2,469.558a1.191,1.191,0,0,1-1.191-1.191v-3.176a1.191,1.191,0,1,1,2.382,0v3.176A1.191,1.191,0,0,1,1503.2,469.558Z" transform="translate(-1460.723 -413.185)" fill="#303e58"/>
            <path id="Trazado_24627" data-name="Trazado 24627" d="M1503.2,421.558a1.191,1.191,0,0,1-1.191-1.191v-3.176a1.191,1.191,0,1,1,2.382,0v3.176A1.191,1.191,0,0,1,1503.2,421.558Z" transform="translate(-1460.723 -374.713)" fill="#303e58"/>
            <path id="Trazado_24628" data-name="Trazado 24628" d="M1503.2,373.558a1.191,1.191,0,0,1-1.191-1.191v-3.176a1.191,1.191,0,0,1,2.382,0v3.176A1.191,1.191,0,0,1,1503.2,373.558Z" transform="translate(-1460.723 -336.241)" fill="#303e58"/>
            <path id="Trazado_24629" data-name="Trazado 24629" d="M1305.631,559.1a11.683,11.683,0,0,1-10.527-6.653,11.468,11.468,0,0,1,3.682-14.146,11.778,11.778,0,0,1,13.067-.441,1.191,1.191,0,0,1-1.265,2.018,9.375,9.375,0,0,0-10.4.351,9.084,9.084,0,0,0-2.925,11.2,9.29,9.29,0,0,0,8.372,5.286,1.191,1.191,0,1,1,0,2.382Z" transform="translate(-1294.022 -470.972)" fill="#979faf"/>
            <path id="Trazado_24630" data-name="Trazado 24630" d="M1331.629,671.144a8.388,8.388,0,0,1-4.082-1.046,8.677,8.677,0,0,1-3.859-4.486,1.191,1.191,0,1,1,2.227-.846,6.3,6.3,0,0,0,2.8,3.258,6.066,6.066,0,0,0,2.912.738c3.223,0,4.11-.809,5.367-2.655a1.191,1.191,0,1,1,1.969,1.34C1337.3,669.9,1335.7,671.144,1331.629,671.144Z" transform="translate(-1317.734 -573.484)" fill="#979faf"/>
            <path id="Trazado_24631" data-name="Trazado 24631" d="M1367.2,502.218a1.191,1.191,0,0,1-1.044-1.762,8.322,8.322,0,0,1,14.121-.763,1.191,1.191,0,1,1-1.952,1.365,5.94,5.94,0,0,0-10.08.54A1.19,1.19,0,0,1,1367.2,502.218Z" transform="translate(-1351.717 -438.938)" fill="#979faf"/>
            <path id="Trazado_24632" data-name="Trazado 24632" d="M1608.8,476.028h-.015a1.191,1.191,0,0,1-1.176-1.206,8.937,8.937,0,0,0-15.526-6.135,1.191,1.191,0,0,1-1.756-1.61,11.319,11.319,0,0,1,19.664,7.775A1.191,1.191,0,0,1,1608.8,476.028Z" transform="translate(-1531.255 -412.7)" fill="#979faf"/>
            <path id="Trazado_24633" data-name="Trazado 24633" d="M1709.491,504.906a1.206,1.206,0,0,1-.133-.007,1.191,1.191,0,0,1-1.052-1.315,6.377,6.377,0,0,0-2.912-6.07,6.126,6.126,0,0,0-2.439-.909,1.191,1.191,0,1,1,.335-2.358,8.51,8.51,0,0,1,3.383,1.258,8.769,8.769,0,0,1,4,8.343A1.191,1.191,0,0,1,1709.491,504.906Z" transform="translate(-1620.96 -437.417)" fill="#979faf"/>
          </g>
        </g>
      </g>
    </g>
  </g>
</svg>
