<svg xmlns="http://www.w3.org/2000/svg" width="16.486" height="16.486" viewBox="0 0 16.486 16.486">
  <g id="Grupo_10188" data-name="Grupo 10188" transform="translate(-1 -1)">
    <path id="Trazado_12268" data-name="Trazado 12268" d="M9.243,6.414A1,1,0,0,1,7.828,5l2.829-2.828a4,4,0,1,1,5.657,5.656l-2.829,2.829a1,1,0,0,1-1.414-1.414L14.9,6.414a2,2,0,1,0-2.829-2.828Zm0,5.657a1,1,0,0,1,1.414,1.414L7.828,16.314a4,4,0,0,1-5.656-5.657L5,7.829A1,1,0,0,1,6.414,9.243L3.586,12.071A2,2,0,1,0,6.414,14.9Zm2.828-5.657a1,1,0,0,1,0,1.414L7.829,12.071a1,1,0,0,1-1.415-1.414l4.243-4.243A1,1,0,0,1,12.071,6.414Z" fill="#2b4e6a"/>
  </g>
</svg>
