<svg xmlns="http://www.w3.org/2000/svg" width="154" height="154" viewBox="0 0 154 154">
  <g id="Grupo_18780" data-name="Grupo 18780" transform="translate(-411 -2401)">
    <g id="Elipse_992" data-name="Elipse 992" transform="translate(411 2401)" fill="#f56b6b" stroke="#2643a2" stroke-width="3">
      <circle cx="77" cy="77" r="77" stroke="none"/>
      <circle cx="77" cy="77" r="75.5" fill="none"/>
    </g>
    <g id="Grupo_16974" data-name="Grupo 16974" transform="translate(-1824 2151)">
      <circle id="Elipse_999" data-name="Elipse 999" cx="46" cy="46" r="46" transform="translate(2272 278)" fill="#ebedf0"/>
      <g id="Grupo_16973" data-name="Grupo 16973" transform="translate(2254 286.886)">
        <g id="Grupo_16972" data-name="Grupo 16972" transform="translate(0 0)">
          <g id="Grupo_16970" data-name="Grupo 16970" transform="translate(1.568 1.568)">
            <path id="Trazado_31522" data-name="Trazado 31522" d="M2612,398c4.956,1.629,8.364,6.734,8.364,12.545s-3.408,10.916-8.364,12.545Z" transform="translate(-2520 -377.091)" fill="#fff"/>
            <path id="Trazado_31523" data-name="Trazado 31523" d="M2588.364,364v16.727a4.182,4.182,0,1,1-8.364,0V322.182a4.182,4.182,0,1,1,8.364,0V364Z" transform="translate(-2496.364 -318)" fill="#fff"/>
            <path id="Trazado_31524" data-name="Trazado 31524" d="M2324.727,533.364h-10.455A81.507,81.507,0,0,1,2308,502h12.545A119.436,119.436,0,0,0,2324.727,533.364Z" transform="translate(-2295.455 -453.909)" fill="#fff"/>
            <path id="Trazado_31525" data-name="Trazado 31525" d="M2272.545,377.909h-4.182a8.361,8.361,0,0,1-8.364-8.364V357a8.361,8.361,0,0,1,8.364-8.364h25.091A93.381,93.381,0,0,0,2343.636,334v58.545a93.383,93.383,0,0,0-50.182-14.636h-20.909Z" transform="translate(-2260 -329.818)" fill="#8ff3ad"/>
          </g>
          <g id="Grupo_16971" data-name="Grupo 16971">
            <path id="Trazado_31526" data-name="Trazado 31526" d="M2607.567,420.226a1.568,1.568,0,0,1-.489-3.058c4.289-1.41,7.285-5.957,7.285-11.056s-3-9.645-7.285-11.056a1.568,1.568,0,0,1,.979-2.98c5.647,1.857,9.442,7.5,9.442,14.035s-3.794,12.178-9.442,14.035A1.572,1.572,0,0,1,2607.567,420.226Z" transform="translate(-2513.999 -371.089)" fill="#979faf"/>
            <path id="Trazado_31527" data-name="Trazado 31527" d="M2579.75,382.045a5.756,5.756,0,0,1-5.75-5.75V317.75a5.75,5.75,0,0,1,11.5,0V376.3A5.756,5.756,0,0,1,2579.75,382.045Zm0-66.909a2.617,2.617,0,0,0-2.614,2.614V376.3a2.614,2.614,0,1,0,5.227,0V317.75A2.617,2.617,0,0,0,2579.75,315.136Z" transform="translate(-2490.364 -312)" fill="#303e58"/>
            <path id="Trazado_31528" data-name="Trazado 31528" d="M2383.568,440.045a1.568,1.568,0,0,1-1.568-1.568V417.568a1.568,1.568,0,1,1,3.136,0v20.909A1.568,1.568,0,0,1,2383.568,440.045Z" transform="translate(-2348.545 -388.818)" fill="#303e58"/>
            <path id="Trazado_31529" data-name="Trazado 31529" d="M2339.2,389.682a1.561,1.561,0,0,1-.842-.246,91.635,91.635,0,0,0-49.339-14.391h-25.091a9.943,9.943,0,0,1-9.932-9.932V352.568a9.943,9.943,0,0,1,9.932-9.932h25.091a91.635,91.635,0,0,0,49.339-14.391,1.568,1.568,0,0,1,1.686,2.645,94.773,94.773,0,0,1-51.025,14.882h-25.091a6.8,6.8,0,0,0-6.8,6.8v12.545a6.8,6.8,0,0,0,6.8,6.8h25.091a94.773,94.773,0,0,1,51.025,14.882,1.568,1.568,0,0,1-.845,2.891Z" transform="translate(-2254 -323.818)" fill="#303e58"/>
            <path id="Trazado_31530" data-name="Trazado 31530" d="M2291.75,443.136h-4.182a1.568,1.568,0,0,1,0-3.136h4.182a1.568,1.568,0,0,1,0,3.136Z" transform="translate(-2277.636 -406.545)" fill="#303e58"/>
            <path id="Trazado_31531" data-name="Trazado 31531" d="M2291.75,411.136h-4.182a1.568,1.568,0,0,1,0-3.136h4.182a1.568,1.568,0,0,1,0,3.136Z" transform="translate(-2277.636 -382.909)" fill="#303e58"/>
            <path id="Trazado_31532" data-name="Trazado 31532" d="M2291.75,475.136h-4.182a1.568,1.568,0,0,1,0-3.136h4.182a1.568,1.568,0,0,1,0,3.136Z" transform="translate(-2277.636 -430.182)" fill="#303e58"/>
            <path id="Trazado_31533" data-name="Trazado 31533" d="M2320.3,530.5h-10.455a1.568,1.568,0,0,1-1.447-.965A82.64,82.64,0,0,1,2302,497.568a1.568,1.568,0,1,1,3.136,0,79.5,79.5,0,0,0,5.757,29.8h7.368a121.169,121.169,0,0,1-3.716-29.8,1.568,1.568,0,0,1,3.136,0,117.962,117.962,0,0,0,4.127,30.952,1.568,1.568,0,0,1-1.513,1.98Z" transform="translate(-2289.455 -447.909)" fill="#303e58"/>
            <path id="Trazado_31534" data-name="Trazado 31534" d="M2688.3,443.136h-16.727a1.568,1.568,0,0,1,0-3.136H2688.3a1.568,1.568,0,0,1,0,3.136Z" transform="translate(-2561.273 -406.545)" fill="#979faf"/>
            <path id="Trazado_31535" data-name="Trazado 31535" d="M2660.851,379.5a1.568,1.568,0,0,1-.785-2.926l14.49-8.364a1.568,1.568,0,1,1,1.568,2.716l-14.49,8.364A1.558,1.558,0,0,1,2660.851,379.5Z" transform="translate(-2553.355 -353.363)" fill="#979faf"/>
            <path id="Trazado_31536" data-name="Trazado 31536" d="M2675.337,491.5a1.557,1.557,0,0,1-.782-.21l-14.49-8.364a1.568,1.568,0,1,1,1.568-2.716l14.49,8.364a1.568,1.568,0,0,1-.785,2.926Z" transform="translate(-2553.355 -436.09)" fill="#979faf"/>
          </g>
        </g>
      </g>
    </g>
  </g>
</svg>
