<svg xmlns="http://www.w3.org/2000/svg" width="154" height="154" viewBox="0 0 154 154">
  <g id="Grupo_18778" data-name="Grupo 18778" transform="translate(-411 -1933)">
    <g id="Elipse_990" data-name="Elipse 990" transform="translate(411 1933)" fill="#f56b6b" stroke="#2643a2" stroke-width="3">
      <circle cx="77" cy="77" r="77" stroke="none"/>
      <circle cx="77" cy="77" r="75.5" fill="none"/>
    </g>
    <g id="Grupo_16965" data-name="Grupo 16965" transform="translate(-3733.5 934.998)">
      <circle id="Elipse_998" data-name="Elipse 998" cx="41" cy="41" r="41" transform="translate(4180.5 1034.002)" fill="#ebedf0"/>
      <g id="Grupo_16964" data-name="Grupo 16964" transform="translate(4170.5 1024.002)">
        <g id="Grupo_16963" data-name="Grupo 16963" transform="translate(0 0)">
          <g id="Grupo_16961" data-name="Grupo 16961" transform="translate(13.644 9.507)">
            <path id="Trazado_31467" data-name="Trazado 31467" d="M4351.739,1187.229l-13.227,13.227-6.581,6.6h-.016l-.414.413-3.307-3.307-.247-.4c-1.918-3.323-1.836-4.679-.066-5.688,1.768-1.025,2.695.347,4.446-.661l2.546-1.472v-4.2l-2.546-1.472c-1.751-1.008-2.679.364-4.446-.661-1.77-1.008-1.852-2.365.066-5.687s3.124-3.919,4.894-2.893c1.768,1.008,1.042,2.5,2.793,3.521l2.546,1.472,3.638-2.1v-2.943c0-2.034-1.653-2.15-1.653-4.184s1.124-2.794,4.96-2.794,4.96.761,4.96,2.794-1.653,2.15-1.653,4.184v2.943Z" transform="translate(-4307.928 -1152.508)" fill="#8ff3ad"/>
            <path id="Trazado_31468" data-name="Trazado 31468" d="M4384.5,1224.318l13.227-13.227,6.581-6.58h.016l.414-.43,3.307,3.307.247.4c1.918,3.323,1.836,4.679.066,5.687-1.768,1.025-2.7-.347-4.447.661l-2.546,1.472v4.2l2.546,1.472c1.751,1.008,2.679-.364,4.447.661,1.77,1.008,1.852,2.365-.066,5.688s-3.125,3.919-4.894,2.893c-1.768-1.008-1.042-2.5-2.793-3.521l-2.546-1.472-3.638,2.1v2.943c0,2.034,1.653,2.15,1.653,4.183s-1.124,2.794-4.96,2.794-4.96-.76-4.96-2.794,1.653-2.15,1.653-4.183v-2.943Z" transform="translate(-4353.917 -1176.37)" fill="#8ff3ad"/>
            <path id="Trazado_31469" data-name="Trazado 31469" d="M4343.592,1200.933l-3.556,2.051a14.349,14.349,0,0,1-3.307.86v8.415c0,2.016,1.653,2.133,1.653,4.133,0,2.016-1.224,2.761-4.96,2.761s-4.96-.745-4.96-2.761c0-2,1.653-2.117,1.653-4.133v-8.415a14.36,14.36,0,0,1-3.307-.86l-3.555-2.051-2.348,4.067c-1.007,1.753.844,2.944-.148,4.7-1.007,1.737-2.281,1.489-5.522-.38-2.315-1.322-3.405-2.215-3.456-3.24l2.645-2.645a2.486,2.486,0,0,0,1.7-1.175l.729-1.256-3.307-3.307,6.249-6.249.413-.413h.016l6.581-6.6,3.307,3.307v2.943c0,2.034-1.653,2.15-1.653,4.183s1.124,2.794,4.96,2.794,4.96-.76,4.96-2.794-1.653-2.15-1.653-4.183v-2.943l3.638-2.1,2.546,1.472c1.752,1.025,1.025,2.513,2.793,3.521,1.77,1.025,2.977.429,4.894-2.893s1.836-4.679.066-5.688c-1.768-1.025-2.695.347-4.447-.661l-2.546-1.472v-4.2l2.546-1.472c1.752-1.008,2.679.364,4.447-.661,1.77-1.008,1.852-2.365-.066-5.687l-.247-.4-3.307-3.307,7.753-7.754,3.307,3.307,3.489-2.017c1.752-1.008,1.009-2.5,2.761-3.505,1.736-.992,2.992-.314,4.861,2.927s1.834,4.662.1,5.671c-1.752,1.008-2.663-.364-4.415.644l-7.292,4.2a16.274,16.274,0,0,1,.927,3.291v4.1h4.678c2.018,0,2.133-2.2,4.151-2.2,2,0,2.43,1.224,2.43,4.96s-.429,4.96-2.43,4.96c-2.018,0-2.133-2.2-4.151-2.2h-4.678v4.1a16.279,16.279,0,0,1-.927,3.291l7.292,4.2c1.752,1.008,2.663-.364,4.415.644,1.736,1.009,1.77,2.431-.1,5.671s-3.125,3.919-4.861,2.91c-1.752-.991-1.009-2.48-2.761-3.488l-7.292-4.216a15.2,15.2,0,0,1-2.38,2.447l-4.547.347,3.339,5.77c.991,1.737,2.959.728,3.968,2.464,1.008,1.753.165,2.728-3.076,4.6s-4.515,2.117-5.506.364c-1.009-1.736.843-2.927-.165-4.679Z" transform="translate(-4296.227 -1136.485)" fill="#8ff3ad"/>
            <path id="Trazado_31470" data-name="Trazado 31470" d="M4248.6,1108.575v-4.1a16.574,16.574,0,0,1,.927-3.291l-7.292-4.2c-1.752-1.008-2.663.364-4.415-.644-1.735-1.009-1.77-2.431.1-5.671s3.126-3.919,4.861-2.91c1.752.991,1.009,2.48,2.761,3.488l7.292,4.216a15.2,15.2,0,0,1,2.38-2.447l4.546-.347-3.339-5.77c-.992-1.737-2.959-.728-3.969-2.48-1.008-1.737-.165-2.712,3.076-4.58s4.515-2.117,5.506-.38c1.009,1.752-.843,2.943.165,4.7l2.347,4.05,3.556-2.05a15.188,15.188,0,0,1,3.307-.844V1076.9c0-2.016-1.653-2.133-1.653-4.133,0-2.016,1.224-2.761,4.96-2.761s4.96.744,4.96,2.761c0,2-1.653,2.117-1.653,4.133v8.416a15.188,15.188,0,0,1,3.307.844l3.555,2.05,2.348-4.05c1.008-1.753-.86-2.943.148-4.7,1.008-1.737,2.282-1.489,5.522.38,2.315,1.322,3.405,2.215,3.455,3.24l3.307,3.307-3.571,3.571-7.753,7.754-.414.43h-.016l-6.581,6.58-3.307-3.307v-2.943c0-2.034,1.653-2.15,1.653-4.184s-1.124-2.794-4.96-2.794-4.96.761-4.96,2.794,1.653,2.15,1.653,4.184v2.943l-3.638,2.1-2.546-1.472c-1.751-1.025-1.025-2.513-2.793-3.521-1.77-1.025-2.978-.429-4.894,2.893s-1.836,4.679-.066,5.687c1.768,1.025,2.695-.347,4.446.661l2.546,1.472v4.2l-2.546,1.472c-1.751,1.008-2.679-.364-4.446.661-1.77,1.008-1.852,2.365.066,5.688l.247.4,3.307,3.307-6.249,6.249-1.5,1.5-3.307-3.307-3.489,2.017c-1.752,1.008-1.009,2.5-2.761,3.488-1.735,1.009-2.992.331-4.861-2.909s-1.834-4.662-.1-5.672c1.752-1.008,2.663.364,4.415-.644l7.292-4.2a16.579,16.579,0,0,1-.927-3.291v-4.1h-4.677c-2.019,0-2.133,2.2-4.151,2.2-2,0-2.43-1.224-2.43-4.96s.43-4.96,2.43-4.96c2.018,0,2.133,2.2,4.151,2.2Z" transform="translate(-4236.519 -1070.002)" fill="#8ff3ad"/>
          </g>
          <g id="Grupo_16962" data-name="Grupo 16962">
            <path id="Trazado_31471" data-name="Trazado 31471" d="M4221.341,1125.684a50.839,50.839,0,1,1,35.951-14.89A50.5,50.5,0,0,1,4221.341,1125.684Zm0-99.2a48.379,48.379,0,1,0,34.191,14.17A48.046,48.046,0,0,0,4221.341,1026.482Z" transform="translate(-4170.5 -1024.002)" fill="#303e58"/>
            <path id="Trazado_31472" data-name="Trazado 31472" d="M4242.06,1352.261a1.24,1.24,0,0,1-.877-2.117l21.857-21.857a1.24,1.24,0,0,1,1.753,1.754l-21.857,21.857A1.235,1.235,0,0,1,4242.06,1352.261Z" transform="translate(-4226.287 -1265.112)" fill="#303e58"/>
            <path id="Trazado_31473" data-name="Trazado 31473" d="M4347.9,1229.047a1.24,1.24,0,0,1-.878-2.116l6.581-6.6,19.81-19.809a1.24,1.24,0,0,1,1.753,1.754l-19.808,19.807-6.58,6.6A1.237,1.237,0,0,1,4347.9,1229.047Z" transform="translate(-4310.25 -1163.755)" fill="#303e58"/>
            <path id="Trazado_31474" data-name="Trazado 31474" d="M4475.662,1118.677a1.24,1.24,0,0,1-.894-2.1l.414-.43.017-.018,21.444-21.444a1.24,1.24,0,1,1,1.753,1.754l-21.435,21.435-.4.422A1.237,1.237,0,0,1,4475.662,1118.677Z" transform="translate(-4411.61 -1079.789)" fill="#303e58"/>
            <path id="Trazado_31475" data-name="Trazado 31475" d="M4392.967,1082.636a1.247,1.247,0,0,1-.339-.047c-.481-.137-.841-.256-1.158-.362a7.7,7.7,0,0,0-1.944-.442,1.24,1.24,0,0,1-1.106-1.233v-8.415a4.25,4.25,0,0,1,1.09-2.837,1.842,1.842,0,0,0,.563-1.3c0-.782,0-1.521-3.72-1.521s-3.72.739-3.72,1.521a1.842,1.842,0,0,0,.563,1.3,4.25,4.25,0,0,1,1.09,2.837v8.415a1.24,1.24,0,0,1-1.106,1.233,7.7,7.7,0,0,0-1.944.442c-.317.106-.677.225-1.158.362a1.24,1.24,0,1,1-.678-2.386c.429-.122.76-.232,1.053-.33a11.23,11.23,0,0,1,1.353-.384v-7.353a1.862,1.862,0,0,0-.568-1.314,4.226,4.226,0,0,1-1.086-2.819c0-4,4.034-4,6.2-4s6.2,0,6.2,4a4.226,4.226,0,0,1-1.085,2.819,1.862,1.862,0,0,0-.568,1.314v7.353a11.23,11.23,0,0,1,1.353.384c.293.1.625.208,1.053.33a1.24,1.24,0,0,1-.338,2.433Z" transform="translate(-4335.512 -1055.735)" fill="#303e58"/>
            <path id="Trazado_31476" data-name="Trazado 31476" d="M4243.821,1167.457a1.241,1.241,0,0,1-1.2-1.555c.118-.449.189-.788.257-1.115a11.68,11.68,0,0,1,.332-1.315l-6.373-3.671a1.866,1.866,0,0,0-1.42-.168,4.255,4.255,0,0,1-2.994-.476c-3.447-2-1.437-5.492-.357-7.366,1.381-2.393,2.475-3.51,3.777-3.857a3.547,3.547,0,0,1,2.782.5,4.171,4.171,0,0,1,1.907,2.346,1.842,1.842,0,0,0,.849,1.14l6.369,3.682a10.809,10.809,0,0,1,.979-.949c.249-.221.506-.449.834-.772a1.24,1.24,0,1,1,1.741,1.766c-.375.369-.669.631-.93.862a7.22,7.22,0,0,0-1.314,1.427,1.24,1.24,0,0,1-1.627.349l-7.292-4.216a4.224,4.224,0,0,1-1.908-2.356,1.8,1.8,0,0,0-.843-1.127c-.582-.338-.82-.274-.91-.25-.382.1-1.085.653-2.267,2.7-1.856,3.22-1.25,3.572-.549,3.98a1.863,1.863,0,0,0,1.416.166,4.256,4.256,0,0,1,2.994.476l7.292,4.2a1.24,1.24,0,0,1,.519,1.569,8,8,0,0,0-.579,1.874c-.071.341-.152.727-.285,1.236A1.241,1.241,0,0,1,4243.821,1167.457Z" transform="translate(-4218.095 -1122.237)" fill="#303e58"/>
            <path id="Trazado_31477" data-name="Trazado 31477" d="M4236.639,1316.829a3.083,3.083,0,0,1-.8-.106c-1.3-.347-2.4-1.464-3.777-3.857-1.08-1.874-3.09-5.361.353-7.363a4.258,4.258,0,0,1,3-.479,1.867,1.867,0,0,0,1.42-.168l6.373-3.671a11.7,11.7,0,0,1-.332-1.315c-.068-.328-.14-.666-.257-1.115a1.24,1.24,0,1,1,2.4-.628c.134.509.214.9.286,1.236a8,8,0,0,0,.579,1.874,1.239,1.239,0,0,1-.518,1.569l-7.292,4.2a4.254,4.254,0,0,1-2.994.476,1.865,1.865,0,0,0-1.421.168c-.7.4-1.3.757.554,3.977,1.181,2.047,1.884,2.6,2.267,2.7.09.024.329.088.9-.243a1.813,1.813,0,0,0,.855-1.134,4.229,4.229,0,0,1,1.91-2.357l3.487-2.015a1.24,1.24,0,1,1,1.241,2.147l-3.489,2.017a1.842,1.842,0,0,0-.851,1.141,4.182,4.182,0,0,1-1.92,2.353A3.907,3.907,0,0,1,4236.639,1316.829Z" transform="translate(-4218.092 -1240.738)" fill="#303e58"/>
            <path id="Trazado_31478" data-name="Trazado 31478" d="M4386.353,1404.412c-2.167,0-6.2,0-6.2-4a4.226,4.226,0,0,1,1.085-2.819,1.862,1.862,0,0,0,.568-1.314v-7.352a10.951,10.951,0,0,1-1.393-.4c-.286-.1-.61-.208-1.025-.33a1.24,1.24,0,0,1,.7-2.379c.463.137.813.256,1.122.361a7.54,7.54,0,0,0,1.968.456,1.24,1.24,0,0,1,1.106,1.233v8.415a4.25,4.25,0,0,1-1.09,2.837,1.842,1.842,0,0,0-.563,1.3c0,.782,0,1.521,3.72,1.521s3.72-.739,3.72-1.521a1.844,1.844,0,0,0-.563-1.3,4.248,4.248,0,0,1-1.091-2.837v-8.415a1.24,1.24,0,0,1,1.106-1.233,7.55,7.55,0,0,0,1.968-.456c.309-.1.659-.224,1.122-.361a1.24,1.24,0,0,1,.7,2.379c-.415.122-.739.233-1.025.33a10.951,10.951,0,0,1-1.393.4v7.352a1.864,1.864,0,0,0,.567,1.314,4.224,4.224,0,0,1,1.086,2.819C4392.553,1404.412,4388.519,1404.412,4386.353,1404.412Z" transform="translate(-4335.511 -1310.996)" fill="#303e58"/>
            <path id="Trazado_31479" data-name="Trazado 31479" d="M4515.058,1316.829a3.937,3.937,0,0,1-1.985-.6,4.17,4.17,0,0,1-1.907-2.346,1.844,1.844,0,0,0-.85-1.14l-6.368-3.682a10.844,10.844,0,0,1-.98.949c-.249.221-.506.449-.834.773a1.24,1.24,0,0,1-1.741-1.766c.375-.369.67-.631.93-.862a7.2,7.2,0,0,0,1.314-1.427,1.24,1.24,0,0,1,1.627-.349l7.292,4.216a4.223,4.223,0,0,1,1.908,2.356,1.808,1.808,0,0,0,.843,1.127c.582.338.821.274.91.25.382-.1,1.086-.653,2.267-2.7,1.856-3.22,1.25-3.572.549-3.979a1.865,1.865,0,0,0-1.416-.166,4.256,4.256,0,0,1-2.994-.476l-7.292-4.2a1.24,1.24,0,0,1-.516-1.574,7.751,7.751,0,0,0,.576-1.862c.071-.343.152-.732.286-1.243a1.24,1.24,0,1,1,2.4.628c-.118.449-.188.79-.257,1.12a11.466,11.466,0,0,1-.33,1.312l6.371,3.67a1.867,1.867,0,0,0,1.421.168,4.255,4.255,0,0,1,2.994.476c3.448,2,1.437,5.492.357,7.365-1.38,2.393-2.475,3.511-3.776,3.858A3.085,3.085,0,0,1,4515.058,1316.829Z" transform="translate(-4431.92 -1240.738)" fill="#303e58"/>
            <path id="Trazado_31480" data-name="Trazado 31480" d="M4529.7,1167.428a1.24,1.24,0,0,1-1.2-.926c-.134-.511-.215-.9-.286-1.243a7.751,7.751,0,0,0-.576-1.862,1.24,1.24,0,0,1,.516-1.574l7.292-4.2a4.256,4.256,0,0,1,2.994-.476,1.867,1.867,0,0,0,1.42-.168c.7-.4,1.3-.757-.554-3.977s-2.5-2.855-3.172-2.469a1.841,1.841,0,0,0-.846,1.141,4.225,4.225,0,0,1-1.912,2.363l-3.487,2.015a1.24,1.24,0,1,1-1.241-2.147l3.489-2.017a1.843,1.843,0,0,0,.852-1.144,4.227,4.227,0,0,1,1.912-2.363c3.461-1.979,5.473,1.508,6.554,3.381s3.091,5.361-.353,7.363a4.255,4.255,0,0,1-3,.479,1.866,1.866,0,0,0-1.421.168l-6.371,3.67a11.466,11.466,0,0,1,.33,1.312c.069.329.14.67.257,1.12a1.241,1.241,0,0,1-1.2,1.555Z" transform="translate(-4453.749 -1122.208)" fill="#303e58"/>
            <path id="Trazado_31481" data-name="Trazado 31481" d="M4396.007,1180.4a1.24,1.24,0,0,1-1.24-1.24v-2.943a4.294,4.294,0,0,1,1.084-2.848,1.9,1.9,0,0,0,.57-1.336c0-.868,0-1.554-3.72-1.554s-3.72.686-3.72,1.554a1.9,1.9,0,0,0,.57,1.336,4.3,4.3,0,0,1,1.083,2.848v2.943a1.24,1.24,0,1,1-2.48,0v-2.943a1.9,1.9,0,0,0-.569-1.336,4.294,4.294,0,0,1-1.084-2.848c0-3.545,2.98-4.034,6.2-4.034s6.2.489,6.2,4.034a4.294,4.294,0,0,1-1.084,2.848,1.9,1.9,0,0,0-.569,1.336v2.943A1.24,1.24,0,0,1,4396.007,1180.4Z" transform="translate(-4341.859 -1138.241)" fill="#303e58"/>
            <path id="Trazado_31482" data-name="Trazado 31482" d="M4330.1,1213.444a1.235,1.235,0,0,1-.619-.167l-2.546-1.472a1.89,1.89,0,0,0-1.427-.17,4.3,4.3,0,0,1-3.021-.493,3.594,3.594,0,0,1-1.854-2.174c-.349-1.286.077-2.795,1.469-5.206s2.475-3.522,3.758-3.866a3.627,3.627,0,0,1,2.832.519,4.265,4.265,0,0,1,1.931,2.362,1.918,1.918,0,0,0,.867,1.162l2.541,1.468a1.24,1.24,0,0,1-1.241,2.147l-2.546-1.472a4.318,4.318,0,0,1-1.913-2.36,1.883,1.883,0,0,0-.874-1.158c-.625-.362-.865-.3-.955-.273-.54.144-1.3,1.056-2.25,2.709s-1.37,2.776-1.223,3.318c.024.089.089.326.7.673a1.916,1.916,0,0,0,1.46.184,4.283,4.283,0,0,1,2.991.48l2.548,1.473a1.24,1.24,0,0,1-.622,2.314Z" transform="translate(-4289.515 -1163.463)" fill="#303e58"/>
            <path id="Trazado_31483" data-name="Trazado 31483" d="M4323.427,1284.859a1.239,1.239,0,0,1-1.054-.585l-.247-.4-.021-.035c-1.392-2.411-1.817-3.919-1.469-5.206a3.6,3.6,0,0,1,1.862-2.179,4.3,4.3,0,0,1,3.014-.488,1.893,1.893,0,0,0,1.429-.171l2.544-1.471a1.24,1.24,0,0,1,1.241,2.147l-2.546,1.472a4.286,4.286,0,0,1-2.993.481,1.909,1.909,0,0,0-1.452.179c-.616.351-.681.588-.705.678-.146.539.262,1.649,1.213,3.3l.236.38a1.24,1.24,0,0,1-1.052,1.9Z" transform="translate(-4289.515 -1222.46)" fill="#303e58"/>
            <path id="Trazado_31484" data-name="Trazado 31484" d="M4347.834,1330.4h-.016a1.24,1.24,0,1,1,.016,0Z" transform="translate(-4310.188 -1265.112)" fill="#303e58"/>
            <path id="Trazado_31485" data-name="Trazado 31485" d="M4392.7,1324.4c-3.22,0-6.2-.489-6.2-4.034a4.294,4.294,0,0,1,1.084-2.848,1.9,1.9,0,0,0,.569-1.336v-2.943a1.24,1.24,0,1,1,2.48,0v2.943a4.3,4.3,0,0,1-1.083,2.848,1.9,1.9,0,0,0-.57,1.336c0,.868,0,1.554,3.72,1.554s3.72-.686,3.72-1.554a1.9,1.9,0,0,0-.57-1.336,4.294,4.294,0,0,1-1.084-2.848v-2.943a1.24,1.24,0,0,1,2.48,0v2.943a1.9,1.9,0,0,0,.569,1.336,4.294,4.294,0,0,1,1.084,2.848C4398.9,1323.914,4395.92,1324.4,4392.7,1324.4Z" transform="translate(-4341.859 -1252.481)" fill="#303e58"/>
            <path id="Trazado_31486" data-name="Trazado 31486" d="M4452.1,1287.811a4.074,4.074,0,0,1-2.043-.623,4.268,4.268,0,0,1-1.931-2.362,1.914,1.914,0,0,0-.867-1.162l-2.541-1.468a1.24,1.24,0,0,1,1.241-2.147l2.546,1.472a4.318,4.318,0,0,1,1.913,2.36,1.882,1.882,0,0,0,.874,1.158c.625.362.865.3.955.273.54-.144,1.3-1.056,2.25-2.709s1.37-2.776,1.224-3.318c-.024-.089-.089-.326-.7-.673a1.913,1.913,0,0,0-1.46-.184,4.282,4.282,0,0,1-2.991-.48l-2.548-1.473a1.24,1.24,0,0,1,1.241-2.147l2.546,1.472a1.891,1.891,0,0,0,1.426.17,4.3,4.3,0,0,1,3.022.492,3.6,3.6,0,0,1,1.854,2.174c.349,1.286-.077,2.794-1.469,5.206s-2.475,3.523-3.758,3.866A3.043,3.043,0,0,1,4452.1,1287.811Z" transform="translate(-4387.556 -1222.46)" fill="#303e58"/>
            <path id="Trazado_31487" data-name="Trazado 31487" d="M4461.342,1224.777a1.24,1.24,0,0,1-.622-2.314l2.546-1.472a4.284,4.284,0,0,1,2.993-.481,1.909,1.909,0,0,0,1.453-.179c.616-.351.681-.588.7-.678.146-.539-.262-1.649-1.213-3.3l-.236-.38a1.24,1.24,0,0,1,2.106-1.31l.247.4.021.035c1.392,2.411,1.817,3.92,1.469,5.206a3.6,3.6,0,0,1-1.862,2.179,4.3,4.3,0,0,1-3.014.488,1.894,1.894,0,0,0-1.429.171l-2.544,1.471A1.237,1.237,0,0,1,4461.342,1224.777Z" transform="translate(-4400.249 -1174.796)" fill="#303e58"/>
            <path id="Trazado_31488" data-name="Trazado 31488" d="M4475.6,1202.642h-.016a1.24,1.24,0,1,1,.016,0Z" transform="translate(-4411.548 -1163.755)" fill="#303e58"/>
            <path id="Trazado_31489" data-name="Trazado 31489" d="M4238.17,1252.4c-3.67,0-3.67-3.438-3.67-6.2s0-6.2,3.67-6.2a3.891,3.891,0,0,1,2.966,1.476c.53.546.739.723,1.186.723h6.646a1.24,1.24,0,1,1,0,2.48h-6.646a3.893,3.893,0,0,1-2.966-1.476c-.53-.546-.739-.723-1.186-.723-.673,0-.747.159-.84.359a16.3,16.3,0,0,0,0,6.721c.093.2.167.359.84.359.447,0,.656-.177,1.186-.723a3.893,3.893,0,0,1,2.966-1.476h6.646a1.24,1.24,0,1,1,0,2.48h-6.646c-.447,0-.656.177-1.186.723A3.891,3.891,0,0,1,4238.17,1252.4Z" transform="translate(-4221.273 -1195.361)" fill="#303e58"/>
            <path id="Trazado_31490" data-name="Trazado 31490" d="M4314.293,1381.786c-1.452,0-3.043-.918-4.437-1.721-2.518-1.438-3.993-2.6-4.074-4.254a1.24,1.24,0,0,1,2.477-.121c.014.285.517.9,2.832,2.224a10.488,10.488,0,0,0,3.1,1.384c.222.02.4.037.737-.55.213-.376.163-.645-.048-1.375a3.887,3.887,0,0,1,.194-3.316l3.327-5.757a1.24,1.24,0,0,1,2.146,1.243l-3.324,5.752c-.223.387-.173.657.039,1.389a3.9,3.9,0,0,1-.183,3.3A3.109,3.109,0,0,1,4314.293,1381.786Z" transform="translate(-4277.822 -1296.652)" fill="#303e58"/>
            <path id="Trazado_31491" data-name="Trazado 31491" d="M4319.816,1381.072a1.24,1.24,0,0,1-.336-2.434c.593-.168.791-.289.96-.591l.735-1.269a1.24,1.24,0,1,1,2.146,1.244l-.728,1.256a3.693,3.693,0,0,1-2.439,1.746A1.24,1.24,0,0,1,4319.816,1381.072Z" transform="translate(-4287.974 -1303.379)" fill="#303e58"/>
            <path id="Trazado_31492" data-name="Trazado 31492" d="M4461.416,1371.184a3.024,3.024,0,0,1-.8-.106,3.291,3.291,0,0,1-1.987-1.712,3.845,3.845,0,0,1-.2-3.285c.21-.729.259-1,.036-1.386l-3.323-5.75a1.24,1.24,0,0,1,2.146-1.243l3.325,5.755a3.887,3.887,0,0,1,.2,3.31c-.208.723-.256.988-.036,1.366.132.234.317.506.489.553.647.177,2.663-.986,3.325-1.368a10.364,10.364,0,0,0,2.736-1.98c.127-.181.229-.325-.116-.923-.218-.374-.474-.464-1.209-.645a3.835,3.835,0,0,1-2.761-1.822l-3.335-5.763a1.24,1.24,0,1,1,2.146-1.242l3.339,5.77c.217.381.471.47,1.2.649a3.873,3.873,0,0,1,2.766,1.812c1.839,3.2-1.137,4.915-3.528,6.294C4463.951,1370.549,4462.6,1371.184,4461.416,1371.184Z" transform="translate(-4396.183 -1286.054)" fill="#303e58"/>
            <path id="Trazado_31493" data-name="Trazado 31493" d="M4534.537,1252.4a3.89,3.89,0,0,1-2.965-1.476c-.53-.546-.739-.723-1.186-.723h-6.646a1.24,1.24,0,1,1,0-2.48h6.646a3.893,3.893,0,0,1,2.966,1.476c.53.546.739.723,1.186.723.673,0,.747-.159.84-.359a16.3,16.3,0,0,0,0-6.721c-.093-.2-.167-.359-.84-.359-.447,0-.656.177-1.186.723a3.893,3.893,0,0,1-2.966,1.476h-6.646a1.24,1.24,0,1,1,0-2.48h6.646c.447,0,.656-.177,1.186-.723a3.89,3.89,0,0,1,2.965-1.476c3.67,0,3.67,3.438,3.67,6.2S4538.207,1252.4,4534.537,1252.4Z" transform="translate(-4449.751 -1195.361)" fill="#303e58"/>
            <path id="Trazado_31494" data-name="Trazado 31494" d="M4456.214,1118.176a1.241,1.241,0,0,1-1.075-1.857l.977-1.7,2.35-4.055c.22-.382.169-.65-.043-1.378a3.871,3.871,0,0,1,.19-3.315c1.842-3.174,4.822-1.456,7.216-.075,2.518,1.438,3.993,2.6,4.074,4.254a1.24,1.24,0,0,1-2.477.121c-.014-.285-.517-.9-2.832-2.224a10.483,10.483,0,0,0-3.1-1.384c-.223-.02-.4-.037-.737.55-.22.382-.17.65.043,1.378a3.876,3.876,0,0,1-.189,3.313l-3.324,5.752A1.24,1.24,0,0,1,4456.214,1118.176Z" transform="translate(-4396.182 -1087.522)" fill="#303e58"/>
            <path id="Trazado_31495" data-name="Trazado 31495" d="M4491.895,1144.99a1.24,1.24,0,0,1-1.071-1.862l.728-1.256a3.692,3.692,0,0,1,2.439-1.746,1.24,1.24,0,0,1,.674,2.387c-.593.168-.791.289-.961.591l-.735,1.269A1.239,1.239,0,0,1,4491.895,1144.99Z" transform="translate(-4424.489 -1116.089)" fill="#303e58"/>
            <path id="Trazado_31496" data-name="Trazado 31496" d="M4314.625,1120.944a1.24,1.24,0,0,1-1.074-.619l-3.339-5.77c-.217-.38-.471-.47-1.2-.651a3.881,3.881,0,0,1-2.771-1.831,3.3,3.3,0,0,1-.472-2.575c.369-1.382,1.691-2.366,4-3.7s3.836-1.99,5.218-1.616a3.284,3.284,0,0,1,1.984,1.7,3.884,3.884,0,0,1,.2,3.3c-.209.731-.258,1-.035,1.388l3.325,5.755a1.24,1.24,0,0,1-2.151,1.234l-.977-1.7-2.345-4.045a3.9,3.9,0,0,1-.2-3.311c.21-.73.258-1,.035-1.387-.126-.221-.31-.49-.48-.536-.649-.175-2.668.988-3.331,1.371s-2.673,1.541-2.846,2.19a1.178,1.178,0,0,0,.224.693c.225.391.482.483,1.221.666a3.84,3.84,0,0,1,2.752,1.822l3.335,5.763a1.24,1.24,0,0,1-1.072,1.861Z" transform="translate(-4277.738 -1087.53)" fill="#303e58"/>
            <path id="Trazado_31497" data-name="Trazado 31497" d="M4390.137,1247.2a1.241,1.241,0,0,1-1.12-1.773,6.143,6.143,0,0,1,2.9-2.9,1.24,1.24,0,1,1,1.064,2.24,3.655,3.655,0,0,0-1.728,1.728A1.241,1.241,0,0,1,4390.137,1247.2Z" transform="translate(-4343.761 -1197.263)" fill="#303e58"/>
            <path id="Trazado_31498" data-name="Trazado 31498" d="M4422.138,1279.2a1.24,1.24,0,0,1-.533-2.36,3.658,3.658,0,0,0,1.728-1.728,1.24,1.24,0,1,1,2.24,1.064,6.143,6.143,0,0,1-2.9,2.9A1.233,1.233,0,0,1,4422.138,1279.2Z" transform="translate(-4369.147 -1222.649)" fill="#303e58"/>
          </g>
        </g>
      </g>
    </g>
  </g>
</svg>
