<svg xmlns="http://www.w3.org/2000/svg" xmlns:xlink="http://www.w3.org/1999/xlink" width="355.323" height="313.32" viewBox="0 0 355.323 313.32">
  <defs>
    <linearGradient id="linear-gradient" x1="-0.057" y1="-0.355" x2="0.708" y2="0.803" gradientUnits="objectBoundingBox">
      <stop offset="0" stop-color="#ffb58e"/>
      <stop offset="0.328" stop-color="#feb38a"/>
      <stop offset="0.591" stop-color="#fcac80"/>
      <stop offset="0.83" stop-color="#f8a270"/>
      <stop offset="1" stop-color="#f5985f"/>
    </linearGradient>
    <linearGradient id="linear-gradient-2" x1="0.647" y1="0.95" x2="0.272" y2="0.438" xlink:href="#linear-gradient"/>
    <linearGradient id="linear-gradient-3" x1="0.196" y1="0.181" x2="0.803" y2="0.951" gradientUnits="objectBoundingBox">
      <stop offset="0" stop-color="#02b2ca"/>
      <stop offset="0.37" stop-color="#04adc8"/>
      <stop offset="0.802" stop-color="#0c9ec5"/>
      <stop offset="1" stop-color="#1196c3"/>
    </linearGradient>
    <linearGradient id="linear-gradient-4" x1="0.393" y1="0.145" x2="0.608" y2="0.979" xlink:href="#linear-gradient"/>
    <linearGradient id="linear-gradient-5" x1="0.189" y1="-0.019" x2="0.769" y2="0.93" gradientUnits="objectBoundingBox">
      <stop offset="0" stop-color="#0743b3"/>
      <stop offset="0.24" stop-color="#0640ae"/>
      <stop offset="0.521" stop-color="#063a9f"/>
      <stop offset="0.821" stop-color="#043088"/>
      <stop offset="1" stop-color="#042977"/>
    </linearGradient>
    <linearGradient id="linear-gradient-6" x1="-0.003" y1="-2.031" x2="0.641" y2="1.299" xlink:href="#linear-gradient"/>
    <linearGradient id="linear-gradient-7" x1="0.465" y1="0.392" x2="0.736" y2="0.879" xlink:href="#linear-gradient-3"/>
    <linearGradient id="linear-gradient-8" x1="0.025" y1="-1.134" x2="1.192" y2="-1.134" xlink:href="#linear-gradient-3"/>
    <linearGradient id="linear-gradient-9" x1="0.343" y1="-0.167" x2="0.799" y2="0.869" xlink:href="#linear-gradient"/>
    <linearGradient id="linear-gradient-10" x1="-0.021" y1="0.156" x2="0.866" y2="0.58" xlink:href="#linear-gradient-3"/>
  </defs>
  <g id="Grupo_18916" data-name="Grupo 18916" transform="translate(567.826 -103.603)">
    <path id="Trazado_35174" data-name="Trazado 35174" d="M-475.491,415.668a30.175,30.175,0,0,1-21.326-8.752,30.176,30.176,0,0,1-9.043-21.42l-.2-29.266,19.035-.13.2,29.267a11.274,11.274,0,0,0,3.376,8,11.269,11.269,0,0,0,7.962,3.267h.08l14.754-.1a11.273,11.273,0,0,0,8-3.376,11.269,11.269,0,0,0,3.267-8.042l-.143-21.018,19.036-.13.142,21.019a30.175,30.175,0,0,1-8.751,21.54,30.177,30.177,0,0,1-21.419,9.042l-14.753.1Z" fill="#61a2fe"/>
    <path id="Trazado_35175" data-name="Trazado 35175" d="M-497.133,125.32s19.188-22.218,75.742-6.059,59.584,81.8,105.029,103.009,80.792,4.04,97.96,32.317-1.01,102-82.812,121.187c0,0-61.6,25.248-151.484-3.029s-95.377-154.3-79.782-196.93C-517.331,134.409-497.133,125.32-497.133,125.32Z" fill="#fededf"/>
    <g id="Grupo_18912" data-name="Grupo 18912">
      <g id="Grupo_18900" data-name="Grupo 18900">
        <path id="Trazado_35176" data-name="Trazado 35176" d="M-354.4,283.537s-22.218,57.228-41.743,61.94-24.911-57.9-24.911-57.9,8.753-10.1,9.426-16.159-11.445,2.693-11.445,2.693-.674-12.792-6.06-17.5-4.713,10.1-4.713,10.1-4.039-10.1-9.425-8.753,3.366,13.465,3.366,13.465-12.792-10.1-12.792-6.059,7.406,11.446,7.406,11.446-7.406-4.04-8.752,0,4.039,8.752,4.039,8.752-8.079,47.8,16.158,78.772,66.654,26.257,82.812,16.831S-324.778,305.082-354.4,283.537Z" fill="url(#linear-gradient)"/>
        <path id="Trazado_35177" data-name="Trazado 35177" d="M-435.53,259.973s3.7-3.366,7.406,0,3.03,5.723,7.069,6.059,8.753-1.346,10.1,3.03-8.415,6.733-4.376,9.762,7.07,1.347,7.07,5.723-4.713,3.366-5.723,7.406,5.386,14.812-3.7,16.495-9.426-7.406-13.129-7.069-6.4,5.722-13.128,3.7-1.01-8.416-3.7-11.783-9.426-3.029-9.089-9.089,4.039-6.4,3.366-10.772-.673-7.406,3.03-8.416,6.4,1.684,7.742-2.019S-438.9,258.963-435.53,259.973Z" fill="#fff"/>
        <path id="Trazado_35178" data-name="Trazado 35178" d="M-457.747,298.012a1.347,1.347,0,0,1-1.347,1.347,1.346,1.346,0,0,1-1.346-1.347,1.346,1.346,0,0,1,1.346-1.346A1.347,1.347,0,0,1-457.747,298.012Z" fill="#fff"/>
        <circle id="Elipse_1117" data-name="Elipse 1117" cx="1.347" cy="1.347" r="1.347" transform="translate(-445.965 311.478)" fill="#fff"/>
        <path id="Trazado_35179" data-name="Trazado 35179" d="M-459.431,272.765a1.345,1.345,0,0,1-1.346,1.346,1.346,1.346,0,0,1-1.347-1.346,1.347,1.347,0,0,1,1.347-1.347A1.346,1.346,0,0,1-459.431,272.765Z" fill="#fff"/>
        <circle id="Elipse_1118" data-name="Elipse 1118" cx="1.347" cy="1.347" r="1.347" transform="translate(-450.005 252.567)" fill="#fff"/>
      </g>
      <g id="Grupo_18909" data-name="Grupo 18909">
        <g id="Grupo_18903" data-name="Grupo 18903">
          <g id="Grupo_18902" data-name="Grupo 18902">
            <g id="Grupo_18901" data-name="Grupo 18901">
              <path id="Trazado_35180" data-name="Trazado 35180" d="M-341.093,206.849s8.477,20.063-6.924,46.188c-8.393,14.238,53.822,10.412,61.177-10.019-20.345-28.822-21.132-28.39-21.95-54.542S-341.91,189.687-341.093,206.849Z" fill="url(#linear-gradient-2)"/>
            </g>
          </g>
        </g>
        <path id="Trazado_35181" data-name="Trazado 35181" d="M-389.767,391.859c51.993,33.908,128.851,29.387,142.415,10.173,14.693-28.257,11.374-113.8-3.319-137.539-14.694-22.605-42.2-29.764-42.2-29.764-28.633,27.88-55.149,18.308-55.149,18.308s-14.551,8.065-24.724,34.062S-389.767,391.859-389.767,391.859Z" fill="url(#linear-gradient-3)"/>
        <path id="Trazado_35182" data-name="Trazado 35182" d="M-307.083,208.626A61.721,61.721,0,0,1-308.3,199.4l-30.048-3.118a21.8,21.8,0,0,0-2.741,10.568s4.083,9.686,1.419,24.354C-318.213,227.345-310.125,216.511-307.083,208.626Z" fill="#ff8c6e"/>
        <g id="Grupo_18906" data-name="Grupo 18906">
          <g id="Grupo_18905" data-name="Grupo 18905">
            <g id="Grupo_18904" data-name="Grupo 18904">
              <path id="Trazado_35183" data-name="Trazado 35183" d="M-371.091,169.426s-11.483,32.344-.385,45.416c17.32,20.4,44.261,9.237,55.038-3.079s10.392-63.506-7.7-71.588S-363.393,137.866-371.091,169.426Z" fill="url(#linear-gradient-4)"/>
            </g>
          </g>
          <path id="Trazado_35184" data-name="Trazado 35184" d="M-318.1,145.168c-6.974-4.042-15.6-6.548-23.731-8.1-11.17,1.19-21.521,8.917-27.35,25.844,13.246,4.509,27.6,7.211,36,2.122,3.956,6.782,2.261,10.173,11.3,15.824,6.21,3.882,9.488,11.229,11.115,16.732C-307.493,180.956-309.37,156.439-318.1,145.168Z" fill="#ff8c6e"/>
          <path id="Trazado_35185" data-name="Trazado 35185" d="M-307.423,138.062c0-1.43-23.347-28.111-54.793-33.829s-24.776,29.064-8.1,39.546c0,0-11.435-3.812-11.435,1.906s13.341,6.67,13.341,6.67-8.576,3.335-5.241,7.623,30.017,6.671,44.787-2.382a17.093,17.093,0,0,0,6.194,14.294c7.147,5.717,12.388,12.864,12.388,19.535s.92,5.987,2.127,5.852,1.571-7.667,8.242-9.1c0,0,14.406-18.2,16.312-28.2s-14.77-7.146-14.77-7.146,7.147-5.718,6.194-10.482S-299.8,149.5-299.8,149.5s2.382-7.146-2.382-15.723S-307.423,138.062-307.423,138.062Z" fill="url(#linear-gradient-5)"/>
        </g>
        <g id="Grupo_18907" data-name="Grupo 18907">
          <path id="Trazado_35186" data-name="Trazado 35186" d="M-310.482,196.1s8.847-12.629,14.036-5.653c5.262,7.073-15.993,19.588-16.56,13.715A10.93,10.93,0,0,1-310.482,196.1Z" fill="url(#linear-gradient-6)"/>
          <path id="Trazado_35187" data-name="Trazado 35187" d="M-308.366,200.684s4.407-8.109,10.048-8.109c1.586-1.41-3-.881-5.465,1.058S-310.129,199.1-308.366,200.684Z" fill="#ff7d5a"/>
          <path id="Trazado_35188" data-name="Trazado 35188" d="M-308.543,199.274s5.289-5.171,7.992-3.408C-299.259,197.981-309.718,203.152-308.543,199.274Z" fill="#ff7d5a"/>
        </g>
        <path id="Trazado_35189" data-name="Trazado 35189" d="M-252.065,296.329s26.93,63.96-23.565,90.891c-51.841,26.93-88.2-10.1-88.2-10.1Z" opacity="0.42" fill="url(#linear-gradient-7)" style="mix-blend-mode: multiply;isolation: isolate"/>
        <path id="Trazado_35190" data-name="Trazado 35190" d="M-302.785,278.182s-8.7,60.7-64.172,64.7C-343.874,348.655-297.134,349.111-302.785,278.182Z" opacity="0.42" fill="url(#linear-gradient-8)" style="mix-blend-mode: multiply;isolation: isolate"/>
        <path id="Trazado_35191" data-name="Trazado 35191" d="M-249.541,302.922s-1.13,70.077-53.123,89.292S-436.036,335.7-440.557,299.532c0,0-16.954-11.68-14.693-16.2s12.809,5.275,12.809,5.275-12.809-13.564-9.795-17.331,17.33,12.81,17.33,12.81-12.809-15.071-6.781-17.331,15.07,15.823,15.07,15.823-7.535-16.577-3.014-15.07,10.549,16.578,10.549,16.578,1.507-6.782,6.028-5.275,0,15.824,0,15.824,34.662,32.4,67.817,41.443,42.2-39.183,42.95-49.732,8.289-27.126,24.113-29.387S-244.266,277.3-249.541,302.922Z" fill="url(#linear-gradient-9)"/>
        <path id="Trazado_35192" data-name="Trazado 35192" d="M-325.451,329.992s41.742,20.872,55.881,41.069c0,0,26.93-32.989,23.564-79.445-6.059-37.7-28.95-38.376-39.049-37.029S-303.233,271.418-306.6,286.9-322.085,327.973-325.451,329.992Z" fill="url(#linear-gradient-10)"/>
        <g id="Grupo_18908" data-name="Grupo 18908">
          <path id="Trazado_35193" data-name="Trazado 35193" d="M-317.676,317.052c-.146.306-.292.612-.437.911,14.965,5.883,39.439,17.736,58.223,37.717.162-.31.326-.633.49-.952C-278.25,334.8-302.673,322.959-317.676,317.052Z" fill="#a9cffc"/>
          <path id="Trazado_35194" data-name="Trazado 35194" d="M-313.354,307.289q-.192.468-.385.932c14.451,5.519,39.343,17.127,58.691,37.1.14-.336.278-.679.417-1.021C-274.052,324.4-298.881,312.821-313.354,307.289Z" fill="#a9cffc"/>
        </g>
        <path id="Trazado_35195" data-name="Trazado 35195" d="M-284.8,237.584a66.264,66.264,0,0,1-8.836-4.542c-28.634,27.88-54.378,19.995-54.378,19.995s-4.123,2.286-9.513,8.343c6.066,3.34,24,10.391,48.911-4.773C-296.433,249.189-289.16,242.715-284.8,237.584Z" fill="#4be0e4"/>
      </g>
      <g id="Grupo_18910" data-name="Grupo 18910">
        <circle id="Elipse_1119" data-name="Elipse 1119" cx="2.02" cy="2.02" r="2.02" transform="translate(-420.045 286.567)" fill="#fff"/>
        <path id="Trazado_35196" data-name="Trazado 35196" d="M-401.866,276.468a2.021,2.021,0,0,1-2.02,2.02,2.02,2.02,0,0,1-2.02-2.02,2.019,2.019,0,0,1,2.02-2.02A2.02,2.02,0,0,1-401.866,276.468Z" fill="#fff"/>
        <path id="Trazado_35197" data-name="Trazado 35197" d="M-431.49,283.874a1.347,1.347,0,0,1-1.347,1.346,1.346,1.346,0,0,1-1.346-1.346,1.347,1.347,0,0,1,1.346-1.347A1.347,1.347,0,0,1-431.49,283.874Z" fill="#fff"/>
      </g>
      <g id="Grupo_18911" data-name="Grupo 18911">
        <path id="Trazado_35198" data-name="Trazado 35198" d="M-358.336,200.012" fill="#fe746a"/>
        <path id="Trazado_35199" data-name="Trazado 35199" d="M-358.336,193.2" fill="#fe746a"/>
      </g>
    </g>
    <g id="Grupo_18913" data-name="Grupo 18913">
      <path id="Trazado_35200" data-name="Trazado 35200" d="M-489.222,284.21h-11.109V270.072A21.4,21.4,0,0,0-521.708,248.7h-31.643V237.587h31.643a32.522,32.522,0,0,1,32.486,32.485Z" fill="#61a2fe"/>
      <rect id="Rectángulo_3120" data-name="Rectángulo 3120" width="15.148" height="4.713" transform="translate(-502.856 281.181)" fill="#1e71ff"/>
      <rect id="Rectángulo_3121" data-name="Rectángulo 3121" width="15.149" height="4.713" transform="translate(-523.727 250.379) rotate(-90)" fill="#a9cffc"/>
    </g>
    <g id="Grupo_18915" data-name="Grupo 18915">
      <path id="Trazado_35201" data-name="Trazado 35201" d="M-431.49,330.329c0,3.346-30.52,29.287-68.168,29.287s-68.168-25.941-68.168-29.287,30.52-6.059,68.168-6.059S-431.49,326.982-431.49,330.329Z" fill="#478dfd"/>
      <g id="Grupo_18914" data-name="Grupo 18914">
        <path id="Trazado_35202" data-name="Trazado 35202" d="M-431.49,330.329c0,3.346-30.52,6.059-68.168,6.059s-68.168-2.713-68.168-6.059,30.52-6.059,68.168-6.059S-431.49,326.982-431.49,330.329Z" fill="#61a2fe"/>
      </g>
    </g>
    <path id="Trazado_35203" data-name="Trazado 35203" d="M-498.92,285.767l-5.956,50.958h20.535L-491,285.767Z" fill="#a9cffc"/>
    <path id="Trazado_35204" data-name="Trazado 35204" d="M-507.906,308.448a1.683,1.683,0,0,1-1.683,1.683,1.684,1.684,0,0,1-1.683-1.683,1.683,1.683,0,0,1,1.683-1.683A1.682,1.682,0,0,1-507.906,308.448Z" fill="#a9cffc"/>
    <path id="Trazado_35205" data-name="Trazado 35205" d="M-480.3,326.458a2.525,2.525,0,0,1-2.524-2.525,2.525,2.525,0,0,1,2.524-2.525,2.525,2.525,0,0,1,2.525,2.525A2.525,2.525,0,0,1-480.3,326.458Z" fill="#a9cffc"/>
    <path id="Trazado_35206" data-name="Trazado 35206" d="M-510.935,332.18a2.524,2.524,0,0,1-2.525-2.524,2.524,2.524,0,0,1,2.525-2.525,2.524,2.524,0,0,1,2.524,2.525A2.524,2.524,0,0,1-510.935,332.18Z" fill="#a9cffc"/>
    <circle id="Elipse_1120" data-name="Elipse 1120" cx="1.01" cy="1.01" r="1.01" transform="translate(-508.411 333.19)" fill="#a9cffc"/>
    <circle id="Elipse_1121" data-name="Elipse 1121" cx="1.01" cy="1.01" r="1.01" transform="translate(-484.678 313.666)" fill="#a9cffc"/>
    <circle id="Elipse_1122" data-name="Elipse 1122" cx="5.711" cy="5.711" r="5.711" transform="translate(-548.086 299.5)" fill="#fdc2c4"/>
    <path id="Trazado_35207" data-name="Trazado 35207" d="M-396.752,113.9a3.806,3.806,0,0,1-3.807,3.807,3.807,3.807,0,0,1-3.807-3.807,3.808,3.808,0,0,1,3.807-3.807A3.807,3.807,0,0,1-396.752,113.9Z" fill="#fdc2c4"/>
    <rect id="Rectángulo_3122" data-name="Rectángulo 3122" width="24.747" height="6.345" transform="translate(-508.428 369.297)" fill="#478dfd"/>
  </g>
</svg>
