<svg xmlns="http://www.w3.org/2000/svg" width="436.029" height="436.029" viewBox="0 0 436.029 436.029">
  <g id="Grupo_19037" data-name="Grupo 19037" transform="translate(-3075.573 -293.035)">
    <g id="Grupo_18939" data-name="Grupo 18939" transform="translate(3381.316 352.712)">
      <path id="Trazado_35247" data-name="Trazado 35247" d="M4626.656,577.644a5.519,5.519,0,1,1-5.519-5.519A5.519,5.519,0,0,1,4626.656,577.644Z" transform="translate(-4612.99 -568.94)" fill="#4a408e"/>
      <g id="Grupo_18931" data-name="Grupo 18931" transform="translate(6.367)">
        <path id="Trazado_35248" data-name="Trazado 35248" d="M4637.74,556.323c0,.3-.653.554-1.462.554s-1.461-.249-1.461-.554.655-.554,1.461-.554S4637.74,556.017,4637.74,556.323Z" transform="translate(-4634.817 -555.769)" fill="#4a408e"/>
        <rect id="Rectángulo_3123" data-name="Rectángulo 3123" width="0.79" height="3.083" transform="translate(1.067 0.633)" fill="#4a408e"/>
      </g>
      <g id="Grupo_18932" data-name="Grupo 18932" transform="translate(4.896 13.727)">
        <path id="Trazado_35249" data-name="Trazado 35249" d="M4627.271,639.6c.07-.3.763-.391,1.549-.208s1.369.571,1.3.869-.763.391-1.549.209S4627.2,639.9,4627.271,639.6Z" transform="translate(-4627.265 -636.763)" fill="#4a408e"/>
        <rect id="Rectángulo_3124" data-name="Rectángulo 3124" width="3.082" height="0.79" transform="translate(1.062 3.003) rotate(-76.939)" fill="#4a408e"/>
      </g>
      <g id="Grupo_18933" data-name="Grupo 18933" transform="translate(12.451 7.626)">
        <path id="Trazado_35250" data-name="Trazado 35250" d="M4680.12,597.858c-.306.011-.576-.634-.606-1.441s.195-1.47.5-1.481.576.634.6,1.44S4680.426,597.847,4680.12,597.858Z" transform="translate(-4676.894 -594.936)" fill="#4a408e"/>
        <rect id="Rectángulo_3125" data-name="Rectángulo 3125" width="3.082" height="0.791" transform="translate(0 1.181) rotate(-2.094)" fill="#4a408e"/>
      </g>
      <g id="Grupo_18934" data-name="Grupo 18934" transform="translate(10.119 11.631)">
        <path id="Trazado_35251" data-name="Trazado 35251" d="M4654.1,629.218c-.091-.293.46-.723,1.232-.964s1.47-.2,1.56.1-.461.723-1.23.962S4654.188,629.508,4654.1,629.218Z" transform="translate(-4654.088 -625.647)" fill="#4a408e"/>
        <rect id="Rectángulo_3126" data-name="Rectángulo 3126" width="0.79" height="3.082" transform="matrix(0.955, -0.296, 0.296, 0.955, 0.09, 0.234)" fill="#4a408e"/>
      </g>
      <g id="Grupo_18935" data-name="Grupo 18935" transform="translate(1.687 10.9)">
        <path id="Trazado_35252" data-name="Trazado 35252" d="M4610.875,617.864c.233-.2.847.141,1.369.755s.759,1.275.525,1.473-.845-.141-1.369-.755S4610.641,618.062,4610.875,617.864Z" transform="translate(-4610.785 -616.628)" fill="#4a408e"/>
        <rect id="Rectángulo_3127" data-name="Rectángulo 3127" width="3.082" height="0.79" transform="matrix(0.761, -0.648, 0.648, 0.761, 0.842, 1.999)" fill="#4a408e"/>
      </g>
      <g id="Grupo_18936" data-name="Grupo 18936" transform="translate(10.502 2.345)">
        <path id="Trazado_35253" data-name="Trazado 35253" d="M4664.824,569.862c-.206.226-.857-.031-1.454-.573s-.917-1.167-.712-1.393.858.03,1.455.573S4665.029,569.636,4664.824,569.862Z" transform="translate(-4661.323 -567.815)" fill="#4a408e"/>
        <rect id="Rectángulo_3128" data-name="Rectángulo 3128" width="3.083" height="0.792" transform="matrix(0.672, -0.74, 0.74, 0.672, 0, 3.14)" fill="#4a408e"/>
      </g>
      <g id="Grupo_18937" data-name="Grupo 18937" transform="translate(1.218 2.196)">
        <path id="Trazado_35254" data-name="Trazado 35254" d="M4610.438,567.11c.225.208-.039.857-.585,1.45s-1.174.906-1.4.7.038-.857.586-1.449S4610.213,566.9,4610.438,567.11Z" transform="translate(-4608.374 -567.045)" fill="#4a408e"/>
        <rect id="Rectángulo_3129" data-name="Rectángulo 3129" width="0.791" height="3.082" transform="matrix(0.679, -0.734, 0.734, 0.679, 0.862, 1.482)" fill="#4a408e"/>
      </g>
      <g id="Grupo_18938" data-name="Grupo 18938" transform="translate(0 7.654)">
        <path id="Trazado_35255" data-name="Trazado 35255" d="M4602.564,595.079c.3-.024.6.609.67,1.414s-.13,1.477-.435,1.5-.6-.608-.669-1.412S4602.26,595.1,4602.564,595.079Z" transform="translate(-4602.117 -595.078)" fill="#4a408e"/>
        <rect id="Rectángulo_3130" data-name="Rectángulo 3130" width="3.083" height="0.79" transform="translate(0.612 1.059) rotate(-4.641)" fill="#4a408e"/>
      </g>
      <path id="Trazado_35256" data-name="Trazado 35256" d="M4621.906,585.009c.153.259.611.429.918.634.455.306.206.472.864.2.958-.4,1.023-1.034,1.224-1.892.094-.4.343-.717-.157-.994C4623.858,582.46,4621.217,583.854,4621.906,585.009Z" transform="translate(-4617.962 -577.58)" fill="#293282"/>
      <path id="Trazado_35257" data-name="Trazado 35257" d="M4651.994,603.046c.466.7,1.494.11,2.04-.138a1.471,1.471,0,0,0,.758-1.772C4654.39,599.511,4651.369,602.112,4651.994,603.046Z" transform="translate(-4642.214 -591.882)" fill="#293282"/>
      <path id="Trazado_35258" data-name="Trazado 35258" d="M4648.8,580.373c.624.249,1.365-.164,1.008-.991-.119-.275-.433-.579-.569-.845-.177-.345-.151-.59-.528-.818a1.034,1.034,0,0,0-1.524,1.06A2.832,2.832,0,0,0,4648.8,580.373Z" transform="translate(-4638.399 -573.333)" fill="#293282"/>
      <path id="Trazado_35259" data-name="Trazado 35259" d="M4641.952,595.414c.7-.334.422-1.853-.464-1.471C4640.7,594.282,4641.083,595.826,4641.952,595.414Z" transform="translate(-4633.479 -586.461)" fill="#293282"/>
      <path id="Trazado_35260" data-name="Trazado 35260" d="M4630.17,608.946c.488.531,1.323,1.042,2,.6,1.146-.747.018-2.1-.872-2.444C4629.972,606.6,4629.23,607.924,4630.17,608.946Z" transform="translate(-4624.369 -597.019)" fill="#293282"/>
    </g>
    <g id="Grupo_18948" data-name="Grupo 18948" transform="translate(3426.713 372.213)">
      <path id="Trazado_35261" data-name="Trazado 35261" d="M4918.012,729.687a18.609,18.609,0,1,1-18.608-18.609A18.61,18.61,0,0,1,4918.012,729.687Z" transform="translate(-4871.933 -700.34)" fill="#4a408e"/>
      <g id="Grupo_18940" data-name="Grupo 18940" transform="translate(21.468 0)">
        <ellipse id="Elipse_1123" data-name="Elipse 1123" cx="4.93" cy="1.866" rx="4.93" ry="1.866" fill="#4a408e"/>
        <rect id="Rectángulo_3131" data-name="Rectángulo 3131" width="2.665" height="10.392" transform="translate(3.597 2.133)" fill="#4a408e"/>
      </g>
      <g id="Grupo_18941" data-name="Grupo 18941" transform="translate(16.511 46.281)">
        <path id="Trazado_35262" data-name="Trazado 35262" d="M4920.1,938.6c.231-1,2.571-1.32,5.223-.706s4.616,1.927,4.383,2.928-2.571,1.32-5.225.708S4919.871,939.6,4920.1,938.6Z" transform="translate(-4920.085 -929.021)" fill="#4a408e"/>
        <path id="Trazado_35263" data-name="Trazado 35263" d="M4940.833,893.632l2.6.6-2.344,10.124-2.595-.6Z" transform="translate(-4934.906 -893.632)" fill="#4a408e"/>
      </g>
      <g id="Grupo_18942" data-name="Grupo 18942" transform="translate(41.982 25.711)">
        <path id="Trazado_35264" data-name="Trazado 35264" d="M5098.295,797.836c-1.032.037-1.944-2.137-2.045-4.858s.656-4.957,1.686-5,1.945,2.139,2.042,4.858S5099.325,797.8,5098.295,797.836Z" transform="translate(-5087.414 -787.981)" fill="#4a408e"/>
        <path id="Trazado_35265" data-name="Trazado 35265" d="M5051,809.538l-.1-2.663,10.386-.38.1,2.664Z" transform="translate(-5050.903 -802.891)" fill="#4a408e"/>
      </g>
      <g id="Grupo_18943" data-name="Grupo 18943" transform="translate(34.118 39.214)">
        <path id="Trazado_35266" data-name="Trazado 35266" d="M5010.548,903.576c-.306-.985,1.552-2.437,4.153-3.247s4.956-.668,5.26.315-1.552,2.437-4.151,3.247S5010.854,904.559,5010.548,903.576Z" transform="translate(-5010.515 -891.534)" fill="#4a408e"/>
        <path id="Trazado_35267" data-name="Trazado 35267" d="M5012.052,858.129l2.546-.793,3.088,9.925-2.543.791Z" transform="translate(-5011.752 -857.335)" fill="#4a408e"/>
      </g>
      <g id="Grupo_18944" data-name="Grupo 18944" transform="translate(5.69 36.753)">
        <path id="Trazado_35268" data-name="Trazado 35268" d="M4864.808,865.3c.785-.666,2.854.475,4.617,2.547s2.556,4.3,1.771,4.965-2.851-.473-4.614-2.547S4864.023,865.967,4864.808,865.3Z" transform="translate(-4864.505 -861.134)" fill="#4a408e"/>
        <rect id="Rectángulo_3132" data-name="Rectángulo 3132" width="10.394" height="2.665" transform="translate(2.837 6.734) rotate(-40.381)" fill="#4a408e"/>
      </g>
      <g id="Grupo_18945" data-name="Grupo 18945" transform="translate(35.412 7.908)">
        <path id="Trazado_35269" data-name="Trazado 35269" d="M5046.715,703.448c-.693.763-2.888-.1-4.9-1.931s-3.091-3.934-2.4-4.7,2.889.1,4.9,1.932S5047.407,702.686,5046.715,703.448Z" transform="translate(-5034.912 -696.545)" fill="#4a408e"/>
        <path id="Trazado_35270" data-name="Trazado 35270" d="M5019.132,720.883l-1.975-1.793,6.989-7.7,1.972,1.791Z" transform="translate(-5017.157 -708.503)" fill="#4a408e"/>
      </g>
      <g id="Grupo_18946" data-name="Grupo 18946" transform="translate(4.107 7.404)">
        <path id="Trazado_35271" data-name="Trazado 35271" d="M4863.336,694.172c.756.7-.129,2.888-1.975,4.887s-3.958,3.056-4.714,2.358.127-2.889,1.973-4.89S4862.578,693.472,4863.336,694.172Z" transform="translate(-4856.375 -693.956)" fill="#4a408e"/>
        <path id="Trazado_35272" data-name="Trazado 35272" d="M4880.747,716.618l-1.808,1.957-7.637-7.05,1.81-1.958Z" transform="translate(-4868.396 -706.527)" fill="#4a408e"/>
      </g>
      <g id="Grupo_18947" data-name="Grupo 18947" transform="translate(0 25.807)">
        <path id="Trazado_35273" data-name="Trazado 35273" d="M4836.789,788.478c1.025-.083,2.036,2.05,2.256,4.764s-.438,4.982-1.464,5.064-2.037-2.05-2.258-4.763S4835.76,788.562,4836.789,788.478Z" transform="translate(-4835.281 -788.476)" fill="#4a408e"/>
        <rect id="Rectángulo_3133" data-name="Rectángulo 3133" width="10.394" height="2.666" transform="matrix(0.997, -0.081, 0.081, 0.997, 2.061, 3.569)" fill="#4a408e"/>
      </g>
      <path id="Trazado_35274" data-name="Trazado 35274" d="M4902,754.516c.521.872,2.065,1.444,3.1,2.141,1.532,1.028.692,1.59,2.913.667,3.229-1.345,3.452-3.487,4.126-6.38.313-1.35,1.153-2.418-.533-3.353C4908.58,745.919,4899.672,750.62,4902,754.516Z" transform="translate(-4888.699 -729.465)" fill="#293282"/>
      <path id="Trazado_35275" data-name="Trazado 35275" d="M5003.45,815.336c1.573,2.348,5.038.371,6.879-.467a4.964,4.964,0,0,0,2.557-5.976C5011.528,803.411,5001.342,812.185,5003.45,815.336Z" transform="translate(-4970.477 -777.692)" fill="#293282"/>
      <path id="Trazado_35276" data-name="Trazado 35276" d="M4992.687,738.887c2.1.843,4.6-.549,3.4-3.338-.4-.927-1.458-1.953-1.92-2.851-.6-1.164-.51-1.986-1.781-2.757a3.484,3.484,0,0,0-5.136,3.573C4987.67,735.756,4990.7,738.091,4992.687,738.887Z" transform="translate(-4957.615 -715.15)" fill="#293282"/>
      <path id="Trazado_35277" data-name="Trazado 35277" d="M4969.594,789.609c2.365-1.124,1.425-6.247-1.565-4.957C4965.383,785.8,4966.663,791,4969.594,789.609Z" transform="translate(-4941.023 -759.423)" fill="#293282"/>
      <path id="Trazado_35278" data-name="Trazado 35278" d="M4929.863,835.228c1.648,1.793,4.463,3.515,6.742,2.029,3.863-2.519.058-7.09-2.939-8.24C4929.2,827.309,4926.7,831.78,4929.863,835.228Z" transform="translate(-4910.303 -795.014)" fill="#293282"/>
    </g>
    <g id="Grupo_18957" data-name="Grupo 18957" transform="translate(3426.586 590.494)">
      <path id="Trazado_35279" data-name="Trazado 35279" d="M4894.441,1830.363a13.453,13.453,0,1,1-13.453-13.452A13.454,13.454,0,0,1,4894.441,1830.363Z" transform="translate(-4861.128 -1809.146)" fill="#4a408e"/>
      <g id="Grupo_18949" data-name="Grupo 18949" transform="translate(15.52)">
        <path id="Trazado_35280" data-name="Trazado 35280" d="M4921.464,1778.382c0,.745-1.593,1.348-3.563,1.348s-3.563-.6-3.563-1.348,1.6-1.351,3.563-1.351S4921.464,1777.637,4921.464,1778.382Z" transform="translate(-4914.337 -1777.031)" fill="#4a408e"/>
        <rect id="Rectángulo_3134" data-name="Rectángulo 3134" width="1.926" height="7.513" transform="translate(2.601 1.542)" fill="#4a408e"/>
      </g>
      <g id="Grupo_18950" data-name="Grupo 18950" transform="translate(11.937 33.458)">
        <path id="Trazado_35281" data-name="Trazado 35281" d="M4895.949,1981.378c.168-.726,1.86-.955,3.775-.511s3.337,1.394,3.168,2.118-1.859.954-3.776.51S4895.78,1982.1,4895.949,1981.378Z" transform="translate(-4895.935 -1974.456)" fill="#4a408e"/>
        <path id="Trazado_35282" data-name="Trazado 35282" d="M4910.939,1948.875l1.877.434-1.695,7.32-1.875-.434Z" transform="translate(-4906.655 -1948.875)" fill="#4a408e"/>
      </g>
      <g id="Grupo_18951" data-name="Grupo 18951" transform="translate(30.35 18.588)">
        <path id="Trazado_35283" data-name="Trazado 35283" d="M5024.764,1879.622c-.745.028-1.4-1.548-1.477-3.514s.473-3.584,1.22-3.61,1.4,1.547,1.476,3.512S5025.51,1879.6,5024.764,1879.622Z" transform="translate(-5016.9 -1872.498)" fill="#4a408e"/>
        <path id="Trazado_35284" data-name="Trazado 35284" d="M4990.578,1888.081l-.069-1.926,7.508-.273.069,1.924Z" transform="translate(-4990.509 -1883.276)" fill="#4a408e"/>
      </g>
      <g id="Grupo_18952" data-name="Grupo 18952" transform="translate(24.664 28.35)">
        <path id="Trazado_35285" data-name="Trazado 35285" d="M4961.329,1956.064c-.22-.709,1.123-1.761,3-2.347s3.582-.481,3.8.229-1.125,1.762-3,2.346S4961.551,1956.774,4961.329,1956.064Z" transform="translate(-4961.306 -1947.361)" fill="#4a408e"/>
        <path id="Trazado_35286" data-name="Trazado 35286" d="M4962.419,1923.208l1.84-.571,2.232,7.176-1.838.571Z" transform="translate(-4962.202 -1922.636)" fill="#4a408e"/>
      </g>
      <g id="Grupo_18953" data-name="Grupo 18953" transform="translate(4.114 26.57)">
        <path id="Trazado_35287" data-name="Trazado 35287" d="M4855.977,1928.4c.566-.486,2.063.339,3.337,1.84s1.85,3.105,1.281,3.589-2.061-.343-3.336-1.841S4855.408,1928.876,4855.977,1928.4Z" transform="translate(-4855.757 -1925.382)" fill="#4a408e"/>
        <rect id="Rectángulo_3135" data-name="Rectángulo 3135" width="7.513" height="1.928" transform="matrix(0.762, -0.648, 0.648, 0.762, 2.05, 4.865)" fill="#4a408e"/>
      </g>
      <g id="Grupo_18954" data-name="Grupo 18954" transform="translate(25.598 5.716)">
        <path id="Trazado_35288" data-name="Trazado 35288" d="M4987.478,1811.382c-.5.553-2.087-.074-3.545-1.4s-2.233-2.842-1.734-3.394,2.091.076,3.546,1.4S4987.978,1810.83,4987.478,1811.382Z" transform="translate(-4978.943 -1806.39)" fill="#4a408e"/>
        <path id="Trazado_35289" data-name="Trazado 35289" d="M4967.531,1823.985l-1.429-1.3,5.052-5.563,1.427,1.3Z" transform="translate(-4966.103 -1815.035)" fill="#4a408e"/>
      </g>
      <g id="Grupo_18955" data-name="Grupo 18955" transform="translate(2.97 5.352)">
        <path id="Trazado_35290" data-name="Trazado 35290" d="M4854.914,1804.677c.545.509-.095,2.091-1.429,3.533s-2.862,2.21-3.408,1.706.091-2.091,1.426-3.535S4854.364,1804.173,4854.914,1804.677Z" transform="translate(-4849.881 -1804.521)" fill="#4a408e"/>
        <path id="Trazado_35291" data-name="Trazado 35291" d="M4867.5,1820.912l-1.31,1.415-5.519-5.1,1.308-1.415Z" transform="translate(-4858.572 -1813.617)" fill="#4a408e"/>
      </g>
      <g id="Grupo_18956" data-name="Grupo 18956" transform="translate(0 18.658)">
        <path id="Trazado_35292" data-name="Trazado 35292" d="M4835.716,1872.864c.743-.061,1.474,1.479,1.633,3.445s-.317,3.6-1.059,3.657-1.473-1.48-1.633-3.443S4834.975,1872.923,4835.716,1872.864Z" transform="translate(-4834.627 -1872.862)" fill="#4a408e"/>
        <path id="Trazado_35293" data-name="Trazado 35293" d="M4849.779,1883l.154,1.922-7.489.6-.154-1.919Z" transform="translate(-4840.798 -1881.026)" fill="#4a408e"/>
      </g>
      <path id="Trazado_35294" data-name="Trazado 35294" d="M4882.865,1848.3c.374.631,1.491,1.045,2.237,1.549,1.108.744.5,1.148,2.107.48,2.335-.971,2.495-2.521,2.982-4.61.227-.976.835-1.748-.383-2.425C4887.623,1842.09,4881.184,1845.487,4882.865,1848.3Z" transform="translate(-4873.25 -1830.193)" fill="#293282"/>
      <path id="Trazado_35295" data-name="Trazado 35295" d="M4956.2,1892.279c1.139,1.7,3.642.267,4.975-.338a3.589,3.589,0,0,0,1.847-4.32C4962.039,1883.658,4954.673,1890,4956.2,1892.279Z" transform="translate(-4932.361 -1865.063)" fill="#293282"/>
      <path id="Trazado_35296" data-name="Trazado 35296" d="M4948.423,1837.008c1.521.611,3.326-.4,2.456-2.413-.288-.671-1.054-1.411-1.387-2.063-.432-.837-.37-1.433-1.288-1.993a2.521,2.521,0,0,0-3.713,2.585C4944.8,1834.744,4946.984,1836.432,4948.423,1837.008Z" transform="translate(-4923.068 -1819.847)" fill="#293282"/>
      <path id="Trazado_35297" data-name="Trazado 35297" d="M4931.726,1873.67c1.709-.814,1.03-4.519-1.13-3.584C4928.68,1870.914,4929.608,1874.678,4931.726,1873.67Z" transform="translate(-4911.071 -1851.847)" fill="#293282"/>
      <path id="Trazado_35298" data-name="Trazado 35298" d="M4903.007,1906.655c1.192,1.294,3.226,2.539,4.872,1.466,2.792-1.822.043-5.126-2.125-5.956C4902.527,1900.926,4900.716,1904.163,4903.007,1906.655Z" transform="translate(-4888.866 -1877.582)" fill="#293282"/>
    </g>
    <g id="Grupo_18966" data-name="Grupo 18966" transform="translate(3101.764 428.3)">
      <circle id="Elipse_1124" data-name="Elipse 1124" cx="9.127" cy="9.127" r="9.127" transform="translate(4.346 5.267)" fill="#4a408e"/>
      <g id="Grupo_18958" data-name="Grupo 18958" transform="translate(10.529 0)">
        <path id="Trazado_35299" data-name="Trazado 35299" d="M3225.231,944.907c0,.506-1.081.916-2.417.916s-2.418-.41-2.418-.916,1.083-.915,2.418-.915S3225.231,944.4,3225.231,944.907Z" transform="translate(-3220.396 -943.992)" fill="#4a408e"/>
        <rect id="Rectángulo_3136" data-name="Rectángulo 3136" width="1.307" height="5.096" transform="translate(1.764 1.046)" fill="#4a408e"/>
      </g>
      <g id="Grupo_18959" data-name="Grupo 18959" transform="translate(8.099 22.701)">
        <path id="Trazado_35300" data-name="Trazado 35300" d="M3207.924,1082.631c.114-.491,1.26-.646,2.561-.345s2.263.945,2.149,1.437-1.262.647-2.563.347S3207.81,1083.125,3207.924,1082.631Z" transform="translate(-3207.915 -1077.936)" fill="#4a408e"/>
        <rect id="Rectángulo_3137" data-name="Rectángulo 3137" width="5.097" height="1.307" transform="translate(1.754 4.965) rotate(-76.917)" fill="#4a408e"/>
      </g>
      <g id="Grupo_18960" data-name="Grupo 18960" transform="translate(20.592 12.61)">
        <path id="Trazado_35301" data-name="Trazado 35301" d="M3295.32,1013.592c-.507.019-.955-1.047-1-2.382s.322-2.431.827-2.45.954,1.049,1,2.383S3295.825,1013.575,3295.32,1013.592Z" transform="translate(-3289.983 -1008.76)" fill="#4a408e"/>
        <rect id="Rectángulo_3138" data-name="Rectángulo 3138" width="5.097" height="1.307" transform="translate(0 1.953) rotate(-2.067)" fill="#4a408e"/>
      </g>
      <g id="Grupo_18961" data-name="Grupo 18961" transform="translate(16.733 19.233)">
        <path id="Trazado_35302" data-name="Trazado 35302" d="M3252.278,1065.456c-.15-.484.763-1.195,2.038-1.593s2.431-.326,2.581.156-.761,1.195-2.036,1.591S3252.428,1065.938,3252.278,1065.456Z" transform="translate(-3252.262 -1059.55)" fill="#4a408e"/>
        <rect id="Rectángulo_3139" data-name="Rectángulo 3139" width="1.307" height="5.098" transform="matrix(0.955, -0.297, 0.297, 0.955, 0.148, 0.388)" fill="#4a408e"/>
      </g>
      <g id="Grupo_18962" data-name="Grupo 18962" transform="translate(2.792 18.026)">
        <path id="Trazado_35303" data-name="Trazado 35303" d="M3180.8,1046.681c.385-.326,1.4.233,2.263,1.25s1.254,2.107.869,2.434-1.4-.231-2.264-1.248S3180.419,1047.009,3180.8,1046.681Z" transform="translate(-3180.656 -1044.639)" fill="#4a408e"/>
        <rect id="Rectángulo_3140" data-name="Rectángulo 3140" width="5.098" height="1.307" transform="matrix(0.762, -0.647, 0.647, 0.762, 1.39, 3.301)" fill="#4a408e"/>
      </g>
      <g id="Grupo_18963" data-name="Grupo 18963" transform="translate(17.369 3.878)">
        <path id="Trazado_35304" data-name="Trazado 35304" d="M3270.021,967.3c-.34.375-1.418-.049-2.406-.946s-1.516-1.929-1.177-2.3,1.418.05,2.406.948S3270.359,966.924,3270.021,967.3Z" transform="translate(-3264.23 -963.912)" fill="#4a408e"/>
        <path id="Trazado_35305" data-name="Trazado 35305" d="M3256.493,975.849l-.969-.879,3.428-3.775.967.878Z" transform="translate(-3255.524 -969.777)" fill="#4a408e"/>
      </g>
      <g id="Grupo_18964" data-name="Grupo 18964" transform="translate(2.014 3.631)">
        <path id="Trazado_35306" data-name="Trazado 35306" d="M3180.077,962.749c.37.344-.065,1.416-.97,2.4s-1.941,1.5-2.313,1.156.063-1.417.967-2.4S3179.706,962.406,3180.077,962.749Z" transform="translate(-3176.662 -962.643)" fill="#4a408e"/>
        <rect id="Rectángulo_3141" data-name="Rectángulo 3141" width="1.307" height="5.098" transform="matrix(0.678, -0.735, 0.735, 0.678, 1.426, 2.452)" fill="#4a408e"/>
      </g>
      <g id="Grupo_18965" data-name="Grupo 18965" transform="translate(0 12.657)">
        <path id="Trazado_35307" data-name="Trazado 35307" d="M3167.057,1009c.5-.04,1,1.005,1.107,2.336s-.215,2.444-.717,2.484-1-1-1.108-2.336S3166.553,1009.043,3167.057,1009Z" transform="translate(-3166.318 -1009.001)" fill="#4a408e"/>
        <path id="Trazado_35308" data-name="Trazado 35308" d="M3176.592,1015.882l.1,1.3-5.081.41-.106-1.3Z" transform="translate(-3170.498 -1014.543)" fill="#4a408e"/>
      </g>
      <path id="Trazado_35309" data-name="Trazado 35309" d="M3199.04,992.344c.256.428,1.013.709,1.52,1.05.75.5.339.78,1.428.327,1.584-.659,1.694-1.71,2.024-3.129.154-.662.565-1.186-.262-1.645C3202.269,988.128,3197.9,990.435,3199.04,992.344Z" transform="translate(-3192.518 -980.058)" fill="#293282"/>
      <path id="Trazado_35310" data-name="Trazado 35310" d="M3248.8,1022.176c.771,1.151,2.47.182,3.373-.23a2.43,2.43,0,0,0,1.254-2.93C3252.765,1016.328,3247.77,1020.63,3248.8,1022.176Z" transform="translate(-3232.631 -1003.713)" fill="#293282"/>
      <path id="Trazado_35311" data-name="Trazado 35311" d="M3243.521,984.681c1.032.413,2.258-.27,1.667-1.638-.2-.455-.715-.958-.941-1.4-.293-.57-.25-.974-.875-1.352a1.709,1.709,0,0,0-2.519,1.753C3241.06,983.145,3242.545,984.29,3243.521,984.681Z" transform="translate(-3226.319 -973.038)" fill="#293282"/>
      <path id="Trazado_35312" data-name="Trazado 35312" d="M3232.2,1009.558c1.159-.551.7-3.064-.768-2.432C3230.13,1007.687,3230.757,1010.242,3232.2,1009.558Z" transform="translate(-3218.182 -994.752)" fill="#293282"/>
      <path id="Trazado_35313" data-name="Trazado 35313" d="M3212.707,1031.933c.808.88,2.19,1.724,3.307,1,1.9-1.235.028-3.478-1.442-4.041C3212.38,1028.049,3211.153,1030.242,3212.707,1031.933Z" transform="translate(-3203.113 -1012.21)" fill="#293282"/>
    </g>
    <g id="Grupo_18975" data-name="Grupo 18975" transform="translate(3110.696 585.935)">
      <path id="Trazado_35314" data-name="Trazado 35314" d="M3312.906,1843.405a22.656,22.656,0,1,1-22.656-22.652A22.656,22.656,0,0,1,3312.906,1843.405Z" transform="translate(-3256.808 -1807.682)" fill="#4a408e"/>
      <g id="Grupo_18967" data-name="Grupo 18967" transform="translate(26.133)">
        <path id="Trazado_35315" data-name="Trazado 35315" d="M3358.419,1755.888c0,1.255-2.688,2.271-6,2.271s-6-1.016-6-2.271,2.688-2.271,6-2.271S3358.419,1754.634,3358.419,1755.888Z" transform="translate(-3346.415 -1753.617)" fill="#4a408e"/>
        <rect id="Rectángulo_3142" data-name="Rectángulo 3142" width="3.244" height="12.653" transform="translate(4.38 2.595)" fill="#4a408e"/>
      </g>
      <g id="Grupo_18968" data-name="Grupo 18968" transform="translate(20.098 56.342)">
        <path id="Trazado_35316" data-name="Trazado 35316" d="M3315.442,2097.723c.283-1.221,3.131-1.607,6.36-.86s5.619,2.345,5.337,3.568-3.13,1.605-6.361.857S3315.161,2098.946,3315.442,2097.723Z" transform="translate(-3315.42 -2086.067)" fill="#4a408e"/>
        <path id="Trazado_35317" data-name="Trazado 35317" d="M3340.684,2042.992l3.163.733-2.855,12.326-3.159-.729Z" transform="translate(-3333.469 -2042.992)" fill="#4a408e"/>
      </g>
      <g id="Grupo_18969" data-name="Grupo 18969" transform="translate(51.106 31.299)">
        <path id="Trazado_35318" data-name="Trazado 35318" d="M3532.381,1926.367c-1.254.046-2.367-2.6-2.487-5.914s.8-6.036,2.05-6.08,2.368,2.6,2.487,5.915S3533.635,1926.321,3532.381,1926.367Z" transform="translate(-3519.135 -1914.372)" fill="#4a408e"/>
        <rect id="Rectángulo_3143" data-name="Rectángulo 3143" width="12.652" height="3.244" transform="translate(0 4.849) rotate(-2.082)" fill="#4a408e"/>
      </g>
      <g id="Grupo_18970" data-name="Grupo 18970" transform="translate(41.534 47.739)">
        <path id="Trazado_35319" data-name="Trazado 35319" d="M3425.557,2055.092c-.374-1.2,1.89-2.966,5.056-3.952s6.033-.813,6.405.385-1.891,2.966-5.056,3.952S3425.929,2056.291,3425.557,2055.092Z" transform="translate(-3425.517 -2040.436)" fill="#4a408e"/>
        <rect id="Rectángulo_3144" data-name="Rectángulo 3144" width="3.244" height="12.653" transform="translate(0.365 0.964) rotate(-17.296)" fill="#4a408e"/>
      </g>
      <g id="Grupo_18971" data-name="Grupo 18971" transform="translate(6.925 44.741)">
        <path id="Trazado_35320" data-name="Trazado 35320" d="M3248.133,2008.493c.956-.812,3.472.575,5.62,3.1s3.115,5.232,2.158,6.045-3.471-.577-5.618-3.1S3247.177,2009.307,3248.133,2008.493Z" transform="translate(-3247.764 -2003.422)" fill="#4a408e"/>
        <path id="Trazado_35321" data-name="Trazado 35321" d="M3275.146,1983.41l2.1,2.473-9.638,8.2-2.1-2.47Z" transform="translate(-3262.054 -1983.41)" fill="#4a408e"/>
      </g>
      <g id="Grupo_18972" data-name="Grupo 18972" transform="translate(43.108 9.626)">
        <path id="Trazado_35322" data-name="Trazado 35322" d="M3469.58,1811.458c-.843.931-3.518-.124-5.97-2.35s-3.762-4.788-2.92-5.716,3.518.124,5.973,2.352S3470.422,1810.531,3469.58,1811.458Z" transform="translate(-3455.209 -1803.054)" fill="#4a408e"/>
        <rect id="Rectángulo_3145" data-name="Rectángulo 3145" width="12.654" height="3.245" transform="translate(0 12.887) rotate(-47.746)" fill="#4a408e"/>
      </g>
      <g id="Grupo_18973" data-name="Grupo 18973" transform="translate(4.998 9.013)">
        <path id="Trazado_35323" data-name="Trazado 35323" d="M3246.341,1800.168c.921.852-.154,3.515-2.4,5.95s-4.817,3.721-5.738,2.87.154-3.515,2.4-5.951S3245.42,1799.318,3246.341,1800.168Z" transform="translate(-3237.867 -1799.906)" fill="#4a408e"/>
        <path id="Trazado_35324" data-name="Trazado 35324" d="M3267.543,1827.5l-2.2,2.385-9.294-8.585,2.2-2.381Z" transform="translate(-3252.508 -1815.216)" fill="#4a408e"/>
      </g>
      <g id="Grupo_18974" data-name="Grupo 18974" transform="translate(0 31.416)">
        <path id="Trazado_35325" data-name="Trazado 35325" d="M3214.029,1914.976c1.249-.1,2.479,2.5,2.745,5.8s-.531,6.066-1.781,6.166-2.479-2.5-2.747-5.8S3212.779,1915.076,3214.029,1914.976Z" transform="translate(-3212.195 -1914.973)" fill="#4a408e"/>
        <path id="Trazado_35326" data-name="Trazado 35326" d="M3237.685,1932.054l.259,3.234-12.609,1.015-.263-3.233Z" transform="translate(-3222.564 -1928.729)" fill="#4a408e"/>
      </g>
      <path id="Trazado_35327" data-name="Trazado 35327" d="M3293.409,1873.625c.632,1.059,2.512,1.758,3.771,2.606,1.867,1.253.844,1.934,3.544.812,3.934-1.634,4.2-4.245,5.026-7.768.383-1.643,1.4-2.943-.649-4.083C3301.423,1863.159,3290.578,1868.883,3293.409,1873.625Z" transform="translate(-3277.222 -1843.129)" fill="#293282"/>
      <path id="Trazado_35328" data-name="Trazado 35328" d="M3416.909,1947.666c1.914,2.858,6.135.453,8.374-.567,2.641-1.2,3.9-4.1,3.114-7.276C3426.743,1933.151,3414.343,1943.832,3416.909,1947.666Z" transform="translate(-3376.771 -1901.842)" fill="#293282"/>
      <path id="Trazado_35329" data-name="Trazado 35329" d="M3403.8,1854.6c2.559,1.026,5.6-.671,4.14-4.066-.488-1.13-1.776-2.375-2.339-3.47-.728-1.415-.623-2.416-2.168-3.356a4.245,4.245,0,0,0-6.257,4.354C3397.69,1850.792,3401.378,1853.635,3403.8,1854.6Z" transform="translate(-3361.105 -1825.707)" fill="#293282"/>
      <path id="Trazado_35330" data-name="Trazado 35330" d="M3375.7,1916.353c2.878-1.369,1.736-7.607-1.9-6.034C3370.571,1911.712,3372.131,1918.05,3375.7,1916.353Z" transform="translate(-3340.918 -1879.606)" fill="#293282"/>
      <path id="Trazado_35331" data-name="Trazado 35331" d="M3327.33,1971.888c2.006,2.184,5.437,4.276,8.21,2.468,4.7-3.063.067-8.63-3.583-10.028C3326.52,1962.245,3323.473,1967.691,3327.33,1971.888Z" transform="translate(-3303.519 -1922.933)" fill="#293282"/>
    </g>
    <g id="Grupo_18984" data-name="Grupo 18984" transform="translate(3140.362 305.355)">
      <path id="Trazado_35332" data-name="Trazado 35332" d="M3465.274,402.327a22.654,22.654,0,1,1-22.655-22.652A22.656,22.656,0,0,1,3465.274,402.327Z" transform="translate(-3409.178 -366.604)" fill="#4a408e"/>
      <g id="Grupo_18976" data-name="Grupo 18976" transform="translate(26.133 0)">
        <path id="Trazado_35333" data-name="Trazado 35333" d="M3510.783,314.81c0,1.255-2.689,2.271-6,2.271s-6-1.016-6-2.271,2.688-2.271,6-2.271S3510.783,313.556,3510.783,314.81Z" transform="translate(-3498.778 -312.539)" fill="#4a408e"/>
        <rect id="Rectángulo_3146" data-name="Rectángulo 3146" width="3.245" height="12.653" transform="translate(4.38 2.595)" fill="#4a408e"/>
      </g>
      <g id="Grupo_18977" data-name="Grupo 18977" transform="translate(20.098 56.342)">
        <path id="Trazado_35334" data-name="Trazado 35334" d="M3467.806,656.645c.284-1.221,3.132-1.607,6.361-.86s5.619,2.346,5.335,3.568-3.13,1.606-6.36.857S3467.524,657.868,3467.806,656.645Z" transform="translate(-3467.783 -644.989)" fill="#4a408e"/>
        <path id="Trazado_35335" data-name="Trazado 35335" d="M3493.048,601.914l3.163.733-2.856,12.326-3.159-.729Z" transform="translate(-3485.832 -601.914)" fill="#4a408e"/>
      </g>
      <g id="Grupo_18978" data-name="Grupo 18978" transform="translate(51.105 31.299)">
        <path id="Trazado_35336" data-name="Trazado 35336" d="M3684.745,485.288c-1.254.046-2.367-2.6-2.487-5.914s.8-6.036,2.049-6.081,2.368,2.6,2.489,5.915S3686,485.242,3684.745,485.288Z" transform="translate(-3671.498 -473.293)" fill="#4a408e"/>
        <rect id="Rectángulo_3147" data-name="Rectángulo 3147" width="12.653" height="3.244" transform="matrix(0.999, -0.037, 0.037, 0.999, 0, 4.851)" fill="#4a408e"/>
      </g>
      <g id="Grupo_18979" data-name="Grupo 18979" transform="translate(41.534 47.739)">
        <path id="Trazado_35337" data-name="Trazado 35337" d="M3577.92,614.014c-.373-1.2,1.89-2.966,5.056-3.952s6.033-.813,6.407.385-1.892,2.966-5.057,3.952S3578.292,615.213,3577.92,614.014Z" transform="translate(-3577.88 -599.358)" fill="#4a408e"/>
        <rect id="Rectángulo_3148" data-name="Rectángulo 3148" width="3.244" height="12.653" transform="matrix(0.955, -0.297, 0.297, 0.955, 0.365, 0.964)" fill="#4a408e"/>
      </g>
      <g id="Grupo_18980" data-name="Grupo 18980" transform="translate(6.925 44.741)">
        <path id="Trazado_35338" data-name="Trazado 35338" d="M3400.5,567.415c.958-.812,3.472.575,5.62,3.1s3.115,5.232,2.157,6.044-3.47-.576-5.619-3.1S3399.542,568.229,3400.5,567.415Z" transform="translate(-3400.129 -562.344)" fill="#4a408e"/>
        <path id="Trazado_35339" data-name="Trazado 35339" d="M3427.506,542.332l2.1,2.473-9.638,8.2-2.1-2.47Z" transform="translate(-3414.414 -542.332)" fill="#4a408e"/>
      </g>
      <g id="Grupo_18981" data-name="Grupo 18981" transform="translate(43.108 9.625)">
        <path id="Trazado_35340" data-name="Trazado 35340" d="M3621.94,370.38c-.842.931-3.518-.124-5.97-2.35s-3.763-4.788-2.92-5.716,3.518.124,5.972,2.353S3622.782,369.452,3621.94,370.38Z" transform="translate(-3607.571 -361.976)" fill="#4a408e"/>
        <rect id="Rectángulo_3149" data-name="Rectángulo 3149" width="12.654" height="3.246" transform="matrix(0.672, -0.74, 0.74, 0.672, 0, 12.889)" fill="#4a408e"/>
      </g>
      <g id="Grupo_18982" data-name="Grupo 18982" transform="translate(4.998 9.013)">
        <path id="Trazado_35341" data-name="Trazado 35341" d="M3398.7,359.09c.923.852-.155,3.515-2.4,5.95s-4.819,3.721-5.74,2.87.155-3.515,2.4-5.95S3397.781,358.24,3398.7,359.09Z" transform="translate(-3390.229 -358.828)" fill="#4a408e"/>
        <path id="Trazado_35342" data-name="Trazado 35342" d="M3419.9,386.421l-2.2,2.385-9.294-8.585,2.2-2.381Z" transform="translate(-3404.868 -374.138)" fill="#4a408e"/>
      </g>
      <g id="Grupo_18983" data-name="Grupo 18983" transform="translate(0 31.416)">
        <path id="Trazado_35343" data-name="Trazado 35343" d="M3366.394,473.9c1.249-.1,2.478,2.5,2.746,5.8s-.531,6.066-1.782,6.166-2.48-2.5-2.747-5.8S3365.142,474,3366.394,473.9Z" transform="translate(-3364.559 -473.895)" fill="#4a408e"/>
        <path id="Trazado_35344" data-name="Trazado 35344" d="M3390.055,490.976l.26,3.234-12.61,1.015-.262-3.233Z" transform="translate(-3374.934 -487.65)" fill="#4a408e"/>
      </g>
      <path id="Trazado_35345" data-name="Trazado 35345" d="M3445.769,432.547c.634,1.06,2.514,1.759,3.774,2.607,1.865,1.253.842,1.934,3.542.812,3.935-1.635,4.206-4.245,5.026-7.768.383-1.643,1.4-2.943-.648-4.083C3453.785,422.081,3442.939,427.805,3445.769,432.547Z" transform="translate(-3429.583 -402.051)" fill="#293282"/>
      <path id="Trazado_35346" data-name="Trazado 35346" d="M3569.272,506.589c1.913,2.858,6.136.452,8.373-.567,2.641-1.2,3.9-4.1,3.115-7.276C3579.105,492.073,3566.707,502.754,3569.272,506.589Z" transform="translate(-3529.134 -460.764)" fill="#293282"/>
      <path id="Trazado_35347" data-name="Trazado 35347" d="M3556.169,413.526c2.559,1.026,5.6-.671,4.14-4.066-.488-1.13-1.775-2.375-2.34-3.471-.728-1.415-.622-2.416-2.166-3.355a4.245,4.245,0,0,0-6.257,4.353C3550.06,409.713,3553.748,412.557,3556.169,413.526Z" transform="translate(-3513.475 -384.629)" fill="#293282"/>
      <path id="Trazado_35348" data-name="Trazado 35348" d="M3528.06,475.275c2.878-1.369,1.737-7.607-1.9-6.034C3522.933,470.634,3524.492,476.972,3528.06,475.275Z" transform="translate(-3493.28 -438.528)" fill="#293282"/>
      <path id="Trazado_35349" data-name="Trazado 35349" d="M3479.691,530.81c2.005,2.184,5.437,4.276,8.211,2.468,4.7-3.063.068-8.63-3.582-10.028C3478.882,521.167,3475.834,526.613,3479.691,530.81Z" transform="translate(-3455.881 -481.855)" fill="#293282"/>
    </g>
    <g id="Grupo_19036" data-name="Grupo 19036" transform="translate(3086.156 303.618)">
      <path id="Trazado_35350" data-name="Trazado 35350" d="M3728.106,810.546a134.976,134.976,0,0,1-69.355,118c-1.311.739-2.642,1.448-3.982,2.139-.243.125-.5.252-.749.377-3.341,1.691-6.751,3.254-10.248,4.664a135.534,135.534,0,0,1-94.815,2.457c-1.767-.6-3.505-1.243-5.235-1.923-.894-.359-1.788-.717-2.681-1.088-3.322-1.389-6.585-2.914-9.762-4.555a135.262,135.262,0,0,1-70.317-148.026c.02-.059.028-.126.048-.195a133.516,133.516,0,0,1,10.928-31.521,135.633,135.633,0,0,1,64.295-62.838h.009c1.661-.767,3.333-1.506,5.033-2.214,1.505-.623,3.021-1.224,4.546-1.787a.694.694,0,0,1,.126-.049h.009a134.228,134.228,0,0,1,36.689-8.062h.009q5.172-.394,10.434-.4a135.345,135.345,0,0,1,22.33,1.846c1.817.291,3.625.632,5.421,1.01q3.016.626,5.974,1.4a133.063,133.063,0,0,1,26.917,10.1A134.989,134.989,0,0,1,3728.106,810.546Z" transform="translate(-3385.655 -603.116)" fill="#5562a9"/>
      <circle id="Elipse_1125" data-name="Elipse 1125" cx="146.676" cy="146.676" r="146.676" transform="translate(0 207.432) rotate(-45)" fill="none" stroke="#5562a9" stroke-miterlimit="10" stroke-width="14.967"/>
      <g id="Grupo_19035" data-name="Grupo 19035" transform="translate(54.217 15.839)">
        <g id="Grupo_18985" data-name="Grupo 18985" transform="translate(162.672)">
          <path id="Trazado_35351" data-name="Trazado 35351" d="M4216.928,385.167c7.862,1.385,15.323,7.986,19.835,14.157,15.874,21.721,15.236,48.284,13.942,73.9-.651,12.91-.187,25.769-.1,38.733.159,24.875,3.189,24.079,8.234,37.823-37.242-.609-40.972-57.515-40.991-83.864-.006-11.855.793-23.694,1.006-35.545.134-7.444,1.648-22.316-5.721-27.232-.292-.2-3.574,4.489-7.776,3.611-3.426-.716-5.507-2.375-5.215-4.912C4200.94,394.822,4206.392,383.317,4216.928,385.167Z" transform="translate(-4200.111 -384.968)" fill="#782c0e"/>
        </g>
        <g id="Grupo_18986" data-name="Grupo 18986" transform="translate(6.315 128.544)">
          <path id="Trazado_35352" data-name="Trazado 35352" d="M3483.451,1111.073c35.038,9.942,38.942-7.793,38.942-7.793,7.483-19.6-22.163-32.5-22.163-32.5s-66.281-22.319-96.766-25.6c0,0-15.733,19.885,2.091,32.156Z" transform="translate(-3397.052 -1045.179)" fill="#f5a58e"/>
        </g>
        <g id="Grupo_18989" data-name="Grupo 18989" transform="translate(83.967 143.373)">
          <g id="Grupo_18987" data-name="Grupo 18987" transform="translate(11.539)">
            <path id="Trazado_35353" data-name="Trazado 35353" d="M3997.107,1144.384l-.019.087-1.37,6.149-15.26,68.336L3976.1,1238.5l-5.536,24.808-1.681,7.508-.069.32-4.05,18.116-1.224,5.489a135.535,135.535,0,0,1-94.816,2.457l-.854-9.985-7.7-89.637-1.156-13.483-.874-10.228-1.729-20.137-1.262-14.676,8.995-4.167,5.478-2.546,9.695-4.487,2.03-.942,4.974-2.313.621-.281h.01l.107-.058,6.285-2.915h.019l23.371.039,19.389.03h.116l3.953,1.485,14.969,5.654h.009l23.77,8.975,10.87,4.1a.035.035,0,0,1,.019.009l6.877,2.593c.01,0,.02,0,.02.011Z" transform="translate(-3855.142 -1121.343)" fill="#f5a58e"/>
          </g>
          <g id="Grupo_18988" data-name="Grupo 18988" transform="translate(0 1.457)">
            <path id="Trazado_35354" data-name="Trazado 35354" d="M3954.113,1163.71a23.216,23.216,0,0,1-.583,3.273c-.777,3.07-2.516,6.372-4.07,9.694.165,7.392-1.962,15.8-3.982,23.846-.758,4.625-1.875,9.1-3.226,15.212-1.252,5.654-1.874,12.181-2.855,18.573a75.376,75.376,0,0,1-2.856,12.6c-.331.991-.7,1.942-1.1,2.875l-6.847,33.813-.555,2.7-1.68,8.306-.3,1.5c-3.341,1.691-6.751,3.254-10.248,4.664a135.535,135.535,0,0,1-94.815,2.457c-1.767-.6-3.505-1.243-5.235-1.923l-1.36-9.6-6.983-49.4c-3.721-16.534-7.6-23.828-10.025-32.24-.009-.01,0-.01,0-.01-.126-.427-.243-.855-.369-1.292v-.009c-.339-1.282-.642-2.6-.913-4a18.854,18.854,0,0,1-.127-5.042c.02-.262.05-.525.078-.8.087-.778.2-1.593.351-2.428a85.887,85.887,0,0,1,2.7-10.861v-.009c.854-2.8,1.826-5.633,2.8-8.353,2.049-5.712,4.157-10.948,5.507-14.435l1.263-3.07,7.732-18.843.427-1.04,4.245-1.836h.01l10.034-4.322,2.244-.962,5.148-2.225s.02.03.068.1a30.957,30.957,0,0,0,19.806,11.6,30.5,30.5,0,0,0,11.093-.582c.555-.128,1.118-.272,1.691-.437,6.274-1.748,13.386-5.508,21.283-12.279.039-.028.077-.067.117-.1,3.827,1.408,9.063,3.342,14.589,5.372,8.4,3.089,17.485,6.44,23.313,8.587l.477.175c5.391,1.991,10.568,3.846,15.785,6.2a1.906,1.906,0,0,1,.243.107c.272.107.544.234.816.36.136.058.272.126.4.194.262.136.524.282.776.437.011,0,.02,0,.02.011.126.078.252.155.37.232a.25.25,0,0,1,.058.039C3953.5,1153.364,3954.657,1158.629,3954.113,1163.71Z" transform="translate(-3795.879 -1128.828)" fill="#29266a"/>
          </g>
        </g>
        <g id="Grupo_18990" data-name="Grupo 18990" transform="translate(21.164 123.35)">
          <path id="Trazado_35355" data-name="Trazado 35355" d="M3547.465,1116.869s40.915-13.746,37.8-44.622c0,0,6.464-19.16-12.837-27l-74.954-26.749s-.757,27.158-24.161,50.938C3473.317,1069.441,3517.8,1102.136,3547.465,1116.869Z" transform="translate(-3473.317 -1018.503)" fill="#29266a"/>
        </g>
        <g id="Grupo_18991" data-name="Grupo 18991" transform="translate(204.733 169.265)">
          <path id="Trazado_35356" data-name="Trazado 35356" d="M4441.058,1386.576c11.97-5.215,14.009-20.55,15.041-28.545,7.971-61.886,4.17-78.949-2.547-93.387-.219-3.325-18.919-23.108-31.383,2.937-5.737,13.366-3.434,90.616-6.025,101.071C4416.142,1368.65,4421.663,1389.737,4441.058,1386.576Z" transform="translate(-4416.142 -1254.322)" fill="#f5a58e"/>
        </g>
        <g id="Grupo_18992" data-name="Grupo 18992" transform="translate(196.398 162.796)">
          <path id="Trazado_35357" data-name="Trazado 35357" d="M4426.126,1317.013c-26.191,15.55-52.793-11.05-52.793-11.05a459.176,459.176,0,0,1,4.913-61.387c7.844-32.711,31.51-21.689,31.51-21.689,14.937,3.114,16.371,29.465,16.371,29.465S4428.989,1273.632,4426.126,1317.013Z" transform="translate(-4373.333 -1221.1)" fill="#29266a"/>
        </g>
        <g id="Grupo_19011" data-name="Grupo 19011" transform="translate(101.253 12.958)">
          <g id="Grupo_18993" data-name="Grupo 18993" transform="translate(64.75 48.844)">
            <path id="Trazado_35358" data-name="Trazado 35358" d="M4239.215,715.081c.516,7.123-2.981,15.433-9.227,18.761-8.467,4.517-12.274-3.27-12.729-11.079-.365-6.292,1.773-17.3,8.774-19.941C4232.639,700.322,4238.792,709.235,4239.215,715.081Z" transform="translate(-4217.219 -702.39)" fill="#f5a58e"/>
          </g>
          <g id="Grupo_18994" data-name="Grupo 18994" transform="translate(32.449 80.175)">
            <path id="Trazado_35359" data-name="Trazado 35359" d="M4051.338,916.5l42.763-.014-.02-53.177-42.76.014Z" transform="translate(-4051.321 -863.308)" fill="#f5a58e"/>
          </g>
          <g id="Grupo_18995" data-name="Grupo 18995" transform="translate(32.449 80.181)">
            <path id="Trazado_35360" data-name="Trazado 35360" d="M4081.039,892.778c4.291-9,6.845-18.11,6.131-29.439l-35.849.008.015,46.22C4062.594,907.839,4076.467,902.369,4081.039,892.778Z" transform="translate(-4051.321 -863.339)" fill="#ee7d67"/>
          </g>
          <g id="Grupo_18996" data-name="Grupo 18996" transform="translate(3.888 9.558)">
            <path id="Trazado_35361" data-name="Trazado 35361" d="M3970.753,573c-3.491,10.508-8.575,19.266-17.909,25.77-9.127,6.364-18.731,9.905-28.311,2.9-7.614-5.583-12.832-14.062-15.987-22.732-7.27-19.949-4.257-48.323,7.7-65.436,13.13-18.793,40.75-16.385,52.5,3.045C3978.315,532.372,3976.386,556.031,3970.753,573Z" transform="translate(-3904.63 -500.614)" fill="#f5a58e"/>
          </g>
          <g id="Grupo_18999" data-name="Grupo 18999" transform="translate(74.348 55.181)">
            <g id="Grupo_18997" data-name="Grupo 18997">
              <path id="Trazado_35362" data-name="Trazado 35362" d="M4269.057,753.773a1.234,1.234,0,0,1-1.167-.834c-2.639-7.688-1.388-15.182,2.978-17.828a1.231,1.231,0,1,1,1.274,2.107c-3.272,1.983-4.114,8.534-1.921,14.92a1.233,1.233,0,0,1-1.165,1.635Z" transform="translate(-4266.516 -734.935)" fill="#ee7d67"/>
            </g>
            <g id="Grupo_18998" data-name="Grupo 18998" transform="translate(0.487 5.316)">
              <path id="Trazado_35363" data-name="Trazado 35363" d="M4270.245,765.452a1.233,1.233,0,0,1-.712-2.238c2.083-1.478,5.436-1.061,7.883-.175a1.231,1.231,0,0,1-.837,2.314c-1.914-.691-4.4-1-5.617-.131A1.254,1.254,0,0,1,4270.245,765.452Z" transform="translate(-4269.015 -762.238)" fill="#ee7d67"/>
            </g>
          </g>
          <g id="Grupo_19007" data-name="Grupo 19007" transform="translate(8.237 45.972)">
            <g id="Grupo_19000" data-name="Grupo 19000" transform="translate(6.577 10.769)">
              <path id="Trazado_35364" data-name="Trazado 35364" d="M3965.668,747.044c0,2.266-1.1,4.1-2.46,4.1s-2.459-1.835-2.461-4.1,1.1-4.1,2.457-4.1S3965.668,744.777,3965.668,747.044Z" transform="translate(-3960.747 -742.945)" fill="#161d2f"/>
            </g>
            <g id="Grupo_19001" data-name="Grupo 19001" transform="translate(36.041 10.757)">
              <path id="Trazado_35365" data-name="Trazado 35365" d="M4117,746.987c0,2.268-1.1,4.105-2.459,4.1s-2.459-1.831-2.463-4.1,1.1-4.1,2.457-4.1S4116.995,744.72,4117,746.987Z" transform="translate(-4112.075 -742.886)" fill="#161d2f"/>
            </g>
            <g id="Grupo_19002" data-name="Grupo 19002" transform="translate(12.708 11.273)">
              <path id="Trazado_35366" data-name="Trazado 35366" d="M4000.912,768.052c-.032,0-.065,0-.095,0-3.464-.266-6.269-1.554-7.7-3.534a3.989,3.989,0,0,1-.784-3.3c.275-1.133,1.708-1.876,4.2-3.095a16.657,16.657,0,0,0,2.042-1.084c1.068-1.239,1.535-2.842,2.332-10.393a1.251,1.251,0,0,1,1.354-1.1,1.237,1.237,0,0,1,1.1,1.355c-.827,7.834-1.349,9.924-2.95,11.778a9.565,9.565,0,0,1-2.794,1.658,15.623,15.623,0,0,0-2.99,1.689,2.683,2.683,0,0,0,.486,1.047c.369.516,1.9,2.218,5.893,2.523a1.231,1.231,0,0,1-.091,2.459Z" transform="translate(-3992.235 -745.538)" fill="#ee7d67"/>
            </g>
            <g id="Grupo_19003" data-name="Grupo 19003" transform="translate(32.535 21.604)">
              <path id="Trazado_35367" data-name="Trazado 35367" d="M4107.265,801.51c0,1.612-2.955,2.915-6.6,2.918s-6.6-1.3-6.6-2.912,2.949-2.919,6.593-2.919S4107.265,799.9,4107.265,801.51Z" transform="translate(-4094.067 -798.597)" fill="#ee7d67"/>
            </g>
            <g id="Grupo_19004" data-name="Grupo 19004" transform="translate(0 21.614)">
              <path id="Trazado_35368" data-name="Trazado 35368" d="M3940.163,801.561c0,1.612-2.956,2.919-6.6,2.919s-6.6-1.3-6.6-2.913,2.952-2.919,6.6-2.919S3940.163,799.952,3940.163,801.561Z" transform="translate(-3926.966 -798.648)" fill="#ee7d67"/>
            </g>
            <g id="Grupo_19005" data-name="Grupo 19005" transform="translate(2.606 0.686)">
              <path id="Trazado_35369" data-name="Trazado 35369" d="M3941.942,699.436a1.6,1.6,0,0,1-.034-3.191c5.8-.134,9.378-1.539,10.64-4.173a1.6,1.6,0,0,1,2.878,1.377c-1.846,3.863-6.248,5.821-13.447,5.986A.175.175,0,0,1,3941.942,699.436Z" transform="translate(-3940.35 -691.162)" fill="#933512"/>
            </g>
            <g id="Grupo_19006" data-name="Grupo 19006" transform="translate(28.746)">
              <path id="Trazado_35370" data-name="Trazado 35370" d="M4087.376,695.289c-6.522,0-10.638-1.736-12.576-5.293a1.6,1.6,0,0,1,2.807-1.523c1.393,2.566,5.017,3.749,10.837,3.608a.273.273,0,0,1,.05,0,1.6,1.6,0,0,1,.045,3.193C4088.142,695.282,4087.756,695.289,4087.376,695.289Z" transform="translate(-4074.607 -687.637)" fill="#933512"/>
            </g>
          </g>
          <g id="Grupo_19008" data-name="Grupo 19008" transform="translate(13.544)">
            <path id="Trazado_35371" data-name="Trazado 35371" d="M4003.234,502.829c.923.6,5.933,7.161,6.908,7.668a10.259,10.259,0,0,0,2.552-.734c.16-3.664,2.406-6.941,6.714-7.363,3.093-.3,6.339,4.214,7.413,7.281.01-3.293-.345-8.016-.512-11.522a79.814,79.814,0,0,0-1.179-10.273c-1.433-7.889-2.326-12.211-6.562-19.441-4.559-7.778-11.3-13.613-20.463-15.34-11.066-2.082-29-3.241-37.86,4-4.544,3.715-7.2,12.09-5.513,17.5C3954.731,474.6,3956.575,489.336,4003.234,502.829Z" transform="translate(-3954.221 -451.522)" fill="#933512"/>
          </g>
          <g id="Grupo_19009" data-name="Grupo 19009" transform="translate(21.066 86.075)">
            <path id="Trazado_35372" data-name="Trazado 35372" d="M4004.618,900.009a1.167,1.167,0,0,1-.347-.049,6.275,6.275,0,0,1-3.142-2.514,4.074,4.074,0,0,0-1.247-1.252c-.681-.268-1.186-.056-2.085.385a3.891,3.891,0,0,1-4.423-.011,1.231,1.231,0,1,1,1.431-2c.567.4.844.327,1.9-.2a4.673,4.673,0,0,1,4.09-.459,5.678,5.678,0,0,1,2.271,2.025,6.213,6.213,0,0,0,1.3,1.38c.223-.221.438-.446.651-.662,1.639-1.7,3.68-3.81,7.179-2.2a1.23,1.23,0,1,1-1.032,2.234c-1.833-.842-2.668-.1-4.375,1.679-.432.443-.878.9-1.356,1.333A1.232,1.232,0,0,1,4004.618,900.009Z" transform="translate(-3992.858 -893.61)" fill="#ee7d67"/>
          </g>
          <g id="Grupo_19010" data-name="Grupo 19010" transform="translate(0 7.802)">
            <path id="Trazado_35373" data-name="Trazado 35373" d="M3888.44,551.357c.7-5.374-.083-10.843,1.22-16.271,1.149-4.791,3.144-10.116,6.378-13.889,5.166-6.027,18.938-10.948,15.42-20.8-1.133-3.2-4.142-7.792-7.6-8.647-4.777-1.177-7.961,4.612-10.258,8.048-6.151,9.213-8.16,19.579-8.824,30.4a48.337,48.337,0,0,0,2.8,20.188,6.645,6.645,0,0,0,.866.052Z" transform="translate(-3884.66 -491.592)" fill="#933512"/>
          </g>
        </g>
        <g id="Grupo_19012" data-name="Grupo 19012" transform="translate(193.124 165.81)">
          <path id="Trazado_35374" data-name="Trazado 35374" d="M4357.743,1309.016a1.315,1.315,0,0,1-.2-.016,1.229,1.229,0,0,1-1.009-1.413c.99-5.926,1.625-12.109,2.248-18.089.522-5.07,1.063-10.314,1.818-15.45.308-2.067.548-4.351.8-6.754,1.113-10.576,2.5-23.736,10.705-30.439a1.231,1.231,0,0,1,1.558,1.906c-7.424,6.058-8.753,18.661-9.819,28.787-.259,2.439-.5,4.76-.812,6.86-.753,5.08-1.29,10.3-1.808,15.343-.625,6.017-1.269,12.239-2.267,18.239A1.231,1.231,0,0,1,4357.743,1309.016Z" transform="translate(-4356.514 -1236.58)" fill="#161d2f"/>
        </g>
        <g id="Grupo_19013" data-name="Grupo 19013" transform="translate(181.054 107.128)">
          <path id="Trazado_35375" data-name="Trazado 35375" d="M4294.524,948.279l19.437-13.1,1.638,6.139Z" transform="translate(-4294.524 -935.183)" fill="#abd0e4"/>
        </g>
        <g id="Grupo_19014" data-name="Grupo 19014" transform="translate(180.823 126.87)">
          <path id="Trazado_35376" data-name="Trazado 35376" d="M4293.337,1037.138l23.432-.557-1.93,6.052Z" transform="translate(-4293.337 -1036.582)" fill="#abd0e4"/>
        </g>
        <g id="Grupo_19015" data-name="Grupo 19015" transform="translate(94.957 109.584)">
          <path id="Trazado_35377" data-name="Trazado 35377" d="M3873.4,960.895,3853.963,947.8l-1.638,6.138Z" transform="translate(-3852.325 -947.8)" fill="#abd0e4"/>
        </g>
        <g id="Grupo_19016" data-name="Grupo 19016" transform="translate(92.835 129.323)">
          <path id="Trazado_35378" data-name="Trazado 35378" d="M3864.853,1049.738l-23.43-.559,1.93,6.052Z" transform="translate(-3841.423 -1049.179)" fill="#abd0e4"/>
        </g>
        <g id="Grupo_19022" data-name="Grupo 19022" transform="translate(0 10.196)">
          <g id="Grupo_19017" data-name="Grupo 19017" transform="translate(0 25.273)">
            <path id="Trazado_35379" data-name="Trazado 35379" d="M3387.495,696.094s-33.146-13.507-19.643-31.1c70.8-75.71,104.171-97.851,104.171-97.851l7.145,6.182C3434.149,640.026,3424.858,662.859,3387.495,696.094Z" transform="translate(-3364.617 -567.14)" fill="#f5a58e"/>
          </g>
          <g id="Grupo_19021" data-name="Grupo 19021" transform="translate(106.625)">
            <g id="Grupo_19018" data-name="Grupo 19018">
              <path id="Trazado_35380" data-name="Trazado 35380" d="M3960.962,449.938c-2.262-6.675-17.3,6.63-20.936,7.644,3.641-2.8,18.266-12.37,16.595-16.733-1.231-2.483-13.049,7.834-15.644,9.305,1.831-2.076,10.358-9.071,8.5-11.785-1.753-1.59-9.632,5.732-12.395,7.545.36-.767,7.7-7.545,5.775-8.422-1.812-.99-7.611,2.926-10.346,5.09-12.324,9.763-26.251,20.191-17.547,26.584,6.494,4.771,10.213,7.225,33.12,3.378,3.953-.665-.907-6.112-9.055-6.453C3939.432,464.1,3961.23,450.739,3960.962,449.938Z" transform="translate(-3912.25 -437.335)" fill="#f5a58e"/>
            </g>
            <g id="Grupo_19020" data-name="Grupo 19020" transform="translate(10.111 25.703)">
              <g id="Grupo_19019" data-name="Grupo 19019">
                <path id="Trazado_35381" data-name="Trazado 35381" d="M3976.6,571.725c-2.52-4.14-9.421-2.151-12.246.525-.8.754,1.485.933,1.984.57a13.021,13.021,0,0,1,3.749-2.057c2.057-.653,3.811.184,5.517,1.245.173.11,1.231.1,1-.283Z" transform="translate(-3964.183 -569.349)" fill="#161d2f"/>
              </g>
            </g>
          </g>
        </g>
        <g id="Grupo_19024" data-name="Grupo 19024" transform="translate(101.169 305.153)">
          <g id="Grupo_19023" data-name="Grupo 19023">
            <path id="Trazado_35382" data-name="Trazado 35382" d="M3997.956,1958.831c-.244.125-.5.252-.749.377q-5.012,2.536-10.248,4.664a135.537,135.537,0,0,1-94.816,2.457c-1.767-.6-3.505-1.243-5.235-1.923-.894-.359-1.788-.717-2.681-1.088l1.32-8.509.4-2.555a18.565,18.565,0,0,0,5.343,4.09c9.927,5.673,36.057,13.958,96.894,2.04,2.875-.564,5.838-1.165,8.868-1.825l.457,1.146Z" transform="translate(-3884.228 -1952.253)" fill="#002d54"/>
          </g>
        </g>
        <g id="Grupo_19025" data-name="Grupo 19025" transform="translate(84.99 205.856)">
          <path id="Trazado_35383" data-name="Trazado 35383" d="M3935.022,1545.993c-1.311.739-2.642,1.448-3.982,2.139-.243.125-.5.252-.748.377-3.341,1.691-6.751,3.254-10.248,4.664a135.532,135.532,0,0,1-94.815,2.457c-1.767-.6-3.506-1.243-5.235-1.923-.894-.359-1.787-.717-2.681-1.087-3.322-1.389-6.586-2.914-9.762-4.555.193-3.779.3-7.509.33-11.152v-.009a182.377,182.377,0,0,0-.719-18.834c-2.38-24.935-6.712-31.219-5.936-56.271.01-.215.021-.428.03-.632v-.009a33.634,33.634,0,0,1,.651-5.411c.009-.01.009-.019.009-.04.176-.815.371-1.574.6-2.3,2.167-6.867,6.887-10.014,13-10.879,5.585-.807,12.346.292,19.379,2.185.573.156,1.147.311,1.729.476,12.638,3.585,22.7,8.665,36.019,10.685a101.36,101.36,0,0,0,11.346,1c9.082.379,18.387-.009,27.305.593.213.009.427.019.641.038.611.05,1.185.1,1.709.146.03,0,.068.009.1.009,7.636.778,6.683,2.593,6.373,10.492a133.164,133.164,0,0,0,.816,18.814c.136,1.36.292,2.721.447,4.061.252,2.147.524,4.264.835,6.362v.01a216.854,216.854,0,0,0,4.857,24.343q1.7,6.6,3.885,13.1a1.523,1.523,0,0,0,.068.2v.011c.4,1.224.815,2.428,1.252,3.641Q3933.572,1542.341,3935.022,1545.993Z" transform="translate(-3801.134 -1442.256)" fill="#29266a"/>
        </g>
        <g id="Grupo_19028" data-name="Grupo 19028" transform="translate(146.698 230.45)">
          <g id="Grupo_19026" data-name="Grupo 19026" transform="translate(6.045 0)">
            <path id="Trazado_35384" data-name="Trazado 35384" d="M4180.567,1626.11a1.241,1.241,0,0,1-.457-.088c-6.168-2.467-15.252-15.493-18.687-21.412-3.476-6-11.634-21.4-12.308-34.744a1.227,1.227,0,0,1,1.165-1.287,1.175,1.175,0,0,1,1.286,1.165c.664,13.17,9.338,29.073,11.979,33.635,4.074,7.022,12.444,18.355,17.478,20.365a1.228,1.228,0,0,1-.456,2.368Z" transform="translate(-4149.114 -1568.573)" fill="#161d2f"/>
          </g>
          <g id="Grupo_19027" data-name="Grupo 19027" transform="translate(0 47.47)">
            <path id="Trazado_35385" data-name="Trazado 35385" d="M4159.228,1836.336c-12.334,0-31.327-11.456-40.839-21.9a1.228,1.228,0,1,1,1.817-1.653c9.143,10.044,27.66,21.1,39.022,21.1.125,0,.246,0,.37,0a1.228,1.228,0,0,1,.024,2.455C4159.491,1836.332,4159.36,1836.336,4159.228,1836.336Z" transform="translate(-4118.068 -1812.383)" fill="#161d2f"/>
          </g>
        </g>
        <g id="Grupo_19032" data-name="Grupo 19032" transform="translate(115.478 122.731)">
          <g id="Grupo_19029" data-name="Grupo 19029" transform="translate(30.992 31.147)">
            <path id="Trazado_35386" data-name="Trazado 35386" d="M4201.419,1322.017c24.544-22.817,2.81-41.379,2.81-41.379-36.379-51.626-70.439-95.245-76.767-105.346l-10.563,4.318c14.733,49.4,30.08,92.987,65.514,138.64C4182.413,1318.25,4194.211,1326.863,4201.419,1322.017Z" transform="translate(-4116.899 -1175.293)" fill="#f5a58e"/>
          </g>
          <g id="Grupo_19031" data-name="Grupo 19031">
            <g id="Grupo_19030" data-name="Grupo 19030">
              <path id="Trazado_35387" data-name="Trazado 35387" d="M3964.721,1015.337c-5.357,4.574,12.577,13.6,14.865,16.6-3.956-2.345-18.262-12.374-21.7-9.2-1.852,2.066,12.117,9.212,14.445,11.073-2.6-.928-12.266-6.252-14.1-3.521-.823,2.22,8.9,6.817,11.608,8.716-.849-.052-9.866-4.355-9.963-2.241-.246,2.048,5.54,5.981,8.56,7.718,13.646,7.823,28.494,16.881,31.2,6.426,2.019-7.8,2.92-12.168-9.154-32.008-2.087-3.42-5.341,3.112-2.633,10.8C3985.862,1030.067,3965.36,1014.783,3964.721,1015.337Z" transform="translate(-3957.721 -1015.322)" fill="#f5a58e"/>
            </g>
          </g>
        </g>
        <g id="Grupo_19033" data-name="Grupo 19033" transform="translate(83.004 198.312)">
          <path id="Trazado_35388" data-name="Trazado 35388" d="M3798.335,1507.537a1.263,1.263,0,0,1-.206-.015,1.228,1.228,0,0,1-1.01-1.413c2.37-14.23-.812-37.126-3.9-53.826a123.891,123.891,0,0,1-2.277-23.844,63.649,63.649,0,0,1,.994-8.8c.779-4.851,1.584-9.873.329-14.581a1.229,1.229,0,0,1,.874-1.506,1.217,1.217,0,0,1,1.5.871c1.389,5.215.546,10.5-.277,15.605a60.245,60.245,0,0,0-.964,8.448,122.038,122.038,0,0,0,2.234,23.356c3.125,16.893,6.339,40.093,3.906,54.675A1.219,1.219,0,0,1,3798.335,1507.537Z" transform="translate(-3790.932 -1403.513)" fill="#161d2f"/>
        </g>
        <g id="Grupo_19034" data-name="Grupo 19034" transform="translate(21.241 172.2)">
          <path id="Trazado_35389" data-name="Trazado 35389" d="M3536.943,1312.162a1.089,1.089,0,0,1-.25-.025c-16.2-3.371-29.315-14.318-42-24.9-6.574-5.484-13.366-11.153-20.409-15.573a1.228,1.228,0,0,1,1.3-2.082c7.185,4.511,14.041,10.235,20.679,15.769,12.453,10.387,25.328,21.133,40.918,24.38a1.227,1.227,0,0,1-.246,2.428Z" transform="translate(-3473.712 -1269.4)" fill="#161d2f"/>
        </g>
      </g>
    </g>
  </g>
</svg>
