<svg xmlns="http://www.w3.org/2000/svg" xmlns:xlink="http://www.w3.org/1999/xlink" width="285.365" height="279.197" viewBox="0 0 285.365 279.197">
  <defs>
    <clipPath id="clip-path">
      <path id="Trazado_35212" data-name="Trazado 35212" d="M697.791,288.82a64.609,64.609,0,0,0,8.365-15.481c1.646-4.392,2.821-9.092,2.265-13.749-.688-5.767-3.926-10.856-6.808-15.9a156.169,156.169,0,0,1-9.085-18.677,11.878,11.878,0,0,1-1.229-5.536c.3-3.053,2.852-5.655,2.7-8.72-.107-2.13-1.533-4.116-1.246-6.23.5-3.707,5.305-4.653,8.393-6.764,4.391-3,5.516-9.165,4.439-14.373s-3.879-9.868-5.915-14.782c-2.2-5.309-3.525-11.122-2.741-16.816s3.91-11.239,8.944-14.011c6.511-3.585,14.662-2.021,21.751-4.255,10.353-3.261,17.919-14.386,28.774-14.263,4.939.056,9.486,2.533,13.8,4.944,10.356,5.792,20.735,11.6,30.4,18.478,6.927,4.93,13.539,10.441,21.237,14.048,8.345,3.91,18.786,6.381,22.491,14.819,2.153,4.9,1.312,10.576,2.491,15.8a21,21,0,0,0,11.163,14.066c5.224,2.529,11.492,2.863,16.121,6.364,7.451,5.635,7.482,16.969,4.464,25.81s-8.346,17.022-9.377,26.308c-1.047,9.437,2.208,20.146-3.456,27.767-5.407,7.274-16.1,7.7-23.724,12.591-5.5,3.529-9.169,9.233-13.754,13.893-6.51,6.617-15.415,11.265-24.7,11.152-10.594-.13-20.062-6.186-30.054-9.707-12.106-4.265-25.155-4.819-37.979-5.332l-20.839-.833c-4.749-.19-9.465.673-14.137.508a9.367,9.367,0,0,1-8.644-6.846C690.451,297.758,694.836,292.76,697.791,288.82Z" fill="none" opacity="0.35" style="mix-blend-mode: multiply;isolation: isolate"/>
    </clipPath>
    <clipPath id="clip-path-2">
      <path id="Trazado_35225" data-name="Trazado 35225" d="M674.6,335.354l40.075-58.537,8.556-19.363-10.807-53.583-17.561-45.479-7.2-34.222,1.213-.771a6.346,6.346,0,0,1,7.263.313l4.132,3.16,22.515,37.374,18.461,29.718,4.053-2.7-14.409-54.935-7.655-26.567V98.054l2.943-1.892a4.645,4.645,0,0,1,6,.838l7.267,8.258,15.31,35.123,13.508,41.876,1.351-29.719-.45-37.824,1.8-25.216,2.251-9.906,10.807.45,4.5,11.258,4.053,27.467,4.052,66.192,3.152.9,12.608-44.578,6.3-20.263L828.6,94.9l4.5-4.953L843.462,93.1l.45,11.707-5.4,18.462-4.953,23.865L825,189.011l-6.754,32.421,15.31-8.105,12.607-12.158,22.965-9.006,8.1,2.252,3.6,6.754-22.064,22.064-19.812,15.76L831.3,250.25l-31.52,27.467-31.97,73.4S749.352,376.329,674.6,335.354Z" fill="none"/>
    </clipPath>
    <clipPath id="clip-path-3">
      <path id="Trazado_35238" data-name="Trazado 35238" d="M817.525,355.617,789.373,295.6l-24.964-12.748-38.775-24.433-16.022-17.5L690.623,224.9l-14.708-17.128,4.841-5.585,23.643,6.516,15.08,12.659,13.06,6.771h4.78l-17-50.992-6.374-27.62,9.03-6.374,6.374,4.249,20.715,35.588,4.25-.531.531-52.586,1.593-6.9L766,121.9l6.374,7.436,3.187,14.342,4.249,33.463,3.719.531,11.685-41.431,3.718-5.311,10.093,1.593,1.062,5.312-.531,35.588,3.187,7.968,20.184-36.651,5.843,4.781,1.593,14.872-8.5,36.651,4.249,40.9v20.716l62.146,70.645S867.986,363.584,817.525,355.617Z" fill="none"/>
    </clipPath>
  </defs>
  <g id="Grupo_18926" data-name="Grupo 18926" transform="translate(-11446 -9942)">
    <path id="Trazado_35208" data-name="Trazado 35208" d="M656.692,157.919s-34.946,76.52,7.833,122.311,84.352,69.289,130.746,61.456,137.976-57.841,133.156-134.36-71.1-56.034-92.185-57.239S707.906,53.082,656.692,157.919Z" transform="translate(10802.755 9862.408)" fill="#a5d4eb"/>
    <path id="Trazado_35209" data-name="Trazado 35209" d="M768.224,111.969a17.018,17.018,0,0,0,9.069,1.268,8.892,8.892,0,0,0,6.944-5.471,4.571,4.571,0,0,0,.247-2.168,5.921,5.921,0,0,0-1.044-2.291c-3.831-5.746-13.312-14.937-20.735-9.622C754.788,99.352,761.476,109.351,768.224,111.969Z" transform="translate(10802.755 9862.408)" fill="#7cb3ce" style="mix-blend-mode: overlay;isolation: isolate"/>
    <path id="Trazado_35210" data-name="Trazado 35210" d="M816.478,136.786c10.376,6,22.716,9.805,34.38,7.049s21.875-13.61,20.863-25.553a9.546,9.546,0,0,0-2.112-5.719,12.361,12.361,0,0,0-4.55-2.724L833.175,96.562c-10.238-4.263-33.157-10.738-38.909,4.073S805.388,130.375,816.478,136.786Z" transform="translate(10802.755 9862.408)" fill="#a5d4eb"/>
    <g id="Grupo_18918" data-name="Grupo 18918" transform="translate(10802.755 9862.408)" opacity="0.45">
      <g id="Grupo_18917" data-name="Grupo 18917" clip-path="url(#clip-path)">
        <path id="Trazado_35211" data-name="Trazado 35211" d="M656.692,157.919s-34.946,76.52,7.833,122.311,84.352,69.289,130.746,61.456,137.976-57.841,133.156-134.36-71.1-56.034-92.185-57.239S707.906,53.082,656.692,157.919Z" fill="#7cb3ce" style="mix-blend-mode: multiply;isolation: isolate"/>
      </g>
    </g>
    <g id="Grupo_18925" data-name="Grupo 18925" transform="translate(10802.755 9862.408)">
      <path id="Trazado_35213" data-name="Trazado 35213" d="M674.6,335.354l40.075-58.537,8.556-19.363-10.807-53.583-17.561-45.479L688.2,126.717a3.756,3.756,0,0,1,1.659-3.944h0a4.678,4.678,0,0,1,5.354.231l5.058,3.868,22.515,37.374,18.461,29.718,4.053-2.7-14.409-54.935-7.655-26.567v-8.974a5.006,5.006,0,0,1,2.3-4.211l1.14-.733a3.961,3.961,0,0,1,5.115.715l7.656,8.7,15.31,35.123,13.508,41.876,1.351-29.719-.45-37.824,1.8-25.216,2.251-9.906,10.807.45,4.5,11.258,4.053,27.467,4.052,66.192,3.152.9,12.608-44.578,6.3-20.263L828.6,94.9l4.5-4.953L843.462,93.1l.45,11.707-5.4,18.462-4.953,23.865L825,189.011l-6.754,32.421,15.31-8.105,12.607-12.158,22.965-9.006,8.1,2.252,3.6,6.754-22.064,22.064-19.812,15.76L831.3,250.25l-31.52,27.467-31.97,73.4S749.352,376.329,674.6,335.354Z" fill="#fab481"/>
      <path id="Trazado_35214" data-name="Trazado 35214" d="M689.61,127.087s1.383,7.781,2.421,8.473,2.075-1.211,6.916-2.767c0,0-2.248-6.4-3.977-7.435S689.61,125.185,689.61,127.087Z" fill="#f4d0b8" opacity="0.6"/>
      <path id="Trazado_35215" data-name="Trazado 35215" d="M724.709,102.362s.692,7.954,1.9,8.646,9.164-1.557,9.682-3.977-5.014-9.51-6.57-8.818S725.055,99.25,724.709,102.362Z" fill="#f4d0b8" opacity="0.6"/>
      <path id="Trazado_35216" data-name="Trazado 35216" d="M774.851,84.9s-1.729,8.991-1.211,9.337,6.57-1.21,10.374,0-.691-10.893-1.9-10.72S775.369,82.133,774.851,84.9Z" fill="#f4d0b8"/>
      <path id="Trazado_35217" data-name="Trazado 35217" d="M832.21,94.837c-1.366,1.63-4.452,5.624-3.241,7.7,1.131,1.94,4.529,1.009,9.769,3.562a1.713,1.713,0,0,0,2.111-.5c1.256-1.629,1.564-5.613,1.218-8.207-.254-1.906-3.886-3.565-5.255-3.778C834.271,93.219,833.238,93.609,832.21,94.837Z" fill="#f4d0b8"/>
      <g id="Grupo_18920" data-name="Grupo 18920">
        <g id="Grupo_18919" data-name="Grupo 18919" clip-path="url(#clip-path-2)">
          <path id="Trazado_35218" data-name="Trazado 35218" d="M869.139,214.2s-4.38-5.735-3.858-8.029,9.592-7.507,10.948-7.4,5.005,3.024,4.9,3.858S870.494,214.092,869.139,214.2Z" fill="#f4d0b8"/>
          <path id="Trazado_35219" data-name="Trazado 35219" d="M847.341,236.117c1.436,2.034-26,8.58-28.483,3.279a61.017,61.017,0,0,1-4.91-15.789,20.46,20.46,0,0,1-.007-8.556c.995-3.771,3.73-6.848,6.749-9.317,4.456-3.646,20.469-13.714,22.151-5.61,2.583,12.44-1.251,17.652-1.526,21.477C840.971,226.4,844.508,232.1,847.341,236.117Z" fill="#fab481" opacity="0.6" style="mix-blend-mode: multiply;isolation: isolate"/>
          <path id="Trazado_35220" data-name="Trazado 35220" d="M717.8,200.787c-.915-4.233-5.169-18.652-5.477-21.909-.791-8.366,1.173-12.546.821-17.8-.874-13.066-.447-13.025,1.1-14.515,3.444-3.326,6.841-.662,10.531,2.388s5.637,7.673,7.373,12.135c3.307,8.5,6.337,17.107,9.3,25.733,5.79,16.861,11.4,34.391,9.848,52.151a5.06,5.06,0,0,1-.894,2.9c-.519.614-26.659,3.031-37.8-30.4C708.763,199.966,719.991,210.921,717.8,200.787Z" fill="#fab481" opacity="0.6" style="mix-blend-mode: multiply;isolation: isolate"/>
          <path id="Trazado_35221" data-name="Trazado 35221" d="M764.357,143.425c-2.674-4.707-18.348-35.48-17.527-12.748.649,17.932-13.97,31.91-8.944,45.53,2.092,5.668,5.7,11.432,11.485,13.159,7.1,2.119,14.751-2.969,18.078-9.592,3.055-6.084,3.463-13.32,3.563-20.018C771.1,153.53,767.347,148.686,764.357,143.425Z" fill="#fab481" opacity="0.6" style="mix-blend-mode: multiply;isolation: isolate"/>
          <path id="Trazado_35222" data-name="Trazado 35222" d="M800.652,140.812c-1.575-3.164-18.492,23-23.348-11.071-.458-3.218-2.018-6.664-4.969-8.027-2.758-1.274-6.171.037-8.172,2.322s-2.883,5.323-3.557,8.285c-3.174,13.964-2.877,28.954,2.5,42.225,2.074,5.114,5.4,10.357,10.716,11.84,4.921,1.373,10.213-.947,14.046-4.324,6.056-5.336,9.311-12.942,11.591-20.514C801.574,154.538,804.18,147.9,800.652,140.812Z" fill="#fab481" opacity="0.6" style="mix-blend-mode: multiply;isolation: isolate"/>
          <path id="Trazado_35223" data-name="Trazado 35223" d="M810.537,141.86c1.075-1.77,5.493-16.351,7.5-15.839,1.9.483-7.669,20.814,13.419,29.852,3.468,1.486-35.687,21.96-35.752,14.779-.049-5.352.893-11.211,4.009-15.694,1.575-2.265,3.709-3.2,5.6-5.029C807.543,147.782,808.94,144.488,810.537,141.86Z" fill="#fab481" opacity="0.6" style="mix-blend-mode: multiply;isolation: isolate"/>
          <path id="Trazado_35224" data-name="Trazado 35224" d="M754.193,338.929c1.477-5.034,2.627-10.311,1.856-15.5A31.052,31.052,0,0,0,750.8,311c-9.634-14.479-25.711-23.916-34.548-38.894-2.415-4.093-4.27-8.705-4.085-13.454s2.784-9.615,7.178-11.425a17.05,17.05,0,0,1,5.795-1.031c16.163-.7,31.8,5.44,47.868,7.285,9.733,1.117,20.118.8,28.552,5.782a34.244,34.244,0,0,1,9.836,9.289c12.436,16.778,13.43,41.284,2.185,58.882-4.887,7.647-11.693,13.845-18.518,19.825-7.4,6.481-15.022,12.89-23.867,17.191-4.627,2.251-24.422,9.674-27.992,2.814-1.521-2.923,4.022-10.126,5.31-12.985A118.708,118.708,0,0,0,754.193,338.929Z" fill="#fab481" opacity="0.6" style="mix-blend-mode: multiply;isolation: isolate"/>
        </g>
      </g>
      <g id="Grupo_18924" data-name="Grupo 18924">
        <path id="Trazado_35226" data-name="Trazado 35226" d="M722.061,261.427c-2.067,1.509-3.282,4.375-2.3,6.738s4.521,3.4,6.288,1.553a3.124,3.124,0,0,0-3.662,1.771,6.754,6.754,0,0,0-.2,4.38,11.286,11.286,0,0,0,3.7,6.473,8.64,8.64,0,0,0,12.235-2.186c-.166,1.519,1.41,2.77,2.936,2.847a8.511,8.511,0,0,0,4.3-1.392,9.38,9.38,0,0,0-1.333,3.361,3.192,3.192,0,0,0,1.342,3.162,3.637,3.637,0,0,0,1.871.381,8.082,8.082,0,0,0,6.644-3.829,12.715,12.715,0,0,0-3.977,4.469c-.8,1.85-.475,4.352,1.251,5.391,2.883,1.736,6.716-1.706,9.821-.407-2.052,2.215-5.969,3.382-5.918,6.4a3.161,3.161,0,0,0,4.8,2.341,5.149,5.149,0,0,0,3.268,4.616,15.107,15.107,0,0,0,5.9.932,3.639,3.639,0,0,0,2.6-.606,3.6,3.6,0,0,0,.795-1.324l2.379-5.689c.332,2.969,1.276,6.64,4.212,7.189a4.814,4.814,0,0,0,4.751-2.613,14.024,14.024,0,0,0,1.388-5.571,14.886,14.886,0,0,1,11.646,1.667,7.32,7.32,0,0,0,2.367,1.18c1.764.335,3.491-1.077,4.107-2.764a10.312,10.312,0,0,0,.073-5.321,63.372,63.372,0,0,0-3.316-11.844,20.082,20.082,0,0,0-3.776-6.62,23.806,23.806,0,0,0-6.285-4.318c-10.486-5.654-21.006-11.324-32.118-15.618-5.057-1.953-10.221-3.616-15.413-5.178-5.276-1.586-13.338-3.936-18.727-1.321a8.817,8.817,0,0,0-4.082,5.034C719.131,255.942,718.354,264.134,722.061,261.427Z" fill="#fff"/>
        <path id="Trazado_35227" data-name="Trazado 35227" d="M840.065,252.739a8.131,8.131,0,0,0-.217-9.621,4.29,4.29,0,0,0,2.983-4.466,7.869,7.869,0,0,0-2.685-5.034c-1.2-1.145-2.75-2.36-2.637-4.018a8.445,8.445,0,0,1,.7-2.137,5.536,5.536,0,0,0-2.5-6.479A12.47,12.47,0,0,0,839.1,217.9a4.232,4.232,0,0,0,.4-4.351c-.9-1.547-3.067-2.215-3.543-3.942-.464-1.681.951-3.292,1.139-5.025a4.692,4.692,0,0,0-2.76-4.447,9.427,9.427,0,0,0-5.459-.591c-1.946.27-4.066,1.006-4.93,2.77a7.161,7.161,0,0,0-.537,2.645q-.441,5.994-.883,11.989a55.319,55.319,0,0,0-.171,9.007c.71,7.874,4.684,14.86,7.279,22.19.7,1.975,1.065,6.03,3,7.27C835,256.945,838.65,254.668,840.065,252.739Z" fill="#fff"/>
        <path id="Trazado_35228" data-name="Trazado 35228" d="M838.718,191.56c2.782-1.432,4.356-5.387,2.424-7.848a5.2,5.2,0,0,0,5.121-1.786,3.722,3.722,0,0,0-.65-5.09c2.544-1.077,3.007-4.657,1.92-7.2s-3.21-4.475-4.709-6.8c-1.59-2.464-2.688-5.577-5.361-6.782a1.454,1.454,0,0,0-.924-.16c-.545.134-.8.744-.98,1.277q-1.256,3.78-2.513,7.559a7.344,7.344,0,0,1-.936,2.071,19.643,19.643,0,0,1-1.581,1.621c-1.576,1.7-2.013,4.161-2.062,6.479s.217,4.665-.248,6.936c-.739,3.614,1.019,5.577,2.752,8.551C832.531,193.073,835.92,193,838.718,191.56Z" fill="#fff"/>
        <path id="Trazado_35229" data-name="Trazado 35229" d="M809.186,140.911c2.214.605,2.277,3.691,1.859,5.948a4.1,4.1,0,0,0,2.584-.766,11.793,11.793,0,0,1,.52,4.9c.446-.8,1.8-.463,2.2.363a3.82,3.82,0,0,1-.111,2.68c1.063-1.191,1.774-2.763,3.161-3.553s3.745.072,3.434,1.638a7.276,7.276,0,0,1,1.97-2.383,2.481,2.481,0,0,1,2.9-.052,2.992,2.992,0,0,1,.831,1.456c1.419,4.691-1.416,9.471-3.643,13.837a62.565,62.565,0,0,0-4.075,10.07,30.752,30.752,0,0,1-2.758,7.292c-1.368,2.219-3.674,4.064-6.281,4.072a7.932,7.932,0,0,1-5.483-2.646c-4.465-4.556-4.981-11.591-4.866-17.969C801.5,162.075,800.364,138.5,809.186,140.911Z" fill="#fff"/>
        <path id="Trazado_35230" data-name="Trazado 35230" d="M777.4,149.374a4.37,4.37,0,0,1,2.271-.829c.817.023,1.669.712,1.543,1.52.541-1.72,1.592-3.807,3.388-3.653a10.963,10.963,0,0,1,6.464-4.886,2.836,2.836,0,0,1,2.1.052,2.945,2.945,0,0,1,1.072,1.3c2.653,5.123,2.394,11.221,1.787,16.958-.3,2.84-.671,5.671-1.041,8.5-.3,2.289-.641,4.69-2.021,6.541a8.173,8.173,0,0,0-.932,1.321,9.026,9.026,0,0,0-.472,2.2c-.791,4.089-5.394,6.095-9.444,7.071a1.9,1.9,0,0,1-1.316-.007,1.937,1.937,0,0,1-.779-1.325,44.138,44.138,0,0,1-1.355-6.549,27.152,27.152,0,0,0-.695-5.382,26.857,26.857,0,0,0-2.338-4.592c-2.945-5.434-3.252-11.439-3.692-17.458-.129-1.773-.778-3.664.646-5.022C775.928,141.95,777.24,149.467,777.4,149.374Z" fill="#fff"/>
        <path id="Trazado_35231" data-name="Trazado 35231" d="M749.6,140.743a6.211,6.211,0,0,0-2.922,8.281,1.776,1.776,0,0,0,1.989-2.272,4.277,4.277,0,0,0-3.431,2.77,12.581,12.581,0,0,0-.7,4.565,1.407,1.407,0,0,0-1.92-1.457,1.775,1.775,0,0,0-.532,2.578,1.812,1.812,0,0,0-2.47-1.2c-.448.224-.779.631-1.211.886-1.794,1.058-3.881-.927-5.959-1.076-2.18-.157-4.015,1.843-4.554,3.962-1.083,4.254,1.6,8.468,4.192,12.013a64.032,64.032,0,0,0,6.229,7.627,34.133,34.133,0,0,0,18.958,9.562,5.565,5.565,0,0,0,3.057-.165,4.83,4.83,0,0,0,2.242-2.55,22,22,0,0,0,1.5-7.964c.634-11.175.416-22.536-2.2-33.47-1.008-4.208-1.32-8.014-6.1-8-2,0-4.459-.16-5.939,1.449C749.332,136.81,748.3,141.3,749.6,140.743Z" fill="#fff"/>
        <path id="Trazado_35232" data-name="Trazado 35232" d="M719.92,185.015a6.334,6.334,0,0,0-1.518,4.794,12.518,12.518,0,0,0,1.206,3.694q1.125,2.519,2.248,5.037c.064-.349-.492-.526-.759-.292a1.219,1.219,0,0,0-.275.992,11,11,0,0,0,4.363,8.263l-.641-1.958a2.056,2.056,0,0,0-1.8,1.662,6.015,6.015,0,0,0,.145,2.616c-1.8-1.809-4.951-2.435-6.945-.839s-1.611,5.478.856,6.142a2.442,2.442,0,0,0-3.519-.84,4.653,4.653,0,0,0-1.8,3.57c-.122,1.375.082,2.76.011,4.139a12.048,12.048,0,0,0-.015,4.027c.528,1.786,2.289,2.941,4.067,3.492s3.671.655,5.455,1.19c2.53.758,4.719,2.341,7.081,3.524s5.164,1.965,7.625,1a7.789,7.789,0,0,0,4.29-4.981,19.023,19.023,0,0,0,.6-6.73c-.522-11.439-3.78-22.537-8.028-33.106-1.542-3.837-10.247-28.956-16.222-19.2a9.858,9.858,0,0,0-.975,7.79C715.553,179.652,719.112,185.935,719.92,185.015Z" fill="#fff"/>
        <g id="Grupo_18923" data-name="Grupo 18923">
          <path id="Trazado_35233" data-name="Trazado 35233" d="M817.525,355.617,789.373,295.6l-24.964-12.748-38.775-24.433-16.022-17.5L690.623,224.9l-14.708-17.128,4.841-5.585,23.643,6.516,15.08,12.659,13.06,6.771h4.78l-17-50.992-6.374-27.62,9.03-6.374,6.374,4.249,20.715,35.588,4.25-.531.531-52.586,1.593-6.9L766,121.9l6.374,7.436,3.187,14.342,4.249,33.463,3.719.531,11.685-41.431,3.718-5.311,10.093,1.593,1.062,5.312-.531,35.588,3.187,7.968,20.184-36.651,5.843,4.781,1.593,14.872-8.5,36.651,4.249,40.9v20.716l62.146,70.645S867.986,363.584,817.525,355.617Z" fill="#fab481"/>
          <g id="Grupo_18922" data-name="Grupo 18922">
            <g id="Grupo_18921" data-name="Grupo 18921" clip-path="url(#clip-path-3)">
              <path id="Trazado_35234" data-name="Trazado 35234" d="M786.268,177.508c-3.991.734-2.788,1.008-3.908-2.892s-3.223-5.307-2.08-9.2c2.812-9.581,6.845-20.393,12.981-28.4,1.85-2.416,5.348-4.567,7.509-1.055C802.872,139.372,790.173,176.79,786.268,177.508Z" fill="#fab481" opacity="0.6" style="mix-blend-mode: multiply;isolation: isolate"/>
              <path id="Trazado_35235" data-name="Trazado 35235" d="M828.784,235.338c.985,8.066,2.416,16.325,6.4,23.405,2.309,4.1,11.748-19.569,8.132-31.437-2.659-8.728-5.055-17.809-4.012-26.873.752-6.538,3.259-12.721,5.141-19.028a101.887,101.887,0,0,0,3.782-19.35c.586-6.089.57-13.285-3.842-18.081-2.931-3.185-9.034-6.09-13.031-3.119-8.52,6.332,3.486,12.436,4.48,19.947C836.983,169.455,822.692,185.451,828.784,235.338Z" fill="#fab481" opacity="0.6" style="mix-blend-mode: multiply;isolation: isolate"/>
              <path id="Trazado_35236" data-name="Trazado 35236" d="M753.665,261.665c8.662,2.742,17.969,4.221,25.475,9.34,6.519,4.445,11.826,11.651,19.661,12.581,7.526.894,15.257-4.477,22.379-1.886-9.558,9.016-12.9,23.8-8.842,36.3s15.023,22.321,27.714,25.727a42.638,42.638,0,0,0,17.839.9c9.539-1.553,18.272-6.3,27.682-8.5,5.92-1.385,13.317-1.173,16.627,3.927,3.737,5.756-.443,13.473-5.633,17.964-10.353,8.96-24.366,12.329-37.943,14.1-11.948,1.555-24.429,2.041-35.71-2.189-13.074-4.9-23.038-15.528-32.377-25.91-20.157-22.411-40-45.542-64.485-63.119-7.651-5.492-15.755-10.441-22.6-16.909-7.783-7.353-13.689-16.429-19.517-25.411-4.721-7.275-10.257-15.581-10.577-24.566-.384-10.767,8.307-5.148,12.941-.661,12.971,12.56,25.946,25.379,41.053,35.4A105.466,105.466,0,0,0,753.665,261.665Z" fill="#fab481" opacity="0.6" style="mix-blend-mode: multiply;isolation: isolate"/>
              <path id="Trazado_35237" data-name="Trazado 35237" d="M687.921,222.422s4.826-5.365,4.49-7.693-8.959-8.254-10.318-8.258-5.232,2.612-5.2,3.452S686.578,222.209,687.921,222.422Z" fill="#f4d0b8"/>
            </g>
          </g>
        </g>
        <path id="Trazado_35239" data-name="Trazado 35239" d="M737.533,171.2a2.438,2.438,0,0,0,2.553,2.06,12.907,12.907,0,0,0-.139,5.538c.489,1.8,2.02,3.454,3.883,3.453a6.992,6.992,0,0,0,5.412,11.338,3.737,3.737,0,0,0,.676,3.02c.766.745,2.479.226,2.252-.817-1.46,1.832-1.026,4.984,1.059,6.053s5.1-.855,4.717-3.166c-.368-2.207-3.1-3.413-3.494-5.617,1.591.045,3.627-.219,4.044-1.756.131-.486.054-1.01.18-1.5a7.308,7.308,0,0,1,.961-1.683,3.859,3.859,0,0,0-1.279-5.012c1.749-.3,2.224-2.712,1.586-4.368s-1.942-3.031-2.349-4.759c-.806-3.422,2.139-6.951,1.194-10.338a6.559,6.559,0,0,1-.391-1.549,4.948,4.948,0,0,1,.848-2.292,9.305,9.305,0,0,0,.656-6.834,1.77,1.77,0,0,0-.7-1.106,1.953,1.953,0,0,0-1.136-.131c-2.093.179-4.538.58-5.5,2.445-.636,1.227-.4,2.7-.354,4.078a13.571,13.571,0,0,1-1.08,5.736c-1.708,4-8.889-1.808-11.731-2.267a3.092,3.092,0,1,0-1.221,6.053A6.058,6.058,0,0,0,737.533,171.2Z" fill="#fff"/>
        <path id="Trazado_35240" data-name="Trazado 35240" d="M831.144,246.511a4.159,4.159,0,0,0-1.506,6.55,12.466,12.466,0,0,0-2.888,7.723,4.267,4.267,0,0,0,.779,2.878,1.9,1.9,0,0,0,2.687.3,4.443,4.443,0,1,0,5.617,5.5c-1.279.968-1.187,3.049-.205,4.317a7.949,7.949,0,0,0,4.1,2.373,3.941,3.941,0,0,0,2.2.221,1.452,1.452,0,0,0,1.1-1.682,2.378,2.378,0,0,0-1.223,2.267,17.474,17.474,0,0,0,6.775-.018,8.573,8.573,0,0,0-5.675-8.513c1.615-1.106,1.929-3.469,1.245-5.3a13.349,13.349,0,0,0-3.533-4.625c2.178-.9,2.484-3.806,2.448-6.163-.073-4.914-.214-10.081-2.71-14.316a5.885,5.885,0,0,0-3.219-2.895C832.125,233.715,828.112,242.9,831.144,246.511Z" fill="#fff"/>
        <path id="Trazado_35241" data-name="Trazado 35241" d="M727.534,228.626a5.3,5.3,0,0,0,2.525,7.451c.733.272,1.522.372,2.251.656a11.757,11.757,0,0,0,2.543,1.041,2.752,2.752,0,0,0,2.9-3.2c.876,1.6,3.537,1.563,4.569.06a3.5,3.5,0,0,0-1.192-4.738,2.645,2.645,0,0,0,2.7-2.281,7.692,7.692,0,0,0-.58-3.819,18.172,18.172,0,0,0-2.312-5.116,6.15,6.15,0,0,0-4.7-2.724,16.25,16.25,0,0,0-1.761-15.034c-3.053.588-5.021-4.577-8.049-3.871-1.56.364-2.331,2.232-2.158,3.825a18.7,18.7,0,0,0,1.582,4.518c1.742,4.534,2.514,11.816-1.289,14.993-1.577,1.319-3.031,1.834-2.616,4.171A5.52,5.52,0,0,0,727.534,228.626Z" fill="#fff"/>
      </g>
      <path id="Trazado_35242" data-name="Trazado 35242" d="M706.378,253.376a4.23,4.23,0,0,0-1.706,4.816,5.017,5.017,0,0,0,3.354.421,3.251,3.251,0,0,0-1.6,4.263,1,1,0,0,1,1.455.812c-.011.892-1.144,1.948-.4,2.434a1.109,1.109,0,0,0,.75.081,8.025,8.025,0,0,0,3.265-.968c1.8-1.133,2.544-3.389,2.784-5.5a3.965,3.965,0,0,1,.466-1.8c.192-.288.465-.514.665-.8a2.075,2.075,0,0,0-1.981-3.063,2.674,2.674,0,0,0-2.583-3.043l-.112.97c-1.144-.68-2.427-1.387-3.732-1.124s-2.249,2.076-1.263,2.969" fill="#fff"/>
      <path id="Trazado_35243" data-name="Trazado 35243" d="M852.5,245.74a7.2,7.2,0,0,0-2.8,3.379c-.4,1.433.534,3.311,2.022,3.257a1.565,1.565,0,0,0,.391,2.287,4.524,4.524,0,0,0,2.554.574l3.825.091a3.341,3.341,0,0,0,3-1.117,13.953,13.953,0,0,0,3.349-3.78,3.379,3.379,0,0,1,.654-1.017c.583-.52,1.505-.461,2.134-.925,1.023-.756.726-2.333.323-3.54-.923-2.764-2.247-5.921-5.067-6.653a2.913,2.913,0,0,1-.954-.33c-.329-.227-.507-.612-.8-.89-1.008-.971-2.263.05-2.681,1.009-2.293-2.8-5.331-2.636-7.293.283C850.3,239.641,849.481,248.134,852.5,245.74Z" fill="#fff"/>
      <path id="Trazado_35244" data-name="Trazado 35244" d="M854.473,262.061a2.852,2.852,0,0,0-2.636-.024,1.906,1.906,0,0,0-.839,2.352,1.439,1.439,0,0,0,2.276.376,1.92,1.92,0,1,0,2.685,2.46,1.343,1.343,0,1,0,1.236-2.3,1.372,1.372,0,0,0,.57-1.881,2.908,2.908,0,0,0-1.743-1.286c-.752-.253-1.776-.272-2.131.437a5.884,5.884,0,0,1-.369-2.634,1.984,1.984,0,0,0-1.534,2.279l1.906.055" fill="#fff"/>
    </g>
    <path id="Trazado_35245" data-name="Trazado 35245" d="M670.557,294.869a14.909,14.909,0,0,0-4.522-3.146,5.067,5.067,0,0,0-5.206.723c-1.3,1.236-1.528,3.2-1.543,4.993a35.474,35.474,0,0,0,9.3,24.088c5.9,6.394,14.5-.806,15.185-8.006C684.49,305.934,675.507,299.318,670.557,294.869Z" transform="translate(10802.755 9862.408)" fill="#7cb3ce" opacity="0.25" style="mix-blend-mode: overlay;isolation: isolate"/>
    <path id="Trazado_35246" data-name="Trazado 35246" d="M892.475,301.648c-1.675,1.548-3.466,3.33-3.611,5.606a7.978,7.978,0,0,0,.947,3.756c1.234,2.683,2.935,5.307,5.519,6.738,3.576,1.978,8.209,1.2,11.6-1.071s5.74-5.81,7.6-9.452a23.721,23.721,0,0,0,2.813-8.627c.434-5.126-3.809-13.366-10.16-10.713-2.334.975-3.97,3.694-5.707,5.418C898.578,296.181,895.475,298.876,892.475,301.648Z" transform="translate(10802.755 9862.408)" fill="#7cb3ce" opacity="0.25" style="mix-blend-mode: overlay;isolation: isolate"/>
  </g>
</svg>
