<svg xmlns="http://www.w3.org/2000/svg" width="383.97" height="259.336" viewBox="0 0 383.97 259.336">
  <g id="Grupo_17334" data-name="Grupo 17334" transform="translate(-291.971 -240.388)">
    <path id="Trazado_32150" data-name="Trazado 32150" d="M822.429,425.186c-10.562,16.609-20.642,34.858-24.968,55.4q-.082.386-.16.773c-.05.248-.1.5-.148.745q-.9,4.6-1.394,9.357a30.975,30.975,0,0,1-12.241,22.019,46.74,46.74,0,0,1-9.817,5.8c-14.562,6.494-35.064,8.44-57.825,7.144q-4.031-.229-8.15-.592a340.425,340.425,0,0,1-40.058-6.092c-5.235-1.1-10.46-2.32-15.637-3.633q-.815-.206-1.625-.414a196.686,196.686,0,0,1-24.09-7.9q-5.582-2.241-10.993-4.806a195.287,195.287,0,0,1-55.184-39.114,192.392,192.392,0,0,1-46.132-75.488c-6.58-20.1-9.711-40.829-5.239-59.027q.647-2.636,1.511-5.2c14.448-42.736,73.79-58.7,126.473-48.3a151.509,151.509,0,0,1,21.183,5.765c14.124,4.986,27.149,12.084,37.9,21.276A85.822,85.822,0,0,0,714,314.811q1.528.748,3.072,1.432c15.6,6.917,32.372,9.138,48.685,9.766q4.374.168,8.694.2c34.882.341,66.232-4.2,77.431,17.955C864.065,368.262,842.387,393.8,822.429,425.186Z" transform="translate(-179.474 -27.078)" fill="#bbe5fb"/>
    <path id="Trazado_32151" data-name="Trazado 32151" d="M2387.366,1186.318c-14.868,32.156-10.745,68.169-14.54,77.928-4.937,12.7-34.56,1.411-19.749-43.023a106.819,106.819,0,0,1,25.313-41.091A5.53,5.53,0,0,1,2387.366,1186.318Z" transform="translate(-1719.491 -784.124)" fill="#bbe5fb"/>
    <g id="Grupo_17322" data-name="Grupo 17322" transform="translate(291.971 240.388)">
      <path id="Trazado_32152" data-name="Trazado 32152" d="M787.076,951.891a2.876,2.876,0,0,0-2.3-1.968l-.043-.006q-.133-.019-.268-.025l-.093,0h-.126c-.053,0-.107,0-.16.009l-.1.009c-.071.008-.141.02-.212.034l-.072.015c-.083.019-.167.04-.25.066a2.871,2.871,0,0,0-1.684,1.422c-.021.042-.039.085-.059.128l-6.633-.038c0-.02,0-.039-.007-.059-.009-.079-.019-.158-.029-.237s-.019-.134-.029-.2-.022-.155-.035-.232-.023-.138-.035-.206-.026-.151-.04-.227-.027-.14-.041-.21-.029-.148-.045-.222-.031-.141-.047-.212-.033-.147-.05-.22-.035-.143-.052-.214-.036-.144-.054-.216-.039-.145-.058-.217-.039-.142-.059-.213-.043-.146-.064-.219-.042-.139-.064-.209-.046-.147-.07-.22-.045-.137-.068-.206-.05-.148-.076-.222-.047-.135-.072-.2-.054-.149-.082-.223-.05-.132-.076-.2-.058-.15-.088-.225-.052-.13-.079-.194-.062-.151-.095-.226-.054-.127-.082-.19-.067-.152-.1-.228l-.085-.185q-.053-.115-.107-.229l-.088-.181c-.038-.077-.076-.154-.114-.231l-.089-.174c-.04-.078-.081-.156-.122-.234l-.091-.168c-.043-.079-.085-.157-.129-.236l-.083-.147,5.36-1.348a2.04,2.04,0,0,0,1.466.775c.062,0,.123,0,.184,0l.052,0c.052,0,.1-.007.153-.013l.068-.01c.038-.006.076-.013.113-.021l.087-.021.064-.019c.062-.018.122-.039.181-.063l.029-.012q.056-.024.111-.05h0a2.046,2.046,0,1,0-1.853-3.648l-.023.012c-.039.021-.076.043-.114.066l-.034.022c-.036.023-.071.047-.106.073l-.024.019a2.025,2.025,0,0,0-.19.167l-.028.026c-.024.024-.046.05-.069.076l-.051.059c-.02.024-.039.049-.057.074s-.035.049-.052.075-.032.046-.047.07-.043.073-.063.111c-.01.019-.02.037-.03.057-.024.048-.046.1-.066.148-.008.02-.015.04-.022.06-.014.039-.027.078-.039.117-.006.022-.012.044-.018.065-.011.041-.02.084-.028.126,0,.02-.008.039-.011.059q-.013.081-.02.164l-5.476,1.865-.079-.124-.085-.129c-.056-.086-.113-.173-.171-.258l-.073-.107c-.063-.092-.125-.184-.19-.275l-.054-.075c-.072-.1-.144-.2-.218-.3v0q-.541-.733-1.142-1.422h0A21.559,21.559,0,0,0,767.8,938.3l-.042-.036q-.134-.115-.271-.227l-.05-.041q-.139-.114-.28-.225l-.023-.018q-.532-.419-1.09-.8l3.353-8.022q.117,0,.232-.012l.084-.01c.061-.008.121-.016.18-.028l.093-.019c.057-.013.113-.027.169-.043l.086-.025q.109-.035.214-.078c.028-.011.055-.024.083-.037.055-.024.109-.05.161-.078.035-.018.069-.039.1-.059s.073-.043.109-.066.073-.048.109-.073.059-.043.087-.065.076-.058.113-.089l.04-.036a2.918,2.918,0,0,0,.252-.252l.028-.031c.039-.046.076-.093.113-.141l.034-.045c.036-.05.071-.1.1-.153l.019-.032a2.877,2.877,0,1,0-4.942-2.946h0q-.043.074-.081.151l-.019.04q-.058.12-.105.246c-.011.029-.022.059-.032.089s-.026.079-.037.119-.028.1-.04.157c-.007.031-.014.062-.021.094-.014.07-.024.142-.033.214,0,.024-.005.048-.008.072-.008.085-.013.171-.013.259a2.868,2.868,0,0,0,.947,2.131l-2.6,8-.067-.038q-.451-.259-.914-.492l-.094-.047c-.082-.041-.165-.08-.247-.12l-.146-.069-.235-.107-.164-.072-.229-.1-.175-.072-.225-.091-.189-.072c-.072-.027-.144-.055-.216-.081q-.191-.069-.385-.135l-.19-.061-.23-.073-.2-.059-.228-.066-.2-.054-.235-.061-.192-.047-.253-.058-.176-.039c-.106-.022-.213-.043-.32-.063l-.112-.022c-.143-.026-.286-.05-.43-.072l-.145-.021c-.1-.014-.2-.028-.3-.041l-.172-.02c-.092-.011-.184-.021-.277-.03l-.177-.016-.28-.021-.172-.011c-.1-.006-.2-.01-.306-.014l-.147-.006c-.151,0-.3-.007-.454-.007q-.468,0-.93.028l.049-5.163c.045-.019.089-.04.132-.062l.047-.026c.034-.018.066-.038.1-.059l.05-.033c.03-.021.059-.043.088-.065l.044-.035q.055-.046.106-.1l.039-.04c.026-.027.052-.055.076-.084s.031-.039.046-.058.033-.043.048-.065.031-.045.046-.068.024-.039.036-.059.031-.052.044-.079l.015-.031a1.862,1.862,0,0,0,.086-.2l.009-.025c.012-.036.022-.072.032-.109,0-.011.006-.023.009-.034.009-.037.018-.075.024-.114,0-.008,0-.015,0-.023a1.807,1.807,0,1,0-3.572-.544h0c-.005.036-.009.071-.012.107,0,.009,0,.018,0,.028q-.005.084,0,.169c0,.019,0,.039,0,.059s0,.052.007.078.008.067.014.1.007.041.01.061c.009.044.019.088.031.131l.013.044c.016.051.033.1.053.154a1.8,1.8,0,0,0,1.055,1.015l.378,5.21a17.47,17.47,0,0,0-7.67,2.887l-4.318-7.878q.072-.093.135-.189c.016-.024.03-.048.045-.073.032-.052.062-.1.09-.157.015-.028.03-.057.044-.086.026-.052.049-.105.071-.158.011-.028.024-.055.034-.083q.041-.107.072-.215c.008-.029.015-.059.023-.088.015-.058.029-.116.04-.174.008-.039.013-.078.019-.117s.012-.085.016-.127.008-.087.011-.131,0-.073,0-.109,0-.1,0-.144c0-.018,0-.035,0-.053a2.9,2.9,0,0,0-.04-.355c0-.014,0-.027-.007-.041-.011-.059-.025-.118-.04-.176,0-.018-.009-.036-.014-.055-.016-.06-.034-.119-.055-.177l-.012-.034a2.877,2.877,0,1,0-5.318,2.183l.019.039q.058.121.128.237c.016.027.032.053.049.08s.046.07.07.1.063.086.1.129c.02.025.04.051.062.076.046.054.1.107.147.159l.052.051c.062.059.126.117.194.171a2.868,2.868,0,0,0,1.842.628,2.909,2.909,0,0,0,.414-.04l5.016,7.6A21.916,21.916,0,0,0,739.8,944.7l-5.956-2.028q-.007-.083-.02-.164c0-.02-.008-.04-.011-.06-.008-.042-.017-.084-.028-.126-.006-.022-.012-.044-.018-.066-.012-.04-.025-.078-.039-.117-.007-.02-.014-.04-.022-.06-.02-.05-.042-.1-.065-.147-.01-.02-.021-.039-.031-.059-.02-.037-.04-.074-.062-.11s-.031-.047-.047-.071-.034-.05-.052-.074-.038-.05-.058-.074-.033-.039-.05-.059-.045-.052-.069-.076l-.027-.026a2.036,2.036,0,0,0-.191-.167l-.023-.018c-.034-.026-.07-.05-.105-.073l-.034-.022c-.037-.023-.075-.046-.114-.066l-.023-.012a2.046,2.046,0,1,0-1.853,3.648h0c.037.018.074.035.111.051l.029.011c.059.024.12.045.181.063l.063.018.087.021c.037.008.074.015.112.021l.07.01c.05.006.1.01.152.013l.053,0c.061,0,.122,0,.184,0a2.04,2.04,0,0,0,.957-.313c.056-.036.11-.073.161-.114a2.055,2.055,0,0,0,.347-.348l5.943,1.494a18.515,18.515,0,0,0-1.84,7.805c0,.206.006.411.014.614q0,.06.005.119c.01.205.023.409.041.611,0,.005,0,.01,0,.016q.029.317.071.628c0,.009,0,.018,0,.028q.044.32.1.635h0c.022.119.044.237.069.354l-7.728,2.218q-.074-.09-.154-.173c-.02-.02-.04-.039-.06-.059-.044-.043-.088-.084-.134-.123l-.073-.061c-.046-.037-.092-.071-.139-.1l-.073-.052q-.1-.063-.194-.117l-.082-.042c-.053-.027-.107-.053-.161-.077-.036-.016-.073-.03-.11-.044s-.08-.03-.12-.044-.083-.027-.126-.039-.07-.019-.106-.028-.093-.023-.14-.032l-.053-.008a2.923,2.923,0,0,0-.354-.039l-.042,0c-.06,0-.12,0-.181,0l-.056,0c-.062,0-.123.008-.185.014l-.036,0a2.877,2.877,0,1,0,.79,5.7h0c.057-.009.113-.019.169-.031l.042-.01q.131-.03.259-.072l.088-.03.117-.046c.049-.021.1-.043.146-.066l.089-.044c.063-.033.125-.069.186-.108l.062-.04c.071-.047.142-.1.21-.151a2.844,2.844,0,0,0,1.07-2.071l7.452-2.817a13.779,13.779,0,0,0,1.438,3.09l.039.062q.132.209.271.412l.027.041q.154.224.316.442l.029.038q.148.2.3.391l.047.059q.339.416.709.81l.061.064q.371.39.771.756l.067.061.106.1L738.65,969.2c-.066-.015-.133-.028-.2-.038l-.074-.009c-.053-.006-.105-.011-.158-.014l-.084,0c-.051,0-.1,0-.152,0l-.079,0q-.1.007-.2.022l-.078.014c-.052.01-.1.02-.154.033-.034.009-.067.019-.1.029s-.072.022-.107.034-.072.026-.108.04l-.088.038c-.038.017-.077.034-.114.052l-.042.023a2.62,2.62,0,0,0-.266.162l-.03.021c-.043.031-.084.063-.125.1l-.038.032c-.041.035-.081.071-.12.109l-.023.023a2.52,2.52,0,1,0,3.6,3.53h0c.035-.036.068-.073.1-.112l.024-.03q.075-.091.141-.188c.015-.023.031-.045.045-.068s.038-.062.057-.094.045-.082.066-.125c.013-.026.026-.051.037-.078.026-.057.05-.115.072-.174l.021-.061c.024-.071.046-.143.064-.217a2.513,2.513,0,0,0-.366-2.01l3.243-5.262.145.107.061.045q.223.163.453.319l.049.033q.205.139.416.273l.086.055c.158.1.318.2.479.292h0q.236.138.477.269l.1.055c.162.087.326.173.491.256h0c.169.084.339.166.512.246l.108.049q.225.1.454.2l.072.031q.261.11.527.214l.1.04q.224.086.452.168l.112.04q.27.1.544.183l.079.025q.239.076.482.146l.134.039c.187.053.375.105.564.154l.015,0c.183.047.368.091.554.134l.146.033q.258.057.518.109l.065.013.2.037-.754,6.331q-.112.034-.219.075l-.078.033c-.056.024-.111.049-.165.076l-.085.044q-.077.042-.15.088c-.025.016-.051.031-.076.048q-.1.064-.184.134c-.024.019-.046.039-.069.058-.046.039-.091.078-.134.119s-.056.056-.083.084-.059.062-.087.094-.057.066-.085.1-.044.058-.066.087-.057.077-.084.117l-.028.045a2.926,2.926,0,0,0-.173.311l-.019.038c-.025.055-.048.11-.07.167l-.02.053c-.021.058-.041.116-.058.176,0,.012-.006.024-.01.036a2.877,2.877,0,1,0,5.56,1.481h0q.021-.083.037-.167c0-.015.005-.029.008-.044q.023-.132.034-.266c0-.031.005-.062.007-.093s0-.083,0-.125,0-.107,0-.161c0-.032,0-.065-.006-.1-.006-.071-.015-.142-.027-.214,0-.024-.008-.048-.013-.072-.016-.084-.034-.168-.058-.252a2.857,2.857,0,0,0-1.28-1.672q-.1-.064-.215-.118l.231-6.271.159.018.133.014q.246.026.493.047l.152.013q.3.024.606.041l.1,0q.264.014.529.022l.167,0c.207.005.414.008.623.008a24.7,24.7,0,0,0,4.752-.453l1.3,4.27c-.037.031-.072.064-.106.1l-.036.038c-.026.027-.051.055-.075.084l-.037.046c-.022.028-.043.057-.063.087l-.031.046c-.025.04-.049.08-.071.121-.009.017-.017.034-.025.051-.016.033-.032.066-.046.1s-.018.046-.026.069-.018.05-.026.075-.016.052-.023.078-.011.044-.016.065-.013.058-.019.087c0,.011,0,.022,0,.033a1.823,1.823,0,0,0-.021.219c0,.009,0,.018,0,.026,0,.037,0,.074,0,.112,0,.012,0,.023,0,.035,0,.038.006.076.011.114l0,.023a1.78,1.78,0,1,0,3.517-.543h0a1.766,1.766,0,0,0-.127-.425l-.017-.035c-.025-.053-.052-.1-.083-.156-.009-.016-.018-.031-.028-.047a1.755,1.755,0,0,0-1.419-.821l-1.6-4.053a19.785,19.785,0,0,0,7-3.136l4.789,5.663c-.031.062-.059.125-.086.188l-.02.048c-.031.075-.059.151-.083.227l-.01.032q-.034.109-.061.219l-.008.03q-.028.12-.047.241l0,.031a3.375,3.375,0,0,0-.037.505v.01a3.425,3.425,0,1,0,5.39-2.816l-.028-.019q-.072-.049-.147-.1l-.045-.027c-.061-.036-.122-.071-.186-.1a3.445,3.445,0,0,0-.811-.294c-.1-.023-.207-.041-.31-.054-.063-.008-.125-.015-.188-.019a3.434,3.434,0,0,0-1.463.214l-5.167-5.184a14.059,14.059,0,0,0,4.687-10.572c0-.1,0-.192,0-.289l6.412.563q.037.111.082.217c.011.026.024.052.035.077.025.055.052.11.081.163.015.028.031.056.047.083.029.05.06.1.092.147.017.025.033.05.05.075q.066.093.139.179c.02.023.04.046.061.068.04.044.08.088.123.13s.058.054.087.081.064.057.1.084.068.055.1.082.059.043.089.064.079.055.119.08l.047.027a2.905,2.905,0,0,0,.315.163l.038.018c.055.023.112.044.169.065l.053.018q.088.029.177.053l.036.009a2.866,2.866,0,0,0,.636.084h0a2.875,2.875,0,0,0,2.8-3.751Z" transform="translate(-653.94 -811.141)" fill="#8cdba4"/>
      <path id="Trazado_32153" data-name="Trazado 32153" d="M482.827,1137.928a1.479,1.479,0,0,0-1.18-1.012l-.022,0c-.046-.006-.091-.011-.138-.013l-.048,0h-.065l-.082,0-.051,0c-.036,0-.073.01-.109.017l-.037.008c-.043.01-.086.02-.129.034a1.476,1.476,0,0,0-.866.731c-.011.021-.02.044-.03.066l-3.411-.019,0-.03c0-.041-.01-.081-.015-.122s-.01-.069-.015-.1-.011-.08-.018-.119-.012-.071-.018-.106-.013-.078-.021-.117-.014-.072-.021-.108-.015-.076-.023-.115-.016-.073-.024-.109-.017-.076-.026-.113-.018-.073-.027-.11-.018-.074-.028-.111-.02-.074-.03-.111l-.03-.109c-.011-.038-.022-.075-.033-.113l-.033-.107-.036-.113c-.011-.036-.023-.071-.035-.106l-.039-.114-.037-.1q-.021-.058-.042-.115l-.039-.1-.045-.116-.04-.1-.049-.116-.042-.1-.052-.117-.044-.1-.055-.118-.045-.093-.059-.119-.046-.089-.063-.12-.047-.086-.066-.121-.043-.076,2.757-.693a1.05,1.05,0,0,0,.754.4c.032,0,.063,0,.095,0H479c.026,0,.053,0,.079-.007l.035-.005.058-.011.044-.011.033-.01a.965.965,0,0,0,.093-.032l.015-.006.057-.026h0a1.052,1.052,0,1,0-.953-1.876l-.012.006-.058.034-.017.011-.054.038-.012.01a1.035,1.035,0,0,0-.1.085l-.014.014-.035.039-.026.03-.03.038-.027.038-.024.036c-.011.019-.022.038-.032.057l-.015.029c-.012.025-.024.05-.034.076l-.011.031q-.011.03-.02.06l-.009.034c-.005.021-.01.043-.014.065s0,.02-.006.03c0,.028-.008.056-.01.084l-2.816.959-.041-.063-.043-.066-.088-.133-.038-.055c-.032-.047-.064-.095-.1-.141l-.028-.038c-.037-.052-.074-.1-.112-.155h0q-.278-.377-.587-.731h0a11.072,11.072,0,0,0-1.138-1.127l-.022-.019-.139-.117-.025-.021-.144-.116-.012-.009q-.274-.216-.561-.412l1.724-4.125c.04,0,.08,0,.119-.006l.043-.005c.031,0,.062-.008.093-.014l.048-.01c.029-.006.058-.014.087-.022l.044-.013q.056-.018.11-.04l.042-.019c.028-.013.056-.026.083-.04l.053-.03.056-.034.056-.038.045-.034.058-.046.02-.019a1.472,1.472,0,0,0,.13-.129l.014-.016c.02-.024.039-.048.058-.073l.017-.023c.019-.026.037-.052.054-.078l.01-.016a1.479,1.479,0,1,0-2.541-1.515h0c-.015.025-.029.051-.042.078l-.01.021q-.03.062-.054.127c-.006.015-.012.03-.017.045s-.013.041-.019.062-.014.053-.021.081-.007.032-.01.049c-.007.036-.012.073-.017.11l0,.037c0,.044-.007.088-.007.133a1.475,1.475,0,0,0,.487,1.1l-1.337,4.115-.035-.02q-.232-.133-.47-.253l-.048-.024-.127-.062-.075-.036-.121-.055-.084-.037-.118-.051-.09-.037-.116-.047-.1-.037-.111-.042-.2-.069-.1-.032-.118-.038-.1-.03-.117-.034-.1-.028-.121-.031-.1-.024-.13-.03-.091-.02-.165-.032-.058-.011-.221-.037-.074-.01-.153-.021-.088-.01-.142-.015-.091-.008-.144-.011-.088-.006-.157-.007-.075,0c-.078,0-.155,0-.233,0q-.241,0-.478.014l.025-2.655.068-.032.024-.013.05-.03.026-.017.045-.033.023-.018c.019-.016.037-.033.055-.05l.02-.021c.013-.014.027-.028.039-.043l.024-.03.025-.033.024-.035.018-.03c.008-.013.016-.027.023-.04l.008-.016a.9.9,0,0,0,.044-.105l0-.013c.006-.018.011-.037.016-.056l0-.018c0-.019.009-.039.013-.058l0-.012a.929.929,0,1,0-1.837-.28h0c0,.018,0,.036-.006.055v.014q0,.043,0,.087c0,.01,0,.02,0,.03s0,.027,0,.04,0,.034.007.052,0,.021.005.031.01.045.016.068l.007.023c.008.026.017.053.027.079a.926.926,0,0,0,.543.522l.194,2.679a8.981,8.981,0,0,0-3.944,1.484l-2.22-4.051c.025-.031.048-.064.069-.1l.023-.037c.016-.026.032-.053.046-.081l.022-.044c.013-.027.025-.054.036-.081l.018-.043c.014-.037.026-.073.037-.111,0-.015.008-.03.012-.046s.015-.06.021-.09.007-.04.01-.06.006-.044.008-.065,0-.045.005-.068,0-.037,0-.056,0-.049,0-.074c0-.009,0-.018,0-.027a1.481,1.481,0,0,0-.02-.182l0-.021c-.006-.03-.013-.06-.021-.091l-.007-.028q-.013-.046-.028-.091l-.007-.018a1.479,1.479,0,1,0-2.735,1.123l.01.02c.02.042.042.082.066.122l.025.041c.012.018.024.036.036.053s.033.044.05.066l.032.039c.024.028.049.055.075.081l.027.026c.032.03.065.06.1.088a1.474,1.474,0,0,0,.947.323,1.5,1.5,0,0,0,.213-.021l2.579,3.91a11.269,11.269,0,0,0-3.055,3.64l-3.063-1.043c0-.028-.006-.056-.01-.084l-.006-.031c0-.022-.009-.043-.014-.065l-.009-.034c-.006-.02-.013-.04-.02-.06s-.007-.021-.011-.031c-.01-.026-.022-.051-.034-.076s-.01-.02-.016-.03-.021-.038-.032-.057l-.024-.036-.027-.038-.03-.038-.026-.03-.035-.039-.014-.013a1.014,1.014,0,0,0-.1-.086l-.012-.009c-.018-.013-.036-.026-.054-.038l-.017-.011-.058-.034-.012-.006a1.052,1.052,0,1,0-.953,1.876h0l.057.026.015.006c.03.012.061.023.093.032l.032.009.045.011.057.011.036.005q.039,0,.078.006h.027c.031,0,.063,0,.094,0a1.046,1.046,0,0,0,.492-.161c.029-.018.056-.037.083-.058a1.072,1.072,0,0,0,.179-.179l3.056.768a9.521,9.521,0,0,0-.946,4.013c0,.106,0,.212.007.316,0,.021,0,.041,0,.061q.008.158.021.314v.008q.015.163.037.323l0,.014q.023.164.052.326h0c.011.061.023.122.035.182l-3.974,1.141q-.038-.047-.079-.089l-.031-.03c-.023-.022-.045-.043-.069-.063l-.038-.031c-.023-.019-.047-.037-.072-.054l-.038-.027q-.049-.032-.1-.061l-.042-.022c-.027-.014-.055-.027-.083-.04l-.057-.023-.062-.022-.065-.02-.054-.014-.072-.017-.027,0a1.446,1.446,0,0,0-.182-.021h-.021c-.031,0-.062,0-.093,0h-.029q-.047,0-.095.007l-.019,0a1.479,1.479,0,1,0,.406,2.931h0l.087-.016.022-.005c.045-.01.089-.023.133-.037l.045-.015.06-.024.075-.034.045-.023q.049-.025.1-.055l.032-.021c.037-.024.073-.05.108-.078a1.461,1.461,0,0,0,.55-1.065l3.832-1.448a7.084,7.084,0,0,0,.74,1.589l.02.032q.068.107.139.212l.014.021q.079.115.163.227l.015.02q.076.1.156.2l.024.03q.174.214.365.417l.031.033q.19.2.4.389l.034.031.054.049-1.916,2.605c-.034-.008-.068-.014-.1-.019l-.038,0-.081-.007-.043,0h-.078l-.041,0c-.034,0-.068.006-.1.012l-.04.007-.079.017-.051.015-.055.018-.055.021-.045.019-.059.027-.022.012a1.327,1.327,0,0,0-.137.083l-.016.01c-.022.016-.043.033-.064.05l-.02.016c-.021.018-.042.037-.062.056l-.012.012a1.3,1.3,0,1,0,1.85,1.815h0c.018-.019.035-.038.052-.057l.013-.015q.038-.047.072-.1l.023-.035.029-.049q.018-.031.034-.064l.019-.04c.013-.029.026-.059.037-.09l.011-.031c.013-.036.024-.073.033-.112a1.292,1.292,0,0,0-.188-1.033l1.667-2.706.075.055.031.023q.115.084.233.164l.025.017q.105.071.214.14l.044.028c.081.051.163.1.246.15h0c.081.047.163.093.245.138l.052.028c.083.045.167.089.253.132h0c.087.044.175.086.263.127l.055.025q.116.053.234.1l.037.016q.134.057.271.11l.053.02.233.086.057.021q.139.049.28.094l.041.013q.123.039.248.075l.069.02q.144.041.29.079l.008,0c.094.024.189.047.285.069l.075.017q.132.03.266.056l.033.007.1.019-.388,3.255c-.038.011-.076.024-.113.039l-.04.017c-.029.012-.057.025-.085.039l-.044.023c-.026.014-.052.029-.077.045l-.039.025c-.032.022-.064.045-.095.069l-.036.03c-.024.02-.047.04-.069.061l-.043.043-.045.048-.044.052-.034.045c-.015.02-.03.04-.043.06l-.014.023a1.52,1.52,0,0,0-.089.16l-.01.02c-.013.028-.025.057-.036.086l-.01.027c-.011.03-.021.06-.03.09l-.005.018a1.479,1.479,0,1,0,2.859.761h0q.011-.042.019-.086l0-.022q.012-.068.017-.137c0-.016,0-.032,0-.048s0-.043,0-.065,0-.055,0-.083,0-.034,0-.05c0-.037-.008-.073-.014-.11,0-.012,0-.025-.007-.037-.008-.043-.018-.086-.03-.13a1.446,1.446,0,0,0-.049-.144,1.473,1.473,0,0,0-.609-.716c-.036-.022-.073-.042-.111-.061l.119-3.224.082.009.068.007.254.024.078.007c.1.008.207.015.312.021l.049,0,.272.011.086,0c.107,0,.213,0,.32,0a12.685,12.685,0,0,0,2.443-.233l.667,2.2c-.019.016-.037.033-.054.05l-.019.02c-.013.014-.026.028-.039.043l-.019.024-.033.045-.016.024c-.013.02-.025.041-.036.062l-.013.026c-.008.017-.016.034-.024.052l-.014.035c0,.012-.009.025-.013.038s-.008.027-.012.04-.006.023-.008.034-.007.03-.01.045,0,.011,0,.017a.924.924,0,0,0-.011.112s0,.009,0,.014,0,.038,0,.057,0,.012,0,.018,0,.039.006.059l0,.012a.915.915,0,1,0,1.809-.279h0a.911.911,0,0,0-.065-.218l-.009-.018a.882.882,0,0,0-.043-.08l-.014-.024a.935.935,0,0,0-.066-.092.913.913,0,0,0-.664-.33l-.824-2.084a10.174,10.174,0,0,0,3.6-1.613l2.462,2.912c-.016.032-.031.064-.044.1l-.01.025c-.016.039-.03.078-.043.117l0,.016q-.018.056-.031.113l0,.016c-.01.041-.018.082-.024.124l0,.016a1.777,1.777,0,0,0-.019.26v.005a1.761,1.761,0,1,0,2.772-1.448l-.015-.01c-.025-.017-.05-.033-.076-.049l-.023-.014c-.031-.019-.063-.036-.1-.053a1.758,1.758,0,0,0-.417-.151c-.053-.012-.106-.021-.16-.028l-.1-.01a1.766,1.766,0,0,0-.752.11l-2.657-2.666a7.229,7.229,0,0,0,2.41-5.436c0-.049,0-.1,0-.148l3.3.289c.013.038.027.075.042.111.006.014.012.026.018.04.013.028.027.057.041.084l.024.043c.015.026.031.051.047.076l.026.039c.023.032.046.063.072.092l.031.035c.02.023.041.045.063.067l.045.041.05.043.053.042.046.033c.02.014.04.028.061.041l.024.014a1.5,1.5,0,0,0,.162.084l.02.009c.028.012.057.023.087.033l.027.01c.03.01.061.019.091.027l.019,0a1.461,1.461,0,0,0,.327.043h0a1.478,1.478,0,0,0,1.439-1.929Z" transform="translate(-424.824 -978.316)" fill="#8cdba4"/>
      <path id="Trazado_32154" data-name="Trazado 32154" d="M340.566,737.9c.027.024.054.048.082.072l.087.069.076.054c.033.023.066.046.1.068l.041.023a2.414,2.414,0,0,0,.265.137l.034.015c.047.02.094.037.142.054l.046.016q.074.025.15.045l.031.008a2.422,2.422,0,0,0,.537.071h0a2.436,2.436,0,0,0,.425-4.841l-.036-.005q-.113-.016-.227-.022l-.079,0h-.106c-.045,0-.09,0-.136.008l-.083.008c-.06.007-.12.017-.18.028l-.061.013c-.071.016-.141.033-.212.056a2.428,2.428,0,0,0-1.475,1.312l-5.615-.032c0-.017,0-.033-.006-.05-.008-.067-.016-.134-.025-.2s-.016-.115-.025-.172-.019-.13-.029-.194-.02-.117-.03-.176-.022-.127-.033-.191-.023-.118-.034-.177-.025-.126-.038-.189-.026-.12-.04-.18-.027-.123-.042-.185-.03-.122-.045-.182-.03-.122-.046-.182-.033-.122-.049-.183-.033-.12-.05-.18-.036-.124-.054-.185-.035-.118-.054-.177-.039-.125-.06-.187-.038-.116-.057-.173-.043-.126-.065-.189-.04-.113-.06-.17-.046-.126-.07-.19-.042-.112-.064-.168-.05-.127-.075-.191l-.066-.164-.081-.193-.069-.16q-.042-.1-.086-.194l-.072-.156c-.03-.065-.06-.13-.091-.194l-.074-.152c-.032-.065-.064-.131-.1-.2l-.076-.148c-.034-.066-.068-.132-.1-.2l-.077-.142c-.036-.067-.072-.133-.109-.2l-.071-.124,4.538-1.141a1.757,1.757,0,0,0,.168.186,1.727,1.727,0,0,0,1.073.47,1.709,1.709,0,0,0,.214,0l.053,0a1.711,1.711,0,0,0,.17-.023l.037-.007a1.716,1.716,0,0,0,.408-.141h0a1.732,1.732,0,1,0-1.569-3.088l-.02.01q-.049.027-.1.057l-.029.018c-.03.02-.06.04-.089.062l-.02.016a1.763,1.763,0,0,0-.161.141l-.024.023c-.02.021-.039.043-.058.064l-.043.05c-.017.021-.033.041-.049.063s-.03.042-.044.063-.027.039-.039.06-.036.062-.053.094c-.008.016-.017.031-.025.047-.02.041-.039.083-.056.126-.007.017-.012.034-.019.051-.012.033-.023.066-.033.1-.005.018-.01.037-.015.055-.009.035-.017.071-.024.107,0,.017-.007.033-.01.05-.007.046-.013.092-.017.139l-4.636,1.578-.067-.1-.07-.107c-.048-.074-.1-.147-.145-.22l-.062-.09c-.053-.078-.107-.156-.161-.233l-.045-.063c-.061-.086-.122-.171-.184-.255h0q-.458-.622-.968-1.206h0a18.265,18.265,0,0,0-1.872-1.855l-.038-.032q-.114-.1-.228-.191l-.043-.035q-.117-.1-.236-.19l-.022-.017q-.45-.354-.921-.677l2.839-6.79q.1,0,.2-.01l.072-.009c.051-.006.1-.014.152-.023l.079-.016c.048-.011.1-.023.143-.037l.073-.021q.092-.03.181-.066l.07-.031c.046-.021.092-.042.137-.066s.058-.033.087-.049.062-.037.093-.057.062-.04.092-.062l.074-.055c.032-.025.065-.049.1-.076l.034-.03a2.481,2.481,0,0,0,.213-.212l.024-.027c.033-.039.064-.079.1-.119l.029-.039c.03-.042.06-.085.088-.129l.017-.027a2.417,2.417,0,0,0,.231-.49h0a2.436,2.436,0,0,0-4.415-2h0c-.024.042-.047.084-.069.128l-.016.034q-.049.1-.089.208c-.01.025-.019.05-.028.076s-.022.067-.031.1-.024.088-.034.133c-.006.026-.012.053-.017.079-.012.06-.021.12-.028.181,0,.02,0,.041-.006.061-.007.072-.011.145-.011.219a2.429,2.429,0,0,0,.8,1.8l.006,0-2.2,6.774-.059-.033q-.379-.218-.769-.414l-.084-.042-.209-.1-.124-.059-.2-.09-.14-.062-.193-.083-.15-.062-.189-.076-.163-.062-.18-.068q-.162-.059-.326-.114l-.16-.052-.2-.062-.165-.049-.194-.056-.166-.045-.2-.052-.162-.04-.216-.049-.147-.033c-.092-.019-.183-.037-.275-.054l-.091-.018q-.182-.033-.365-.061l-.121-.017-.255-.035-.143-.017-.237-.025-.148-.014-.238-.018-.144-.009-.261-.012-.122,0q-.192-.006-.385-.006-.4,0-.787.023l.041-4.37q.057-.024.112-.052l.039-.022c.028-.016.056-.032.083-.05l.042-.028q.038-.027.074-.055l.038-.03q.047-.039.09-.082l.033-.034c.022-.023.044-.047.064-.071l.039-.049.041-.055.039-.058.03-.05c.013-.022.026-.044.038-.066l.013-.026a1.558,1.558,0,0,0,.073-.173l.008-.022c.01-.03.019-.061.027-.092l.008-.03q.012-.048.021-.1l0-.02a1.529,1.529,0,1,0-3.024-.46h0a1.515,1.515,0,0,0-.005.381c0,.011,0,.022,0,.033a1.5,1.5,0,0,0,.028.149c0,.015.007.031.011.046a1.524,1.524,0,0,0,.059.178h0a1.526,1.526,0,0,0,.336.506q.053.053.11.1a1.718,1.718,0,0,0,.377.227c.023.01.047.017.07.026l.32,4.41a14.789,14.789,0,0,0-6.493,2.444l-3.655-6.669q.061-.078.114-.16c.013-.02.025-.041.038-.061.027-.044.053-.089.077-.134.013-.024.025-.048.037-.072.022-.044.041-.089.06-.135.01-.023.02-.047.029-.07.023-.06.043-.121.061-.183.007-.024.013-.049.019-.074.012-.049.024-.1.034-.148.006-.033.011-.066.016-.1s.01-.072.014-.108.007-.074.009-.111,0-.062,0-.093,0-.081,0-.122c0-.015,0-.03,0-.045a2.459,2.459,0,0,0-.033-.3c0-.011,0-.023-.006-.034-.009-.05-.021-.1-.034-.149l-.012-.046c-.014-.05-.029-.1-.046-.15l-.01-.029a2.435,2.435,0,1,0-4.559,1.714h0q.026.067.057.134l.016.034q.049.1.108.2c.014.023.027.046.041.068s.039.059.059.088.054.074.083.11.034.043.052.063c.039.046.081.091.124.135l.044.043c.052.05.106.1.164.145a2.426,2.426,0,0,0,1.325.525q.117.009.234.007a2.448,2.448,0,0,0,.351-.034l4.246,6.436a18.077,18.077,0,0,0-2.563,2.411,18.779,18.779,0,0,0-1.68,2.234q-.215.335-.415.678t-.371.669l-5.042-1.717c0-.047-.009-.093-.017-.139,0-.017-.006-.033-.01-.05-.007-.036-.015-.072-.024-.107q-.007-.028-.015-.055c-.01-.034-.021-.067-.033-.1-.006-.017-.012-.034-.019-.051-.017-.043-.036-.085-.056-.126-.008-.016-.017-.031-.025-.047-.017-.032-.035-.064-.054-.095s-.026-.04-.039-.059-.029-.043-.044-.063l-.049-.062-.043-.05c-.019-.022-.038-.044-.058-.064l-.024-.023a1.778,1.778,0,0,0-.16-.14l-.02-.016c-.029-.022-.059-.042-.089-.062l-.029-.019c-.031-.02-.063-.039-.1-.056l-.02-.01a1.736,1.736,0,0,0-.359-.14h0a1.732,1.732,0,1,0-.8,3.37l.037.007a1.678,1.678,0,0,0,.17.023l.053,0a1.709,1.709,0,0,0,.214,0,1.727,1.727,0,0,0,1.241-.656l5.031,1.265a15.671,15.671,0,0,0-1.558,6.607c0,.175,0,.348.012.52,0,.034,0,.067,0,.1.008.174.02.347.035.518v.011q.024.269.061.534l0,.022q.058.425.144.838l-6.541,1.878q-.063-.077-.131-.147c-.017-.017-.034-.034-.052-.05-.037-.036-.074-.071-.113-.1l-.062-.052c-.039-.031-.078-.06-.118-.088-.021-.015-.041-.03-.062-.044q-.081-.053-.165-.1l-.067-.035c-.045-.023-.091-.045-.137-.066-.031-.013-.062-.025-.093-.037l-.1-.037-.106-.033-.09-.023c-.04-.01-.079-.02-.119-.027l-.045-.007a2.441,2.441,0,0,0-.3-.033l-.036,0c-.051,0-.1,0-.153,0h-.048c-.052,0-.1.006-.156.012l-.031,0a2.435,2.435,0,1,0,.812,4.8l.035-.008c.074-.017.147-.037.22-.061l.074-.025.1-.039c.041-.017.082-.036.123-.056l.075-.038c.053-.028.105-.058.157-.091l.052-.034c.06-.04.12-.082.177-.128a2.429,2.429,0,0,0,.906-1.754l6.308-2.384a11.659,11.659,0,0,0,1.217,2.616l.033.051q.112.177.23.35l.023.034q.131.19.268.374l.024.032q.126.168.258.332l.039.049q.287.353.6.687l.051.054q.314.33.653.641l.056.051.09.082-3.155,4.289q-.084-.019-.169-.032l-.063-.008c-.045-.005-.089-.009-.134-.012l-.071,0c-.043,0-.086,0-.129,0l-.067,0c-.056,0-.112.01-.168.019l-.066.012c-.044.008-.087.017-.13.028l-.084.024-.091.029-.091.034-.075.032c-.033.014-.065.029-.1.045l-.035.019a2.13,2.13,0,0,0-.225.137l-.026.018c-.036.026-.071.054-.106.082l-.032.027c-.035.03-.069.06-.1.092l-.02.02a2.134,2.134,0,1,0,3.131,2.893l.021-.025q.063-.076.119-.159l.039-.059c.016-.026.032-.053.048-.079s.039-.07.056-.106.022-.043.031-.065c.022-.048.042-.1.061-.148l.018-.051c.02-.06.039-.121.055-.184a2.1,2.1,0,0,0-.31-1.7l2.745-4.454.124.092.05.037q.189.138.384.271l.04.027q.175.118.355.232l.071.045q.4.249.813.477l.085.046q.416.224.851.427l.09.041q.192.088.386.171l.059.026q.222.094.447.182l.086.033q.191.074.386.143l.093.033q.229.081.462.156l.066.021q.2.064.41.124l.112.032c.158.045.318.089.479.13l.009,0c.157.04.314.078.473.114l.121.027c.147.033.3.064.444.094l.05.01.169.032-.639,5.359q-.095.028-.186.063l-.066.028c-.048.02-.094.041-.14.064l-.072.037c-.043.023-.086.048-.127.074l-.065.04q-.08.054-.156.113l-.058.049c-.039.033-.077.066-.114.1s-.047.047-.07.072-.05.052-.074.079-.049.056-.072.085-.038.049-.056.074-.049.065-.071.1l-.024.039a2.438,2.438,0,0,0-.146.262l-.016.032c-.021.046-.04.093-.059.141l-.017.045c-.018.049-.035.1-.049.148l-.008.031a2.424,2.424,0,0,0-.088.535h0a2.436,2.436,0,0,0,4.795.717h0q.018-.07.031-.142c0-.012,0-.024.006-.037q.019-.112.029-.226c0-.026,0-.052.006-.079s0-.071,0-.106,0-.091,0-.136c0-.028,0-.055-.005-.083-.005-.06-.013-.121-.023-.181,0-.02-.007-.04-.011-.061-.013-.071-.029-.142-.049-.214a2.443,2.443,0,0,0-1.265-1.515l.2-5.308.136.016.11.011q.21.022.422.04l.126.011q.257.02.516.035l.076,0q.226.012.454.018l.138,0c.176,0,.352.007.529.007a20.9,20.9,0,0,0,4.022-.384l1.1,3.615q-.047.04-.089.082l-.031.032q-.033.035-.063.071l-.031.039c-.019.024-.037.049-.054.074l-.026.038q-.033.051-.061.1c-.007.014-.014.028-.021.042s-.027.057-.039.086-.015.039-.022.058-.015.042-.022.063-.014.044-.02.066-.009.037-.014.056-.011.049-.016.074c0,.009,0,.018,0,.028a1.5,1.5,0,0,0-.018.185c0,.008,0,.015,0,.023,0,.031,0,.063,0,.094,0,.01,0,.02,0,.03,0,.032,0,.064.009.1l0,.019a1.5,1.5,0,0,0,.083.326h0a1.507,1.507,0,0,0,2.894-.785h0a1.5,1.5,0,0,0-.108-.359l-.014-.03q-.031-.067-.07-.131l-.024-.04a1.441,1.441,0,0,0-.213-.265,1.5,1.5,0,0,0-.989-.43l-1.357-3.431a16.752,16.752,0,0,0,5.923-2.655L333.3,751.4q-.052.106-.1.213c-.011.027-.02.054-.03.08-.021.058-.041.115-.058.173q-.014.046-.026.093c-.015.057-.027.114-.038.171-.006.03-.012.059-.017.089q-.018.113-.028.227c0,.03,0,.061,0,.091,0,.06-.005.12,0,.18,0,.04,0,.08.005.119s.005.086.009.129.009.088.016.132.012.072.018.108.017.1.028.142c0,.017.01.034.014.052a2.885,2.885,0,0,0,.11.341l.015.04c.023.056.048.111.075.166l.025.051c.028.055.058.11.089.163l.02.032a2.878,2.878,0,0,0,.395.511h0a2.9,2.9,0,0,0,4.512-3.59h0c-.031-.048-.064-.1-.1-.142l-.027-.035q-.081-.107-.173-.207c-.021-.023-.042-.047-.064-.07s-.059-.059-.09-.088-.08-.073-.121-.108l-.076-.062c-.057-.044-.116-.086-.176-.127l-.062-.04c-.073-.046-.147-.09-.226-.13a2.918,2.918,0,0,0-.271-.122,2.868,2.868,0,0,0-2.073-.006l-4.377-4.391a12.78,12.78,0,0,0,1.659-1.839q.1-.136.2-.274a11.737,11.737,0,0,0,1.4-2.686q.175-.48.309-.98a11.9,11.9,0,0,0,.28-1.368,12.587,12.587,0,0,0,.128-1.8c0-.081,0-.163,0-.244l5.427.476q.031.094.069.184c.009.022.02.044.03.066.022.047.044.093.068.138l.04.071c.025.042.051.084.078.125.014.021.028.043.042.063q.056.079.118.153c.016.019.034.038.051.057.034.038.068.075.1.11S340.542,737.879,340.566,737.9Z" transform="translate(-291.971 -633.822)" fill="#8cdba4"/>
      <path id="Trazado_32155" data-name="Trazado 32155" d="M456.245,289.2l.03-.019q.077-.047.152-.1l.045-.031c.06-.042.118-.085.176-.131a3.515,3.515,0,0,0,1.048-1.387q.066-.158.117-.32c.034-.108.062-.218.085-.329.013-.062.024-.124.033-.187.016-.107.028-.214.035-.322l9.146-3.457a16.921,16.921,0,0,0,1.766,3.794l.047.074q.163.257.334.508l.033.049q.189.275.389.543l.034.045q.183.244.374.481l.057.071q.416.512.871,1l.073.077q.455.479.947.93l.081.074.131.119-4.575,6.221q-.123-.028-.245-.046l-.09-.011c-.065-.008-.13-.013-.2-.017l-.1,0c-.063,0-.125,0-.188,0l-.1,0q-.123.009-.244.028c-.032,0-.063.011-.095.017-.063.012-.127.025-.189.04-.041.01-.082.023-.122.035s-.088.027-.132.042-.089.032-.133.049-.072.03-.108.046-.095.042-.141.065l-.05.028a3.134,3.134,0,0,0-.327.2l-.037.025c-.053.038-.1.078-.154.119l-.047.038q-.076.064-.148.134l-.028.028a3.094,3.094,0,1,0,4.417,4.334h0c.043-.044.083-.09.123-.137l.03-.037q.092-.111.173-.231c.019-.028.038-.055.056-.084s.047-.076.069-.116.056-.1.082-.153c.016-.031.031-.062.046-.094.032-.07.061-.142.088-.215q.014-.037.026-.074c.03-.087.057-.176.079-.267a3.082,3.082,0,0,0-.287-2.2q-.067-.124-.145-.242l-.017-.026,3.981-6.46.179.133.073.054q.274.2.557.393l.059.039q.253.172.513.336l.1.066q.291.183.59.358h0c.194.114.391.224.589.332l.124.067c.2.107.4.213.6.315h0q.311.156.629.3l.131.06q.277.127.56.248l.087.038q.321.136.648.263l.126.048q.277.107.559.207l.134.048q.332.117.669.226l.1.031q.294.093.591.18l.163.047q.345.1.694.189l.017,0c.226.058.453.112.682.164l.178.04q.319.071.64.135l.075.015.245.046-.926,7.772c-.069.02-.136.043-.2.067l-.051.019c-.078.03-.155.062-.23.1l-.031.015q-.106.051-.208.108l-.028.016q-.11.063-.215.134l-.027.019a3.507,3.507,0,0,0-.408.328l-.007.007a3.535,3.535,0,1,0,5.92,2.089c0-.012,0-.023-.005-.035q-.013-.089-.032-.178c0-.018-.007-.036-.011-.053-.016-.071-.033-.142-.053-.213a3.555,3.555,0,0,0-.264-.666,3.5,3.5,0,0,0-.177-.3q-.048-.073-.1-.143-.1-.14-.216-.268-.057-.064-.117-.125-.12-.122-.25-.232-.065-.055-.133-.106a3.548,3.548,0,0,0-.58-.359l.283-7.695.2.023.161.017q.3.032.609.058l.184.016q.372.03.747.051l.114.005q.326.017.655.027l.2.006c.255.006.51.01.767.01a30.315,30.315,0,0,0,5.834-.557l1.592,5.243q-.068.057-.13.119l-.045.047c-.032.033-.062.068-.091.1l-.046.057c-.027.035-.053.071-.077.107-.013.019-.026.037-.039.057q-.047.073-.087.149c-.011.02-.021.041-.031.062-.02.041-.04.082-.057.124s-.022.056-.032.084-.022.061-.032.092-.02.063-.028.1-.013.054-.02.081-.017.071-.023.107c0,.013,0,.027-.006.04a2.173,2.173,0,0,0-.026.269c0,.011,0,.021,0,.032,0,.046,0,.091,0,.137,0,.014,0,.029,0,.043,0,.047.007.093.013.14,0,.009,0,.019,0,.028a2.166,2.166,0,0,0,.121.472h0a2.185,2.185,0,0,0,4.2-1.138h0q-.011-.064-.025-.128l-.008-.032c-.016-.066-.035-.131-.058-.2-.008-.022-.015-.045-.024-.067s-.023-.059-.036-.088-.034-.074-.052-.111-.022-.044-.034-.066c-.026-.048-.054-.094-.084-.14l-.031-.046c-.037-.054-.075-.106-.117-.158a2.179,2.179,0,0,0-1.067-.7,2.208,2.208,0,0,0-.519-.084l-1.967-4.976a24.294,24.294,0,0,0,8.59-3.85l5.88,6.953c-.038.076-.073.153-.106.231l-.025.059c-.038.093-.072.186-.1.279l-.012.039q-.042.134-.075.269l-.009.037q-.034.147-.057.3c0,.013,0,.026-.006.039a4.163,4.163,0,0,0-.045.621v.012a4.2,4.2,0,1,0,6.618-3.457l-.035-.024q-.088-.06-.18-.117l-.055-.034c-.074-.044-.15-.087-.228-.127s-.13-.064-.2-.094a4.218,4.218,0,0,0-.4-.155q-.1-.033-.2-.061a4.182,4.182,0,0,0-1.627-.122c-.08.01-.16.023-.239.037a4.25,4.25,0,0,0-.492.12l-.124.04c-.043.015-.086.029-.129.045l-6.344-6.365a17.472,17.472,0,0,0,5.026-7.9q.071-.238.136-.48a17.764,17.764,0,0,0,.592-4.6h0c0-.118,0-.236,0-.354l7.871.691q.034.1.073.2l.02.05c.032.077.067.153.1.227l.016.03c.036.07.075.138.115.205l.016.028c.044.072.092.142.141.21l.019.026a3.519,3.519,0,0,0,.34.4l.008.007a3.535,3.535,0,1,0,1.9-5.983l-.035.007c-.059.011-.118.023-.177.037l-.053.013c-.07.018-.14.037-.21.059h0a3.531,3.531,0,0,0-1.093.574q-.137.106-.262.224a3.512,3.512,0,0,0-.422.48c-.019.026-.038.052-.056.079q-.1.142-.182.293c-.046.083-.09.167-.129.253l-8.139-.046-.009-.071c-.012-.1-.023-.195-.036-.292s-.024-.165-.036-.247-.027-.19-.043-.285-.028-.168-.043-.253-.032-.186-.049-.279-.033-.171-.05-.257-.036-.183-.055-.274-.038-.174-.057-.261-.04-.18-.061-.27-.042-.176-.064-.263-.044-.177-.067-.265-.047-.177-.071-.265-.048-.175-.073-.262-.052-.178-.078-.267-.052-.172-.078-.258-.057-.18-.086-.27-.055-.169-.083-.253-.062-.181-.093-.272-.058-.166-.088-.249-.066-.182-.1-.273-.062-.163-.093-.244-.072-.184-.108-.276-.064-.159-.1-.239-.077-.185-.116-.277-.067-.156-.1-.234q-.061-.139-.124-.279l-.1-.228c-.044-.094-.087-.188-.132-.281-.035-.074-.072-.148-.108-.221-.046-.095-.093-.189-.141-.284-.036-.072-.073-.143-.11-.215-.049-.1-.1-.191-.149-.286-.037-.069-.074-.138-.112-.207-.052-.1-.1-.193-.159-.29-.034-.06-.068-.12-.1-.18l6.581-1.655a2.494,2.494,0,0,0,1.8.951c.076.005.151.006.226,0l.064,0c.063,0,.125-.008.187-.016l.085-.012c.046-.008.092-.016.138-.026l.107-.025.078-.023c.076-.022.15-.048.222-.078l.035-.014a2.512,2.512,0,1,0-2.138-4.541l-.029.015q-.071.039-.139.082l-.042.027c-.044.029-.087.058-.129.09l-.029.023a2.53,2.53,0,0,0-.233.2l-.034.032c-.029.03-.057.062-.084.093s-.042.048-.062.073-.048.06-.07.091-.044.061-.064.092-.039.057-.057.086-.052.09-.077.136c-.012.023-.025.047-.037.071q-.044.089-.081.181c-.01.024-.018.049-.027.073-.017.048-.033.1-.048.145-.008.027-.015.053-.022.08-.013.051-.024.1-.035.155,0,.024-.01.048-.014.073q-.016.1-.024.2l-6.723,2.289-.1-.152-.1-.158c-.069-.106-.139-.212-.21-.317l-.092-.133c-.077-.112-.153-.224-.232-.335l-.067-.093c-.088-.124-.177-.247-.267-.37h0a26.852,26.852,0,0,0-3.779-4.143h0q-.167-.148-.338-.294l-.058-.05q-.163-.139-.328-.275l-.066-.054q-.168-.138-.339-.272l-.036-.029q-.65-.511-1.332-.979l4.117-9.848c.072,0,.143,0,.213-.009l.054,0c.083-.007.166-.017.248-.03l.034-.006q.116-.02.229-.047l.032-.007q.123-.031.243-.07l.032-.011a3.511,3.511,0,0,0,.482-.2l.009,0a3.535,3.535,0,1,0-5.122-3.63c0,.011,0,.023,0,.035-.008.06-.014.119-.018.18,0,.018,0,.036,0,.054,0,.073-.007.146-.007.219a3.526,3.526,0,0,0,1.162,2.62l-3.191,9.821-.086-.049q-.548-.315-1.113-.6l-.123-.062c-.1-.05-.2-.1-.3-.146l-.182-.086-.287-.131-.2-.09-.28-.12-.218-.09c-.091-.037-.182-.074-.273-.11l-.237-.09c-.087-.033-.173-.066-.261-.1q-.236-.086-.473-.166c-.077-.026-.154-.05-.231-.075-.094-.031-.188-.061-.283-.09l-.24-.072-.281-.081-.24-.065-.29-.075-.234-.058c-.1-.025-.208-.048-.313-.071l-.214-.047c-.133-.028-.266-.054-.4-.079l-.132-.026q-.264-.048-.529-.089l-.177-.025c-.122-.018-.245-.035-.367-.05l-.209-.024q-.171-.02-.342-.037l-.216-.02q-.172-.015-.345-.026l-.21-.014c-.125-.007-.251-.013-.377-.017l-.179-.007q-.278-.008-.558-.009-.574,0-1.142.034l.06-6.338q.083-.035.162-.076l.057-.032c.041-.023.081-.047.12-.072l.061-.041c.037-.026.073-.052.108-.08l.054-.043q.068-.057.13-.118c.017-.016.032-.033.048-.05.032-.033.063-.067.093-.1s.038-.048.057-.072.04-.052.059-.079.038-.056.057-.084.029-.048.044-.072.038-.064.055-.1c.006-.012.012-.025.018-.037a2.251,2.251,0,0,0,.107-.253l.011-.03c.015-.044.027-.089.039-.134,0-.014.008-.028.011-.042.011-.046.021-.093.03-.139l0-.029a2.218,2.218,0,1,0-4.386-.668h0q-.009.065-.014.131c0,.011,0,.023,0,.035q-.007.1,0,.206c0,.024,0,.049,0,.073s0,.064.008.1.01.083.017.124c0,.024.008.049.013.074.011.054.024.108.039.162l.016.054c.019.063.04.126.066.188a2.213,2.213,0,0,0,1.194,1.209c.033.014.068.025.1.037l.464,6.4a21.447,21.447,0,0,0-9.417,3.544l-5.3-9.672c.044-.056.086-.114.126-.172l.031-.045c.046-.07.09-.141.131-.212l.017-.03q.057-.1.107-.209l.014-.029q.053-.116.1-.234l.011-.031a3.537,3.537,0,0,0,.141-.5l0-.01a3.535,3.535,0,1,0-6.032,1.74l.025.026q.063.064.129.126l.04.037c.054.049.109.1.167.143a3.542,3.542,0,0,0,.446.3,3.506,3.506,0,0,0,.638.287q.082.027.165.051.166.047.334.076t.338.043a3.555,3.555,0,0,0,.846-.034h0l6.156,9.331a25.739,25.739,0,0,0-2.111,1.816q-.21.2-.415.407-.411.412-.8.841-.2.214-.388.433a27.221,27.221,0,0,0-1.894,2.43q-.222.32-.433.645-.113.174-.223.349-.154.244-.3.491-.38.632-.723,1.28l-7.313-2.49q-.008-.1-.024-.2c0-.025-.009-.049-.014-.073-.01-.052-.021-.1-.034-.155-.007-.027-.014-.054-.022-.08-.014-.049-.031-.1-.048-.145-.009-.025-.017-.049-.027-.074-.025-.062-.052-.123-.081-.182-.012-.023-.024-.046-.037-.069-.025-.046-.05-.092-.078-.137-.018-.029-.037-.057-.057-.086s-.042-.062-.065-.092-.046-.061-.07-.09-.042-.049-.063-.073-.055-.063-.084-.093l-.034-.033a2.5,2.5,0,0,0-.233-.2l-.029-.023c-.042-.032-.085-.061-.129-.09l-.042-.027q-.068-.043-.139-.081l-.029-.015a2.49,2.49,0,0,0-.521-.2h0a2.512,2.512,0,0,0-1.753,4.683h0c.045.022.09.042.137.062l.035.014q.109.044.222.077l.078.023.107.025c.045.01.092.018.138.026l.085.013q.093.011.187.016l.064,0c.075,0,.15,0,.226,0a2.534,2.534,0,0,0,.5-.085,2.456,2.456,0,0,0,1.3-.866l7.3,1.835a22.731,22.731,0,0,0-2.259,9.583v0c0,.16,0,.319.007.478,0,.057,0,.114.006.171,0,.1.008.2.013.3q.005.1.012.21c.005.083.011.166.018.249s.012.158.019.237c0,.038.008.076.011.114q.031.318.072.631c0,.029.007.058.011.087.016.113.033.226.05.338l.013.082c.043.265.091.528.145.788l-9.487,2.723q-.068-.083-.141-.161l-.036-.039c-.058-.061-.118-.119-.179-.175l-.025-.022q-.088-.079-.181-.151l-.025-.02c-.067-.051-.137-.1-.207-.146l-.028-.018a3.529,3.529,0,0,0-.461-.249l-.009,0a3.535,3.535,0,1,0,.37,6.267Z" transform="translate(-424.824 -240.388)" fill="#8cdba4"/>
    </g>
    <g id="Grupo_17331" data-name="Grupo 17331" transform="translate(380.663 248.746)">
      <g id="Grupo_17323" data-name="Grupo 17323" transform="translate(0 137.808)">
        <path id="Trazado_32156" data-name="Trazado 32156" d="M986.056,1244.394a449.4,449.4,0,0,1-46-7.063c-5.236-1.1-10.46-2.32-15.637-3.633q-.815-.206-1.625-.414a196.7,196.7,0,0,1-24.09-7.9q-5.582-2.241-10.993-4.806a195.284,195.284,0,0,1-55.184-39.114l3.9-19.979a24.633,24.633,0,0,1,14.423-15.845l23.23-9.331,7.015-2.818,4.969-2v0l.517-.207h.012c.019.117.039.234.061.349s.045.23.07.344.053.229.081.341a.02.02,0,0,0,0,.01c.028.111.058.22.089.329s.064.218.1.327c0,0,0,0,0,.008.1.33.224.654.357.971h0c.036.087.073.176.112.262q.138.311.293.612c.044.084.087.167.132.249l0,.006s0,.006,0,.009c.061.112.125.223.19.333a.064.064,0,0,1,.008.014c.064.107.129.213.2.319s.142.218.215.326c0,0,0,0,0,.008.065.1.134.19.2.284l.034.047c.073.1.146.195.221.29a0,0,0,0,0,0,0c.076.1.153.192.23.285l.034.04c.067.08.135.157.2.235.106.119.212.234.321.346.078.081.156.16.237.238l.067.064c.058.057.115.112.175.165.034.033.07.065.1.095.1.089.195.175.293.257q.093.082.191.159c.111.09.224.179.338.265.061.047.123.094.185.137.011.008.023.016.034.025.065.048.131.093.2.139s.142.1.213.143c.045.031.092.062.139.09s.092.059.139.086c.2.125.4.241.606.352a.006.006,0,0,1,0,0c.076.042.153.083.229.12s.154.079.232.115.157.076.235.11c0,0,0,0,0,0q.117.054.234.1c.079.034.161.069.241.1s.162.065.243.1.132.051.2.075l.045.016c.081.029.165.057.248.084s.167.055.251.079.168.051.254.073.17.048.255.069q.512.133,1.042.216t1.066.123h.009c.273.02.547.03.824.03h13.269a11.881,11.881,0,0,0,1.639-.114c.179-.023.355-.051.531-.086.089-.014.176-.031.263-.051.248-.05.491-.109.732-.176a.29.29,0,0,1,.05-.014c.084-.023.165-.047.248-.073s.168-.051.251-.079a10.982,10.982,0,0,0,1.2-.471l.016-.008c.079-.034.159-.072.237-.11.154-.075.307-.153.456-.234l.026-.014c.07-.037.139-.076.207-.115s.15-.086.223-.131.148-.087.221-.136c.146-.09.29-.185.431-.284.072-.048.142-.1.212-.15s.139-.1.207-.154.134-.1.2-.153a11.866,11.866,0,0,0,1.552-1.472c.041-.045.081-.092.12-.139.056-.065.112-.131.165-.2.143-.173.279-.35.41-.531.041-.055.079-.109.118-.165s.078-.112.115-.168c.078-.112.151-.226.223-.341.034-.054.069-.109.1-.165a.1.1,0,0,0,.011-.017c.033-.056.067-.112.1-.168.1-.176.2-.357.294-.539.031-.061.062-.123.092-.184.053-.107.1-.216.154-.326s.1-.22.143-.33h0l.023-.058c.033-.078.062-.156.093-.234.008-.019.014-.037.022-.056.079-.214.154-.428.223-.648.033-.1.064-.2.093-.307,0-.017.011-.034.014-.051.062-.223.118-.447.167-.675.026-.117.05-.234.072-.352s.042-.237.061-.355l.139.057.4.162h0l4.965,2,6.941,2.79h0l2.214.889.805.327,6.862,2.749,13.539,5.44c.128.047.255.106.383.165a22.887,22.887,0,0,1,3.81,2.027,18.57,18.57,0,0,1,1.6,1.119,24.516,24.516,0,0,1,8.632,12.535S986.393,1242.819,986.056,1244.394Z" transform="translate(-832.524 -1131.224)" fill="#2e6b9c"/>
      </g>
      <g id="Grupo_17324" data-name="Grupo 17324" transform="translate(72.414 131.022)">
        <path id="Trazado_32157" data-name="Trazado 32157" d="M1307.141,1104.987c-9.885,28.61-33.275,33.849-33.275,33.849l22.046-48.972Z" transform="translate(-1273.866 -1089.864)" fill="#285d87"/>
      </g>
      <g id="Grupo_17325" data-name="Grupo 17325" transform="translate(39.13 131.022)">
        <path id="Trazado_32158" data-name="Trazado 32158" d="M1104.291,1138.836s-23.4-5.239-33.285-33.849l11.23-15.124Z" transform="translate(-1071.006 -1089.864)" fill="#285d87"/>
      </g>
      <g id="Grupo_17326" data-name="Grupo 17326" transform="translate(54.648 140.544)">
        <path id="Trazado_32159" data-name="Trazado 32159" d="M1183.352,1187.351l-17.766-39.45h35.525Z" transform="translate(-1165.585 -1147.901)" fill="#585a5b"/>
      </g>
      <g id="Grupo_17327" data-name="Grupo 17327" transform="translate(50.357 131.022)">
        <path id="Trazado_32160" data-name="Trazado 32160" d="M1183.533,1089.864l-4.578,10.175-34.724.481-4.8-10.656Z" transform="translate(-1139.432 -1089.864)" fill="#285d87"/>
      </g>
      <g id="Grupo_17328" data-name="Grupo 17328" transform="translate(53.912 114.204)">
        <path id="Trazado_32161" data-name="Trazado 32161" d="M1198.089,987.366v21.786a11.7,11.7,0,0,1-.14,1.817,11.854,11.854,0,0,1-11.72,10.031h-13.27a11.859,11.859,0,0,1-11.709-9.973,11.019,11.019,0,0,1-.151-1.876V987.366Z" transform="translate(-1161.099 -987.366)" fill="#ffd3be"/>
      </g>
      <path id="Trazado_32162" data-name="Trazado 32162" d="M1198.089,987.365v12.414q-1.165.675-2.39,1.271a38.48,38.48,0,0,1-18.877,3.812,42.365,42.365,0,0,1-11.005-1.9,37.3,37.3,0,0,1-4.718-1.869V987.365Z" transform="translate(-1107.187 -873.161)" fill="#fdbca2"/>
      <g id="Grupo_17329" data-name="Grupo 17329" transform="translate(16.062 11.589)">
        <path id="Trazado_32163" data-name="Trazado 32163" d="M1092.046,433.143a64.028,64.028,0,0,1-2.262,6.768c-2.758,7.083-8.229,18.279-17.526,26.362a41.655,41.655,0,0,1-9.126,6.1,38.479,38.479,0,0,1-18.878,3.812,42.3,42.3,0,0,1-11-1.9,37.106,37.106,0,0,1-5.844-2.426c-14.7-7.655-20.52-23.508-22.693-32.374a52.022,52.022,0,0,1-1.2-6.347.155.155,0,0,0,0-.027c0-.01,0-.027,0-.044a130.337,130.337,0,0,1-.182-16.993c.561-11.049,2.615-25.472,8.794-36.983,11.706-21.8,26.625-18.361,55.317-13.54,18.447,3.1,23.347,30.153,24.493,49.075v0A164.057,164.057,0,0,1,1092.046,433.143Z" transform="translate(-991.209 -361.959)" fill="#ffd3be"/>
        <path id="Trazado_32164" data-name="Trazado 32164" d="M943.917,697.447a17.362,17.362,0,0,1-1.571,1.369c-5.964,4.582-14.005-20.339-11.442-25.1s9.085-2.737,9.085-2.737c1.31,10.242,2.645,19.535,2.727,20.1a.155.155,0,0,1,0,.027A52.02,52.02,0,0,0,943.917,697.447Z" transform="translate(-930.415 -619.915)" fill="#ffd3be"/>
        <path id="Trazado_32165" data-name="Trazado 32165" d="M1532.326,698.819c-.387-.3-.763-.616-1.126-.948a64.018,64.018,0,0,0,2.262-6.768s1.406-9.752,2.768-20.442c2.091-.284,5.762-.243,7.538,3.056C1546.334,678.48,1538.29,703.4,1532.326,698.819Z" transform="translate(-1432.625 -619.919)" fill="#ffd3be"/>
      </g>
      <line id="Línea_141" data-name="Línea 141" x1="0.003" transform="translate(44.576 159.089)" fill="none" stroke="#89434a" stroke-miterlimit="10" stroke-width="1"/>
      <g id="Grupo_17330" data-name="Grupo 17330" transform="translate(22.139)">
        <path id="Trazado_32166" data-name="Trazado 32166" d="M1064.689,319.415a14.535,14.535,0,0,1,2.813,8.13c.188,3.658-1.143,15.36-2.519,26.115-1.362,10.69-2.768,20.442-2.768,20.442s-3.775-2.433-3.4-11.816c.041-.982.045-1.906.024-2.775-.2-7.425-2.566-11.011-4.931-15.987-1.622-3.4-3.665-11.114-4.743-16.575-28.172,8.353-61.072-5.16-61.688-5.194-.041,3.436-3.193,16.938-5.492,21.769-2.549,5.365-5.1,9.112-4.934,17.793,0,.315.014.636.027.968.376,9.383-3.4,11.816-3.4,11.816a.155.155,0,0,0,0-.027c0-.01,0-.027,0-.044-.133-.893-1.44-10.016-2.724-20.052-1.389-10.84-2.748-22.738-2.556-26.433a14.711,14.711,0,0,1,4.192-9.79,11.791,11.791,0,0,0-5.133.4c7.176-6.6,13.338-1.964,13.338-1.964,17.619-32.425,50.841-26.868,63.929-18.067a187.124,187.124,0,0,0,27.183,14.823A47.283,47.283,0,0,1,1064.689,319.415Z" transform="translate(-967.455 -291.329)" fill="#373f4c"/>
      </g>
    </g>
    <g id="Grupo_17333" data-name="Grupo 17333" transform="translate(483.055 295.562)">
      <path id="Trazado_32167" data-name="Trazado 32167" d="M1628.39,583.136l4.744,22.021s.49,10.513,11.823,15.124a25.086,25.086,0,0,0,3.526,1.168.293.293,0,0,0,.035.009c7.9,1.914,8.359-3.442,8.359-3.442s1.341-2.992,1.007-8.815c-.272-4.7-3.221-19.257-4.349-24.694a4.138,4.138,0,0,0-2.6-3.01,34.981,34.981,0,0,0-7.964-2.006h-.008a25.98,25.98,0,0,0-13.52,1.669A1.754,1.754,0,0,0,1628.39,583.136Z" transform="translate(-1600.166 -578.821)" fill="#474449"/>
      <path id="Trazado_32168" data-name="Trazado 32168" d="M1599.95,580.789a93.269,93.269,0,0,0,3.162,19.889c2.719,9.74,3.962,18.3,21.562,18.612l.068-.008a25.078,25.078,0,0,1-3.527-1.168c-11.333-4.61-11.823-15.124-11.823-15.124l-4.744-22.021a1.754,1.754,0,0,1,1.052-1.977,25.98,25.98,0,0,1,13.52-1.669,37.829,37.829,0,0,0-8.9-.631c-.793.035-1.615.1-2.455.2a28.057,28.057,0,0,0-6.117,1.379A2.645,2.645,0,0,0,1599.95,580.789Z" transform="translate(-1576.424 -576.655)" fill="#3e3642"/>
      <path id="Trazado_32169" data-name="Trazado 32169" d="M1750.639,836.466h.1a.3.3,0,0,1-.034-.009Z" transform="translate(-1702.389 -793.83)" fill="none" stroke="#000" stroke-miterlimit="10" stroke-width="1"/>
      <path id="Trazado_32170" data-name="Trazado 32170" d="M1471.823,602.07a8.949,8.949,0,0,0,3.376,6.409c.146.119.3.236.458.35,3.671,2.641,8.874,3.063,16.762,8.661,6.157,4.368,19.557,3.558,25.141,2.992-17.6-.312-18.844-8.873-21.562-18.612a93.269,93.269,0,0,1-3.162-19.889,2.645,2.645,0,0,1,1.8-2.521,28.051,28.051,0,0,1,6.117-1.38l-24.426,1.952a6.485,6.485,0,0,0-2.761.842,4.917,4.917,0,0,0-.6.406,3.32,3.32,0,0,0-.434.406C1471.549,582.8,1471.877,601.912,1471.823,602.07Z" transform="translate(-1469.311 -577.847)" fill="#ffbf00"/>
      <path id="Trazado_32171" data-name="Trazado 32171" d="M1456.614,618s.656,5.885,5.842,6.778a8.948,8.948,0,0,1-3.376-6.409c.054-.158-.274-19.274.711-20.383a3.32,3.32,0,0,1,.434-.406,27.643,27.643,0,0,0-2.848,1.093C1456.285,599.2,1456.614,618,1456.614,618Z" transform="translate(-1456.568 -594.15)" fill="#3e3642"/>
      <path id="Trazado_32172" data-name="Trazado 32172" d="M1665.679,611a36.172,36.172,0,0,0-19.705-.763,1.906,1.906,0,0,0-.708,1.245c0,.683,3.208,19.4,3.208,19.4a3.555,3.555,0,0,0,2.208,1.566c1.333.161,17.081-.2,17.081-.2s1.5-.281,1.5-1.486S1665.679,611,1665.679,611Z" transform="translate(-1614.304 -603.88)" fill="#3e3642"/>
      <path id="Trazado_32173" data-name="Trazado 32173" d="M1656.563,632l2.838,15.1a1.731,1.731,0,0,0,1.718,1.384h13.6a.616.616,0,0,0,.619-.726l-3.122-15.306a1.043,1.043,0,0,0-1-.822l-13.933-.429A.691.691,0,0,0,1656.563,632Z" transform="translate(-1623.739 -622.248)" fill="#66dfa9"/>
      <ellipse id="Elipse_1011" data-name="Elipse 1011" cx="2.815" cy="2.044" rx="2.815" ry="2.044" transform="translate(50.156 30.287)" fill="#626f7c"/>
      <ellipse id="Elipse_1012" data-name="Elipse 1012" cx="3.464" cy="2.438" rx="3.464" ry="2.438" transform="translate(44.501 34.779)" fill="#d83a36"/>
      <ellipse id="Elipse_1013" data-name="Elipse 1013" cx="2.85" cy="1.882" rx="2.85" ry="1.882" transform="translate(38.006 30.61)" fill="#626f7c"/>
      <path id="Trazado_32174" data-name="Trazado 32174" d="M2388.855,1618.873l.905.662Z" transform="translate(-2235.887 -1447.868)" fill="#ffd3be"/>
      <path id="Trazado_32175" data-name="Trazado 32175" d="M1651.568,853.767l-2.352,9.309c-10.562,16.609-19.393,31.927-23.719,52.471-1-.718-.922,3.587-1.958,2.849l-.835-.6-1.957-1.391-.944-.67q-1.341-.951-2.706-1.915-2.734-1.932-5.544-3.9l0,0-.006,0c-14.467-10.127-29.954-20.589-41.052-27.085-6.094-3.566-10.864-5.935-13.415-6.4l-.025,0c-.425-.075-.838-.15-1.243-.224l-.8-.15-.773-.15c-.19-.037-.377-.076-.562-.114l-.548-.114c-.243-.052-.48-.1-.714-.153l-.688-.154c-.112-.028-.224-.053-.336-.079-.221-.051-.441-.106-.655-.159s-.427-.107-.632-.16c-.1-.027-.207-.056-.308-.083-.2-.055-.405-.111-.6-.167-.35-.1-.69-.2-1.02-.307l-.326-.106c-.112-.037-.226-.075-.335-.114a22.363,22.363,0,0,1-2.195-.88,0,0,0,0,0,0,0c-.123-.059-.244-.117-.366-.178-.048-.023-.1-.048-.145-.073-.118-.061-.235-.121-.349-.184a11.859,11.859,0,0,1-2.669-1.946q-.3-.3-.579-.617c-.047-.053-.092-.107-.137-.162-.09-.107-.179-.22-.266-.332-.044-.056-.086-.111-.128-.17v0l-.075-.1-.072-.1c-.02-.028-.042-.058-.061-.086s-.041-.058-.059-.087c-.089-.131-.176-.265-.26-.4-.014-.023-.03-.047-.044-.072l-.075-.123c-.039-.069-.079-.137-.118-.207s-.078-.139-.117-.21q-.159-.294-.308-.606c-.033-.068-.065-.139-.1-.209s-.058-.125-.086-.187-.065-.148-.1-.223-.058-.134-.086-.2l-.056-.135c-.008-.022-.017-.045-.027-.067,0,0,0,0,0,0l-.107-.276c-.042-.111-.083-.221-.123-.333s-.09-.252-.134-.382q-.056-.166-.112-.336c-.044-.137-.087-.276-.129-.416-.023-.078-.047-.154-.07-.234-.047-.157-.092-.315-.135-.477-.022-.081-.044-.162-.065-.245-.03-.109-.058-.22-.087-.332-.045-.173-.089-.35-.131-.53-.023-.1-.047-.2-.07-.3s-.05-.21-.073-.316-.047-.215-.072-.324c-.047-.216-.093-.438-.139-.662-.006-.031-.012-.062-.02-.093-.02-.1-.044-.2-.069-.3,0-.025-.011-.05-.017-.076-.014-.053-.028-.106-.042-.16s-.03-.117-.045-.174l-.056-.2a.912.912,0,0,0-.028-.1q-.026-.094-.056-.187c-.011-.031-.02-.064-.03-.095l-.061-.19c-.006-.019-.012-.039-.02-.058-.04-.123-.083-.248-.128-.372a.11.11,0,0,1-.006-.017.164.164,0,0,1-.011-.03s0,0,0,0c-.011-.026-.02-.053-.03-.081-.025-.067-.051-.137-.078-.206-.037-.1-.075-.193-.114-.29s-.078-.195-.118-.293c0-.009-.008-.017-.011-.027-.026-.061-.051-.121-.078-.182l-.131-.3-.126-.28-.009-.02c-.041-.087-.081-.174-.123-.262l-.117-.243c-.083-.17-.167-.34-.254-.511-.03-.056-.058-.115-.089-.174a.325.325,0,0,1-.017-.031c-.07-.137-.143-.274-.218-.413-.037-.069-.076-.139-.112-.207s-.076-.14-.115-.209c-.05-.09-.1-.181-.151-.271-.006-.012-.012-.023-.018-.034q-.049-.089-.1-.177l-.073-.129c-.083-.143-.167-.287-.252-.432s-.173-.29-.262-.435c-.04-.07-.084-.14-.126-.21,0,0,0,0,0,0l-.131-.213-.135-.215c-.045-.072-.089-.143-.136-.215s-.073-.117-.111-.176c-.008-.014-.017-.028-.026-.042l-.188-.291c-.081-.126-.164-.254-.248-.382-.146-.221-.294-.445-.445-.67q-.119-.18-.243-.36c-.02-.031-.042-.061-.062-.092l-.117-.171c-.606-.883-1.242-1.773-1.9-2.67-.054-.076-.109-.151-.165-.224q-.493-.675-1-1.349c-.112-.151-.226-.3-.338-.452-.042-.056-.084-.112-.128-.168-.151-.2-.3-.4-.457-.6-.611-.806-1.227-1.611-1.843-2.413q-.949-1.234-1.882-2.457l-.346-.456-.346-.455c-.115-.151-.229-.3-.341-.455q-.306-.407-.606-.81c-.351-.469-.693-.936-1.028-1.4q-.362-.5-.712-.994-.152-.213-.3-.425l-.061-.086a.027.027,0,0,0,0-.008.006.006,0,0,1,0,0l-.221-.316,0-.008c-.121-.176-.241-.351-.358-.525-.084-.122-.167-.245-.248-.366l-.02-.031c-.028-.041-.055-.081-.081-.122s-.066-.1-.1-.145c-.065-.1-.129-.2-.193-.294s-.128-.2-.19-.294-.123-.19-.182-.284l0-.006,0-.008c-.075-.118-.148-.235-.22-.352l-.229-.369c-.067-.114-.135-.224-.2-.336s-.137-.232-.2-.348a0,0,0,0,1,0,0,23.007,23.007,0,0,1-1.927-4.038,10.9,10.9,0,0,1-.425-1.6c-1.622-9.046-3.708-6.924-3.708-6.924s-8.8,5.026-12.74,2.457,3.474-10.447,3.242-16.111c-.132-3.239,3.337-5.2,7.759-6.041a30.517,30.517,0,0,1,10.426-.058c1.035.179,2.077.4,3.116.646,3.725.885,7.4,2.108,10.44,3.016v0a24.225,24.225,0,0,0,5.684,1.238c5.829.045,7.912-3.145,8.568-4.638,0,0,0,0,0,0a4.677,4.677,0,0,0,.265-.749s16.406,5.278,19.764,9.073,4.867,19.988,9.845,23.9a14.5,14.5,0,0,0,3.024,1.467c8.884,3.527,33.746,10.495,51.237,15.248l.491.132c.241.065.48.129.717.195s.474.129.709.192l.351.095,1.036.28.07.019.609.165.335.09q.9.243,1.76.474c.065.017.129.034.193.053q1.586.427,3.013.808l.472.126q.738.2,1.427.382a.2.2,0,0,1,.042.011l1.215.324.142.037.321.086a.021.021,0,0,1,.009,0l.676.179c.076.019.154.039.231.061.139.037.276.075.408.109.055.013.109.028.162.042.352.095.685.182,1,.265.014,0,.03.006.044.011l1.636.433c.042.01.083.02.123.033.512.136.881.232,1.092.287a.02.02,0,0,1,.009,0l.084.022.019,0,.089.023Z" transform="translate(-1491.668 -762.633)" fill="#ffd3be"/>
      <path id="Trazado_32176" data-name="Trazado 32176" d="M2254.9,1106.881v11.414c-10.562,16.609-20.642,34.858-24.969,55.4q-1.5-1.077-3.061-2.186l-.835-.6-1.956-1.391-.944-.67q-1.341-.951-2.706-1.915c-1.552-33.353,13.14-60.149,15.988-65h0l.49.134c.241.066.48.129.717.195s.474.129.708.192l.351.095,1.036.281.07.019c.2.054.408.109.609.165l.335.091q.9.24,1.76.474c.066.017.129.034.193.053l3.013.808.472.126,1.427.382a.2.2,0,0,1,.042.011l1.215.324.142.037c.109.028.215.058.321.086a.021.021,0,0,1,.009,0c.231.059.457.12.676.179.076.019.154.039.23.061.139.036.274.073.408.109.055.012.109.028.162.042.352.093.685.181,1,.265.014,0,.03.006.044.011.638.168,1.187.313,1.635.433.042.01.083.02.123.033l1.092.287a.021.021,0,0,1,.01,0c.031.008.059.014.084.022l.019,0,.086.022,0,0Z" transform="translate(-2095.005 -1015.748)" fill="#ffbc91"/>
      <path id="Trazado_32177" data-name="Trazado 32177" d="M1625.415,1007.666c.274,7.3.141,16.121.336,23.573a91.286,91.286,0,0,0,.729,10.5c.421,2.77,1.055,4.676,2.021,5.255,1.844,1.1,5.367.749,9.06-.125a76.76,76.76,0,0,0,9.158-2.9c-1.456-1.981-2.357-4.592-3.086-8.187-1.051-5.172-6.065-11.76-10.991-18.181C1630,1014.163,1627.384,1010.769,1625.415,1007.666Z" transform="translate(-1597.711 -936.947)" fill="#ffba00"/>
      <path id="Trazado_32178" data-name="Trazado 32178" d="M1736.85,790.833a2.787,2.787,0,1,0,2.727-2.213A2.511,2.511,0,0,0,1736.85,790.833Z" transform="translate(-1690.862 -753.841)" fill="#ff4f46"/>
      <ellipse id="Elipse_1014" data-name="Elipse 1014" cx="2.34" cy="1.707" rx="2.34" ry="1.707" transform="translate(51.141 30.287)" fill="#8190a1"/>
      <ellipse id="Elipse_1015" data-name="Elipse 1015" cx="2.387" cy="1.707" rx="2.387" ry="1.707" transform="translate(38.941 30.46)" fill="#8190a1"/>
      <path id="Trazado_32179" data-name="Trazado 32179" d="M1625.415,1007.666c.274,7.3.141,16.121.336,23.573a91.286,91.286,0,0,0,.729,10.5c.421,2.77,1.055,4.676,2.021,5.255,1.844,1.1,5.367.749,9.06-.125-.964-5.513-4.326-14.1-3.927-19.2a51.89,51.89,0,0,0-.992-10.072C1630,1014.163,1627.384,1010.769,1625.415,1007.666Z" transform="translate(-1597.711 -936.947)" fill="#3e3642"/>
      <path id="Trazado_32180" data-name="Trazado 32180" d="M1570.37,990.4a13.969,13.969,0,0,0,3.259,1.686,3.829,3.829,0,0,0,2,.238c2.917-.724,2.907-7.442-1.178-12.42l-2.788-5.452s-5.949,1.565-7.116,6.787C1563.833,984.445,1567.082,988.171,1570.37,990.4Z" transform="translate(-1546.749 -909.181)" fill="#ffd3be"/>
      <path id="Trazado_32181" data-name="Trazado 32181" d="M1595.811,988.213a1.956,1.956,0,0,0,.537-.105,13.936,13.936,0,0,0-3.231-8.206l-2.788-5.452a12.371,12.371,0,0,0-3.442,1.647C1585.8,981.041,1592.967,988.37,1595.811,988.213Z" transform="translate(-1565.411 -909.181)" fill="#fdbca2"/>
      <path id="Trazado_32182" data-name="Trazado 32182" d="M1587.516,1156.375a91.244,91.244,0,0,1-.731-10.5c-1.774-.341-5.14-.667-7.156,1.161C1577,1149.415,1580.893,1154.214,1587.516,1156.375Z" transform="translate(-1558.745 -1052.253)" fill="#ffd3be"/>
      <path id="Trazado_32183" data-name="Trazado 32183" d="M1569.106,1066.1s-4.872,2.191-4.688,5.645,6.933,8.6,11.85,7.15,2.06-9.447-.667-9.961A13.69,13.69,0,0,1,1569.106,1066.1Z" transform="translate(-1546.718 -985.793)" fill="#ffd3be"/>
      <path id="Trazado_32184" data-name="Trazado 32184" d="M1586.595,1066.665c2.7,2.774,6.51,4.781,8.189,4.365a2.145,2.145,0,0,0,1.151-.749,3.2,3.2,0,0,0-1.79-1.35,13.706,13.706,0,0,1-6.5-2.835A11.1,11.1,0,0,0,1586.595,1066.665Z" transform="translate(-1565.26 -985.79)" fill="#fdbca2"/>
      <path id="Trazado_32185" data-name="Trazado 32185" d="M1620.178,996.993a0,0,0,0,0,0,0c.067.115.135.232.2.347s.133.223.2.336l.228.37.226.357h0q.644,1.015,1.372,2.068l.293.422c.1.142.2.283.3.425.742,1.047,1.53,2.117,2.346,3.2q.169.227.342.454l.345.456.347.456c1.417,1.862,2.888,3.754,4.308,5.641.113.15.227.3.338.451q.507.675,1,1.349c.055.074.11.149.164.224.656.9,1.293,1.787,1.9,2.67.04.057.078.114.118.172.411.6.808,1.2,1.186,1.8.046.072.092.144.137.217s.091.143.136.215l.135.215.132.214c.043.072.087.142.129.214q.265.436.514.868.177.308.346.611c.038.069.077.14.114.209l.113.208c.074.138.147.275.218.413.036.069.071.138.106.206q.262.513.493,1.015.138.3.267.6l.088.209c.163.392.31.776.439,1.156.023.064.044.128.065.192l.062.19.058.188c.019.064.038.125.056.188.036.125.069.25.1.373.014.054.028.108.041.16.024.1.046.192.067.287.014.063.027.124.04.187q.229,1.128.484,2.13c.03.112.058.222.087.332q.131.492.272.955.235.772.5,1.467l.108.275c.055.139.112.276.169.41.032.074.064.149.1.223l.084.187q.194.421.407.813c.039.072.077.142.117.212l.119.206c.039.065.078.131.118.195.084.137.17.272.26.4.038.059.078.115.119.173s.1.138.147.206.085.114.128.17c.087.113.176.224.265.332.045.055.091.109.137.161.184.214.378.419.579.618a11.864,11.864,0,0,0,2.669,1.945q.171.094.35.184c.047.025.1.05.145.073.12.06.242.119.365.178,0,0,0,0,0,0a22.264,22.264,0,0,0,2.195.88c.11.038.223.076.336.113q.644.214,1.345.414c.2.055.4.111.6.167l.309.082c.206.054.418.108.633.161s.433.106.655.159l.336.078c.227.051.456.1.689.155s.47.1.712.153q.542.113,1.111.227l.773.15.8.15q.607.112,1.243.224l.026.005c7.2,1.3,32.062,17.8,54.475,33.485-.329-.26-42.588-33.539-56.483-43.171-13.95-9.67-5.052-13.715-14.392-26.385C1635.036,995.511,1624.442,996.218,1620.178,996.993Z" transform="translate(-1593.333 -927.686)" fill="#fdbca2"/>
      <g id="Grupo_17332" data-name="Grupo 17332" transform="translate(35.753 14.017)">
        <path id="Trazado_32186" data-name="Trazado 32186" d="M1676.548,663.776c-.093-.518-.324-.657-.651-.656s-.505.158-.431.569l.067.37-.973,0-.056-.312c-.165-.921.264-1.449,1.274-1.453a1.646,1.646,0,0,1,1.794,1.441l.027.148c.111.617-.044,1-.507,1.187a1.429,1.429,0,0,1,.937,1.206l.081.452c.166.921-.264,1.449-1.274,1.453a1.646,1.646,0,0,1-1.794-1.441l-.086-.477.973,0,.1.534a.593.593,0,0,0,.635.565c.327,0,.508-.142.416-.652l-.081-.452c-.1-.535-.337-.731-.8-.729h-.346l-.148-.822.4,0c.383,0,.591-.15.508-.611Z" transform="translate(-1674.469 -662.262)" fill="#3e3642"/>
        <path id="Trazado_32187" data-name="Trazado 32187" d="M1697.049,663.713c-.174-.97.236-1.5,1.3-1.5a1.646,1.646,0,0,1,1.794,1.441l.027.148-.973,0-.037-.205a.593.593,0,0,0-.635-.565c-.365,0-.542.158-.443.709l.189,1.052a.818.818,0,0,1,.862-.514c.757,0,1.225.464,1.377,1.311l.189,1.052c.165.921-.292,1.449-1.3,1.453a1.674,1.674,0,0,1-1.822-1.441Zm1.382,1.961.186,1.036a.585.585,0,0,0,.633.557c.327,0,.506-.15.432-.561l-.186-1.036a.593.593,0,0,0-.635-.565C1698.534,665.105,1698.357,665.262,1698.431,665.673Z" transform="translate(-1693.312 -662.189)" fill="#3e3642"/>
        <path id="Trazado_32188" data-name="Trazado 32188" d="M1724.989,692.3l.157.872-.992,0L1724,692.3Z" transform="translate(-1715.871 -687.343)" fill="#3e3642"/>
        <path id="Trazado_32189" data-name="Trazado 32189" d="M1730.219,663.584c-.174-.97.236-1.5,1.3-1.5a1.645,1.645,0,0,1,1.794,1.441l.026.148-.972,0-.037-.206a.593.593,0,0,0-.635-.565c-.365,0-.543.159-.444.709l.189,1.052a.818.818,0,0,1,.862-.513c.757,0,1.225.464,1.377,1.311l.189,1.053c.166.921-.292,1.449-1.3,1.453a1.673,1.673,0,0,1-1.822-1.441Zm1.382,1.961.186,1.036a.585.585,0,0,0,.634.557c.327,0,.506-.15.432-.561l-.186-1.036a.593.593,0,0,0-.635-.565C1731.7,664.977,1731.527,665.134,1731.6,665.545Z" transform="translate(-1721.039 -662.082)" fill="#3e3642"/>
      </g>
      <path id="Trazado_32190" data-name="Trazado 32190" d="M2388.855,1618.873l.905.662Z" transform="translate(-2235.887 -1447.868)" fill="#fff"/>
      <path id="Trazado_32191" data-name="Trazado 32191" d="M2023.9,1020.335l-6.433,9.9c-10.562,16.609-20.642,34.858-24.968,55.4q-.081.385-.16.773c-.05.248-.1.5-.148.745l-55.913-36.8q.049-1.245.114-2.461.119-2.3.29-4.5c1.933-25.01,8.414-39.68,11.067-44.765.713-1.365,1.149-2.039,1.149-2.039Z" transform="translate(-1857.568 -927.686)" fill="#fff"/>
    </g>
  </g>
</svg>
