<svg xmlns="http://www.w3.org/2000/svg" xmlns:xlink="http://www.w3.org/1999/xlink" width="312.287" height="323.803" viewBox="0 0 312.287 323.803">
  <defs>
    <linearGradient id="linear-gradient" x1="115.593" y1="0.5" x2="114.601" y2="0.5" gradientUnits="objectBoundingBox">
      <stop offset="0.003" stop-color="#9da4a8"/>
      <stop offset="0.222" stop-color="#dde4e8"/>
      <stop offset="0.412" stop-color="#d0d7db"/>
      <stop offset="0.84" stop-color="#9da4a8"/>
      <stop offset="1" stop-color="#6f7980"/>
    </linearGradient>
    <radialGradient id="radial-gradient" cx="0.361" cy="0.204" r="0.778" gradientTransform="matrix(-1, 0, 0, 1, 123.826, 0)" gradientUnits="objectBoundingBox">
      <stop offset="0" stop-color="#dde4e8"/>
      <stop offset="0.202" stop-color="#ccd3d7"/>
      <stop offset="0.84" stop-color="#9da4a8"/>
      <stop offset="1" stop-color="#6f7980"/>
    </radialGradient>
    <linearGradient id="linear-gradient-2" x1="4.965" y1="0.5" x2="3.972" y2="0.5" xlink:href="#linear-gradient"/>
    <radialGradient id="radial-gradient-2" cx="0.361" cy="0.204" r="0.778" gradientTransform="matrix(-1, 0, 0, 1, 5.524, 0)" xlink:href="#radial-gradient"/>
    <linearGradient id="linear-gradient-3" x1="0.291" y1="5.167" x2="0.291" y2="6.161" gradientUnits="objectBoundingBox">
      <stop offset="0" stop-color="#242c2e"/>
      <stop offset="0.201" stop-color="#3e4b4e"/>
      <stop offset="0.267" stop-color="#4b5b5f"/>
      <stop offset="0.358" stop-color="#5d7175"/>
      <stop offset="0.532" stop-color="#56696d"/>
      <stop offset="0.623" stop-color="#333f41"/>
      <stop offset="0.874" stop-color="#21292b"/>
      <stop offset="1" stop-color="#414e52"/>
    </linearGradient>
    <linearGradient id="linear-gradient-4" x1="-0.489" y1="2.417" x2="-0.489" y2="3.411" xlink:href="#linear-gradient-3"/>
    <linearGradient id="linear-gradient-5" x1="-1.576" y1="4.679" x2="-1.576" y2="5.673" xlink:href="#linear-gradient-3"/>
  </defs>
  <g id="Grupo_17407" data-name="Grupo 17407" transform="translate(-129.616 -171.585)">
    <g id="Grupo_17386" data-name="Grupo 17386" transform="translate(129.616 171.585)">
      <g id="Grupo_17368" data-name="Grupo 17368" transform="translate(30.53 107.463)">
        <path id="Trazado_32288" data-name="Trazado 32288" d="M399.216,951.016l5.362,18.881,11.3-7.945-5.158-16.773Z" transform="translate(-378.792 -906.434)" fill="#283539"/>
        <path id="Trazado_32289" data-name="Trazado 32289" d="M347.709,770.4c.511,4.153-.626,7-5.378,9.317l-22.568,13.027c-2.957,1.708-5.558.666-6.605-2.4l-5.525-23.26c-.761-3.415,1.243-6.806,4.2-8.513l24.974-14.542c2.958-1.708,4.6-.331,5.381,3.107Z" transform="translate(-304.387 -742.712)" fill="#414e52"/>
        <path id="Trazado_32290" data-name="Trazado 32290" d="M299.924,787.816l-5.525-23.26c-.761-3.415,1.243-6.805,4.2-8.513L323.575,741.5c1.5-.864,2.66-.934,3.54-.348-1.459-1.347-3.542-1.36-6.626.348l-24.973,14.542c-2.957,1.708-4.963,5.1-4.2,8.513l5.525,23.26c1.047,4.174,5.844,4.537,8.8,2.827l.01-.005C303.067,791.684,300.867,790.573,299.924,787.816Z" transform="translate(-291.154 -740.177)" fill="#283539"/>
        <g id="Grupo_17367" data-name="Grupo 17367" transform="translate(13.472 49.386)">
          <path id="Trazado_32291" data-name="Trazado 32291" d="M424.091,1015.664c3.176,1.833,3.176,4.835,0,6.668l-25.545,14.747a12.8,12.8,0,0,1-11.548,0l-22.178-12.8c-3.175-1.833-3.175-4.835,0-6.667l25.544-14.75a12.819,12.819,0,0,1,11.55,0Z" transform="translate(-362.438 -1001.482)" fill="#414e52"/>
          <path id="Trazado_32292" data-name="Trazado 32292" d="M424.086,1097.948l-25.545,14.747a12.8,12.8,0,0,1-11.548,0l-22.178-12.8a4.13,4.13,0,0,1-2.371-3.182h-.011v3.611a4.06,4.06,0,0,0,2.382,3.318l22.178,12.8a12.8,12.8,0,0,0,11.548,0l25.545-14.75a4.116,4.116,0,0,0,2.38-3.217v-3.753h-.008A4.106,4.106,0,0,1,424.086,1097.948Z" transform="translate(-362.433 -1077.098)" fill="#283539"/>
        </g>
      </g>
      <g id="Grupo_17369" data-name="Grupo 17369" transform="translate(96.244 93.878)">
        <path id="Trazado_32293" data-name="Trazado 32293" d="M638.849,693.432l2.752,1.589,43.531-25.132-2.753-1.59Z" transform="translate(-638.849 -668.299)" fill="#687579"/>
        <path id="Trazado_32294" data-name="Trazado 32294" d="M638.849,837.253l2.752,1.587V802.87l-2.752-1.589Z" transform="translate(-638.849 -776.147)" fill="#1b282c"/>
        <path id="Trazado_32295" data-name="Trazado 32295" d="M653.408,701.844v35.971l43.531-25.131V676.712Z" transform="translate(-650.656 -675.122)" fill="#414e52"/>
      </g>
      <path id="Trazado_32296" data-name="Trazado 32296" d="M437,1317.4v-37.856l162.8-94.382v37.853Z" transform="translate(-378.909 -993.599)" fill="#d4dbdf"/>
      <path id="Trazado_32297" data-name="Trazado 32297" d="M437,1288.954v-9.409l162.8-94.382v9.411Z" transform="translate(-378.909 -993.599)" opacity="0.2" style="mix-blend-mode: multiply;isolation: isolate"/>
      <path id="Trazado_32298" data-name="Trazado 32298" d="M460.917,1115.693v-41.4l162.8-94.383v41.4Z" transform="translate(-398.302 -827.137)" fill="#ea1d36"/>
      <path id="Trazado_32299" data-name="Trazado 32299" d="M437,1060.481l4.519,2.609,162.8-94.383L599.8,966.1Z" transform="translate(-378.909 -815.935)" fill="#ff506a"/>
      <path id="Trazado_32300" data-name="Trazado 32300" d="M437,1011.134v-11.5L599.8,905.25v11.5Z" transform="translate(-378.909 -766.588)" fill="#d4dbdf"/>
      <path id="Trazado_32301" data-name="Trazado 32301" d="M129.616,822.158l58.1,33.544,162.8-94.384-58.1-33.542Z" transform="translate(-129.616 -622.656)" fill="#eef5f9"/>
      <path id="Trazado_32302" data-name="Trazado 32302" d="M437,1506.888l4.519,2.61v-41.4L437,1465.487Z" transform="translate(-378.909 -1220.942)" fill="#c40010"/>
      <path id="Trazado_32303" data-name="Trazado 32303" d="M129.616,1317.916l58.1,33.544V1260.7l-58.1-33.544Z" transform="translate(-129.616 -1027.657)" fill="#aeb5b9"/>
      <g id="Grupo_17370" data-name="Grupo 17370" transform="translate(36.716 90.906)">
        <path id="Trazado_32304" data-name="Trazado 32304" d="M330.961,667.107a2.252,2.252,0,0,1,2.039,0,.713.713,0,0,1,.426.588V793.26a.715.715,0,0,1-.426.588,2.243,2.243,0,0,1-2.039,0,.722.722,0,0,1-.423-.588V667.695A.72.72,0,0,1,330.961,667.107Z" transform="translate(-329.28 -664.162)" fill="url(#linear-gradient)"/>
        <path id="Trazado_32305" data-name="Trazado 32305" d="M323.882,655.273a2.7,2.7,0,1,0,2.7-2.7A2.7,2.7,0,0,0,323.882,655.273Z" transform="translate(-323.882 -652.574)" fill="url(#radial-gradient)"/>
      </g>
      <g id="Grupo_17374" data-name="Grupo 17374" transform="translate(163.716 105.119)">
        <path id="Trazado_32306" data-name="Trazado 32306" d="M1013.336,858.24h4.374L1038.085,870l-17.492,10.1h-4.374l-20.373-11.763Z" transform="translate(-995.845 -833.582)" opacity="0.1" style="mix-blend-mode: multiply;isolation: isolate"/>
        <path id="Trazado_32307" data-name="Trazado 32307" d="M1013.336,849.5l20.374,11.762-17.49,10.1L995.845,859.6Z" transform="translate(-995.845 -826.497)" fill="#eef5f9"/>
        <g id="Grupo_17371" data-name="Grupo 17371" transform="translate(5.692)">
          <path id="Trazado_32308" data-name="Trazado 32308" d="M1031.9,767.5l17.488-10.1-5.94-29.634-17.487,10.1Z" transform="translate(-1025.964 -727.775)" fill="#9f0000"/>
          <path id="Trazado_32309" data-name="Trazado 32309" d="M1039.514,762.756l-2.23-11.127,14-8.082,2.232,11.127Z" transform="translate(-1035.145 -740.566)" fill="#969da1"/>
          <path id="Trazado_32310" data-name="Trazado 32310" d="M1051.389,819.855l-.174-.874,14-8.082.175.874Z" transform="translate(-1046.442 -795.189)" fill="#969da1"/>
          <path id="Trazado_32311" data-name="Trazado 32311" d="M1053.065,827.737l-.175-.871,14-8.085.175.873Z" transform="translate(-1047.801 -801.581)" fill="#969da1"/>
          <path id="Trazado_32312" data-name="Trazado 32312" d="M1054.748,835.625l-.175-.872,14-8.082.174.872Z" transform="translate(-1049.166 -807.979)" fill="#969da1"/>
          <path id="Trazado_32313" data-name="Trazado 32313" d="M1056.43,843.5l-.175-.871,14-8.085.175.874Z" transform="translate(-1050.53 -814.367)" fill="#969da1"/>
          <path id="Trazado_32314" data-name="Trazado 32314" d="M1058.112,851.4l-.174-.871,14-8.082.173.871Z" transform="translate(-1051.895 -820.77)" fill="#969da1"/>
        </g>
        <g id="Grupo_17372" data-name="Grupo 17372" transform="translate(8.659 1.794)">
          <path id="Trazado_32315" data-name="Trazado 32315" d="M1047.6,777l17.488-10.1-5.942-29.633-17.488,10.1Z" transform="translate(-1041.663 -737.267)" fill="#b80004"/>
          <path id="Trazado_32316" data-name="Trazado 32316" d="M1055.214,772.247l-2.231-11.126,14-8.082,2.228,11.126Z" transform="translate(-1050.844 -750.058)" fill="#afb6ba"/>
          <path id="Trazado_32317" data-name="Trazado 32317" d="M1067.095,829.351l-.175-.871,14-8.082.175.871Z" transform="translate(-1062.146 -804.686)" fill="#afb6ba"/>
          <path id="Trazado_32318" data-name="Trazado 32318" d="M1068.776,837.235l-.174-.873,14-8.082.175.873Z" transform="translate(-1063.51 -811.079)" fill="#afb6ba"/>
          <path id="Trazado_32319" data-name="Trazado 32319" d="M1070.453,845.117l-.175-.872,14-8.082.174.871Z" transform="translate(-1064.87 -817.472)" fill="#afb6ba"/>
          <path id="Trazado_32320" data-name="Trazado 32320" d="M1072.136,853l-.175-.874,14-8.082.174.871Z" transform="translate(-1066.234 -823.864)" fill="#afb6ba"/>
          <path id="Trazado_32321" data-name="Trazado 32321" d="M1073.812,860.882l-.175-.873,14-8.082.175.873Z" transform="translate(-1067.594 -830.257)" fill="#afb6ba"/>
        </g>
        <g id="Grupo_17373" data-name="Grupo 17373" transform="translate(11.128 3.369)">
          <path id="Trazado_32322" data-name="Trazado 32322" d="M1060.667,785.33l17.487-10.1-5.942-29.634-17.487,10.1Z" transform="translate(-1054.725 -745.6)" fill="#ea1d36"/>
          <path id="Trazado_32323" data-name="Trazado 32323" d="M1068.276,780.575l-2.231-11.124,14-8.085,2.229,11.127Z" transform="translate(-1063.906 -758.386)" fill="#e1e8ec"/>
          <path id="Trazado_32324" data-name="Trazado 32324" d="M1080.157,837.685l-.175-.872,14-8.082.174.871Z" transform="translate(-1075.209 -813.019)" fill="#e1e8ec"/>
          <path id="Trazado_32325" data-name="Trazado 32325" d="M1081.833,845.567l-.176-.871,14-8.082.174.871Z" transform="translate(-1076.568 -819.412)" fill="#e1e8ec"/>
          <path id="Trazado_32326" data-name="Trazado 32326" d="M1083.516,853.451l-.175-.874,14-8.082.175.871Z" transform="translate(-1077.932 -825.804)" fill="#e1e8ec"/>
          <path id="Trazado_32327" data-name="Trazado 32327" d="M1085.192,861.333l-.175-.873,14-8.082.175.873Z" transform="translate(-1079.292 -832.197)" fill="#e1e8ec"/>
          <path id="Trazado_32328" data-name="Trazado 32328" d="M1086.867,869.216l-.175-.874,14-8.082.175.874Z" transform="translate(-1080.65 -838.59)" fill="#e1e8ec"/>
        </g>
        <path id="Trazado_32329" data-name="Trazado 32329" d="M1113.057,896.983l1.527.881-17.49,10.1-1.526-.881Z" transform="translate(-1076.721 -865.003)" fill="#eef5f9"/>
        <path id="Trazado_32330" data-name="Trazado 32330" d="M1121.133,905.042v-3.4l-17.491,10.1v3.4Z" transform="translate(-1083.269 -868.785)" fill="#d4dbdf"/>
        <path id="Trazado_32331" data-name="Trazado 32331" d="M995.845,902.931l17.309,9.994,1.539-1.02,1.526.881v3.4l-20.373-11.763Z" transform="translate(-995.845 -869.827)" fill="#aeb5b9"/>
      </g>
      <g id="Grupo_17380" data-name="Grupo 17380" transform="translate(77.404 147.727)">
        <g id="Grupo_17377" data-name="Grupo 17377">
          <path id="Trazado_32332" data-name="Trazado 32332" d="M731.862,988.388,701.23,971.077V954.36l30.629,17.573Z" transform="translate(-670.6 -954.143)" fill="#b2926e"/>
          <path id="Trazado_32333" data-name="Trazado 32333" d="M539.162,988.388V971.931l30.631-17.572v16.717Z" transform="translate(-539.162 -954.143)" fill="#a58561"/>
          <path id="Trazado_32334" data-name="Trazado 32334" d="M569.793,1077.806l-30.631-17.685,30.631-17.311,30.632,17.311Z" transform="translate(-539.162 -1025.877)" fill="#ccac88"/>
          <path id="Trazado_32335" data-name="Trazado 32335" d="M539.162,1047.331l30.631,17.685v16.456l-30.631-17.685Z" transform="translate(-539.162 -1029.543)" fill="#b39372"/>
          <path id="Trazado_32336" data-name="Trazado 32336" d="M731.86,1047.337l0,16.455-30.632,17.685v-16.456Z" transform="translate(-670.6 -1029.548)" fill="#ccac88"/>
          <path id="Trazado_32337" data-name="Trazado 32337" d="M570.18,988.48l-30.54-17.633,30.54-17.632,30.54,17.632Z" transform="translate(-539.55 -953.214)" fill="#d9b995"/>
          <path id="Trazado_32338" data-name="Trazado 32338" d="M539.253,1046.509l30.54,17.633v.208l-30.631-17.685Z" transform="translate(-539.162 -1028.876)" fill="#c0a07f"/>
          <path id="Trazado_32339" data-name="Trazado 32339" d="M731.77,1046.509l.089.156-30.629,17.684v-.208Z" transform="translate(-670.6 -1028.876)" fill="#e6c6a2"/>
          <path id="Trazado_32340" data-name="Trazado 32340" d="M617.93,1016.376l30.627-17.685-2.718-1.569-30.629,17.684Z" transform="translate(-600.837 -988.823)" fill="#e6cfb5"/>
          <path id="Trazado_32341" data-name="Trazado 32341" d="M617.927,1097.372l0-5.1-2.72-1.569v5.1Z" transform="translate(-600.837 -1064.719)" fill="#e6cfb5"/>
          <g id="Grupo_17376" data-name="Grupo 17376" transform="translate(11.616 27.799)">
            <path id="Trazado_32342" data-name="Trazado 32342" d="M617.612,1118.812c0,.631-.448.889-.995.574l-15-8.658a2.207,2.207,0,0,1-1-1.722v-8c0-.632.448-.89,1-.574l15,8.658a2.209,2.209,0,0,1,.995,1.723Z" transform="translate(-600.625 -1100.3)" fill="#e2e9ed"/>
            <path id="Trazado_32343" data-name="Trazado 32343" d="M621.814,1123.206l-12.171-7.027v-.35l12.171,7.027Z" transform="translate(-607.938 -1112.894)" fill="#687579"/>
            <path id="Trazado_32344" data-name="Trazado 32344" d="M621.814,1128.4l-12.171-7.028v-.35l12.171,7.028Z" transform="translate(-607.938 -1117.107)" fill="#687579"/>
            <path id="Trazado_32345" data-name="Trazado 32345" d="M621.814,1133.6l-12.171-7.028v-.349l12.171,7.028Z" transform="translate(-607.938 -1121.319)" fill="#687579"/>
            <path id="Trazado_32346" data-name="Trazado 32346" d="M617.125,1136.085l-7.482-4.32v-.35l7.482,4.32Z" transform="translate(-607.938 -1125.534)" fill="#687579"/>
            <g id="Grupo_17375" data-name="Grupo 17375" transform="translate(0.899 1.206)">
              <path id="Trazado_32347" data-name="Trazado 32347" d="M620.173,1123.436l-14.4-8.313a.872.872,0,0,1-.4-.683v-7.478c0-.251.178-.353.4-.227l14.4,8.313a.878.878,0,0,1,.4.684v7.477C620.568,1123.46,620.39,1123.562,620.173,1123.436Zm-14.4-16.5c-.118-.068-.215-.012-.215.125v7.477a.479.479,0,0,0,.216.373l14.4,8.314c.118.068.216.012.216-.125v-7.478a.482.482,0,0,0-.216-.374Z" transform="translate(-605.379 -1106.681)" fill="#687579"/>
            </g>
          </g>
        </g>
        <g id="Grupo_17378" data-name="Grupo 17378" transform="translate(1.651 28.286)">
          <path id="Trazado_32348" data-name="Trazado 32348" d="M551.55,1109.2l-3.65-2.107v-4.213l3.649,2.107Z" transform="translate(-547.9 -1102.877)" fill="#e2e9ed"/>
          <path id="Trazado_32349" data-name="Trazado 32349" d="M552.772,1111.31l-2.905-1.678v-3.356l2.905,1.678Z" transform="translate(-549.495 -1105.633)" fill="#ecb700"/>
        </g>
        <g id="Grupo_17379" data-name="Grupo 17379" transform="translate(1.651 23.405)">
          <path id="Trazado_32350" data-name="Trazado 32350" d="M551.55,1083.369l-3.65-2.106v-4.213l3.649,2.106Z" transform="translate(-547.9 -1077.051)" fill="#e2e9ed"/>
          <path id="Trazado_32351" data-name="Trazado 32351" d="M552.772,1085.48l-2.905-1.679v-3.356l2.905,1.678Z" transform="translate(-549.495 -1079.804)" fill="#338046"/>
        </g>
      </g>
      <path id="Trazado_32352" data-name="Trazado 32352" d="M497.941,249.859v90.755L338.176,432.857V342.1Z" transform="translate(-298.759 -235.066)" opacity="0.2" style="mix-blend-mode: multiply;isolation: isolate"/>
      <g id="Grupo_17381" data-name="Grupo 17381" transform="translate(196.481 0)">
        <path id="Trazado_32353" data-name="Trazado 32353" d="M1176.276,186.117a2.252,2.252,0,0,1,2.04,0,.715.715,0,0,1,.423.59V312.27a.715.715,0,0,1-.423.588,2.244,2.244,0,0,1-2.04,0,.718.718,0,0,1-.426-.588V186.706A.718.718,0,0,1,1176.276,186.117Z" transform="translate(-1174.594 -183.172)" fill="url(#linear-gradient-2)"/>
        <path id="Trazado_32354" data-name="Trazado 32354" d="M1169.206,174.284a2.7,2.7,0,1,0,2.7-2.7A2.7,2.7,0,0,0,1169.206,174.284Z" transform="translate(-1169.206 -171.585)" fill="url(#radial-gradient-2)"/>
      </g>
      <g id="Grupo_17385" data-name="Grupo 17385" transform="translate(170.668 28.376)">
        <g id="Grupo_17382" data-name="Grupo 17382">
          <path id="Trazado_32355" data-name="Trazado 32355" d="M1032.628,333.155l19.8-11.433v22.865l-19.8,11.432Z" transform="translate(-1032.628 -321.722)" fill="#ea1d36"/>
        </g>
        <g id="Grupo_17384" data-name="Grupo 17384">
          <g id="Grupo_17383" data-name="Grupo 17383">
            <path id="Trazado_32356" data-name="Trazado 32356" d="M1032.628,333.155l19.8-11.433v22.865l-19.8,11.432Zm18.84-9.767-17.878,10.321v20.646l17.881-10.323Z" transform="translate(-1032.628 -321.722)" fill="#fff"/>
          </g>
        </g>
      </g>
    </g>
    <g id="Grupo_17406" data-name="Grupo 17406" transform="translate(198.818 266.797)">
      <g id="Grupo_17404" data-name="Grupo 17404" transform="translate(96.161)">
        <path id="Trazado_32357" data-name="Trazado 32357" d="M1425.492,1630.509l-13.731,2.98a13.8,13.8,0,0,1-3.433,3.52c-2.721,2.179-10.364,8.449-10.687,10.14s-.389,4.094,3.692,4.512a16.994,16.994,0,0,0,11.316-2.562c3.905-2.332,4.67-3.259,7.909-4.15a25.609,25.609,0,0,0,6.606-3.1C1427.435,1641.651,1428.083,1635.108,1425.492,1630.509Z" transform="translate(-1323.239 -1449.986)" fill="#5da5fd"/>
        <path id="Trazado_32358" data-name="Trazado 32358" d="M1425.65,1630.509l-13.731,2.98a8.353,8.353,0,0,1-1.272,1.574,9.993,9.993,0,0,0,5.339,2.172c4.656.454,7.984-1.663,8.211-.378s-5.067,4.214-10.135,5.208-1.732,1.6,2.575.465,8.316-2.845,7.257-1.385-9.152,4.712-11.8,6.679a16.076,16.076,0,0,1-14.4,1.111c.173,1.26,1.039,2.444,3.79,2.726a17,17,0,0,0,11.317-2.562c3.905-2.332,4.67-3.259,7.908-4.15a25.609,25.609,0,0,0,6.606-3.1C1427.593,1641.651,1428.241,1635.108,1425.65,1630.509Z" transform="translate(-1323.398 -1449.986)" fill="#367ed6"/>
        <path id="Trazado_32359" data-name="Trazado 32359" d="M1680.071,1641.7a9.343,9.343,0,0,1-1.014,5.359c-1.448,2.824-3.693,8.98-3.766,11.8s-.072,5.142,3.911,5.214,8.509-2.715,9.921-5,1.593-6.373,2.752-8.545a25.609,25.609,0,0,0,1.81-4.489s-2.39-9.415-3.114-11.152-5.431-1.25-5.431-1.25S1679.42,1637.063,1680.071,1641.7Z" transform="translate(-1548.512 -1452.475)" fill="#5da5fd"/>
        <path id="Trazado_32360" data-name="Trazado 32360" d="M1687.247,1633.64s-5.721,3.423-5.069,8.057a8.825,8.825,0,0,1-.268,3.413,13.653,13.653,0,0,0,2.194.058c3.92-.17,7.371-1.918,7.882-2.471s2.343-2.513.81,1.534-5.709,12.057-3.323,9.16,4.431-8.734,4.218-6.178-1.279,7.8-4.09,11.291c-2.1,2.611-7.131,5.6-11.726,4.065.5.9,1.495,1.469,3.436,1.5,3.983.073,8.509-2.715,9.921-5s1.593-6.373,2.752-8.545a25.609,25.609,0,0,0,1.81-4.489s-2.39-9.415-3.114-11.152S1687.247,1633.64,1687.247,1633.64Z" transform="translate(-1550.618 -1452.475)" fill="#367ed6"/>
        <path id="Trazado_32361" data-name="Trazado 32361" d="M1435.467,1164.928a14.112,14.112,0,0,0-4.416,8.191c-1.019,5.52-1.614,19.277-.765,28.958s4.246,18.174,5.181,24.458a86.413,86.413,0,0,1,.34,19.108c-.51,3.906.933,11.652,4.884,12.586s12.186.917,13.12-3.5.255-19.957,0-25.9-2.8-12.654-2.293-14.692,1.9-14.607,1.9-14.607l-2.214-18.891-2.995-13.366Z" transform="translate(-1349.496 -1072.4)" fill="#e6f6ff"/>
        <path id="Trazado_32362" data-name="Trazado 32362" d="M1461.105,1214.136c.51-2.038,1.9-14.607,1.9-14.607l-2.214-18.891-2.995-13.366-12.744-2.344a12.982,12.982,0,0,0-3.352,4.71,3.074,3.074,0,0,1,2.811.7c2.2,1.785-4.245,6.782-.439,5.419s6.863-2.149,7.6-.9-2.135,3.764-2.122,4.43,4.971-1.833,4.487,1.411-1.326,10.381,1.6,13.381,5.876,10.633,0,18.35-6.035,13.224.127,10.326,5.917,4,3.262,10.089-8.045,8.7-3.262,12.7c4.712,3.942,8.664,1.808,1.134,13.083,3.5-.727,5.982-1.459,6.5-3.9.934-4.416.255-19.957,0-25.9S1460.6,1216.175,1461.105,1214.136Z" transform="translate(-1359.084 -1072.4)" fill="#c7deeb"/>
        <path id="Trazado_32363" data-name="Trazado 32363" d="M1555.472,1280.763c-.085-1.359-2.8-14.691-3.737-19.871s-5.35-12.909-6.029-13.928-4.161-6.709-4.671-8.747a39.446,39.446,0,0,1-1.274-9.512c0-3.992-3.737-20.891-3.906-23.887s-4.163-7.789-4.163-7.789l-24.73,1.529c2.273,15.371,9.191,34.479,10.3,36.772s5.095,12.058,8.067,16.39,8.747,17.07,10.106,22.59,3.905,12.993,7.025,15.211,8.453.437,11.51-2.62S1555.557,1282.122,1555.472,1280.763Z" transform="translate(-1412.009 -1098.434)" fill="#e6f6ff"/>
        <path id="Trazado_32364" data-name="Trazado 32364" d="M1553.966,1286.9c3.057-3.057,1.591-4.778,1.506-6.137s-2.8-14.691-3.737-19.871-5.35-12.909-6.029-13.928-4.161-6.709-4.671-8.747a39.446,39.446,0,0,1-1.274-9.512c0-3.992-3.737-20.891-3.906-23.887s-4.163-7.789-4.163-7.789l-24.73,1.529c.332,2.245.764,4.57,1.261,6.911,1.245-.111,2.73.077,3.253,1.437.96,2.5,1.7,5.891,3.837,4.932s4.427-1.992,5.091-.59,6.124-1.992,8.411-3.1,6.3-2.213,4.554,3.394-8.833,19.036-4.332,18.593,8.707-11.8,7.821-3.762-3.985,17.526-1.55,17.4,8.78.164,6.935,4.223,1.7,7.673,3.837,10.92,4.132,4.8,1.18,8.411-.369.074,2.214,8.19c2.057,6.464,3.595,9.466,1.564,13.552A12.825,12.825,0,0,0,1553.966,1286.9Z" transform="translate(-1412.009 -1098.434)" fill="#c7deeb"/>
        <g id="Grupo_17390" data-name="Grupo 17390" transform="translate(101.786 13.392)">
          <path id="Trazado_32365" data-name="Trazado 32365" d="M1582.265,828.055a2.428,2.428,0,0,1-1.094,1.895l-10.67,6.159a2.425,2.425,0,0,1-2.187,0l-24.1-13.915a2.427,2.427,0,0,1-1.094-1.894V773.346a2.425,2.425,0,0,1,1.094-1.895l10.669-6.16a2.425,2.425,0,0,1,2.187,0l24.1,13.916a2.426,2.426,0,0,1,1.094,1.894Z" transform="translate(-1543.118 -761.474)" fill="#d53a30"/>
          <path id="Trazado_32366" data-name="Trazado 32366" d="M1693.983,846.087l-10.67,6.16a2.428,2.428,0,0,0-1.094,1.895v47.846a2.232,2.232,0,0,0,1.094-.261l10.67-6.159a2.429,2.429,0,0,0,1.094-1.895V846.718a1.73,1.73,0,0,0-.017-.205C1694.97,845.971,1694.521,845.776,1693.983,846.087Z" transform="translate(-1655.93 -827.091)" fill="#9e2a24" opacity="0.5"/>
          <path id="Trazado_32367" data-name="Trazado 32367" d="M1568.314,818.966l-24.1-13.916c-.538-.311-.987-.115-1.076.426a1.668,1.668,0,0,0-.017.205v46.953a2.427,2.427,0,0,0,1.094,1.895l24.1,13.915a2.233,2.233,0,0,0,1.094.261V820.861A2.426,2.426,0,0,0,1568.314,818.966Zm-3.992,39.307a1.37,1.37,0,0,1-.67-.16l-.271-.157V825.78a1.488,1.488,0,0,0-.671-1.162l-14.507-8.376v-.429a1.1,1.1,0,0,1,.01-.126c.055-.332.33-.452.66-.261l14.779,8.533a1.486,1.486,0,0,1,.67,1.161Z" transform="translate(-1543.118 -793.81)" fill="#9e2a24"/>
          <g id="Grupo_17387" data-name="Grupo 17387" transform="translate(4.792 1.978)">
            <path id="Trazado_32368" data-name="Trazado 32368" d="M1581.4,787.8a11.835,11.835,0,0,1-10.711,0,3.763,3.763,0,0,1-2.219-3.092v3.462a3.763,3.763,0,0,0,2.219,3.093,11.835,11.835,0,0,0,10.711,0,3.763,3.763,0,0,0,2.218-3.093v-3.462A3.763,3.763,0,0,1,1581.4,787.8Z" transform="translate(-1568.473 -779.408)" fill="#9e2a24"/>
            <path id="Trazado_32369" data-name="Trazado 32369" d="M1581.4,757.961a11.829,11.829,0,0,0-10.711,0,3.762,3.762,0,0,0-2.219,3.092v2.671a3.764,3.764,0,0,0,2.219,3.093,11.844,11.844,0,0,0,10.711,0,3.765,3.765,0,0,0,2.218-3.093v-2.671A3.763,3.763,0,0,0,1581.4,757.961Z" transform="translate(-1568.473 -756.679)" fill="#414e52"/>
            <path id="Trazado_32370" data-name="Trazado 32370" d="M1581.4,782.91a11.83,11.83,0,0,1-10.711,0,3.762,3.762,0,0,1-2.219-3.092v2.671a3.764,3.764,0,0,0,2.219,3.093,11.844,11.844,0,0,0,10.711,0,3.765,3.765,0,0,0,2.218-3.093v-2.671A3.763,3.763,0,0,1,1581.4,782.91Z" transform="translate(-1568.473 -775.445)" fill="#2e383b"/>
          </g>
          <g id="Grupo_17389" data-name="Grupo 17389" transform="translate(19.063)">
            <path id="Trazado_32371" data-name="Trazado 32371" d="M1656.908,820.409a11.84,11.84,0,0,1-10.711,0,3.763,3.763,0,0,1-2.218-3.091v4.372a3.764,3.764,0,0,0,2.218,3.093,11.839,11.839,0,0,0,10.711,0,3.764,3.764,0,0,0,2.218-3.092v-4.373A3.762,3.762,0,0,1,1656.908,820.409Z" transform="translate(-1643.979 -803.879)" fill="#9e2a24"/>
            <path id="Trazado_32372" data-name="Trazado 32372" d="M1656.908,781.571a11.832,11.832,0,0,0-10.711,0,3.764,3.764,0,0,0-2.218,3.092v4.373a3.764,3.764,0,0,0,2.218,3.092,11.842,11.842,0,0,0,10.711,0,3.763,3.763,0,0,0,2.218-3.091v-4.374A3.763,3.763,0,0,0,1656.908,781.571Z" transform="translate(-1643.979 -773.849)" fill="#414e52"/>
            <path id="Trazado_32373" data-name="Trazado 32373" d="M1656.908,806.52a11.834,11.834,0,0,1-10.711,0,3.763,3.763,0,0,1-2.218-3.092V807.8a3.764,3.764,0,0,0,2.218,3.092,11.842,11.842,0,0,0,10.711,0,3.763,3.763,0,0,0,2.218-3.091v-4.374A3.762,3.762,0,0,1,1656.908,806.52Z" transform="translate(-1643.979 -792.614)" fill="#2e383b"/>
            <g id="Grupo_17388" data-name="Grupo 17388" transform="translate(2.999)">
              <path id="Trazado_32374" data-name="Trazado 32374" d="M1667.656,746.986a7.153,7.153,0,0,0-6.47,0,2.274,2.274,0,0,0-1.34,1.868v7.6a2.274,2.274,0,0,0,1.34,1.867,7.149,7.149,0,0,0,6.47,0,2.273,2.273,0,0,0,1.339-1.867v-7.6A2.272,2.272,0,0,0,1667.656,746.986Z" transform="translate(-1659.846 -746.213)" fill="#414e52"/>
              <path id="Trazado_32375" data-name="Trazado 32375" d="M1667.656,762.056a7.156,7.156,0,0,1-6.47,0,2.275,2.275,0,0,1-1.34-1.868v7.6a2.274,2.274,0,0,0,1.34,1.867,7.148,7.148,0,0,0,6.47,0,2.273,2.273,0,0,0,1.339-1.867v-7.6A2.274,2.274,0,0,1,1667.656,762.056Z" transform="translate(-1659.846 -757.547)" fill="#2e383b"/>
            </g>
          </g>
          <path id="Trazado_32376" data-name="Trazado 32376" d="M1566.65,897.176a1.485,1.485,0,0,1-.671-1.161V863.839l-.272-.157c-.33-.19-.605-.07-.66.262a1.069,1.069,0,0,0-.01.126v32.605a1.487,1.487,0,0,0,.67,1.161l14.779,8.533a1.37,1.37,0,0,0,.671.161v-.976Z" transform="translate(-1560.895 -841.407)" fill="#9e2a24" opacity="0.5" style="mix-blend-mode: multiply;isolation: isolate"/>
        </g>
        <g id="Grupo_17391" data-name="Grupo 17391" transform="translate(60.058 31.442)">
          <path id="Trazado_32377" data-name="Trazado 32377" d="M1329.607,906.6c.25.082.068.179,1.41-.025s4.793-4.278,5.562-5.323,5.472-7.951,6.364-9.059a57.573,57.573,0,0,0,3.232-5.223c.311-.578,4.346-12.159,4.346-12.159l2.219-21.477-3.865-11.618s-1.946,2.452-2.387,2.927c-.894.961-4.847,5.467-4.822,9.709s-.584,9.553-1.763,11.988-1.638,2.9-1.624,4.448-4.169,8.373-5,9.913a76.717,76.717,0,0,0-4.6,9.013c-1.123,3.09-6.982,11.5-6.294,13.653S1328.485,906.237,1329.607,906.6Z" transform="translate(-1322.331 -841.719)" fill="#e6f6ff"/>
          <path id="Trazado_32378" data-name="Trazado 32378" d="M1380.707,878.18s-4.936,1.457-5.211,4.285-2.747,5.193-1.8,6.775,1.67,1.383,1.886,2.809-1.267,7.093-2.38,8.5-.922,2.085.927,3.486,4.167,1.225,2,4.119-11.738,1.966-7.272,4.338,4.47,4.716-1.374,7.95-5.46,5.755-5.077,8.278c.318,2.1,3.295,3.628-1.731,6.887l.03.009c.25.082.068.179,1.41-.025s4.792-4.278,5.563-5.324,5.471-7.951,6.364-9.059a57.712,57.712,0,0,0,3.232-5.223c.31-.578,4.346-12.159,4.346-12.159l2.218-21.477-.738-4.857Z" transform="translate(-1353.426 -870.731)" fill="#c7deeb"/>
        </g>
        <path id="Trazado_32379" data-name="Trazado 32379" d="M1287.77,1194.363a8.449,8.449,0,0,1-.41,2.87,24.876,24.876,0,0,0-1.389,4.591c-.158,1.01-1.214,4.908-2.414,5.341s-7.166-.592-7.953-1.329a15.791,15.791,0,0,1-2.256-5.288,22.228,22.228,0,0,1,1.8-2.5c.068-.062,5.976-3.191,5.976-3.191l3.406-1.321Z" transform="translate(-1222.543 -1095.597)" fill="#367ed6"/>
        <path id="Trazado_32380" data-name="Trazado 32380" d="M1491.584,861.478c.266-2.151,4.8-20.265,3.855-21.682-2.385-3.563-12.925-10.43-12.925-10.43l-25.943-6.247s-5.8.3-6.455,8.761-1.155,18.366-1.089,21.116,1.206,11.568,1.081,13.408.271,12.273-.739,13.692-2.418,8.72,3.423,12.285c6.409,3.911,9.577,6.3,18.155,6.259,10.621-.05,17.106-5.888,16.566-7.8s-3.059-14.448-2.224-16.369S1491.319,863.63,1491.584,861.478Z" transform="translate(-1364.558 -795.192)" fill="#e6f6ff"/>
        <path id="Trazado_32381" data-name="Trazado 32381" d="M1541.793,980.264l-2.643,9.641a31.667,31.667,0,0,0,5.381.382c10.621-.049,17.106-5.888,16.566-7.8s-3.059-14.448-2.223-16.369,6.029-10.84,6.294-12.992c.157-1.274,1.81-8.136,2.938-13.821l-12.165-3.179s-3.744,2.911-3.351,5.3,0,4.6-.982,4.932-3.338,1.237-3.736,2.348,3.511,10.142.63,11.286-6.392,1.951-3.951,3.088,5.525,1.078,4.257,4.125S1541.793,980.264,1541.793,980.264Z" transform="translate(-1438.114 -886.841)" fill="#c7deeb"/>
        <path id="Trazado_32382" data-name="Trazado 32382" d="M1444.837,837.583c3.356-16.056,10.782-15.912,10.782-15.912l2.523,1.057s-12.8-.247-12.385,36.256a90.636,90.636,0,0,1-1.116-13.3C1444.767,840.106,1444.837,837.583,1444.837,837.583Z" transform="translate(-1361.459 -794.017)" fill="#2e383b"/>
        <path id="Trazado_32383" data-name="Trazado 32383" d="M1487.166,880.342c-.219,15.553-.041,19.748.23,26.1.1,2.412.353,4.6.574,6.529.173,1.509.327,2.862.375,4.026.236.132.472.262.706.386-.024-1.287-.2-2.8-.39-4.491-.219-1.919-.469-4.093-.57-6.479-.27-6.339-.448-10.527-.229-26.06.215-15.287,6.663-29.552,6.728-29.694l-.633-.289C1493.891,850.512,1487.383,864.905,1487.166,880.342Z" transform="translate(-1395.875 -817.292)" fill="#c7deeb"/>
        <path id="Trazado_32384" data-name="Trazado 32384" d="M1507.06,890.193c-.219,15.553-.04,19.748.23,26.1.1,2.411.353,4.6.575,6.529.168,1.471.319,2.795.371,3.939q.348.129.705.247c-.039-1.237-.2-2.668-.385-4.266-.22-1.918-.469-4.093-.571-6.479-.27-6.339-.448-10.527-.229-26.06.215-15.287,6.663-29.551,6.728-29.694l-.632-.289C1513.786,860.363,1507.277,874.756,1507.06,890.193Z" transform="translate(-1412.009 -825.281)" fill="#c7deeb"/>
        <path id="Trazado_32385" data-name="Trazado 32385" d="M1577.234,886.771c2.25-17.294,15.824-17.153,15.824-17.153L1590,867.188s-14,.116-15.918,17.45c-1.8,16.238,4.563,27.417,11.891,27.838l2.9.733.06-3.08C1581.606,909.71,1575.54,899.787,1577.234,886.771Z" transform="translate(-1466.191 -830.932)" fill="#2e383b"/>
        <path id="Trazado_32386" data-name="Trazado 32386" d="M1451.679,903.271l.129,3.036s5.833,11.812,26.143,9.873l.136-3.115C1457.777,915,1451.679,903.271,1451.679,903.271Z" transform="translate(-1367.174 -860.195)" fill="#2e383b"/>
        <g id="Grupo_17399" data-name="Grupo 17399" transform="translate(83.172)">
          <path id="Trazado_32387" data-name="Trazado 32387" d="M1502.557,709c-2.358-1.325-3.924-2.553-4.674-5.018s.887-7.808,1.422-13.431-4.031-13.209-4.888-13.959-6.478-2.918-14.777,1.259-10.205,13.282-10.205,13.282,1.33,2.248,6.7,3.686,7.612,1.212,6.927,5.631c-.611,3.943-2.433,8.381-5.89,9.093l-3.534-3.806s-5.214,6.757,4.237,10.416c11.533,4.465,24.2-2.774,25.481-3.9S1504.166,709.9,1502.557,709Z" transform="translate(-1464.747 -675.356)" fill="#e6f6ff"/>
          <path id="Trazado_32388" data-name="Trazado 32388" d="M1571.706,775.368c-2.358-1.325-3.924-2.553-4.674-5.018-.737-2.425.832-7.634,1.393-13.155a34.26,34.26,0,0,1-3.062,8.448c-2.659,4.545-7.975,7.144-7.975,7.557s8.211-3.13,8.507-2.5c.7,1.49-3.669,5.905-7.443,7.23-3.455,1.214-6.026,2.244-.709,1.181s10.154-3.957,11.224-2.613c.842,1.057-2.645,5.774-12.215,7.411a33.515,33.515,0,0,0,15.757-5.285C1573.794,777.5,1573.315,776.273,1571.706,775.368Z" transform="translate(-1533.896 -741.728)" fill="#c7deeb"/>
          <path id="Trazado_32389" data-name="Trazado 32389" d="M1501.01,844.916s-6.073.64-7.991,0-2.237-1.971,1.371-2.77,8.379-3.463,8.219-3.747-8.578,2.948-10.549,2.848c-1.135-.059-.433-1.981.367-3.681a5.646,5.646,0,0,1-3.348,2.317l-3.534-3.806s-4.8,6.222,3.165,9.958C1496.188,847.265,1501.01,844.916,1501.01,844.916Z" transform="translate(-1476.649 -805.701)" fill="#c7deeb"/>
          <g id="Grupo_17393" data-name="Grupo 17393" transform="translate(0 22.863)">
            <path id="Trazado_32390" data-name="Trazado 32390" d="M1451.138,797.07a3.654,3.654,0,0,0-3.551-.5,4.473,4.473,0,0,0-2.836,5.151,3.477,3.477,0,0,0,1.211,1.893l1.144.9a3.481,3.481,0,0,1-1.211-1.893,4.472,4.472,0,0,1,2.836-5.151,3.655,3.655,0,0,1,3.551.5Z" transform="translate(-1444.63 -796.325)" fill="#414e52"/>
            <g id="Grupo_17392" data-name="Grupo 17392" transform="translate(1.143 0.904)">
              <path id="Trazado_32391" data-name="Trazado 32391" d="M1453.637,801.352a3.522,3.522,0,0,1,4.761,2.39,4.472,4.472,0,0,1-2.836,5.154,3.523,3.523,0,0,1-4.761-2.393A4.472,4.472,0,0,1,1453.637,801.352Z" transform="translate(-1450.68 -801.105)" fill="#273438"/>
            </g>
          </g>
          <path id="Trazado_32392" data-name="Trazado 32392" d="M1480.445,772.9s.383,6.817,2.654,7.331,6.96-.188,7.7-3.471a13.756,13.756,0,0,0,.172-4.67c-1.048-.947-3.108-1.222-6.227-2.057a17.307,17.307,0,0,1-4.7-1.93,5.459,5.459,0,0,0,.471,1.864c.372.434.5.722.454.826S1480.445,772.9,1480.445,772.9Z" transform="translate(-1473.354 -750.575)" fill="#d9a782"/>
          <g id="Grupo_17394" data-name="Grupo 17394" transform="translate(2.314 21.193)">
            <path id="Trazado_32393" data-name="Trazado 32393" d="M1464.827,802.582l2.164-.239c2.97-.611,4.732-3.971,5.557-7.406-.035-.019-.066-.044-.1-.061-1.8-.794-5.568-1.246-6.746-1.8-2.088-.985-3-3.285-4.012-3.285l-1.237,2.3-3.572,5.016s3.891,5.11,5.459,5.352A17.007,17.007,0,0,0,1464.827,802.582Z" transform="translate(-1456.876 -789.353)" fill="#5da5fd"/>
            <path id="Trazado_32394" data-name="Trazado 32394" d="M1479.407,802.581l2.159-.238c2.97-.611,4.732-3.971,5.557-7.406-.035-.019-.066-.044-.1-.061-1.8-.794-5.568-1.246-6.746-1.8-2.087-.985-3-3.285-4.012-3.285l-1.237,2.3-.176.247a4.591,4.591,0,0,1,1.581,1.2,8.771,8.771,0,0,1,.878,2.427l1.131,6.612C1478.744,802.582,1479.071,802.585,1479.407,802.581Z" transform="translate(-1471.451 -789.353)" fill="#367ed6" opacity="0.5"/>
            <path id="Trazado_32395" data-name="Trazado 32395" d="M1519.41,792.436c-.5.115-.414.334-.457.8a10.043,10.043,0,0,1,.128,3.562,9.674,9.674,0,0,1-2.092,3.229c2.656-1.392,4.111-5.206,4.644-8.645.337-2.171-.034-3.22-1.134-3.9C1520.891,788.772,1519.913,792.322,1519.41,792.436Z" transform="translate(-1505.628 -787.488)" fill="#273438"/>
          </g>
          <path id="Trazado_32396" data-name="Trazado 32396" d="M1485.352,775.918c1.486-.641,2.018-4.228,1.7-5.906a2.656,2.656,0,0,0-.326-.874c-1.154-.64-3.025-.946-5.642-1.646a15.427,15.427,0,0,1-5.551-2.522l.046,6.993a5.341,5.341,0,0,1,3.329,2.645C1480.025,776.773,1483.773,776.6,1485.352,775.918Z" transform="translate(-1469.695 -748.033)" opacity="0.4" style="mix-blend-mode: multiply;isolation: isolate"/>
          <path id="Trazado_32397" data-name="Trazado 32397" d="M1485.541,792.552c1.486-.641,2.018-4.228,1.7-5.906a2.655,2.655,0,0,0-.326-.874,5.447,5.447,0,0,0-.623-.292,2.309,2.309,0,0,1,.646,1.222c.32,1.708-.3,5.037-1.523,5.566a6.677,6.677,0,0,1-2.452.432c-.833,0-2.851-.156-3.594-1.6a5.617,5.617,0,0,0-3.3-2.739l-.308-.022,0,.257a5.34,5.34,0,0,1,3.329,2.645C1480.214,793.407,1483.962,793.234,1485.541,792.552Z" transform="translate(-1469.884 -764.667)" fill="#2e383b"/>
          <path id="Trazado_32398" data-name="Trazado 32398" d="M1480.757,767.4a15.1,15.1,0,0,1-5.221-2.43l.046,6.993a5.112,5.112,0,0,1,1.332.561A17.018,17.018,0,0,1,1480.757,767.4Z" transform="translate(-1469.695 -748.033)" fill="#fff" opacity="0.3"/>
          <path id="Trazado_32399" data-name="Trazado 32399" d="M1487.121,770.558a5.053,5.053,0,0,0-.066-.546,2.656,2.656,0,0,0-.326-.874c-1.154-.64-3.025-.946-5.642-1.646a15.427,15.427,0,0,1-5.551-2.522l.008,1.174a15.431,15.431,0,0,0,5.543,2.516C1484.024,769.446,1486.022,769.735,1487.121,770.558Z" transform="translate(-1469.695 -748.033)" opacity="0.4" style="mix-blend-mode: multiply;isolation: isolate"/>
          <g id="Grupo_17398" data-name="Grupo 17398" transform="translate(4.061 26.949)">
            <path id="Trazado_32400" data-name="Trazado 32400" d="M1474.628,819.35c-.407-.982-1.689-1.554-3.392-1.371-2.344.253-4.6,1.847-5.045,3.561a1.986,1.986,0,0,0,.062,1.274l1.082,2.611a1.983,1.983,0,0,1-.062-1.273c.44-1.714,2.7-3.309,5.045-3.562,1.7-.184,2.985.389,3.392,1.372Z" transform="translate(-1466.116 -817.945)" fill="#414e52"/>
            <path id="Trazado_32401" data-name="Trazado 32401" d="M1476.9,824.826c-.407-.983-1.689-1.555-3.392-1.37-2.344.253-4.6,1.847-5.045,3.562a1.982,1.982,0,0,0,.062,1.272l.129.325a1.988,1.988,0,0,1-.062-1.273c.44-1.715,2.7-3.309,5.045-3.562,1.7-.184,2.985.388,3.392,1.371Z" transform="translate(-1467.962 -822.386)" fill="#344145"/>
            <g id="Grupo_17395" data-name="Grupo 17395" transform="translate(1.082 2.611)">
              <path id="Trazado_32402" data-name="Trazado 32402" d="M1476.96,831.8c2.347-.253,3.895.929,3.455,2.644s-2.7,3.309-5.048,3.562-3.892-.93-3.451-2.644S1474.616,832.048,1476.96,831.8Z" transform="translate(-1471.841 -831.761)" fill="#344145"/>
            </g>
            <g id="Grupo_17396" data-name="Grupo 17396" transform="translate(1.75 3.157)">
              <path id="Trazado_32403" data-name="Trazado 32403" d="M1479.938,834.677c2.092-.226,3.471.828,3.079,2.357s-2.407,2.949-4.5,3.175-3.468-.829-3.076-2.357S1477.849,834.9,1479.938,834.677Z" transform="translate(-1475.375 -834.647)" fill="#273438"/>
            </g>
            <g id="Grupo_17397" data-name="Grupo 17397" transform="translate(4.121 5.153)">
              <path id="Trazado_32404" data-name="Trazado 32404" d="M1489.676,845.22c.8-.087,1.335.318,1.185.906a2.037,2.037,0,0,1-1.731,1.222c-.8.087-1.335-.319-1.184-.907A2.038,2.038,0,0,1,1489.676,845.22Z" transform="translate(-1487.92 -845.208)" fill="#414e52"/>
            </g>
          </g>
          <path id="Trazado_32405" data-name="Trazado 32405" d="M1531.969,776.993s5.082,2.046,2.7,8.575a6.318,6.318,0,0,0,1.091-5.062A4.936,4.936,0,0,0,1531.969,776.993Z" transform="translate(-1515.462 -757.784)" fill="#c7deeb"/>
        </g>
        <g id="Grupo_17400" data-name="Grupo 17400" transform="translate(0 101.308)">
          <rect id="Rectángulo_2908" data-name="Rectángulo 2908" width="111.804" height="2.2" transform="translate(9.653 7.916) rotate(-3.772)" fill="url(#linear-gradient-3)"/>
          <rect id="Rectángulo_2909" data-name="Rectángulo 2909" width="14.825" height="3.122" transform="matrix(0.998, -0.066, 0.066, 0.998, 0, 8.04)" fill="url(#linear-gradient-4)"/>
          <rect id="Rectángulo_2910" data-name="Rectángulo 2910" width="14.825" height="3.122" transform="translate(107.149 0.975) rotate(-3.771)" fill="url(#linear-gradient-5)"/>
        </g>
        <g id="Grupo_17401" data-name="Grupo 17401" transform="translate(50.126 92.509)">
          <path id="Trazado_32406" data-name="Trazado 32406" d="M1279.77,1165.411a48.794,48.794,0,0,1-2.577,4.888c-.256.04-4.772,1.074-5.657,2.431s-1.9,3-1.736,4.675.646,3.395,1.562,3.387,1.347-.9,1.474-1.8.281-2.75.281-2.75l.923-1.254s3.08.3,4.161-.632a10.669,10.669,0,0,0,2.011-2.86l4.259,2.454,3.927-5.334a13.575,13.575,0,0,0-3.839-3.281A5.8,5.8,0,0,0,1279.77,1165.411Z" transform="translate(-1269.782 -1164.828)" fill="#5da5fd"/>
          <path id="Trazado_32407" data-name="Trazado 32407" d="M1277.4,1221.674c.126-.893.281-2.75.281-2.75l.923-1.254a13.03,13.03,0,0,0,2.155,0l-2.117-.215a2.924,2.924,0,0,0-2.3,1.777,17.289,17.289,0,0,0-.934,4.032.774.774,0,0,0,.517.208C1276.842,1223.462,1277.273,1222.567,1277.4,1221.674Z" transform="translate(-1274.346 -1207.507)" fill="#367ed6"/>
          <path id="Trazado_32408" data-name="Trazado 32408" d="M1279.533,1225.977s-.3,2.054.4,2.646a18.74,18.74,0,0,0,4,1.882,7.639,7.639,0,0,0,3.249.119c.9-.136,1.57-.325,1.369-.775s-1.031-2.18-1.031-2.18a7.539,7.539,0,0,0-.085-3.152,5.256,5.256,0,0,0-1.431-1.661s-.261-.571-.639-.47a7.043,7.043,0,0,1-1.952-.49s-1.654.033-2,.042S1280.043,1222.143,1279.533,1225.977Z" transform="translate(-1277.638 -1211.109)" fill="#5da5fd"/>
          <path id="Trazado_32409" data-name="Trazado 32409" d="M1287.181,1246.03c.9-.136,1.57-.325,1.369-.775s-1.031-2.18-1.031-2.18l.005-.034a2.7,2.7,0,0,1-1.03.189,15.744,15.744,0,0,1-4.534-.818,7.017,7.017,0,0,1-1.684-1.316c-.08-.032-.344-.113-.671-.2-.025.157-.049.32-.072.491,0,0-.3,2.054.4,2.646a18.734,18.734,0,0,0,4,1.882A7.631,7.631,0,0,0,1287.181,1246.03Z" transform="translate(-1277.638 -1226.517)" fill="#367ed6"/>
        </g>
        <g id="Grupo_17402" data-name="Grupo 17402" transform="translate(120.848 20.461)">
          <path id="Trazado_32410" data-name="Trazado 32410" d="M1660.825,908.464c-6.422,0-7.56-17.035-8.122-33-.09-2.553-.161-4.569-.276-5.584a3.266,3.266,0,0,0-1.146-2.361c-1.414-1.094-3.987-.726-5.69-.483a12.65,12.65,0,0,1-1.613.171h0v-1.392h0a12.15,12.15,0,0,0,1.416-.156c1.934-.277,4.858-.694,6.738.758a4.636,4.636,0,0,1,1.677,3.307c.121,1.069.193,3.109.284,5.692.334,9.474,1.115,31.66,6.731,31.66a2.669,2.669,0,0,0,1.964-.874c3.939-3.984,3.756-19.8,3.595-33.755-.033-2.827-.063-5.5-.063-8.085V809.121c0-1.095.042-2.276.087-3.527.311-8.629.7-19.369-11.54-20.594l.139-1.385c13.534,1.356,13.1,13.3,12.792,22.029-.045,1.238-.086,2.407-.086,3.477v55.237c0,2.58.03,5.246.063,8.069.172,14.922.351,30.352-4,34.75A4.048,4.048,0,0,1,1660.825,908.464Z" transform="translate(-1643.976 -783.615)"/>
        </g>
        <g id="Grupo_17403" data-name="Grupo 17403" transform="translate(100.38 39.242)">
          <path id="Trazado_32411" data-name="Trazado 32411" d="M1615.543,882.988s9.148,4.9,11.315,10.685,4.078,10.149,5.44,14.308,3.618,10.432,4.216,12.616,2.011,8.335-1.477,10.572-9.886,6.515-12.092,7.346-11.7,3.537-13.939,3.491-4.42-2.52-4.42-2.52l-.985-3.69a6.466,6.466,0,0,1,3.65-3.547c2.551-.766,14.118-8.184,14.118-8.184s-6.888-16.667-9.288-20.33-3.874-6.164-3.506-9.814S1615.543,882.988,1615.543,882.988Z" transform="translate(-1590.763 -882.988)" fill="#e6f6ff"/>
          <path id="Trazado_32412" data-name="Trazado 32412" d="M1638.973,1011.622c3.488-2.237,2.075-8.388,1.477-10.572s-2.853-8.458-4.215-12.616c-.651-1.989-1.429-4.027-2.3-6.243a37.146,37.146,0,0,1-1.376,7.541c-1.418,3.8-1.88,6.713-.335,6.171s4.821-2.41,4.588-.054-6.68,4.881-4.374,5.82,5.947,1.466,4.349,2.8-8-3.607-6.222-.287,5.821,3.906,3.02,5.855-9.164-.242-10.608,3.261-.948,5.291-5.677,4.678-7.724-.891-8.032.164a9.4,9.4,0,0,1-.813,1.543l.067.252s2.186,2.474,4.419,2.52,11.734-2.661,13.939-3.491S1635.484,1013.86,1638.973,1011.622Z" transform="translate(-1594.7 -963.442)" fill="#c7deeb"/>
          <path id="Trazado_32413" data-name="Trazado 32413" d="M1548.514,1162.346s-2.4,1.878-4.951,3.464-7.529,4.623-7.842,5.858,1.131,5.692,1.756,7.081,1.157,1.667,3.337,1.865a39.494,39.494,0,0,0,5.345.217,2.636,2.636,0,0,0,2.037-2.081,19.194,19.194,0,0,0-.222-2.425,24.364,24.364,0,0,0,2.093-3.861c.289-1.071.663-2.273.663-2.273l3.189-1.636s-.511-1.355-1.672-3.933A3.754,3.754,0,0,0,1548.514,1162.346Z" transform="translate(-1535.677 -1109.539)" fill="#5da5fd"/>
          <path id="Trazado_32414" data-name="Trazado 32414" d="M1547.912,1193.553c-.328,1.452-1.5,3.271-2.313,2.935a9.249,9.249,0,0,0-3.549-.514c-1.026.1-.95-.66-1.138-1.109s-1.2-.106-2.523-.028a2.91,2.91,0,0,1-1.736-1.085,30.631,30.631,0,0,0,1.615,5.179c.625,1.388,1.157,1.667,3.337,1.865a39.515,39.515,0,0,0,5.345.217,2.636,2.636,0,0,0,2.037-2.081,19.192,19.192,0,0,0-.222-2.425,24.363,24.363,0,0,0,2.093-3.86c.289-1.071.663-2.273.663-2.273l3.189-1.636s-.195-.517-.616-1.517c-1.285.677-2.625,1.4-3.2,1.774A9.051,9.051,0,0,0,1547.912,1193.553Z" transform="translate(-1536.468 -1129.722)" fill="#367ed6"/>
        </g>
      </g>
      <path id="Trazado_32415" data-name="Trazado 32415" d="M597.313,1167.464a7.465,7.465,0,0,0-6.314-7.375,12.37,12.37,0,0,0-20.966-10.557,12.366,12.366,0,0,0-9.79,1.785,16.291,16.291,0,0,0-28.258,4.009,12.379,12.379,0,0,0-14.618,14.02,16.29,16.29,0,1,0,1.482,30.208,12.369,12.369,0,0,0,14.44,4.131,16.289,16.289,0,0,0,30.179-7.356,16.3,16.3,0,0,0,14.244-10.505c.219.011.439.018.661.018a12.371,12.371,0,0,0,12.288-10.96A7.464,7.464,0,0,0,597.313,1167.464Z" transform="translate(-495.769 -1056.084)" fill="#1bc445" opacity="0.5"/>
      <g id="Grupo_17405" data-name="Grupo 17405" transform="translate(6.2 92.162)" opacity="0.5">
        <path id="Trazado_32416" data-name="Trazado 32416" d="M700.075,1222.271c-.1,0-.192.009-.288.015a6.553,6.553,0,0,0-8.543-.719,9.457,9.457,0,0,0-16.726,2.1,9.447,9.447,0,0,0-10.68,7.995,11,11,0,0,0-9.242-.466A9.455,9.455,0,1,0,648.723,1246a11,11,0,0,0,16.442,4.306,29.294,29.294,0,0,0,16.927-14.075,9.279,9.279,0,0,0,2.494.019,6.559,6.559,0,0,0,12.506-2.764c0-.122,0-.244-.011-.364a6.565,6.565,0,0,0,2.766-1.732c.076,0,.15.011.226.011a4.566,4.566,0,1,0,0-9.132Z" transform="translate(-616.887 -1207.129)" fill="#1bc445"/>
        <path id="Trazado_32417" data-name="Trazado 32417" d="M730.754,1177.628a7.319,7.319,0,1,0-7.319-7.319A7.319,7.319,0,0,0,730.754,1177.628Z" transform="translate(-686.607 -1162.989)" fill="#1bc445"/>
        <path id="Trazado_32418" data-name="Trazado 32418" d="M578.713,1335.242a7.319,7.319,0,1,0,7.319,7.319A7.319,7.319,0,0,0,578.713,1335.242Z" transform="translate(-563.301 -1302.686)" fill="#1bc445"/>
        <path id="Trazado_32419" data-name="Trazado 32419" d="M533.292,1296.355a4.716,4.716,0,1,0,4.716,4.716A4.716,4.716,0,0,0,533.292,1296.355Z" transform="translate(-528.576 -1271.149)" fill="#1bc445"/>
        <path id="Trazado_32420" data-name="Trazado 32420" d="M724.167,1422.679a4.716,4.716,0,1,0,4.716,4.715A4.716,4.716,0,0,0,724.167,1422.679Z" transform="translate(-683.376 -1373.598)" fill="#1bc445"/>
      </g>
    </g>
  </g>
</svg>
