<svg xmlns="http://www.w3.org/2000/svg" xmlns:xlink="http://www.w3.org/1999/xlink" width="702" height="252" viewBox="0 0 702 252">
  <defs>
    <clipPath id="clip-path">
      <rect id="Rectángulo_2404" data-name="Rectángulo 2404" width="702" height="252" transform="translate(608 5906)" fill="#fff" stroke="#707070" stroke-width="1"/>
    </clipPath>
  </defs>
  <g id="Grupo_11969" data-name="Grupo 11969" transform="translate(-608 -5938)">
    <g id="Enmascarar_grupo_13" data-name="Enmascarar grupo 13" transform="translate(0 32)" clip-path="url(#clip-path)">
      <g id="Grupo_11880" data-name="Grupo 11880" transform="translate(180 -964)">
        <path id="Trazado_23546" data-name="Trazado 23546" d="M38.785,403.8h15.6v11.666h-9.66v99.613H38.785V415.462h-60.1v99.613h-5.937V415.462h-9.013V403.8H-24.28V306.951H38.785V403.8Z" transform="translate(574.794 6655.795)" fill="#894500" fill-rule="evenodd"/>
        <path id="Trazado_23548" data-name="Trazado 23548" d="M60.609,458.326H-71.79v11.959h132.4V458.326Z" transform="translate(587.278 6602.604)" fill="#e3a66a" fill-rule="evenodd"/>
        <path id="Intersección_2" data-name="Intersección 2" d="M0,108.492V96.845H11.982V0H75.046V96.845h15.6v11.646Z" transform="translate(538.533 6962.747)" fill="none"/>
        <path id="Trazado_23551" data-name="Trazado 23551" d="M27.1,249.3l-6.5,18.3,11.448,16.25,12.016-8.639L40.46,264.756l-4.655-15.365L27.1,249.3Z" transform="translate(554.813 6676.054)" fill="#ffc197" fill-rule="evenodd"/>
        <path id="Trazado_23553" data-name="Trazado 23553" d="M26.012,251.584s.49,11.338,6.868,11.36S42.9,253.826,42.9,253.826l-1.131-4.53-15.761,2.288Z" transform="translate(552.912 6676.055)" fill="#f3a46f" fill-rule="evenodd"/>
        <path id="Trazado_23554" data-name="Trazado 23554" d="M27.1,249.3l-6.5,18.3,11.448,16.25,12.016-8.639L40.46,264.756l-4.655-15.365L27.1,249.3Z" transform="translate(554.813 6676.054)" fill="none" fill-rule="evenodd"/>
        <path id="Trazado_23555" data-name="Trazado 23555" d="M12.367,214.953s-2.97-11.607,3.1-19.834c3.1-4.208,5.406-8.313,17.609-8.519,7.183-.121,14.692,10.506,14.271,22.314s-6.431,11.755-6.431,11.755l-28.55-5.717Z" transform="translate(557.962 6698.085)" fill="#7d3200" fill-rule="evenodd"/>
        <path id="Trazado_23556" data-name="Trazado 23556" d="M14.262,225.749s1.279-3.748,1.9-5.3c0,0,11.255,3.868,15.541,3.754s14.449-1.948,14.476-1.909.885-1.875,1.771-.846.133,6.149-3.467,10.055c0,0-4.907,14.24-15.037,14.483s-12.987-12.894-13.255-13.419c0,0-5.55-1.252-4.607-5.492s2.644-1.305,2.681-1.322Z" transform="translate(558.021 6686.192)" fill="#ffc197" fill-rule="evenodd"/>
        <path id="Trazado_23558" data-name="Trazado 23558" d="M17.025,217.011s6.89,7.194,15.531,7.072,16.682-4.371,18.742-6.164-8.489-3.86-8.489-3.86l-19.091-.8-6.692,3.752Z" transform="translate(556.07 6688.717)" fill="#f3a46f" fill-rule="evenodd"/>
        <path id="Trazado_23559" data-name="Trazado 23559" d="M34.531,249.283a30.965,30.965,0,0,0,6.918,0s-.736,4.852-3.469,5.134-3.512-5.57-3.449-5.134Z" transform="translate(549.92 6676.067)" fill="#ff606c" fill-rule="evenodd"/>
        <path id="Trazado_23560" data-name="Trazado 23560" d="M14.262,225.749s1.279-3.748,1.9-5.3c0,0,11.255,3.868,15.541,3.754s14.449-1.948,14.476-1.909.885-1.875,1.771-.846.133,6.149-3.467,10.055c0,0-4.907,14.24-15.037,14.483s-12.987-12.894-13.255-13.419c0,0-5.55-1.252-4.607-5.492s2.644-1.305,2.681-1.322Z" transform="translate(558.021 6686.192)" fill="none" fill-rule="evenodd"/>
        <path id="Trazado_23561" data-name="Trazado 23561" d="M-10.914,420.664s-27.378.7-25.943,15.841,20.342,95.708,21.047,111.827c0,0,7.269,4.252,14.685-.212,0,0-3.378-93.415-5.784-98.793,0,0,12.584-1.373,14.38-3.136,0,0,16.046,4.691,20.612,3.019,0,0-13.389,88.7-9.21,98.823,0,0,10.463,2.842,12.069.922,0,0,2.85-40.386,8.1-54.518s19.881-55.222,14.913-63.378-17.947-8.073-24.986-6.022l-1.784-6.1-32-5.547-6.094,7.279Z" transform="translate(575.023 6618.396)" fill="#ffc003" fill-rule="evenodd"/>
        <path id="Trazado_23563" data-name="Trazado 23563" d="M25.99,450.076s-9.49,7.539-13.275,6.724,1.575,12.589,1.575,12.589l14.321-4.706,14.957-.379v-7.5s-16.2-2.4-17.579-6.724Z" transform="translate(558.06 6605.503)" fill="#c90" fill-rule="evenodd"/>
        <path id="Trazado_23564" data-name="Trazado 23564" d="M63,450.076s-2.109,7.763-3.423,15.84-5.247-.464-5.247-.464,6.514-13.267,8.67-15.376Z" transform="translate(542.961 6605.503)" fill="#ac8306" fill-rule="evenodd"/>
        <path id="Trazado_23565" data-name="Trazado 23565" d="M3.921,450.076S7.54,461.7,7.54,462s2.291,1.092,3.912,1.76S5.38,450.591,3.921,450.076Z" transform="translate(560.675 6605.503)" fill="#ac8306" fill-rule="evenodd"/>
        <path id="Intersección_7" data-name="Intersección 7" d="M64.457,39.457c.34-2.322.538-3.633.538-3.633-4.566,1.672-20.612-3.019-20.612-3.019C42.587,34.568,30,35.942,30,35.942a16.739,16.739,0,0,1,.677,3.515H2.812C1.368,32.023.347,26.209.054,23.12-1.38,7.978,26,7.279,26,7.279L32.091,0l32,5.547,1.785,6.1C72.917,9.6,85.9,9.516,90.864,17.673c1.988,3.265.836,11.808-1.6,21.784Z" transform="translate(538.111 7031.781)" fill="none"/>
        <path id="Trazado_23568" data-name="Trazado 23568" d="M-8.339,274.394s-13.4-3.875-18.242.062-28.285,49.033-28.574,49.882,26.9-2.886,26.9-2.886,4.843,45.24,10,50.214,38.833,4.954,42.147.754,6.848-46.111,7.7-48.569c0,0,21.444-.789,21.332-.667s-10.646-45.9-15.238-49.24-23.3-.293-23.3-.293l-4.446,8.6-4,4.958-8.446-5.23-5.829-7.582Z" transform="translate(581.434 6667.943)" fill="#cc0b19" fill-rule="evenodd"/>
        <path id="Trazado_23570" data-name="Trazado 23570" d="M49.527,295.362s-2.643,7.148-.068,12.267,5.961,7.6,8.032,12.213,5.987,15.5,5.987,15.5l4.3,9.362,5.02.608L76,335.23l-4.547-9.606L56.514,300.077l-6.988-4.715Z" transform="translate(545.07 6659.868)" fill="#a90b16" fill-rule="evenodd"/>
        <path id="Trazado_23571" data-name="Trazado 23571" d="M-8.339,274.394s-13.4-3.875-18.242.062-28.285,49.033-28.574,49.882,26.9-2.886,26.9-2.886,4.843,45.24,10,50.214,38.833,4.954,42.147.754,6.848-46.111,7.7-48.569c0,0,21.444-.789,21.332-.667s-10.646-45.9-15.238-49.24-23.3-.293-23.3-.293l-4.446,8.6-4,4.958-8.446-5.23-5.829-7.582Z" transform="translate(581.434 6667.943)" fill="none" fill-rule="evenodd"/>
        <path id="Trazado_23572" data-name="Trazado 23572" d="M18.775,269.991s10.857,15.08,11.88,15.017c0,0,7.84-13.47,8.213-14.693s3.243-1.661,3.639,1-2.568,18.04-2.568,18.04l-9.19-3.2-12.935,2.87s-2.6-13.963-2.624-16.176,3.585-2.864,3.585-2.864Z" transform="translate(556.715 6669.007)" fill="#ff848d" fill-rule="evenodd"/>
        <path id="Trazado_23573" data-name="Trazado 23573" d="M-52.679,344.864s-8.158,2.764-6.94,8.436,8.038,5.352,9.027,5,18.731-10.172,18.724-10.6-.328-5.609-.328-5.609L-35.847,340l-16.832,4.864Z" transform="translate(583.045 6644.183)" fill="#ffc197" fill-rule="evenodd"/>
        <path id="Trazado_23574" data-name="Trazado 23574" d="M-4.568,325.976s19.533-15.089,21.252-16.541c0,0,2.267,4.566.174,7.909s-5.907,2.919-8.389,2.465l-11.55,8.862-1.487-2.7Z" transform="translate(563.658 6654.922)" fill="#d29f03" fill-rule="evenodd"/>
        <path id="Trazado_23575" data-name="Trazado 23575" d="M-23.816,341.427c-1.271-3.024.926-6.833,4.445-8.326s8.407-2.943,9.864.335-1.361,8.534-5.112,10.124-8.075.538-9.2-2.132Z" transform="translate(570.549 6647.185)" fill="#fdd3b7" fill-rule="evenodd"/>
        <path id="Trazado_23576" data-name="Trazado 23576" d="M64.945,304.134l20.114,25.571s5.445-.416,8.376,2.363-.566,12.006-3.558,14.637-8.036,2.225-13.959-9.56-15.11-30.009-15.11-30.009l-.669-4.883,3.061-2.058,1.747,3.94Z" transform="translate(540.921 6658.17)" fill="#ffc197" fill-rule="evenodd"/>
        <path id="Trazado_23578" data-name="Trazado 23578" d="M101.861,349.71s-6.591-8.507-6.711-8.349,3.8-.887,6.711,8.349Z" transform="translate(528.619 6643.705)" fill="#e59661" fill-rule="evenodd"/>
        <path id="Trazado_23579" data-name="Trazado 23579" d="M64.945,304.134l20.114,25.571s5.445-.416,8.376,2.363-.566,12.006-3.558,14.637-8.036,2.225-13.959-9.56-15.11-30.009-15.11-30.009l-.669-4.883,3.061-2.058,1.747,3.94Z" transform="translate(540.921 6658.17)" fill="none" fill-rule="evenodd"/>
        <path id="Trazado_23580" data-name="Trazado 23580" d="M36.173,260.895c.335-1.986.832-1.409,2.908-2.5s2.022.444,3.1-2.378,1.192-2.354,2.356-.4,1.046,3.309,0,4.5-3.037,1.347-3.861,3.266-4.941-1.529-4.508-1.461" transform="translate(549.353 6674.392)" fill="#ff0012" fill-rule="evenodd"/>
        <path id="Trazado_23581" data-name="Trazado 23581" d="M49.868,280.019s-3.646-9.642-3.888-10.4c0,0-3.036.88-4.315-3.052l.056-1.07,1.993.864.093-2.025,1.828,1.354.458-2.279s1.059.387,1.926,5.446l3.281,9.9-1.432,1.251Z" transform="translate(547.412 6671.093)" fill="#d19d00" fill-rule="evenodd"/>
        <path id="Trazado_23582" data-name="Trazado 23582" d="M52.642,284.589c-2.415,2.059-4.224,6.2-2.186,10,3.139,5.856,5.772,7.953,8.114,6.284s3.491-5.369,2.059-8.982c-1.6-4.029-6-9-7.986-7.3Z" transform="translate(544.633 6663.773)" fill="#fdd3b7" fill-rule="evenodd"/>
        <path id="Trazado_23583" data-name="Trazado 23583" d="M3.061,358.153a35.115,35.115,0,0,1,16.014-4.434c9.52-.355,15.905,2.478,18.5,4.432s-1.184,4.532-1.184,4.532l-24.179-.261-9.15-4.269Z" transform="translate(560.977 6639.372)" fill="#ffe79d" fill-rule="evenodd"/>
        <path id="Trazado_23584" data-name="Trazado 23584" d="M46.771,360.572H-10.657L-2.9,374.753l41.766-.362,7.908-13.819Z" transform="translate(565.797 6636.954)" fill="#ffa040" fill-rule="evenodd"/>
        <path id="Trazado_23586" data-name="Trazado 23586" d="M-4.68,371.5s17.308,4.173,24.837,3.41S45.3,371.5,45.3,371.5l-3.032,8.456-6.174,3.33L2.3,386.963-4.68,371.5Z" transform="translate(563.697 6633.113)" fill="#f81" fill-rule="evenodd"/>
        <path id="Trazado_23587" data-name="Trazado 23587" d="M46.771,360.572H-10.657L-2.9,374.753l41.766-.362,7.908-13.819Z" transform="translate(565.797 6636.954)" fill="none" fill-rule="evenodd"/>
        <path id="Trazado_23588" data-name="Trazado 23588" d="M-71.026,329.137l15.863.588L-58.4,363.619l-8.956.084-3.669-34.567Z" transform="translate(587.01 6648)" fill="#ffa040" fill-rule="evenodd"/>
        <path id="Trazado_23590" data-name="Trazado 23590" d="M-69.624,371.722S-64.2,377.009-55.9,372l-1.116,9.487-14.864-.525,2.255-9.239Z" transform="translate(587.31 6633.036)" fill="#f81" fill-rule="evenodd"/>
        <path id="Trazado_23591" data-name="Trazado 23591" d="M-71.026,329.137l15.863.588L-58.4,363.619l-8.956.084-3.669-34.567Z" transform="translate(587.01 6648)" fill="none" fill-rule="evenodd"/>
        <path id="Trazado_23592" data-name="Trazado 23592" d="M130.762,359.879H109.945l2.805,14.583,13.688-.059,4.324-14.525Z" transform="translate(523.419 6637.197)" fill="#ffa040" fill-rule="evenodd"/>
        <path id="Trazado_23594" data-name="Trazado 23594" d="M108.538,365.482s1.66,6.239,9.346,5.821,9.559-.445,12.206-4.306l.121,4.694-1.324,6.457-7.784,1.216L109.44,378.5l-.9-13.02Z" transform="translate(523.914 6635.229)" fill="#f81" fill-rule="evenodd"/>
        <path id="Trazado_23595" data-name="Trazado 23595" d="M130.762,359.879H109.945l2.805,14.583,13.688-.059,4.324-14.525Z" transform="translate(523.419 6637.197)" fill="none" fill-rule="evenodd"/>
        <path id="Trazado_23596" data-name="Trazado 23596" d="M650.925,407.628h15.6v11.666h-9.66v99.613h-5.937V419.294h-60.1v99.613h-5.937V419.294h-9.013V407.628H587.86V310.783h63.065v96.845Z" transform="translate(359.697 6654.449)" fill="#894500" fill-rule="evenodd"/>
        <path id="Trazado_23598" data-name="Trazado 23598" d="M678.129,460.482H545.73V472.44h132.4V460.482Z" transform="translate(370.291 6601.847)" fill="#e3a66a" fill-rule="evenodd"/>
        <path id="Intersección_15" data-name="Intersección 15" d="M0,106.007V96.845H11.981V0H75.045V96.845h15.6v9.161Z" transform="translate(935.576 6965.231)" fill="none"/>
        <path id="Trazado_23601" data-name="Trazado 23601" d="M341.654,409.527h15.6v11.868h-9.66V522.729h-5.936V421.394h-60.1V522.729h-5.936V421.394h-9.013V409.527h11.981V311.009h63.065v98.518Z" transform="translate(468.37 6654.37)" fill="#894500" fill-rule="evenodd"/>
        <path id="Trazado_23603" data-name="Trazado 23603" d="M359.383,463.294h-132.4v12.165h132.4V463.294Z" transform="translate(482.293 6600.859)" fill="#e3a66a" fill-rule="evenodd"/>
        <path id="Intersección_18" data-name="Intersección 18" d="M0,105.86V98.518H11.982V0H75.046V98.518h15.6v7.342Z" transform="translate(734.978 6965.378)" fill="none"/>
        <path id="Trazado_23606" data-name="Trazado 23606" d="M639.8,187.484c8.005,3.008,11.815,8.1,12.972,12.09,2.386,8.226,2.612,9.961.849,21.132s-2.527,10.89,0,20.358.881,9.28-1.351,14.36-48.151,5.655-45.311,0,2.808-3.453,2.6-9.084,3.6-8.891,4.294-15.751-.911-10.378-.68-17.478.447-18.991,6.125-22.829,15.974-4.5,20.5-2.8Z" transform="translate(348.82 6698.085)" fill="#8a0b14" fill-rule="evenodd"/>
        <path id="Trazado_23607" data-name="Trazado 23607" d="M647.345,254.421l5.512,17.311c-7.08,9.288-15.2,7.971-20.843-1.286l7.778-13.588,7.553-2.436Z" transform="translate(339.972 6674.254)" fill="#ffd0a2" fill-rule="evenodd"/>
        <path id="Trazado_23609" data-name="Trazado 23609" d="M652.061,252.538s-.219,8.74-5.723,8.4-7.333-7.778-7.286-7.676,4.731-5.869,5.051-6.126,7.958,5.4,7.958,5.4Z" transform="translate(337.499 6676.817)" fill="#f2b376" fill-rule="evenodd"/>
        <path id="Trazado_23610" data-name="Trazado 23610" d="M647.345,254.421l5.512,17.311c-7.08,9.288-15.2,7.971-20.843-1.286l7.778-13.588,7.553-2.436Z" transform="translate(339.972 6674.254)" fill="none" fill-rule="evenodd"/>
        <path id="Trazado_23611" data-name="Trazado 23611" d="M629.588,214.782s2.855,3,5.381,3.478,18.2,1.506,19.617.961c.963,4.269-1.217,9.869-2.068,13.858-.023.106-4.839,12.3-11.387,12.249s-12.359-13.961-12.988-15.29c0,0-4.915-1.311-4.475-6.194s4.253-1.027,4.126-1.075,1.794-7.986,1.794-7.986Z" transform="translate(342.914 6688.182)" fill="#ffd0a2" fill-rule="evenodd"/>
        <path id="Trazado_23613" data-name="Trazado 23613" d="M632.014,213.75s1.374,6.209,5.158,6.851A173.09,173.09,0,0,0,655,221.792a5.9,5.9,0,0,0,4-2.444c.538-.963-.627-4.363-.627-4.363l-11.209-2.272-10.7-.87-4.455,1.906Z" transform="translate(339.972 6689.215)" fill="#f2b376" fill-rule="evenodd"/>
        <path id="Trazado_23614" data-name="Trazado 23614" d="M629.588,214.782s2.855,3,5.381,3.478,18.2,1.506,19.617.961c.963,4.269-1.217,9.869-2.068,13.858-.023.106-4.839,12.3-11.387,12.249s-12.359-13.961-12.988-15.29c0,0-4.915-1.311-4.475-6.194s4.253-1.027,4.126-1.075,1.794-7.986,1.794-7.986Z" transform="translate(342.914 6688.182)" fill="none" fill-rule="evenodd"/>
        <path id="Trazado_23615" data-name="Trazado 23615" d="M629.777,273.557s-7.859,14.273-17.675,0c0,0-14.153-.569-18.007,4.864s-23.827,47.122-23.51,53.774,8.814,14.353,17.226,10.935,9.625-15.063,10.616-16.583c0,0,6.7,26.1,8.473,37.421s-3.691,26.849-3.691,26.849l46.616-13.065s-6.692-9.936-5.871-15.284,4.7-34.962,4.7-34.962S668.912,339.387,672,338.931s10.022-7.907,6.3-16.236-23.777-42.07-30.073-45.8-18.454-3.333-18.454-3.333Z" transform="translate(361.558 6667.536)" fill="#ff8b94" fill-rule="evenodd"/>
        <path id="Trazado_23617" data-name="Trazado 23617" d="M689.883,335.485l21.956,5.454c-6.129-4-15.294-6.792-21.956-5.454" transform="translate(319.637 6645.888)" fill="#de4b56" fill-rule="evenodd"/>
        <path id="Trazado_23618" data-name="Trazado 23618" d="M688.527,355.64l-4.46-2.97s1.634,10.712,4.543,12.276-.082-9.306-.082-9.306Z" transform="translate(321.681 6639.73)" fill="#f16a74" fill-rule="evenodd"/>
        <path id="Trazado_23619" data-name="Trazado 23619" d="M600,313.308s-19.05,24.887-19.021,25.394S592.131,315.55,600,313.308Z" transform="translate(357.906 6653.562)" fill="#de4b56" fill-rule="evenodd"/>
        <path id="Trazado_23620" data-name="Trazado 23620" d="M646.516,300.67s2.228,7.84-4.138,10.834c-6.986,3.285-11.223-.3-13.348-1.629-.784-.492-5.139,2.468-5.922,6.874-1.005,5.661-1.572,18.52-1.842,26.672-.141,4.253-1.646,24.7-1.646,24.7l-5.651-25.378-2.238-3.569,7.889-23.006,1.561-7.349,4.695-2.736h3.154l3.883-1.562,10.6-2.087,3-1.768Z" transform="translate(347.099 6658.002)" fill="#f16a74" fill-rule="evenodd"/>
        <path id="Trazado_23621" data-name="Trazado 23621" d="M629.777,273.557s-7.859,14.273-17.675,0c0,0-14.153-.569-18.007,4.864s-23.827,47.122-23.51,53.774,8.814,14.353,17.226,10.935,9.625-15.063,10.616-16.583c0,0,6.7,26.1,8.473,37.421s-3.691,26.849-3.691,26.849l46.616-13.065s-6.692-9.936-5.871-15.284,4.7-34.962,4.7-34.962S668.912,339.387,672,338.931s10.022-7.907,6.3-16.236-23.777-42.07-30.073-45.8-18.454-3.333-18.454-3.333Z" transform="translate(361.558 6667.536)" fill="none" fill-rule="evenodd"/>
        <path id="Trazado_23622" data-name="Trazado 23622" d="M683.525,445.813s-8.115-2.216-12.8-6.606c-5.389-5.053-10.242-19.982-16.314-20.778-14.92-1.957-21.017.01-31.086,2.941-4.588,1.336-5.54,14.076-8.877,18.661-3.987,5.476-7.739,3.134-11.875,5.651,0,0,76.105-.736,80.948.132Z" transform="translate(350.315 6616.899)" fill="#f36973" fill-rule="evenodd"/>
        <path id="Trazado_23623" data-name="Trazado 23623" d="M640.931,546.876s1.436-14.526,3.525-26.23,3.13-39.949,3.755-46.637,2.938-28.773-2.146-32.61-10.46-2.9-13.537,4.726-3.795,39.27-2.867,49.553.742,34.035.837,42.172-6.954,21.247-8.952,30.389c-1.245,5.7-1.223,9.677,4.472,12.924,1.322.754,3.239-.01,6.227-3.811,8.994-11.442,8.222-27.608,8.686-30.476Z" transform="translate(343.882 6609.326)" fill="#ffd0a2" fill-rule="evenodd"/>
        <path id="Trazado_23625" data-name="Trazado 23625" d="M654.26,442.591s-3.156,10.362-5.134,20.08a193.689,193.689,0,0,0-3.267,30.43c-.058,3.321,2.3,24.179,1.945,42.253-.462,23.29-3.655,44.715-3.6,47,.1,4.06,8.445-44.742,8.445-44.742l4.823-16.9,1.476-34.727,2.1-32.833-6.786-10.561Z" transform="translate(335.688 6608.133)" fill="#ffc388" fill-rule="evenodd"/>
        <path id="Intersección_24" data-name="Intersección 24" d="M0,22.715c.529-7,1.339-13,2.464-15.788C5.54-.7,10.917-1.637,16,2.2c3.2,2.413,3.468,12.037,3.074,20.514Z" transform="translate(973.947 7048.523)" fill="none"/>
        <path id="Trazado_23628" data-name="Trazado 23628" d="M653.216,249.647s-.884.2-1.938.361c-.309.048-.622.085-.933.122a6.286,6.286,0,0,1-.823.057c-.141.008-.277.008-.41,0a6.29,6.29,0,0,1-.681-.057c-.9-.138-1.6-.385-1.945-.42.195.086.408.314.787.569a4.069,4.069,0,0,0,.674.353,4.188,4.188,0,0,0,.9.253,4.805,4.805,0,0,0,.711.055,5.15,5.15,0,0,0,.606-.047,6.941,6.941,0,0,0,1.175-.284,9.184,9.184,0,0,0,1.038-.427,9.5,9.5,0,0,0,.9-.489c.026-.01.031-.03.012-.043a.094.094,0,0,0-.081-.007Z" transform="translate(334.886 6742.975)" fill="#ff616c" fill-rule="evenodd"/>
        <path id="Trazado_23629" data-name="Trazado 23629" d="M667.287,487.9s1.266-13.835,4.49-20.7,10.367-19.481,10.418-24.464-.6-10.866-9.815-11.86-13.979,6.939-14.454,15.068.016,30.5.331,34.569.478,6.809.448,7.093-2.955,13.111-.5,17.143a11.055,11.055,0,0,0,11.835,5.432c5.344-.859,6.118-4.585,4.592-7.164s-7.567-10.354-7.348-15.112Z" transform="translate(331.113 6625.247)" fill="#ffd0a2" fill-rule="evenodd"/>
        <path id="Trazado_23630" data-name="Trazado 23630" d="M655.115,279.22s-4.384,6.692-15.07-.829a8.568,8.568,0,0,1-5.472,3.461c-3.737.683-5.091.037-7.582-1.584s2.465-5.911,4.693-6.7c0,0,3.486,3.786,8.362,3.481s7.372-2.884,8.861-3.481c0,0,6.991,1.056,6.208,5.654Z" transform="translate(341.977 6727.425)" fill="#bc0816" fill-rule="evenodd"/>
        <path id="Trazado_23631" data-name="Trazado 23631" d="M636.6,291.058s-3.375-.768-3.325,1.022-.039,3.183.674,3.974,3.994.549,4.448-.013-.418-.673-.418-.673-2.4,1.024-2.97.175a7.018,7.018,0,0,1-.533-3.418c.058-.568,1.575-.2,2.125-.254a3.194,3.194,0,0,0,.905-.222l-.905-.59Z" transform="translate(339.529 6716.164)" fill="#ffc002" fill-rule="evenodd"/>
        <path id="Trazado_23632" data-name="Trazado 23632" d="M657.069,277.753s-10.145-1.648-18.489.481c0,0,.083,9.307,3.564,10.71s11.005,1.052,12.927-1.576,2.256-7.673,2-9.616Z" transform="translate(337.664 6725.1)" fill="#ffc002" fill-rule="evenodd"/>
        <rect id="Rectángulo_2403" data-name="Rectángulo 2403" width="664.638" height="201.387" transform="translate(448 6869.852)" fill="none"/>
        <path id="Trazado_23633" data-name="Trazado 23633" d="M488.765-101.02H-175.863V100.367H488.765V-101.02Z" transform="translate(623.848 6970.871)" fill="none" fill-rule="evenodd"/>
        <path id="Trazado_23634" data-name="Trazado 23634" d="M657.089,277.165s-6.068,7.368-18.489.891l5.193-3.909s12.11-.109,11.413-.189,1.882,3.206,1.882,3.206Z" transform="translate(337.657 6667.389)" fill="#c49405" fill-rule="evenodd"/>
        <path id="Trazado_23635" data-name="Trazado 23635" d="M656.995,297.982s-3.956,5.817-9.694,6.136-8.49-4.518-9.751-6.06l1.313,7.977,6.8,2.781,7.717-.985,3.614-9.849Z" transform="translate(338.026 6658.947)" fill="#edb409" fill-rule="evenodd"/>
        <path id="Trazado_23636" data-name="Trazado 23636" d="M657.069,278.271s-10.145-3.054-18.489.891c0,0,.083,17.243,3.564,19.843s11.005,1.949,12.927-2.919,2.256-14.216,2-17.815Z" transform="translate(337.664 6666.269)" fill="none" fill-rule="evenodd"/>
        <path id="Trazado_23637" data-name="Trazado 23637" d="M661.283,331.859s-6.945-3.471-6.9-3.61a7.808,7.808,0,0,0-7.9-5.56c-6.127.289-.751,7.64-.751,7.64a5.167,5.167,0,0,0,2.312,2.212c1.607.741,4.608.4,5.832-1.2l7.357,5.217.052-4.7Z" transform="translate(335.919 6650.269)" fill="#9a7400" fill-rule="evenodd"/>
        <path id="Trazado_23638" data-name="Trazado 23638" d="M680.762,341.434s-.5-5.149-3.866-6.784-7.055-1.361-8.106,1.029a8.3,8.3,0,0,0,2.591,9.147,6,6,0,0,0,9.38-3.392Z" transform="translate(327.215 6646.426)" fill="#ffd0a2" fill-rule="evenodd"/>
        <path id="Trazado_23639" data-name="Trazado 23639" d="M621.94,303.121s6.919,3.173,8.549-3.538-.6-9.712-2.568-11.423-7.415-.85-8.669,3.414-2.116,9.284,2.688,11.547Z" transform="translate(344.801 6662.688)" fill="#ffd0a2" fill-rule="evenodd"/>
        <path id="Trazado_23640" data-name="Trazado 23640" d="M688.5,334.137c-.009-.084-1.627-1.077-1.94-.081s-2.325,8.732-2.479,11.3,1.437,2.466,2.464,2.307,2.19-11.375,1.955-13.53Z" transform="translate(321.681 6646.426)" fill="#bc0816" fill-rule="evenodd"/>
        <path id="Trazado_23641" data-name="Trazado 23641" d="M620.684,310.552c-.2-.512-7.743-3.841-8.34-4.185s-2.059,4.023-2.042,4.185,9.057,4.824,9.057,4.824,1.52-4.313,1.324-4.824Z" transform="translate(347.601 6656.007)" fill="#bc0816" fill-rule="evenodd"/>
        <path id="Trazado_23642" data-name="Trazado 23642" d="M250.219,401.46c-24.917,0-180.87-1.488-180.87-1.488a2.872,2.872,0,0,0-2.618,3.07c-.016,20.638-.111,138.942-.126,158.989a2.909,2.909,0,0,1-2.457,3.064l-5.435.4a2.4,2.4,0,0,1-1.956-.829,3.345,3.345,0,0,1-.824-2.241c.017-21.134.11-138.125.127-158.611a2.876,2.876,0,0,0-2.607-3.076c-16.931-.092-146.693,1.154-163.682,1.062a2.436,2.436,0,0,0-1.858.894,3.362,3.362,0,0,0-.772,2.176c-.016,20.611-.11,138.163-.126,158.776a3.362,3.362,0,0,1-.773,2.177,2.433,2.433,0,0,1-1.859.893l-4.4-.025a2.877,2.877,0,0,1-2.606-3.076c.017-20.548.111-138.213.127-158.809a3.365,3.365,0,0,0-.766-2.175,2.44,2.44,0,0,0-1.852-.9h-17.686a2.869,2.869,0,0,1-2.618-3.049c-.025-3.686-.066-9.856-.091-13.564a3.366,3.366,0,0,1,.76-2.188,2.441,2.441,0,0,1,1.859-.909H51.865a2.294,2.294,0,0,1,1.079.272H281.2a2.293,2.293,0,0,1,1.077-.272H477.036a2.869,2.869,0,0,1,2.618,3.048c.025,3.687.065,9.856.09,13.564a3.366,3.366,0,0,1-.76,2.188,2.44,2.44,0,0,1-1.859.909H458.891a2.873,2.873,0,0,0-2.618,3.07c-.016,20.638-.111,138.943-.127,158.989a2.909,2.909,0,0,1-2.456,3.065l-5.435.4a2.4,2.4,0,0,1-1.956-.83,3.344,3.344,0,0,1-.824-2.241c.017-21.134.11-138.125.126-158.611a2.876,2.876,0,0,0-2.606-3.076c-16.931-.091-152.584-1.139-169.574-1.23a2.435,2.435,0,0,0-1.858.894,3.363,3.363,0,0,0-.772,2.176c-.016,20.61-.11,138.163-.126,158.775,0,.817.042,4.614-.452,5.19a2.434,2.434,0,0,1-1.859.894l-4.4-.025c-1.442-.008-2.928-4.4-2.927-6.089.017-20.547.111-138.213.127-158.808a3.365,3.365,0,0,0-.766-2.175,2.44,2.44,0,0,0-1.852-.9H251.3a2.293,2.293,0,0,1-1.077.272Z" transform="translate(613.185 6629.418)" fill="#ffc58b" fill-rule="evenodd"/>
        <path id="Trazado_23644" data-name="Trazado 23644" d="M-115.229,414.173l189.819-.031L78.3,422.02S73.278,438,60.586,424.85s-162.457-3.162-162.457-3.162-1.835,13.014-16.795,1.088,3.436-8.6,3.436-8.6Z" transform="translate(605.81 6618.269)" fill="#e3a66a" fill-rule="evenodd"/>
        <path id="Trazado_23645" data-name="Trazado 23645" d="M474.529,414.514l196.249-.221,3.711,7.878s-5.023,15.976-17.716,2.831-168.887-2.972-168.887-2.972-1.835,13.014-16.795,1.088,3.436-8.6,3.436-8.6Z" transform="translate(398.577 6618.149)" fill="#e3a66a" fill-rule="evenodd"/>
        <path id="Intersección_28" data-name="Intersección 28" d="M591.086,59.8c.013-16.913.024-30.455.029-36.256a2.876,2.876,0,0,0-2.606-3.076c-16.931-.092-152.584-1.139-169.573-1.231a2.438,2.438,0,0,0-1.859.894,3.365,3.365,0,0,0-.772,2.176c0,5.958-.016,20.017-.03,37.493h-9.64c.014-17.511.025-31.6.03-37.556a3.363,3.363,0,0,0-.766-2.174,2.44,2.44,0,0,0-1.852-.9h-7.234a2.292,2.292,0,0,1-1.077.272c-24.917,0-180.87-1.488-180.87-1.488a2.872,2.872,0,0,0-2.618,3.07c0,6.093-.016,20.7-.031,38.778H201.543c.014-17.726.026-32.01.031-38.011a2.875,2.875,0,0,0-2.606-3.075c-8.47-.046-45.171.242-81.868.531-36.664.288-73.324.577-81.815.532a2.433,2.433,0,0,0-1.858.894,3.363,3.363,0,0,0-.773,2.176c0,5.9-.015,19.73-.029,36.954H22.984c.014-17.259.025-31.119.03-37.017a3.366,3.366,0,0,0-.766-2.175,2.44,2.44,0,0,0-1.853-.9H2.709a2.869,2.869,0,0,1-2.618-3.05C.066,12.975.025,6.8,0,3.1A3.365,3.365,0,0,1,.76.909,2.44,2.44,0,0,1,2.618,0H197.38a2.3,2.3,0,0,1,1.079.272H426.713A2.288,2.288,0,0,1,427.79,0H622.551a2.869,2.869,0,0,1,2.619,3.048c.025,3.687.065,9.857.09,13.565A3.367,3.367,0,0,1,624.5,18.8a2.439,2.439,0,0,1-1.859.909H604.406a2.873,2.873,0,0,0-2.619,3.07c0,5.9-.016,19.757-.03,37.023Z" transform="translate(467.669 7011.435)" fill="none"/>
        <path id="Trazado_23648" data-name="Trazado 23648" d="M569.824,350.095l13.4-5.442s2.388.677,2.594,4.324l-15.995,1.118Z" transform="translate(361.824 6642.547)" fill="#ffba8c" fill-rule="evenodd"/>
        <path id="Trazado_23649" data-name="Trazado 23649" d="M569.824,364.146V352.369l15.995-1.244v12.6l-15.995.416Z" transform="translate(361.824 6640.273)" fill="#e65c00" fill-rule="evenodd"/>
        <path id="Trazado_23650" data-name="Trazado 23650" d="M593.216,367.144H544.284l6.607,9.646,35.588-.246,6.738-9.4Z" transform="translate(370.799 6634.645)" fill="#ffc002" fill-rule="evenodd"/>
        <path id="Trazado_23652" data-name="Trazado 23652" d="M549.377,374.58s14.747,2.838,21.163,2.319,21.422-2.319,21.422-2.319l-2.584,5.751-5.261,2.265-28.791,2.5-5.95-10.515Z" transform="translate(369.009 6632.032)" fill="#d49f00" fill-rule="evenodd"/>
        <path id="Trazado_23653" data-name="Trazado 23653" d="M593.216,367.144H544.284l6.607,9.646,35.588-.246,6.738-9.4Z" transform="translate(370.799 6634.645)" fill="none" fill-rule="evenodd"/>
        <path id="Trazado_23654" data-name="Trazado 23654" d="M705.919,373.9H671.869l4.6,5.261,24.763-.134,4.689-5.127Z" transform="translate(325.967 6632.269)" fill="#ffc002" fill-rule="evenodd"/>
        <path id="Trazado_23656" data-name="Trazado 23656" d="M675.413,377.96s10.262,1.548,14.726,1.265,14.906-1.265,14.906-1.265l-1.8,3.137-3.661,1.235L679.554,383.7l-4.141-5.735Z" transform="translate(324.722 6630.844)" fill="#d49f00" fill-rule="evenodd"/>
        <path id="Trazado_23657" data-name="Trazado 23657" d="M705.919,373.9H671.869l4.6,5.261,24.763-.134,4.689-5.127Z" transform="translate(325.967 6632.269)" fill="none" fill-rule="evenodd"/>
        <path id="Trazado_23658" data-name="Trazado 23658" d="M322.6,345.423l-11.155-7.329a2.608,2.608,0,0,1-.754-3.567,2.512,2.512,0,0,1,3.506-.768l13.077,8.592,13.077-8.592a2.512,2.512,0,0,1,3.506.768,2.608,2.608,0,0,1-.754,3.567l-11.154,7.329,11.154,7.328a2.608,2.608,0,0,1,.754,3.567,2.512,2.512,0,0,1-3.506.767l-13.077-8.592L314.2,357.086a2.512,2.512,0,0,1-3.506-.767,2.608,2.608,0,0,1,.754-3.567l11.155-7.328Z" transform="translate(453.021 6646.52)" fill="#ff4855" fill-rule="evenodd"/>
      </g>
    </g>
  </g>
</svg>
