<svg xmlns="http://www.w3.org/2000/svg" width="439.933" height="274.738" viewBox="0 0 439.933 274.738">
  <g id="Grupo_17143" data-name="Grupo 17143" transform="translate(-294.04 -92.581)">
    <path id="Trazado_31590" data-name="Trazado 31590" d="M2375.326,484.328c-10.525.752-21.535,27.157-7.466,47.292s32.733,9.016,36.753-5.88S2397.723,482.729,2375.326,484.328Z" transform="translate(-1671.462 -316.706)" fill="#ecf9fe"/>
    <path id="Trazado_31591" data-name="Trazado 31591" d="M1085.845,105.87c-.307,5.441,12.5,12.82,23.737,6.938s6.774-16.176-.593-19.216S1086.5,94.291,1085.845,105.87Z" transform="translate(-640.232 0)" fill="#ecf9fe"/>
    <path id="Trazado_31592" data-name="Trazado 31592" d="M315.506,534c-7.5-2.6-20.9,5.508-21.448,21.695-.527,15.642,10.464,21,19.88,13.657C321.79,563.228,329.021,538.7,315.506,534Z" transform="translate(0 -356.538)" fill="#ecf9fe"/>
    <path id="Trazado_31593" data-name="Trazado 31593" d="M614.069,403.6s84.748,5.4,106.786-42.528c21.345-46.424-41.313-82.948-31.314-127.683,14.256-63.783-25.693-83.555-96.841-64.528s-83.494,20.39-83.494,20.39l-21.568-10.235-19.883-.729s-48.563-24.5-93.231-11.264c-40.282,11.938-35.177,50.442-35.177,50.442s7.86,36.123-23.617,84.763C290.371,341.413,286.112,425,477.8,400.452l56.366,15.517Z" transform="translate(-7.431 -56.081)" fill="#ecf9fe"/>
    <g id="Grupo_17049" data-name="Grupo 17049" transform="translate(308.299 144.749)">
      <g id="Grupo_17014" data-name="Grupo 17014" transform="translate(18.067 17.478)">
        <g id="Grupo_17013" data-name="Grupo 17013">
          <path id="Trazado_31594" data-name="Trazado 31594" d="M595.011,596.542c-32.422-19.6-40.881-37.822-50.675-58.919-2.525-5.438-5.136-11.062-8.267-16.961-7.166-13.5-14.827-23.786-23.423-31.453-8.635-7.7-17.566-12.186-25.164-15.557-17.143-7.606-23.153-17.137-23.212-17.233l-1.354.83c.248.406,6.282,10.029,23.922,17.855,18.774,8.33,33.323,18.981,47.828,46.3,3.112,5.862,5.714,11.466,8.23,16.885,9.9,21.333,18.457,39.756,51.294,59.609Z" transform="translate(-462.915 -456.419)" fill="#c5eafb"/>
        </g>
      </g>
      <g id="Grupo_17016" data-name="Grupo 17016" transform="translate(3.495)">
        <g id="Grupo_17015" data-name="Grupo 17015">
          <path id="Trazado_31595" data-name="Trazado 31595" d="M389.03,366.333c-4.842,3.66-1.155,12.845,4.565,19.2,5.432,6.035,11.761,7.611,15,5.484,3.318-2.182,4.436-8.853-1.812-17.055C399.7,364.665,392.36,363.816,389.03,366.333Z" transform="translate(-386.789 -365.113)" fill="#c5eafb"/>
        </g>
      </g>
      <g id="Grupo_17018" data-name="Grupo 17018" transform="translate(0 31.154)">
        <g id="Grupo_17017" data-name="Grupo 17017">
          <path id="Trazado_31596" data-name="Trazado 31596" d="M368.534,537.7c.1,6.068,9.689,8.511,18.2,7.644,8.078-.824,13.085-5,13.276-8.872.2-3.966-4.53-8.8-14.839-8.6C373.481,528.1,368.467,533.524,368.534,537.7Z" transform="translate(-368.534 -527.863)" fill="#c5eafb"/>
        </g>
      </g>
      <g id="Grupo_17020" data-name="Grupo 17020" transform="translate(39.052 0.929)">
        <g id="Grupo_17019" data-name="Grupo 17019">
          <path id="Trazado_31597" data-name="Trazado 31597" d="M577.162,370.2c-5.814,1.742-5.561,11.636-2.415,19.587,2.987,7.55,8.37,11.235,12.144,10.368,3.87-.888,7.243-6.751,4.247-16.617C587.741,372.351,581.161,369,577.162,370.2Z" transform="translate(-572.545 -369.966)" fill="#c5eafb"/>
        </g>
      </g>
      <g id="Grupo_17022" data-name="Grupo 17022" transform="translate(29.145 50.941)">
        <g id="Grupo_17021" data-name="Grupo 17021">
          <path id="Trazado_31598" data-name="Trazado 31598" d="M520.835,643.246c.817,6.014,10.63,7.3,18.973,5.433,7.923-1.776,12.4-6.521,12.131-10.383-.276-3.962-5.542-8.206-15.754-6.78C524.609,633.131,520.273,639.109,520.835,643.246Z" transform="translate(-520.787 -631.233)" fill="#c5eafb"/>
        </g>
      </g>
      <g id="Grupo_17024" data-name="Grupo 17024" transform="translate(72.419 16.635)">
        <g id="Grupo_17023" data-name="Grupo 17023">
          <path id="Trazado_31599" data-name="Trazado 31599" d="M766.061,452.9c-5.076-3.327-12.483,3.238-16.542,10.763-3.854,7.147-3.207,13.638-.114,15.967,3.172,2.389,9.829,1.2,15.449-7.449C771.223,462.384,769.552,455.19,766.061,452.9Z" transform="translate(-746.853 -452.015)" fill="#c5eafb"/>
        </g>
      </g>
      <g id="Grupo_17026" data-name="Grupo 17026" transform="translate(50.18 74.289)">
        <g id="Grupo_17025" data-name="Grupo 17025">
          <path id="Trazado_31600" data-name="Trazado 31600" d="M630.727,765.217c.817,6.014,10.63,7.3,18.973,5.432,7.923-1.776,12.4-6.521,12.131-10.383-.276-3.962-5.542-8.205-15.754-6.78C634.5,755.1,630.165,761.08,630.727,765.217Z" transform="translate(-630.679 -753.204)" fill="#c5eafb"/>
        </g>
      </g>
      <g id="Grupo_17028" data-name="Grupo 17028" transform="translate(90.501 50.113)">
        <g id="Grupo_17027" data-name="Grupo 17027">
          <path id="Trazado_31601" data-name="Trazado 31601" d="M867.374,629.3c-3.515-4.948-12.8-1.534-19.327,3.995-6.194,5.251-7.956,11.531-5.925,14.828,2.083,3.381,8.717,4.7,17.1-1.307C868.726,640.009,869.792,632.7,867.374,629.3Z" transform="translate(-841.318 -626.905)" fill="#c5eafb"/>
        </g>
      </g>
      <g id="Grupo_17030" data-name="Grupo 17030" transform="translate(70.764 105.347)">
        <g id="Grupo_17029" data-name="Grupo 17029">
          <path id="Trazado_31602" data-name="Trazado 31602" d="M739.79,939.21c4.048,4.522,12.9.088,18.756-6.138,5.565-5.913,6.612-12.351,4.224-15.4-2.449-3.126-9.189-3.688-16.846,3.218C737.244,928.718,737.005,936.1,739.79,939.21Z" transform="translate(-738.209 -915.452)" fill="#c5eafb"/>
        </g>
      </g>
      <g id="Grupo_17032" data-name="Grupo 17032" transform="translate(106.273 83.95)">
        <g id="Grupo_17031" data-name="Grupo 17031">
          <path id="Trazado_31603" data-name="Trazado 31603" d="M952.671,807.385c-2.384-5.581-12.187-4.219-19.734-.2C925.77,811,922.713,816.762,924,820.415c1.317,3.746,7.521,6.44,16.988,2.355C951.717,818.139,954.311,811.224,952.671,807.385Z" transform="translate(-923.712 -803.672)" fill="#c5eafb"/>
        </g>
      </g>
      <g id="Grupo_17034" data-name="Grupo 17034" transform="translate(92.84 133.24)">
        <g id="Grupo_17033" data-name="Grupo 17033">
          <path id="Trazado_31604" data-name="Trazado 31604" d="M855.523,1084.226c4.085,3.558,11.432-1.347,15.934-7.509,4.276-5.852,4.491-11.67,2.039-14.105-2.515-2.5-8.547-2.25-14.565,4.712C852.109,1075.214,852.713,1081.779,855.523,1084.226Z" transform="translate(-853.537 -1061.166)" fill="#c5eafb"/>
        </g>
      </g>
      <g id="Grupo_17036" data-name="Grupo 17036" transform="translate(121.381 117.615)">
        <g id="Grupo_17035" data-name="Grupo 17035">
          <path id="Trazado_31605" data-name="Trazado 31605" d="M1030.728,986.513c-.088-5.416-8.648-7.6-16.241-6.821-7.21.736-11.679,4.468-11.849,7.919-.175,3.54,4.044,7.858,13.245,7.675C1026.313,995.078,1030.788,990.238,1030.728,986.513Z" transform="translate(-1002.633 -979.54)" fill="#c5eafb"/>
        </g>
      </g>
      <g id="Grupo_17038" data-name="Grupo 17038" transform="translate(30.752 33.982)">
        <g id="Grupo_17037" data-name="Grupo 17037" transform="translate(0 0)">
          <rect id="Rectángulo_2858" data-name="Rectángulo 2858" width="10.338" height="1.588" transform="translate(0 3.447) rotate(-19.475)" fill="#c5eafb"/>
        </g>
      </g>
      <g id="Grupo_17040" data-name="Grupo 17040" transform="translate(50.791 30.842)">
        <g id="Grupo_17039" data-name="Grupo 17039">
          <rect id="Rectángulo_2859" data-name="Rectángulo 2859" width="1.588" height="9.109" fill="#c5eafb"/>
        </g>
      </g>
      <g id="Grupo_17042" data-name="Grupo 17042" transform="translate(59.576 43.998)">
        <g id="Grupo_17041" data-name="Grupo 17041">
          <path id="Trazado_31606" data-name="Trazado 31606" d="M697.146,595.835l-1.326-.874-5.926,8.988-10.132,3.764.553,1.489,10.62-3.945Z" transform="translate(-679.762 -594.96)" fill="#c5eafb"/>
        </g>
      </g>
      <g id="Grupo_17044" data-name="Grupo 17044" transform="translate(80.777 71.317)">
        <g id="Grupo_17043" data-name="Grupo 17043">
          <path id="Trazado_31607" data-name="Trazado 31607" d="M802.362,738.386l-1.423-.706-3.224,6.491-7.2,2.237.471,1.517,7.849-2.439Z" transform="translate(-790.515 -737.68)" fill="#c5eafb"/>
        </g>
      </g>
      <g id="Grupo_17046" data-name="Grupo 17046" transform="translate(94.975 100.5)">
        <g id="Grupo_17045" data-name="Grupo 17045">
          <path id="Trazado_31608" data-name="Trazado 31608" d="M877.984,891.157l-1.214-1.024-4.92,5.834-7.162,1.2.263,1.567,7.737-1.3Z" transform="translate(-864.688 -890.133)" fill="#c5eafb"/>
        </g>
      </g>
      <g id="Grupo_17048" data-name="Grupo 17048" transform="translate(111.401 126.173)">
        <g id="Grupo_17047" data-name="Grupo 17047">
          <path id="Trazado_31609" data-name="Trazado 31609" d="M961.208,1025.809l-.305-1.559-7.323,1.436-3.082,6.825,1.448.654,2.744-6.078Z" transform="translate(-950.498 -1024.25)" fill="#c5eafb"/>
        </g>
      </g>
    </g>
    <g id="Grupo_17068" data-name="Grupo 17068" transform="translate(633.589 225.488)">
      <g id="Grupo_17051" data-name="Grupo 17051" transform="translate(0 19.365)">
        <g id="Grupo_17050" data-name="Grupo 17050">
          <path id="Trazado_31610" data-name="Trazado 31610" d="M2068.525,957.381c13.893-6.365,24.612-13.413,32.768-21.546,8.193-8.17,13.191-16.824,17-24.213,8.594-16.67,18.46-22.112,18.559-22.166l-.75-1.4c-.419.224-10.378,5.685-19.221,22.838-9.412,18.256-20.895,32.158-49.018,45.043Z" transform="translate(-2067.863 -888.056)" fill="#c5eafb"/>
        </g>
      </g>
      <g id="Grupo_17053" data-name="Grupo 17053" transform="translate(59.517 5.506)">
        <g id="Grupo_17052" data-name="Grupo 17052">
          <path id="Trazado_31611" data-name="Trazado 31611" d="M2405.285,818.2c-3.371-5.047-12.755-1.9-19.434,3.436-6.343,5.07-8.285,11.3-6.351,14.651,1.985,3.44,8.579,4.945,17.132-.813C2406.327,828.95,2407.6,821.676,2405.285,818.2Z" transform="translate(-2378.784 -815.658)" fill="#c5eafb"/>
        </g>
      </g>
      <g id="Grupo_17055" data-name="Grupo 17055" transform="translate(37.928 0)">
        <g id="Grupo_17054" data-name="Grupo 17054">
          <path id="Trazado_31612" data-name="Trazado 31612" d="M2274.727,786.9c-6.064-.257-9.063,9.175-8.693,17.718.351,8.112,4.232,13.355,8.082,13.771,3.948.427,9.054-4.008,9.452-14.311C2284.017,792.4,2278.9,787.076,2274.727,786.9Z" transform="translate(-2266.003 -786.894)" fill="#c5eafb"/>
        </g>
      </g>
      <g id="Grupo_17057" data-name="Grupo 17057" transform="translate(53.324 40.761)">
        <g id="Grupo_17056" data-name="Grupo 17056">
          <path id="Trazado_31613" data-name="Trazado 31613" d="M2376.971,1005c-1.4-5.906-11.292-6.23-19.413-3.555-7.712,2.541-11.7,7.7-11.06,11.518.661,3.916,6.316,7.625,16.34,5.21C2374.2,1015.432,2377.934,1009.059,2376.971,1005Z" transform="translate(-2346.431 -999.833)" fill="#c5eafb"/>
        </g>
      </g>
      <g id="Grupo_17059" data-name="Grupo 17059" transform="translate(16.056 27.849)">
        <g id="Grupo_17058" data-name="Grupo 17058">
          <path id="Trazado_31614" data-name="Trazado 31614" d="M2158.7,932.4c-6.052.464-7.911,10.185-6.531,18.623,1.31,8.013,5.786,12.759,9.657,12.716,3.971-.044,8.515-5.053,7.688-15.331C2168.581,936.755,2162.865,932.077,2158.7,932.4Z" transform="translate(-2151.74 -932.381)" fill="#c5eafb"/>
        </g>
      </g>
      <g id="Grupo_17061" data-name="Grupo 17061" transform="translate(37.719 72.466)">
        <g id="Grupo_17060" data-name="Grupo 17060">
          <path id="Trazado_31615" data-name="Trazado 31615" d="M2291.917,1185.838c3.617-4.873-2.5-12.651-9.779-17.142-6.909-4.265-13.427-4-15.933-1.047-2.571,3.027-1.768,9.742,6.534,15.857C2282.15,1190.437,2289.429,1189.189,2291.917,1185.838Z" transform="translate(-2264.909 -1165.458)" fill="#c5eafb"/>
        </g>
      </g>
      <g id="Grupo_17063" data-name="Grupo 17063" transform="translate(46.884 30.912)">
        <g id="Grupo_17062" data-name="Grupo 17062" transform="translate(0 0)">
          <rect id="Rectángulo_2860" data-name="Rectángulo 2860" width="1.588" height="10.338" transform="translate(0 0.441) rotate(-16.127)" fill="#c5eafb"/>
        </g>
      </g>
      <g id="Grupo_17065" data-name="Grupo 17065" transform="translate(44.629 50.765)">
        <g id="Grupo_17064" data-name="Grupo 17064" transform="translate(0 0)">
          <rect id="Rectángulo_2861" data-name="Rectángulo 2861" width="1.588" height="9.109" transform="translate(0 1.586) rotate(-86.606)" fill="#c5eafb"/>
        </g>
      </g>
      <g id="Grupo_17067" data-name="Grupo 17067" transform="translate(25.92 58.558)">
        <g id="Grupo_17066" data-name="Grupo 17066">
          <path id="Trazado_31616" data-name="Trazado 31616" d="M2215.631,1110.855l.95-1.273-8.626-6.441-3.165-10.334-1.519.465,3.318,10.832Z" transform="translate(-2203.27 -1092.807)" fill="#c5eafb"/>
        </g>
      </g>
    </g>
    <path id="Trazado_31617" data-name="Trazado 31617" d="M866.794,1382.771c-50.409-.523-170.127,1.036-170.085,9,.042,8.028,100.343,7.41,100.343,7.41s-30.193,1.268-30.193,6.877,77.866,6.509,156.551-1.085c46.331-4.471,29.8-10.263,29.8-10.263s19.86-.925,19.87-3.929C973.093,1386.339,922.846,1383.353,866.794,1382.771Z" transform="translate(-325.589 -1043.145)" fill="#eceded"/>
    <g id="Grupo_17074" data-name="Grupo 17074" transform="translate(368.384 110.219)">
      <g id="Grupo_17073" data-name="Grupo 17073" transform="translate(0 0)">
        <g id="Grupo_17070" data-name="Grupo 17070" transform="translate(0 38.957)">
          <g id="Grupo_17069" data-name="Grupo 17069">
            <path id="Trazado_31618" data-name="Trazado 31618" d="M693.7,581.714A23.954,23.954,0,0,1,683.564,567.8c-2.353-8.271-1.052-18.365,3.569-27.692a52.522,52.522,0,0,1,22.98-23.192,3.447,3.447,0,1,1,3.149,6.134c-19,9.755-26.769,29.845-23.066,42.864,2.688,9.45,10.928,14.113,23.2,13.129,7.968-.639,36.931-13.927,141.378-95.74,59.7-46.762,115.759-93.786,116.318-94.256a3.448,3.448,0,0,1,4.433,5.281c-.56.47-56.7,47.56-116.487,94.393C823.9,516.243,794.38,538.3,771.3,554.286c-29.693,20.566-48.454,30.911-57.356,31.625-8.049.646-14.848-.757-20.208-4.169Z" transform="translate(-682.417 -388.235)" fill="#10344a"/>
          </g>
        </g>
        <g id="Grupo_17072" data-name="Grupo 17072" transform="translate(91.941)">
          <g id="Grupo_17071" data-name="Grupo 17071">
            <path id="Trazado_31619" data-name="Trazado 31619" d="M1341.219,244.778c-14.036-17.179-77.581-87.888-178.5-48.067,10.964,5.276,58.444,24.174,51.305,77.1,17.5-.543,63.954,30.479,60.348,83.614,18.656,4.724,48.847,27.447,47.842,64.108C1322.215,421.531,1402.865,352.269,1341.219,244.778Z" transform="translate(-1162.72 -184.724)" fill="#80c9ed"/>
          </g>
        </g>
        <path id="Trazado_31620" data-name="Trazado 31620" d="M1558.817,437.586c-.292-.52-.583-1.04-.882-1.562-.621-.76-1.34-1.626-2.154-2.581a63.761,63.761,0,0,0-31.721-11.9c-11.085-1.027-23.018.631-35.467,4.927-27.8,9.594-49.146,28.788-57.693,37.34q-.074.621-.159,1.248c.346-.011.7-.008,1.073.006,8.349-8.384,29.587-27.589,57.279-37.145,26.376-9.1,49.291-6.241,68.1,8.5,4.555,56.783-28.976,87.085-66.051,111.3-.018.317-.036.635-.058.954.327.083.658.172.992.266C1529.234,524.66,1562.828,494.286,1558.817,437.586Z" transform="translate(-1287.496 -375.97)" fill="#67b7de"/>
      </g>
    </g>
    <g id="Grupo_17076" data-name="Grupo 17076" transform="translate(416.57 141.395)">
      <g id="Grupo_17075" data-name="Grupo 17075" transform="translate(0 0)">
        <path id="Trazado_31621" data-name="Trazado 31621" d="M999.514,349.743c-15.336-7.819-26.618,9.222-27.817,11.4-1.2-2.18-12.421-19.524-27.817-11.4-19.605,10.342-9.151,40.1,27.392,62.258C1007.815,389.845,1019.261,359.81,999.514,349.743Z" transform="translate(-934.147 -347.592)" fill="#ff4f3b"/>
      </g>
      <path id="Trazado_31622" data-name="Trazado 31622" d="M1030.01,430.923H1013.7l-2.8,5.17-5.425-29.837-7.114,39.615-6.692-27.358-3.882,12.365h-19.78v.725c.157.241.32.483.483.725H988.85l2.644-8.421,7.084,28.957,6.9-38.453,4.726,25.995,4.357-8.033h14.476Q1029.543,431.647,1030.01,430.923Z" transform="translate(-961.524 -395.026)" fill="#fff"/>
    </g>
    <g id="Grupo_17079" data-name="Grupo 17079" transform="translate(446.023 190.869)">
      <path id="Trazado_31623" data-name="Trazado 31623" d="M1088.007,764.062l8.692,124.332,84.847-.089,4.128-126.392Z" transform="translate(-1088.007 -732.077)" fill="#d1d3d4"/>
      <path id="Trazado_31624" data-name="Trazado 31624" d="M1546.3,904.063l3.058.219,2.332-116.827-6.423,5.019Z" transform="translate(-1457.737 -752.73)" fill="#e6e7e8" style="mix-blend-mode: multiply;isolation: isolate"/>
      <path id="Trazado_31625" data-name="Trazado 31625" d="M1112.385,789.138l89.286-1.682-4.443,117.53-76.371-.314Z" transform="translate(-1107.719 -752.73)" fill="#fff"/>
      <g id="Grupo_17077" data-name="Grupo 17077" transform="translate(13.112 48.049)">
        <path id="Trazado_31626" data-name="Trazado 31626" d="M1177.879,1168.156l17.863-.561.271-13.038-18.983,1.1Z" transform="translate(-1173.102 -1097.608)" fill="#f1f2f2"/>
        <path id="Trazado_31627" data-name="Trazado 31627" d="M1171.3,1069.939l.733,10.787,19.433.117.256-12.335Z" transform="translate(-1168.465 -1028.031)" fill="#f1f2f2"/>
        <path id="Trazado_31628" data-name="Trazado 31628" d="M1180.255,873.751l.347-16.7-24.094.266,1.165,17.142Z" transform="translate(-1156.507 -857.053)" fill="#f1f2f2"/>
        <path id="Trazado_31629" data-name="Trazado 31629" d="M1164.387,964.875l.982,14.452,20.832.216.351-16.913Z" transform="translate(-1162.879 -942.421)" fill="#f1f2f2"/>
        <path id="Trazado_31630" data-name="Trazado 31630" d="M1182.714,1243.949l1.077,14.707,16.168-.5.4-14.19Z" transform="translate(-1177.698 -1169.889)" fill="#f1f2f2"/>
      </g>
      <path id="Trazado_31631" data-name="Trazado 31631" d="M1459.5,773.689a26.9,26.9,0,0,0-2.361-9.687l-4.415.139-6.511,2.093,11.443,4.8Z" transform="translate(-1377.648 -733.765)" fill="#e6e7e8" style="mix-blend-mode: multiply;isolation: isolate"/>
      <path id="Trazado_31632" data-name="Trazado 31632" d="M1170.1,868.838l3.979-1.3,4.78,5.283,5.3-10.7h4.827l-9.276,14.133Z" transform="translate(-1154.384 -813.097)" fill="#ff4f3b"/>
      <path id="Trazado_31633" data-name="Trazado 31633" d="M1170.1,972.564l3.979-1.3,4.78,5.283,5.3-10.7h4.827l-9.276,14.133Z" transform="translate(-1154.384 -896.968)" fill="#ff4f3b"/>
      <path id="Trazado_31634" data-name="Trazado 31634" d="M1170.1,1064.255l3.979-1.3,4.78,5.282,5.3-10.7h4.827l-9.276,14.133Z" transform="translate(-1154.384 -971.107)" fill="#ff4f3b"/>
      <path id="Trazado_31635" data-name="Trazado 31635" d="M1170.1,1150.992l3.979-1.3,4.78,5.283,5.3-10.7h4.827l-9.276,14.133Z" transform="translate(-1154.384 -1041.241)" fill="#ff4f3b"/>
      <path id="Trazado_31636" data-name="Trazado 31636" d="M1170.1,1243.151l3.979-1.3,4.78,5.283,5.3-10.7h4.827l-9.276,14.133Z" transform="translate(-1154.384 -1115.759)" fill="#ff4f3b"/>
      <path id="Trazado_31637" data-name="Trazado 31637" d="M1300.476,857.052v4.353l37.557-1.217v-3.136Z" transform="translate(-1259.805 -809.004)" fill="#e2e3e3"/>
      <path id="Trazado_31638" data-name="Trazado 31638" d="M1300.476,889.266v4.353h48.214v-3.253Z" transform="translate(-1259.805 -835.051)" fill="#e2e3e3"/>
      <path id="Trazado_31639" data-name="Trazado 31639" d="M1300.476,921.48v4.353H1326.9V922.4Z" transform="translate(-1259.805 -861.099)" fill="#e2e3e3"/>
      <path id="Trazado_31640" data-name="Trazado 31640" d="M1297.349,966.681v4.007l42.826-1.121v-2.887Z" transform="translate(-1257.276 -897.647)" fill="#e2e3e3"/>
      <path id="Trazado_31641" data-name="Trazado 31641" d="M1297.349,996.338v4.007h33.486v-2.995Z" transform="translate(-1257.276 -921.628)" fill="#e2e3e3"/>
      <path id="Trazado_31642" data-name="Trazado 31642" d="M1297.349,1026V1030h39.713v-3.16Z" transform="translate(-1257.276 -945.608)" fill="#e2e3e3"/>
      <path id="Trazado_31643" data-name="Trazado 31643" d="M1293.394,1080.769v4.007h33.486v-2.995Z" transform="translate(-1254.078 -989.896)" fill="#e2e3e3"/>
      <path id="Trazado_31644" data-name="Trazado 31644" d="M1293.394,1110.426v4.007h48.214v-3.16Z" transform="translate(-1254.078 -1013.876)" fill="#e2e3e3"/>
      <path id="Trazado_31645" data-name="Trazado 31645" d="M1293.394,1154.557v4.007h26.58v-2.995Z" transform="translate(-1254.078 -1049.559)" fill="#e2e3e3"/>
      <path id="Trazado_31646" data-name="Trazado 31646" d="M1293.394,1184.214v4.008h40.47v-3.16Z" transform="translate(-1254.078 -1073.539)" fill="#e2e3e3"/>
      <path id="Trazado_31647" data-name="Trazado 31647" d="M1293.394,1296.923v4.008H1325.6v-3.16Z" transform="translate(-1254.078 -1164.674)" fill="#e2e3e3"/>
      <path id="Trazado_31648" data-name="Trazado 31648" d="M1293.394,1243.949v4.008h37.237v-3.16Z" transform="translate(-1254.078 -1121.84)" fill="#e2e3e3"/>
      <path id="Trazado_31649" data-name="Trazado 31649" d="M1194.417,769.984a26.451,26.451,0,0,0-1.251,9.55l3.5-3.988,5.188-3.646V769.82Z" transform="translate(-1172.993 -738.47)" fill="#e6e7e8" style="mix-blend-mode: multiply;isolation: isolate"/>
      <path id="Trazado_31650" data-name="Trazado 31650" d="M1293.329,606.051a12.7,12.7,0,1,0,13.1,12.3A12.7,12.7,0,0,0,1293.329,606.051Zm-.49,19.606a6.316,6.316,0,1,1,6.115-6.511A6.316,6.316,0,0,1,1292.839,625.657Z" transform="translate(-1244.076 -606.045)" fill="#2f86b5"/>
      <path id="Trazado_31651" data-name="Trazado 31651" d="M1193.388,732.566s5.508-20.051,29.717-20.811a32.856,32.856,0,0,1,31.967,19.671Z" transform="translate(-1173.216 -691.502)" fill="#2f86b5"/>
      <g id="Grupo_17078" data-name="Grupo 17078" transform="translate(22.78 22.58)">
        <path id="Trazado_31652" data-name="Trazado 31652" d="M1283.857,726.507l2.567,2.514a17.4,17.4,0,0,1,6.611-5.015A25.65,25.65,0,0,0,1283.857,726.507Z" transform="translate(-1269.147 -724.006)" fill="#333" style="mix-blend-mode: screen;isolation: isolate"/>
        <path id="Trazado_31653" data-name="Trazado 31653" d="M1215.422,757.7a34,34,0,0,0-8.411,10.3l12.009-.377a27.432,27.432,0,0,1,2.91-7.882Z" transform="translate(-1207.011 -751.249)" fill="#333" style="mix-blend-mode: screen;isolation: isolate"/>
      </g>
    </g>
    <g id="Grupo_17081" data-name="Grupo 17081" transform="translate(581.256 180.344)">
      <path id="Trazado_31654" data-name="Trazado 31654" d="M1807.252,596.083s22,64.936,72.987,61.015c0,0,31.872-27.4-.023-93.879C1880.216,563.218,1837.78,554.855,1807.252,596.083Z" transform="translate(-1804.806 -560.328)" fill="#276f96"/>
      <g id="Grupo_17080" data-name="Grupo 17080" transform="translate(29.478 25.039)">
        <rect id="Rectángulo_2862" data-name="Rectángulo 2862" width="12.116" height="44.885" transform="translate(7.685 5.241) rotate(-25.631)" fill="#fff"/>
        <rect id="Rectángulo_2863" data-name="Rectángulo 2863" width="12.116" height="44.885" transform="matrix(0.433, 0.902, -0.902, 0.433, 40.468, 7.685)" fill="#fff"/>
      </g>
      <path id="Trazado_31655" data-name="Trazado 31655" d="M1880.239,773.1s14.942-12.849,14.125-42.291c-51.837,7.269-77.142-18.822-82.206-24.822q-2.495,2.853-4.906,6.1s8.047,23.752,25.687,41.659c9.421,9.485,22.458,15.6,38.062,19.315A56.079,56.079,0,0,0,1880.239,773.1Z" transform="translate(-1804.806 -676.333)" fill="#333" style="mix-blend-mode: screen;isolation: isolate"/>
      <path id="Trazado_31656" data-name="Trazado 31656" d="M1870.794,649.963l-.717.055a56.863,56.863,0,0,1-34.213-8.185c-8.411-5.044-16.258-12.351-23.323-21.718a128.613,128.613,0,0,1-17.7-32.6l-.368-1.087.683-.922c8.813-11.9,19.458-20.9,31.64-26.745a79.149,79.149,0,0,1,30.28-7.622,60.167,60.167,0,0,1,13.231.656l1.078.213.475.991c7.377,15.377,11.973,29.975,13.658,43.389a79.112,79.112,0,0,1-1.542,29.985c-4.107,15.641-12.294,22.819-12.641,23.117Zm-71.406-62.78a128.135,128.135,0,0,0,16.724,30.38c15.07,19.94,32.848,29.4,52.854,28.135,1.746-1.76,7.7-8.459,10.856-20.765,3.411-13.3,4.163-36.017-11.421-69a62.474,62.474,0,0,0-11.271-.4,74.742,74.742,0,0,0-28.435,7.188A80.647,80.647,0,0,0,1799.388,587.184Z" transform="translate(-1794.476 -551.062)" fill="#fff"/>
    </g>
    <path id="Trazado_31657" data-name="Trazado 31657" d="M1898.521,960.226l.746-1.012s-.015-.093-.04-.268a34.532,34.532,0,0,1,.539-12.025l-1.948-2.12c-2.52,4.207-7.884,15.948-.522,30.714l2.078-4.209,3.143-2.55Z" transform="translate(-1293.338 -689.087)" fill="#63accf"/>
    <g id="Grupo_17082" data-name="Grupo 17082" transform="translate(600.495 241.945)">
      <path id="Trazado_31658" data-name="Trazado 31658" d="M1913.747,1284l-.213,1.35,6.162,23.475,1.012-.391s1.243-19.924-2.841-24.434-3.552-.391-3.552-.391Z" transform="translate(-1909.982 -1203.59)" fill="#ffd3cf"/>
      <path id="Trazado_31659" data-name="Trazado 31659" d="M1918.5,1417.867s1.829,1.03.426,7.156h-.728l-.177-3.578a14.138,14.138,0,0,0-1.421,3.578h-5.824s.515-1.26,3.125-1.7a12.567,12.567,0,0,1,3.353-5.356Z" transform="translate(-1907.756 -1313.543)" fill="#ff4f3b"/>
      <path id="Trazado_31660" data-name="Trazado 31660" d="M1931.706,1416.02c-.371-.517-.771-.68-1.247.1a12.565,12.565,0,0,0-3.353,5.356l1.083.178S1929.966,1417.334,1931.706,1416.02Z" transform="translate(-1920.957 -1311.696)" fill="#ffd3cf"/>
      <path id="Trazado_31661" data-name="Trazado 31661" d="M1957.928,1272.6l-.888,1.279,7.2,26.76,1.012-.391s.369-19.265-2.841-24.434c-2.923-4.706-3.545-4.013-3.545-4.013Z" transform="translate(-1945.161 -1195.405)" fill="#ffd3cf"/>
      <path id="Trazado_31662" data-name="Trazado 31662" d="M1967.448,1417.867s1.829,1.03.426,7.156h-.728l-.178-3.578a14.133,14.133,0,0,0-1.42,3.578h-5.825s.515-1.26,3.125-1.7a12.563,12.563,0,0,1,3.353-5.356Z" transform="translate(-1947.331 -1313.543)" fill="#ff4f3b"/>
      <path id="Trazado_31663" data-name="Trazado 31663" d="M1980.65,1416.053c-.391-.639-.809-.53-1.246.1a12.563,12.563,0,0,0-3.353,5.356l1.083.178S1978.91,1417.367,1980.65,1416.053Z" transform="translate(-1960.533 -1311.729)" fill="#ffd3cf"/>
      <path id="Trazado_31664" data-name="Trazado 31664" d="M1961.7,1274.791c-1.5-2.252-2.243-2.8-2.58-2.908l-.413.154-.774.658-.888,1.279.881,3.274A8.25,8.25,0,0,1,1961.7,1274.791Z" transform="translate(-1945.161 -1195.503)" fill="#ffb8b0"/>
      <path id="Trazado_31665" data-name="Trazado 31665" d="M1917.867,1287.083a13.77,13.77,0,0,0-1.41-1.38c-.735.121-1.57.264-2.159.385a3.768,3.768,0,0,0,.017.6l-.568.391-.213,1.35.371,1.412a14.874,14.874,0,0,1,4.59-1.876A5.156,5.156,0,0,0,1917.867,1287.083Z" transform="translate(-1909.982 -1206.678)" fill="#ffb8b0"/>
      <path id="Trazado_31666" data-name="Trazado 31666" d="M1912.794,983.822s-1.682-2.959.449-4.877,4.191.568,6.605,1.1,5.4.307,6.109,4.273-.568,3.895,1.527,8.192-1.208,6.322-.5,8.843,2.486,5.256-.178,7.1-6.89-.959-6.89-.959l-.178-6.748,1.1-5.079-1.4-3.824-.162-6.12-4.226-3.57A11.314,11.314,0,0,0,1912.794,983.822Z" transform="translate(-1908.874 -958.061)" fill="#0f3447"/>
      <path id="Trazado_31667" data-name="Trazado 31667" d="M1903.976,1157.919l-1.776.8s-3.835,13.78.426,24.256l14.6-3.587s3.232-17.118-4.582-21.912-5.8-.249-5.8-.249l-2.825.888Z" transform="translate(-1899.536 -1101.216)" fill="#1b6085"/>
      <path id="Trazado_31668" data-name="Trazado 31668" d="M1901.089,1045.567v4.653l-6.108,6s.257,3.552,3.467,3.942a45.653,45.653,0,0,1-.8,8.523,11.5,11.5,0,0,0,10.441-1.243,36.831,36.831,0,0,1,.64-9.056,60.2,60.2,0,0,0,.852-11.045l-5.966-3.41-2.557.852Z" transform="translate(-1894.981 -1011.188)" fill="#9bd5f2"/>
      <path id="Trazado_31669" data-name="Trazado 31669" d="M1959.38,884.378l-.651-.77a12.115,12.115,0,0,1-1.365-5.116c-.009-2.664,1.483,1.811,1.483,1.811s.32-6.792,1.252-6.925.479,1.811.479,1.811.586-2.371,1.119-2.317.133,3.116.133,3.116.559-1.944,1.012-1.758-.586,3.383-.586,3.383.426-1.7,1.065-1.438-.772,4.741-2.344,6.925l-.556.586Z" transform="translate(-1945.423 -872.87)" fill="#ffd3cf"/>
      <path id="Trazado_31670" data-name="Trazado 31670" d="M1913.278,1045.425l-2.135-.925-2.231.744.035.781v4.652l-4.248,4.174c.363.58,1.286,1.52,3.112.372,2.486-1.563,5.292-6.748,5.292-6.748Z" transform="translate(-1902.839 -1011.646)" fill="#ffd3cf"/>
      <path id="Trazado_31671" data-name="Trazado 31671" d="M1930.957,1045.375l-2.02-.875-2.231.744.035.781v3.346A9.744,9.744,0,0,0,1930.957,1045.375Z" transform="translate(-1920.633 -1011.646)" fill="#ffb8b0"/>
      <path id="Trazado_31672" data-name="Trazado 31672" d="M1907.457,996.513s-3.978,1.065-5.612,6.606l1.421.355s-1.989,3.836,2.2,4.546,7.032-2.983,7.032-2.983l-.426-6.89s-2.77-1.278-2.841-1.634S1907.457,996.513,1907.457,996.513Z" transform="translate(-1900.531 -972.717)" fill="#ffd3cf"/>
      <path id="Trazado_31673" data-name="Trazado 31673" d="M1925.867,994.76v.62s-1.559,3.255,2.1,5.419l.679,2.5c-.924,2.279-.762,4.02,1.31,4.815l4.6-4.451-1.9-7.446-3.339-1.634h-2.45Z" transform="translate(-1919.688 -971.284)" fill="#0f3447"/>
      <path id="Trazado_31674" data-name="Trazado 31674" d="M1930.7,1024.015s.675-1.281,1.491-.428-.639,4.049-2.344,3.125-.533-1.847-.533-1.847l.868-.51Z" transform="translate(-1922.424 -994.5)" fill="#ffd3cf"/>
      <path id="Trazado_31675" data-name="Trazado 31675" d="M1944.622,926.893l2.593-.586s8.482,17.334-1.326,33.891l-5.546-3.367,1.581-3.924S1948.636,943.727,1944.622,926.893Z" transform="translate(-1931.66 -916.078)" fill="#9bd5f2"/>
    </g>
    <g id="Grupo_17085" data-name="Grupo 17085" transform="translate(413.579 258.513)">
      <g id="Grupo_17084" data-name="Grupo 17084" transform="translate(0 0)">
        <path id="Trazado_31676" data-name="Trazado 31676" d="M993.583,1446.677a4.359,4.359,0,0,1,1.213-2.021h1.029a6.567,6.567,0,0,1,5,2.021Z" transform="translate(-979.214 -1351.764)" fill="#154965"/>
        <g id="Grupo_17083" data-name="Grupo 17083">
          <path id="Trazado_31677" data-name="Trazado 31677" d="M1113.184,1428.093l.514.441.625,3.013h1.213l-.551-3.749h-1.249Z" transform="translate(-1075.921 -1338.14)" fill="#ffd3cf"/>
          <path id="Trazado_31678" data-name="Trazado 31678" d="M1053.822,1183.172l-.426.8s6.174,23.758,7.938,47.35h-2.481s-10.528-34.121-12.512-39.413,3.748-5.182,3.748-5.182l-.834-4.465Z" transform="translate(-1021.535 -1139.605)" fill="#1b6085"/>
          <path id="Trazado_31679" data-name="Trazado 31679" d="M1056.118,1227.413l1.489-12.6-3.361,6.836C1054.776,1223.243,1055.415,1225.215,1056.118,1227.413Z" transform="translate(-1028.266 -1165.923)" fill="#154a66"/>
          <path id="Trazado_31680" data-name="Trazado 31680" d="M1000.157,1431.914l-.239,2.223h1.029l.367-2.5Z" transform="translate(-984.337 -1341.245)" fill="#ffd3cf"/>
          <path id="Trazado_31681" data-name="Trazado 31681" d="M1004.337,1189.573l-1.6,1.8s-4.245,18.294-4.741,45.855h1.874s9.843-36.85,13.67-44.539l-2.591-3.121Z" transform="translate(-982.784 -1145.516)" fill="#1b6085"/>
          <path id="Trazado_31682" data-name="Trazado 31682" d="M943.876,1055.934s-2.053-.377-2.4-.414-2.419.055-2.419.055-14.286,4.8-20.533,18.613c0,0,3.787,7.273,18.569,8.746l.093-1.259s-6.633-4.084-8.079-9.287a13.268,13.268,0,0,1,4.814-4.447,30.919,30.919,0,0,0,2.682-2.536l2.609-4.593-.707-3.087Z" transform="translate(-918.52 -1037.118)" fill="#2176a3"/>
          <path id="Trazado_31683" data-name="Trazado 31683" d="M989.935,1072.461l1.727,2.278s4.776,8.746,3.977,15.085c0,0,8.076-.661,13.423-1.323,0,0,.055-14.056,1.709-21.057a29.989,29.989,0,0,0-7.061-3.526l-.931,3.526-4.355,2.37-3.969-.937-3.005,2.26Z" transform="translate(-976.265 -1043.915)" fill="#2176a3"/>
          <path id="Trazado_31684" data-name="Trazado 31684" d="M1026.558,1051.6l-.772.634s4.63,8.985,7.3,15.738c0,0-.841-11.106-2.481-15.379l-2.85-1.213h-.733Z" transform="translate(-1005.253 -1033.778)" fill="#fff"/>
          <path id="Trazado_31685" data-name="Trazado 31685" d="M1027.247,1056.286l-1.461-.441,4.2,3.859.766-3.765-2.736.182Z" transform="translate(-1005.253 -1037.387)" fill="#ff4f3b"/>
          <path id="Trazado_31686" data-name="Trazado 31686" d="M1048.392,1073.4l-2.448-4.45.314,6.042c1.1,2.362,2.227,4.9,3.131,7.188C1049.389,1082.177,1049.053,1077.741,1048.392,1073.4Z" transform="translate(-1021.552 -1047.982)" fill="#ff4f3b"/>
          <path id="Trazado_31687" data-name="Trazado 31687" d="M1050.756,1055.845l3.875,1.929-1.937,1.488,2.876,1.847-2.29,10.473S1051.618,1059.407,1050.756,1055.845Z" transform="translate(-1025.443 -1037.387)" fill="#1a5c80"/>
          <path id="Trazado_31688" data-name="Trazado 31688" d="M1015.619,1187.328l2.447-1.151,2.274,1.508s.925,2.514.657,2.742-.406-.114-.406-.114.251.5.069.663-.594-.457-.594-.457.206.64-.046.663-.354-.731-.354-.731-.24.686-.446.366a3.311,3.311,0,0,1-1.154-2.137,3.667,3.667,0,0,1-2.54-.092Z" transform="translate(-996.957 -1142.771)" fill="#ffd3cf"/>
          <path id="Trazado_31689" data-name="Trazado 31689" d="M1030.141,1027.664l.468,3.859s.248,1.02-1.323,1.24-3.5-1.6-3.5-1.6l.323-5.595,2.929-.248v.469Z" transform="translate(-1005.253 -1012.706)" fill="#ffd3cf"/>
          <path id="Trazado_31690" data-name="Trazado 31690" d="M1026.777,1029.665a7.006,7.006,0,0,0,4.521,2.714l-.335-2.764c-.8-.408-1.426-.693-1.426-.693l-2.636-1.4Z" transform="translate(-1006.054 -1014.489)" fill="#f5b9b5"/>
          <path id="Trazado_31691" data-name="Trazado 31691" d="M1027.1,979.535s2.646,1.1,3.362,6.835l-1.681.386s.248,3.914-1.737,4.685-4.851.441-6.725-3.693a5.749,5.749,0,0,1,1.6-7c.22-.055,3.969-1.213,3.969-1.213Z" transform="translate(-1000.361 -975.684)" fill="#ffd3cf"/>
          <path id="Trazado_31692" data-name="Trazado 31692" d="M1011.177,965.073a4.011,4.011,0,0,0,2.163-3.237c.028-2.177-.882-2.7-1.819-2.288s-1.462,1.323-4.121,1.158-7.152-1.02-8.943,2.949a5.947,5.947,0,0,0,1.846,7.414c.992.661,1.185,3.748,2.894,3.8s2.233-2.232,1.737-4.189l.661-1.433-.11-.5a4.63,4.63,0,0,0,3-1.819c.854-1.488.829-2.4,1.738-3.059A14.4,14.4,0,0,1,1011.177,965.073Z" transform="translate(-982.664 -959.419)" fill="#0f3447"/>
          <path id="Trazado_31693" data-name="Trazado 31693" d="M1029.44,1004.805a1.124,1.124,0,0,0-.049-.136.968.968,0,0,0-1.385-.553c-1.13.469-.413,4.024,1.736,3.28s.276-1.957.276-1.957Z" transform="translate(-1006.619 -995.47)" fill="#ffd3cf"/>
          <path id="Trazado_31694" data-name="Trazado 31694" d="M1006.6,1054.784l-4.571,2.024,3.389,2.627-2.066,3.583,10.528,7.707C1012.12,1066.335,1009.5,1060.753,1006.6,1054.784Z" transform="translate(-986.043 -1036.529)" fill="#1a5c80"/>
        </g>
        <path id="Trazado_31695" data-name="Trazado 31695" d="M1112.306,1446.677a4.36,4.36,0,0,1,1.212-2.021h1.029a6.567,6.567,0,0,1,5,2.021Z" transform="translate(-1075.211 -1351.764)" fill="#154965"/>
      </g>
      <path id="Trazado_31696" data-name="Trazado 31696" d="M1082.687,1086.39l2.211-4.052,2.168,1.339.735,10.517-6.191-3.279.538-2.9Z" transform="translate(-1050.391 -1058.809)" fill="#2176a3"/>
    </g>
    <g id="Grupo_17106" data-name="Grupo 17106" transform="translate(379.61 126.478)">
      <g id="Grupo_17096" data-name="Grupo 17096" transform="translate(0 1.325)">
        <g id="Grupo_17087" data-name="Grupo 17087">
          <g id="Grupo_17086" data-name="Grupo 17086">
            <path id="Trazado_31697" data-name="Trazado 31697" d="M765.12,303.081,770.4,296.7a1.173,1.173,0,0,0-.156-1.651l-21.982-18.191a1.173,1.173,0,0,0-1.651.156l-5.281,6.382a1.173,1.173,0,0,0,.156,1.651l21.982,18.191A1.173,1.173,0,0,0,765.12,303.081Z" transform="translate(-741.062 -276.587)" fill="#d2f0f7"/>
          </g>
        </g>
        <g id="Grupo_17089" data-name="Grupo 17089">
          <g id="Grupo_17088" data-name="Grupo 17088">
            <path id="Trazado_31698" data-name="Trazado 31698" d="M765.12,303.081,770.4,296.7a1.173,1.173,0,0,0-.156-1.651l-21.982-18.191a1.173,1.173,0,0,0-1.651.156l-5.281,6.382a1.173,1.173,0,0,0,.156,1.651l21.982,18.191A1.173,1.173,0,0,0,765.12,303.081Z" transform="translate(-741.062 -276.587)" fill="#97d7e8"/>
          </g>
        </g>
        <g id="Grupo_17091" data-name="Grupo 17091" transform="translate(8.725 7.332)" style="mix-blend-mode: multiply;isolation: isolate">
          <g id="Grupo_17090" data-name="Grupo 17090" transform="translate(0 0)">
            <rect id="Rectángulo_2864" data-name="Rectángulo 2864" width="9.026" height="8.729" rx="3.645" transform="matrix(0.638, -0.77, 0.77, 0.638, 0, 6.954)" fill="#f1f2f2"/>
          </g>
        </g>
        <g id="Grupo_17093" data-name="Grupo 17093" transform="translate(9.06 7.617)">
          <g id="Grupo_17092" data-name="Grupo 17092">
            <path id="Trazado_31699" data-name="Trazado 31699" d="M793.368,316.632a.7.7,0,0,1,.982-.093l5.65,4.675a.244.244,0,0,1,.078.441l-4.865,5.879a.7.7,0,0,1-.982.093l-5.65-4.675a.244.244,0,0,1-.079-.441Z" transform="translate(-788.394 -316.379)" fill="#dcf2f7"/>
          </g>
        </g>
        <g id="Grupo_17095" data-name="Grupo 17095" transform="translate(9.06 11.549)" style="mix-blend-mode: multiply;isolation: isolate">
          <g id="Grupo_17094" data-name="Grupo 17094">
            <path id="Trazado_31700" data-name="Trazado 31700" d="M788.5,339.119a.244.244,0,0,0,.079.441l5.65,4.676a.7.7,0,0,0,.982-.093l4.865-5.879a.244.244,0,0,0-.078-.441l-1.092-.9c-5.773,8.5-9.913,1.6-9.913,1.6Z" transform="translate(-788.394 -336.92)" fill="#f1f2f2"/>
          </g>
        </g>
      </g>
      <g id="Grupo_17097" data-name="Grupo 17097" transform="translate(13.797 12.531)" style="mix-blend-mode: multiply;isolation: isolate">
        <path id="Trazado_31701" data-name="Trazado 31701" d="M816.4,346.147l6.123-8.73-2.769-2.292h0l-6.137,7.148-.484,1.17Z" transform="translate(-813.136 -335.125)" fill="#f1f2f2"/>
      </g>
      <g id="Grupo_17098" data-name="Grupo 17098" transform="translate(6.563 6.981)" style="mix-blend-mode: multiply;isolation: isolate">
        <path id="Trazado_31702" data-name="Trazado 31702" d="M782.5,306.131l-7.147,7.882,2.5,2.07.831-.46,6.575-7.208Z" transform="translate(-775.348 -306.131)" fill="#f1f2f2"/>
      </g>
      <g id="Grupo_17105" data-name="Grupo 17105" transform="translate(1.707)">
        <g id="Grupo_17100" data-name="Grupo 17100">
          <g id="Grupo_17099" data-name="Grupo 17099">
            <path id="Trazado_31703" data-name="Trazado 31703" d="M776.189,275.1l-6.466-5.178a1.173,1.173,0,0,0-1.648.182l-17.836,22.271a1.173,1.173,0,0,0,.182,1.648l6.466,5.178a1.173,1.173,0,0,0,1.648-.182l17.836-22.271A1.173,1.173,0,0,0,776.189,275.1Z" transform="translate(-749.981 -269.665)" fill="#ace4f2"/>
          </g>
        </g>
        <g id="Grupo_17102" data-name="Grupo 17102" transform="translate(7.486 8.86)">
          <g id="Grupo_17101" data-name="Grupo 17101">
            <path id="Trazado_31704" data-name="Trazado 31704" d="M789.349,322.849a.7.7,0,0,1-.109-.981l4.584-5.724a.244.244,0,0,1,.439-.086l5.956,4.77a.7.7,0,0,1,.109.981l-4.584,5.724a.244.244,0,0,1-.439.086Z" transform="translate(-789.087 -315.952)" fill="#fff"/>
          </g>
        </g>
        <g id="Grupo_17104" data-name="Grupo 17104" transform="translate(11.337 8.86)" style="mix-blend-mode: multiply;isolation: isolate">
          <g id="Grupo_17103" data-name="Grupo 17103">
            <path id="Trazado_31705" data-name="Trazado 31705" d="M811.572,327.619a.244.244,0,0,0,.439-.086l4.584-5.724a.7.7,0,0,0-.109-.981l-5.956-4.77a.244.244,0,0,0-.439.086l-.886,1.106c8.593,5.636,1.764,9.886,1.764,9.886Z" transform="translate(-809.206 -315.952)" fill="#f7f7f7"/>
          </g>
        </g>
      </g>
    </g>
    <g id="Grupo_17113" data-name="Grupo 17113" transform="translate(639.101 121.864)">
      <g id="Grupo_17108" data-name="Grupo 17108" transform="translate(0.723 0.243)">
        <g id="Grupo_17107" data-name="Grupo 17107">
          <path id="Trazado_31706" data-name="Trazado 31706" d="M2102.785,252.465a2.84,2.84,0,1,0-2.305-3.289A2.84,2.84,0,0,0,2102.785,252.465Z" transform="translate(-2100.437 -246.828)" fill="#bcbec0"/>
        </g>
      </g>
      <g id="Grupo_17110" data-name="Grupo 17110" transform="translate(0 0)">
        <g id="Grupo_17109" data-name="Grupo 17109">
          <path id="Trazado_31707" data-name="Trazado 31707" d="M2102.194,249.3a2.84,2.84,0,1,0-3.593,1.8A2.84,2.84,0,0,0,2102.194,249.3Z" transform="translate(-2096.659 -245.56)" fill="#fff"/>
        </g>
      </g>
      <g id="Grupo_17112" data-name="Grupo 17112" transform="translate(1.658 0.066)">
        <g id="Grupo_17111" data-name="Grupo 17111">
          <path id="Trazado_31708" data-name="Trazado 31708" d="M2105.318,251.26a2.741,2.741,0,0,0,.58.194l.893-2.678.894-2.678a2.757,2.757,0,0,0-.58-.194l-.893,2.678Z" transform="translate(-2105.318 -245.904)" fill="#d7d8d9"/>
        </g>
      </g>
    </g>
    <g id="Grupo_17120" data-name="Grupo 17120" transform="translate(338.999 288.993)">
      <g id="Grupo_17115" data-name="Grupo 17115" transform="translate(0.469)">
        <g id="Grupo_17114" data-name="Grupo 17114">
          <path id="Trazado_31709" data-name="Trazado 31709" d="M536.05,1122.666a2.569,2.569,0,1,0-3.57.674A2.569,2.569,0,0,0,536.05,1122.666Z" transform="translate(-531.359 -1118.648)" fill="#bcbec0"/>
        </g>
      </g>
      <g id="Grupo_17117" data-name="Grupo 17117" transform="translate(0 0.506)">
        <g id="Grupo_17116" data-name="Grupo 17116">
          <path id="Trazado_31710" data-name="Trazado 31710" d="M533.222,1121.973a2.569,2.569,0,1,0,.141,3.63A2.569,2.569,0,0,0,533.222,1121.973Z" transform="translate(-528.909 -1121.29)" fill="#fff"/>
        </g>
      </g>
      <g id="Grupo_17119" data-name="Grupo 17119" transform="translate(0.507 1.137)">
        <g id="Grupo_17118" data-name="Grupo 17118">
          <path id="Trazado_31711" data-name="Trazado 31711" d="M535.3,1128.464a2.687,2.687,0,0,0,.2-.193,2.606,2.606,0,0,0,.177-.214l-1.874-1.734-1.874-1.734a2.513,2.513,0,0,0-.2.193,2.557,2.557,0,0,0-.177.213l1.874,1.734Z" transform="translate(-531.556 -1124.589)" fill="#d7d8d9"/>
        </g>
      </g>
    </g>
    <g id="Grupo_17127" data-name="Grupo 17127" transform="translate(650.699 121.404)">
      <g id="Grupo_17122" data-name="Grupo 17122" transform="translate(0.394)">
        <g id="Grupo_17121" data-name="Grupo 17121">
          <path id="Trazado_31712" data-name="Trazado 31712" d="M2168.612,248.626a4.684,4.684,0,1,0-5.4,3.829A4.683,4.683,0,0,0,2168.612,248.626Z" transform="translate(-2159.311 -243.153)" fill="#bcbec0"/>
        </g>
      </g>
      <g id="Grupo_17124" data-name="Grupo 17124" transform="translate(0 1.194)">
        <g id="Grupo_17123" data-name="Grupo 17123">
          <path id="Trazado_31713" data-name="Trazado 31713" d="M2163.395,249.623a4.684,4.684,0,1,0,2.991,5.91A4.683,4.683,0,0,0,2163.395,249.623Z" transform="translate(-2157.25 -249.389)" fill="#fff"/>
        </g>
      </g>
      <g id="Grupo_17126" data-name="Grupo 17126" transform="translate(0.104 3.948)">
        <g id="Grupo_17125" data-name="Grupo 17125">
          <path id="Trazado_31714" data-name="Trazado 31714" d="M2166.64,267.639a4.779,4.779,0,0,0,.184-.47,4.667,4.667,0,0,0,.131-.488l-4.424-1.451-4.424-1.451a4.8,4.8,0,0,0-.183.47,4.674,4.674,0,0,0-.131.488l4.424,1.451Z" transform="translate(-2157.793 -263.779)" fill="#e6e7e8"/>
        </g>
      </g>
    </g>
    <g id="Grupo_17134" data-name="Grupo 17134" transform="translate(338.677 307.071)">
      <g id="Grupo_17129" data-name="Grupo 17129" transform="translate(0.738)">
        <g id="Grupo_17128" data-name="Grupo 17128">
          <path id="Trazado_31715" data-name="Trazado 31715" d="M540.816,1220.261a5.09,5.09,0,1,0-6.726,2.564A5.09,5.09,0,0,0,540.816,1220.261Z" transform="translate(-531.08 -1213.089)" fill="#bcbec0"/>
        </g>
      </g>
      <g id="Grupo_17131" data-name="Grupo 17131" transform="translate(0 1.15)">
        <g id="Grupo_17130" data-name="Grupo 17130">
          <path id="Trazado_31716" data-name="Trazado 31716" d="M529.789,1219.769a5.09,5.09,0,1,0,6.945,1.892A5.09,5.09,0,0,0,529.789,1219.769Z" transform="translate(-527.225 -1219.097)" fill="#fff"/>
        </g>
      </g>
      <g id="Grupo_17133" data-name="Grupo 17133" transform="translate(0.426 3.254)">
        <g id="Grupo_17132" data-name="Grupo 17132">
          <path id="Trazado_31717" data-name="Trazado 31717" d="M538.781,1231.039a4.935,4.935,0,0,0-.544-.951l-4.392,2.511-4.392,2.512a4.943,4.943,0,0,0,.544.951l4.392-2.511Z" transform="translate(-529.453 -1230.087)" fill="#d7d8d9"/>
        </g>
      </g>
    </g>
    <g id="Grupo_17135" data-name="Grupo 17135" transform="translate(327.209 256.775)">
      <path id="Trazado_31718" data-name="Trazado 31718" d="M480.044,950.373l-10.239,1.551a2.923,2.923,0,0,0-2.452,3.327h0a2.923,2.923,0,0,0,3.328,2.452l10.239-1.55a2.923,2.923,0,0,0,2.452-3.328h0A2.923,2.923,0,0,0,480.044,950.373Z" transform="translate(-467.32 -950.34)" fill="#fff"/>
      <path id="Trazado_31719" data-name="Trazado 31719" d="M515.025,952.826h0a2.923,2.923,0,0,0-3.328-2.453l-5.231.792.987,5.763,5.119-.775A2.923,2.923,0,0,0,515.025,952.826Z" transform="translate(-498.973 -950.34)" fill="#ff4f3b"/>
    </g>
    <g id="Grupo_17136" data-name="Grupo 17136" transform="translate(337.032 240.266)">
      <path id="Trazado_31720" data-name="Trazado 31720" d="M519.471,869.064l7.249,7.395a2.923,2.923,0,0,0,4.133.041h0a2.923,2.923,0,0,0,.041-4.133l-7.249-7.395a2.923,2.923,0,0,0-4.133-.041h0A2.923,2.923,0,0,0,519.471,869.064Z" transform="translate(-518.635 -864.095)" fill="#fff"/>
      <path id="Trazado_31721" data-name="Trazado 31721" d="M519.512,864.93h0a2.923,2.923,0,0,0-.041,4.133l3.7,3.778,4.1-4.173-3.625-3.7A2.923,2.923,0,0,0,519.512,864.93Z" transform="translate(-518.635 -864.095)" fill="#2f86b5"/>
    </g>
    <g id="Grupo_17137" data-name="Grupo 17137" transform="translate(350.971 275.677)">
      <path id="Trazado_31722" data-name="Trazado 31722" d="M600.24,1049.809l-7.79,6.823a2.923,2.923,0,0,0-.273,4.125h0a2.923,2.923,0,0,0,4.125.273l7.79-6.823a2.923,2.923,0,0,0,.273-4.125h0A2.923,2.923,0,0,0,600.24,1049.809Z" transform="translate(-591.453 -1049.085)" fill="#fff"/>
      <path id="Trazado_31723" data-name="Trazado 31723" d="M624.672,1050.082h0a2.923,2.923,0,0,0-4.125-.273l-3.979,3.486,3.936,4.323,3.895-3.411A2.923,2.923,0,0,0,624.672,1050.082Z" transform="translate(-611.76 -1049.085)" fill="#2f86b5"/>
    </g>
    <g id="Grupo_17138" data-name="Grupo 17138" transform="translate(614.102 119.077)">
      <path id="Trazado_31724" data-name="Trazado 31724" d="M1976.415,241.518l-4.915-9.008a2.9,2.9,0,0,0-3.93-1.155h0a2.9,2.9,0,0,0-1.155,3.93l4.915,9.008a2.9,2.9,0,0,0,3.93,1.155h0A2.9,2.9,0,0,0,1976.415,241.518Z" transform="translate(-1966.06 -231)" fill="#fff"/>
      <path id="Trazado_31725" data-name="Trazado 31725" d="M1987.138,270.438h0a2.9,2.9,0,0,0,1.156-3.93l-2.511-4.6-5.032,2.872,2.458,4.5A2.9,2.9,0,0,0,1987.138,270.438Z" transform="translate(-1977.939 -255.99)" fill="#ff4f3b"/>
    </g>
    <g id="Grupo_17139" data-name="Grupo 17139" transform="translate(666.706 162.698)">
      <path id="Trazado_31726" data-name="Trazado 31726" d="M2246.578,472.434l2.485-9.956a2.9,2.9,0,0,0-2.109-3.512h0a2.9,2.9,0,0,0-3.511,2.109l-2.486,9.956a2.9,2.9,0,0,0,2.109,3.512h0A2.9,2.9,0,0,0,2246.578,472.434Z" transform="translate(-2240.871 -458.879)" fill="#fff"/>
      <path id="Trazado_31727" data-name="Trazado 31727" d="M2243.066,504.845h0a2.9,2.9,0,0,0,3.512-2.109l1.27-5.086-5.648-1.295-1.243,4.978A2.9,2.9,0,0,0,2243.066,504.845Z" transform="translate(-2240.871 -489.181)" fill="#2f86b5"/>
    </g>
    <g id="Grupo_17142" data-name="Grupo 17142" transform="translate(525.788 260.319)">
      <g id="Grupo_17141" data-name="Grupo 17141" transform="translate(0 0)">
        <g id="Grupo_17140" data-name="Grupo 17140">
          <path id="Trazado_31728" data-name="Trazado 31728" d="M1547.018,1242.586l.882,6.284s-2.021,2.168-1.8,6.651,4.594,18.889,4.594,18.889h1.286s-.037-24.842.882-32.963-3.9.184-3.9.184Z" transform="translate(-1538.161 -1186.386)" fill="#ffd3cf"/>
          <path id="Trazado_31729" data-name="Trazado 31729" d="M1589.07,1242.586l.882,6.284s-2.021,2.168-1.8,6.651,4.594,18.889,4.594,18.889h1.286s-.037-24.842.882-32.963-3.9.184-3.9.184Z" transform="translate(-1572.163 -1186.386)" fill="#ffd3cf"/>
          <path id="Trazado_31730" data-name="Trazado 31730" d="M1609.474,1428.718a2.417,2.417,0,0,0-.629,1.845,18.99,18.99,0,0,0,.7,3.234h.306a18.681,18.681,0,0,1,.141-2.606,20.513,20.513,0,0,1,1.051,2.606h3.325a2.525,2.525,0,0,0-1.837-1.348,6.79,6.79,0,0,0-1.787-3.731Z" transform="translate(-1588.907 -1340.69)" fill="#c73e2d"/>
          <path id="Trazado_31731" data-name="Trazado 31731" d="M1615.207,1431.193a6.793,6.793,0,0,0-1.787-3.731c-.542-.386-.973-.406-1.274,0C1612.146,1427.463,1613.767,1431.177,1615.207,1431.193Z" transform="translate(-1591.579 -1339.434)" fill="#ffd3cf"/>
          <path id="Trazado_31732" data-name="Trazado 31732" d="M1567.5,1428.718a2.417,2.417,0,0,0-.629,1.845,18.99,18.99,0,0,0,.7,3.234h.306a18.681,18.681,0,0,1,.141-2.606,20.488,20.488,0,0,1,1.051,2.606h3.325a2.524,2.524,0,0,0-1.836-1.348,6.789,6.789,0,0,0-1.787-3.731Z" transform="translate(-1554.967 -1340.69)" fill="#c73e2d"/>
          <path id="Trazado_31733" data-name="Trazado 31733" d="M1573.232,1431.194a6.79,6.79,0,0,0-1.787-3.731.831.831,0,0,0-1.274,0S1571.792,1431.177,1573.232,1431.194Z" transform="translate(-1557.639 -1339.435)" fill="#ffd3cf"/>
          <path id="Trazado_31734" data-name="Trazado 31734" d="M1547.822,1144.446l-1.351,1.746s-10.694,1.047-6.821,23.1h16.4s1.378-15.177-2.085-22.6l-5.113-2.5Z" transform="translate(-1532.277 -1110.626)" fill="#1b6085"/>
          <path id="Trazado_31735" data-name="Trazado 31735" d="M1563.514,1069.286l.641-.3,3.252,1.158,3.5,4.768s.442,2.7-2.935,3.859l-1.53,7.111-7.5-.5-2.7-9.123-2.012-4.741,4.107-2.2Z" transform="translate(-1544.752 -1049.816)" fill="#9bd5f2"/>
          <path id="Trazado_31736" data-name="Trazado 31736" d="M1611.6,1075.8l.744-.771s6.863,4.961,8.82,6.284c0,0-2.725,6.851-9.7,9.062l-1.655-.931,2.238-1.778a34.523,34.523,0,0,0,3.817-4.963l-2.224-1.5s-2.15-2.343-2.177-2.453S1611.6,1075.8,1611.6,1075.8Z" transform="translate(-1589.69 -1054.705)" fill="#9bd5f2"/>
          <path id="Trazado_31737" data-name="Trazado 31737" d="M1569.1,1146.731l2.447-1.152,2.274,1.508s.925,2.514.657,2.742-.405-.114-.405-.114.251.5.068.663-.594-.457-.594-.457.206.64-.046.663-.354-.731-.354-.731-.24.686-.446.366a3.309,3.309,0,0,1-1.154-2.136,3.671,3.671,0,0,1-2.54-.092Z" transform="translate(-1556.695 -1111.75)" fill="#ffd3cf"/>
          <path id="Trazado_31738" data-name="Trazado 31738" d="M1593.624,1068.328l.51.014,1.543,7.69-3.905-6.9-.463-.946Z" transform="translate(-1574.73 -1049.175)" fill="#fff"/>
          <path id="Trazado_31739" data-name="Trazado 31739" d="M1579.828,1041.005l.469,4.81s.22,1.846-3,.565-3.1-2.673-3.1-2.673l3.413-3.376Z" transform="translate(-1560.893 -1026.648)" fill="#ffd3cf"/>
          <path id="Trazado_31740" data-name="Trazado 31740" d="M1587.463,1041.288l.512,1.189a5.47,5.47,0,0,0,2.868,1.576l-.288-2.954-2.146-.653-.1.007Z" transform="translate(-1571.621 -1026.742)" fill="#f5b9b5"/>
          <path id="Trazado_31741" data-name="Trazado 31741" d="M1581.4,989.457s2.168,1.8,2.609,6.982l-1.3.184s.753,3.013-1.782,4.006-6.137-1.727-6.137-1.727l-.588-5.733,4.906-3.16Z" transform="translate(-1560.896 -985.513)" fill="#ffd3cf"/>
          <path id="Trazado_31742" data-name="Trazado 31742" d="M1509.636,1092.02l-4.934,4.355s2.458,6.754,12.309,8.4l.181-1.565a17.221,17.221,0,0,1-4.731-5.632l6.725-3.225Z" transform="translate(-1504.703 -1068.443)" fill="#9bd5f2"/>
          <path id="Trazado_31743" data-name="Trazado 31743" d="M1538.462,975.314a3.9,3.9,0,0,0,1.011-3.73c-.514-2.425-1.617-3.344-4.8-2.315s-5.053-.294-8.213,2.793-1.323,6.1-1.691,8.783-3.73,3.392-5.3,8.333c-1.176,3.708.973,3.9.221,5.978a3.163,3.163,0,0,0,2.467,4.385c1.948.23,3.67-.995,4.7-2.869s1.511-3.847,4.414-5.427,2.849-4.944,1.571-7.562a4.861,4.861,0,0,1,0-4.6l.634-1.121a6.063,6.063,0,0,0,4.564-3.532Z" transform="translate(-1516.358 -968.853)" fill="#0f3447"/>
          <path id="Trazado_31744" data-name="Trazado 31744" d="M1585.756,1012.728s-.661-1.486-1.58-.587-.22,3.4,1.36,3.178.7-1.4.7-1.4Z" transform="translate(-1568.632 -1003.621)" fill="#ffd3cf"/>
          <path id="Trazado_31745" data-name="Trazado 31745" d="M1612.586,1148.924c.262.963.747,1.748-.685,2.248s-.373-.8-.373-.8-1.151,1.02-1.351.619,1.3-1.437,1.3-1.437-1.684.7-1.664.214,1.83-1.2,1.83-1.2-1.587.408-1.493.048S1611.879,1146.333,1612.586,1148.924Z" transform="translate(-1589.69 -1113.377)" fill="#ffd3cf"/>
        </g>
        <path id="Trazado_31746" data-name="Trazado 31746" d="M1556.272,1179.007c-2.743,1.916-6.241,3.21-9.953,1.651-8.344-3.5-2.674-19.6-2.674-19.6-2.858,2.054-6.519,7.5-4,21.87h16.4S1556.194,1181.367,1556.272,1179.007Z" transform="translate(-1532.277 -1124.265)" fill="#154a66"/>
      </g>
      <path id="Trazado_31747" data-name="Trazado 31747" d="M1552.775,1275.309l.166,1.178a5.473,5.473,0,0,1,4.924.984c.036-.769.076-1.469.118-2.162Z" transform="translate(-1543.573 -1216.647)" fill="#f5b9b5"/>
      <path id="Trazado_31748" data-name="Trazado 31748" d="M1600.031,1275.309h-5.2l.109.777a4.968,4.968,0,0,1,4.956,1.9c.042-.945.089-1.843.14-2.68Z" transform="translate(-1577.574 -1216.647)" fill="#f5b9b5"/>
    </g>
  </g>
</svg>
