<svg xmlns="http://www.w3.org/2000/svg" width="422.917" height="359.845" viewBox="0 0 422.917 359.845">
  <g id="Grupo_18815" data-name="Grupo 18815" transform="translate(-154.223 -67.507)">
    <ellipse id="Elipse_1110" data-name="Elipse 1110" cx="168.199" cy="168.04" rx="168.199" ry="168.04" transform="translate(206.044 91.272)" fill="#e9bb77"/>
    <g id="Grupo_18812" data-name="Grupo 18812">
      <path id="Trazado_35033" data-name="Trazado 35033" d="M417.216,158.878s9.847,28.106,8.44,36.07-18.328,33.672-31.006,33.5-26.3-28.985-26.3-28.985Z" fill="#373061" fill-rule="evenodd"/>
      <path id="Trazado_35034" data-name="Trazado 35034" d="M337.863,130.649l-.235,8.2,7.18,12.749s.557,7.629,8.059,20.511,11.019,18.5,9.612,22.485c-14.874,42.1-63.912,37.684-55.213,26.234a64.308,64.308,0,0,0,17.543-51.255h0a12.376,12.376,0,0,0,7.751-23.108Z" fill="#373061" fill-rule="evenodd"/>
      <path id="Trazado_35035" data-name="Trazado 35035" d="M335.227,229.409s-21.034.551-26.543,14.4c-2.92,7.337-19.719,49.273-28.572,73.684-18.779,51.787,16.611,78.643,36,33.352l-4.165-19.826,37.923-88.933Z" fill="#e6b5a3" fill-rule="evenodd"/>
      <path id="Trazado_35036" data-name="Trazado 35036" d="M322.084,232.082c-1.448.51-4.424.646-11.729,7.132s-14.2,31.889-19.071,43.781S275.6,322.723,273.7,331.912s-7.3,37.023,8.385,41.078,22.183-.271,28.4-8.108,42.464-113.569,42.464-113.569Z" fill="#fff" fill-rule="evenodd"/>
      <path id="Trazado_35037" data-name="Trazado 35037" d="M380.846,158.253h0a23.139,23.139,0,0,1,24.419,21.635l1.948,32.442a23.132,23.132,0,0,1-21.654,24.4h0a23.139,23.139,0,0,1-24.421-21.634l-1.948-32.442A23.133,23.133,0,0,1,380.846,158.253Z" fill="#d68982" fill-rule="evenodd"/>
      <path id="Trazado_35038" data-name="Trazado 35038" d="M407.232,214.765l51.822,13.8s-13.857,32.7-.285,80.1c0,0-21.04,69.286-21.692,76.289s4.008,13.15,4.23,16.888-3.386,6.094-3.7,9.862a17.089,17.089,0,0,0,.508,3.112,168.855,168.855,0,0,1-129.069-.559c1.128-3.877,1.809-6.2,1.809-6.2a53.183,53.183,0,0,1-.991-6.435c-.055-2.005,2.672-5.718,2.672-5.718s-15.069-81.253-15.5-88.457,14.722-27.133,21.924-36.67,12.4-47.881,12.4-47.881l29.776-7.8S378.3,232.126,407.232,214.765Z" fill="#6082a4" fill-rule="evenodd"/>
      <path id="Trazado_35039" data-name="Trazado 35039" d="M411.005,297.19s-.293,34.866-36.035,32.474c-11.633-.779-23.015-1.649-33.08-2.468-14.839-1.164-10.4-11.874-10.4-11.874l24.355-63.945L351.9,247.19,328.444,258.6l-12.251,66.387c-6.5-.588-10.369-.965-10.369-.965s-3.606-.3-7.015-4.672h0c1.518,9.119,3.813,22.075,6.094,34.742,31.392.944,82.079.871,82.079.871s11.158-1.014,23.326,12.157c9.183,9.94,23.559,24.636,30.066,31.251-1.391-3.6-3.772-8.283-3.3-13.421.652-7,21.692-76.289,21.692-76.289A152.124,152.124,0,0,1,453,274.533L417.91,337.485l-6.9-40.295Zm13.751-77.758,20.156,5.367c-23,16.448-44.181,7.477-44.181,7.477l14.971-8.684S419.465,221.787,424.756,219.432Z" fill="#4d6a99" fill-rule="evenodd"/>
      <path id="Trazado_35040" data-name="Trazado 35040" d="M459.054,228.565S475.6,236.8,475.027,258.2s-21.709,60.008-34.645,96.47c-.941,2.018.342-7-20.078-13.283s-18-16.635-18-16.635l22.334-70.765S433.142,221.665,459.054,228.565Z" fill="#e6b5a3" fill-rule="evenodd"/>
      <path id="Trazado_35041" data-name="Trazado 35041" d="M354.686,217.072a1.195,1.195,0,1,1,2.1-1.132c.021.038,6.72,13.1,25.869,12.414a46.972,46.972,0,0,0,30.684-12.566,1.194,1.194,0,0,1,1.713,1.663,49.546,49.546,0,0,1-32.313,13.288C362.081,231.481,354.706,217.113,354.686,217.072Z" fill="#4d6a99" fill-rule="evenodd"/>
      <path id="Trazado_35042" data-name="Trazado 35042" d="M318.7,273.083a1.195,1.195,0,0,1-1.75-1.627c.048-.052,16.871-18.11,21.028-27.029a1.2,1.2,0,0,1,2.171,1.009C335.839,254.686,318.748,273.03,318.7,273.083Z" fill="#4d6a99" fill-rule="evenodd"/>
      <path id="Trazado_35043" data-name="Trazado 35043" d="M345.309,336.436a1.2,1.2,0,1,1-2.228.869c-.015-.039-5.42-13.986-3.986-21.764,1.4-7.579,10.862-30.28,10.889-30.345a1.2,1.2,0,1,1,2.208.916c-.027.063-9.4,22.543-10.749,29.859C340.132,323.086,345.294,336.4,345.309,336.436Z" fill="#4d6a99" fill-rule="evenodd"/>
      <path id="Trazado_35044" data-name="Trazado 35044" d="M309.727,408.432a1.2,1.2,0,0,1,2.265-.766l3.073,8.98q-1.461-.549-2.912-1.125Z" fill="#4d6a99" fill-rule="evenodd"/>
      <path id="Trazado_35045" data-name="Trazado 35045" d="M328.774,157.74c-.3.072-.6.153-.886.246l-.01,0h0a12.391,12.391,0,1,0,10.54,1.421c.687,3.6.57,8.158-4.026,9.086l-.6-7.112C333.557,158.505,330.739,157.458,328.774,157.74Z" fill="#d68982" fill-rule="evenodd"/>
      <path id="Trazado_35046" data-name="Trazado 35046" d="M414.682,148c.307.009.615.029.917.06l.01,0h0a12.388,12.388,0,1,1-10.03,3.531c.057,3.666,1.1,8.106,5.79,8.079l-.866-7.085C410.153,149.721,412.7,148.124,414.682,148Z" fill="#d68982" fill-rule="evenodd"/>
      <path id="Trazado_35047" data-name="Trazado 35047" d="M361.808,92.283h0a42.505,42.505,0,0,0-37.858,46.479l3.941,38.337a42.529,42.529,0,0,0,46.526,37.82h0A42.509,42.509,0,0,0,412.27,168.44L408.327,130.1A42.524,42.524,0,0,0,361.808,92.283Z" fill="#e7baa8" fill-rule="evenodd"/>
      <path id="Trazado_35048" data-name="Trazado 35048" d="M358.187,170.19c1.078,2.876,2.96,8.085,2.808,8.968-.212,1.231-6.465,2.469-8.122.881-1.1-1.058.217-5.805,1.38-9.005C355.84,166.672,356.737,166.319,358.187,170.19Z" fill="#f0d3c8" fill-rule="evenodd"/>
      <path id="Trazado_35049" data-name="Trazado 35049" d="M386.862,97.515a42.14,42.14,0,0,0-22.816-5.4l-34.072,50.457s.358,21.923,11.984,17.51c22.2-8.424,29.876-36.465,48.768-35.714C400.628,111.487,395.165,102.927,386.862,97.515Z" fill="#d68982" fill-rule="evenodd"/>
      <path id="Trazado_35050" data-name="Trazado 35050" d="M406.541,179.811a.522.522,0,1,1-.97-.386c0-.01,1.666-3.939,2.693-13.122.521-4.678.965-7.512,1.671-9.32a5.44,5.44,0,0,1,1.4-2.165,16.951,16.951,0,0,0-.123,1.708l-.005.178a6.6,6.6,0,0,0-.3.659c-.667,1.71-1.1,4.473-1.609,9.053-1.041,9.336-2.752,13.385-2.759,13.4Zm9.174-7.143c-.362.042-.721.067-1.08.077-.719,2.793-1.854,5.219-3.52,6.655a.521.521,0,0,0,.68.789C413.687,178.56,414.947,175.8,415.715,172.668Z" fill="#fff" fill-rule="evenodd"/>
      <path id="Trazado_35051" data-name="Trazado 35051" d="M384.761,174.293a9.312,9.312,0,1,0,10.064,8.506A9.318,9.318,0,0,0,384.761,174.293Z" fill="#d68982" fill-rule="evenodd"/>
      <path id="Trazado_35052" data-name="Trazado 35052" d="M339.8,177.993a9.311,9.311,0,1,0,10.067,8.5A9.314,9.314,0,0,0,339.8,177.993Z" fill="#d68982" fill-rule="evenodd"/>
      <path id="Trazado_35053" data-name="Trazado 35053" d="M333.485,158.385a1.549,1.549,0,0,1-1.666-2.611c3.773-2.462,9.077-3.245,13.225-1.3a1.55,1.55,0,1,1-1.315,2.807C340.4,155.718,336.508,156.541,333.485,158.385Z" fill="#1a103a" fill-rule="evenodd"/>
      <path id="Trazado_35054" data-name="Trazado 35054" d="M386.289,153.381c-3.029-1.842-6.92-2.66-10.255-1.1a1.549,1.549,0,1,1-1.314-2.8c4.144-1.948,9.448-1.172,13.219,1.282a1.547,1.547,0,1,1-1.65,2.618Z" fill="#373061" fill-rule="evenodd"/>
      <path id="Trazado_35055" data-name="Trazado 35055" d="M329.621,185.472l18.441-9.282s11.53-5.174,27-.362,29.517,2.706,32.583-.039c0,0,3.349-2.827,4.557,1.892s-2.559,19.008-14.826,30.539-23.331,10.208-33.854,10.134-31.162-17.926-34.533-30.536a5.923,5.923,0,0,1,.179-3.876Z" fill="#fff" fill-rule="evenodd"/>
      <path id="Trazado_35056" data-name="Trazado 35056" d="M411.426,160.23a16.31,16.31,0,0,1-9.524-17.085c-10.938-.757-24.673-16.389-14.275-29.252-15.672-5.067-20.023,18.522-29.068,30.334-26.56,34.684-68.459,21.5-62.451-19.506,7.989-54.506,93.8-77.173,106.774-36.257,40.013-2.883,25.348,45.738,29.61,66.177l-7.166.066s-3.656-6.207-9.621-5.61S411.426,160.23,411.426,160.23Z" fill="#373061" fill-rule="evenodd"/>
      <path id="Trazado_35057" data-name="Trazado 35057" d="M384.817,166.261a1.161,1.161,0,0,1,.606.758.451.451,0,0,0,.539.337.445.445,0,0,0,.334-.536,1.954,1.954,0,0,0-.662-1.069l.027-.02a2.118,2.118,0,0,1,.955.987.447.447,0,0,0,.593.221.452.452,0,0,0,.222-.593,2.906,2.906,0,0,0-1.051-1.216l.007-.007a2.784,2.784,0,0,1,1.194.754.447.447,0,1,0,.654-.61,3.6,3.6,0,0,0-1.213-.859l-1.533.122Z" fill="#373061" fill-rule="evenodd"/>
      <path id="Trazado_35058" data-name="Trazado 35058" d="M376.512,163.914a1.563,1.563,0,1,0-1.353,2.817,11.272,11.272,0,0,0,11.454-1.468,1.563,1.563,0,1,0-1.926-2.461A8.02,8.02,0,0,1,376.512,163.914Z" fill="#373061" fill-rule="evenodd"/>
      <path id="Trazado_35059" data-name="Trazado 35059" d="M334.406,169.284a1.149,1.149,0,0,0-.514.825.447.447,0,1,1-.89-.094,1.953,1.953,0,0,1,.529-1.14l-.029-.018a2.112,2.112,0,0,0-.827,1.1.448.448,0,0,1-.854-.273,2.893,2.893,0,0,1,.9-1.333l-.007-.006a2.785,2.785,0,0,0-1.1.892.448.448,0,0,1-.722-.529,3.609,3.609,0,0,1,1.1-1l1.536-.061Z" fill="#373061" fill-rule="evenodd"/>
      <path id="Trazado_35060" data-name="Trazado 35060" d="M342.369,165.961a1.563,1.563,0,1,1,1.681,2.635,11.276,11.276,0,0,1-11.549-.09,1.562,1.562,0,1,1,1.619-2.672A8.024,8.024,0,0,0,342.369,165.961Z" fill="#373061" fill-rule="evenodd"/>
      <path id="Trazado_35061" data-name="Trazado 35061" d="M335.791,195.1s-14.852,6.512-18.022,8.755-4.437,6.7-1.748,16.182,7.716,21.889,7.645,25.323c-.3,14.451-27.6,56.868-42.057,79.054-23.248,35.682,19.1,70.372,34.133,24.068l19.164-59.05-.006-.064c5.021-14.8,12.73-39.1,13.108-40.152.44-1.233,4.851-5.876,6.094-8.776s.433-14.4.531-15.669,4.363-4.1,4.925-5.582.143-4.386-.077-5.263-4.183-2.837-4.183-2.837-2.453-5.031-3.881-5.553a9.392,9.392,0,0,0-3.452-.329s-2.122-5.166-3.6-5.883a8.172,8.172,0,0,0-3.745-.461S339.022,194.554,335.791,195.1Z" fill="#e7baa8" fill-rule="evenodd"/>
      <path id="Trazado_35062" data-name="Trazado 35062" d="M340,273.992c3.967-12.155,7.747-24.04,8.009-24.771.44-1.233,4.851-5.876,6.094-8.776a16.22,16.22,0,0,0,.661-4.829l-3.395-9.694-21.554-2.812Z" fill="#d68982" fill-rule="evenodd"/>
      <path id="Trazado_35063" data-name="Trazado 35063" d="M340.319,198.22a.716.716,0,1,1,.607,1.3l-12.34,5.778a.716.716,0,1,1-.607-1.3Z" fill="#d68982" fill-rule="evenodd"/>
      <path id="Trazado_35064" data-name="Trazado 35064" d="M347.62,204.583a.717.717,0,0,1,.691,1.257l-11.437,6.278a.717.717,0,1,1-.69-1.256Z" fill="#d68982" fill-rule="evenodd"/>
      <path id="Trazado_35065" data-name="Trazado 35065" d="M354.935,210.477a.716.716,0,1,1,.725,1.234l-9.937,5.851a.716.716,0,0,1-.725-1.234Z" fill="#d68982" fill-rule="evenodd"/>
      <path id="Trazado_35066" data-name="Trazado 35066" d="M354.636,223.328a.715.715,0,0,1,1.162.835c-.01.015-3.767,5.178-4.462,7.126a.718.718,0,0,1-1.354-.476C350.749,228.666,354.625,223.343,354.636,223.328Z" fill="#d68982" fill-rule="evenodd"/>
      <path id="Trazado_35067" data-name="Trazado 35067" d="M348.145,247.622a.715.715,0,1,1,1.1.915c-.007.009-2.689,3.33-9.08,2.5a.715.715,0,1,1,.18-1.419C345.949,250.345,348.14,247.63,348.145,247.622Z" fill="#d68982" fill-rule="evenodd"/>
      <path id="Trazado_35068" data-name="Trazado 35068" d="M335.583,289.669a.715.715,0,1,1-1.352-.465c3.5-10.083,8.85-26.89,11.5-35.229.915-2.874,1.516-4.764,1.6-5a17.363,17.363,0,0,1,2.214-3.142,31.9,31.9,0,0,0,3.9-5.673.718.718,0,0,1,1.321.561,32.481,32.481,0,0,1-4.091,6,18.7,18.7,0,0,0-1.987,2.739c-.125.351-.7,2.171-1.587,4.944C344.446,262.747,339.1,279.559,335.583,289.669Z" fill="#d68982" fill-rule="evenodd"/>
      <path id="Trazado_35069" data-name="Trazado 35069" d="M349.537,193.613s16.583,3.779,20.292,5.465,5.9,6.029,5,16.323-3.629,24.069-2.877,27.592c3.168,14.824,39.661,53.136,58.932,73.14,30.994,32.175-5.78,76.255-30.4,31.521l-31.4-57.048-.006-.066c-8.09-14.253-20.832-37.765-21.428-38.777-.7-1.183-6.159-5.1-8.011-7.839s-3.29-14.748-3.641-16.035-5.3-3.358-6.174-4.779-1.016-4.489-.962-5.436,3.749-3.747,3.749-3.747,1.534-5.667,2.9-6.486a9.844,9.844,0,0,1,3.49-1.019s1.168-5.739,2.546-6.769a8.565,8.565,0,0,1,3.768-1.213S346.1,193.682,349.537,193.613Z" fill="#e7baa8" fill-rule="evenodd"/>
      <path id="Trazado_35070" data-name="Trazado 35070" d="M345.128,199.135a.717.717,0,1,1,.352-1.391l13.852,3.521a.718.718,0,1,1-.353,1.391Z" fill="#d68982" fill-rule="evenodd"/>
      <path id="Trazado_35071" data-name="Trazado 35071" d="M338.773,207.1a.716.716,0,1,1,.439-1.363l13.019,4.212a.716.716,0,1,1-.437,1.363Z" fill="#d68982" fill-rule="evenodd"/>
      <path id="Trazado_35072" data-name="Trazado 35072" d="M332.359,214.6a.718.718,0,1,1,.483-1.352l11.392,4.068a.717.717,0,1,1-.482,1.351Z" fill="#d68982" fill-rule="evenodd"/>
      <path id="Trazado_35073" data-name="Trazado 35073" d="M334.693,227.467a.717.717,0,0,1,.979-1.049c.014.013,5.054,4.732,6.265,6.789a.715.715,0,1,1-1.234.724C339.6,232.06,334.709,227.48,334.693,227.467Z" fill="#d68982" fill-rule="evenodd"/>
      <path id="Trazado_35074" data-name="Trazado 35074" d="M346.245,251.27a.715.715,0,1,1,.921-1.094c.008.007,2.807,2.376,8.455.519a.718.718,0,1,1,.449,1.363C349.665,254.166,346.255,251.279,346.245,251.27Z" fill="#d68982" fill-rule="evenodd"/>
      <path id="Trazado_35075" data-name="Trazado 35075" d="M369.694,290.249a.715.715,0,1,1-1.24.713c-5.664-9.806-14.458-26.007-18.823-34.048-1.5-2.765-2.485-4.581-2.609-4.79a20.007,20.007,0,0,0-2.6-2.437,34.064,34.064,0,0,1-5.39-5.36.718.718,0,0,1,1.19-.8,33.138,33.138,0,0,0,5.139,5.081,18.008,18.008,0,0,1,2.893,2.8c.205.347,1.17,2.123,2.638,4.828C355.289,264.328,364.146,280.643,369.694,290.249Z" fill="#d68982" fill-rule="evenodd"/>
      <path id="Trazado_35076" data-name="Trazado 35076" d="M317.427,203.374a.595.595,0,1,1,.686.972,6.938,6.938,0,0,0-2.824,4.975c-.365,2.5-.014,5.906,1.306,10.56,1.059,3.734,2.491,7.947,3.826,11.878,2.055,6.046,3.888,11.437,3.842,13.617-.156,7.342-7.09,21.653-15.8,36.909-8.68,15.2-19.123,31.359-26.355,42.458a.6.6,0,1,1-1-.651c7.221-11.086,17.654-27.228,26.315-42.4,8.627-15.11,15.5-29.235,15.645-36.342.041-1.966-1.76-7.267-3.781-13.212-1.34-3.94-2.773-8.163-3.845-11.938-1.368-4.827-1.726-8.394-1.338-11.054A8.067,8.067,0,0,1,317.427,203.374Z" fill="#d68982" fill-rule="evenodd"/>
      <path id="Trazado_35077" data-name="Trazado 35077" d="M348.154,251.462a.6.6,0,0,1-1.03.6,19.71,19.71,0,0,0-2.619-2.467,34.08,34.08,0,0,1-5.372-5.339c-1.473-2.179-2.651-9.636-3.294-13.713-.2-1.279-.351-2.217-.427-2.5-.121-.444-1.469-1.272-2.828-2.108a11.15,11.15,0,0,1-3.28-2.517,7.274,7.274,0,0,1-.806-2.441,16.726,16.726,0,0,1-.241-3.338c.059-1.088,3.093-3.5,3.822-4.065.3-1.039,1.717-5.8,3.114-6.645a9.68,9.68,0,0,1,3.3-1.047c.308-1.377,1.369-5.73,2.683-6.71l.044-.03a8.59,8.59,0,0,1,3.587-1.248c.313-1.267,1.477-4.815,4.714-4.879a.584.584,0,0,1,.146.015c.048.009,16.641,3.792,20.4,5.5a8.438,8.438,0,0,1,4.544,5.282l.01.032c.919,2.66,1.248,6.394.8,11.606-.354,4.067-1,8.715-1.6,13.053-.908,6.523-1.716,12.337-1.284,14.363,1.56,7.3,11.425,20.5,23.3,34.364,11.922,13.922,25.855,28.492,35.481,38.487a.6.6,0,0,1-.861.827c-9.64-10.008-23.592-24.6-35.526-38.537-11.984-14-21.952-27.369-23.559-34.892-.475-2.228.347-8.142,1.27-14.775.6-4.3,1.239-8.9,1.594-12.992.438-5.045.132-8.616-.731-11.118l-.01-.026a7.3,7.3,0,0,0-3.91-4.584c-3.521-1.6-18.923-5.142-20.1-5.412-2.8.122-3.543,4.089-3.583,4.318a.6.6,0,0,1-.549.507,7.986,7.986,0,0,0-3.418,1.069l-.033.027c-1.141.852-2.214,5.906-2.311,6.374a.6.6,0,0,1-.548.512,9.091,9.091,0,0,0-3.225.935c-1.166.7-2.629,6.111-2.634,6.126a.6.6,0,0,1-.211.32c-.011.007-3.482,2.65-3.519,3.308a15.527,15.527,0,0,0,.229,3.066,6.19,6.19,0,0,0,.646,2.027,11.364,11.364,0,0,0,2.888,2.119c1.561.96,3.109,1.912,3.354,2.816.092.347.246,1.313.453,2.63.628,3.98,1.778,11.259,3.107,13.226a33.42,33.42,0,0,0,5.16,5.1A18.145,18.145,0,0,1,348.154,251.462Z" fill="#d68982" fill-rule="evenodd"/>
      <path id="Trazado_35078" data-name="Trazado 35078" d="M425.546,133.693l-.234,8.2,7.18,12.749s.557,7.629,8.057,20.511,11.019,18.5,9.614,22.486c-14.873,42.1-63.911,37.682-55.213,26.233,1.6-2.107,20.577-19.714,17.541-51.254h0a12.376,12.376,0,0,0,7.751-23.108Z" fill="#373061" fill-rule="evenodd"/>
      <path id="Trazado_35079" data-name="Trazado 35079" d="M417.452,276.764,411.7,295c3.795,4.109,7.526,8.073,11.017,11.743Z" fill="#d68982" fill-rule="evenodd"/>
      <path id="Trazado_35080" data-name="Trazado 35080" d="M353.522,266.853a40.528,40.528,0,0,0,2.977,21.486c4.868,10.81,14.877,16.622,22.72,30.4s16.231,37.835,27.863,50,33.272,3.514,41.93-18.107,4.6-28.449,13.045-49.159,15.628-35.161,13.191-50.565-10.63-20.862-16.2-22.343c-31.461-8.376-36.673,32.354-46.573,63.961,0,0-11.079-10.674-14.056-20.673s-9.467-17.162-20.016-18.108S372.047,261.447,353.522,266.853Z" fill="#fff" fill-rule="evenodd"/>
      <path id="Trazado_35081" data-name="Trazado 35081" d="M353.756,269.657a4.329,4.329,0,0,1-1.852-1.317s-3.516-8.106-3.381-8.781a8.825,8.825,0,0,1,1.36-2.182l1.259,2.321c13.771,2.584,23.611-11.115,23.611-11.115l-1.035-2.187a3.946,3.946,0,0,1,2.193.8,40.625,40.625,0,0,1,3.721,5.676,2.727,2.727,0,0,1-.187,1.891C376.933,261.731,361.413,272.867,353.756,269.657Z" fill="#fff" fill-rule="evenodd"/>
      <path id="Trazado_35082" data-name="Trazado 35082" d="M322.524,258.8l-4.74-1.038s-2.632,1.308-6.62,6.848-5.072,17.094-14,30.067-20.19,29.317-22.723,38.51-2.741,25.472,4.6,33.106c5.888,6.125,22.1,6.72,25.05,4.9,21.506-13.241,17.726-35.856,23.407-54.775s22.418-28.1,16.872-49.586C341.258,259.14,338.823,266.168,322.524,258.8Z" fill="#fff" fill-rule="evenodd"/>
      <path id="Trazado_35083" data-name="Trazado 35083" d="M343.979,269.066a4.1,4.1,0,0,0,1.58-1.464s2.307-8.054,2.1-8.674a8.374,8.374,0,0,0-1.547-1.883l-.9,2.337c-12.63,4.12-23.567-7.55-23.567-7.55l.7-2.182a3.74,3.74,0,0,0-1.965,1.018,38.586,38.586,0,0,0-2.8,5.794,2.587,2.587,0,0,0,.408,1.756C321.214,264.462,337.174,273.024,343.979,269.066Z" fill="#fff" fill-rule="evenodd"/>
      <path id="Trazado_35084" data-name="Trazado 35084" d="M373.718,246.4a3.946,3.946,0,0,1,2.193.8,40.625,40.625,0,0,1,3.721,5.676,2.727,2.727,0,0,1-.187,1.891c-2.512,6.97-18.032,18.106-25.689,14.9a4.329,4.329,0,0,1-1.852-1.317s-3.516-8.106-3.381-8.781a8.825,8.825,0,0,1,1.36-2.182" fill="none" stroke="#cbd8f0" stroke-linecap="round" stroke-linejoin="round" stroke-width="0.709" fill-rule="evenodd"/>
      <path id="Trazado_35085" data-name="Trazado 35085" d="M322.348,249.65a3.74,3.74,0,0,0-1.965,1.018,38.586,38.586,0,0,0-2.8,5.794,2.587,2.587,0,0,0,.408,1.756c3.222,6.244,19.182,14.806,25.987,10.848a4.1,4.1,0,0,0,1.58-1.464s2.307-8.054,2.1-8.674a8.374,8.374,0,0,0-1.547-1.883" fill="none" stroke="#cbd8f0" stroke-linecap="round" stroke-linejoin="round" stroke-width="0.709" fill-rule="evenodd"/>
      <path id="Trazado_35086" data-name="Trazado 35086" d="M412.479,292.526s15.779,11.682,22.877,28.951" fill="none" stroke="#cbd8f0" stroke-linecap="round" stroke-linejoin="round" stroke-width="0.709" fill-rule="evenodd"/>
      <line id="Línea_142" data-name="Línea 142" y1="56.25" x2="7.621" transform="translate(455.558 269.807)" fill="none" stroke="#cbd8f0" stroke-linecap="round" stroke-linejoin="round" stroke-width="0.709"/>
      <path id="Trazado_35087" data-name="Trazado 35087" d="M317.784,257.767s-2.632,1.308-6.62,6.848-5.072,17.094-14,30.067-20.19,29.317-22.723,38.51" fill="none" stroke="#cbd8f0" stroke-linecap="round" stroke-linejoin="round" stroke-width="0.709" fill-rule="evenodd"/>
      <path id="Trazado_35088" data-name="Trazado 35088" d="M382.873,69.515a38.982,38.982,0,0,0-3.866,2.806c-15.435,12.682-35.69,42.508-67.77,21.218a60.567,60.567,0,0,0-13.8,24.811c9.567,7.832,21.117,15.3,31.759,16.865,24.014,3.53,35.031-21.113,42.353-35.312,4.356-8.446,11.084-20.533,21.015-25.7A33.548,33.548,0,0,0,382.873,69.515Z" fill="#443e6f" fill-rule="evenodd"/>
    </g>
    <g id="Grupo_18814" data-name="Grupo 18814">
      <path id="Trazado_35089" data-name="Trazado 35089" d="M262.935,154.242h0a8.392,8.392,0,0,1,8.372,8.362v88.351a20.013,20.013,0,1,1-16.743,0V162.6A8.391,8.391,0,0,1,262.935,154.242Z" fill="#fff" fill-rule="evenodd"/>
      <path id="Trazado_35090" data-name="Trazado 35090" d="M259.661,210.408v40.547a5,5,0,0,1-2.962,4.623,14.917,14.917,0,1,0,12.474,0,5,5,0,0,1-2.963-4.623V210.408Z" fill="#d28478" fill-rule="evenodd"/>
      <path id="Trazado_35091" data-name="Trazado 35091" d="M260.844,209.045h4.184a1.184,1.184,0,0,0,1.182-1.182h0a1.184,1.184,0,0,0-1.182-1.181h-4.184a1.184,1.184,0,0,0-1.183,1.181h0A1.184,1.184,0,0,0,260.844,209.045Z" fill="#d28478" fill-rule="evenodd"/>
      <g id="Grupo_18813" data-name="Grupo 18813">
        <path id="Rectángulo_3040" data-name="Rectángulo 3040" d="M.841,0h.592a.841.841,0,0,1,.841.841v0a.84.84,0,0,1-.84.84H.84A.84.84,0,0,1,0,.841v0A.841.841,0,0,1,.841,0Z" transform="translate(266.988 162.24)" fill="#d1cee6"/>
        <path id="Rectángulo_3041" data-name="Rectángulo 3041" d="M.841,0h.592a.841.841,0,0,1,.841.841v0a.84.84,0,0,1-.84.84H.84A.84.84,0,0,1,0,.841v0A.841.841,0,0,1,.841,0Z" transform="translate(266.988 167.33)" fill="#d1cee6"/>
        <path id="Rectángulo_3042" data-name="Rectángulo 3042" d="M.84,0h.592a.841.841,0,0,1,.841.841v0a.84.84,0,0,1-.84.84H.84A.84.84,0,0,1,0,.841v0A.84.84,0,0,1,.84,0Z" transform="translate(266.988 172.419)" fill="#d1cee6"/>
        <path id="Trazado_35092" data-name="Trazado 35092" d="M267.829,179.189h.591a.843.843,0,0,0,.842-.84h0a.844.844,0,0,0-.842-.84h-.591a.843.843,0,0,0-.841.84h0A.843.843,0,0,0,267.829,179.189Z" fill="#d1cee6" fill-rule="evenodd"/>
        <path id="Rectángulo_3043" data-name="Rectángulo 3043" d="M.84,0h.592a.841.841,0,0,1,.841.841v0a.84.84,0,0,1-.84.84H.84A.84.84,0,0,1,0,.841v0A.84.84,0,0,1,.84,0Z" transform="translate(266.988 182.598)" fill="#d1cee6"/>
        <rect id="Rectángulo_3044" data-name="Rectángulo 3044" width="2.273" height="1.681" rx="0.84" transform="translate(266.988 187.688)" fill="#d1cee6"/>
        <path id="Rectángulo_3045" data-name="Rectángulo 3045" d="M.841,0h.592a.841.841,0,0,1,.841.841v0a.84.84,0,0,1-.84.84H.84A.84.84,0,0,1,0,.841v0A.841.841,0,0,1,.841,0Z" transform="translate(266.988 192.777)" fill="#d1cee6"/>
        <path id="Rectángulo_3046" data-name="Rectángulo 3046" d="M.84,0h.595a.839.839,0,0,1,.839.839v0a.842.842,0,0,1-.842.842H.84A.84.84,0,0,1,0,.841v0A.84.84,0,0,1,.84,0Z" transform="translate(266.988 197.867)" fill="#d1cee6"/>
        <rect id="Rectángulo_3047" data-name="Rectángulo 3047" width="2.273" height="1.681" rx="0.84" transform="translate(266.988 202.956)" fill="#d1cee6"/>
        <path id="Rectángulo_3048" data-name="Rectángulo 3048" d="M.84,0h.595a.839.839,0,0,1,.839.839v0a.842.842,0,0,1-.842.842H.84A.84.84,0,0,1,0,.841v0A.84.84,0,0,1,.84,0Z" transform="translate(266.988 208.046)" fill="#d1cee6"/>
        <path id="Rectángulo_3049" data-name="Rectángulo 3049" d="M.84,0h.594a.839.839,0,0,1,.839.839v0a.842.842,0,0,1-.842.842H.84A.84.84,0,0,1,0,.841v0A.84.84,0,0,1,.84,0Z" transform="translate(266.988 213.135)" fill="#d1cee6"/>
        <rect id="Rectángulo_3050" data-name="Rectángulo 3050" width="2.273" height="1.681" rx="0.84" transform="translate(266.988 218.225)" fill="#d1cee6"/>
        <rect id="Rectángulo_3051" data-name="Rectángulo 3051" width="2.273" height="1.682" rx="0.84" transform="translate(266.988 223.314)" fill="#d1cee6"/>
        <path id="Rectángulo_3052" data-name="Rectángulo 3052" d="M.841,0h.591a.842.842,0,0,1,.842.842v0a.84.84,0,0,1-.84.84H.84A.84.84,0,0,1,0,.842v0A.841.841,0,0,1,.841,0Z" transform="translate(266.988 228.404)" fill="#d1cee6"/>
        <path id="Rectángulo_3053" data-name="Rectángulo 3053" d="M.84,0h.594a.839.839,0,0,1,.839.839v0a.842.842,0,0,1-.842.842H.84A.84.84,0,0,1,0,.841v0A.84.84,0,0,1,.84,0Z" transform="translate(266.988 233.493)" fill="#d1cee6"/>
        <path id="Rectángulo_3054" data-name="Rectángulo 3054" d="M.841,0h.593a.84.84,0,0,1,.84.84v0a.842.842,0,0,1-.842.842H.84A.84.84,0,0,1,0,.841v0A.841.841,0,0,1,.841,0Z" transform="translate(266.988 238.583)" fill="#d1cee6"/>
        <rect id="Rectángulo_3055" data-name="Rectángulo 3055" width="2.273" height="1.681" rx="0.84" transform="translate(266.988 243.672)" fill="#d1cee6"/>
      </g>
    </g>
    <path id="Trazado_35093" data-name="Trazado 35093" d="M219.7,278.587a3.6,3.6,0,1,0-3.606-3.6A3.612,3.612,0,0,0,219.7,278.587Z" fill="#fff" fill-rule="evenodd"/>
    <path id="Trazado_35094" data-name="Trazado 35094" d="M498.754,276.935a3.6,3.6,0,1,0-3.606-3.6A3.61,3.61,0,0,0,498.754,276.935Z" fill="#fff" fill-rule="evenodd"/>
    <path id="Trazado_35095" data-name="Trazado 35095" d="M483.775,151.432h52.954a11.479,11.479,0,0,0,11.448-11.439h0a11.478,11.478,0,0,0-11.448-11.438h1.141a5.379,5.379,0,0,1-5.366-5.362h0a5.379,5.379,0,0,1,5.366-5.362h27.819a11.478,11.478,0,0,0,11.451-11.438h0a11.479,11.479,0,0,0-11.451-11.438H512.738a11.479,11.479,0,0,0-11.45,11.438h0a11.478,11.478,0,0,0,11.45,11.438h.086a5.38,5.38,0,0,1,5.367,5.362h0a5.38,5.38,0,0,1-5.367,5.362H483.775a11.476,11.476,0,0,0-11.448,11.438h0A11.477,11.477,0,0,0,483.775,151.432Z" fill="#f4dcb1" fill-rule="evenodd"/>
    <path id="Trazado_35096" data-name="Trazado 35096" d="M234.993,142.713h-45.81a9.929,9.929,0,0,1-9.9-9.9h0a9.93,9.93,0,0,1,9.9-9.895h-.989a4.655,4.655,0,0,0,4.643-4.639h0a4.654,4.654,0,0,0-4.643-4.639H164.127a9.928,9.928,0,0,1-9.9-9.895h0a9.929,9.929,0,0,1,9.9-9.9h45.809a9.93,9.93,0,0,1,9.9,9.9h0a9.929,9.929,0,0,1-9.9,9.895h-.076a4.654,4.654,0,0,0-4.641,4.639h0a4.654,4.654,0,0,0,4.641,4.639h25.133a9.928,9.928,0,0,1,9.9,9.895h0A9.928,9.928,0,0,1,234.993,142.713Z" fill="#e3e3f2" fill-rule="evenodd"/>
  </g>
</svg>
