<svg xmlns="http://www.w3.org/2000/svg" width="154" height="154" viewBox="0 0 154 154">
  <g id="Grupo_18805" data-name="Grupo 18805" transform="translate(-411 -992)">
    <g id="Elipse_986" data-name="Elipse 986" transform="translate(411 992)" fill="#f56b6b" stroke="#2643a2" stroke-width="3">
      <circle cx="77" cy="77" r="77" stroke="none"/>
      <circle cx="77" cy="77" r="75.5" fill="none"/>
    </g>
    <circle id="Elipse_1107" data-name="Elipse 1107" cx="38" cy="38" r="38" transform="translate(455 1029)" fill="#ebedf0"/>
    <g id="Grupo_18793" data-name="Grupo 18793" transform="translate(446.668 1030.668)">
      <g id="Grupo_18804" data-name="Grupo 18804" transform="translate(0 1.123)">
        <g id="Grupo_18796" data-name="Grupo 18796" transform="translate(1.123 0)">
          <g id="Grupo_18795" data-name="Grupo 18795">
            <path id="Trazado_35016" data-name="Trazado 35016" d="M7.5,19.4a11.9,11.9,0,1,1,19.721,8.968.517.517,0,0,0,.076.834l2.242,1.327a.414.414,0,0,1-.211.77l-10.154,0A11.9,11.9,0,0,1,7.5,19.4Z" transform="translate(-7.5 -7.501)" fill="#fff"/>
          </g>
        </g>
        <path id="Trazado_35017" data-name="Trazado 35017" d="M84.276,30.529,82.033,29.2a.516.516,0,0,1-.08-.832A11.9,11.9,0,0,0,74.491,7.5a12,12,0,0,0-2.615.209A11.9,11.9,0,0,1,79.042,26.7a2.569,2.569,0,0,0,.694,3.8l.047.028a.413.413,0,0,1-.2.769h4.479a.414.414,0,0,0,.211-.77Z" transform="translate(-61.114 -7.5)" fill="#ebedf0"/>
        <g id="Grupo_18802" data-name="Grupo 18802" transform="translate(17.919 0)">
          <g id="Grupo_18799" data-name="Grupo 18799">
            <path id="Trazado_35018" data-name="Trazado 35018" d="M196.146,50.694h-27a7.961,7.961,0,0,1-6.126-13.046l.239-.289a12.734,12.734,0,0,0,2.936-8.133V24.021a16.521,16.521,0,0,1,33.042,0V29.4a12.735,12.735,0,0,0,2.994,8.2A7.961,7.961,0,0,1,196.146,50.694Z" transform="translate(-154.96 -7.5)" fill="#8ff3ad"/>
            <path id="Trazado_35019" data-name="Trazado 35019" d="M175.046,265.287v17.847H119.67V265.421a9.964,9.964,0,0,1,6.1-9.185l8.938-3.887,3.011-1.309a6.254,6.254,0,0,0,3.761-5.735V244.15h11.757v1.1a6.255,6.255,0,0,0,3.79,5.748l12.091,5.182a9.966,9.966,0,0,1,5.928,9.11Z" transform="translate(-119.67 -208.715)" fill="#fff"/>
            <path id="Trazado_35020" data-name="Trazado 35020" d="M216.783,256.61a42.82,42.82,0,0,0,25.3-.237l1.458-3.471L239.1,251a6.255,6.255,0,0,1-3.791-5.749v-1.1H223.555v1.155a6.255,6.255,0,0,1-3.761,5.736l-3.6,1.563Z" transform="translate(-201.745 -208.719)" fill="#fff"/>
            <path id="Trazado_35021" data-name="Trazado 35021" d="M398.185,302.306l-9.108-3.9h0v30.86h15.037V311.416A9.964,9.964,0,0,0,398.185,302.306Z" transform="translate(-348.736 -254.844)" fill="#8ff3ad"/>
            <path id="Trazado_35022" data-name="Trazado 35022" d="M135.708,293.235v30.784H120.67V306.307a9.964,9.964,0,0,1,6.1-9.185Z" transform="translate(-120.52 -250.45)" fill="#8ff3ad"/>
            <g id="Grupo_18797" data-name="Grupo 18797" transform="translate(26.228 28.703)">
              <path id="Trazado_35023" data-name="Trazado 35023" d="M299.635,203.527H297a2.169,2.169,0,1,1,0-4.338h2.632a2.169,2.169,0,1,1,0,4.338Z" transform="translate(-294.834 -199.189)" fill="#fff"/>
              <path id="Trazado_35024" data-name="Trazado 35024" d="M303.38,206.688a1.046,1.046,0,0,0,0,2.092h2.632a1.046,1.046,0,1,0,0-2.092Z" transform="translate(-301.211 -205.565)"/>
            </g>
            <g id="Grupo_18798" data-name="Grupo 18798" transform="translate(26.604 54.802)">
              <circle id="Elipse_1108" data-name="Elipse 1108" cx="1.085" cy="1.085" r="1.085"/>
            </g>
          </g>
          <g id="Grupo_18801" data-name="Grupo 18801" transform="translate(11.24 0)">
            <path id="Trazado_35025" data-name="Trazado 35025" d="M249.609,89.379v9.727a9.922,9.922,0,0,1-9.922,9.922h-3.659a9.922,9.922,0,0,1-9.922-9.922V89.379a6.455,6.455,0,0,1,6.455-6.455h10.593A6.455,6.455,0,0,1,249.609,89.379Z" transform="translate(-221.409 -71.63)" fill="#fff"/>
            <path id="Trazado_35026" data-name="Trazado 35026" d="M299.635,203.527H297a2.169,2.169,0,1,1,0-4.338h2.632a2.169,2.169,0,1,1,0,4.338Z" transform="translate(-279.846 -170.486)" fill="#685e68"/>
            <g id="Grupo_18800" data-name="Grupo 18800">
              <path id="Trazado_35027" data-name="Trazado 35027" d="M320.15,29.506c.252-3.178,3.294-5.287,6.207-6.379A16.512,16.512,0,0,1,334.4,37.308v1.136c-.266.056-.531.1-.793.144a13.374,13.374,0,0,1-3.9,0C323.688,37.786,319.846,33.345,320.15,29.506Z" transform="translate(-301.358 -20.787)" fill="#8ff3ad"/>
              <path id="Trazado_35028" data-name="Trazado 35028" d="M211.26,7.5a16.447,16.447,0,0,1,9.939,3.323A29.467,29.467,0,0,1,210.71,21.484,29.239,29.239,0,0,1,199.581,25.3h-4.842v-1.28A16.521,16.521,0,0,1,211.26,7.5Z" transform="translate(-194.739 -7.5)" fill="#8ff3ad"/>
            </g>
          </g>
        </g>
        <path id="Trazado_35029" data-name="Trazado 35029" d="M212.941,384.188H176.991l-1.983-18.7A2.246,2.246,0,0,1,177.242,363H212.69a2.246,2.246,0,0,1,2.233,2.483Z" transform="translate(-148.793 -309.77)" fill="#efedef"/>
        <path id="Trazado_35030" data-name="Trazado 35030" d="M401.226,363h-4.492a2.246,2.246,0,0,1,2.234,2.483l-1.983,18.7h4.492l1.983-18.7A2.246,2.246,0,0,0,401.226,363Z" transform="translate(-337.329 -309.769)" fill="#e5e1e5"/>
        <g id="Grupo_18803" data-name="Grupo 18803" transform="translate(0 73.295)">
          <path id="Trazado_35031" data-name="Trazado 35031" d="M75.541,499.246H1.123a1.123,1.123,0,0,1,0-2.246H75.541a1.123,1.123,0,0,1,0,2.246Z" transform="translate(0 -497)" fill="#c9bfc8"/>
        </g>
        <circle id="Elipse_1109" data-name="Elipse 1109" cx="3.144" cy="3.144" r="3.144" transform="translate(43.029 60.68)" fill="#c9bfc8"/>
      </g>
      <path id="Trazado_35032" data-name="Trazado 35032" d="M17.515,14.145a1.123,1.123,0,1,0-1.123-1.123A1.123,1.123,0,0,0,17.515,14.145Zm-8.984,0a1.123,1.123,0,1,0-1.123-1.123A1.123,1.123,0,0,0,8.531,14.145Zm4.492,0A1.123,1.123,0,1,0,11.9,13.022,1.123,1.123,0,0,0,13.023,14.145Zm-.246,11.9H12.8l10.153,0h0a1.537,1.537,0,0,0,.783-2.859l-1.544-.914A13.023,13.023,0,1,0,0,13.023,13.162,13.162,0,0,0,12.777,26.042ZM5.458,5.347a10.7,10.7,0,0,1,7.724-3.1,10.776,10.776,0,0,1,6.923,18.9,1.64,1.64,0,0,0,.242,2.647l.011.007-7.551,0A10.776,10.776,0,0,1,5.458,5.347ZM75.541,74.418H74.418V57.694A11.1,11.1,0,0,0,67.81,47.552l-5.918-2.537a8.866,8.866,0,0,0,3.8-2.389A9.3,9.3,0,0,0,68.2,36.314a8.934,8.934,0,0,0-2.151-5.81,11.627,11.627,0,0,1-2.729-7.479V17.643a17.644,17.644,0,0,0-35.288,0v5.206a12.138,12.138,0,0,1-2.917,7.7,9.1,9.1,0,0,0,4.341,14.5l-5.877,2.556A11.065,11.065,0,0,0,16.8,57.829v13.22a1.123,1.123,0,1,0,2.246,0V57.829a8.828,8.828,0,0,1,5.425-8.155l7.367-3.2v6.76H28.449a3.369,3.369,0,0,0-3.35,3.724L26.95,74.418H1.123a1.123,1.123,0,0,0,0,2.246H75.541a1.123,1.123,0,0,0,0-2.246ZM64.335,31.95a6.715,6.715,0,0,1,1.623,4.364,7.035,7.035,0,0,1-1.9,4.773,6.723,6.723,0,0,1-4.951,2.107H57.642l-1.922-.824a5.125,5.125,0,0,1-3.063-4.041A11.053,11.053,0,0,0,58.482,28.6V20.155c.329.022.657.034.985.034a14.313,14.313,0,0,0,1.612-.091v2.926a13.875,13.875,0,0,0,3.257,8.925ZM45.953,49.679A41.605,41.605,0,0,1,34.08,48.168V45.494l.325-.141.008,0,2-.871A7.375,7.375,0,0,0,40.7,39.2a11.007,11.007,0,0,0,3.079.44h3.659a11.007,11.007,0,0,0,3.09-.443,7.371,7.371,0,0,0,4.307,5.235l2.138.916,0,0,.158.068v2.527a41.687,41.687,0,0,1-11.182,1.732Zm11.182.607v2.945H34.08V50.494a43.894,43.894,0,0,0,11.142,1.438q.385,0,.77-.007a43.927,43.927,0,0,0,11.143-1.639Zm3.944-32.452A12.473,12.473,0,0,1,52.1,15.562a1.123,1.123,0,0,0-1.376,1.775,13.568,13.568,0,0,0,5.516,2.506v6.114a8.215,8.215,0,0,1-2.495,3.37A8.611,8.611,0,0,1,51.879,30.5a3.3,3.3,0,0,0-2.931-1.8H46.316a3.292,3.292,0,1,0,0,6.584h2.632a3.3,3.3,0,0,0,3.185-2.459,20.041,20.041,0,0,0,3.952-2.615A8.811,8.811,0,0,1,47.438,37.4h-3.66a8.808,8.808,0,0,1-8.8-8.8V19.917A30.114,30.114,0,0,0,45.7,16.073,30.506,30.506,0,0,0,55.909,6.135a15.389,15.389,0,0,1,5.17,11.7ZM49.993,32a1.047,1.047,0,0,1-1.046,1.043H46.316a1.046,1.046,0,0,1,0-2.092h2.632a1.047,1.047,0,0,1,1.046,1.042ZM30.282,17.643A15.4,15.4,0,0,1,54.121,4.761a28.276,28.276,0,0,1-9.562,9.38,27.924,27.924,0,0,1-10.63,3.66H30.282ZM25.92,39.262a6.777,6.777,0,0,1,.926-7.272,14.344,14.344,0,0,0,3.436-9.14v-2.8h2.451V28.6a11.054,11.054,0,0,0,5.832,9.734,5.127,5.127,0,0,1-3.046,4.087l-1.783.775H32.109a6.777,6.777,0,0,1-6.189-3.932ZM65.014,56.718l-1.876,17.7H29.209l-1.876-17.7a1.123,1.123,0,0,1,1.117-1.241H63.9a1.123,1.123,0,0,1,1.117,1.241Zm7.158,17.7H65.4l1.851-17.463a3.369,3.369,0,0,0-3.35-3.724H59.38V48.792c0-.014,0-.027,0-.041V46.383l7.532,3.228a8.849,8.849,0,0,1,5.26,8.083Zm-26-13.738a4.267,4.267,0,1,0,4.267,4.267A4.272,4.272,0,0,0,46.173,60.68Zm0,6.289a2.021,2.021,0,1,1,2.021-2.021A2.024,2.024,0,0,1,46.173,66.969Z" fill="#303e58"/>
    </g>
  </g>
</svg>
