<svg xmlns="http://www.w3.org/2000/svg" width="154" height="154" viewBox="0 0 154 154">
  <g id="Grupo_18777" data-name="Grupo 18777" transform="translate(-411 -1699)">
    <g id="Elipse_989" data-name="Elipse 989" transform="translate(411 1699)" fill="#f56b6b" stroke="#2643a2" stroke-width="3">
      <circle cx="77" cy="77" r="77" stroke="none"/>
      <circle cx="77" cy="77" r="75.5" fill="none"/>
    </g>
    <g id="Grupo_16960" data-name="Grupo 16960" transform="translate(-854.008 1513.059)">
      <circle id="Elipse_996" data-name="Elipse 996" cx="35.104" cy="35.104" r="35.104" transform="translate(1295.202 217.197)" fill="#ebedf0"/>
      <g id="Grupo_16959" data-name="Grupo 16959" transform="translate(1294.008 216)">
        <g id="Grupo_16958" data-name="Grupo 16958" transform="translate(0 0)">
          <g id="Grupo_16956" data-name="Grupo 16956" transform="translate(1.197 5.984)">
            <ellipse id="Elipse_997" data-name="Elipse 997" cx="6.5" cy="7" rx="6.5" ry="7" transform="translate(10.803 9.957)" fill="#fff"/>
            <path id="Trazado_31457" data-name="Trazado 31457" d="M1355.856,376.409c0,2.266-4.02,3.927-4.787,4.771-5.233,5.872-10.436,10.372-12.765,10.372-1.069,0-3.749-.957-6.383-2.026-3.222-1.309-6.383-2.761-6.383-2.761v46.274a2.883,2.883,0,0,1-3.191,3.191c-3.59,0-3.8-3.59-5.585-23.935-3.8,23.04-4.388,23.935-7.18,23.935a2.883,2.883,0,0,1-3.191-3.191c0-1.2,1.6-20.743,1.6-20.743V394.743c0,14.457-2.09,15.957-4.787,15.957-2.33,0-3.191-1.708-3.191-4.787,0-.8.7-6.479.7-7.579,0-.43.175-4.708.366-9.3a12.366,12.366,0,0,1,12.351-11.84h8.983a13.324,13.324,0,0,1,5.92,1.388l3.526,1.772,6.446,3.222c7.579-6.319,11.185-9.574,14.361-9.574a3.639,3.639,0,0,1,2.409.686A2.233,2.233,0,0,1,1355.856,376.409Z" transform="translate(-1300.008 -348.47)" fill="#8ff3ad"/>
            <path id="Trazado_31458" data-name="Trazado 31458" d="M1459.752,293.87v-6.813c2.633,1.069,5.313,2.026,6.383,2.026,2.33,0,7.532-4.5,12.765-10.372.767-.844,4.787-2.506,4.787-4.771a2.234,2.234,0,0,0-.782-1.723,3.64,3.64,0,0,0-2.409-.686c-3.176,0-6.782,3.255-14.361,9.574l-6.447-3.222.064-.128V246h63.826v54.252h-63.826Z" transform="translate(-1427.839 -246)" fill="#fff"/>
          </g>
          <g id="Grupo_16957" data-name="Grupo 16957">
            <path id="Trazado_31459" data-name="Trazado 31459" d="M1615.2,223.18a1.2,1.2,0,0,1-1.2-1.2V217.2a1.2,1.2,0,0,1,2.394,0v4.787A1.2,1.2,0,0,1,1615.2,223.18Z" transform="translate(-1550.182 -216)" fill="#979faf"/>
            <path id="Trazado_31460" data-name="Trazado 31460" d="M1696.777,573.518a1.2,1.2,0,0,1-1.129-.8l-9.574-27.126a1.2,1.2,0,1,1,2.257-.8l9.574,27.126a1.2,1.2,0,0,1-1.128,1.6Z" transform="translate(-1607.82 -478.577)" fill="#979faf"/>
            <path id="Trazado_31461" data-name="Trazado 31461" d="M1495.2,573.518a1.2,1.2,0,0,1-1.129-1.6l9.574-27.126a1.2,1.2,0,1,1,2.257.8l-9.574,27.126A1.2,1.2,0,0,1,1495.2,573.518Z" transform="translate(-1454.115 -478.577)" fill="#979faf"/>
            <path id="Trazado_31462" data-name="Trazado 31462" d="M1357.587,304.754c-4.179,0-7.579-3.758-7.579-8.377s3.4-8.377,7.579-8.377,7.579,3.758,7.579,8.377S1361.767,304.754,1357.587,304.754Zm0-14.361c-2.86,0-5.186,2.684-5.186,5.984s2.326,5.984,5.186,5.984,5.186-2.684,5.186-5.984S1360.447,290.393,1357.587,290.393Z" transform="translate(-1338.838 -273.639)" fill="#303e58"/>
            <path id="Trazado_31463" data-name="Trazado 31463" d="M1343.161,483.859c-2.869,0-3.9-1.991-4.573-4.979a97.289,97.289,0,0,1-1.38-10.792,106.8,106.8,0,0,1-2.457,11.605c-.987,3.154-2.046,4.167-4.355,4.167a4.032,4.032,0,0,1-4.388-4.388c0-1.2,1.414-18.567,1.6-20.792V434.792a1.2,1.2,0,0,1,2.394,0v23.935c0,.032,0,.065,0,.1-.64,7.838-1.592,19.8-1.592,20.646,0,1.753.958,1.995,1.994,1.995.887,0,1.293,0,2.071-2.488.992-3.17,2.146-9.631,3.928-20.445a1.2,1.2,0,0,1,2.373.09l.152,1.734c.813,9.279,1.3,14.88,2,18s1.445,3.109,2.237,3.109c1.036,0,1.995-.242,1.995-1.995V433.2a1.2,1.2,0,0,1,2.394,0v46.274A4.032,4.032,0,0,1,1343.161,483.859Z" transform="translate(-1319.625 -388.917)" fill="#303e58"/>
            <path id="Trazado_31464" data-name="Trazado 31464" d="M1298.4,407.093c-2.912,0-4.388-2.013-4.388-5.984,0-.409.12-1.561.316-3.406.172-1.623.387-3.643.387-4.174,0-.379.113-3.263.367-9.353a13.54,13.54,0,0,1,13.546-12.986h8.983a14.593,14.593,0,0,1,6.452,1.513l3.532,1.774,5.744,2.871,1.195-1c6.647-5.56,9.984-8.351,13.332-8.351a4.832,4.832,0,0,1,3.176.963,3.442,3.442,0,0,1,1.213,2.642c0,2.279-2.448,3.837-4.067,4.869a9.564,9.564,0,0,0-1.032.709,73.285,73.285,0,0,1-7.593,7.5c-2.649,2.193-4.631,3.259-6.057,3.259-.4,0-1.626,0-6.833-2.114-3.21-1.3-6.4-2.768-6.432-2.783a1.2,1.2,0,0,1,1-2.175c.031.015,3.174,1.457,6.333,2.74,4.43,1.8,5.66,1.938,5.932,1.938.21,0,1.415-.131,4.531-2.709a70.993,70.993,0,0,0,7.341-7.262,7.806,7.806,0,0,1,1.525-1.126c1.034-.658,2.959-1.884,2.959-2.85a1.046,1.046,0,0,0-.358-.809,2.635,2.635,0,0,0-1.637-.4c-2.479,0-5.788,2.768-11.8,7.794q-.861.72-1.8,1.5a1.2,1.2,0,0,1-1.3.151l-6.446-3.223-3.529-1.773a12.182,12.182,0,0,0-5.382-1.261h-8.983a11.151,11.151,0,0,0-11.155,10.695c-.242,5.807-.365,8.92-.365,9.251,0,.612-.158,2.15-.4,4.427-.135,1.27-.3,2.849-.3,3.153,0,3.59,1.249,3.59,1.995,3.59.927,0,1.634-.129,2.292-1.8.874-2.218,1.3-6.458,1.3-12.961a1.2,1.2,0,1,1,2.393,0C1304.38,404.36,1302.277,407.093,1298.4,407.093Z" transform="translate(-1294.008 -337.683)" fill="#303e58"/>
            <path id="Trazado_31465" data-name="Trazado 31465" d="M1571.2,339.072a1.2,1.2,0,0,1-.846-2.043l.016-.016a1.2,1.2,0,0,1,.2-.162l13.547-8.664a1.2,1.2,0,0,1,1.29,2.017l-13.475,8.617A1.194,1.194,0,0,1,1571.2,339.072Z" transform="translate(-1514.958 -305.66)" fill="#303e58"/>
            <path id="Trazado_31466" data-name="Trazado 31466" d="M1519.031,296.646H1455.2a1.2,1.2,0,0,1-1.2-1.2v-6.383a1.2,1.2,0,0,1,2.394,0v5.186h61.432V242.393H1456.4v22.738a1.2,1.2,0,0,1-2.394,0V241.2a1.2,1.2,0,0,1,1.2-1.2h63.826a1.2,1.2,0,0,1,1.2,1.2v54.252A1.2,1.2,0,0,1,1519.031,296.646Z" transform="translate(-1422.095 -235.213)" fill="#303e58"/>
          </g>
        </g>
      </g>
    </g>
  </g>
</svg>
