<svg xmlns="http://www.w3.org/2000/svg" width="154" height="154" viewBox="0 0 154 154">
  <g id="Grupo_18773" data-name="Grupo 18773" transform="translate(-411 -763)">
    <g id="Elipse_985" data-name="Elipse 985" transform="translate(411 763)" fill="#f56b6b" stroke="#2643a2" stroke-width="3">
      <circle cx="77" cy="77" r="77" stroke="none"/>
      <circle cx="77" cy="77" r="75.5" fill="none"/>
    </g>
    <g id="Grupo_16945" data-name="Grupo 16945" transform="translate(-1835 -214.832)">
      <circle id="Elipse_994" data-name="Elipse 994" cx="35.5" cy="35.5" r="35.5" transform="translate(2300 1008.832)" fill="#ebedf0"/>
      <g id="Grupo_16944" data-name="Grupo 16944" transform="translate(2286 1008)">
        <g id="Grupo_16943" data-name="Grupo 16943" transform="translate(0 0)">
          <g id="Grupo_16941" data-name="Grupo 16941" transform="translate(1.205 1.205)">
            <path id="Trazado_31392" data-name="Trazado 31392" d="M2327.355,1134.316H2292V1062h51.425v41.365c-1.816-.675-5.738.176-6.268,3.567l-11.827-20.41a4.1,4.1,0,0,0-5.578-1.478,4.055,4.055,0,0,0-1.494,5.544l19.943,34.39c-11.506-7.456-14.367-8.5-17.1-6.941a3.075,3.075,0,0,0-1.287,4.5c1.078,1.849,7.249,4.162,13,9.416.449.4,1.317,1.271,2.522,2.363Z" transform="translate(-2292 -1052.358)" fill="#979faf"/>
            <path id="Trazado_31393" data-name="Trazado 31393" d="M2342.75,1427.833a5.076,5.076,0,0,1-2.54,2.2h-45a3.224,3.224,0,0,1-3.214-3.214V1422h43.341A60.123,60.123,0,0,0,2342.75,1427.833Z" transform="translate(-2292 -1340.041)" fill="#8ff3ad"/>
            <path id="Trazado_31394" data-name="Trazado 31394" d="M2343.425,1023.642H2292v-6.428a3.224,3.224,0,0,1,3.214-3.214h45a3.224,3.224,0,0,1,3.214,3.214Z" transform="translate(-2292 -1014)" fill="#8ff3ad"/>
            <path id="Trazado_31395" data-name="Trazado 31395" d="M2440.494,1214.487l-19.944-34.39a4.055,4.055,0,0,1,1.494-5.544,4.1,4.1,0,0,1,5.578,1.478l11.827,20.41c.531-3.391,4.452-4.242,6.268-3.567a1.562,1.562,0,0,1,.739.482c.788-2.957,4.95-4.129,7.008-3.085,2.57-4.644,6.7-3.633,8.228-.981l11.249,19.382a9.85,9.85,0,0,1,1.237,3.711l1,8.325a9.855,9.855,0,0,0,1.237,3.712l1.447,2.49s-5.207,11.378-19.782,11.378l-.354-.595a9.813,9.813,0,0,0-5.432-4.386,30.322,30.322,0,0,1-7.247-3.649,60.125,60.125,0,0,1-7.409-5.833c-1.205-1.092-2.073-1.962-2.522-2.364-5.753-5.254-11.924-7.567-13-9.416a3.075,3.075,0,0,1,1.287-4.5C2426.127,1205.987,2428.988,1207.031,2440.494,1214.487Z" transform="translate(-2394.292 -1141.866)" fill="#fff"/>
          </g>
          <g id="Grupo_16942" data-name="Grupo 16942">
            <path id="Trazado_31396" data-name="Trazado 31396" d="M2330.6,1100.4h-40.176a4.424,4.424,0,0,1-4.419-4.419v-83.566a4.424,4.424,0,0,1,4.419-4.419h45a4.424,4.424,0,0,1,4.419,4.419V1052.6a1.205,1.205,0,1,1-2.41,0v-40.176a2.011,2.011,0,0,0-2.009-2.009h-45a2.011,2.011,0,0,0-2.009,2.009v83.566a2.011,2.011,0,0,0,2.009,2.009H2330.6a1.205,1.205,0,1,1,0,2.411Z" transform="translate(-2286 -1008)" fill="#303e58"/>
            <path id="Trazado_31397" data-name="Trazado 31397" d="M2338.63,1058.411h-51.425a1.205,1.205,0,1,1,0-2.411h51.425a1.205,1.205,0,0,1,0,2.411Z" transform="translate(-2286 -1046.358)" fill="#303e58"/>
            <path id="Trazado_31398" data-name="Trazado 31398" d="M2381.634,1034.411h-6.428a1.205,1.205,0,0,1,0-2.411h6.428a1.205,1.205,0,0,1,0,2.411Z" transform="translate(-2356.323 -1027.179)" fill="#303e58"/>
            <path id="Trazado_31399" data-name="Trazado 31399" d="M2440.812,1034.411h-1.607a1.205,1.205,0,0,1,0-2.411h1.607a1.205,1.205,0,0,1,0,2.411Z" transform="translate(-2407.466 -1027.179)" fill="#303e58"/>
            <path id="Trazado_31400" data-name="Trazado 31400" d="M2322.56,1418.411h-35.354a1.205,1.205,0,1,1,0-2.411h35.354a1.205,1.205,0,0,1,0,2.411Z" transform="translate(-2286 -1334.041)" fill="#303e58"/>
            <path id="Trazado_31401" data-name="Trazado 31401" d="M2459.644,1365.644a1.2,1.2,0,0,1-1.036-.588l-.355-.595a8.618,8.618,0,0,0-4.772-3.859,31.348,31.348,0,0,1-7.539-3.79,60.816,60.816,0,0,1-7.554-5.946c-.728-.66-1.348-1.252-1.8-1.685-.306-.292-.547-.522-.713-.671a53.893,53.893,0,0,0-8.749-6.264c-2.318-1.412-3.849-2.344-4.49-3.443a4.761,4.761,0,0,1-.639-2.88,4.336,4.336,0,0,1,2.365-3.27c1.837-1.048,3.663-1.043,6.308.015,2.462.985,5.84,2.936,12.048,6.959a1.205,1.205,0,0,1-1.311,2.023c-11.2-7.255-13.776-8.087-15.845-6.906a1.894,1.894,0,0,0-.84,2.852c.33.566,2.022,1.6,3.658,2.593a56.7,56.7,0,0,1,9.112,6.534c.187.167.44.41.762.717.467.447,1.049,1,1.757,1.644a58.407,58.407,0,0,0,7.259,5.718,29.011,29.011,0,0,0,6.96,3.511,11.019,11.019,0,0,1,6.1,4.927l.348.583a1.206,1.206,0,0,1-1.034,1.823Z" transform="translate(-2394.654 -1266.811)" fill="#303e58"/>
            <path id="Trazado_31402" data-name="Trazado 31402" d="M2473.079,1223.338a1.2,1.2,0,0,1-1.043-.6l-1.447-2.491a11.14,11.14,0,0,1-1.391-4.17l-1-8.329a8.69,8.69,0,0,0-1.084-3.252l-11.248-19.379a3.2,3.2,0,0,0-2.691-1.645h-.022c-1.281.011-2.495.936-3.419,2.6a1.206,1.206,0,0,1-1.6.491,4.186,4.186,0,0,0-3.271.2,3.474,3.474,0,0,0-2.026,2.117,1.205,1.205,0,0,1-2.11.438.749.749,0,0,0-.193-.092l-.021-.007a4.181,4.181,0,0,0-3.151.454,2.954,2.954,0,0,0-1.507,2.169,1.205,1.205,0,0,1-2.234.418l-11.827-20.41a2.9,2.9,0,0,0-3.936-1.037,2.856,2.856,0,0,0-1.334,1.734,2.816,2.816,0,0,0,.284,2.161l20.811,35.884a1.205,1.205,0,1,1-2.085,1.21l-.868-1.5-19.944-34.39a5.284,5.284,0,0,1,9.155-5.279l10.644,18.369a5.617,5.617,0,0,1,1.621-1.415,6.686,6.686,0,0,1,4.965-.715,6.172,6.172,0,0,1,2.77-2.314,7.093,7.093,0,0,1,4.277-.526,6.054,6.054,0,0,1,4.976-2.984h.043a5.567,5.567,0,0,1,4.777,2.849l11.247,19.378a11.12,11.12,0,0,1,1.39,4.169l1,8.329a8.7,8.7,0,0,0,1.084,3.253l1.445,2.487a1.205,1.205,0,0,1-1.041,1.811Zm-32.343-34.008Z" transform="translate(-2388.306 -1135.883)" fill="#303e58"/>
            <path id="Trazado_31403" data-name="Trazado 31403" d="M2431.205,1132.018a1.205,1.205,0,0,1-1.205-1.205v-1.607a1.205,1.205,0,1,1,2.41,0v1.607A1.206,1.206,0,0,1,2431.205,1132.018Z" transform="translate(-2401.073 -1103.895)" fill="#fff"/>
            <path id="Trazado_31404" data-name="Trazado 31404" d="M2392.01,1151.153a1.2,1.2,0,0,1-.858-.359l-1.125-1.141a1.205,1.205,0,0,1,1.716-1.693l1.125,1.141a1.205,1.205,0,0,1-.858,2.052Z" transform="translate(-2368.853 -1119.558)" fill="#fff"/>
            <path id="Trazado_31405" data-name="Trazado 31405" d="M2377.773,1192.411h-1.607a1.205,1.205,0,0,1,0-2.411h1.607a1.205,1.205,0,1,1,0,2.411Z" transform="translate(-2357.091 -1153.44)" fill="#fff"/>
            <path id="Trazado_31406" data-name="Trazado 31406" d="M2395.768,1228.254a1.205,1.205,0,0,1-.846-2.063l1.141-1.125a1.205,1.205,0,0,1,1.693,1.716l-1.141,1.125A1.2,1.2,0,0,1,2395.768,1228.254Z" transform="translate(-2372.755 -1181.184)" fill="#fff"/>
            <path id="Trazado_31407" data-name="Trazado 31407" d="M2486.812,1185.449h-1.607a1.205,1.205,0,1,1,0-2.411h1.607a1.205,1.205,0,1,1,0,2.411Z" transform="translate(-2444.226 -1147.877)" fill="#fff"/>
            <path id="Trazado_31408" data-name="Trazado 31408" d="M2467.924,1146.192a1.205,1.205,0,0,1-.852-2.057l1.141-1.141a1.205,1.205,0,0,1,1.7,1.7l-1.141,1.141A1.2,1.2,0,0,1,2467.924,1146.192Z" transform="translate(-2430.416 -1115.594)" fill="#fff"/>
          </g>
        </g>
      </g>
    </g>
  </g>
</svg>
