<svg xmlns="http://www.w3.org/2000/svg" width="337.439" height="265.396" viewBox="0 0 337.439 265.396">
  <g id="Grupo_18818" data-name="Grupo 18818" transform="translate(-918.712 -4323.659)">
    <circle id="Elipse_1007" data-name="Elipse 1007" cx="44.961" cy="44.961" r="44.961" transform="translate(1166.229 4459.499)" fill="#027e9b"/>
    <circle id="Elipse_1010" data-name="Elipse 1010" cx="44.961" cy="44.961" r="44.961" transform="translate(1050.555 4458.698)" fill="#027e9b"/>
    <g id="Grupo_17311" data-name="Grupo 17311" transform="translate(754.041 4168.341)">
      <path id="Trazado_32041" data-name="Trazado 32041" d="M270.415,243.325l3.834-1.785c-.968-1.854-1.874-3.756-2.764-5.625-1.944-4.084-3.78-7.941-5.968-10.659-2.476-3.078-8.885-5.646-13.5-5.483.066,1.36.213,2.841.408,4.385a12.721,12.721,0,0,1,7.635,3.806A61.311,61.311,0,0,1,270.415,243.325Z" transform="translate(-13.92 -10.271)" fill="#30c3b8"/>
      <path id="Trazado_32042" data-name="Trazado 32042" d="M270.492,244.158A61.311,61.311,0,0,0,260.135,228.8a12.721,12.721,0,0,0-7.635-3.806c1.072,8.458,3.827,19.033,5.5,24.986Z" transform="translate(-13.998 -11.104)" fill="#19b2a7"/>
      <path id="Trazado_32043" data-name="Trazado 32043" d="M174.067,253.5s.305.119.3.172c5.069,2.845,9.891,4.65,13.751,5.108a5.178,5.178,0,0,1-.032-.536c.014-.053.324-1.195.8-3.063l-14.381-7.29c-.713,1.553-1.458,3.077-2.273,4.522C172.847,252.79,173.459,253.156,174.067,253.5Z" transform="translate(-1.205 -14.754)" fill="#1b9c8f"/>
      <path id="Trazado_32044" data-name="Trazado 32044" d="M169.393,250.683c.8.531,1.594,1.034,2.388,1.518.815-1.445,1.56-2.969,2.273-4.522l-2.224-1.127C171.067,247.977,170.261,249.365,169.393,250.683Z" transform="translate(-0.753 -14.54)" fill="#33aea2"/>
      <path id="Trazado_32045" data-name="Trazado 32045" d="M207.591,180.192c.93-.286,1.864-.554,2.8-.8a17.283,17.283,0,0,0-2.632.456C207.7,179.96,207.644,180.075,207.591,180.192Z" transform="translate(-6.84 -3.838)" fill="#ffc023"/>
      <path id="Trazado_32046" data-name="Trazado 32046" d="M239.9,179.353c-.583-.467-5.122-1.094-12.4-1.094a.4.4,0,0,1,0-.794c1.434,0,4.371.029,7.11.224a62.453,62.453,0,0,0-18.654.163c1.511-.046,2.852-.056,3.684-.056a.4.4,0,1,1,0,.794,84.53,84.53,0,0,0-9.286.436c-.941.241-1.875.509-2.8.8a1.594,1.594,0,0,0-.118,1.285c.3.683,1.384,1.181,3.126,1.439,6.661.986,20.357.7,26.9-.227,2.255-.319,2.853-.944,3.009-1.289a1.541,1.541,0,0,0-.317-1.409A.4.4,0,0,1,239.9,179.353Z" transform="translate(-6.801 -3.466)" fill="#ffe697"/>
      <path id="Trazado_32047" data-name="Trazado 32047" d="M233.7,165.663v-.048l-.012.034Z" transform="translate(-11 -1.641)" fill="#ffc023"/>
      <path id="Trazado_32048" data-name="Trazado 32048" d="M234.427,163.427a.915.915,0,0,0,.149-.435Z" transform="translate(-11.117 -1.223)" fill="#ffc023"/>
      <path id="Trazado_32049" data-name="Trazado 32049" d="M218.029,162.4l-1.059-3.136a15.113,15.113,0,0,0-8.278,10.393C210.867,165.915,214.119,162.586,218.029,162.4Z" transform="translate(-7.016 -0.628)" fill="#ffe697"/>
      <path id="Trazado_32050" data-name="Trazado 32050" d="M235.683,159.241l-1.073,3.139a21.378,21.378,0,0,1,8.475,4.9A14.316,14.316,0,0,0,235.683,159.241Z" transform="translate(-11.146 -0.625)" fill="#ffe697"/>
      <path id="Trazado_32051" data-name="Trazado 32051" d="M230.37,162.432a.915.915,0,0,1-.149.435l-.605,1.77v.048l-.012-.014-.777,2.272a.6.6,0,0,1-1.128-.386l1.917-5.6v-.807c-3.109,0-10.183-2.434-10.535,1.982l1.5,4.428a.6.6,0,0,1-.373.755.609.609,0,0,1-.191.031.6.6,0,0,1-.564-.405l-1.525-4.51c-3.91.191-7.162,3.52-9.337,7.257a20.024,20.024,0,0,0-.5,6.142,43.552,43.552,0,0,1,7.982-.78,62.453,62.453,0,0,1,18.654-.163,19.383,19.383,0,0,1,5.43.908,21.425,21.425,0,0,0-1.3-8.476,21.378,21.378,0,0,0-8.475-4.9Z" transform="translate(-6.911 -0.663)" fill="#ffc023"/>
      <path id="Trazado_32052" data-name="Trazado 32052" d="M230.964,161.995c0,.269,1.259-.268,1.259,0l.249-4.408a1,1,0,0,0-.241-.484.908.908,0,0,0-.583-.362.932.932,0,0,0-.968.621l-.114-.04a.59.59,0,0,1-.671.366,18.184,18.184,0,0,0-7.9.039.594.594,0,0,1-.713-.449.576.576,0,0,1-.005-.214.9.9,0,0,0-.823-.319.945.945,0,0,0-.752.657.857.857,0,0,0,.039.622l-.044.019,1.233,3.65C220.934,158.2,231.79,158.579,230.964,161.995Z" transform="translate(-8.765 -0.226)" fill="#ffe697"/>
      <path id="Trazado_32053" data-name="Trazado 32053" d="M208.476,193.913l.073-.277-.006-.076h0a51.487,51.487,0,0,1-.363-7.379l-.036-.169a3.413,3.413,0,0,0-.928.648,6.116,6.116,0,0,0-1.6,4.356c.01,2.662,1.38,4.919,3.17,5.425l-.209-2.5Z" transform="translate(-6.525 -4.892)" fill="#f26b3a"/>
      <path id="Trazado_32054" data-name="Trazado 32054" d="M200.971,216.613l-.477.124a60.886,60.886,0,0,1-.576,6.9c.477.053.955.121,1.434.2Z" transform="translate(-5.617 -9.769)" fill="#fc7b4c"/>
      <path id="Trazado_32055" data-name="Trazado 32055" d="M208.79,269.535l-6.343.334-2.354-44.7c-.479-.08-.957-.148-1.434-.2-1.634,12.42-6.211,29.274-6.638,30.858.3,1.875,4.169,19.36,4.169,24.282,0,4.11-1.309,11.63-1.538,13.766L217.734,297l2.735-5.521v-3.017H197.684V282.11h22.784v-3.456H197.684V272.3h22.784V246.866l-7.129-18.247c-2.283-.525-4.554-1.222-6.8-1.877Z" transform="translate(-4.359 -11.1)" fill="#f26b3a"/>
      <path id="Trazado_32056" data-name="Trazado 32056" d="M212.056,216.8l-1.11-2.838-2.312.6.549,10.424c2.25.655,4.52,1.352,6.8,1.877l-3.828-9.8A.959.959,0,0,1,212.056,216.8Z" transform="translate(-7.007 -9.347)" fill="#fc7b4c"/>
      <path id="Trazado_32057" data-name="Trazado 32057" d="M244.95,193.528l.166.013-.242,2.888c1.79-.506,3.161-2.762,3.17-5.425a6.111,6.111,0,0,0-1.6-4.355,3.357,3.357,0,0,0-1.048-.706l-.07.32h.148a56.708,56.708,0,0,1-.428,6.334Z" transform="translate(-12.782 -4.881)" fill="#f26b3a"/>
      <path id="Trazado_32058" data-name="Trazado 32058" d="M238.975,201.794c0,.309-.018.62-.049.932a16.846,16.846,0,0,0,.921-6.174c-.83.171-1.619.319-2.384.459A7.965,7.965,0,0,1,238.975,201.794Z" transform="translate(-11.601 -6.572)" fill="#ffdfc6"/>
      <path id="Trazado_32059" data-name="Trazado 32059" d="M242.45,197.781a2.766,2.766,0,0,0,.837.284l.191-2.275c-.344.084-.688.171-1.028.249Z" transform="translate(-12.396 -6.45)" fill="#ffc023"/>
      <path id="Trazado_32060" data-name="Trazado 32060" d="M210.777,198.068a2.768,2.768,0,0,0,.838-.283v-1.717c-.336-.082-.681-.166-1.026-.254Z" transform="translate(-7.318 -6.454)" fill="#ffc023"/>
      <path id="Trazado_32061" data-name="Trazado 32061" d="M213.624,196.543a15.69,15.69,0,0,0,.839,5.768c-.009-.173-.027-.346-.027-.518a7.968,7.968,0,0,1,1.5-4.763C215.164,196.877,214.4,196.717,213.624,196.543Z" transform="translate(-7.801 -6.57)" fill="#ffdfc6"/>
      <path id="Trazado_32062" data-name="Trazado 32062" d="M168.127,301.946l11.311,1.288c.078-.755.155-1.453.223-1.993a.546.546,0,0,1,.045-.137l-11.839-.992C167.946,300.62,168.034,301.252,168.127,301.946Z" transform="translate(-0.509 -23.076)" fill="#c3502c"/>
      <path id="Trazado_32063" data-name="Trazado 32063" d="M185.289,263.409a15.313,15.313,0,0,0,1.1-2.407A44.145,44.145,0,0,1,174.5,256.3c-.136.939-.328,1.82-.533,2.729l-.044.2a41.716,41.716,0,0,0,10.83,5.243C184.921,264.115,185.105,263.76,185.289,263.409Z" transform="translate(-1.474 -16.093)" fill="#e2c2a9"/>
      <path id="Trazado_32064" data-name="Trazado 32064" d="M184.135,265.018a41.715,41.715,0,0,1-10.83-5.243c-.1.432-.2.875-.293,1.348-.79,3.874-2.082,11.729-2.394,15.719-.362,4.615-.541,9.792-.549,15.8l8.759.733c.446-1.93.941-3.57,1.422-5.146a53.866,53.866,0,0,0,2.679-14.574h.056c-.036-2.453,0-5.76.609-7.422A12.442,12.442,0,0,1,184.135,265.018Z" transform="translate(-0.86 -16.648)" fill="#ffdfc6"/>
      <path id="Trazado_32065" data-name="Trazado 32065" d="M181.525,225.255c-2.186,2.718-4.022,6.575-5.968,10.659-.841,1.766-1.7,3.559-2.6,5.315l2.172,1.072c3.742-8.341,6.884-17.088,15.639-18.118a17.369,17.369,0,0,1,3.687-.15c.191-1.492.344-2.931.438-4.268C190.288,219.662,183.977,222.207,181.525,225.255Z" transform="translate(-1.32 -10.271)" fill="#30c3b8"/>
      <path id="Trazado_32066" data-name="Trazado 32066" d="M191.176,224.986c-8.755,1.03-11.9,9.777-15.639,18.118l14.226,7.018a240.732,240.732,0,0,0,5.1-25.286A17.369,17.369,0,0,0,191.176,224.986Z" transform="translate(-1.732 -11.074)" fill="#19b2a7"/>
      <path id="Trazado_32067" data-name="Trazado 32067" d="M178.637,311.128l-.008-.016a.591.591,0,0,1-.061-.319c0-.011.018-.221.049-.565.419-4.556-6.746-.708-10.065-1.282l.085.737a.6.6,0,0,1-.124.436c-1.181,1.5-1.872,3.891-2.118,7.389a.6.6,0,0,1,.041.236l-.344,10.752c-.045,1.553.414,2.267.888,2.286a1.179,1.179,0,0,0,.949-1.237l.613-6.5a.6.6,0,0,1,.65-.537.6.6,0,0,1,.537.649l-.554,5.863-.01.541c-.047,2.171.082,2.77,1.08,2.839a.47.47,0,0,0,.374-.124c.745-.691.758-3.558.769-5.863,0-1.119.01-2.276.082-3.294a.6.6,0,0,1,.636-.552.6.6,0,0,1,.551.636c-.069.979-.074,2.117-.079,3.215-.006,1.425-.017,2.75-.136,3.873a.549.549,0,0,1,.018.105c-.005.2-.018.405-.032.624a4.532,4.532,0,0,0,.209,2.268c.218.372.448.538.7.481a1.593,1.593,0,0,0,.957-1.352c.037-.394.052-.8.062-1.207,0-.106-.014-.207-.01-.318a.461.461,0,0,1,.018-.076c0-.083,0-.167.005-.25.005-.32.009-.639.02-.956l.207-5.963a.611.611,0,0,1,.617-.575.6.6,0,0,1,.574.617l-.207,5.963c-.011.309-.016.62-.02.931,0,.239-.009.481-.016.724a1.969,1.969,0,0,0,.869,1.606.95.95,0,0,0,.552-.221.977.977,0,0,0,.3-.741c.055-1.6.1-2.994.14-4.267.1-3.254.182-5.683.34-8.55C177.382,316.213,177.465,313.38,178.637,311.128Z" transform="translate(-0.226 -24.329)" fill="#ffe697"/>
      <path id="Trazado_32068" data-name="Trazado 32068" d="M184.517,322.316a37.4,37.4,0,0,1-1.116-5.852c-.261-.419-1.143-1.881-2.59-4.738-1.172,2.251-1.255,5.085-.892,8.007.014-.247.028-.492.043-.746,0-.017.011-.03.013-.047a.555.555,0,0,1,.041-.144c.009-.019.015-.038.026-.056a.624.624,0,0,1,.128-.157l.009-.009a.6.6,0,0,1,.159-.093c.022-.009.043-.018.066-.025a.511.511,0,0,1,.054-.02.405.405,0,0,1,.071,0,.4.4,0,0,1,.062-.009.378.378,0,0,1,.044.012.526.526,0,0,1,.135.035.58.58,0,0,1,.081.037.562.562,0,0,1,.1.08.615.615,0,0,1,.068.072.561.561,0,0,1,.059.1.544.544,0,0,1,.043.113c0,.017.015.03.018.047.72,4.3,2.355,6.136,3.218,6.286.166.03.408.023.618-.35A8.825,8.825,0,0,0,184.517,322.316Z" transform="translate(-2.4 -24.927)" fill="#ffc023"/>
      <path id="Trazado_32069" data-name="Trazado 32069" d="M179.4,305l-11.033-1.257c.219,1.728.434,3.545.549,4.531,3.319.574,10.871-2.107,10.065,1.282C179.058,308.648,179.223,306.787,179.4,305Z" transform="translate(-0.589 -23.655)" fill="#ffc023"/>
      <path id="Trazado_32070" data-name="Trazado 32070" d="M219.617,206.384a.59.59,0,0,1,.454.111,5.284,5.284,0,0,0,.752.456c3.683,1.335,8.241-.328,11.575-1.995a3.552,3.552,0,0,0,1.716-1.469,9.448,9.448,0,0,0,.251-2.1c0-5.462-4.945-7.4-9.179-7.4s-9.178,1.938-9.178,7.4c0,.034.005.067.005.1a26.392,26.392,0,0,1,1.267,2.714A7.655,7.655,0,0,0,219.617,206.384Zm-.38-4.634a.594.594,0,0,1,.834-.117,9.141,9.141,0,0,0,5.155,1.434c1.736,0,3.989-.377,5.1-1.437a.6.6,0,1,1,.82.864c-1.723,1.636-4.97,1.764-5.924,1.764a10.243,10.243,0,0,1-5.873-1.675A.6.6,0,0,1,219.237,201.75Zm0,2.43a.594.594,0,0,1,.834-.116,9.147,9.147,0,0,0,5.155,1.433c1.736,0,3.989-.377,5.1-1.437a.6.6,0,1,1,.82.864c-1.723,1.636-4.97,1.764-5.924,1.764a10.243,10.243,0,0,1-5.873-1.675A.6.6,0,0,1,219.237,204.18Z" transform="translate(-8.182 -6.163)" fill="#fff"/>
      <path id="Trazado_32071" data-name="Trazado 32071" d="M234.114,204.91a3.552,3.552,0,0,1-1.716,1.469c-3.334,1.667-7.892,3.33-11.575,1.995a10.049,10.049,0,0,0,4.4.977c1.736,0,3.989-.377,5.1-1.437a.6.6,0,1,1,.82.864c-1.723,1.637-4.97,1.764-5.924,1.764a10.242,10.242,0,0,1-5.873-1.674.6.6,0,0,1-.116-.835.587.587,0,0,1,.38-.227,7.655,7.655,0,0,1-2.337-2.183,26.392,26.392,0,0,0-1.267-2.714c.055,4.748,4.041,10.215,9.173,10.215,3.488,0,6.442-2.527,8-5.634l-.068-.077c.076-.067.141-.15.214-.221A11.377,11.377,0,0,0,234.114,204.91Z" transform="translate(-8.183 -7.585)" fill="#e8e8e8"/>
      <path id="Trazado_32072" data-name="Trazado 32072" d="M219.04,229.468l6.6,16.9,6.5-17.943c-1.032.331-2.049.646-3.045.918A21.272,21.272,0,0,1,219.04,229.468Z" transform="translate(-8.665 -11.651)" fill="#19b2a7"/>
      <path id="Trazado_32073" data-name="Trazado 32073" d="M225.05,222.941c-.285,0-.57-.007-.857-.02a16.615,16.615,0,0,1-8.948-2.969l3.191,8.166a21.272,21.272,0,0,0,10.061-.125c1-.272,2.012-.587,3.045-.918l2.482-6.848A15.032,15.032,0,0,1,225.05,222.941Z" transform="translate(-8.06 -10.301)" fill="#30c3b8"/>
      <path id="Trazado_32074" data-name="Trazado 32074" d="M223.9,220.32c4.664.219,8.917-1.469,10.76-4.222l.656-1.808a4.425,4.425,0,0,1-2.876-2.879,9.936,9.936,0,0,1-7.724,4.208,10.044,10.044,0,0,1-7.956-4.523,6.493,6.493,0,0,1-3.723,2.687l.868,2.223C215.966,218.482,219.745,220.125,223.9,220.32Z" transform="translate(-7.708 -8.889)" fill="#ffdfc6"/>
      <path id="Trazado_32075" data-name="Trazado 32075" d="M227.185,185.712q-.6.009-1.2.012a.918.918,0,0,0,.558.223A1.209,1.209,0,0,0,227.185,185.712Z" transform="translate(-9.771 -4.844)" fill="#ffc023"/>
      <path id="Trazado_32076" data-name="Trazado 32076" d="M221.949,191.649l-.018-.021a3.6,3.6,0,0,1,2.294-1.121h0a3.627,3.627,0,0,1,2.434,1.167,10.253,10.253,0,0,1,5.518,2.569c1.832-.326,3.918-.732,6.08-1.269l.055-.534c.229-2.2.4-3.837.417-5.808a64,64,0,0,0-9.821-.9,10.781,10.781,0,0,0-2.387.193,2.362,2.362,0,0,0-.746.448,2.922,2.922,0,0,1-1.774.766,2.44,2.44,0,0,1-1.665-.78,1.72,1.72,0,0,0-.646-.433,10.565,10.565,0,0,0-2.387-.193,56.857,56.857,0,0,0-9.242.963,51.177,51.177,0,0,0,.332,6.253c2.071.531,3.938.952,5.873,1.321A10.289,10.289,0,0,1,221.949,191.649Z" transform="translate(-7.233 -4.848)" fill="#ade9ff"/>
      <path id="Trazado_32077" data-name="Trazado 32077" d="M269.553,303.372l11.372-.644c.039-.8.089-1.548.154-2.16l-11.8.623a.547.547,0,0,1,.041.122C269.394,301.87,269.473,302.592,269.553,303.372Z" transform="translate(-16.672 -23.149)" fill="#c3502c"/>
      <path id="Trazado_32078" data-name="Trazado 32078" d="M265.009,266.479c.607,1.661.644,4.969.609,7.422h.055a53.932,53.932,0,0,0,2.679,14.574c.487,1.59.986,3.246,1.436,5.2l8.748-.462c0-6.151-.182-11.428-.551-16.128-.312-3.995-1.6-11.848-2.395-15.719,0-.022-.008-.042-.013-.064a70.909,70.909,0,0,1-10.879,4.439C264.815,266,264.924,266.246,265.009,266.479Z" transform="translate(-15.941 -16.891)" fill="#ffdfc6"/>
      <path id="Trazado_32079" data-name="Trazado 32079" d="M274.294,255.656l-.151.078c-4.528,2.347-8.265,4.27-11.686,5.109a14.293,14.293,0,0,0,1.115,2.464c.27.515.541,1.038.768,1.534a70.906,70.906,0,0,0,10.879-4.439c-.107-.521-.216-1.012-.323-1.485A30.244,30.244,0,0,1,274.294,255.656Z" transform="translate(-15.584 -15.991)" fill="#e2c2a9"/>
      <path id="Trazado_32080" data-name="Trazado 32080" d="M196.38,329.525l-.207,2.2,8.746-14.877c-2.352-1.4-4.7-2.519-7.056-3.711C197.551,317.052,197.009,322.832,196.38,329.525Z" transform="translate(-5.021 -25.152)" fill="#c3502c"/>
      <path id="Trazado_32081" data-name="Trazado 32081" d="M198.431,308.816c-.043.9-.129,2.131-.248,3.632,2.352,1.193,4.7,2.311,7.056,3.711l1.72-2.925-.08-.024.08.024,1.776-3.021Z" transform="translate(-5.341 -24.463)" fill="#a6330f"/>
      <path id="Trazado_32082" data-name="Trazado 32082" d="M269.59,311.24a.592.592,0,0,1-.062.319c-1.472,2.907-2.361,4.374-2.608,4.771-.259,1.68-.438,3.13-.6,4.414-.152,1.231-.272,2.2-.414,2.972-.1.525-.007.874.124.984a.334.334,0,0,0,.312.005c.7-.25,2.086-1.783,2.842-5.942,0-.017.013-.029.018-.045a.574.574,0,0,1,.045-.113.473.473,0,0,1,.14-.179.623.623,0,0,1,.08-.061.606.606,0,0,1,.114-.05.549.549,0,0,1,.1-.027.511.511,0,0,1,.051-.013.481.481,0,0,1,.076.01.433.433,0,0,1,.066,0c.015,0,.026.013.04.016a.819.819,0,0,1,.224.116c.008.007.015.015.024.023a.721.721,0,0,1,.084.105,16.5,16.5,0,0,0-.7-7.77C269.575,311.061,269.589,311.23,269.59,311.24Z" transform="translate(-16.128 -24.775)" fill="#ffc023"/>
      <path id="Trazado_32083" data-name="Trazado 32083" d="M281.237,310.477a2.5,2.5,0,0,0-.245-.393.59.59,0,0,1-.128-.368c0-.171,0-2.687.085-5.155l-11.2.634c.176,1.794.34,3.647.416,4.526A92.334,92.334,0,0,0,281.237,310.477Z" transform="translate(-16.746 -23.785)" fill="#ffc023"/>
      <path id="Trazado_32084" data-name="Trazado 32084" d="M281.316,311.172c-3.692.124-10.578-4.559-11.076-.756l.006.063a16.5,16.5,0,0,1,.7,7.77c.011.016.026.028.035.044a.587.587,0,0,1,.025.059.559.559,0,0,1,.042.147.343.343,0,0,1,.013.042c.19,3.208.271,5.762.383,9.3.04,1.273.085,2.67.14,4.267a.98.98,0,0,0,.3.741.955.955,0,0,0,.552.22,1.972,1.972,0,0,0,.869-1.606c-.006-.243-.012-.485-.015-.724-.005-.312-.009-.623-.02-.931l-.208-5.963a.6.6,0,0,1,.575-.617.613.613,0,0,1,.616.575l.207,5.963c.011.317.016.635.02.956,0,.082,0,.167.006.25a.553.553,0,0,1,.019.076c0,.111-.007.212-.01.318.01.406.024.813.062,1.207a1.591,1.591,0,0,0,.957,1.352c.246.057.479-.108.7-.481a4.523,4.523,0,0,0,.209-2.268c-.013-.219-.026-.429-.032-.624a.552.552,0,0,1,.018-.105c-.119-1.123-.129-2.448-.136-3.873,0-1.1-.01-2.236-.079-3.215a.6.6,0,0,1,.552-.636.608.608,0,0,1,.635.552c.072,1.019.077,2.176.082,3.294.011,2.3.024,5.172.768,5.863a.467.467,0,0,0,.374.124c1-.069,1.128-.668,1.08-2.839l-.009-.551-.554-5.852a.6.6,0,0,1,.537-.649.6.6,0,0,1,.649.537l.612,6.473c.039.787.546,1.259.951,1.263.473-.019.931-.734.888-2.288l-.1-6.285C282.6,322.27,282.711,313.837,281.316,311.172Z" transform="translate(-16.825 -24.481)" fill="#ffe697"/>
      <path id="Trazado_32085" data-name="Trazado 32085" d="M253.523,308.771,242.18,310.31l2.592,3.893c1.045-.089,2.09-.174,3.136-.244-1.046.07-2.091.155-3.136.244l1.832,2.751a46.018,46.018,0,0,0,7.444-1.5C253.756,312.547,253.566,310.243,253.523,308.771Z" transform="translate(-12.353 -24.456)" fill="#a6330f"/>
      <path id="Trazado_32086" data-name="Trazado 32086" d="M254.887,316.716a46.018,46.018,0,0,1-7.444,1.5l9.168,13.766C255.909,326.087,255.3,320.8,254.887,316.716Z" transform="translate(-13.192 -25.722)" fill="#c3502c"/>
      <path id="Trazado_32087" data-name="Trazado 32087" d="M280.626,250.677c-.789-1.2-1.527-2.463-2.229-3.758l-3.881,1.807q.96,2.043,1.822,4.133C277.7,252.154,279.113,251.429,280.626,250.677Z" transform="translate(-17.506 -14.599)" fill="#33aea2"/>
      <path id="Trazado_32088" data-name="Trazado 32088" d="M272.112,249.069l-12.68,5.9c.6,2.1,1,3.407,1.017,3.462l.034.11-.01.115-.019.228c3.595-.58,7.63-2.655,12.658-5.261l.822-.425Q273.068,251.113,272.112,249.069Z" transform="translate(-15.102 -14.941)" fill="#1b9c8f"/>
      <path id="Trazado_32089" data-name="Trazado 32089" d="M282.161,251.956c-.15-.224-.307-.462-.377-.567.124.19.245.383.372.57Z" transform="translate(-18.665 -15.311)" fill="#ffc023"/>
      <path id="Trazado_32090" data-name="Trazado 32090" d="M241.932,214.8l-1.421-.622-.951,2.624.065.038c-.055.1-.12.187-.181.281l-3.106,8.57c1.679-.546,3.388-1.1,5.1-1.551Z" transform="translate(-11.422 -9.381)" fill="#fc7b4c"/>
      <path id="Trazado_32091" data-name="Trazado 32091" d="M246.521,224.857l-2.37,44.995-6.342-.334,2.3-43.677c-1.714.451-3.423,1-5.1,1.551l-7.016,19.358v25.535h22.784v6.352H227.992v3.456h22.784v6.352H227.992v2.736l3.224,5.736,22.557-3.062-1.522-14.763,2.016-24.273c-.515-1.68-5.418-17.874-6.9-29.947Q246.947,224.854,246.521,224.857Z" transform="translate(-10.092 -11.083)" fill="#f26b3a"/>
      <path id="Trazado_32092" data-name="Trazado 32092" d="M250.332,218.151l-.3,5.637q.426,0,.85.014a52.086,52.086,0,0,1-.421-5.594Z" transform="translate(-13.604 -10.014)" fill="#f26b3a"/>
      <path id="Trazado_32093" data-name="Trazado 32093" d="M254.245,460.495a18.22,18.22,0,0,0-1.327,2.662h0A3.525,3.525,0,0,0,254.245,460.495Z" transform="translate(-14.064 -48.637)" fill="#ffc023"/>
      <path id="Trazado_32094" data-name="Trazado 32094" d="M254.472,460.026c-.077.118-.153.235-.228.358a3.525,3.525,0,0,1-1.327,2.662l.943.313h18.174L272,462.083a4.583,4.583,0,0,0-.691-2.286C266.156,461.292,258.971,464.065,254.472,460.026Z" transform="translate(-14.064 -48.526)" fill="#ffc023"/>
      <path id="Trazado_32095" data-name="Trazado 32095" d="M264.85,454.464c-2.054-.391-6.685-.546-10.083,4.685,4.5,4.039,11.684,1.267,16.84-.229A10.316,10.316,0,0,0,264.85,454.464Z" transform="translate(-14.359 -47.648)" fill="#ffe697"/>
      <path id="Trazado_32096" data-name="Trazado 32096" d="M195.377,336.7c-.82,8.774-1.791,19.429-2.557,29.445l2.951.272a275.291,275.291,0,0,1,5.433-39.63Z" transform="translate(-4.486 -27.327)" fill="#fc7b4c"/>
      <path id="Trazado_32097" data-name="Trazado 32097" d="M238.294,313.709l-2.552-3.832-6.981.948-.919.124-3.526-6.019-2.982,6.019-.709-.019,0,.019-.166-.023-8.555-1.159-1.882,3.2C219.444,315.748,228.869,314.559,238.294,313.709Z" transform="translate(-7.227 -23.844)" fill="#d54e1d"/>
      <path id="Trazado_32098" data-name="Trazado 32098" d="M236.113,315.233c-9.425.851-18.85,2.039-28.275-.741l-6.074,10.333a275.291,275.291,0,0,0-5.433,39.63l21.248,1.958c.954-9.154,1.648-18.2,2.111-24.244.307-4,.458-5.95.551-6.391a1.872,1.872,0,0,1,2.1-1.236,1.514,1.514,0,0,1,1.583,1.325c.156,2.053,1.88,16.269,3.979,30.516l19.67-1.794c-.942-12.18-1.408-24.45-2.973-36.623Z" transform="translate(-5.046 -25.368)" fill="#f26b3a"/>
      <path id="Trazado_32099" data-name="Trazado 32099" d="M258.34,340.245c-.14-1.165-.277-2.309-.412-3.442l-4.185-6.284c1.565,12.173,2.031,24.443,2.973,36.623l4.676-.426C260.408,357.512,259.264,347.96,258.34,340.245Z" transform="translate(-14.196 -27.922)" fill="#fc7b4c"/>
      <path id="Trazado_32100" data-name="Trazado 32100" d="M263.272,450.229c-.23-.948-.586-2.4-.863-3.469a45.544,45.544,0,0,1-1.617-11.13,12.559,12.559,0,0,0-10.031,2.839c-5.24,4.076-5.992,12.187-3.644,19.155l.021,0,3.521,1.168C254.185,450.006,260.387,449.79,263.272,450.229Z" transform="translate(-12.938 -44.649)" fill="#ffc023"/>
      <path id="Trazado_32101" data-name="Trazado 32101" d="M250.071,437.717a12.559,12.559,0,0,1,10.031-2.839c-.022-1.357.015-2.708.093-4.12l-15.487.765c1.774,5.893-.149,14.321-.235,14.693l-.08.188a17.943,17.943,0,0,0-2.857,10.441h4.723l.167.028C244.079,449.9,244.83,441.793,250.071,437.717Z" transform="translate(-12.248 -43.898)" fill="#e5a61a"/>
      <path id="Trazado_32102" data-name="Trazado 32102" d="M195.483,375.291l-2.978-.274c-.5,6.679-.9,13.022-1.1,18.273l4.3.437A155.667,155.667,0,0,1,195.483,375.291Z" transform="translate(-4.261 -35.014)" fill="#ffc840"/>
      <path id="Trazado_32103" data-name="Trazado 32103" d="M196.224,375.343a155.667,155.667,0,0,0,.226,18.436l18.38,1.867-.112,1.092c.546-2.864,1.123-6.478,1.712-11.057.352-2.736.677-5.56.978-8.385Z" transform="translate(-5.002 -35.066)" fill="#ffc023"/>
      <path id="Trazado_32104" data-name="Trazado 32104" d="M202.194,438.292c-3.148-2.624-7.025-3.426-11.125-3.923a37.946,37.946,0,0,1-1.258,11.485,25.6,25.6,0,0,1-2.058,4.186,9.6,9.6,0,0,1,4.813,3.184c.187-.189.379-.366.557-.569-.178.2-.371.38-.557.569a13.441,13.441,0,0,1,2.492,4.721h9.163C207.145,451.266,208.08,443.643,202.194,438.292Z" transform="translate(-3.679 -44.473)" fill="#ffc023"/>
      <path id="Trazado_32105" data-name="Trazado 32105" d="M207.732,446.346l-.033-.105c-.067-.317-1.569-7.516.212-13.134l-16.335-2.121c.051.891.085,1.854.1,2.844,4.1.5,7.977,1.3,11.125,3.923,5.886,5.351,4.951,12.973,2.027,19.652h4.382A21.01,21.01,0,0,0,207.732,446.346Z" transform="translate(-4.288 -43.934)" fill="#e5a61a"/>
      <path id="Trazado_32106" data-name="Trazado 32106" d="M251.779,465.062l-5.6-1.855h-4.544a15.151,15.151,0,0,0,.24,1.563l4.578.027,2.019.627c.029,0,.055-.008.087-.008a1.373,1.373,0,0,1,.915.319l1.986.617.059.006H270.3l-.031-1.265h-18.3Z" transform="translate(-12.266 -49.069)" fill="#f26b3a"/>
      <path id="Trazado_32107" data-name="Trazado 32107" d="M197.718,408.15c.2,1.388.414,2.775.662,4.163l12.011.765.751-.36c.362-.034,1.242-.6,2.394-4.518A24.746,24.746,0,0,1,197.718,408.15Z" transform="translate(-5.267 -40.294)" fill="#d54e1d"/>
      <path id="Trazado_32108" data-name="Trazado 32108" d="M213.364,406.7c.441-1.5.922-3.495,1.429-6.142L196.64,398.71q.328,3.966.906,7.936A24.746,24.746,0,0,0,213.364,406.7Z" transform="translate(-5.095 -38.79)" fill="#f26b3a"/>
      <path id="Trazado_32109" data-name="Trazado 32109" d="M191.992,411.4l5.358.341c-.248-1.388-.462-2.775-.662-4.163a19.7,19.7,0,0,1-5.433-3.031C191.274,408.133,191.5,410.595,191.992,411.4Z" transform="translate(-4.237 -39.72)" fill="#df5e2f"/>
      <path id="Trazado_32110" data-name="Trazado 32110" d="M191.34,398.173c-.063,1.975-.093,3.774-.085,5.356a19.7,19.7,0,0,0,5.433,3.031q-.574-3.968-.906-7.936Z" transform="translate(-4.237 -38.704)" fill="#fc7b4c"/>
      <path id="Trazado_32111" data-name="Trazado 32111" d="M195.629,414.341l-5.678-.346-1.158,12.811,1.058.119v-.013l.737.1,2.672.3C192.592,423.21,191.988,416.275,195.629,414.341Z" transform="translate(-3.845 -41.226)" fill="#d16341"/>
      <path id="Trazado_32112" data-name="Trazado 32112" d="M212.589,415.395l-16.209-.988c-3.642,1.933-3.037,8.869-2.37,12.965l17.28,1.938Z" transform="translate(-4.596 -41.292)" fill="#c3502c"/>
      <path id="Trazado_32113" data-name="Trazado 32113" d="M253.676,375.5l-19.587,1.786c.976,6.563,2.024,13.057,3.028,18.3l17.657-1.717a1.7,1.7,0,0,1,.915-.49C254.763,387.459,254.156,381.491,253.676,375.5Z" transform="translate(-11.063 -35.091)" fill="#ffc023"/>
      <path id="Trazado_32114" data-name="Trazado 32114" d="M262.1,374.988l-4.71.43c.48,5.992,1.087,11.96,2.012,17.883a1.7,1.7,0,0,0-.915.49l5.291-.514C263.4,387.949,262.8,381.583,262.1,374.988Z" transform="translate(-14.777 -35.009)" fill="#ffc840"/>
      <path id="Trazado_32115" data-name="Trazado 32115" d="M189.694,457.161a8.562,8.562,0,0,0-7.435-3.139c-3.194.234-6,2.008-7.018,4.262A12.656,12.656,0,0,0,189.694,457.161Z" transform="translate(-1.685 -47.601)" fill="#ffe697"/>
      <path id="Trazado_32116" data-name="Trazado 32116" d="M174.681,461.672h17.043a12.008,12.008,0,0,0-2.119-3.911,12.656,12.656,0,0,1-14.452,1.123,4.544,4.544,0,0,0-.384,1.31Z" transform="translate(-1.595 -48.201)" fill="#ffc023"/>
      <path id="Trazado_32117" data-name="Trazado 32117" d="M258.33,414.933H241.082l1.117,13,1.594-.078,12.217-.6A21.794,21.794,0,0,0,258.33,414.933Z" transform="translate(-12.178 -41.375)" fill="#c3502c"/>
      <path id="Trazado_32118" data-name="Trazado 32118" d="M264.148,414.933c-.006,0-.01.008-.015.01l0-.01H261.16a21.794,21.794,0,0,1-2.32,12.314l5.385-.266,1.334-.066V414.933Z" transform="translate(-15.008 -41.375)" fill="#d16341"/>
      <path id="Trazado_32119" data-name="Trazado 32119" d="M256.735,405.628a45.963,45.963,0,0,0-2.251-6.745l-16.521,1.606c.315,1.6.625,3.055.926,4.346A32.141,32.141,0,0,0,256.735,405.628Z" transform="translate(-11.681 -38.818)" fill="#f26b3a"/>
      <path id="Trazado_32120" data-name="Trazado 32120" d="M239.064,405.964c.789,3.386,1.516,5.6,2.113,5.94l.622.409h16.111a39.958,39.958,0,0,0-1-5.557A32.141,32.141,0,0,1,239.064,405.964Z" transform="translate(-11.856 -39.946)" fill="#d54e1d"/>
      <path id="Trazado_32121" data-name="Trazado 32121" d="M263.9,398.156l-6.28.611a45.963,45.963,0,0,1,2.251,6.745c1.451-.314,2.9-.7,4.323-1.165C264.149,402.55,264.048,400.466,263.9,398.156Z" transform="translate(-14.813 -38.702)" fill="#fc7b4c"/>
      <path id="Trazado_32122" data-name="Trazado 32122" d="M260.294,406.686a39.962,39.962,0,0,1,1,5.557h2.72c.523-.635.688-3.081.6-6.722C263.189,405.982,261.745,406.372,260.294,406.686Z" transform="translate(-15.24 -39.875)" fill="#df5e2f"/>
      <path id="Trazado_32123" data-name="Trazado 32123" d="M174.584,463.831l-.061,1.038h31.9a10.3,10.3,0,0,0,0-1.038Z" transform="translate(-1.57 -49.168)" fill="#f26b3a"/>
      <path id="Trazado_32124" data-name="Trazado 32124" d="M225.815,211.459c.954,0,4.2-.127,5.924-1.764a.6.6,0,1,0-.82-.864c-1.115,1.059-3.368,1.437-5.1,1.437a9.147,9.147,0,0,1-5.155-1.433.6.6,0,0,0-.718.951A10.242,10.242,0,0,0,225.815,211.459Z" transform="translate(-8.771 -8.502)" fill="#3d3d3d"/>
      <path id="Trazado_32125" data-name="Trazado 32125" d="M225.815,208.568c.954,0,4.2-.128,5.924-1.764a.6.6,0,1,0-.82-.864c-1.115,1.059-3.368,1.437-5.1,1.437a9.147,9.147,0,0,1-5.155-1.433.6.6,0,1,0-.718.95A10.243,10.243,0,0,0,225.815,208.568Z" transform="translate(-8.771 -8.042)" fill="#3d3d3d"/>
      <path id="Trazado_32126" data-name="Trazado 32126" d="M225.815,205.677c.954,0,4.2-.128,5.924-1.764a.6.6,0,1,0-.82-.864c-1.115,1.059-3.368,1.437-5.1,1.437a9.141,9.141,0,0,1-5.155-1.434.6.6,0,0,0-.718.951A10.243,10.243,0,0,0,225.815,205.677Z" transform="translate(-8.771 -7.581)" fill="#3d3d3d"/>
      <path id="Trazado_32127" data-name="Trazado 32127" d="M266.963,294.068c.006-3.73-.246-6.426-1.654-8.338,0-1.143.034-6.849.366-8.844a.567.567,0,0,0,0-.066.408.408,0,0,0,.009-.063.463.463,0,0,0-.013-.049.542.542,0,0,0-.038-.137.685.685,0,0,0-.03-.067.636.636,0,0,0-.113-.142l-.024-.023a.632.632,0,0,0-.152-.09.483.483,0,0,0-.066-.025c-.021-.006-.039-.019-.061-.024s-.045,0-.067,0a.52.52,0,0,0-.061-.009l-1.272.067c0-6.155-.184-11.444-.552-16.159-.317-4.04-1.62-11.962-2.416-15.863-.113-.554-.229-1.072-.342-1.573a25.665,25.665,0,0,1-.624-3.59c1.279-.661,2.612-1.342,4.026-2.042l.819-.385-.286-.773a83.434,83.434,0,0,1-5.769-10.744c-1.975-4.148-3.841-8.067-6.115-10.895-2.669-3.316-9.541-6.085-14.469-5.926,0-.168-.009-.343-.009-.507l.048-1.6-7.518-2.053L228.4,203.2l-.4,1.092c-1.27-.388-1.954-1.244-2.42-3.015q.277-.461.515-.942a12.708,12.708,0,0,0,3.254-8.038,3.972,3.972,0,0,0,1.986.557l.111,0c2.744-.081,4.986-3.1,5-6.719a7.213,7.213,0,0,0-1.96-5.213,4.236,4.236,0,0,0-2.191-1.183,3.475,3.475,0,0,0,2.446-1.676,2.552,2.552,0,0,0-.329-2.43c.414-8.533-3.122-15.224-9.525-18.151a.568.568,0,0,0-.013-.161A2.237,2.237,0,0,0,223,155.329a2.1,2.1,0,0,0-1.949.906,19.394,19.394,0,0,0-7.5-.011,2.107,2.107,0,0,0-2.028-.884,2.13,2.13,0,0,0-1.723,1.485,2.067,2.067,0,0,0-.086.6c-6.586,2.929-10.294,9.708-9.729,17.836a3.034,3.034,0,0,0-.444,2.857,3.416,3.416,0,0,0,2.2,1.7,4.321,4.321,0,0,0-1.885,1.089,7.22,7.22,0,0,0-1.961,5.213c.014,3.624,2.256,6.638,5,6.719l.112,0a3.923,3.923,0,0,0,1.709-.4,13.063,13.063,0,0,0,2.5,6.775l.159-.123a13.077,13.077,0,0,0,.68,1.51c.076.145.169.28.25.422a.291.291,0,0,0-.06.069c-.828,1.675-1.833,2.6-3.352,2.7l-.141-.361-.092-.235-3.1.8-6.274,1.626-1.6.415v.461c0,.569-.02,1.176-.05,1.8-4.924-.115-11.713,2.637-14.361,5.93-2.274,2.828-4.14,6.746-6.116,10.895a82.465,82.465,0,0,1-5.836,10.847l-.285.385c1.478,1,3.4,2.366,4.864,3.209a29.123,29.123,0,0,1-.578,3.1c-.113.5-.229,1.016-.342,1.568-.794,3.906-2.1,11.83-2.414,15.864-.361,4.621-.541,9.8-.551,15.795l-.883-.074a.985.985,0,0,0-1.009,1.063c0,2.022.936,7.193,1.072,8.367-1.691,2.307-2.428,6.227-2.314,12.3l-.211,6.583c-.072,2.529,1,3.472,2.033,3.512l.069,0a1.85,1.85,0,0,0,1.057-.349,2.1,2.1,0,0,0,2.1,1.964c.045,0,.089,0,.132,0a1.629,1.629,0,0,0,1.047-.376,2.7,2.7,0,0,0,.268.669,1.868,1.868,0,0,0,1.633,1.083,1.625,1.625,0,0,0,.348-.037,2.528,2.528,0,0,0,1.63-1.472,2.61,2.61,0,0,0,.792.584.607.607,0,0,0,.184.051c.053.005.11.008.171.008a2.153,2.153,0,0,0,1.379-.512,2.129,2.129,0,0,0,.712-1.6c.054-1.6.1-3,.14-4.27.066-2.07.121-3.8.193-5.525.947,2.343,2.2,3.413,3.193,3.587a1.963,1.963,0,0,0,.324.029,1.74,1.74,0,0,0,1.537-.97c.361-.642.1-1.688-.345-3.42a35.382,35.382,0,0,1-1.1-5.807.587.587,0,0,0-.094-.272c-.008-.013-.905-1.406-2.539-4.619.084-.969.783-5.836.79-8.083,0-.788-.008-.66,0-.788a.6.6,0,0,0-.544-.643l-.623-.052c.429-1.82.9-3.389,1.363-4.9a54.843,54.843,0,0,0,2.659-13.821,1.527,1.527,0,0,0,.132-.863c-.062-3.676.117-6.116.532-7.252a20.041,20.041,0,0,1,1.016-2.128,13.415,13.415,0,0,0,1.213-2.747,2.372,2.372,0,0,0,.337.052c.73,4.67,4.32,19.624,4.32,23.833,0,4.733-1.682,14.118-1.692,14.212l-.066.578,2.923.4c-.137,3.094-.85,10.689-1.731,20.069-3,31.943-5.517,61.035-3.661,67.339l-1.489-.091-1.366,15.123,2.424.272c.255,4.2.252,9.881-1.085,14.117a27.017,27.017,0,0,1-2.155,4.287,11.136,11.136,0,0,0-2.355-.076c-4.411.323-8.063,3.164-8.5,6.649l-.3,5.009h.246a1.412,1.412,0,0,0,1.337,1.867,1.311,1.311,0,0,0,1.333-1.031,1.419,1.419,0,0,0,1.347,1.013,1.448,1.448,0,0,0,1.418-1.328h.005a1.319,1.319,0,0,0,1.356,1.313,1.3,1.3,0,0,0,1.343-1.188,1.449,1.449,0,0,0,2.146,1.226l.073-.045a1.4,1.4,0,0,0,.676-1.221h.014a1.406,1.406,0,1,0,2.809.022h.015a1.646,1.646,0,0,0,.729,1.178l.04.029a1.339,1.339,0,0,0,1.379,0l.04-.029a1.723,1.723,0,0,0,.718-1.035,1.443,1.443,0,0,0,2.872-.124h.145a1.5,1.5,0,0,0,2.988,0h.146a1.435,1.435,0,0,0,2.866,0h.085a1.46,1.46,0,1,0,2.92.008h.122a1.5,1.5,0,0,0,2.968.1,1.393,1.393,0,0,0,1.338.99,1.461,1.461,0,0,0,1.429-1.43l0-.066a1.251,1.251,0,0,0-.2-.7,11.656,11.656,0,0,0-.047-3.028.523.523,0,0,0-.175-.281,22.192,22.192,0,0,0-1.614-11.131c-.136-.679-1.5-7.852.373-12.989l2.829.318,1.525-16.347-2.031-.124c3.3-3.591,5.852-20.5,8.569-55.975.25-3.269.449-5.852.53-6.237.033-.158.409-.327.841-.292.279.021.478.124.483.2.032.558,6.22,54.933,10.494,61.8h-.571l1.327,15.433,2.286-.113c1.735,5.265.082,13.285-.132,14.264a18.737,18.737,0,0,0-2.515,14.514l.125.427h.229a1.425,1.425,0,0,0,.18,1.21,1.3,1.3,0,0,0,1.233.754,1.335,1.335,0,0,0,1.374-1.228,1.554,1.554,0,0,0,1.5,1.234,1.588,1.588,0,0,0,1.529-1.3.808.808,0,0,0,.145.181,1.382,1.382,0,0,0,1.4,1.529,1.356,1.356,0,0,0,1.395-1.212l.066.02a1.526,1.526,0,0,0,1.318,2.253,1.419,1.419,0,0,0,1.461-1.354l.056,0a1.446,1.446,0,0,0,1.459,1.644,1.43,1.43,0,0,0,1.471-1.439l.177.01a1.558,1.558,0,0,0,1.527,1.442,1.581,1.581,0,0,0,1.523-1.3l.215.008a1.509,1.509,0,0,0,.427.857,1.6,1.6,0,0,0,2.22,0,1.392,1.392,0,0,0,.409-.762l.224.006a1.443,1.443,0,0,0,2.853.063l.135,0a1.554,1.554,0,0,0,2.519.579l.051-.048a1.244,1.244,0,0,0,.305-.475l.15,0a1.557,1.557,0,0,0,1.473,1.092A1.588,1.588,0,0,0,259.3,419.1a1.716,1.716,0,0,0-.146-.621h.1l-.061-2.455h.065v-1.19h-.094l-.032-1.29c0-3.183-3.352-6.543-7.5-7.686-.2-.83-.662-2.73-1-4.046a43.725,43.725,0,0,1-1.48-15.009l2.6-.129V372.367h-1.774c1.594-4.813-.267-23.674-4.643-60.186-1.539-12.848-2.871-23.968-2.969-28.028l2.627-.356L243.355,268l1.9-22.829c.153-.021.308-.045.462-.072a13.1,13.1,0,0,0,1.22,2.773A20.211,20.211,0,0,1,247.949,250c.414,1.137.593,3.576.531,7.252a1.534,1.534,0,0,0,.132.863,54.882,54.882,0,0,0,2.659,13.821c.463,1.513.938,3.088,1.368,4.916l-.609.033a.6.6,0,0,0-.563.626c.007.135-.018.632,0,.806.281,2.23.706,7.114.79,8.083-1.633,3.214-2.53,4.606-2.539,4.619a.61.61,0,0,0-.089.233c-.272,1.751-.464,3.315-.62,4.572-.15,1.213-.267,2.17-.4,2.9a2.172,2.172,0,0,0,.524,2.107,1.375,1.375,0,0,0,.9.324,1.762,1.762,0,0,0,.583-.105c1-.359,1.912-1.52,2.618-3.267.074,1.752.129,3.506.2,5.609.041,1.274.085,2.672.14,4.27a2.077,2.077,0,0,0,2.089,2.112c.061,0,.119,0,.171-.008a.605.605,0,0,0,.185-.051,2.613,2.613,0,0,0,.793-.584,2.529,2.529,0,0,0,1.629,1.472,1.64,1.64,0,0,0,.349.037,1.866,1.866,0,0,0,1.633-1.083,2.7,2.7,0,0,0,.268-.669,1.629,1.629,0,0,0,1.047.376c.044,0,.088,0,.132,0a2.1,2.1,0,0,0,2.1-1.965,1.843,1.843,0,0,0,1.057.35l.069,0c1.03-.04,2.1-.984,2.032-3.5l-.161-10.055A.11.11,0,0,1,266.963,294.068ZM251.6,214.984c2.187,2.718,4.023,6.575,5.968,10.659.89,1.87,1.8,3.771,2.764,5.625L244,238.871c-1.977-7.039-5.478-20.553-5.906-29.371C242.712,209.338,249.121,211.906,251.6,214.984Zm-24.271-18.829c.03-.313.049-.624.049-.932a7.965,7.965,0,0,0-1.511-4.782c.765-.14,1.554-.288,2.384-.459A16.846,16.846,0,0,1,227.326,196.155Zm3.566-4.54a2.766,2.766,0,0,1-.837-.284v-1.742c.34-.078.684-.165,1.028-.249Zm1.722-10.552a3.357,3.357,0,0,1,1.048.706,6.111,6.111,0,0,1,1.6,4.355c-.009,2.662-1.38,4.919-3.17,5.425l.242-2.888s.358-5.057.358-7.278Zm-31.981-3.422a1.88,1.88,0,0,1,.29-1.625,1.582,1.582,0,0,0-.479.2.4.4,0,0,1-.78-.1c0-.261.251-.484.687-.675.052-.023.112-.045.169-.067a6.455,6.455,0,0,1,.657-.205c-.516-7.5,2.823-13.756,8.778-16.534l2.584,7.646a.6.6,0,0,0,.564.405.609.609,0,0,0,.191-.031.6.6,0,0,0,.373-.755l-2.73-8.078.044-.019a.857.857,0,0,1-.039-.622.945.945,0,0,1,.751-.657.9.9,0,0,1,.823.319.576.576,0,0,0,.005.214.594.594,0,0,0,.713.449,18.184,18.184,0,0,1,7.9-.04.59.59,0,0,0,.671-.366l.114.04a.932.932,0,0,1,.968-.621.908.908,0,0,1,.583.362,1,1,0,0,1,.241.484l-2.919,8.533a.6.6,0,0,0,1.127.386l2.622-7.664c5.831,2.718,8.966,8.653,8.7,16.515.384.177.61.381.631.616a.262.262,0,0,1,.007.035v0a.4.4,0,0,1-.532.369,1.54,1.54,0,0,1,.317,1.409c-.156.345-.754.969-3.009,1.289-6.539.926-20.236,1.213-26.9.227C202.017,178.821,200.936,178.323,200.633,177.64Zm-1.544,8.484a6.116,6.116,0,0,1,1.6-4.356,3.413,3.413,0,0,1,.928-.648l.036.169c-.092,2.375.364,7.379.364,7.379l.006.076.235,2.8C200.469,191.042,199.1,188.786,199.089,186.124Zm5.209,5.207a2.768,2.768,0,0,1-.838.283l-.188-2.254c.345.087.69.172,1.026.254Zm-1.136-3.228a51.18,51.18,0,0,1-.332-6.253,56.857,56.857,0,0,1,9.242-.963,10.565,10.565,0,0,1,2.387.193,1.72,1.72,0,0,1,.646.433,2.44,2.44,0,0,0,1.665.78,2.922,2.922,0,0,0,1.774-.766,2.362,2.362,0,0,1,.746-.448,10.781,10.781,0,0,1,2.387-.193,64,64,0,0,1,9.821.9c-.021,1.971-.188,3.605-.417,5.808l-.055.534c-2.162.537-4.249.943-6.08,1.269a10.253,10.253,0,0,0-5.518-2.569,3.627,3.627,0,0,0-2.434-1.167h0a3.6,3.6,0,0,0-2.294,1.121l.018.021a10.289,10.289,0,0,0-5.681,2.621C207.1,189.055,205.233,188.634,203.162,188.1Zm3.473,7.12c0,.172.018.345.027.518a15.69,15.69,0,0,1-.839-5.768c.773.174,1.54.334,2.31.487A7.968,7.968,0,0,0,206.635,195.223Zm1.191,0c0-5.462,4.945-7.4,9.178-7.4s9.179,1.938,9.179,7.4a10.507,10.507,0,0,1-1.035,4.384c-.073.071-.138.154-.214.221l.068.077c-1.556,3.107-4.51,5.634-8,5.634C211.836,205.539,207.826,199.993,207.826,195.223Zm1.222,6.983A10.044,10.044,0,0,0,217,206.729a9.936,9.936,0,0,0,7.724-4.208A4.424,4.424,0,0,0,227.6,205.4l-.656,1.808c-1.844,2.754-6.1,4.441-10.76,4.222-4.151-.2-7.93-1.838-9.994-4.315l-.868-2.223A6.493,6.493,0,0,0,209.049,202.206Zm16.914,7.72-8.985,24.791-9.794-25.066a16.615,16.615,0,0,0,8.948,2.969c.288.013.572.02.857.02A15.032,15.032,0,0,0,225.963,209.926Zm-51.725,15.717c1.945-4.084,3.781-7.941,5.968-10.659,2.452-3.048,8.763-5.593,13.364-5.489-.641,9.1-3.8,22.626-5.538,29.554l-16.4-8.09C172.54,229.2,173.4,227.409,174.237,225.643ZM181,291.537a37.4,37.4,0,0,0,1.116,5.852,8.826,8.826,0,0,1,.462,2.544c-.21.372-.451.38-.618.35-.862-.15-2.5-1.99-3.218-6.286,0-.017-.013-.03-.018-.047a.544.544,0,0,0-.043-.113.561.561,0,0,0-.059-.1.613.613,0,0,0-.068-.072.562.562,0,0,0-.1-.08.579.579,0,0,0-.081-.037.526.526,0,0,0-.135-.035.379.379,0,0,0-.044-.012.4.4,0,0,0-.062.009.405.405,0,0,0-.071,0,.51.51,0,0,0-.054.02c-.023.008-.044.016-.066.025a.6.6,0,0,0-.159.093l-.009.009a.624.624,0,0,0-.128.157c-.011.018-.017.037-.026.056a.554.554,0,0,0-.041.144c0,.017-.013.03-.013.047-.19,3.208-.271,5.762-.383,9.3-.04,1.273-.085,2.67-.14,4.267a.977.977,0,0,1-.3.741.95.95,0,0,1-.552.221,1.968,1.968,0,0,1-.869-1.606c.007-.243.012-.485.016-.724,0-.312.009-.623.02-.931l.207-5.963a.6.6,0,0,0-.574-.616.61.61,0,0,0-.617.574l-.207,5.963c-.011.317-.015.635-.02.956,0,.082,0,.166-.005.25a.463.463,0,0,0-.018.076c0,.111.006.212.01.318-.01.406-.025.813-.062,1.207a1.6,1.6,0,0,1-.957,1.353c-.249.056-.479-.109-.7-.482a4.532,4.532,0,0,1-.209-2.268c.013-.219.027-.429.032-.624a.549.549,0,0,0-.018-.105c.119-1.123.13-2.448.136-3.873.005-1.1.01-2.236.079-3.215a.6.6,0,0,0-.551-.636.6.6,0,0,0-.636.552c-.071,1.019-.077,2.176-.082,3.294-.011,2.3-.024,5.172-.769,5.863a.47.47,0,0,1-.374.124c-1-.069-1.127-.668-1.08-2.839l.01-.541.554-5.863a.6.6,0,0,0-.538-.649.6.6,0,0,0-.649.537l-.613,6.5a1.179,1.179,0,0,1-.949,1.237c-.474-.019-.932-.734-.888-2.286l.344-10.752a.6.6,0,0,0-.041-.236c.245-3.5.936-5.894,2.118-7.389a.6.6,0,0,0,.124-.436c-.019-.169-.321-2.812-.634-5.268l11.033,1.257c-.241,2.466-.466,5.082-.468,5.121a.591.591,0,0,0,.061.319C179.854,289.651,180.739,291.117,181,291.537Zm-1.8-13.51a.546.546,0,0,0-.045.137c-.068.541-.145,1.238-.223,1.993l-11.311-1.288c-.092-.694-.181-1.327-.26-1.834Zm4.619-30.712a20.519,20.519,0,0,0-1.08,2.271c-.608,1.662-.645,4.97-.609,7.422h-.056a53.867,53.867,0,0,1-2.679,14.574c-.482,1.575-.976,3.215-1.423,5.146L169.21,276c.008-6.009.187-11.186.549-15.8.312-3.99,1.6-11.844,2.394-15.719.111-.545.226-1.052.336-1.544.205-.91.4-1.791.533-2.729a44.145,44.145,0,0,0,11.894,4.707A15.312,15.312,0,0,1,183.815,247.316Zm-10.652-8.4c0-.053-.3-.172-.3-.172-1.395-.793-2.806-1.663-4.221-2.605.868-1.318,1.674-2.706,2.437-4.131l16.6,8.417c-.477,1.869-.787,3.01-.8,3.063a5.174,5.174,0,0,0,.032.536C183.053,243.57,178.231,241.765,173.163,238.92Zm17.131,43.852c.229-2.136,1.538-9.656,1.538-13.766,0-4.922-3.869-22.406-4.169-24.282.514-1.907,7.053-25.975,7.213-37.757l.477-.124,2.735,51.925,6.343-.334-2.8-53.217,2.312-.6,1.11,2.838a.959.959,0,0,0,.1.265l10.958,28.043V261.2H193.325v6.352H216.11v3.456H193.325v6.352H216.11v3.018l-2.735,5.52Zm1.065,21.6c.87-9.259,1.577-16.792,1.731-20.02l10.3,1.4-12.242,20.824Q191.258,305.447,191.359,304.373Zm-18.186,107.62c.358-2.847,3.61-5.294,7.4-5.572,4.438-.319,7.967,2.3,9.554,7.05H173.086Zm31.68,3.708h-31.9l.061-1.038h31.842A10.3,10.3,0,0,1,204.853,415.7Zm.071-2.229H191.379c-1.281-4.176-3.89-6.953-7.305-7.9a25.6,25.6,0,0,0,2.058-4.186c1.368-4.328,1.4-10.049,1.156-14.328l16.335,2.121c-1.781,5.618-.279,12.817-.212,13.134l.033.105A21.01,21.01,0,0,1,204.924,413.471Zm3.069-39.368-1.3,13.915-19.951-2.237-.737-.1v.013l-1.057-.119,1.158-12.81Zm-2.118-1.68-.751.36-17.369-1.106c-.716-1.155-.859-5.748-.652-12.208l22.6,2.295C207.867,371.319,206.376,372.376,205.875,372.424Zm5.553-21.808c-.589,4.579-1.166,8.193-1.712,11.057l.112-1.092-22.684-2.3c.2-5.251.6-11.594,1.1-18.273l24.163,2.227C212.105,345.055,211.781,347.879,211.428,350.615Zm46.6,66.674H239.253l-.059-.006-1.986-.617a1.374,1.374,0,0,0-.915-.319c-.031,0-.057.008-.087.008l-2.019-.627-4.578-.027a15.148,15.148,0,0,1-.24-1.563h4.544l5.6,1.855.188.03H258Zm-.092-3.732.032,1.276H239.8l-.943-.313c3.367-8.3,9.248-8.161,11.638-7.705C254.459,407.57,257.94,410.714,257.94,413.557Zm-8.469-11.447c.277,1.067.633,2.521.863,3.469-2.885-.439-9.087-.223-12.614,8.565l-3.521-1.168-.188-.03h-4.723a17.943,17.943,0,0,1,2.857-10.441l.08-.188c.087-.372,2.009-8.8.235-14.693l15.487-.765A45.263,45.263,0,0,0,249.471,402.11Zm1.08-28.553V385.54l-1.334.066-17.6.869-1.594.078-1.117-13h20.217l0,.01c.005,0,.009-.008.015-.01Zm-1.778-1.19H229.942l-.622-.409c-.825-.473-1.9-4.5-3.038-10.286l22.8-2.218C249.542,366.445,249.554,371.419,248.773,372.367Zm.229-14.1L226.054,360.5c-1-5.246-2.052-11.741-3.028-18.3l24.3-2.215C248.021,346.573,248.628,352.939,249,358.267Zm-4.858-45.944c.925,7.715,2.069,17.267,3.053,26.471l-24.346,2.22c-2.1-14.247-3.823-28.463-3.979-30.516a1.514,1.514,0,0,0-1.583-1.325,1.872,1.872,0,0,0-2.1,1.236c-.092.441-.244,2.387-.551,6.391-.462,6.04-1.157,15.089-2.111,24.244l-24.2-2.23c.766-10.016,1.738-20.671,2.557-29.445l13.783-23.446,8.555,1.159.166.023,0-.019.71.019,2.982-6.019,3.526,6.019.919-.124,6.981-.948,15.217,22.849C243.867,310.014,244,311.158,244.144,312.323Zm-.725-6.059-13.592-20.41,11.343-1.539C241.276,287.861,242.219,296.176,243.419,306.264Zm-1.26-38.255,1.522,14.763-22.557,3.062L217.9,280.1v-2.736h22.784V271.01H217.9v-3.456h22.784V261.2H217.9V235.668l10.122-27.928c.061-.093.125-.185.181-.281l-.065-.038.951-2.624,1.421.622-2.792,53.017,6.342.334,2.667-50.632.131.058c.145,11.878,6.717,33.581,7.317,35.54Zm3.193-24.061.019-.228.01-.115-.034-.11c-.017-.055-.416-1.358-1.017-3.462l16.561-7.712c.7,1.295,1.44,2.554,2.229,3.758.07.106.227.343.377.567l0,0c-.127-.187-.248-.38-.372-.57-1.817.9-3.492,1.77-5.109,2.608C252.981,241.292,248.946,243.367,245.352,243.947Zm7.059,27.636a53.932,53.932,0,0,1-2.679-14.574h-.055c.035-2.452,0-5.761-.609-7.422a20.674,20.674,0,0,0-1.08-2.271,14.22,14.22,0,0,1-1.114-2.464c3.42-.84,7.157-2.762,11.685-5.109l.151-.078a30.244,30.244,0,0,0,.6,3.262c.111.493.225,1,.336,1.549.79,3.871,2.083,11.724,2.395,15.719.369,4.7.549,9.977.551,16.128l-8.748.462C253.4,274.829,252.9,273.174,252.411,271.583Zm12,5.836c-.065.612-.115,1.358-.154,2.16l-11.372.644c-.08-.781-.159-1.5-.229-2.059a.546.546,0,0,0-.041-.122Zm.643,29.035c-.405,0-.912-.477-.951-1.263l-.612-6.473a.6.6,0,0,0-.649-.537.6.6,0,0,0-.537.649l.554,5.852.009.551c.048,2.171-.082,2.77-1.08,2.839a.467.467,0,0,1-.374-.124c-.744-.691-.757-3.558-.768-5.863-.005-1.119-.01-2.276-.082-3.294a.608.608,0,0,0-.636-.552.6.6,0,0,0-.552.636c.069.979.075,2.117.079,3.215.007,1.425.018,2.75.136,3.873a.554.554,0,0,0-.018.105c.006.2.019.405.032.624a4.522,4.522,0,0,1-.209,2.268c-.217.372-.45.538-.7.482a1.594,1.594,0,0,1-.957-1.353c-.038-.394-.052-.8-.062-1.207,0-.106.013-.207.01-.318a.553.553,0,0,0-.018-.076c0-.083,0-.168-.006-.25,0-.32-.009-.639-.02-.956l-.207-5.963a.611.611,0,0,0-.616-.574.6.6,0,0,0-.575.616l.208,5.963c.011.309.015.62.02.931,0,.239.009.481.015.724a1.97,1.97,0,0,1-.869,1.606.955.955,0,0,1-.552-.22.98.98,0,0,1-.3-.741c-.055-1.6-.1-2.994-.14-4.267-.112-3.534-.193-6.089-.383-9.3a.343.343,0,0,0-.013-.042.556.556,0,0,0-.042-.147.587.587,0,0,0-.025-.059.638.638,0,0,0-.119-.149c-.008-.008-.015-.016-.024-.023a.819.819,0,0,0-.224-.116c-.014,0-.025-.013-.04-.016a.433.433,0,0,0-.066,0,.481.481,0,0,0-.076-.01.511.511,0,0,0-.051.013.549.549,0,0,0-.1.027.606.606,0,0,0-.114.05.559.559,0,0,0-.08.061.546.546,0,0,0-.085.086.6.6,0,0,0-.055.092.574.574,0,0,0-.045.113c0,.016-.014.028-.018.045-.757,4.159-2.143,5.692-2.842,5.942a.334.334,0,0,1-.312-.005c-.131-.11-.22-.459-.124-.984.141-.768.261-1.741.414-2.972.158-1.284.337-2.734.6-4.414.247-.4,1.137-1.864,2.608-4.771a.592.592,0,0,0,.062-.319c0-.039-.223-2.608-.462-5.055l11.2-.634c-.085,2.468-.085,4.983-.085,5.155a.59.59,0,0,0,.128.368c1.653,2.091,1.523,11.485,1.59,11.584l.1,6.285C265.981,305.721,265.523,306.436,265.05,306.455Z" transform="translate(0 0)" fill="#3d3d3d"/>
      <path id="Trazado_32128" data-name="Trazado 32128" d="M219.872,178.331a.4.4,0,0,0-.4-.4c-2.349,0-8.732.075-11.665.836a6.455,6.455,0,0,0-.657.205c-.057.023-.117.045-.169.067-.435.191-.687.414-.687.675a.4.4,0,0,0,.78.1,1.582,1.582,0,0,1,.479-.2c1.431-.427,5.656-.892,11.918-.892A.4.4,0,0,0,219.872,178.331Z" transform="translate(-6.634 -3.604)"/>
      <path id="Trazado_32129" data-name="Trazado 32129" d="M230.852,177.938a.4.4,0,0,0,.4.4c7.277,0,11.816.627,12.4,1.094a.4.4,0,0,0,.779-.1v0a.262.262,0,0,0-.007-.035c-.021-.235-.247-.44-.631-.616-2.261-1.039-9.918-1.132-12.54-1.132A.4.4,0,0,0,230.852,177.938Z" transform="translate(-10.547 -3.542)"/>
      <g id="Grupo_17310" data-name="Grupo 17310" transform="translate(175.324 182.088)">
        <path id="Trazado_32130" data-name="Trazado 32130" d="M218.91,187.35a31.584,31.584,0,0,0-7.138.646c-.713.143-.415,1.2.283,1.08a32.037,32.037,0,0,1,6.854-.341C219.8,188.782,219.8,187.374,218.91,187.35Z" transform="translate(-182.765 -187.192)" fill="#fff"/>
        <path id="Trazado_32131" data-name="Trazado 32131" d="M238.847,187.845a19.166,19.166,0,0,0-8.794-.3c-.712.16-.583,1.348.166,1.286a24.528,24.528,0,0,1,8.243.482A.759.759,0,0,0,238.847,187.845Z" transform="translate(-185.669 -187.164)" fill="#fff"/>
        <path id="Trazado_32132" data-name="Trazado 32132" d="M269.3,457.727c-3.042-2.339-7.721-2.875-10.8-.247-.536.459.144,1.254.725.952,2.994-1.548,6.237-1.9,9.068.3C269.012,459.283,270.024,458.282,269.3,457.727Z" transform="translate(-190.247 -229.966)" fill="#fff"/>
        <path id="Trazado_32133" data-name="Trazado 32133" d="M187.056,456.743c-2.693-2.447-7.182-2.735-9.569.346a.565.565,0,0,0,.8.8c2.407-1.963,5.362-2.39,7.8-.171C186.735,458.314,187.714,457.34,187.056,456.743Z" transform="translate(-177.343 -229.824)" fill="#fff"/>
      </g>
    </g>
    <g id="Grupo_18817" data-name="Grupo 18817" transform="translate(380 -117)">
      <circle id="Elipse_1009" data-name="Elipse 1009" cx="44.961" cy="44.961" r="44.961" transform="translate(664 4538.318) rotate(-80.88)" fill="#027e9b"/>
      <g id="Grupo_17312" data-name="Grupo 17312" transform="translate(625.041 4393.026)">
        <path id="Trazado_32134" data-name="Trazado 32134" d="M123.673,95.443a98.754,98.754,0,0,0-23.45-3.267,18.094,18.094,0,0,0-5.644.655,6.328,6.328,0,0,0-2.424,1.855c-.81.852-1.576,1.656-2.423,1.656-.735,0-1.276-.594-2.078-1.572a5.334,5.334,0,0,0-2.322-1.939,17.893,17.893,0,0,0-5.644-.655,89.871,89.871,0,0,0-22.405,3.519l.44,1.472c-.513,5.157-.5,15.531.7,19.914l-.314.853a155.736,155.736,0,0,0,18.859,5.712,7.642,7.642,0,0,0,1.749.234,3.994,3.994,0,0,0,1.769-.377c.512-.251.943-.961,2.228-3.165,1.8-3.09,5.152-8.84,7.491-8.84h0v0c2.915,0,5.774,5.837,7.311,8.974,1.026,2.1,1.376,2.772,1.9,3.031a4,4,0,0,0,1.77.377,7.633,7.633,0,0,0,1.748-.234,168.9,168.9,0,0,0,19.823-5.624l-.347-.946c1.208-4.432,1.213-14.976.684-20.074l.1.028ZM120.7,116.994a178.1,178.1,0,0,1-18.143,5.041,3.714,3.714,0,0,1-2.331.017,20.381,20.381,0,0,1-1.224-2.309c-1.931-3.942-4.849-9.9-8.8-9.9h0c-3.039,0-5.954,4.57-8.921,9.662-.641,1.1-1.369,2.347-1.526,2.512a3.8,3.8,0,0,1-2.408.018A152,152,0,0,1,60.1,116.892c-1.219-3.883-1.237-15.211-.679-20.079a89.36,89.36,0,0,1,20.271-2.982,16.28,16.28,0,0,1,5.134.576,4.2,4.2,0,0,1,1.546,1.413c.8.97,1.787,2.177,3.358,2.177s2.654-1.153,3.622-2.169a5.243,5.243,0,0,1,1.729-1.421,16.224,16.224,0,0,1,5.134-.576,99.77,99.77,0,0,1,21.164,2.7C121.98,101.267,121.984,113.137,120.7,116.994Z" fill="#fff"/>
      </g>
    </g>
    <g id="Grupo_18816" data-name="Grupo 18816" transform="translate(374 -117)">
      <circle id="Elipse_1008" data-name="Elipse 1008" cx="44.961" cy="44.961" r="44.961" transform="translate(791.941 4456.066)" fill="#027e9b"/>
      <g id="Grupo_17314" data-name="Grupo 17314" transform="translate(771.041 4264.026)">
        <path id="Trazado_32137" data-name="Trazado 32137" d="M44.668,251.52c.068,0,.137,0,.205-.005.6-.026,1.194-.47,2.376-1.39,1.462-1.139,3.671-2.854,4.449-1.9l.116-.094c3.172,4.876,8.671,8.695,15.09,8.695,6.383,0,11.858-3.774,15.039-8.61l.028.024c.855-1,3.2.739,4.752,1.891,1.232.914,1.851,1.354,2.458,1.379.071,0,.141.005.211.005a5.343,5.343,0,0,0,3.763-1.633c3.582-3.438,4.787-11.252,4.787-14.288,0-3.158-1.125-9.086-4.142-11.548a4.841,4.841,0,0,0-4.2-1.044c-1.207.247-2.709,2.3-5.618,6.6-.564.833-1.1,1.627-1.609,2.345-3-3.726-8.478-5.97-15.466-5.97-7.008,0-12.5,2.257-15.491,6-.484-.721-1-1.522-1.545-2.362-2.838-4.4-4.205-6.355-5.38-6.607a4.491,4.491,0,0,0-3.935.949c-2.967,2.4-4.072,8.413-4.072,11.641,0,3.455,1.375,11.226,4.688,14.4A4.977,4.977,0,0,0,44.668,251.52Zm40.706-20.974c1.422-2.1,3.8-5.618,4.561-5.889a3.191,3.191,0,0,1,2.8.7c2.429,1.983,3.522,7.184,3.522,10.244,0,3.032-1.289,10.212-4.269,13.073a3.7,3.7,0,0,1-2.683,1.168,10.183,10.183,0,0,1-1.58-1.056c-1.325-.984-3.086-2.285-4.674-2.5a16.024,16.024,0,0,0,1.839-7.13,11.368,11.368,0,0,0-1.506-5.728C84,232.574,84.67,231.586,85.374,230.546ZM66.9,227.661c7.521,0,16.3,3.01,16.3,11.493,0,7.4-7.122,15.993-16.3,15.993s-16.3-8.6-16.3-15.993C50.6,230.671,59.383,227.661,66.9,227.661Zm-25.293-2.392a2.833,2.833,0,0,1,2.5-.621c.747.3,3,3.794,4.346,5.881.689,1.068,1.344,2.079,1.941,2.946a11.363,11.363,0,0,0-1.477,5.679,16.011,16.011,0,0,0,1.834,7.119c-1.542.2-3.252,1.522-4.537,2.523a14.657,14.657,0,0,1-1.413,1.036,3.283,3.283,0,0,1-2.467-1.048c-2.91-2.789-4.169-10.081-4.169-13.185C38.165,232.555,39.26,227.168,41.611,225.269Z" fill="#fff"/>
        <path id="Trazado_32138" data-name="Trazado 32138" d="M66.973,251.009c1.648,0,7.253-.192,10.212-2.664a.842.842,0,1,0-1.078-1.293c-2.007,1.676-6.035,2.273-9.134,2.273-3.53,0-7.144-.885-9.207-2.256a.842.842,0,1,0-.932,1.4C59.19,250.036,63.076,251.009,66.973,251.009Z" fill="#fff"/>
        <path id="Trazado_32139" data-name="Trazado 32139" d="M66.973,247.259c1.648,0,7.252-.192,10.212-2.664a.841.841,0,1,0-1.078-1.292c-2.008,1.675-6.035,2.272-9.134,2.272-3.529,0-7.144-.885-9.207-2.256a.842.842,0,1,0-.932,1.4C59.191,246.287,63.076,247.259,66.973,247.259Z" fill="#fff"/>
        <path id="Trazado_32140" data-name="Trazado 32140" d="M66.973,243.509c1.648,0,7.253-.192,10.212-2.664a.841.841,0,1,0-1.078-1.292c-2.007,1.675-6.035,2.272-9.134,2.272-3.53,0-7.144-.885-9.207-2.255a.842.842,0,1,0-.932,1.4C59.19,242.537,63.076,243.509,66.973,243.509Z" fill="#fff"/>
      </g>
    </g>
    <g id="Grupo_17317" data-name="Grupo 17317" transform="translate(1113.041 4137.026)">
      <path id="Trazado_32145" data-name="Trazado 32145" d="M83.14,385.28l0,0h0Z" fill="#ffb90b"/>
      <path id="Trazado_32146" data-name="Trazado 32146" d="M112.55,337.666,87.9,334.889h-.68l-.15.591-3.623,16.2,5.258.46v.169a116.3,116.3,0,0,1-1.716,15.915c-.406,2.435-4.769,5.163-6.448,6.025a8.186,8.186,0,0,0-3.248.01c-3.71.742-6.729,3.841-6.729,6.907l.754,4.113h.1a1.371,1.371,0,0,0-.019.193,1.377,1.377,0,1,0,2.754,0,1.538,1.538,0,0,0-.019-.193h.288a1.371,1.371,0,0,0-.019.193,1.377,1.377,0,1,0,2.754,0,1.539,1.539,0,0,0-.019-.193h.288a1.539,1.539,0,0,0-.019.193,1.377,1.377,0,1,0,2.754,0,1.372,1.372,0,0,0-.019-.193h.288a1.538,1.538,0,0,0-.019.193,1.389,1.389,0,0,0,1.377,1.4,1.345,1.345,0,0,0,.693-.2,5.081,5.081,0,0,0-.286,1.633l.7,3.8a1.379,1.379,0,1,0,2.717.31h.25a1.377,1.377,0,1,0,2.754,0h.25a1.377,1.377,0,1,0,2.754,0h.25a1.377,1.377,0,1,0,2.754,0h.251a1.377,1.377,0,1,0,2.753,0h.251a1.377,1.377,0,1,0,2.753,0h.251a1.377,1.377,0,1,0,2.754,0h.25a1.377,1.377,0,1,0,2.754,0h.25a1.377,1.377,0,1,0,2.754,0h.25a1.377,1.377,0,1,0,2.754,0h.25a1.377,1.377,0,1,0,2.754,0h.25a1.377,1.377,0,1,0,2.754,0h.251a1.377,1.377,0,1,0,2.753,0,1.41,1.41,0,0,0-.1-.522c.059-.177,2.79-8.687-1.5-16.363-.016-1.278-.09-8.569.092-14.523l3.513.307.517-16.511-11.808-1.33ZM85.315,350.308l3.092-13.827,22.573,2.544-.134,4.281-12-1.352-2.092,9.355Zm3.178,18.166A134.672,134.672,0,0,0,90.217,352.4l6.054.71-1.2,5.708,5.258.459v.17a116.386,116.386,0,0,1-1.714,15.915c-.3,1.814-2.8,3.789-4.751,5.036H87.331a10.93,10.93,0,0,0-4.861-5.486C84.456,373.728,88.03,371.242,88.493,368.474Zm-10.9,7.279c1.608-.32,5.463-.453,8.057,4.647H72.192C72.658,378.311,74.931,376.285,77.59,375.753Zm5.55,9.527v0h0Zm-10.556-1.53-.34-1.824H87.218A9.281,9.281,0,0,0,84.4,383.75Zm16.632-.854c1.606-.319,5.462-.454,8.058,4.646H83.819C84.285,385.454,86.558,383.428,89.216,382.9Zm31.033,8H84.21l-.339-1.825h36.748C120.492,389.858,120.352,390.491,120.249,390.893Zm.564-3.351H98.956a10.952,10.952,0,0,0-4.855-5.488c1.988-1.188,5.557-3.673,6.018-6.437a133.337,133.337,0,0,0,1.724-15.959l16.769,1.55c-.189,6.507-.084,14.46-.083,14.544l0,.2.1.171A19.351,19.351,0,0,1,120.813,387.542Zm1.793-41.375-.421,13.491L96.941,357.45l3.093-13.827Z" fill="#fff"/>
    </g>
    <g id="Grupo_17318" data-name="Grupo 17318" transform="translate(742.041 4136.026)">
      <path id="Trazado_32147" data-name="Trazado 32147" d="M377.388,369.363a49.753,49.753,0,0,0-1.667-5.1l-.229-.7a.794.794,0,0,0-.208-.32c-1.764-4.141-3.946-7.208-6.616-9.235a44.937,44.937,0,0,0,.028-7.921.621.621,0,0,0-.035-.105.694.694,0,0,0-.022-.11c-.007-.018-.022-.028-.03-.045a1.3,1.3,0,0,0-.2-.257.871.871,0,0,0-.081-.053.839.839,0,0,0-.189-.1.773.773,0,0,0-.109-.022.81.81,0,0,0-.185-.018.454.454,0,0,0-.052-.005.7.7,0,0,0-.112.037.694.694,0,0,0-.1.02l-13.824,5.76L340.857,346.7h-.006l-.006,0a.791.791,0,0,0-.254-.031c-.019,0-.038-.009-.056-.007a.811.811,0,0,0-.247.064c-.018.008-.038.008-.056.016a.881.881,0,0,0-.153.114.816.816,0,0,0-.1.076.772.772,0,0,0-.087.147.724.724,0,0,0-.075.126v.005l0,.007a16.437,16.437,0,0,0-.433,7.305c-4.806,2.284-7.422,3.359-7.448,3.37a.818.818,0,0,0-.435.421c-2.669,5.959-3.462,10.041-2.422,12.474A3.68,3.68,0,0,0,330.7,372.6c-.558,1.279-1.144,2.609-1.787,4.072-.757,1.72-1.588,3.606-2.533,5.767a2.99,2.99,0,0,0,1.628,4.142.889.889,0,0,0,.311.047,3.824,3.824,0,0,0,1.426-.3,3.7,3.7,0,0,0,1.205,3.028,2.338,2.338,0,0,0,1.431.49,3.171,3.171,0,0,0,1.787-.623,3.922,3.922,0,0,0,.829-.78,2.36,2.36,0,0,0,1.339,1.3,3.787,3.787,0,0,0,1.4.295,3.184,3.184,0,0,0,2.61-1.626,2.675,2.675,0,0,0,1.3,1.237,2.453,2.453,0,0,0,.979.2c1.236,0,2.7-.922,3.865-3.542l3.893-8.853a49.534,49.534,0,0,0,2.069-4.688c1.439,3.166,2.966,5.1,4.619,5.876a3.81,3.81,0,0,0,1.623.375,3.708,3.708,0,0,0,.806-.1c.443,1.345.9,2.749,1.4,4.294.577,1.766,1.21,3.7,1.938,5.915a3.074,3.074,0,0,0,1.632,1.929,3.017,3.017,0,0,0,1.26.269,2.921,2.921,0,0,0,1.083-.2.815.815,0,0,0,.223-.138,3.817,3.817,0,0,0,.9-1.211,3.765,3.765,0,0,0,2.749,1.458c.056,0,.111,0,.166-.005a2.574,2.574,0,0,0,2.31-2.245,3.946,3.946,0,0,0,.1-1.135,2.334,2.334,0,0,0,1,.233,2.513,2.513,0,0,0,.864-.158,3.052,3.052,0,0,0,2.109-3.66,2.819,2.819,0,0,0,.976.18,2.532,2.532,0,0,0,.808-.132c1.409-.471,2.512-2.221,1.383-5.72Zm-26.1,1.852c-.094.27-.2.548-.3.824L345,385.65c-.945,2.129-2.04,2.794-2.711,2.5a1.777,1.777,0,0,1-.493-2.356l3.3-8.973a.815.815,0,0,0-1.529-.562l-2.978,8.11-.34.744c-1.333,2.949-1.891,3.672-3.312,3.112a.728.728,0,0,1-.453-.437c-.558-1.414,1.175-5.078,2.7-8.31.7-1.487,1.43-3.025,1.982-4.421a.815.815,0,0,0-1.516-.6c-.53,1.347-1.246,2.86-1.938,4.323-.866,1.832-1.7,3.61-2.263,5.2a.782.782,0,0,0-.1.145c-.116.261-.232.548-.353.845a6.685,6.685,0,0,1-1.74,2.9c-.551.374-.987.439-1.3.2a2.413,2.413,0,0,1-.432-2.472c.2-.544.436-1.089.679-1.631.074-.141.154-.273.221-.428a.792.792,0,0,0,.026-.117c.051-.111.1-.225.151-.335.2-.426.392-.849.578-1.276l3.51-8.039a.814.814,0,1,0-1.493-.651l-3.51,8.04c-.181.414-.372.83-.563,1.245-.146.317-.292.642-.437.966A2.958,2.958,0,0,1,328.44,385a1.47,1.47,0,0,1-.635-.68,1.492,1.492,0,0,1,.071-1.224c.943-2.161,1.773-4.046,2.53-5.764,2.091-4.752,3.6-8.185,5.385-12.557a.814.814,0,0,0-1.507-.615c-1.009,2.474-1.934,4.652-2.926,6.939a2.11,2.11,0,0,1-.782-.956c-.57-1.331-.627-4.3,2.28-10.876.863-.364,3.544-1.52,7.79-3.548a.814.814,0,0,0,.444-.91,15.761,15.761,0,0,1-.263-2.141l-.777-.289.38-1.017.368.136a13.269,13.269,0,0,1,.34-2.976l10.361,3.611-1.712.714,0,0h-.006a.768.768,0,0,0-.136.1.859.859,0,0,0-.125.086.889.889,0,0,0-.09.136.993.993,0,0,0-.08.126.815.815,0,0,0-.031.156.766.766,0,0,0-.028.149.841.841,0,0,0,.033.169.788.788,0,0,0,.029.143l0,.005v.006c.139.32.3.628.46.93l1.589.591-.379,1.017-.234-.087a18.563,18.563,0,0,0,3.115,3.281c-2.058,4.907-3.289,7.453-3.3,7.48a.816.816,0,0,0-.044.6c.354,1.109.713,2.13,1.077,3.071A.8.8,0,0,0,351.293,371.215Zm27.214,11.559c-.622.208-1.548-.3-1.939-1.428l-3.529-8.884a.814.814,0,1,0-1.513.6l3.194,8.039.239.768c.974,3.092,1.035,4-.392,4.53a.73.73,0,0,1-.629-.024c-1.36-.681-2.512-4.567-3.53-8-.467-1.576-.95-3.207-1.472-4.614a.814.814,0,1,0-1.526.566c.5,1.357.977,2.959,1.438,4.511.578,1.947,1.141,3.839,1.785,5.4a.813.813,0,0,0,.018.162c.088.274.192.565.3.868a6.694,6.694,0,0,1,.641,3.32c-.161.646-.444.986-.841,1.013a2.343,2.343,0,0,1-1.97-1.553c-.217-.546-.406-1.117-.589-1.691-.038-.148-.064-.291-.115-.444a.75.75,0,0,0-.056-.1c-.036-.117-.075-.235-.111-.352-.138-.448-.276-.9-.422-1.339l-2.747-8.33a.814.814,0,1,0-1.546.511l2.748,8.329c.142.433.276.87.411,1.308.1.336.212.678.321,1.018a2.954,2.954,0,0,1-.594,2.7,1.461,1.461,0,0,1-.926-.084,1.5,1.5,0,0,1-.765-.958c-.728-2.209-1.359-4.146-1.935-5.912-1.621-4.964-2.792-8.551-4.387-13.017a.814.814,0,1,0-1.533.547c.9,2.513,1.662,4.755,2.449,7.12a2.115,2.115,0,0,1-1.222-.191c-1.313-.612-3.335-2.786-5.555-9.623.4-.847,1.627-3.5,3.437-7.839a.815.815,0,0,0-.276-.975,15.765,15.765,0,0,1-1.593-1.391l-1.353.486-.367-1.022.91-.326a13.258,13.258,0,0,1-1.755-2.463l15.964-6.653c.085,1.332.068,2.781.019,4.011l.587-.211.366,1.022-1.01.363c-.062,1.041-.13,1.746-.131,1.764a.813.813,0,0,0,.338.744c2.784,1.981,5.1,5.315,6.9,9.931l4.613,14.115C379.573,381.317,379.2,382.542,378.507,382.774Z" fill="#fff"/>
      <path id="Trazado_32148" data-name="Trazado 32148" d="M351.022,356.458l.38-1.018-1.589-.591L340.8,351.5l-.368-.137-.379,1.018.777.289,9.961,3.705Z" fill="#fff"/>
      <path id="Trazado_32149" data-name="Trazado 32149" d="M368.147,352.184l-.367-1.022-.587.21-14.228,5.1-.91.326.367,1.022,1.353-.485,13.361-4.793Z" fill="#fff"/>
    </g>
  </g>
</svg>
