<svg xmlns="http://www.w3.org/2000/svg" width="154" height="154" viewBox="0 0 154 154">
  <g id="Grupo_19040" data-name="Grupo 19040" transform="translate(-390 -1426)">
    <g id="Elipse_810" data-name="Elipse 810" transform="translate(390 1426)" fill="#739ee3" stroke="#2643a2" stroke-width="3">
      <circle cx="77" cy="77" r="77" stroke="none"/>
      <circle cx="77" cy="77" r="75.5" fill="none"/>
    </g>
    <g id="Grupo_11989" data-name="Grupo 11989" transform="translate(-1895.01 443.042)">
      <circle id="Elipse_816" data-name="Elipse 816" cx="37" cy="37" r="37" transform="translate(2324.01 1009.958)" fill="#ebedf0"/>
      <g id="Grupo_11988" data-name="Grupo 11988" transform="translate(2331.194 1008)">
        <g id="Grupo_11987" data-name="Grupo 11987" transform="translate(0 0)">
          <g id="Grupo_11985" data-name="Grupo 11985" transform="translate(1.268 1.268)">
            <path id="Trazado_24484" data-name="Trazado 24484" d="M2396.01,1262h40.569v40.569H2396.01V1262Zm20.284,33.808c5.629,0,8.452-2.6,8.452-8.452s-8.452-18.594-8.452-18.594-8.452,12.745-8.452,18.594S2410.649,1295.808,2416.294,1295.808Z" transform="translate(-2389.249 -1209.598)" fill="#fff"/>
            <path id="Trazado_24485" data-name="Trazado 24485" d="M2459.675,1126v13.523H2436.01V1126h23.665Z" transform="translate(-2420.796 -1102.335)" fill="#fff"/>
            <path id="Trazado_24486" data-name="Trazado 24486" d="M2482.771,1052.674v8.706h-6.761v-8.739a21.082,21.082,0,0,0,3.381.287A30.542,30.542,0,0,0,2482.771,1052.674Z" transform="translate(-2452.345 -1044.476)" fill="#fff"/>
            <path id="Trazado_24487" data-name="Trazado 24487" d="M2460.462,1022.452a21.091,21.091,0,0,1-3.381-.287,22.518,22.518,0,0,1-5.071-1.4v-5.071a23.121,23.121,0,0,0,8.452,1.69c3.955,0,13.1-3.381,20.285-3.381,4.936,0,10.142,3.381,10.142,3.381l-3.381,5.071a21.3,21.3,0,0,0-8.452-1.69c-5.477,0-11.106.981-15.213,1.436A30.486,30.486,0,0,1,2460.462,1022.452Z" transform="translate(-2433.416 -1014)" fill="#8ff3ad"/>
            <path id="Trazado_24488" data-name="Trazado 24488" d="M2463.39,1094h10.143v6.762H2460.01V1094Z" transform="translate(-2439.725 -1077.096)" fill="#8ff3ad"/>
            <path id="Trazado_24489" data-name="Trazado 24489" d="M2411.341,1205.213h-40.569v40.569h40.569Zm6.761-2.79v46.74a5.064,5.064,0,0,1-5.071,5.071h-43.949a5.064,5.064,0,0,1-5.071-5.071v-46.74a6.747,6.747,0,0,1,3.481-5.9l11.732-6.524h23.665l11.732,6.524A6.747,6.747,0,0,1,2418.1,1202.424Z" transform="translate(-2364.01 -1152.812)" fill="#8ff3ad"/>
            <path id="Trazado_24490" data-name="Trazado 24490" d="M2452.01,1312.594c0-5.849,8.452-18.594,8.452-18.594s8.452,12.745,8.452,18.594-2.823,8.452-8.452,8.452C2454.816,1321.046,2452.01,1318.443,2452.01,1312.594Z" transform="translate(-2433.416 -1234.837)" fill="#8ff3ad"/>
          </g>
          <g id="Grupo_11986" data-name="Grupo 11986">
            <path id="Trazado_24491" data-name="Trazado 24491" d="M2408.3,1250.769h-43.95a6.346,6.346,0,0,1-6.339-6.339v-46.74a8.009,8.009,0,0,1,4.136-7.01l11.729-6.522a1.268,1.268,0,0,1,1.232,2.216l-11.732,6.524a5.475,5.475,0,0,0-2.83,4.792v46.74a3.808,3.808,0,0,0,3.8,3.8h43.95a3.808,3.808,0,0,0,3.8-3.8v-46.74a5.473,5.473,0,0,0-2.827-4.79l-11.735-6.525a1.268,1.268,0,1,1,1.232-2.216l11.732,6.524a8.008,8.008,0,0,1,4.133,7.008v46.74A6.346,6.346,0,0,1,2408.3,1250.769Z" transform="translate(-2358.01 -1146.81)" fill="#303e58"/>
            <path id="Trazado_24492" data-name="Trazado 24492" d="M2454.943,1136.058h-23.665a1.268,1.268,0,1,1,0-2.535h22.4v-10.988h-21.13v5.494a1.268,1.268,0,1,1-2.536,0v-6.761a1.268,1.268,0,0,1,1.268-1.268h23.665a1.268,1.268,0,0,1,1.268,1.268v13.523A1.268,1.268,0,0,1,2454.943,1136.058Z" transform="translate(-2414.796 -1096.335)" fill="#303e58"/>
            <path id="Trazado_24493" data-name="Trazado 24493" d="M2468.8,1097.3a1.268,1.268,0,0,1-1.268-1.268v-5.494h-10.988v.423a1.268,1.268,0,1,1-2.535,0v-1.69a1.268,1.268,0,0,1,1.268-1.268H2468.8a1.268,1.268,0,0,1,1.268,1.268v6.761A1.268,1.268,0,0,1,2468.8,1097.3Z" transform="translate(-2433.725 -1071.096)" fill="#303e58"/>
            <path id="Trazado_24494" data-name="Trazado 24494" d="M2503.278,1058.039a1.268,1.268,0,0,1-1.268-1.268v-8.706a1.268,1.268,0,1,1,2.535,0v8.706A1.268,1.268,0,0,1,2503.278,1058.039Z" transform="translate(-2471.583 -1038.599)" fill="#303e58"/>
            <path id="Trazado_24495" data-name="Trazado 24495" d="M2471.278,1057.916a1.268,1.268,0,0,1-1.268-1.268v-8.739a1.268,1.268,0,1,1,2.535,0v8.739A1.268,1.268,0,0,1,2471.278,1057.916Z" transform="translate(-2446.345 -1038.476)" fill="#303e58"/>
            <path id="Trazado_24496" data-name="Trazado 24496" d="M2482.775,1018.987a1.265,1.265,0,0,1-.549-.125,20.3,20.3,0,0,0-7.9-1.565,90.642,90.642,0,0,0-11.665,1c-1.212.159-2.357.309-3.409.425a31.018,31.018,0,0,1-3.52.262,22.355,22.355,0,0,1-3.581-.3,23.663,23.663,0,0,1-5.385-1.5,1.268,1.268,0,0,1-.754-1.159v-5.071a1.268,1.268,0,0,1,1.783-1.159,22.065,22.065,0,0,0,7.937,1.581,39.267,39.267,0,0,0,7.038-1.284c4.208-.983,8.977-2.1,13.247-2.1,5.251,0,10.607,3.439,10.833,3.585a1.268,1.268,0,0,1,.365,1.766l-3.381,5.071A1.267,1.267,0,0,1,2482.775,1018.987Zm-34.229-3.826a22.878,22.878,0,0,0,4,1.019h0a19.831,19.831,0,0,0,3.177.271,28.836,28.836,0,0,0,3.234-.246c1.034-.115,2.167-.263,3.366-.42a92.652,92.652,0,0,1,11.994-1.024,23.529,23.529,0,0,1,7.971,1.393l2.059-3.088c-1.713-.929-5.134-2.531-8.34-2.531-3.978,0-8.6,1.078-12.67,2.03a39.94,39.94,0,0,1-7.615,1.351,24.389,24.389,0,0,1-7.184-1.149Z" transform="translate(-2427.416 -1008)" fill="#303e58"/>
            <path id="Trazado_24497" data-name="Trazado 24497" d="M2431.847,1299.1h-40.569a1.268,1.268,0,0,1-1.268-1.268v-33.808a1.268,1.268,0,1,1,2.535,0v32.54h38.034v-38.034h-39.3a1.268,1.268,0,1,1,0-2.536h40.569a1.268,1.268,0,0,1,1.268,1.268v40.569A1.268,1.268,0,0,1,2431.847,1299.1Z" transform="translate(-2383.249 -1203.598)" fill="#303e58"/>
            <path id="Trazado_24498" data-name="Trazado 24498" d="M2455.73,1317.582c-6.449,0-9.72-3.27-9.72-9.719,0-6.16,8.309-18.762,8.663-19.295a1.268,1.268,0,0,1,2.114,0c.354.533,8.663,13.135,8.663,19.295C2465.449,1314.312,2462.179,1317.582,2455.73,1317.582Zm0-25.964c-2.68,4.3-7.184,12.345-7.184,16.245,0,5.036,2.148,7.184,7.184,7.184s7.184-2.148,7.184-7.184C2462.914,1303.963,2458.409,1295.918,2455.73,1291.617Z" transform="translate(-2427.416 -1228.837)" fill="#303e58"/>
            <path id="Trazado_24499" data-name="Trazado 24499" d="M2473.468,1382.525h-.057a4.837,4.837,0,0,1-2.917-1.167l-.026-.023a4.736,4.736,0,0,1-1.476-2.637,1.268,1.268,0,1,1,2.494-.455,2.186,2.186,0,0,0,.673,1.2,2.287,2.287,0,0,0,1.365.545,1.268,1.268,0,0,1-.056,2.534Z" transform="translate(-2445.524 -1299.19)" fill="#fff"/>
          </g>
        </g>
      </g>
    </g>
  </g>
</svg>
