<svg xmlns="http://www.w3.org/2000/svg" width="154" height="154" viewBox="0 0 154 154">
  <g id="Grupo_19048" data-name="Grupo 19048" transform="translate(-390 -3628)">
    <g id="Elipse_828" data-name="Elipse 828" transform="translate(390 3628)" fill="#f56b6b" stroke="#2643a2" stroke-width="3">
      <circle cx="77" cy="77" r="77" stroke="none"/>
      <circle cx="77" cy="77" r="75.5" fill="none"/>
    </g>
    <g id="Grupo_12032" data-name="Grupo 12032" transform="translate(-3766 2655.896)">
      <ellipse id="Elipse_835" data-name="Elipse 835" cx="46.5" cy="46" rx="46.5" ry="46" transform="translate(4185 999.104)" fill="#ebedf0"/>
      <circle id="Elipse_836" data-name="Elipse 836" cx="20.141" cy="20.141" r="20.141" transform="translate(4232.256 1043.486) rotate(-45)" fill="#8ff3ad"/>
      <g id="Grupo_12031" data-name="Grupo 12031" transform="translate(4174 991.999)">
        <g id="Grupo_12030" data-name="Grupo 12030" transform="translate(0 0)">
          <g id="Grupo_12028" data-name="Grupo 12028" transform="translate(6.958 5.103)">
            <circle id="Elipse_837" data-name="Elipse 837" cx="3" cy="3" r="3" transform="translate(77.042 43.002)" fill="#303e58"/>
            <path id="Trazado_24662" data-name="Trazado 24662" d="M4282.386,1346.409a7.632,7.632,0,0,1-1.6,4.639,7.2,7.2,0,0,1-5.825,2.783c-7.348,0-38.963-6.42-38.963-18.554,0-6.717,3.321-9.277,7.421-9.277C4252.848,1326,4282.386,1340.843,4282.386,1346.409Z" transform="translate(-4228.58 -1253.64)" fill="#8ff3ad"/>
            <path id="Trazado_24663" data-name="Trazado 24663" d="M4242.186,1015.93a14.59,14.59,0,0,1,8.2,12.914c0,15.233-11.652,16.253-14.843,20.409-2.747,3.58-4.342,9.408-7.273,13.915-2.412,3.675-5.715,6.494-11.281,6.494-2.394,0-7.644-.873-10.668-5.64a16.691,16.691,0,0,1-2.319-9.2,31.813,31.813,0,0,1,.223-3.711,53.856,53.856,0,0,1,13.488-28.833,28.174,28.174,0,0,1,9.909-7.068,16.516,16.516,0,0,1,6.066-1.207A18.462,18.462,0,0,1,4242.186,1015.93Zm-2.932,12.914a5.566,5.566,0,1,0-5.566,5.566A5.558,5.558,0,0,0,4239.253,1028.843Zm-7.421,16.7a1.855,1.855,0,1,0-1.855,1.855A1.862,1.862,0,0,0,4231.832,1045.542Zm-11.133,10.2a4.638,4.638,0,1,0-4.638,4.638A4.64,4.64,0,0,0,4220.7,1055.746Zm0-16.7a2.783,2.783,0,1,0-2.783,2.783A2.779,2.779,0,0,0,4220.7,1039.048Z" transform="translate(-4204.001 -1014)" fill="#8ff3ad"/>
            <ellipse id="Elipse_838" data-name="Elipse 838" cx="6" cy="5.5" rx="6" ry="5.5" transform="translate(24.042 9.002)" fill="#fff"/>
            <circle id="Elipse_839" data-name="Elipse 839" cx="2" cy="2" r="2" transform="translate(24.042 29.002)" fill="#303e58"/>
            <circle id="Elipse_840" data-name="Elipse 840" cx="4.5" cy="4.5" r="4.5" transform="translate(8.042 37.002)" fill="#fff"/>
            <ellipse id="Elipse_841" data-name="Elipse 841" cx="2.5" cy="3" rx="2.5" ry="3" transform="translate(12.042 22.002)" fill="#303e58"/>
          </g>
          <g id="Grupo_12029" data-name="Grupo 12029">
            <path id="Trazado_24664" data-name="Trazado 24664" d="M4521.788,1123.4a1.392,1.392,0,0,1-.325-2.745,22.809,22.809,0,0,1,5.337-.651,1.391,1.391,0,1,1,0,2.783,20.018,20.018,0,0,0-4.684.574A1.4,1.4,0,0,1,4521.788,1123.4Z" transform="translate(-4440.059 -1090.313)" fill="#303e58"/>
            <path id="Trazado_24665" data-name="Trazado 24665" d="M4467.148,1154.122a1.392,1.392,0,0,1-1.206-2.085,21.492,21.492,0,0,1,3.055-4.088,1.391,1.391,0,1,1,2.018,1.916,18.713,18.713,0,0,0-2.66,3.558A1.39,1.39,0,0,1,4467.148,1154.122Z" transform="translate(-4398.092 -1111.448)" fill="#303e58"/>
            <path id="Trazado_24666" data-name="Trazado 24666" d="M4458.673,1171.421a1.393,1.393,0,0,1-1.337-1.781,22.549,22.549,0,0,1,2.1-4.943,1.391,1.391,0,1,1,2.412,1.387,19.776,19.776,0,0,0-1.836,4.333A1.392,1.392,0,0,1,4458.673,1171.421Z" transform="translate(-4391.581 -1124.108)" fill="#303e58"/>
            <path id="Trazado_24667" data-name="Trazado 24667" d="M4460.945,1240.285a1.39,1.39,0,0,1-1.2-.693,21.255,21.255,0,0,1-2.005-4.685,1.392,1.392,0,1,1,2.671-.783,18.428,18.428,0,0,0,1.742,4.071,1.392,1.392,0,0,1-1.2,2.09Z" transform="translate(-4391.887 -1177.201)" fill="#303e58"/>
            <path id="Trazado_24668" data-name="Trazado 24668" d="M4470.194,1258.839a1.387,1.387,0,0,1-1.007-.431,23.041,23.041,0,0,1-3.237-4.263,1.4,1.4,0,1,1,2.469-1.292,20.31,20.31,0,0,0,2.782,3.635,1.392,1.392,0,0,1-1.007,2.352Z" transform="translate(-4398.092 -1191.729)" fill="#303e58"/>
            <path id="Trazado_24669" data-name="Trazado 24669" d="M4527.742,1296.958a1.4,1.4,0,0,1-.218-.017,20.781,20.781,0,0,1-4.857-.6,1.391,1.391,0,1,1,.652-2.705,17.956,17.956,0,0,0,4.389.517,1.357,1.357,0,0,1,1,.408l.018.018a1.392,1.392,0,0,1-.983,2.376Z" transform="translate(-4440.984 -1223.651)" fill="#303e58"/>
            <path id="Trazado_24670" data-name="Trazado 24670" d="M4543.393,1296.753a1.392,1.392,0,1,1,0-2.783,20.021,20.021,0,0,0,4.684-.573,1.391,1.391,0,1,1,.653,2.705A22.8,22.8,0,0,1,4543.393,1296.753Z" transform="translate(-4456.653 -1223.465)" fill="#303e58"/>
            <path id="Trazado_24671" data-name="Trazado 24671" d="M4607.314,1258.605a1.391,1.391,0,0,1-1.009-2.35,18.692,18.692,0,0,0,2.66-3.558,1.392,1.392,0,0,1,2.414,1.386,21.5,21.5,0,0,1-3.055,4.088A1.387,1.387,0,0,1,4607.314,1258.605Z" transform="translate(-4505.749 -1191.699)" fill="#303e58"/>
            <path id="Trazado_24672" data-name="Trazado 24672" d="M4619.632,1239.421a1.392,1.392,0,0,1-1.205-2.085,20.518,20.518,0,0,0,1.84-4.347,1.392,1.392,0,0,1,2.664.805,23.251,23.251,0,0,1-2.092,4.93A1.39,1.39,0,0,1,4619.632,1239.421Z" transform="translate(-4515.211 -1176.337)" fill="#303e58"/>
            <path id="Trazado_24673" data-name="Trazado 24673" d="M4621.506,1171.159a1.393,1.393,0,0,1-1.335-1,18.9,18.9,0,0,0-1.745-4.078,1.392,1.392,0,0,1,2.415-1.383,21.707,21.707,0,0,1,2,4.677,1.392,1.392,0,0,1-1.336,1.783Z" transform="translate(-4515.211 -1124.107)" fill="#303e58"/>
            <path id="Trazado_24674" data-name="Trazado 24674" d="M4609.553,1153.441a1.388,1.388,0,0,1-1.269-.813,20.305,20.305,0,0,0-2.782-3.635,1.392,1.392,0,0,1,2.015-1.921,23.055,23.055,0,0,1,3.236,4.263,1.4,1.4,0,0,1-1.2,2.106Z" transform="translate(-4505.131 -1110.775)" fill="#303e58"/>
            <path id="Trazado_24675" data-name="Trazado 24675" d="M4548.064,1123.28a1.4,1.4,0,0,1-.327-.039,17.982,17.982,0,0,0-4.389-.517,1.391,1.391,0,0,1-1-.407l-.018-.018a1.392,1.392,0,0,1,1.2-2.359,20.769,20.769,0,0,1,4.858.6,1.392,1.392,0,0,1-.325,2.745Z" transform="translate(-4456.593 -1090.253)" fill="#303e58"/>
            <path id="Trazado_24676" data-name="Trazado 24676" d="M4543.393,1098.2a1.392,1.392,0,0,1-1.392-1.392v-7.422a1.392,1.392,0,0,1,2.783,0v7.422A1.392,1.392,0,0,1,4543.393,1098.2Z" transform="translate(-4456.653 -1065.735)" fill="#303e58"/>
            <path id="Trazado_24677" data-name="Trazado 24677" d="M4539.1,1090.783h-3.711a1.392,1.392,0,1,1,0-2.783h3.711a1.392,1.392,0,1,1,0,2.783Z" transform="translate(-4450.508 -1065.735)" fill="#303e58"/>
            <path id="Trazado_24678" data-name="Trazado 24678" d="M4492.032,1121.856a1.391,1.391,0,0,1-1.207-.7l-4.639-8.034a1.391,1.391,0,0,1,2.41-1.391l4.639,8.034a1.392,1.392,0,0,1-1.2,2.088Z" transform="translate(-4413.64 -1083.43)" fill="#303e58"/>
            <path id="Trazado_24679" data-name="Trazado 24679" d="M4480.432,1111.677a1.391,1.391,0,0,1-.694-2.6l3.229-1.855a1.391,1.391,0,1,1,1.386,2.413l-3.229,1.855A1.385,1.385,0,0,1,4480.432,1111.677Z" transform="translate(-4408.293 -1080.358)" fill="#303e58"/>
            <path id="Trazado_24680" data-name="Trazado 24680" d="M4440.669,1210.783h-9.276a1.391,1.391,0,1,1,0-2.783h9.276a1.391,1.391,0,1,1,0,2.783Z" transform="translate(-4370.628 -1157.904)" fill="#303e58"/>
            <path id="Trazado_24681" data-name="Trazado 24681" d="M4431.393,1206.494A1.392,1.392,0,0,1,4430,1205.1v-3.711a1.392,1.392,0,0,1,2.783,0v3.711A1.392,1.392,0,0,1,4431.393,1206.494Z" transform="translate(-4370.628 -1151.759)" fill="#303e58"/>
            <path id="Trazado_24682" data-name="Trazado 24682" d="M4487.391,1281.137a1.392,1.392,0,0,1-1.2-2.088l4.639-8.034a1.392,1.392,0,1,1,2.41,1.392l-4.639,8.034A1.39,1.39,0,0,1,4487.391,1281.137Z" transform="translate(-4413.64 -1205.77)" fill="#303e58"/>
            <path id="Trazado_24683" data-name="Trazado 24683" d="M4483.658,1305.678a1.386,1.386,0,0,1-.692-.185l-3.229-1.855a1.391,1.391,0,1,1,1.386-2.413l3.229,1.855a1.392,1.392,0,0,1-.694,2.6Z" transform="translate(-4408.293 -1229.365)" fill="#303e58"/>
            <path id="Trazado_24684" data-name="Trazado 24684" d="M4584.031,1281.137a1.391,1.391,0,0,1-1.207-.7l-4.638-8.034a1.392,1.392,0,0,1,2.41-1.392l4.638,8.034a1.392,1.392,0,0,1-1.2,2.088Z" transform="translate(-4484.302 -1205.77)" fill="#303e58"/>
            <path id="Trazado_24685" data-name="Trazado 24685" d="M4592.433,1305.6a1.392,1.392,0,0,1-.695-2.6l3.229-1.855a1.391,1.391,0,0,1,1.387,2.413l-3.229,1.855A1.381,1.381,0,0,1,4592.433,1305.6Z" transform="translate(-4494.318 -1229.304)" fill="#303e58"/>
            <path id="Trazado_24686" data-name="Trazado 24686" d="M4624.669,1210.783h-9.277a1.391,1.391,0,1,1,0-2.783h9.277a1.391,1.391,0,1,1,0,2.783Z" transform="translate(-4511.954 -1157.904)" fill="#303e58"/>
            <path id="Trazado_24687" data-name="Trazado 24687" d="M4655.392,1206.494A1.391,1.391,0,0,1,4654,1205.1v-3.711a1.391,1.391,0,1,1,2.783,0v3.711A1.392,1.392,0,0,1,4655.392,1206.494Z" transform="translate(-4542.677 -1151.759)" fill="#303e58"/>
            <path id="Trazado_24688" data-name="Trazado 24688" d="M4579.39,1121.856a1.392,1.392,0,0,1-1.2-2.088l4.638-8.034a1.391,1.391,0,1,1,2.41,1.391l-4.638,8.034A1.392,1.392,0,0,1,4579.39,1121.856Z" transform="translate(-4484.302 -1083.43)" fill="#303e58"/>
            <path id="Trazado_24689" data-name="Trazado 24689" d="M4595.659,1111.677a1.382,1.382,0,0,1-.692-.185l-3.229-1.855a1.391,1.391,0,0,1,1.386-2.413l3.229,1.855a1.392,1.392,0,0,1-.695,2.6Z" transform="translate(-4494.318 -1080.358)" fill="#303e58"/>
            <path id="Trazado_24690" data-name="Trazado 24690" d="M4445.89,1154.493h-.018a1.389,1.389,0,0,1-.7-.188l-6.4-3.711a1.392,1.392,0,1,1,1.4-2.408l6.351,3.682a1.389,1.389,0,0,1-.63,2.624Z" transform="translate(-4376.832 -1111.818)" fill="#303e58"/>
            <path id="Trazado_24691" data-name="Trazado 24691" d="M4435.468,1147.051a1.392,1.392,0,0,1-1.205-2.085l1.855-3.229a1.391,1.391,0,1,1,2.413,1.386l-1.855,3.229A1.39,1.39,0,0,1,4435.468,1147.051Z" transform="translate(-4373.759 -1106.472)" fill="#303e58"/>
            <path id="Trazado_24692" data-name="Trazado 24692" d="M4439.472,1258.494a1.392,1.392,0,0,1-.7-2.6l6.42-3.711a1.392,1.392,0,0,1,1.393,2.41l-6.419,3.711A1.387,1.387,0,0,1,4439.472,1258.494Z" transform="translate(-4376.832 -1191.699)" fill="#303e58"/>
            <path id="Trazado_24693" data-name="Trazado 24693" d="M4437.327,1267.05a1.391,1.391,0,0,1-1.208-.7l-1.855-3.229a1.391,1.391,0,1,1,2.413-1.386l1.855,3.229a1.392,1.392,0,0,1-1.2,2.085Z" transform="translate(-4373.759 -1198.641)" fill="#303e58"/>
            <path id="Trazado_24694" data-name="Trazado 24694" d="M4543.393,1306.2a1.392,1.392,0,0,1-1.392-1.392v-7.422a1.392,1.392,0,0,1,2.783,0v7.422A1.392,1.392,0,0,1,4543.393,1306.2Z" transform="translate(-4456.653 -1225.495)" fill="#303e58"/>
            <path id="Trazado_24695" data-name="Trazado 24695" d="M4539.1,1330.783h-3.711a1.391,1.391,0,1,1,0-2.783h3.711a1.391,1.391,0,1,1,0,2.783Z" transform="translate(-4450.508 -1250.073)" fill="#303e58"/>
            <path id="Trazado_24696" data-name="Trazado 24696" d="M4626.083,1258.494a1.385,1.385,0,0,1-.7-.188l-6.352-3.682a1.39,1.39,0,0,1,.63-2.625h.018a1.392,1.392,0,0,1,.7.188l6.4,3.711a1.392,1.392,0,0,1-.7,2.6Z" transform="translate(-4515.242 -1191.699)" fill="#303e58"/>
            <path id="Trazado_24697" data-name="Trazado 24697" d="M4643.313,1267.051a1.392,1.392,0,0,1-1.205-2.085l1.855-3.229a1.392,1.392,0,0,1,2.413,1.386l-1.855,3.229A1.391,1.391,0,0,1,4643.313,1267.051Z" transform="translate(-4533.399 -1198.642)" fill="#303e58"/>
            <path id="Trazado_24698" data-name="Trazado 24698" d="M4619.635,1154.493a1.392,1.392,0,0,1-.7-2.6l6.419-3.711a1.392,1.392,0,0,1,1.393,2.41l-6.42,3.711A1.386,1.386,0,0,1,4619.635,1154.493Z" transform="translate(-4515.212 -1111.819)" fill="#303e58"/>
            <path id="Trazado_24699" data-name="Trazado 24699" d="M4645.17,1147.051a1.39,1.39,0,0,1-1.208-.7l-1.855-3.229a1.392,1.392,0,0,1,2.413-1.386l1.855,3.229a1.392,1.392,0,0,1-1.206,2.085Z" transform="translate(-4533.399 -1106.472)" fill="#303e58"/>
            <path id="Trazado_24700" data-name="Trazado 24700" d="M4543.393,1158.494A1.392,1.392,0,0,1,4542,1157.1v-3.711a1.392,1.392,0,1,1,2.783,0v3.711A1.392,1.392,0,0,1,4543.393,1158.494Z" transform="translate(-4456.653 -1114.892)" fill="#303e58"/>
            <path id="Trazado_24701" data-name="Trazado 24701" d="M4543.393,1254.494A1.392,1.392,0,0,1,4542,1253.1v-3.711a1.392,1.392,0,0,1,2.783,0v3.711A1.392,1.392,0,0,1,4543.393,1254.494Z" transform="translate(-4456.653 -1188.627)" fill="#303e58"/>
            <path id="Trazado_24702" data-name="Trazado 24702" d="M4498.123,1184.638a1.384,1.384,0,0,1-.695-.187l-3.209-1.855a1.391,1.391,0,1,1,1.393-2.409l3.209,1.855a1.392,1.392,0,0,1-.7,2.6Z" transform="translate(-4419.418 -1136.397)" fill="#303e58"/>
            <path id="Trazado_24703" data-name="Trazado 24703" d="M4581.24,1232.638a1.384,1.384,0,0,1-.7-.187l-3.209-1.855a1.391,1.391,0,1,1,1.393-2.409l3.208,1.855a1.392,1.392,0,0,1-.7,2.6Z" transform="translate(-4483.258 -1173.265)" fill="#303e58"/>
            <path id="Trazado_24704" data-name="Trazado 24704" d="M4494.917,1232.638a1.392,1.392,0,0,1-.7-2.6l3.209-1.855a1.391,1.391,0,1,1,1.393,2.409l-3.209,1.855A1.383,1.383,0,0,1,4494.917,1232.638Z" transform="translate(-4419.418 -1173.265)" fill="#303e58"/>
            <path id="Trazado_24705" data-name="Trazado 24705" d="M4578.034,1184.638a1.392,1.392,0,0,1-.7-2.6l3.209-1.855a1.391,1.391,0,1,1,1.393,2.409l-3.208,1.855A1.387,1.387,0,0,1,4578.034,1184.638Z" transform="translate(-4483.258 -1136.397)" fill="#303e58"/>
            <path id="Trazado_24706" data-name="Trazado 24706" d="M4212.38,1066.445c-1.312,0-8.047-.3-11.843-6.287a18.184,18.184,0,0,1-2.536-9.948,33.23,33.23,0,0,1,.232-3.874,55.236,55.236,0,0,1,13.858-29.626,29.329,29.329,0,0,1,10.416-7.409,17.968,17.968,0,0,1,6.571-1.3,19.842,19.842,0,0,1,9.132,2.082,15.939,15.939,0,0,1,8.958,14.152c0,11.785-6.547,15.66-11.327,18.49a14.127,14.127,0,0,0-3.8,2.767,35.1,35.1,0,0,0-3.59,6.752,51.635,51.635,0,0,1-3.621,7.075C4221.636,1064.182,4217.681,1066.445,4212.38,1066.445Zm16.7-55.662a15.2,15.2,0,0,0-5.557,1.11h0a26.594,26.594,0,0,0-9.4,6.729A52.471,52.471,0,0,0,4201,1046.653a30.517,30.517,0,0,0-.215,3.557,15.486,15.486,0,0,0,2.1,8.452c3.019,4.759,8.44,5,9.5,5,4.335,0,7.456-1.809,10.118-5.866a49.6,49.6,0,0,0,3.411-6.692,36.943,36.943,0,0,1,3.921-7.307,15.689,15.689,0,0,1,4.594-3.467c4.438-2.627,9.962-5.9,9.962-16.1a13.174,13.174,0,0,0-7.438-11.672A17.1,17.1,0,0,0,4229.079,1010.783Zm-6.066-.185h0Z" transform="translate(-4192.435 -1004.289)" fill="#303e58"/>
            <path id="Trazado_24707" data-name="Trazado 24707" d="M4296.746,999.7a1.393,1.393,0,0,1-1.341-1.022l-1.355-4.917a1.392,1.392,0,0,1,2.683-.739l1.355,4.917a1.393,1.393,0,0,1-1.342,1.762Z" transform="translate(-4266.168 -991.999)" fill="#303e58"/>
            <path id="Trazado_24708" data-name="Trazado 24708" d="M4364.032,1006.568a1.392,1.392,0,0,1-1.141-2.187l2.634-3.785a1.392,1.392,0,0,1,2.284,1.59l-2.635,3.785A1.388,1.388,0,0,1,4364.032,1006.568Z" transform="translate(-4318.891 -998.144)" fill="#303e58"/>
            <path id="Trazado_24709" data-name="Trazado 24709" d="M4398.671,1062.711a1.392,1.392,0,0,1-.241-2.762l5.028-.89a1.392,1.392,0,1,1,.485,2.74l-5.028.89A1.378,1.378,0,0,1,4398.671,1062.711Z" transform="translate(-4345.497 -1043.49)" fill="#303e58"/>
            <path id="Trazado_24710" data-name="Trazado 24710" d="M4390.351,1125.394a1.387,1.387,0,0,1-.725-.2l-4.4-2.689a1.391,1.391,0,1,1,1.451-2.375l4.4,2.689a1.392,1.392,0,0,1-.727,2.579Z" transform="translate(-4335.728 -1090.253)" fill="#303e58"/>
            <path id="Trazado_24711" data-name="Trazado 24711" d="M4340.345,1165.881a1.384,1.384,0,0,1-.737-.212l-4.954-3.1a1.392,1.392,0,1,1,1.476-2.36l4.953,3.1a1.392,1.392,0,0,1-.739,2.572Z" transform="translate(-4296.893 -1121.036)" fill="#303e58"/>
            <path id="Trazado_24712" data-name="Trazado 24712" d="M4308.059,1226.494a1.386,1.386,0,0,1-.942-.368l-4.026-3.711a1.392,1.392,0,0,1,1.886-2.047l4.026,3.711a1.391,1.391,0,0,1-.943,2.415Z" transform="translate(-4272.806 -1167.121)" fill="#303e58"/>
            <path id="Trazado_24713" data-name="Trazado 24713" d="M4255.393,1256.349a1.392,1.392,0,0,1-1.392-1.392v-5.566a1.392,1.392,0,0,1,2.783,0v5.566A1.392,1.392,0,0,1,4255.393,1256.349Z" transform="translate(-4235.447 -1188.627)" fill="#303e58"/>
            <path id="Trazado_24714" data-name="Trazado 24714" d="M4186.432,1230.024a1.392,1.392,0,0,1-.775-2.548l5.325-3.562a1.392,1.392,0,0,1,1.548,2.313l-5.326,3.562A1.384,1.384,0,0,1,4186.432,1230.024Z" transform="translate(-4182.479 -1169.946)" fill="#303e58"/>
            <path id="Trazado_24715" data-name="Trazado 24715" d="M4181.182,1167.65a1.379,1.379,0,0,1-.226-.019l-5.789-.946a1.391,1.391,0,0,1,.449-2.747l5.79.946a1.392,1.392,0,0,1-.224,2.765Z" transform="translate(-4174 -1124.047)" fill="#303e58"/>
            <path id="Trazado_24716" data-name="Trazado 24716" d="M4243.459,1034.42a1.387,1.387,0,0,1-.869-.305l-4.544-3.636a1.392,1.392,0,0,1,1.739-2.173l4.544,3.637a1.392,1.392,0,0,1-.87,2.478Z" transform="translate(-4222.791 -1019.651)" fill="#303e58"/>
            <path id="Trazado_24717" data-name="Trazado 24717" d="M4205.489,1090.8a1.388,1.388,0,0,1-.609-.141l-5.138-2.506a1.392,1.392,0,0,1,1.22-2.5l5.139,2.506a1.392,1.392,0,0,1-.611,2.643Z" transform="translate(-4193.171 -1063.826)" fill="#303e58"/>
            <path id="Trazado_24718" data-name="Trazado 24718" d="M4308.958,1061.915a6.958,6.958,0,1,1,6.958-6.958A6.965,6.965,0,0,1,4308.958,1061.915Zm0-11.132a4.175,4.175,0,1,0,4.175,4.175A4.18,4.18,0,0,0,4308.958,1050.783Z" transform="translate(-4272.314 -1035.012)" fill="#303e58"/>
            <path id="Trazado_24719" data-name="Trazado 24719" d="M4236.031,1180.06a6.03,6.03,0,1,1,6.03-6.03A6.037,6.037,0,0,1,4236.031,1180.06Zm0-9.277a3.247,3.247,0,1,0,3.247,3.247A3.251,3.251,0,0,0,4236.031,1170.783Z" transform="translate(-4217.013 -1127.181)" fill="#303e58"/>
            <path id="Trazado_24720" data-name="Trazado 24720" d="M4270.355,1350.614c-3.677,0-13.435-1.527-22.7-4.806-11.549-4.086-17.653-9.321-17.653-15.139,0-6.68,3.294-10.669,8.813-10.669,5.595,0,16.238,4.456,23.653,8.272a83.821,83.821,0,0,1,11.379,6.876c3.631,2.707,5.323,4.821,5.323,6.653a8.992,8.992,0,0,1-1.889,5.491A8.544,8.544,0,0,1,4270.355,1350.614Zm-31.542-27.831c-2.75,0-6.03,1.368-6.03,7.885,0,6.025,9.9,10.428,15.8,12.516,8.569,3.032,18.15,4.647,21.773,4.647a5.818,5.818,0,0,0,4.724-2.242l0,0a6.281,6.281,0,0,0,1.3-3.784c0-.053-.048-1.324-4.2-4.422a82.258,82.258,0,0,0-10.989-6.633C4252.083,1326.058,4242.88,1322.783,4238.814,1322.783Z" transform="translate(-4217.013 -1243.929)" fill="#303e58"/>
            <path id="Trazado_24721" data-name="Trazado 24721" d="M4431.391,1392.349a1.392,1.392,0,0,1-.464-2.7,20.222,20.222,0,0,0,2.64-1.375c2.967-1.7,7.45-4.271,12.667-4.271a34.922,34.922,0,0,1,10.554,2c5.734,1.746,10.262,3.125,16.418-1.707a1.392,1.392,0,0,1,1.718,2.189c-7.3,5.728-13.22,3.924-18.947,2.18a32.734,32.734,0,0,0-9.743-1.883c-4.476,0-8.411,2.255-11.283,3.9a21.364,21.364,0,0,1-3.1,1.584A1.389,1.389,0,0,1,4431.391,1392.349Z" transform="translate(-4370.626 -1293.085)" fill="#303e58"/>
            <path id="Trazado_24722" data-name="Trazado 24722" d="M4465.07,1440.988a1.391,1.391,0,0,1-1.206-.7c-1.866-3.232-4.895-4.87-9-4.87a31.457,31.457,0,0,0-6.322.757,46.327,46.327,0,0,1-9.559,1.024c-6.863,0-12.949-4.294-15.462-6.832a1.392,1.392,0,0,1,1.978-1.959c2.058,2.078,7.525,6.008,13.485,6.008a43.376,43.376,0,0,0,9.037-.975,34.122,34.122,0,0,1,6.844-.807c5.1,0,9.044,2.165,11.41,6.262a1.392,1.392,0,0,1-1.2,2.088Z" transform="translate(-4365.341 -1326.881)" fill="#303e58"/>
          </g>
        </g>
      </g>
    </g>
  </g>
</svg>
