<svg xmlns="http://www.w3.org/2000/svg" width="154" height="154" viewBox="0 0 154 154">
  <g id="Grupo_19063" data-name="Grupo 19063" transform="translate(-390 -10108)">
    <g id="Elipse_890" data-name="Elipse 890" transform="translate(390 10108)" fill="#ffc917" stroke="#2643a2" stroke-width="3">
      <circle cx="77" cy="77" r="77" stroke="none"/>
      <circle cx="77" cy="77" r="75.5" fill="none"/>
    </g>
    <g id="Grupo_12500" data-name="Grupo 12500" transform="translate(-1700.254 9452.332)">
      <g id="Grupo_12499" data-name="Grupo 12499" transform="translate(2120.254 678.928)">
        <g id="Grupo_12498" data-name="Grupo 12498" transform="translate(0 0)">
          <g id="Grupo_12496" data-name="Grupo 12496" transform="translate(1.152 1.152)">
            <path id="Trazado_25959" data-name="Trazado 25959" d="M2216.093,721l-6.145,6.145-39.941-33.8-39.94,33.8L2123.922,721l46.085-38.4,24.579,20.478,13.826,11.521Z" transform="translate(-2123.922 -682.596)" fill="#8ff3ad"/>
            <path id="Trazado_25960" data-name="Trazado 25960" d="M2362.687,716.084v8.572l-13.826-11.521V697.266h13.826Z" transform="translate(-2278.197 -692.657)" fill="#8ff3ad"/>
            <path id="Trazado_25961" data-name="Trazado 25961" d="M2352.908,820.1v39.941h-7.681V835.46h-6.145l1.75-6.145,4.394-15.362.261-.308Z" transform="translate(-2271.49 -772.477)" fill="#ebedf0"/>
            <path id="Trazado_25962" data-name="Trazado 25962" d="M2331.811,883.086v24.579h-12.29V883.086h12.29Z" transform="translate(-2258.074 -820.102)" fill="#ebedf0"/>
            <path id="Trazado_25963" data-name="Trazado 25963" d="M2265.86,883.086v24.579h-14.441a2,2,0,0,0,1.459-.63,1.943,1.943,0,0,0,.507-1.506l-1.167-14.178a3.091,3.091,0,0,0-2.227-2.7l-8.71-2.488v-3.072h24.579Z" transform="translate(-2204.413 -820.102)" fill="#ebedf0"/>
            <path id="Trazado_25964" data-name="Trazado 25964" d="M2270.667,829.988h-6.145l-.554-1.536,2.688-6.745,2.475-7.081h24.579l-4.395,15.362h-17.988l-.015.061A4.352,4.352,0,0,0,2270.667,829.988Z" transform="translate(-2219.973 -773.149)" fill="#fff"/>
            <path id="Trazado_25965" data-name="Trazado 25965" d="M2223.381,933.9a4.6,4.6,0,0,0,4.563,3.949h-11.674v-1.536a1.541,1.541,0,0,0-1.536-1.536h-7.681v-6.145h13.826a1.542,1.542,0,0,0,1.536-1.536Z" transform="translate(-2180.937 -850.287)" fill="#ebedf0"/>
            <path id="Trazado_25966" data-name="Trazado 25966" d="M2189.245,863.789v3.072a1.542,1.542,0,0,1-1.536,1.536h-24.732a1.532,1.532,0,0,1-1.521-1.383l-.507-4.762-2.244-21.276c0-.063-.015-.108-.015-.17a1.491,1.491,0,0,1,.4-1.029,1.54,1.54,0,0,1,1.137-.507h12.3a1.544,1.544,0,0,1,1.536,1.337l2.888,21.645h10.753A1.541,1.541,0,0,1,2189.245,863.789Z" transform="translate(-2147.768 -790.052)" fill="#fff"/>
            <path id="Trazado_25967" data-name="Trazado 25967" d="M2219.448,780.52c3.3.69,5.377,4.286,4.625,8.05a7.229,7.229,0,0,1-2.673,4.393,6.112,6.112,0,0,0-1.829-.276h-5.529a7.132,7.132,0,0,1-1.952-6.637,7.487,7.487,0,0,1,2.274-4.071A5.755,5.755,0,0,1,2219.448,780.52Z" transform="translate(-2184.286 -749.673)" fill="#fff"/>
            <path id="Trazado_25968" data-name="Trazado 25968" d="M2216.243,750.487l17.083-14.1,27.912,24.271-.261.308H2236.4l-2.475,7.081-2.688,6.745-2.917-8.2a6.188,6.188,0,0,0-3.963-3.81,7.229,7.229,0,0,0,2.673-4.393c.751-3.764-1.322-7.36-4.625-8.05a5.755,5.755,0,0,0-5.084,1.459Z" transform="translate(-2187.24 -719.488)" fill="#ebedf0"/>
            <path id="Trazado_25969" data-name="Trazado 25969" d="M2218.216,833.342a4.337,4.337,0,0,1,.645.061l.015-.061h17.988l-1.75,6.145H2204.39v3.072l8.71,2.488a3.091,3.091,0,0,1,2.227,2.7l1.167,14.178a1.942,1.942,0,0,1-.507,1.506,2,2,0,0,1-1.459.63,4.6,4.6,0,0,1-4.563-3.948l-.967-6.8V850.24a1.541,1.541,0,0,0-1.536-1.536h-10.753l-2.888-21.645a1.544,1.544,0,0,0-1.536-1.337h-4.793c0-1.6,2.32-4.163,2.32-4.163a6.16,6.16,0,0,1,4.578-2.043h8.417a6.112,6.112,0,0,1,1.829.276,6.188,6.188,0,0,1,3.964,3.81l2.917,8.2.554,1.536Z" transform="translate(-2167.521 -776.503)" fill="#8ff3ad"/>
            <path id="Trazado_25970" data-name="Trazado 25970" d="M2186.929,951.546h7.681a1.541,1.541,0,0,1,1.536,1.536v1.536h-18.434v-1.536a1.541,1.541,0,0,1,1.536-1.536Z" transform="translate(-2160.814 -867.056)" fill="#ebedf0"/>
            <path id="Trazado_25971" data-name="Trazado 25971" d="M2175.2,786.651a7.132,7.132,0,0,0,1.952,6.637h-2.888a6.161,6.161,0,0,0-4.579,2.043s-2.319,2.565-2.319,4.163h-7.512a1.539,1.539,0,0,0-1.137.507,1.491,1.491,0,0,0-.4,1.029h-.169v-4.67l18.249-15.086,1.076,1.306A7.486,7.486,0,0,0,2175.2,786.651Z" transform="translate(-2147.399 -750.274)" fill="#ebedf0"/>
            <path id="Trazado_25972" data-name="Trazado 25972" d="M2158.152,880.967V844.16h.169c0,.062.015.107.015.17l2.244,21.276.507,4.762a1.532,1.532,0,0,0,1.521,1.383h10.906V877.9h-7.681a1.54,1.54,0,0,0-1.536,1.536v1.536Z" transform="translate(-2147.399 -793.405)" fill="#ebedf0"/>
          </g>
          <g id="Grupo_12497" data-name="Grupo 12497">
            <path id="Trazado_25973" data-name="Trazado 25973" d="M2360.171,714.721a1.153,1.153,0,0,1-1.152-1.152V695.9H2347.5v7.681a1.152,1.152,0,0,1-2.3,0V694.75a1.152,1.152,0,0,1,1.152-1.152h13.826a1.152,1.152,0,0,1,1.152,1.152v18.818A1.153,1.153,0,0,1,2360.171,714.721Z" transform="translate(-2274.529 -688.99)" fill="#303e58"/>
            <path id="Trazado_25974" data-name="Trazado 25974" d="M2207.433,725.782a1.148,1.148,0,0,1-.744-.273l-39.2-33.166-39.2,33.166a1.152,1.152,0,0,1-1.559-.065l-6.145-6.145a1.152,1.152,0,0,1,.077-1.7l46.085-38.4a1.153,1.153,0,0,1,1.475,0l38.4,32h0l7.681,6.406a1.152,1.152,0,0,1,.077,1.7l-6.145,6.145A1.15,1.15,0,0,1,2207.433,725.782Zm-39.94-36.1a1.149,1.149,0,0,1,.744.272l39.132,33.112,4.5-4.5-20.538-17.119-23.841-19.863-44.379,36.982,4.5,4.5,39.132-33.112A1.15,1.15,0,0,1,2167.492,689.682Z" transform="translate(-2120.254 -678.928)" fill="#303e58"/>
            <path id="Trazado_25975" data-name="Trazado 25975" d="M2220.848,887.433h-79.882a1.153,1.153,0,0,1-1.152-1.152V846.34a1.152,1.152,0,0,1,2.3,0v38.789H2219.7V846.34a1.152,1.152,0,0,1,2.3,0v39.941A1.153,1.153,0,0,1,2220.848,887.433Z" transform="translate(-2133.669 -792.958)" fill="#303e58"/>
            <path id="Trazado_25976" data-name="Trazado 25976" d="M2218.887,791.6a1.152,1.152,0,0,1-.7-2.071,6.082,6.082,0,0,0,2.238-3.7c.625-3.133-1.048-6.138-3.731-6.7a4.615,4.615,0,0,0-4.077,1.187,6.37,6.37,0,0,0-1.917,3.446,5.968,5.968,0,0,0,1.6,5.56,1.152,1.152,0,1,1-1.565,1.692,8.283,8.283,0,0,1-2.3-7.709,8.693,8.693,0,0,1,2.632-4.7,6.885,6.885,0,0,1,6.1-1.729c3.907.816,6.383,5.035,5.511,9.4a8.381,8.381,0,0,1-3.108,5.086A1.147,1.147,0,0,1,2218.887,791.6Z" transform="translate(-2180.619 -746.005)" fill="#303e58"/>
            <path id="Trazado_25977" data-name="Trazado 25977" d="M2289.05,906.3a1.152,1.152,0,0,1-1.152-1.152V881.723h-29.572a1.152,1.152,0,1,1,0-2.3h30.724a1.153,1.153,0,0,1,1.152,1.152v24.579A1.152,1.152,0,0,1,2289.05,906.3Z" transform="translate(-2214.161 -816.435)" fill="#303e58"/>
            <path id="Trazado_25978" data-name="Trazado 25978" d="M2318.194,862.163h-10.967a1.152,1.152,0,1,1,0-2.3h10.967a1.152,1.152,0,0,1,0,2.3Z" transform="translate(-2247.699 -803.019)" fill="#303e58"/>
            <path id="Trazado_25979" data-name="Trazado 25979" d="M2317.006,906.3a1.152,1.152,0,0,1-1.152-1.152V880.57a1.152,1.152,0,1,1,2.3,0v24.579A1.152,1.152,0,0,1,2317.006,906.3Z" transform="translate(-2254.407 -816.435)" fill="#303e58"/>
            <path id="Trazado_25980" data-name="Trazado 25980" d="M2185.192,867.034H2160.46a2.672,2.672,0,0,1-2.668-2.424l-.506-4.751-2.244-21.276c0-.02,0-.041-.005-.062a1.707,1.707,0,0,1-.017-.229,2.636,2.636,0,0,1,.714-1.821,2.677,2.677,0,0,1,1.975-.867h12.3a2.684,2.684,0,0,1,2.677,2.329l2.756,20.653h9.745a2.692,2.692,0,0,1,2.688,2.688v3.072A2.692,2.692,0,0,1,2185.192,867.034Zm-27.854-28.654,2.746,26a.384.384,0,0,0,.376.353h24.732a.389.389,0,0,0,.384-.384v-3.072a.389.389,0,0,0-.384-.384h-10.753a1.153,1.153,0,0,1-1.142-1l-2.888-21.644a.39.39,0,0,0-.394-.337h-12.3a.388.388,0,0,0-.283.128.356.356,0,0,0-.1.22C2157.332,838.3,2157.336,838.338,2157.338,838.38Zm-2.3.081v0Z" transform="translate(-2144.099 -786.384)" fill="#303e58"/>
            <path id="Trazado_25981" data-name="Trazado 25981" d="M2193.63,953.255a1.152,1.152,0,0,1-1.152-1.152v-1.536a.389.389,0,0,0-.384-.384h-15.362a.389.389,0,0,0-.384.384V952.1a1.152,1.152,0,0,1-2.3,0v-1.536a2.691,2.691,0,0,1,2.688-2.688h15.362a2.691,2.691,0,0,1,2.688,2.688V952.1A1.152,1.152,0,0,1,2193.63,953.255Z" transform="translate(-2157.146 -863.388)" fill="#303e58"/>
            <path id="Trazado_25982" data-name="Trazado 25982" d="M2204.536,936.767a1.152,1.152,0,0,1-1.152-1.152V929.47a1.152,1.152,0,1,1,2.3,0v6.145A1.153,1.153,0,0,1,2204.536,936.767Z" transform="translate(-2177.269 -849.973)" fill="#303e58"/>
            <path id="Trazado_25983" data-name="Trazado 25983" d="M2218.772,836.587a1.152,1.152,0,0,1-1.152-1.152V833.9a1.953,1.953,0,0,0-1.492-1.879,3.22,3.22,0,0,0-.428-.041h-6.145a1.153,1.153,0,0,1-1.084-.761l-.554-1.536L2205,821.473a5.051,5.051,0,0,0-3.226-3.1,4.959,4.959,0,0,0-1.482-.222h-8.417a5.03,5.03,0,0,0-3.723,1.663c-.972,1.078-2.022,2.681-2.022,3.39a1.152,1.152,0,0,1-2.3,0c0-1.943,2.18-4.452,2.617-4.936a7.34,7.34,0,0,1,5.433-2.423h8.417a7.26,7.26,0,0,1,2.173.329,7.371,7.371,0,0,1,4.7,4.523l3.2,8.973h5.335a5.385,5.385,0,0,1,.822.075c.025,0,.05.008.074.014a4.273,4.273,0,0,1,3.329,4.136v1.536A1.152,1.152,0,0,1,2218.772,836.587Z" transform="translate(-2163.854 -772.835)" fill="#303e58"/>
            <path id="Trazado_25984" data-name="Trazado 25984" d="M2248.9,889.532a5.783,5.783,0,0,1-5.7-4.939l-.967-6.8a1.152,1.152,0,0,1,2.281-.324l.967,6.8a3.467,3.467,0,0,0,3.422,2.958.845.845,0,0,0,.614-.26.8.8,0,0,0,.208-.6c0-.012,0-.023,0-.034l-1.167-14.179a1.944,1.944,0,0,0-1.4-1.69l-8.709-2.488a1.153,1.153,0,0,1-.836-1.108V856.12a1.152,1.152,0,1,1,2.3,0V866l7.875,2.25a4.263,4.263,0,0,1,3.058,3.714l1.166,14.167a3.113,3.113,0,0,1-.793,2.382A3.156,3.156,0,0,1,2248.9,889.532Z" transform="translate(-2200.745 -799.665)" fill="#303e58"/>
            <path id="Trazado_25985" data-name="Trazado 25985" d="M2290.918,834.769a1.153,1.153,0,0,1-1.109-1.468l1.75-6.145,3.975-13.894H2273.3l-2.205,6.309a1.152,1.152,0,1,1-2.175-.76l2.474-7.081a1.152,1.152,0,0,1,1.088-.772h24.579a1.153,1.153,0,0,1,1.108,1.469l-4.395,15.362-1.75,6.144A1.152,1.152,0,0,1,2290.918,834.769Z" transform="translate(-2222.174 -769.481)" fill="#303e58"/>
          </g>
        </g>
      </g>
    </g>
  </g>
</svg>
