<svg xmlns="http://www.w3.org/2000/svg" width="154" height="154" viewBox="0 0 154 154">
  <g id="Grupo_19042" data-name="Grupo 19042" transform="translate(-390 -1973)">
    <g id="Elipse_812" data-name="Elipse 812" transform="translate(390 1973)" fill="#739ee3" stroke="#2643a2" stroke-width="3">
      <circle cx="77" cy="77" r="77" stroke="none"/>
      <circle cx="77" cy="77" r="75.5" fill="none"/>
    </g>
    <g id="Grupo_12012" data-name="Grupo 12012" transform="translate(-904 192.219)">
      <rect id="Rectángulo_2459" data-name="Rectángulo 2459" width="45" height="66" transform="translate(1352 1821.781)" fill="#ebedf0"/>
      <g id="Grupo_12011" data-name="Grupo 12011" transform="translate(1326 1808)">
        <g id="Grupo_12010" data-name="Grupo 12010" transform="translate(0 0)">
          <g id="Grupo_12008" data-name="Grupo 12008" transform="translate(1.205 1.205)">
            <path id="Trazado_24565" data-name="Trazado 24565" d="M1687.275,2031.281c1.189,1.429,3.181,4.144,3.181,6.168,0,1.318-1.431,3.517-3.31,5.622a28.789,28.789,0,0,1-3.115,3c-.016.016-.016.016-.016.033a15.9,15.9,0,0,1-3.2,2.137,3.96,3.96,0,0,1-1.606.448c-1.606,0-3.212-.176-3.212-3.213,0-1.992,2.764-5.524,4.674-7.709A28.737,28.737,0,0,0,1687.275,2031.281Z" transform="translate(-1606.933 -1987.656)" fill="#fff"/>
            <path id="Trazado_24566" data-name="Trazado 24566" d="M1699.934,2090c1.189,1.413,3.31,5.2,3.31,7.228,0,3.115-4.819,8.031-8.031,8.031a5.21,5.21,0,0,1-1.606-.176c-.916-.29-1.606-1.06-1.606-3.037a11.432,11.432,0,0,1,1.606-4.3,28.632,28.632,0,0,1,3.2-4.706c0-.017,0-.017.016-.033A28.787,28.787,0,0,0,1699.934,2090Z" transform="translate(-1619.72 -2034.586)" fill="#fff"/>
            <path id="Trazado_24567" data-name="Trazado 24567" d="M1696.819,1926a4.8,4.8,0,0,1,4.819,5.012c0,2.248-2.023,4.417-4.031,5.493a5.3,5.3,0,0,1-2.394.739,2.706,2.706,0,0,1-1.606-.466c-1.14-.755-1.606-2.392-1.606-4.353a7.637,7.637,0,0,1,1.622-4.4A4.274,4.274,0,0,1,1696.819,1926Z" transform="translate(-1619.72 -1903.513)" fill="#fff"/>
            <path id="Trazado_24568" data-name="Trazado 24568" d="M1682.456,1985.484a7.122,7.122,0,0,1-1.575,3.469,28.732,28.732,0,0,1-6.6,6.49,6.434,6.434,0,0,1-3.068,1.284c-1.606,0-3.212-.176-3.212-3.212s6.425-9.637,6.425-9.637v-5.284a2.707,2.707,0,0,0,1.606.466,5.3,5.3,0,0,0,2.394-.739S1682.456,1982.609,1682.456,1985.484Z" transform="translate(-1600.539 -1945.328)" fill="#fff"/>
            <path id="Trazado_24569" data-name="Trazado 24569" d="M1495.4,2222v4.819a3.223,3.223,0,0,1-3.213,3.212h-44.974a3.223,3.223,0,0,1-3.212-3.212V2222h51.4Z" transform="translate(-1421.513 -2140.083)" fill="#8ff3ad"/>
            <path id="Trazado_24570" data-name="Trazado 24570" d="M1495.4,1817.212v6.425H1444v-6.425a3.222,3.222,0,0,1,3.212-3.212h44.974A3.223,3.223,0,0,1,1495.4,1817.212Z" transform="translate(-1421.513 -1814)" fill="#8ff3ad"/>
            <path id="Trazado_24571" data-name="Trazado 24571" d="M1528.912,1986.819l-17.668,17.668L1500,1993.244l4.819-4.819,6.425,6.425,12.85-12.85Z" transform="translate(-1466.269 -1948.269)" fill="#8ff3ad"/>
            <path id="Trazado_24572" data-name="Trazado 24572" d="M1357.7,1967.886h28.912c-3.438,3.212-9.637,6.425-9.637,6.425H1332s6.425-7.967,6.425-12.849v-30.518c0-3.84,6.441-20.109,7.79-23.483a4.1,4.1,0,0,1,.659-1.109c1.173-1.38,4.61-5.349,7.614-8.415v-.017c2.152-2.2,4.08-3.918,4.818-3.918,2.008,0,3.213,2.1,3.213,6.425,0,2.908-8.031,14.456-8.031,14.456v49.792A3.223,3.223,0,0,0,1357.7,1967.886Z" transform="translate(-1332 -1877.938)" fill="#fff"/>
          </g>
          <g id="Grupo_12009" data-name="Grupo 12009">
            <path id="Trazado_24573" data-name="Trazado 24573" d="M1490.6,1826.471a1.2,1.2,0,0,1-1.2-1.2v-12.85a2.01,2.01,0,0,0-2.008-2.008h-44.974a2.01,2.01,0,0,0-2.008,2.008v9.637a1.2,1.2,0,0,1-2.409,0v-9.637a4.422,4.422,0,0,1,4.417-4.417h44.974a4.422,4.422,0,0,1,4.417,4.417v12.85A1.2,1.2,0,0,1,1490.6,1826.471Z" transform="translate(-1415.513 -1808)" fill="#303e58"/>
            <path id="Trazado_24574" data-name="Trazado 24574" d="M1695.2,2114.745a1.2,1.2,0,0,1-1.2-1.2v-2.57a1.2,1.2,0,0,1,2.409,0v2.57A1.2,1.2,0,0,1,1695.2,2114.745Z" transform="translate(-1620.114 -2049.179)" fill="#303e58"/>
            <path id="Trazado_24575" data-name="Trazado 24575" d="M1487.391,2047.414h-44.974A4.422,4.422,0,0,1,1438,2043V1993.2a1.2,1.2,0,1,1,2.409,0V2043a2.01,2.01,0,0,0,2.008,2.008h44.974A2.01,2.01,0,0,0,1489.4,2043v-9.637a1.2,1.2,0,0,1,2.409,0V2043A4.422,4.422,0,0,1,1487.391,2047.414Z" transform="translate(-1415.513 -1955.057)" fill="#303e58"/>
            <path id="Trazado_24576" data-name="Trazado 24576" d="M1490.6,1858.409h-51.4a1.2,1.2,0,0,1,0-2.409h51.4a1.2,1.2,0,1,1,0,2.409Z" transform="translate(-1415.513 -1846.363)" fill="#303e58"/>
            <path id="Trazado_24577" data-name="Trazado 24577" d="M1533.63,1834.409H1527.2a1.2,1.2,0,0,1,0-2.409h6.425a1.2,1.2,0,0,1,0,2.409Z" transform="translate(-1485.845 -1827.181)" fill="#303e58"/>
            <path id="Trazado_24578" data-name="Trazado 24578" d="M1592.811,1834.409H1591.2a1.2,1.2,0,0,1,0-2.409h1.606a1.2,1.2,0,0,1,0,2.409Z" transform="translate(-1536.995 -1827.181)" fill="#303e58"/>
            <path id="Trazado_24579" data-name="Trazado 24579" d="M1516.179,2218.409H1471.2a1.2,1.2,0,1,1,0-2.409h44.974a1.2,1.2,0,1,1,0,2.409Z" transform="translate(-1441.088 -2134.083)" fill="#303e58"/>
            <path id="Trazado_24580" data-name="Trazado 24580" d="M1506.448,2000.9a1.2,1.2,0,0,1-.852-.353l-11.243-11.244a1.2,1.2,0,0,1,0-1.7l4.819-4.819a1.2,1.2,0,0,1,1.7,0l5.573,5.573,12-12a1.2,1.2,0,0,1,1.7,0l4.818,4.818a1.2,1.2,0,0,1,0,1.7l-17.668,17.668A1.2,1.2,0,0,1,1506.448,2000.9Zm-9.54-12.448,9.54,9.54,15.965-15.965-3.115-3.115-12,12a1.2,1.2,0,0,1-1.7,0l-5.573-5.573Z" transform="translate(-1460.269 -1942.27)" fill="#303e58"/>
            <path id="Trazado_24581" data-name="Trazado 24581" d="M1327.2,1970.72a1.205,1.205,0,0,1-.937-1.961c1.713-2.126,6.158-8.442,6.158-12.094v-30.518c0-3.82,5.508-18.007,7.876-23.93a5.338,5.338,0,0,1,.857-1.439c.423-.5,4.179-4.9,7.567-8.372a1.113,1.113,0,0,1,.106-.126c3.865-3.95,4.958-4.281,5.679-4.281,1.65,0,4.417.991,4.417,7.629,0,3.127-6.87,13.164-8.247,15.144a1.2,1.2,0,1,1-1.978-1.376c3.842-5.524,7.815-12.185,7.815-13.768,0-1.543-.189-5.1-1.919-5.217-.223.1-1.179.635-3.941,3.446a1.151,1.151,0,0,1-.106.125c-3.357,3.427-7.137,7.859-7.556,8.353a2.9,2.9,0,0,0-.459.778c-3.553,8.886-7.7,20.252-7.7,23.033v30.518c0,5.248-6.419,13.267-6.692,13.606A1.2,1.2,0,0,1,1327.2,1970.72Z" transform="translate(-1326 -1871.938)" fill="#303e58"/>
            <path id="Trazado_24582" data-name="Trazado 24582" d="M1551.2,2264.834a1.2,1.2,0,0,1-.555-2.274c.061-.031,6.094-3.176,9.369-6.236a1.2,1.2,0,1,1,1.645,1.76c-3.519,3.288-9.646,6.48-9.905,6.614A1.2,1.2,0,0,1,1551.2,2264.834Z" transform="translate(-1505.025 -2166.052)" fill="#303e58"/>
            <path id="Trazado_24583" data-name="Trazado 24583" d="M1690.417,1933.653a3.909,3.909,0,0,1-2.286-.676c-1.394-.932-2.131-2.781-2.131-5.347a8.771,8.771,0,0,1,1.863-5.124,5.392,5.392,0,0,1,4.161-2.505,6.034,6.034,0,0,1,6.023,6.216c0,2.8-2.344,5.31-4.667,6.555A6.524,6.524,0,0,1,1690.417,1933.653Zm1.606-11.244a3.152,3.152,0,0,0-2.222,1.526l-.022.029a6.475,6.475,0,0,0-1.37,3.665c0,1.679.389,2.9,1.066,3.348l.03.021a1.532,1.532,0,0,0,.911.245,4.19,4.19,0,0,0,1.815-.591c1.7-.909,3.4-2.722,3.4-4.436C1695.637,1926.178,1695.6,1922.409,1692.023,1922.409Zm-3.2.819h0Z" transform="translate(-1613.72 -1897.513)" fill="#303e58"/>
            <path id="Trazado_24584" data-name="Trazado 24584" d="M1666.417,1993.138c-1.322,0-4.417,0-4.417-4.417,0-3.094,4.792-8.4,6.425-10.122v-4.8a1.2,1.2,0,0,1,2.409,0v5.284a1.207,1.207,0,0,1-.341.84c-2.526,2.6-6.083,7.042-6.083,8.8,0,2.008.629,2.008,2.008,2.008a5.082,5.082,0,0,0,2.4-1.085,27.641,27.641,0,0,0,6.285-6.185c1.253-1.772,1.35-2.567,1.35-2.769,0-1.741-2.273-4.812-3.7-6.339a1.2,1.2,0,0,1,1.756-1.65c.446.474,4.358,4.73,4.358,7.989a7.859,7.859,0,0,1-1.8,4.165,29.888,29.888,0,0,1-6.914,6.795A7.25,7.25,0,0,1,1666.417,1993.138Z" transform="translate(-1594.539 -1939.33)" fill="#303e58"/>
            <path id="Trazado_24585" data-name="Trazado 24585" d="M1674.417,2070.933c-1.322,0-4.417,0-4.417-4.417,0-1.869,1.673-4.729,4.972-8.5a1.2,1.2,0,1,1,1.814,1.586c-3.227,3.69-4.376,5.993-4.376,6.917,0,2.008.629,2.008,2.008,2.008a2.748,2.748,0,0,0,1.091-.333,14.7,14.7,0,0,0,2.943-1.975,1.2,1.2,0,1,1,1.537,1.855,17.03,17.03,0,0,1-3.454,2.3A5.011,5.011,0,0,1,1674.417,2070.933Z" transform="translate(-1600.933 -2007.488)" fill="#303e58"/>
            <path id="Trazado_24586" data-name="Trazado 24586" d="M1711.205,2042.484a1.2,1.2,0,0,1-.765-2.136,27.49,27.49,0,0,0,2.982-2.876c2.074-2.323,3-4.094,3-4.818,0-1.2-1.085-3.213-2.9-5.4a1.2,1.2,0,0,1,1.852-1.541c1.578,1.9,3.46,4.641,3.46,6.938,0,.886-.47,2.9-3.616,6.424a29.989,29.989,0,0,1-3.25,3.133A1.2,1.2,0,0,1,1711.205,2042.484Z" transform="translate(-1632.902 -1981.656)" fill="#303e58"/>
            <path id="Trazado_24587" data-name="Trazado 24587" d="M1690.417,2101.668a6.228,6.228,0,0,1-1.986-.237c-1.608-.509-2.431-1.917-2.431-4.18a11.754,11.754,0,0,1,1.752-4.879,30.536,30.536,0,0,1,3.258-4.821,1.3,1.3,0,0,1,.161-.195,1.211,1.211,0,0,1,1.738,1.684,27.4,27.4,0,0,0-3.044,4.49,10.355,10.355,0,0,0-1.455,3.72c0,1.646.517,1.81.765,1.889a4.382,4.382,0,0,0,1.242.119c2.488,0,6.826-4.338,6.826-6.826,0-1.548-1.859-5.065-3.027-6.453a1.2,1.2,0,1,1,1.844-1.551c1.254,1.49,3.592,5.552,3.592,8,0,1.783-1.181,4.038-3.16,6.032S1692.23,2101.668,1690.417,2101.668Z" transform="translate(-1613.72 -2028.586)" fill="#303e58"/>
            <path id="Trazado_24588" data-name="Trazado 24588" d="M1567.2,1909.622a1.2,1.2,0,0,1-1.2-1.2V1905.2a1.2,1.2,0,0,1,2.409,0v3.212A1.2,1.2,0,0,1,1567.2,1909.622Z" transform="translate(-1517.814 -1884.725)" fill="#303e58"/>
            <path id="Trazado_24589" data-name="Trazado 24589" d="M1501.563,1936.768a1.2,1.2,0,0,1-.852-.353l-2.281-2.281a1.2,1.2,0,0,1,1.7-1.7l2.281,2.281a1.2,1.2,0,0,1-.852,2.057Z" transform="translate(-1463.529 -1907.166)" fill="#303e58"/>
            <path id="Trazado_24590" data-name="Trazado 24590" d="M1623.767,1936.768a1.2,1.2,0,0,1-.852-2.057l2.281-2.281a1.2,1.2,0,0,1,1.7,1.7l-2.281,2.281A1.2,1.2,0,0,1,1623.767,1936.768Z" transform="translate(-1563.02 -1907.166)" fill="#303e58"/>
            <path id="Trazado_24591" data-name="Trazado 24591" d="M1567.2,2141.06a1.2,1.2,0,0,1-1.2-1.2v-3.213a1.2,1.2,0,0,1,2.409,0v3.213A1.2,1.2,0,0,1,1567.2,2141.06Z" transform="translate(-1517.814 -2069.696)" fill="#303e58"/>
            <path id="Trazado_24592" data-name="Trazado 24592" d="M1626.048,2116.674a1.2,1.2,0,0,1-.849-.35l-2.281-2.265a1.2,1.2,0,0,1,1.7-1.709l2.281,2.265a1.2,1.2,0,0,1-.849,2.059Z" transform="translate(-1563.02 -2050.964)" fill="#303e58"/>
            <path id="Trazado_24593" data-name="Trazado 24593" d="M1499.283,2116.673a1.2,1.2,0,0,1-.849-2.059l2.281-2.265a1.2,1.2,0,0,1,1.7,1.709l-2.281,2.265A1.2,1.2,0,0,1,1499.283,2116.673Z" transform="translate(-1463.529 -2050.964)" fill="#303e58"/>
          </g>
        </g>
      </g>
    </g>
  </g>
</svg>
