<svg xmlns="http://www.w3.org/2000/svg" width="154" height="154" viewBox="0 0 154 154">
  <g id="Grupo_19064" data-name="Grupo 19064" transform="translate(-390 -10391)">
    <g id="Elipse_891" data-name="Elipse 891" transform="translate(390 10391)" fill="#ffc917" stroke="#2643a2" stroke-width="3">
      <circle cx="77" cy="77" r="77" stroke="none"/>
      <circle cx="77" cy="77" r="75.5" fill="none"/>
    </g>
    <g id="Grupo_12505" data-name="Grupo 12505" transform="translate(-870.013 9409.734)">
      <ellipse id="Elipse_892" data-name="Elipse 892" cx="35.5" cy="35" rx="35.5" ry="35" transform="translate(1308.013 1019.265)" fill="#ebedf0"/>
      <g id="Grupo_12504" data-name="Grupo 12504" transform="translate(1294.013 1008)">
        <g id="Grupo_12503" data-name="Grupo 12503" transform="translate(0 0)">
          <g id="Grupo_12501" data-name="Grupo 12501" transform="translate(1.211 1.211)">
            <path id="Trazado_25986" data-name="Trazado 25986" d="M1441.733,1292.667h-6.456a2.418,2.418,0,0,1-2.421-2.421,4.037,4.037,0,0,1,4.035-4.035h-6.456a2.418,2.418,0,0,1-2.421-2.421,4.037,4.037,0,0,1,4.035-4.035h3.228a2.418,2.418,0,0,1-2.421-2.421,4.037,4.037,0,0,1,4.035-4.035h24.824s-11.1-4.035-11.1-8.07c0-2.018,1.211-3.228,2.518-3.228,1.017,0,7.263,2.777,10.394,3.228,7.457,1.081,11.444,1.42,20.886,6.958,2.05,1.211,4.535,4.341,8.167,4.341h6.456v17.755h-7.248a19.783,19.783,0,0,0-7.779,1.6l-3.841,1.646a19.784,19.784,0,0,1-7.78,1.6h-32.266a2.418,2.418,0,0,1-2.421-2.421A4.037,4.037,0,0,1,1441.733,1292.667Z" transform="translate(-1402.188 -1211.964)" fill="#fff"/>
            <path id="Trazado_25987" data-name="Trazado 25987" d="M1572.154,1095.755c0,5.585-2.7,8.07-8.07,8.07-5.391,0-8.07-2.486-8.07-8.07s8.07-17.755,8.07-17.755S1572.154,1090.17,1572.154,1095.755Z" transform="translate(-1504.363 -1065.087)" fill="#8ff3ad"/>
            <path id="Trazado_25988" data-name="Trazado 25988" d="M1399.311,1021.894c-1.307.1-2.421.177-3.228.177a20.133,20.133,0,0,1-3.228-.274,21.51,21.51,0,0,1-4.842-1.34v-4.842a22.081,22.081,0,0,0,8.07,1.614c3.777,0,15.737-3.228,22.6-3.228,4.713,0,11.3,3.228,11.3,3.228l-3.228,4.842a36.427,36.427,0,0,0-9.685-1.614C1411.675,1020.456,1404.121,1021.457,1399.311,1021.894Z" transform="translate(-1370.258 -1014)" fill="#fff"/>
            <path id="Trazado_25989" data-name="Trazado 25989" d="M1359.54,1222.211h-24.824a4.037,4.037,0,0,0-4.035,4.035,2.418,2.418,0,0,0,2.421,2.421h-3.228a4.037,4.037,0,0,0-4.035,4.035,2.418,2.418,0,0,0,2.421,2.421h6.456a4.037,4.037,0,0,0-4.035,4.035,2.418,2.418,0,0,0,2.421,2.421h6.456a4.037,4.037,0,0,0-4.035,4.035,2.418,2.418,0,0,0,2.421,2.421h13.72v4.842a4.835,4.835,0,0,1-4.842,4.842h-41.966a4.835,4.835,0,0,1-4.842-4.842v-43.016a6.442,6.442,0,0,1,3.325-5.634l11.2-6.229h22.6l11.2,6.229a5.742,5.742,0,0,1,1.195.857s1.42,1.387,1.42,5.826c-1.308,0-2.518,1.21-2.518,3.228C1348.435,1218.176,1359.54,1222.211,1359.54,1222.211Z" transform="translate(-1300.013 -1160.876)" fill="#8ff3ad"/>
            <path id="Trazado_25990" data-name="Trazado 25990" d="M1394.61,1134v12.912h-22.6V1134h22.6Z" transform="translate(-1357.486 -1109.789)" fill="#fff"/>
            <path id="Trazado_25991" data-name="Trazado 25991" d="M1408.926,1094v8.07h-12.913V1094h12.913Z" transform="translate(-1376.644 -1077.859)" fill="#8ff3ad"/>
            <path id="Trazado_25992" data-name="Trazado 25992" d="M1418.469,1052.739v8.247h-6.456v-8.344a20.132,20.132,0,0,0,3.228.274C1416.048,1052.915,1417.162,1052.835,1418.469,1052.739Z" transform="translate(-1389.416 -1044.845)" fill="#fff"/>
          </g>
          <g id="Grupo_12502" data-name="Grupo 12502">
            <path id="Trazado_25993" data-name="Trazado 25993" d="M1490.592,1346.421h-19.369a1.211,1.211,0,0,1,0-2.421h19.369a1.211,1.211,0,1,1,0,2.421Z" transform="translate(-1434.503 -1276.209)" fill="#303e58"/>
            <path id="Trazado_25994" data-name="Trazado 25994" d="M1449.645,1320.877a3.636,3.636,0,0,1-3.632-3.632,5.252,5.252,0,0,1,5.246-5.246H1479.5a1.211,1.211,0,1,1,0,2.421h-28.246a2.828,2.828,0,0,0-2.824,2.824,1.212,1.212,0,0,0,1.21,1.211,1.211,1.211,0,0,1,0,2.421Z" transform="translate(-1415.346 -1250.665)" fill="#303e58"/>
            <path id="Trazado_25995" data-name="Trazado 25995" d="M1452.277,1352.877h-26.632a3.636,3.636,0,0,1-3.632-3.632,5.252,5.252,0,0,1,5.246-5.246h5.649a1.211,1.211,0,1,1,0,2.421h-5.649a2.828,2.828,0,0,0-2.825,2.824,1.212,1.212,0,0,0,1.211,1.211h26.632a1.211,1.211,0,1,1,0,2.421Z" transform="translate(-1396.188 -1276.209)" fill="#303e58"/>
            <path id="Trazado_25996" data-name="Trazado 25996" d="M1471.434,1384.877h-21.79a3.636,3.636,0,0,1-3.632-3.632,5.252,5.252,0,0,1,5.246-5.246,1.211,1.211,0,0,1,0,2.421,2.828,2.828,0,0,0-2.824,2.825,1.212,1.212,0,0,0,1.21,1.21h21.79a1.211,1.211,0,1,1,0,2.421Z" transform="translate(-1415.346 -1301.753)" fill="#303e58"/>
            <path id="Trazado_25997" data-name="Trazado 25997" d="M1505.91,1416.877h-32.266a3.636,3.636,0,0,1-3.632-3.632,5.252,5.252,0,0,1,5.246-5.246,1.211,1.211,0,0,1,0,2.421,2.828,2.828,0,0,0-2.825,2.824,1.212,1.212,0,0,0,1.21,1.211h32.266a18.464,18.464,0,0,0,7.3-1.5l3.841-1.645a20.873,20.873,0,0,1,8.256-1.7h7.248a1.211,1.211,0,1,1,0,2.421h-7.248a18.465,18.465,0,0,0-7.3,1.5l-3.841,1.645A20.871,20.871,0,0,1,1505.91,1416.877Z" transform="translate(-1434.503 -1327.296)" fill="#303e58"/>
            <path id="Trazado_25998" data-name="Trazado 25998" d="M1583.646,1272.948h-6.456c-3.044,0-5.289-1.8-7.092-3.255a16.1,16.1,0,0,0-1.691-1.254c-8.737-5.124-12.711-5.693-19.293-6.636l-1.151-.166a43.6,43.6,0,0,1-7.169-2.184,31.853,31.853,0,0,0-3.077-1.031c-.626.019-1.282.725-1.282,2.017,0,2.171,6.151,5.42,10.308,6.933a1.211,1.211,0,0,1-.827,2.275,46.719,46.719,0,0,1-5.718-2.6c-4.161-2.268-6.183-4.43-6.183-6.611,0-2.883,1.921-4.439,3.729-4.439a15.38,15.38,0,0,1,3.879,1.177,42.541,42.541,0,0,0,6.688,2.063l1.148.165c6.876.985,11.027,1.58,20.178,6.946a17.658,17.658,0,0,1,1.98,1.454c1.586,1.275,3.383,2.721,5.574,2.721h6.456a1.211,1.211,0,0,1,0,2.421Z" transform="translate(-1485.591 -1205.964)" fill="#303e58"/>
            <path id="Trazado_25999" data-name="Trazado 25999" d="M1389.82,1143.334h-22.6a1.211,1.211,0,1,1,0-2.421h21.386v-10.491h-20.176v5.246a1.211,1.211,0,1,1-2.421,0v-6.456a1.211,1.211,0,0,1,1.211-1.211h22.6a1.211,1.211,0,0,1,1.211,1.211v12.912A1.211,1.211,0,0,1,1389.82,1143.334Z" transform="translate(-1351.486 -1103.789)" fill="#303e58"/>
            <path id="Trazado_26000" data-name="Trazado 26000" d="M1404.136,1098.491a1.211,1.211,0,0,1-1.21-1.211v-6.86h-10.491v2.018a1.211,1.211,0,0,1-2.421,0v-3.228a1.211,1.211,0,0,1,1.21-1.211h12.913a1.21,1.21,0,0,1,1.21,1.211v8.07A1.21,1.21,0,0,1,1404.136,1098.491Z" transform="translate(-1370.644 -1071.859)" fill="#303e58"/>
            <path id="Trazado_26001" data-name="Trazado 26001" d="M1439.224,1057.531a1.211,1.211,0,0,1-1.211-1.211v-8.313a1.211,1.211,0,1,1,2.421,0v8.313A1.211,1.211,0,0,1,1439.224,1057.531Z" transform="translate(-1408.96 -1038.969)" fill="#303e58"/>
            <path id="Trazado_26002" data-name="Trazado 26002" d="M1407.223,1057.407a1.211,1.211,0,0,1-1.21-1.211v-8.344a1.211,1.211,0,1,1,2.421,0v8.344A1.211,1.211,0,0,1,1407.223,1057.407Z" transform="translate(-1383.416 -1038.845)" fill="#303e58"/>
            <path id="Trazado_26003" data-name="Trazado 26003" d="M1421.961,1018.491a1.211,1.211,0,0,1-.374-.059,35.442,35.442,0,0,0-9.311-1.555c-3.914,0-8.937.531-13.369,1-1.546.163-3.007.318-4.276.433l-.021,0c-1.257.092-2.445.18-3.317.18a21.326,21.326,0,0,1-3.42-.29,22.6,22.6,0,0,1-5.141-1.428,1.211,1.211,0,0,1-.72-1.107v-4.842a1.211,1.211,0,0,1,1.7-1.106,21.068,21.068,0,0,0,7.579,1.51,61.836,61.836,0,0,0,8.029-1.237c4.929-.933,10.517-1.991,14.568-1.991,4.937,0,11.552,3.215,11.831,3.352a1.21,1.21,0,0,1,.474,1.758l-3.228,4.842A1.21,1.21,0,0,1,1421.961,1018.491Zm-37.527-3.654a21.859,21.859,0,0,0,3.822.973h0a18.92,18.92,0,0,0,3.033.258c.781,0,1.921-.084,3.129-.173,1.249-.113,2.7-.267,4.23-.429,4.491-.475,9.582-1.013,13.624-1.013a36.313,36.313,0,0,1,9.173,1.409l1.941-2.912c-2.081-.9-6.311-2.532-9.5-2.532-3.824,0-9.293,1.035-14.118,1.949a60.29,60.29,0,0,1-8.479,1.279,23.292,23.292,0,0,1-6.86-1.1Z" transform="translate(-1364.258 -1008)" fill="#303e58"/>
            <path id="Trazado_26004" data-name="Trazado 26004" d="M1342.031,1254.141h-41.966a6.06,6.06,0,0,1-6.053-6.053v-43.016a7.647,7.647,0,0,1,3.951-6.693l11.2-6.228a1.211,1.211,0,0,1,1.177,2.116l-11.2,6.229a5.227,5.227,0,0,0-2.7,4.575v43.016a3.636,3.636,0,0,0,3.632,3.632h41.966a3.636,3.636,0,0,0,3.632-3.632,1.21,1.21,0,1,1,2.421,0A6.06,6.06,0,0,1,1342.031,1254.141Z" transform="translate(-1294.013 -1154.875)" fill="#303e58"/>
            <path id="Trazado_26005" data-name="Trazado 26005" d="M1490.423,1200.649a1.206,1.206,0,0,1-.587-.153l-11.2-6.229a1.211,1.211,0,0,1,1.177-2.116l11.2,6.229a1.211,1.211,0,0,1-.589,2.269Z" transform="translate(-1440.889 -1154.875)" fill="#303e58"/>
            <path id="Trazado_26006" data-name="Trazado 26006" d="M1559.294,1100.246c-6.158,0-9.281-3.123-9.281-9.281,0-5.882,7.934-17.915,8.272-18.424a1.211,1.211,0,0,1,2.018,0c.338.509,8.272,12.542,8.272,18.424C1568.575,1097.124,1565.452,1100.246,1559.294,1100.246Zm0-24.792c-2.559,4.107-6.86,11.788-6.86,15.511,0,4.808,2.052,6.86,6.86,6.86s6.86-2.052,6.86-6.86C1566.154,1087.242,1561.853,1079.561,1559.294,1075.454Z" transform="translate(-1498.363 -1059.087)" fill="#303e58"/>
            <path id="Trazado_26007" data-name="Trazado 26007" d="M1577.267,1166.286h-.055a4.614,4.614,0,0,1-2.785-1.114l-.026-.023a4.529,4.529,0,0,1-1.409-2.518,1.211,1.211,0,1,1,2.382-.434,2.091,2.091,0,0,0,.643,1.15,2.182,2.182,0,0,0,1.3.52,1.21,1.21,0,0,1-.053,2.42Z" transform="translate(-1516.69 -1130.292)" fill="#fff"/>
          </g>
        </g>
      </g>
    </g>
  </g>
</svg>
