<svg xmlns="http://www.w3.org/2000/svg" width="154" height="154" viewBox="0 0 154 154">
  <g id="Grupo_19066" data-name="Grupo 19066" transform="translate(-390 -10957)">
    <g id="Elipse_894" data-name="Elipse 894" transform="translate(390 10957)" fill="#ffc917" stroke="#2643a2" stroke-width="3">
      <circle cx="77" cy="77" r="77" stroke="none"/>
      <circle cx="77" cy="77" r="75.5" fill="none"/>
    </g>
    <g id="Grupo_12511" data-name="Grupo 12511" transform="translate(84 9180.552)">
      <g id="Grupo_12510" data-name="Grupo 12510" transform="translate(334 1808)">
        <g id="Grupo_12508" data-name="Grupo 12508" transform="translate(1.091 17.09)">
          <path id="Trazado_26008" data-name="Trazado 26008" d="M502.553,2026.643l-18.05-31.124a3.672,3.672,0,0,1,1.352-5.018,3.712,3.712,0,0,1,5.048,1.338l10.7,18.472c.568-3.606,5.352-4.03,6.342-2.792.713-2.676,4.48-3.737,6.342-2.792,2.327-4.2,6.065-3.288,7.446-.888l10.181,17.542a8.919,8.919,0,0,1,1.121,3.359l.888,7.447.014.088a8.9,8.9,0,0,0,1.119,3.359l7.127,9.643h-26.18a9.126,9.126,0,0,0-2.778-1.6c-7.228-2.358-14.05-9.367-15.547-10.721-.291-.261-.582-.523-.874-.77-4.944-4.218-9.978-6.167-10.893-7.752a2.792,2.792,0,0,1,1.162-4.072C489.551,2018.951,492.139,2019.9,502.553,2026.643Z" transform="translate(-457.829 -1974.008)" fill="#fff"/>
          <path id="Trazado_26009" data-name="Trazado 26009" d="M414.468,1902h9.89a2.918,2.918,0,0,1,2.909,2.909v52.36a2.918,2.918,0,0,1-2.909,2.909H416.1l-.888-7.447a8.918,8.918,0,0,0-1.121-3.359l-10.181-17.542c-1.381-2.4-5.119-3.315-7.446.888-1.862-.944-5.629.116-6.342,2.792-.99-1.237-5.774-.814-6.342,2.793l-10.7-18.472a3.712,3.712,0,0,0-5.048-1.338,3.673,3.673,0,0,0-1.352,5.018l18.05,31.124c-10.414-6.748-13-7.693-15.476-6.282a2.792,2.792,0,0,0-1.162,4.072c.915,1.585,5.948,3.534,10.893,7.752h-36.07a2.918,2.918,0,0,1-2.909-2.909v-52.36a2.918,2.918,0,0,1,2.909-2.909h71.559Z" transform="translate(-340 -1902)" fill="#979faf"/>
        </g>
        <g id="Grupo_12509" data-name="Grupo 12509" transform="translate(0 0)">
          <path id="Trazado_26010" data-name="Trazado 26010" d="M517.638,2175.507a1.086,1.086,0,0,1-.684-.242,8.012,8.012,0,0,0-2.443-1.415c-6.672-2.176-12.929-8.108-15.285-10.341-.271-.257-.488-.462-.644-.6-.278-.25-.568-.51-.848-.748a52.288,52.288,0,0,0-7.058-4.909c-2.1-1.281-3.5-2.128-4.074-3.13a3.877,3.877,0,0,1,1.558-5.56c3.205-1.828,6.421-.3,16.618,6.31a1.091,1.091,0,0,1-1.186,1.831c-10.132-6.565-12.468-7.319-14.343-6.25a1.7,1.7,0,0,0-.757,2.579,14.191,14.191,0,0,0,3.318,2.356,54.1,54.1,0,0,1,7.337,5.111c.3.255.6.526.894.788.169.152.4.37.685.642,2.258,2.14,8.256,7.826,14.472,9.854a10.153,10.153,0,0,1,3.125,1.787,1.091,1.091,0,0,1-.686,1.94Z" transform="translate(-458.37 -2086.059)" fill="#303e58"/>
          <path id="Trazado_26011" data-name="Trazado 26011" d="M537.294,2041.475a1.089,1.089,0,0,1-.878-.443l-7.127-9.643a1.079,1.079,0,0,1-.067-.1,10.054,10.054,0,0,1-1.255-3.75l-.011-.069c0-.015,0-.03-.006-.045l-.888-7.447a7.864,7.864,0,0,0-.982-2.942l-10.18-17.54a2.894,2.894,0,0,0-2.434-1.489h-.019c-1.159.01-2.258.847-3.095,2.358a1.091,1.091,0,0,1-1.448.445,3.79,3.79,0,0,0-2.961.184,3.145,3.145,0,0,0-1.834,1.916,1.091,1.091,0,0,1-1.906.4,3.015,3.015,0,0,0-2.325-.007,2.9,2.9,0,0,0-2.087,2.287,1.091,1.091,0,0,1-2.022.377l-10.7-18.472a2.624,2.624,0,0,0-3.562-.938,2.588,2.588,0,0,0-.95,3.526l18.834,32.476a1.091,1.091,0,0,1-1.887,1.1l-.785-1.354-18.05-31.125a4.782,4.782,0,0,1,8.286-4.777l9.635,16.627a5.457,5.457,0,0,1,2.972-1.9,5.833,5.833,0,0,1,2.987-.025,5.586,5.586,0,0,1,2.507-2.1,6.42,6.42,0,0,1,3.871-.476,5.479,5.479,0,0,1,4.5-2.7h.038a5.036,5.036,0,0,1,4.322,2.579l10.179,17.538a10.07,10.07,0,0,1,1.26,3.772l.9,7.5c0,.013,0,.027.006.041a7.863,7.863,0,0,0,.951,2.9l7.09,9.592a1.091,1.091,0,0,1-.876,1.739Z" transform="translate(-451.845 -1952.027)" fill="#303e58"/>
          <path id="Trazado_26012" data-name="Trazado 26012" d="M495.091,1947.636a1.091,1.091,0,0,1-1.091-1.091v-1.454a1.091,1.091,0,0,1,2.182,0v1.454A1.091,1.091,0,0,1,495.091,1947.636Z" transform="translate(-464.911 -1919.274)" fill="#fff"/>
          <path id="Trazado_26013" data-name="Trazado 26013" d="M455.789,1966.816a1.088,1.088,0,0,1-.777-.325l-1.018-1.033a1.091,1.091,0,1,1,1.553-1.532l1.018,1.032a1.091,1.091,0,0,1-.776,1.857Z" transform="translate(-431.921 -1935.312)" fill="#fff"/>
          <path id="Trazado_26014" data-name="Trazado 26014" d="M441.506,2008.182h-1.454a1.091,1.091,0,0,1,0-2.182h1.454a1.091,1.091,0,0,1,0,2.182Z" transform="translate(-419.879 -1970.002)" fill="#fff"/>
          <path id="Trazado_26015" data-name="Trazado 26015" d="M459.653,2043.919a1.091,1.091,0,0,1-.766-1.867l1.031-1.019a1.091,1.091,0,0,1,1.533,1.552l-1.031,1.018A1.088,1.088,0,0,1,459.653,2043.919Z" transform="translate(-435.916 -1998.409)" fill="#fff"/>
          <path id="Trazado_26016" data-name="Trazado 26016" d="M550.545,2001.221h-1.454a1.091,1.091,0,0,1,0-2.182h1.454a1.091,1.091,0,1,1,0,2.182Z" transform="translate(-509.094 -1964.307)" fill="#fff"/>
          <path id="Trazado_26017" data-name="Trazado 26017" d="M531.81,1961.855a1.091,1.091,0,0,1-.771-1.862l1.033-1.033a1.091,1.091,0,0,1,1.543,1.543l-1.033,1.033A1.088,1.088,0,0,1,531.81,1961.855Z" transform="translate(-494.954 -1931.253)" fill="#fff"/>
          <path id="Trazado_26018" data-name="Trazado 26018" d="M365.634,1956.359H338a4,4,0,0,1-4-4V1900a4,4,0,0,1,4-4h64a1.091,1.091,0,0,1,0,2.182H338a1.82,1.82,0,0,0-1.818,1.818v52.36a1.82,1.82,0,0,0,1.818,1.818h27.634a1.091,1.091,0,1,1,0,2.182Z" transform="translate(-334 -1880.001)" fill="#303e58"/>
          <path id="Trazado_26019" data-name="Trazado 26019" d="M786,1956.359h-1.454a1.091,1.091,0,0,1,0-2.182H786a1.82,1.82,0,0,0,1.818-1.818V1900a1.82,1.82,0,0,0-1.818-1.818h-2.909a1.091,1.091,0,0,1,0-2.182H786a4,4,0,0,1,4,4v52.36A4,4,0,0,1,786,1956.359Z" transform="translate(-700.551 -1880.001)" fill="#303e58"/>
          <path id="Trazado_26020" data-name="Trazado 26020" d="M575.091,1922.907a1.091,1.091,0,0,1-.711-1.919l10.181-8.727a1.091,1.091,0,0,1,1.481.057l3.5,3.5,15.529-19.411a1.091,1.091,0,1,1,1.7,1.363l-16.29,20.362a1.091,1.091,0,0,1-1.623.09l-3.649-3.649-9.414,8.069A1.088,1.088,0,0,1,575.091,1922.907Z" transform="translate(-530.367 -1880.001)" fill="#8ff3ad"/>
          <path id="Trazado_26021" data-name="Trazado 26021" d="M367.091,2106.908a1.091,1.091,0,0,1-.771-1.862l8.727-8.727a1.09,1.09,0,0,1,1.376-.136l8.039,5.359,5.19-4.45a1.091,1.091,0,1,1,1.42,1.656l-5.818,4.989a1.091,1.091,0,0,1-1.315.079l-7.982-5.322-8.094,8.094A1.087,1.087,0,0,1,367.091,2106.908Z" transform="translate(-360.182 -2043.64)" fill="#8ff3ad"/>
          <path id="Trazado_26022" data-name="Trazado 26022" d="M775.091,2048a1.091,1.091,0,0,1-1.091-1.091v-5.818a1.091,1.091,0,0,1,2.182,0v5.818A1.091,1.091,0,0,1,775.091,2048Z" transform="translate(-694.006 -1997.821)" fill="#303e58"/>
          <path id="Trazado_26023" data-name="Trazado 26023" d="M769.272,1820.363a1.091,1.091,0,0,1-1.091-1.091v-8.923l-8.936,1.276a1.091,1.091,0,1,1-.309-2.159l10.181-1.454a1.091,1.091,0,0,1,1.245,1.08v10.181A1.091,1.091,0,0,1,769.272,1820.363Z" transform="translate(-680.914 -1808)" fill="#303e58"/>
          <path id="Trazado_26024" data-name="Trazado 26024" d="M744.692,1826.18a1.091,1.091,0,0,1-.851-1.772l12.8-16a1.091,1.091,0,1,1,1.7,1.363l-12.8,16A1.089,1.089,0,0,1,744.692,1826.18Z" transform="translate(-669.134 -1808)" fill="#303e58"/>
        </g>
      </g>
    </g>
  </g>
</svg>
