<svg xmlns="http://www.w3.org/2000/svg" width="154" height="154" viewBox="0 0 154 154">
  <g id="Grupo_19060" data-name="Grupo 19060" transform="translate(-390 -9271)">
    <g id="Elipse_868" data-name="Elipse 868" transform="translate(390 9271)" fill="#ffc917" stroke="#2643a2" stroke-width="3">
      <circle cx="77" cy="77" r="77" stroke="none"/>
      <circle cx="77" cy="77" r="75.5" fill="none"/>
    </g>
    <g id="Grupo_12483" data-name="Grupo 12483" transform="translate(-2799.999 7450)">
      <circle id="Elipse_869" data-name="Elipse 869" cx="43" cy="43" r="43" transform="translate(3223.999 1854)" fill="#ebedf0"/>
      <g id="Grupo_12482" data-name="Grupo 12482" transform="translate(3213.999 1863.03)">
        <g id="Grupo_12481" data-name="Grupo 12481" transform="translate(0 0)">
          <g id="Grupo_12479" data-name="Grupo 12479" transform="translate(1.29 1.29)">
            <path id="Trazado_25866" data-name="Trazado 25866" d="M3674.88,2006v20.64a11.18,11.18,0,0,1,0-20.64Z" transform="translate(-3571.68 -1983.64)" fill="#fff"/>
            <ellipse id="Elipse_870" data-name="Elipse 870" cx="1.5" cy="2" rx="1.5" ry="2" transform="translate(82.71 11.68)" fill="#303e58"/>
            <ellipse id="Elipse_871" data-name="Elipse 871" cx="1.5" cy="2" rx="1.5" ry="2" transform="translate(82.71 49.68)" fill="#303e58"/>
            <path id="Trazado_25867" data-name="Trazado 25867" d="M3586.88,1942.6a1.72,1.72,0,1,0-1.72-1.72A1.726,1.726,0,0,0,3586.88,1942.6Zm0-8.6a6.88,6.88,0,1,1-6.88,6.88A6.878,6.878,0,0,1,3586.88,1934Z" transform="translate(-3502.6 -1927.12)" fill="#fff"/>
            <path id="Trazado_25868" data-name="Trazado 25868" d="M3586.88,2118.6a1.72,1.72,0,1,0-1.72-1.72A1.726,1.726,0,0,0,3586.88,2118.6Zm0-8.6a6.88,6.88,0,1,1-6.88,6.88A6.878,6.878,0,0,1,3586.88,2110Z" transform="translate(-3502.6 -2065.28)" fill="#fff"/>
            <path id="Trazado_25869" data-name="Trazado 25869" d="M3532.6,1916.62a9.437,9.437,0,0,0-8.6-9.41V1902h34.4a3.451,3.451,0,0,1,3.44,3.44v18.92a11.18,11.18,0,0,0,0,20.64v18.92a3.451,3.451,0,0,1-3.44,3.44H3524v-41.33A9.437,9.437,0,0,0,3532.6,1916.62Zm3.44-.86a6.88,6.88,0,1,0,6.88-6.88A6.878,6.878,0,0,0,3536.04,1915.76Zm13.76,37.84a6.88,6.88,0,1,0-6.88,6.88A6.878,6.878,0,0,0,3549.8,1953.6Z" transform="translate(-3458.64 -1902)" fill="#8ff3ad"/>
            <path id="Trazado_25870" data-name="Trazado 25870" d="M3530.88,1941.924a7.734,7.734,0,0,1-6.88,7.69v-3.475a4.3,4.3,0,0,0,0-8.429v-3.475A7.747,7.747,0,0,1,3530.88,1941.924Z" transform="translate(-3458.64 -1927.304)" fill="#303e58"/>
            <path id="Trazado_25871" data-name="Trazado 25871" d="M3524,1950.4a4.3,4.3,0,0,1,0,8.429v-1.789a2.57,2.57,0,0,0,0-4.851Z" transform="translate(-3458.64 -1939.992)" fill="#fff"/>
            <path id="Trazado_25872" data-name="Trazado 25872" d="M3524,1958.719a2.57,2.57,0,0,1,0,4.851Z" transform="translate(-3458.64 -1946.524)" fill="#303e58"/>
            <path id="Trazado_25873" data-name="Trazado 25873" d="M3524,1926.234a9.448,9.448,0,0,1,0,18.819v-1.72a7.737,7.737,0,0,0,0-15.379Z" transform="translate(-3458.64 -1921.024)" fill="#8ff3ad"/>
            <path id="Trazado_25874" data-name="Trazado 25874" d="M3508,1960.58a2.576,2.576,0,0,1,2.58-2.58,2.361,2.361,0,0,1,.86.155v4.851a2.363,2.363,0,0,1-.86.155A2.576,2.576,0,0,1,3508,1960.58Z" transform="translate(-3446.08 -1945.96)" fill="#303e58"/>
            <path id="Trazado_25875" data-name="Trazado 25875" d="M3472.9,1907.16a9.46,9.46,0,0,0,0,18.92,7.181,7.181,0,0,0,.86-.05v41.33H3460v-25.8a6.88,6.88,0,1,0,0-13.76V1902h13.76v5.21A7.207,7.207,0,0,0,3472.9,1907.16Z" transform="translate(-3408.4 -1902)" fill="#8ff3ad"/>
            <path id="Trazado_25876" data-name="Trazado 25876" d="M3504.3,1958.6a4.3,4.3,0,1,1,0-8.6,4.674,4.674,0,0,1,.86.086v1.789a2.363,2.363,0,0,0-.86-.155,2.58,2.58,0,1,0,0,5.16,2.366,2.366,0,0,0,.86-.155v1.789A4.674,4.674,0,0,1,3504.3,1958.6Z" transform="translate(-3439.8 -1939.68)" fill="#fff"/>
            <path id="Trazado_25877" data-name="Trazado 25877" d="M3491.74,1949.48a7.74,7.74,0,0,1,0-15.48,7.181,7.181,0,0,1,.86.05v3.475a4.674,4.674,0,0,0-.86-.086,4.3,4.3,0,1,0,0,8.6,4.674,4.674,0,0,0,.86-.086v3.475A7.207,7.207,0,0,1,3491.74,1949.48Z" transform="translate(-3427.24 -1927.12)" fill="#303e58"/>
            <path id="Trazado_25878" data-name="Trazado 25878" d="M3477.72,1935.46a7.729,7.729,0,0,0,7.74,7.74,7.177,7.177,0,0,0,.86-.05v1.72a7.177,7.177,0,0,1-.86.05,9.46,9.46,0,0,1,0-18.92,7.2,7.2,0,0,1,.86.05v1.72a7.177,7.177,0,0,0-.86-.05A7.74,7.74,0,0,0,3477.72,1935.46Z" transform="translate(-3420.96 -1920.84)" fill="#8ff3ad"/>
            <circle id="Elipse_872" data-name="Elipse 872" cx="2" cy="2" r="2" transform="translate(49.71 30.68)" fill="#303e58"/>
            <path id="Trazado_25879" data-name="Trazado 25879" d="M3436.6,2028.88a1.72,1.72,0,1,0-1.72,1.72A1.726,1.726,0,0,0,3436.6,2028.88Zm-1.72-6.88a6.88,6.88,0,1,1-6.88,6.88A6.878,6.878,0,0,1,3434.88,2022Z" transform="translate(-3383.28 -1996.2)" fill="#fff"/>
            <path id="Trazado_25880" data-name="Trazado 25880" d="M3257.84,1902h13.76v25.8a6.88,6.88,0,1,0,0,13.76v25.8h-48.16a3.451,3.451,0,0,1-3.44-3.44V1945a11.18,11.18,0,0,0,0-20.64v-18.92a3.451,3.451,0,0,1,3.44-3.44Zm-6.88,29.24a5.16,5.16,0,1,0-5.16,5.16A5.153,5.153,0,0,0,3250.96,1931.24Zm-5.16-15.48a6.88,6.88,0,1,0-6.88,6.88A6.878,6.878,0,0,0,3245.8,1915.76Zm0,37.84a6.88,6.88,0,1,0-6.88,6.88A6.878,6.878,0,0,0,3245.8,1953.6Z" transform="translate(-3220 -1902)" fill="#8ff3ad"/>
            <ellipse id="Elipse_873" data-name="Elipse 873" cx="5" cy="5.5" rx="5" ry="5.5" transform="translate(20.71 23.68)" fill="#303e58"/>
            <circle id="Elipse_874" data-name="Elipse 874" cx="2" cy="2" r="2" transform="translate(16.71 11.68)" fill="#303e58"/>
            <circle id="Elipse_875" data-name="Elipse 875" cx="2" cy="2" r="2" transform="translate(16.71 49.68)" fill="#303e58"/>
            <path id="Trazado_25881" data-name="Trazado 25881" d="M3282.88,1942.6a1.72,1.72,0,1,0-1.72-1.72A1.726,1.726,0,0,0,3282.88,1942.6Zm0-8.6a6.88,6.88,0,1,1-6.88,6.88A6.878,6.878,0,0,1,3282.88,1934Z" transform="translate(-3263.96 -1927.12)" fill="#fff"/>
            <path id="Trazado_25882" data-name="Trazado 25882" d="M3282.88,2118.6a1.72,1.72,0,1,0-1.72-1.72A1.726,1.726,0,0,0,3282.88,2118.6Zm0-8.6a6.88,6.88,0,1,1-6.88,6.88A6.878,6.878,0,0,1,3282.88,2110Z" transform="translate(-3263.96 -2065.28)" fill="#fff"/>
            <path id="Trazado_25883" data-name="Trazado 25883" d="M3220,2006a11.18,11.18,0,0,1,0,20.64Z" transform="translate(-3220 -1983.64)" fill="#fff"/>
          </g>
          <g id="Grupo_12480" data-name="Grupo 12480">
            <path id="Trazado_25884" data-name="Trazado 25884" d="M3315.05,1963.94h-96.32a4.735,4.735,0,0,1-4.73-4.73v-58.48a4.735,4.735,0,0,1,4.73-4.73h96.32a4.735,4.735,0,0,1,4.73,4.73v58.48A4.735,4.735,0,0,1,3315.05,1963.94Zm-96.32-65.36a2.152,2.152,0,0,0-2.15,2.15v58.48a2.152,2.152,0,0,0,2.15,2.15h96.32a2.152,2.152,0,0,0,2.15-2.15v-58.48a2.152,2.152,0,0,0-2.15-2.15Z" transform="translate(-3214 -1896)" fill="#303e58"/>
            <path id="Trazado_25885" data-name="Trazado 25885" d="M3430.17,2032.34a8.17,8.17,0,1,1,8.17-8.17A8.179,8.179,0,0,1,3430.17,2032.34Zm0-13.76a5.59,5.59,0,1,0,5.59,5.59A5.6,5.6,0,0,0,3430.17,2018.58Z" transform="translate(-3377.28 -1990.2)" fill="#303e58"/>
            <path id="Trazado_25886" data-name="Trazado 25886" d="M3582.17,2120.34a8.17,8.17,0,1,1,8.17-8.17A8.18,8.18,0,0,1,3582.17,2120.34Zm0-13.76a5.59,5.59,0,1,0,5.59,5.59A5.6,5.6,0,0,0,3582.17,2106.58Z" transform="translate(-3496.6 -2059.28)" fill="#303e58"/>
            <path id="Trazado_25887" data-name="Trazado 25887" d="M3278.17,2120.34a8.17,8.17,0,1,1,8.17-8.17A8.179,8.179,0,0,1,3278.17,2120.34Zm0-13.76a5.59,5.59,0,1,0,5.59,5.59A5.6,5.6,0,0,0,3278.17,2106.58Z" transform="translate(-3257.96 -2059.28)" fill="#303e58"/>
            <path id="Trazado_25888" data-name="Trazado 25888" d="M3582.17,1944.34a8.17,8.17,0,1,1,8.17-8.17A8.179,8.179,0,0,1,3582.17,1944.34Zm0-13.76a5.59,5.59,0,1,0,5.59,5.59A5.6,5.6,0,0,0,3582.17,1930.58Z" transform="translate(-3496.6 -1921.12)" fill="#303e58"/>
            <path id="Trazado_25889" data-name="Trazado 25889" d="M3278.17,1944.34a8.17,8.17,0,1,1,8.17-8.17A8.179,8.179,0,0,1,3278.17,1944.34Zm0-13.76a5.59,5.59,0,1,0,5.59,5.59A5.6,5.6,0,0,0,3278.17,1930.58Z" transform="translate(-3257.96 -1921.12)" fill="#303e58"/>
            <path id="Trazado_25890" data-name="Trazado 25890" d="M3455.29,1924.38a1.29,1.29,0,0,1-1.29-1.29v-25.8a1.29,1.29,0,1,1,2.58,0v25.8A1.29,1.29,0,0,1,3455.29,1924.38Z" transform="translate(-3402.4 -1896)" fill="#303e58"/>
            <path id="Trazado_25891" data-name="Trazado 25891" d="M3455.29,2108.38a1.29,1.29,0,0,1-1.29-1.29v-25.8a1.29,1.29,0,1,1,2.58,0v25.8A1.29,1.29,0,0,1,3455.29,2108.38Z" transform="translate(-3402.4 -2040.44)" fill="#303e58"/>
            <path id="Trazado_25892" data-name="Trazado 25892" d="M3670.169,2023.219a1.284,1.284,0,0,1-.5-.1,12.47,12.47,0,0,1,0-23.015,1.29,1.29,0,0,1,1.007,2.375,9.89,9.89,0,0,0,0,18.265,1.29,1.29,0,0,1-.5,2.478Z" transform="translate(-3565.68 -1977.639)" fill="#303e58"/>
            <path id="Trazado_25893" data-name="Trazado 25893" d="M3215.29,2023.219a1.29,1.29,0,0,1-.5-2.478,9.89,9.89,0,0,0,0-18.265,1.29,1.29,0,0,1,1.007-2.375,12.47,12.47,0,0,1,0,23.015A1.285,1.285,0,0,1,3215.29,2023.219Z" transform="translate(-3213.999 -1977.639)" fill="#303e58"/>
            <path id="Trazado_25894" data-name="Trazado 25894" d="M3519.29,2051.676a1.29,1.29,0,0,1-1.29-1.29v-41.33a1.29,1.29,0,1,1,2.58,0v41.33A1.29,1.29,0,0,1,3519.29,2051.676Z" transform="translate(-3452.64 -1983.736)" fill="#303e58"/>
            <path id="Trazado_25895" data-name="Trazado 25895" d="M3519.29,1903.79a1.29,1.29,0,0,1-1.29-1.29v-5.21a1.29,1.29,0,1,1,2.58,0v5.21A1.29,1.29,0,0,1,3519.29,1903.79Z" transform="translate(-3452.64 -1896)" fill="#303e58"/>
            <path id="Trazado_25896" data-name="Trazado 25896" d="M3391.29,2095.82a1.29,1.29,0,0,1-1.29-1.29v-29.24a1.29,1.29,0,1,1,2.58,0v29.24A1.29,1.29,0,0,1,3391.29,2095.82Z" transform="translate(-3352.16 -2027.88)" fill="#303e58"/>
            <path id="Trazado_25897" data-name="Trazado 25897" d="M3391.29,1910.62a1.29,1.29,0,0,1-1.29-1.29v-12.04a1.29,1.29,0,1,1,2.58,0v12.04A1.29,1.29,0,0,1,3391.29,1910.62Z" transform="translate(-3352.16 -1896)" fill="#303e58"/>
            <path id="Trazado_25898" data-name="Trazado 25898" d="M3360.008,1990.141a1.29,1.29,0,0,1-.455-2.5l5.849-2.2a1.29,1.29,0,0,1,.909,2.415l-5.849,2.2A1.287,1.287,0,0,1,3360.008,1990.141Z" transform="translate(-3327.603 -1966.147)" fill="#303e58"/>
            <path id="Trazado_25899" data-name="Trazado 25899" d="M3392.008,2006.141a1.29,1.29,0,0,1-.455-2.5l5.849-2.2a1.29,1.29,0,0,1,.909,2.415l-5.849,2.2A1.289,1.289,0,0,1,3392.008,2006.141Z" transform="translate(-3352.723 -1978.706)" fill="#303e58"/>
          </g>
        </g>
      </g>
    </g>
  </g>
</svg>
