<svg xmlns="http://www.w3.org/2000/svg" width="154" height="154" viewBox="0 0 154 154">
  <g id="Grupo_19061" data-name="Grupo 19061" transform="translate(-390 -9542)">
    <g id="Elipse_876" data-name="Elipse 876" transform="translate(390 9542)" fill="#ffc917" stroke="#2643a2" stroke-width="3">
      <circle cx="77" cy="77" r="77" stroke="none"/>
      <circle cx="77" cy="77" r="75.5" fill="none"/>
    </g>
    <g id="Grupo_12484" data-name="Grupo 12484" transform="translate(-918.01 8559.117)">
      <circle id="Elipse_848" data-name="Elipse 848" cx="38.5" cy="38.5" r="38.5" transform="translate(1362.01 1005.883)" fill="#ebedf0"/>
      <g id="Grupo_12057" data-name="Grupo 12057" transform="translate(1350.01 1006.004)">
        <g id="Grupo_12056" data-name="Grupo 12056" transform="translate(0 0)">
          <g id="Grupo_12054" data-name="Grupo 12054" transform="translate(1.31 0)">
            <rect id="Rectángulo_2468" data-name="Rectángulo 2468" width="7" height="9" transform="translate(38.689 6.879)" fill="#fff"/>
            <path id="Trazado_24812" data-name="Trazado 24812" d="M1514.365,1098.965l5.241-3.494s-8.578-6.132-11.5-12.23l-1.747-5.241h-2.481a6.925,6.925,0,0,0-3.388.874c.577,4.334,1.641,6.115,1.641,6.115C1504.826,1092.344,1514.365,1098.965,1514.365,1098.965Z" transform="translate(-1468.941 -1062.279)" fill="#fff"/>
            <path id="Trazado_24813" data-name="Trazado 24813" d="M1413.757,1126h-1.747v10.482h17.471V1126h-15.724Z" transform="translate(-1399.78 -1099.797)" fill="#fff"/>
            <path id="Trazado_24814" data-name="Trazado 24814" d="M1406.952,1038h-20.108a10.472,10.472,0,0,0-7.425,3.074l-7.408,7.408h3.494a6.986,6.986,0,0,1,6.988,6.988v1.747h13.977v-3.494a7.009,7.009,0,0,1,3.6-6.115,6.924,6.924,0,0,1,3.388-.874h3.494Z" transform="translate(-1368.516 -1031.015)" fill="#8ff3ad"/>
            <path id="Trazado_24815" data-name="Trazado 24815" d="M1397.24,1243.883a4.391,4.391,0,0,0,3.129-1.31,4.259,4.259,0,0,0,1.065-3.144c-.839-43.539-13.977-35.938-13.977-44.464,0-2.411,1.747-2.831,1.747-5.241s-1.747-2.29-1.747-5.241c0-2.481,1.747-2.691,1.747-5.241,0-2.917-3.494-5.241-3.494-5.241H1368.24c-8.3,11.88-12.229,28.827-12.229,65.481a4.452,4.452,0,0,0,1.276,3.109,4.4,4.4,0,0,0,3.108,1.293Z" transform="translate(-1356.01 -1137.314)" fill="#8ff3ad"/>
            <ellipse id="Elipse_849" data-name="Elipse 849" cx="1" cy="1.5" rx="1" ry="1.5" transform="translate(70.689 8.879)" fill="#979faf"/>
            <ellipse id="Elipse_850" data-name="Elipse 850" cx="1" cy="1.5" rx="1" ry="1.5" transform="translate(70.689 -0.121)" fill="#979faf"/>
            <circle id="Elipse_851" data-name="Elipse 851" cx="1.31" cy="1.31" r="1.31" transform="translate(70.32 18.307)" fill="#979faf"/>
            <path id="Trazado_24816" data-name="Trazado 24816" d="M1651.207,1076.091a1.6,1.6,0,1,0-1.59,1.59A1.6,1.6,0,0,0,1651.207,1076.091Z" transform="translate(-1584.242 -1059.531)" fill="#979faf"/>
            <path id="Trazado_24817" data-name="Trazado 24817" d="M1651.28,1046.641a1.607,1.607,0,1,0,1.607,1.607A1.6,1.6,0,0,0,1651.28,1046.641Z" transform="translate(-1585.555 -1037.769)" fill="#979faf"/>
            <path id="Trazado_24818" data-name="Trazado 24818" d="M1649.617,1018.641a1.607,1.607,0,1,0,1.59,1.607A1.6,1.6,0,0,0,1649.617,1018.641Z" transform="translate(-1584.242 -1015.883)" fill="#979faf"/>
            <path id="Trazado_24819" data-name="Trazado 24819" d="M1621.8,1061.012a1.9,1.9,0,1,0-1.9,1.9A1.9,1.9,0,0,0,1621.8,1061.012Z" transform="translate(-1560.793 -1047.526)" fill="#979faf"/>
            <path id="Trazado_24820" data-name="Trazado 24820" d="M1621.8,1033.246a1.9,1.9,0,1,0-1.9,1.887A1.895,1.895,0,0,0,1621.8,1033.246Z" transform="translate(-1560.793 -1025.824)" fill="#979faf"/>
            <ellipse id="Elipse_852" data-name="Elipse 852" cx="2" cy="2.5" rx="2" ry="2.5" transform="translate(50.689 7.879)" fill="#979faf"/>
          </g>
          <g id="Grupo_12055" data-name="Grupo 12055" transform="translate(0 5.675)">
            <path id="Trazado_24821" data-name="Trazado 24821" d="M1383.719,1372.706a1.311,1.311,0,0,0,1.309-1.285c.141-7.374.437-13.707.905-19.362a1.31,1.31,0,0,0-2.612-.216c-.473,5.71-.771,12.1-.914,19.528a1.311,1.311,0,0,0,1.285,1.335Z" transform="translate(-1375.333 -1281.054)" fill="#fff"/>
            <path id="Trazado_24822" data-name="Trazado 24822" d="M1392.6,1294.252a1.311,1.311,0,0,0,1.3-1.131c.2-1.434.425-2.882.674-4.305a1.31,1.31,0,0,0-2.582-.451c-.254,1.453-.485,2.932-.688,4.4a1.312,1.312,0,0,0,1.3,1.49Z" transform="translate(-1382.275 -1231.531)" fill="#fff"/>
            <path id="Trazado_24823" data-name="Trazado 24823" d="M1392.551,1202.986a5.724,5.724,0,0,0,4.067-1.706,5.5,5.5,0,0,0,1.437-4.085c-.592-30.683-7.369-36.617-11.418-40.162-1.7-1.491-2.558-2.24-2.558-4.276a3.287,3.287,0,0,1,.678-1.932,5.783,5.783,0,0,0,1.069-3.309,4.866,4.866,0,0,0-1.037-3.062,3.183,3.183,0,0,1-.71-2.179,3,3,0,0,1,.657-1.873,5.642,5.642,0,0,0,1.09-3.368c0-2.781-2.363-5-3.494-5.9v-9.825a1.311,1.311,0,0,0-1.31-1.31H1363.55a1.31,1.31,0,0,0-1.31,1.31v3.494a1.31,1.31,0,0,0,2.621,0v-2.184h14.85v7.862h-16.16a1.311,1.311,0,0,0-1.074.56c-4.5,6.44-7.5,14.049-9.438,23.948-2.065,10.534-3.027,23.97-3.027,42.283a5.8,5.8,0,0,0,1.659,4.034,5.743,5.743,0,0,0,4.036,1.678Zm-28.312-69.883H1380.6c.91.7,2.605,2.327,2.605,3.931a3.106,3.106,0,0,1-.675,1.954,5.526,5.526,0,0,0-1.072,3.287,5.753,5.753,0,0,0,1.17,3.661,2.34,2.34,0,0,1,.578,1.58,3.286,3.286,0,0,1-.678,1.932,5.784,5.784,0,0,0-1.069,3.309c0,3.225,1.6,4.626,3.453,6.248,3.723,3.26,9.955,8.716,10.524,38.234a2.958,2.958,0,0,1-.69,2.208,3.086,3.086,0,0,1-2.193.917h-36.846a3.1,3.1,0,0,1-2.173-.9,3.155,3.155,0,0,1-.9-2.191C1352.631,1158.509,1357.254,1143.394,1364.238,1133.1Z" transform="translate(-1350.01 -1100.782)" fill="#303e58"/>
            <path id="Trazado_24824" data-name="Trazado 24824" d="M1391.779,1053.838a1.31,1.31,0,0,0,1.31-1.31v-3.494a5.715,5.715,0,0,1,2.932-4.973,5.606,5.606,0,0,1,2.746-.705h10.483a1.31,1.31,0,0,0,1.31-1.31v-8.735a1.31,1.31,0,0,0-1.31-1.31h-27.1a11.733,11.733,0,0,0-8.352,3.458l-7.408,7.408a1.31,1.31,0,0,0,.927,2.237h3.494a5.684,5.684,0,0,1,5.678,5.678v1.747a1.31,1.31,0,1,0,2.621,0v-1.747a8.308,8.308,0,0,0-8.3-8.3h-.331l5.171-5.171a9.129,9.129,0,0,1,6.5-2.691h25.786v6.115h-9.172a8.231,8.231,0,0,0-4.029,1.041,8.336,8.336,0,0,0-4.27,7.258v3.494A1.31,1.31,0,0,0,1391.779,1053.838Z" transform="translate(-1362.516 -1032)" fill="#303e58"/>
            <path id="Trazado_24825" data-name="Trazado 24825" d="M1527.32,1043.356a1.311,1.311,0,0,0,1.31-1.31v-8.735a1.31,1.31,0,0,0-2.621,0v8.735A1.31,1.31,0,0,0,1527.32,1043.356Z" transform="translate(-1487.574 -1032)" fill="#303e58"/>
            <path id="Trazado_24826" data-name="Trazado 24826" d="M1515.548,1114.343a1.308,1.308,0,0,0,.727-.22l5.241-3.494a1.31,1.31,0,0,0,.036-2.156c-.083-.06-8.34-6.012-11.076-11.729a1.31,1.31,0,1,0-2.364,1.131c2.3,4.8,7.759,9.5,10.419,11.595l-2.947,1.965c-2.212-1.667-8.934-7.088-11.034-12.828a1.31,1.31,0,1,0-2.461.9c2.8,7.657,12.309,14.323,12.713,14.6A1.309,1.309,0,0,0,1515.548,1114.343Z" transform="translate(-1468.814 -1082.022)" fill="#303e58"/>
          </g>
        </g>
      </g>
    </g>
  </g>
</svg>
