<svg xmlns="http://www.w3.org/2000/svg" width="154" height="154" viewBox="0 0 154 154">
  <g id="Grupo_19062" data-name="Grupo 19062" transform="translate(-390 -9825)">
    <g id="Elipse_877" data-name="Elipse 877" transform="translate(390 9825)" fill="#ffc917" stroke="#2643a2" stroke-width="3">
      <circle cx="77" cy="77" r="77" stroke="none"/>
      <circle cx="77" cy="77" r="75.5" fill="none"/>
    </g>
    <g id="Grupo_12490" data-name="Grupo 12490" transform="translate(-877 7239.828)">
      <circle id="Elipse_878" data-name="Elipse 878" cx="34" cy="34" r="34" transform="translate(1312 2626.172)" fill="#ebedf0"/>
      <g id="Grupo_12489" data-name="Grupo 12489" transform="translate(1294 2608)">
        <g id="Grupo_12488" data-name="Grupo 12488" transform="translate(0 0)">
          <g id="Grupo_12487" data-name="Grupo 12487">
            <g id="Grupo_12485" data-name="Grupo 12485" transform="translate(5.133 4.658)">
              <circle id="Elipse_879" data-name="Elipse 879" cx="4.5" cy="4.5" r="4.5" transform="translate(75.867 9.514)" fill="#8ff3ad"/>
              <circle id="Elipse_880" data-name="Elipse 880" cx="4.5" cy="4.5" r="4.5" transform="translate(61.867 57.514)" fill="#8ff3ad"/>
              <path id="Trazado_25900" data-name="Trazado 25900" d="M1370.386,3009.637a1.7,1.7,0,0,0-1.694-2.948,1.7,1.7,0,1,0,1.694,2.948Zm2.083-4.862a1.694,1.694,0,1,0-1.694-1.694A1.7,1.7,0,0,0,1372.469,3004.775Zm0-6.775a8.457,8.457,0,0,1,7.335,4.235,8.469,8.469,0,0,1,0,8.469,8.47,8.47,0,0,1-14.669,0,8.469,8.469,0,0,1,0-8.469A8.457,8.457,0,0,1,1372.469,2998Zm1.474,9.316a1.691,1.691,0,0,0,.61,2.321,1.7,1.7,0,1,0,1.694-2.948A1.688,1.688,0,0,0,1373.943,3007.316Z" transform="translate(-1354.312 -2920.083)" fill="#8ff3ad"/>
              <path id="Trazado_25901" data-name="Trazado 25901" d="M1660.469,2972.775a1.694,1.694,0,1,0-1.694-1.694A1.7,1.7,0,0,0,1660.469,2972.775Zm4.4,4.235a1.711,1.711,0,0,0-.627-2.321,1.7,1.7,0,0,0-1.694,2.948A1.711,1.711,0,0,0,1664.873,2977.01Zm-11.739-6.775a8.469,8.469,0,0,1,14.669,0,8.469,8.469,0,0,1,0,8.469,8.469,8.469,0,0,1-14.669,0,8.47,8.47,0,0,1,0-8.469Zm5.861,5.082a1.687,1.687,0,0,0-2.3-.627,1.7,1.7,0,1,0,1.694,2.948A1.691,1.691,0,0,0,1659,2975.316Z" transform="translate(-1581.333 -2894.858)" fill="#8ff3ad"/>
              <path id="Trazado_25902" data-name="Trazado 25902" d="M1434.386,2641.637a1.7,1.7,0,0,0-1.694-2.948,1.7,1.7,0,1,0,1.694,2.948Zm2.083-4.862a1.694,1.694,0,1,0-1.694-1.694A1.7,1.7,0,0,0,1436.469,2636.775Zm0-6.775a8.456,8.456,0,0,1,7.334,4.235,8.469,8.469,0,0,1,0,8.469,8.469,8.469,0,0,1-14.669,0,8.469,8.469,0,0,1,0-8.469A8.456,8.456,0,0,1,1436.469,2630Zm3.777,8.689a1.7,1.7,0,0,0-1.694,2.948,1.7,1.7,0,0,0,1.694-2.948Z" transform="translate(-1404.761 -2630)" fill="#8ff3ad"/>
              <ellipse id="Elipse_881" data-name="Elipse 881" cx="3" cy="2.5" rx="3" ry="2.5" transform="translate(86.867 59.514)" fill="#979faf"/>
              <path id="Trazado_25903" data-name="Trazado 25903" d="M1700.395,3006.215a1.7,1.7,0,0,1-1.694,2.948,1.7,1.7,0,0,1,1.694-2.948Z" transform="translate(-1617.481 -2926.384)" fill="#303e58"/>
              <ellipse id="Elipse_882" data-name="Elipse 882" cx="2" cy="1" rx="2" ry="1" transform="translate(76.867 75.514)" fill="#303e58"/>
              <path id="Trazado_25904" data-name="Trazado 25904" d="M1671,3006.215a1.7,1.7,0,0,1,1.694,2.948,1.7,1.7,0,0,1-1.694-2.948Z" transform="translate(-1595.642 -2926.384)" fill="#303e58"/>
              <ellipse id="Elipse_883" data-name="Elipse 883" cx="2" cy="2.5" rx="2" ry="2.5" transform="translate(57.867 3.514)" fill="#979faf"/>
              <ellipse id="Elipse_884" data-name="Elipse 884" cx="2.5" cy="3" rx="2.5" ry="3" transform="translate(53.867 87.514)" fill="#979faf"/>
              <path id="Trazado_25905" data-name="Trazado 25905" d="M1474.7,2673.163a1.7,1.7,0,0,1,1.694-2.948,1.7,1.7,0,0,1-1.694,2.948Z" transform="translate(-1440.909 -2661.526)" fill="#303e58"/>
              <circle id="Elipse_885" data-name="Elipse 885" cx="2" cy="2" r="2" transform="translate(29.867 3.514)" fill="#303e58"/>
              <path id="Trazado_25906" data-name="Trazado 25906" d="M1449.3,2670.842a1.691,1.691,0,0,1-.61,2.321,1.7,1.7,0,0,1-1.694-2.948A1.688,1.688,0,0,1,1449.3,2670.842Z" transform="translate(-1419.07 -2661.526)" fill="#303e58"/>
              <ellipse id="Elipse_886" data-name="Elipse 886" cx="3" cy="2.5" rx="3" ry="2.5" transform="translate(18.867 25.514)" fill="#979faf"/>
              <path id="Trazado_25907" data-name="Trazado 25907" d="M1410.7,3041.163a1.7,1.7,0,0,1,1.694-2.948,1.7,1.7,0,0,1-1.694,2.948Z" transform="translate(-1390.46 -2951.608)" fill="#303e58"/>
              <ellipse id="Elipse_887" data-name="Elipse 887" cx="1" cy="1.5" rx="1" ry="1.5" transform="translate(16.867 81.514)" fill="#303e58"/>
              <path id="Trazado_25908" data-name="Trazado 25908" d="M1385.3,3038.842a1.691,1.691,0,0,1-.61,2.321,1.7,1.7,0,1,1-1.694-2.948A1.687,1.687,0,0,1,1385.3,3038.842Z" transform="translate(-1368.621 -2951.608)" fill="#303e58"/>
              <circle id="Elipse_888" data-name="Elipse 888" cx="2.5" cy="2.5" r="2.5" transform="translate(6.867 4.514)" fill="#979faf"/>
              <circle id="Elipse_889" data-name="Elipse 889" cx="2.5" cy="2.5" r="2.5" transform="translate(-0.133 22.514)" fill="#979faf"/>
            </g>
            <g id="Grupo_12486" data-name="Grupo 12486">
              <path id="Trazado_25909" data-name="Trazado 25909" d="M1357.943,2718.867H1295.27a1.271,1.271,0,0,1,0-2.541h62.673a8.893,8.893,0,1,0-8.893-8.893,8.585,8.585,0,0,0,.441,2.76,1.271,1.271,0,1,1-2.407.815,11.126,11.126,0,0,1-.575-3.575,11.434,11.434,0,1,1,11.433,11.434Z" transform="translate(-1294 -2677.367)" fill="#303e58"/>
              <path id="Trazado_25910" data-name="Trazado 25910" d="M1385.045,2778.254H1295.27a1.27,1.27,0,1,1,0-2.541h89.774a10.586,10.586,0,1,0-9.755-6.473,1.27,1.27,0,0,1-2.342.986,13.128,13.128,0,1,1,12.1,8.027Z" transform="translate(-1294 -2721.511)" fill="#303e58"/>
              <path id="Trazado_25911" data-name="Trazado 25911" d="M1346.086,2947.48a9.737,9.737,0,0,1-9.409-12.254,1.27,1.27,0,0,1,2.454.657,7.2,7.2,0,1,0,6.954-5.342H1295.27a1.271,1.271,0,0,1,0-2.541h50.816a9.74,9.74,0,0,1,0,19.48Z" transform="translate(-1294 -2860.246)" fill="#303e58"/>
              <path id="Trazado_25912" data-name="Trazado 25912" d="M1675.5,2683.01a5.505,5.505,0,1,1,5.505-5.505A5.511,5.511,0,0,1,1675.5,2683.01Zm0-8.469a2.964,2.964,0,1,0,2.964,2.964A2.968,2.968,0,0,0,1675.5,2674.541Z" transform="translate(-1590.389 -2658.449)" fill="#303e58"/>
              <path id="Trazado_25913" data-name="Trazado 25913" d="M1611.505,2907.01a5.5,5.5,0,1,1,5.5-5.5A5.511,5.511,0,0,1,1611.505,2907.01Zm0-8.469a2.964,2.964,0,1,0,2.964,2.964A2.968,2.968,0,0,0,1611.505,2898.541Z" transform="translate(-1539.939 -2835.021)" fill="#303e58"/>
              <path id="Trazado_25914" data-name="Trazado 25914" d="M1655.74,2979.479a9.785,9.785,0,0,1-8.433-4.867,9.74,9.74,0,0,1,0-9.751,9.74,9.74,0,0,1,16.863.007,9.738,9.738,0,0,1,0,9.748A9.783,9.783,0,0,1,1655.74,2979.479Zm0-16.939a7.2,7.2,0,1,0,6.236,10.8l0-.007a7.2,7.2,0,0,0-6.24-10.79Z" transform="translate(-1571.47 -2885.47)" fill="#303e58"/>
              <path id="Trazado_25915" data-name="Trazado 25915" d="M1687.27,2949.928a1.27,1.27,0,0,1-1.271-1.27v-3.388a1.271,1.271,0,0,1,2.541,0v3.388A1.27,1.27,0,0,1,1687.27,2949.928Z" transform="translate(-1603.001 -2872.858)" fill="#303e58"/>
              <path id="Trazado_25916" data-name="Trazado 25916" d="M1687.27,3045.928a1.271,1.271,0,0,1-1.271-1.271v-3.388a1.271,1.271,0,0,1,2.541,0v3.388A1.271,1.271,0,0,1,1687.27,3045.928Z" transform="translate(-1603.001 -2948.532)" fill="#303e58"/>
              <path id="Trazado_25917" data-name="Trazado 25917" d="M1638.79,3024.234a1.271,1.271,0,0,1-.637-2.371l2.93-1.694a1.27,1.27,0,1,1,1.271,2.2l-2.93,1.693A1.26,1.26,0,0,1,1638.79,3024.234Z" transform="translate(-1564.785 -2932.765)" fill="#303e58"/>
              <path id="Trazado_25918" data-name="Trazado 25918" d="M1721.911,2976.234a1.27,1.27,0,0,1-.637-2.37l2.93-1.694a1.27,1.27,0,1,1,1.271,2.2l-2.93,1.694A1.263,1.263,0,0,1,1721.911,2976.234Z" transform="translate(-1630.306 -2894.929)" fill="#303e58"/>
              <path id="Trazado_25919" data-name="Trazado 25919" d="M1724.839,3024.234a1.262,1.262,0,0,1-.635-.171l-2.93-1.694a1.27,1.27,0,1,1,1.272-2.2l2.93,1.694a1.271,1.271,0,0,1-.637,2.371Z" transform="translate(-1630.306 -2932.766)" fill="#303e58"/>
              <path id="Trazado_25920" data-name="Trazado 25920" d="M1641.718,2976.234a1.265,1.265,0,0,1-.635-.171l-2.93-1.694a1.27,1.27,0,1,1,1.271-2.2l2.93,1.694a1.271,1.271,0,0,1-.637,2.371Z" transform="translate(-1564.785 -2894.929)" fill="#303e58"/>
              <path id="Trazado_25921" data-name="Trazado 25921" d="M1367.74,3011.479a9.785,9.785,0,0,1-8.434-4.868,9.74,9.74,0,0,1,0-9.751,9.74,9.74,0,0,1,16.863.006,9.74,9.74,0,0,1,0,9.748A9.784,9.784,0,0,1,1367.74,3011.479Zm0-16.939a7.2,7.2,0,1,0,6.236,10.8l0-.007a7.2,7.2,0,0,0-6.239-10.79Z" transform="translate(-1344.449 -2910.695)" fill="#303e58"/>
              <path id="Trazado_25922" data-name="Trazado 25922" d="M1399.27,2981.928a1.271,1.271,0,0,1-1.27-1.271v-3.388a1.27,1.27,0,0,1,2.541,0v3.388A1.271,1.271,0,0,1,1399.27,2981.928Z" transform="translate(-1375.98 -2898.083)" fill="#303e58"/>
              <path id="Trazado_25923" data-name="Trazado 25923" d="M1399.27,3077.928a1.27,1.27,0,0,1-1.27-1.27v-3.388a1.27,1.27,0,0,1,2.541,0v3.388A1.27,1.27,0,0,1,1399.27,3077.928Z" transform="translate(-1375.98 -2973.756)" fill="#303e58"/>
              <path id="Trazado_25924" data-name="Trazado 25924" d="M1350.79,3056.234a1.27,1.27,0,0,1-.637-2.37l2.93-1.694a1.27,1.27,0,0,1,1.272,2.2l-2.931,1.694A1.261,1.261,0,0,1,1350.79,3056.234Z" transform="translate(-1337.763 -2957.99)" fill="#303e58"/>
              <path id="Trazado_25925" data-name="Trazado 25925" d="M1433.911,3008.234a1.27,1.27,0,0,1-.637-2.37l2.93-1.694a1.27,1.27,0,1,1,1.271,2.2l-2.93,1.694A1.263,1.263,0,0,1,1433.911,3008.234Z" transform="translate(-1403.285 -2920.154)" fill="#303e58"/>
              <path id="Trazado_25926" data-name="Trazado 25926" d="M1436.839,3056.234a1.262,1.262,0,0,1-.635-.171l-2.93-1.694a1.27,1.27,0,1,1,1.272-2.2l2.93,1.694a1.27,1.27,0,0,1-.637,2.37Z" transform="translate(-1403.285 -2957.99)" fill="#303e58"/>
              <path id="Trazado_25927" data-name="Trazado 25927" d="M1353.718,3008.234a1.265,1.265,0,0,1-.635-.171l-2.93-1.694a1.27,1.27,0,1,1,1.271-2.2l2.931,1.694a1.27,1.27,0,0,1-.637,2.37Z" transform="translate(-1337.763 -2920.153)" fill="#303e58"/>
              <path id="Trazado_25928" data-name="Trazado 25928" d="M1431.74,2643.479a9.784,9.784,0,0,1-8.434-4.868,9.739,9.739,0,0,1,0-9.751,9.74,9.74,0,0,1,16.863.007,9.739,9.739,0,0,1,0,9.748A9.784,9.784,0,0,1,1431.74,2643.479Zm0-16.938a7.2,7.2,0,1,0,6.236,10.8l0-.007a7.2,7.2,0,0,0-6.239-10.789Z" transform="translate(-1394.898 -2620.612)" fill="#303e58"/>
              <path id="Trazado_25929" data-name="Trazado 25929" d="M1463.271,2613.929a1.271,1.271,0,0,1-1.271-1.271v-3.388a1.27,1.27,0,1,1,2.541,0v3.388A1.271,1.271,0,0,1,1463.271,2613.929Z" transform="translate(-1426.429 -2608)" fill="#303e58"/>
              <path id="Trazado_25930" data-name="Trazado 25930" d="M1463.271,2709.929a1.271,1.271,0,0,1-1.271-1.271v-3.388a1.27,1.27,0,1,1,2.541,0v3.388A1.271,1.271,0,0,1,1463.271,2709.929Z" transform="translate(-1426.429 -2683.674)" fill="#303e58"/>
              <path id="Trazado_25931" data-name="Trazado 25931" d="M1414.79,2688.234a1.27,1.27,0,0,1-.637-2.37l2.93-1.694a1.27,1.27,0,1,1,1.272,2.2l-2.93,1.694A1.266,1.266,0,0,1,1414.79,2688.234Z" transform="translate(-1388.213 -2667.908)" fill="#303e58"/>
              <path id="Trazado_25932" data-name="Trazado 25932" d="M1497.911,2640.234a1.27,1.27,0,0,1-.637-2.37l2.93-1.694a1.27,1.27,0,1,1,1.271,2.2l-2.93,1.694A1.265,1.265,0,0,1,1497.911,2640.234Z" transform="translate(-1453.734 -2630.07)" fill="#303e58"/>
              <path id="Trazado_25933" data-name="Trazado 25933" d="M1500.84,2688.234a1.267,1.267,0,0,1-.635-.171l-2.93-1.694a1.27,1.27,0,1,1,1.271-2.2l2.93,1.694a1.27,1.27,0,0,1-.637,2.37Z" transform="translate(-1453.734 -2667.908)" fill="#303e58"/>
              <path id="Trazado_25934" data-name="Trazado 25934" d="M1417.718,2640.234a1.265,1.265,0,0,1-.635-.17l-2.93-1.694a1.27,1.27,0,1,1,1.271-2.2l2.93,1.694a1.27,1.27,0,0,1-.637,2.37Z" transform="translate(-1388.213 -2630.071)" fill="#303e58"/>
            </g>
          </g>
        </g>
      </g>
    </g>
  </g>
</svg>
