<svg xmlns="http://www.w3.org/2000/svg" width="527.178" height="297.281" viewBox="0 0 527.178 297.281">
  <g id="Grupo_12149" data-name="Grupo 12149" transform="translate(-1283.001 -82.972)">
    <g id="Grupo_12131" data-name="Grupo 12131">
      <g id="Grupo_12119" data-name="Grupo 12119">
        <g id="Grupo_12114" data-name="Grupo 12114">
          <path id="Trazado_25053" data-name="Trazado 25053" d="M1448.012,146.825c-1.3,1.4-2.6,2.816-3.9,4.216a74.594,74.594,0,0,1,11.817,11.1,67.717,67.717,0,0,0,14.262-15.528,15.446,15.446,0,0,0,1.75-3.407c1.459-4.338.312-9.267-4.167-10.465a10.262,10.262,0,0,0-8,.977c-3.04,1.892-5.3,5.316-7.471,8.186A62.849,62.849,0,0,1,1448.012,146.825Z" fill="#6eb088"/>
          <path id="Trazado_25054" data-name="Trazado 25054" d="M1423.144,173.545a5.515,5.515,0,0,0,.9,2.113c1.573,2.528,2.692,5.065,6.227,4.529a11.475,11.475,0,0,0,4.585-2.087c3.995-2.708,7.546-5.97,11.481-8.735,3.25-2.291,6.492-4.671,9.592-7.222a74.594,74.594,0,0,0-11.817-11.1,99.339,99.339,0,0,1-10.055,9.785c-1.789,1.454-3.28,3.088-4.987,4.617a27.36,27.36,0,0,0-5.036,5.292A4.087,4.087,0,0,0,1423.144,173.545Z" fill="#ac9177"/>
          <path id="Trazado_25055" data-name="Trazado 25055" d="M1391.656,185.123c.487.006.982.028,1.484.062,1.226.083,2.448.972,3.6.855,3.9-.4,6.89-3.821,10.053-5.711,4.125-2.466,8.306-4.84,12.378-7.394,2.376-1.49,4.774-3.082,7.653-3.637s6.416.2,8.305,2.559a3.918,3.918,0,0,1,.9,1.968c.181,1.7-1.256,2.978-2.6,3.987a143.839,143.839,0,0,1-12.855,8.594c-4.1,2.432-8.183,3.915-12.658,5.7-2.2.878-4.307,2.284-6.573,2.963-2.028.609-4.114,1.133-6.155,1.751a21.149,21.149,0,0,1-2.873.477c-1.784.3-3.186,1.788-4.982,2.115-2,.365-4.984.132-6.489-1.373-2.788-2.788,1.163-8.127,3.269-10.249C1386.26,185.623,1388.82,185.089,1391.656,185.123Z" fill="#ac9177"/>
        </g>
        <path id="Trazado_25056" data-name="Trazado 25056" d="M1411.85,175.879a2.976,2.976,0,0,1,.91.686c1.988,2.1,2.155,5.751,3.284,8.311.663,1.5,1.492,2.854,2.306,4.316-5.251,1.489-9.943,3.849-15.174,5.494-3.934,1.238-7.945,2.625-11.909,3.679-2.658.707-6.81.649-9.1-1.048-1.737-1.283-2.4-4.072-2.2-6.16.458-4.808,6.89-6.742,10.98-6.628,2.078.059,4.46.454,6.523.3,3.9-.284,6.933-4.583,9.839-6.872C1408.739,176.832,1410.238,175.136,1411.85,175.879Z" fill="#e4b25b"/>
        <g id="Grupo_12115" data-name="Grupo 12115">
          <path id="Trazado_25057" data-name="Trazado 25057" d="M1524.4,337.914c1.154-.756.815-2.528.786-3.944a6.445,6.445,0,0,1,1.48-4.17c-.54-.6-1.078-1.215-1.607-1.852-.51-.59-1.012-1.194-1.5-1.8a39.949,39.949,0,0,1-7.665,7.276q1.729,1.981,3.443,3.962c1.093-.18,2.483.644,3.708.78A1.882,1.882,0,0,0,1524.4,337.914Z" fill="#c6b891"/>
          <path id="Trazado_25058" data-name="Trazado 25058" d="M1453.188,341.924c-.921,3.168-1.834,6.336-2.763,9.5a3.053,3.053,0,0,0,.417-.214,6.668,6.668,0,0,0,1.674-1.738c.03-.242.051-.469.065-.7a.3.3,0,0,1,.357.193,4.754,4.754,0,0,1,.614-.615,3.684,3.684,0,0,1,4.67.129,5.526,5.526,0,0,1,1.131,1.472c.575,1.039.983,2.238,1.655,3.224a4.1,4.1,0,0,0,.374.5,79.347,79.347,0,0,0,1.616-9.74c-1.772-.249-3.551-.5-5.314-.761a16.387,16.387,0,0,1-3.005-.616A10.117,10.117,0,0,1,1453.188,341.924Z" fill="#c6b891"/>
          <path id="Trazado_25059" data-name="Trazado 25059" d="M1466.634,201.8c-.384,2.08-.76,4.16-1.152,6.239a17.886,17.886,0,0,0,5.47-.11q10.986-1.35,22.015-2.184a26.946,26.946,0,0,1,5.432-.022,22.32,22.32,0,0,1,8.117,3.137,29.145,29.145,0,0,0-1.686-8.237c-.473.163-.952.309-1.431.448-4.89,1.416-10.046,1.678-15.109,1.917-1.6.08-3.222.151-4.837.192-.735.024-1.47.039-2.211.039-.727.016-1.46.017-2.184,0A52.36,52.36,0,0,1,1466.634,201.8Z" fill="#4c5159"/>
          <path id="Trazado_25060" data-name="Trazado 25060" d="M1466.231,198.092c-.3,1.117-.619,2.226-.959,3.332.148.052.3.1.446.133q.457.135.916.246a52.36,52.36,0,0,0,12.424,1.422c.724.014,1.457.013,2.184,0,.741,0,1.476-.015,2.211-.039,1.615-.041,3.233-.112,4.837-.192,5.063-.239,10.219-.5,15.109-1.917.479-.139.958-.285,1.431-.448.49-.168.965-.353,1.441-.545a35.145,35.145,0,0,0-2.233-6.134v-.008c-.064-.135-.12-.263-.192-.392a16.28,16.28,0,0,1-1.391.993,23.846,23.846,0,0,1-3.943,2.078,28.67,28.67,0,0,1-7.168,1.854c-.225.032-.448.057-.665.091-1,.1-1.994.173-2.99.2-1.6.049-3.186.017-4.781-.086-.66-.038-1.321-.084-1.979-.146-.4-.037-.8-.074-1.2-.118-1.09-.109-2.185-.234-3.272-.373-.424-.047-.847-.094-1.269-.149-1.654-.207-3.5-.264-5.284-.43a21.755,21.755,0,0,1-3.389-.514Q1466.388,197.523,1466.231,198.092Z" fill="#4c5159"/>
          <path id="Trazado_25061" data-name="Trazado 25061" d="M1523.565,326.144c.153-.169.3-.347.452-.516a15.057,15.057,0,0,0,1.725-2.283c-6.2-6.938-11.3-14.828-17-22.209-8.707-11.257-14.179-17.945-22.093-27.051-.169.5-.337,1-.505,1.5-1.961,5.813-3.85,11.5-5.657,17.147,7.392,7.812,14.4,16,21.292,24.234,4.632,5.547,9.387,11,14.126,16.458A39.949,39.949,0,0,0,1523.565,326.144Z" fill="#3f444c"/>
          <path id="Trazado_25062" data-name="Trazado 25062" d="M1460.584,372.687a16.966,16.966,0,0,0,.236-6.233c-.019.128-.038.248-.057.369-.3,1.667-.587,2.7-2.191,3.439a8.307,8.307,0,0,1-6.841-.185,8.463,8.463,0,0,1-2.9-1.866c-1.611-1.807-1.743-4.087-1.307-6.552l-2.241,5.863a8.862,8.862,0,0,0-.354,1.1,15.3,15.3,0,0,0,4.459,3.95,11.187,11.187,0,0,0,8.166,1.134c.44-.127.886-.17,1.325-.289A8.843,8.843,0,0,0,1460.584,372.687Z" fill="#ca9841"/>
          <path id="Trazado_25063" data-name="Trazado 25063" d="M1463,343.936c.534.08,1.062.16,1.589.232a18.784,18.784,0,0,0,1.951.212c2.8-13.471,6.049-25.794,9.682-37.935,1.366-4.585,2.79-9.142,4.262-13.717,1.807-5.644,3.7-11.334,5.657-17.147.168-.5.336-.992.505-1.5,2.1-6.2,4.268-12.555,6.52-19.2,4.611-13.616,14.368-30.5,13.352-46.025a22.32,22.32,0,0,0-8.117-3.137,26.946,26.946,0,0,0-5.432.022q-11.03.842-22.015,2.184a17.886,17.886,0,0,1-5.47.11c0,.031-.014.068-.017.1-.958,5.211-.638,10.885-.868,16.156a164.04,164.04,0,0,0,.286,17.462c.249,3.972.59,7.944.962,11.912a101.752,101.752,0,0,0,5.459-16.9c1.1-5.29,1.47-10.724,2.938-15.918a1.05,1.05,0,0,1,.4-.658c.361-.2.779.08,1.108.317a6.363,6.363,0,0,0,3.439,1.129c-3.771,18.8-7.7,35.034-11.641,50.789-5.5,21.9-11.056,42.848-16.336,68.346h.007a21.1,21.1,0,0,0,1.971,1.153,10.117,10.117,0,0,0,1.491.635,16.387,16.387,0,0,0,3.005.616C1459.447,343.438,1461.226,343.687,1463,343.936Z" fill="#4c5159"/>
          <path id="Trazado_25064" data-name="Trazado 25064" d="M1527.277,349.225c-3.98,4.281-9.528,6.613-14.988,8.748.045.577.1,1.155.145,1.725a43.5,43.5,0,0,0,14.6-7.594c4.783-3.8,8.83-8.642,13.686-12.246-.921-1.1-1.9-2.177-2.916-3.219a40.616,40.616,0,0,0-5.536,5.993C1530.6,344.829,1529.144,347.214,1527.277,349.225Z" fill="#ca9841"/>
          <path id="Trazado_25065" data-name="Trazado 25065" d="M1457.591,359.7a13.344,13.344,0,0,1-.5,3.543,3.651,3.651,0,0,1-2.42,2.456,2.018,2.018,0,0,1-1.378-.129,2.711,2.711,0,0,1-1.019-1.118c-1.327-2.315-1.37-5.145-1-7.783.347-2.42,1.009-4.779,1.249-7.193a6.668,6.668,0,0,1-1.674,1.738,3.053,3.053,0,0,1-.417.214,1.521,1.521,0,0,1-.332.121h-.007c-.4,3.209-1.978,6.819-2.559,10.11-.436,2.465-.3,4.745,1.307,6.552a8.463,8.463,0,0,0,2.9,1.866,8.307,8.307,0,0,0,6.841.185c1.6-.737,1.891-1.772,2.191-3.439.019-.121.038-.241.057-.369a29.522,29.522,0,0,0,.057-4.638,40.948,40.948,0,0,1,.7-7.931,1.344,1.344,0,0,1-.194-.209,4.1,4.1,0,0,1-.374-.5c-.672-.986-1.08-2.185-1.655-3.224A42.146,42.146,0,0,0,1457.591,359.7Z" fill="#ca9841"/>
          <path id="Trazado_25066" data-name="Trazado 25066" d="M1526.669,329.8a6.445,6.445,0,0,0-1.48,4.17c.029,1.416.368,3.188-.786,3.944a1.882,1.882,0,0,1-1.352.248c-.229,1.224-.456,2.44-.692,3.663-.526,2.785-1.162,5.765-3.242,7.68a3.145,3.145,0,0,1-1.026.683,4.3,4.3,0,0,1-1.416.205c-.56.016-1.118.025-1.677.042-.046.08-.1.151-.143.224-1.457,2.2-2.845,4.806-2.78,7.394.071-.024.143-.056.214-.08,5.46-2.135,11.008-4.467,14.988-8.748,1.867-2.011,3.326-4.4,4.989-6.593a40.616,40.616,0,0,1,5.536-5.993,42.146,42.146,0,0,0-10.093-7.842A5.676,5.676,0,0,0,1526.669,329.8Z" fill="#ca9841"/>
          <path id="Trazado_25067" data-name="Trazado 25067" d="M1519.343,337.382a1.369,1.369,0,0,0-.782.363c-.933.83-.458,2.371-.263,3.642.495,3.307-1.487,6.307-3.3,9.048.559-.017,1.117-.026,1.677-.042a4.3,4.3,0,0,0,1.416-.205,3.145,3.145,0,0,0,1.026-.683c2.08-1.915,2.716-4.9,3.242-7.68.236-1.223.463-2.439.692-3.663C1521.826,338.026,1520.436,337.2,1519.343,337.382Z" fill="#ca9841"/>
          <path id="Trazado_25068" data-name="Trazado 25068" d="M1474.242,220.847c-1.468,5.194-1.843,10.628-2.938,15.918a101.752,101.752,0,0,1-5.459,16.9c.595,6.249,1.244,12.5,1.7,18.754,3.946-15.755,7.87-31.993,11.641-50.789a6.363,6.363,0,0,1-3.439-1.129c-.329-.237-.747-.513-1.108-.317A1.05,1.05,0,0,0,1474.242,220.847Z" fill="#3f444c"/>
          <path id="Trazado_25069" data-name="Trazado 25069" d="M1452.938,348.965a6.283,6.283,0,0,0-.422.511c-.24,2.414-.9,4.773-1.249,7.193-.368,2.638-.325,5.468,1,7.783a2.711,2.711,0,0,0,1.019,1.118,2.018,2.018,0,0,0,1.378.129,3.651,3.651,0,0,0,2.42-2.456,13.344,13.344,0,0,0,.5-3.543,42.146,42.146,0,0,1,1.762-9.749,5.526,5.526,0,0,0-1.131-1.472,3.684,3.684,0,0,0-4.67-.129A4.754,4.754,0,0,0,1452.938,348.965Z" fill="#ca9841"/>
        </g>
        <g id="Grupo_12117" data-name="Grupo 12117">
          <path id="Trazado_25070" data-name="Trazado 25070" d="M1474.333,131.47c-.149.435-.306.862-.486,1.281a7.315,7.315,0,0,1-1.28,2.168c1.641,3.44,3.234,6.864,6.186,7.872a12.052,12.052,0,0,0,4.35.91c3.8-.161,6.406-5.761,8.447-8.476.3-.4.6-.8.895-1.2,0-3.8-.723-7.636-.714-11.467,0-.623-.027-1.289-.046-1.961a25.182,25.182,0,0,1-16.413,6.888A20.71,20.71,0,0,1,1474.333,131.47Z" fill="#c6b891"/>
          <path id="Trazado_25071" data-name="Trazado 25071" d="M1491.854,117.542c.3-1.426.845-2.743,1.075-4.217a25.942,25.942,0,0,0,.039-5.132c-1.957-.467-4.244,3.894-5.137,5.167-1.133,1.618-2.391,3.289-3.34,4.987a10.863,10.863,0,0,1-4.317,4.743,15.836,15.836,0,0,1-4.695,2.039,21.1,21.1,0,0,1-.207,2.355,25.182,25.182,0,0,0,16.413-6.888A13.312,13.312,0,0,1,1491.854,117.542Z" fill="#b9ab84"/>
          <path id="Trazado_25072" data-name="Trazado 25072" d="M1489.372,114.359a24.053,24.053,0,0,1-6.509,9.336c-2.108,1.789-4.174,2.336-6.028,1.895-2.124-.5-3.962-2.3-5.22-5.023-1.96-4.223-2.238-8.969-2.164-13.69.016-1.151.057-2.3.1-3.438.049-1.438.106-2.875.155-4.313a9.945,9.945,0,0,0,6.167-.016c.768-.261,1.5-.621,2.287-.841a14.328,14.328,0,0,1,4.835-.237,4.211,4.211,0,0,1,1.911.441,3.622,3.622,0,0,1,1.217,2.262,33.584,33.584,0,0,1,.556,5.513c.629-1.617,1.944-3.593,3.553-2.989,1.348.506,1.462,2.393,1.217,3.839A34.082,34.082,0,0,1,1489.372,114.359Z" fill="#c6b891"/>
          <path id="Trazado_25073" data-name="Trazado 25073" d="M1493.358,91.024c-.057-.025-.114-.057-.171-.082-2.075-.89-3.545.547-5.285.123a7.57,7.57,0,0,1-3.006-1.716,18.435,18.435,0,0,0-2.524-1.895c-2.326-1.294-5.441-2.511-8.073-1.5a11.319,11.319,0,0,0-5.484,4.925,11.828,11.828,0,0,0-1.278,4.681c-.445,4.331,5.247,4.6,8.334,3.548.768-.261,1.5-.621,2.287-.841a14.3,14.3,0,0,1,4.835-.237,4.211,4.211,0,0,1,1.911.441,3.627,3.627,0,0,1,1.218,2.262,33.8,33.8,0,0,1,.555,5.513c.629-1.617,1.944-3.593,3.553-2.989,1.348.506,1.462,2.393,1.217,3.839a34.082,34.082,0,0,1-2.075,7.261,6.769,6.769,0,0,1,1.381.6c.147.074.293.139.449.205.939.392,1.944.637,2.9,1,.074-1.323.172-2.638.278-3.953.588-1.821,1.633-3.586,2.189-5.4a21.974,21.974,0,0,0,1.046-7.122C1497.532,96.61,1496.307,92.461,1493.358,91.024Z" fill="#32373f"/>
          <path id="Trazado_25074" data-name="Trazado 25074" d="M1507.033,139.42a18.911,18.911,0,0,0-2.4-1.577c-.514,1.632.209,4.811.3,6.726a64.167,64.167,0,0,1,.275,9.04,40.13,40.13,0,0,1-2.324,8.809c-.22.631-.449,1.255-.7,1.871-.912,2.3-2.015,4.524-2.859,6.844-.258.715-.5,1.429-.7,2.167a36.543,36.543,0,0,0-.791,6.623c-.441,7.59-.3,18.4-.761,22.274s-1.726,7.931-4.243,10.783c7.352.229,14.769,2.474,18.6-5.3,3.725-7.553.955-18.029.721-26.06-.053-1.825-.038-3.688.091-5.673.076-1.1.137-2.213.213-3.315.175-2.974.357-5.947.639-8.9.548-5.764,1.241-11.077-.719-16.681A15.839,15.839,0,0,0,1507.033,139.42Z" fill="#6eb088"/>
          <path id="Trazado_25075" data-name="Trazado 25075" d="M1504.19,137.11a10.215,10.215,0,0,0-1.41-.916c-3.311-1.809-7.053-2.879-10.409-4.474-1.094,3.558-4.661,10.3-8.975,10.478a11.94,11.94,0,0,1-4.213-.859c-2.936-.976-5.423-5.073-5.577-8.026-.045-.855.717-1.851,1.061-2.634-1.342.652-3.392.351-4.845.643-1.713.344-3.547.422-5.224.9-4.479,1.278-8.753,4.882-8.5,9.7.3,5.868,1.059,11.478,1.835,17.306a1.7,1.7,0,0,1,.007.342,120.969,120.969,0,0,1,2.5,26.3c.019,4.087-.261,8.2-.121,12.285.112,3.292-.062,7.023,1.831,9.908,3.093,4.718,8.413,3.857,13.544,4.144q6.062.339,12.129.6c1.666.068,3.339.129,5,.175,2.517-2.852,3.787-6.913,4.243-10.783s.32-14.684.761-22.274a36.543,36.543,0,0,1,.791-6.623c.2-.738.441-1.452.7-2.167.844-2.32,1.947-4.548,2.859-6.844.251-.616.48-1.24.7-1.871a70.055,70.055,0,0,0,2.3-8.722c.327-1.551.616-3.11.905-4.677C1506.965,144.273,1507.972,140.059,1504.19,137.11Z" fill="#7bbd95"/>
          <g id="Grupo_12116" data-name="Grupo 12116">
            <path id="Trazado_25076" data-name="Trazado 25076" d="M1475.7,107.125a13.288,13.288,0,0,1,.016,5.642,2.315,2.315,0,0,0-.064,1.2c.214.671.949.927,1.573,1.079" fill="none" stroke="#8e7959" stroke-linecap="round" stroke-linejoin="round" stroke-width="0.539"/>
            <path id="Trazado_25077" data-name="Trazado 25077" d="M1483.206,107.507a5.439,5.439,0,0,0-1.627-.169,1.1,1.1,0,0,1,.4-1.112.956.956,0,0,1,1.365.423,1.321,1.321,0,0,1,.14.953A2.046,2.046,0,0,0,1483.206,107.507Z" fill="#37371d"/>
            <path id="Trazado_25078" data-name="Trazado 25078" d="M1472.164,107.719a5.922,5.922,0,0,0-1.869.373,1.34,1.34,0,0,1-.076-.3.988.988,0,0,1,.839-1.182,1.148,1.148,0,0,1,1.1,1.077C1472.164,107.7,1472.163,107.708,1472.164,107.719Z" fill="#37371d"/>
            <path id="Trazado_25079" data-name="Trazado 25079" d="M1484.9,102.976a4.317,4.317,0,0,0-5.518-.441" fill="none" stroke="#8e7959" stroke-linecap="round" stroke-linejoin="round" stroke-width="0.585"/>
            <path id="Trazado_25080" data-name="Trazado 25080" d="M1473.167,102.775a3.844,3.844,0,0,0-4.887.537" fill="none" stroke="#8e7959" stroke-linecap="round" stroke-linejoin="round" stroke-width="0.585"/>
            <path id="Trazado_25081" data-name="Trazado 25081" d="M1480.829,117.975a4.309,4.309,0,0,1-5.417.662" fill="none" stroke="#8e7959" stroke-linecap="round" stroke-linejoin="round" stroke-width="0.585"/>
          </g>
        </g>
        <path id="Trazado_25082" data-name="Trazado 25082" d="M1504.61,224.367a47.639,47.639,0,0,0,1.906-15.5,22.327,22.327,0,0,0-8.117-3.137,18.21,18.21,0,0,0-2.851-.12A21.138,21.138,0,0,0,1504.61,224.367Z" fill="#3f444c"/>
        <path id="Trazado_25083" data-name="Trazado 25083" d="M1495.548,205.606c-.861.022-1.724.08-2.581.142q-11.03.842-22.014,2.184a17.893,17.893,0,0,1-5.471.11c0,.031-.014.068-.017.1-.958,5.211-.638,10.885-.868,16.156a164.04,164.04,0,0,0,.286,17.462c.249,3.972.59,7.944.962,11.912a101.752,101.752,0,0,0,5.459-16.9c1.1-5.29,1.47-10.724,2.938-15.918a1.05,1.05,0,0,1,.4-.658c.361-.2.779.08,1.108.317a6.363,6.363,0,0,0,3.439,1.129c-3.771,18.8-7.7,35.034-11.641,50.789-5.5,21.9-11.056,42.848-16.336,68.346h.007a21.1,21.1,0,0,0,1.971,1.153,10.117,10.117,0,0,0,1.491.635,16.387,16.387,0,0,0,3.005.616c1.763.263,3.542.512,5.314.761.534.08,1.062.16,1.589.232a19.063,19.063,0,0,0,1.951.212c2.8-13.471,6.049-25.794,9.682-37.935,1.366-4.585,2.79-9.142,4.262-13.718,1.808-5.643,3.7-11.333,5.657-17.146.168-.5.336-.992.505-1.5,2.1-6.2,4.268-12.555,6.52-19.2,3.1-9.164,8.534-19.807,11.446-30.521A21.138,21.138,0,0,1,1495.548,205.606Z" fill="#4c5159"/>
        <path id="Trazado_25084" data-name="Trazado 25084" d="M1465.57,209.707c0-12.786.023-26.591,0-39.765,0-2.058-.08-4.151.03-6.2,7.672-.378,15.011,1.158,22.612-.525.529-.117.731,16.878.753,18.249.081,5,.19,10,.592,14.977.336,4.162,2.407,8.681,1.918,12.845-2.96-.054-6.025.465-9,.6a77.244,77.244,0,0,0-10.5.877C1470.494,211.045,1464.7,212.8,1465.57,209.707Z" fill="#4c5159"/>
        <path id="Trazado_25085" data-name="Trazado 25085" d="M1502.861,135.926a12.682,12.682,0,0,1-1.217-.646c-9.545,1.577-16.421,28.189-16.736,32.494-.061.7.744,3.083,2.59,3.255a24.557,24.557,0,0,0,1.357-6.97c.485-4.554,1.274-8.666,4.019-12.709,2.787-4.1,6.47-11.013,11.6-13.772C1503.944,137.026,1503.416,136.47,1502.861,135.926Z" fill="#4c5159"/>
        <path id="Trazado_25086" data-name="Trazado 25086" d="M1466.139,168.036c-1.059-11.961-3.631-23.82-4.119-35.884a24.479,24.479,0,0,1,4.352-.579c-.051,7.682-.366,15.378.711,23.144.755,5.434,2.405,10.752,2.587,16.275C1467.837,171.339,1466.514,169.168,1466.139,168.036Z" fill="#4c5159"/>
        <path id="Trazado_25087" data-name="Trazado 25087" d="M1489.841,157.873c-.83,1.724-1.648,3.461-2.471,5.183a74.543,74.543,0,0,1,14.579,7.1,67.71,67.71,0,0,0,9.013-19.06,15.486,15.486,0,0,0,.66-3.773c.106-4.576-2.452-8.943-7.084-8.758a10.265,10.265,0,0,0-7.354,3.309c-2.342,2.708-3.485,6.649-4.706,10.034A62.71,62.71,0,0,1,1489.841,157.873Z" fill="#88caa2"/>
        <path id="Trazado_25088" data-name="Trazado 25088" d="M1474.021,190.769a5.55,5.55,0,0,0,1.49,1.75c2.252,1.947,4.074,4.038,7.29,2.477a11.47,11.47,0,0,0,3.76-3.354c3.011-3.771,5.435-7.94,8.371-11.748,2.425-3.152,4.814-6.387,7.017-9.743a74.543,74.543,0,0,0-14.579-7.1,99.331,99.331,0,0,1-6.7,12.328c-1.277,1.919-2.216,3.922-3.393,5.888a27.359,27.359,0,0,0-3.238,6.548A4.093,4.093,0,0,0,1474.021,190.769Z" fill="#c6b891"/>
        <path id="Trazado_25089" data-name="Trazado 25089" d="M1441.041,201.568c.486.023.979.064,1.48.117,1.222.128,2.41,1.062,3.562.988,3.91-.253,7.027-3.563,10.258-5.335,4.214-2.31,8.48-4.528,12.644-6.929,2.43-1.4,4.885-2.9,7.783-3.351s6.4.434,8.2,2.865a3.932,3.932,0,0,1,.827,2c.118,1.705-1.366,2.929-2.748,3.888a144,144,0,0,1-13.165,8.111c-4.184,2.278-8.323,3.608-12.861,5.228-2.232.8-4.388,2.122-6.678,2.717-2.05.533-4.154.98-6.216,1.521a21.163,21.163,0,0,1-2.889.371c-1.794.232-3.25,1.668-5.057,1.929-2.014.29-4.986-.054-6.434-1.614-2.682-2.89,1.464-8.078,3.647-10.12C1435.63,201.867,1438.208,201.428,1441.041,201.568Z" fill="#c6b891"/>
        <path id="Trazado_25090" data-name="Trazado 25090" d="M1459.893,192.873c1.749-.187,4.155,7.218,5.072,8.828,1.1,1.928,2.349,3.814,3.517,5.6-3.35-1.275-8.052,1.205-11.111,2.384a89.483,89.483,0,0,1-8.808,3.113c-4.817,1.3-9.415,3.1-14.469,2.663-2.42-.207-6.282-.508-6.226-3.383.045-2.32,1.641-5.263,3.056-7.02,1.827-2.267,4.49-5.277,7.541-5.309,2.653-.027,4.888,2.183,7.6,2.125s5.708-2.393,7.862-4.008C1456.007,196.3,1458.31,194.327,1459.893,192.873Z" fill="#e4b25b"/>
        <g id="Grupo_12118" data-name="Grupo 12118">
          <path id="Trazado_25091" data-name="Trazado 25091" d="M1466.069,98.979c0,.116.007.232.013.347.14,3.082,1.538,2.742,3.766,2.652,2.152-.087,4.3-.069,6.441-.176a54.92,54.92,0,0,0,9.31-.958c2.843-.637,5.511-1.692,8.334-2.4,1.027-.255,3.013-.5,3.565-1.8.97-2.278-1.315-6.637-2.546-8.281a13.322,13.322,0,0,0-7.049-4.8,18.659,18.659,0,0,0-7.187-.43,18.1,18.1,0,0,0-12.475,7.019C1466.541,92.5,1465.981,95.942,1466.069,98.979Z" fill="#d7a54e"/>
          <path id="Trazado_25092" data-name="Trazado 25092" d="M1497.494,96.649c-.544,1.294-2.538,1.541-3.556,1.8-2.824.7-5.5,1.758-8.335,2.4a50.779,50.779,0,0,1-8.631.918,8.527,8.527,0,0,0,.879-.168c2.844-.642,5.511-1.7,8.335-2.4,1.027-.256,3.012-.5,3.565-1.8.968-2.281-1.313-6.646-2.548-8.286a13.3,13.3,0,0,0-7.041-4.8,18.126,18.126,0,0,0-2.686-.494,21,21,0,0,1,3.239-.681,18.788,18.788,0,0,1,7.189.424,13.333,13.333,0,0,1,7.052,4.8C1496.18,90.013,1498.471,94.368,1497.494,96.649Z" fill="#ca9841"/>
          <path id="Trazado_25093" data-name="Trazado 25093" d="M1481.547,99.979c1.092-3.045-8.018-1.344-9.471-1.212-3.092.281-6.187.542-9.288.7-2.685.139-5.4-.119-7.966.7-1.437.458-2.9,1.734-1.335,2.969,1.7,1.342,6.5.357,8.539.25,5.29-.277,10.532-.485,15.756-1.166C1479.232,102.032,1481.01,101.477,1481.547,99.979Z" fill="#f1bf68"/>
        </g>
      </g>
      <g id="Grupo_12130" data-name="Grupo 12130">
        <g id="Grupo_12120" data-name="Grupo 12120">
          <path id="Trazado_25094" data-name="Trazado 25094" d="M1314.249,320.932h-5.3c-9.177,0-16.617,10.072-16.617,22.5s7.44,22.5,16.617,22.5h5.3Z" fill="#2e2a12"/>
          <ellipse id="Elipse_859" data-name="Elipse 859" cx="16.617" cy="22.497" rx="16.617" ry="22.497" transform="translate(1296.82 320.932)" fill="#555139"/>
          <path id="Trazado_25095" data-name="Trazado 25095" d="M1317.043,343.429c0,2.7-1.614,4.883-3.606,4.883s-3.607-2.186-3.607-4.883,1.615-4.882,3.607-4.882S1317.043,340.733,1317.043,343.429Z" fill="#48442c"/>
        </g>
        <g id="Grupo_12121" data-name="Grupo 12121">
          <path id="Trazado_25096" data-name="Trazado 25096" d="M1396.1,217.886l-.342,1.056,2.031.617Z" fill="#cc6470"/>
          <path id="Trazado_25097" data-name="Trazado 25097" d="M1439.253,255.883l-19.888,61.5c-1.942,6-7.4,9.669-13.013,8.648a13.439,13.439,0,0,0-1.534-.187v-.028h-5.463c-9.468,0-17.146,10.072-17.146,22.5,0,.486.008.972.041,1.459l-24.824-12.316,38.332-118.511,2.032.618Z" fill="#2f2f2f"/>
          <path id="Trazado_25098" data-name="Trazado 25098" d="M1403.162,196.057l-7.061,21.829,1.69,1.673,4.6,1.4-4.6-1.4,41.464,36.328,11.192-34.6Z" fill="#3b3b3b"/>
        </g>
        <g id="Grupo_12122" data-name="Grupo 12122">
          <path id="Trazado_25099" data-name="Trazado 25099" d="M1384.241,358.955l-60.618-11.063L1283,324.532l74.425,12.924,24.824,12.316A27.824,27.824,0,0,0,1384.241,358.955Z" fill="#6f6f6f"/>
        </g>
        <g id="Grupo_12123" data-name="Grupo 12123">
          <path id="Trazado_25100" data-name="Trazado 25100" d="M1283,324.534l74.42,12.923,38.338-118.515-87.284-22.166Z" fill="#0b0909"/>
          <path id="Trazado_25101" data-name="Trazado 25101" d="M1395.026,216.822l1.075,1.064,7.061-21.829-92-11.933-2.691,12.651,87.284,22.166.342-1.056Z" fill="#676767"/>
        </g>
        <path id="Trazado_25102" data-name="Trazado 25102" d="M1456.91,219.993c-.622-3.042-1.488-2.793-3.591-4.175-3.164-2.078-6.75-3.6-10.059-5.366-10.444-5.572-27.551-13.014-38-18.586a9.97,9.97,0,0,1-2.743,5.575,9.686,9.686,0,0,1-3.268,6.01c0,.127.007.242.008.378,20.707,11.047,47.019,23.4,47.024,23.4C1453.009,230.819,1458.282,226.718,1456.91,219.993Z" fill="#363636"/>
        <g id="Grupo_12127" data-name="Grupo 12127">
          <g id="Grupo_12124" data-name="Grupo 12124">
            <path id="Trazado_25103" data-name="Trazado 25103" d="M1348.108,210.551a4.062,4.062,0,0,0-2.177,1.506l-8.6,9.753,4.326,5.377,7.151-7.987a36.673,36.673,0,0,1-.508-5.865A17.154,17.154,0,0,1,1348.108,210.551Z" fill="#8d8d8d"/>
            <path id="Trazado_25104" data-name="Trazado 25104" d="M1359.594,220.283l-2.005.858-.718-7.352a2.615,2.615,0,0,0-2.131-2.628l-5.786-.7.607,7.9.069-.089.589,6.027-1.749.749c-.435.186-.6.94-.232,1.076l6.459,2.4a.5.5,0,0,0,.538-.278l4.664-7.158C1360.195,220.628,1360,220.111,1359.594,220.283Z" fill="#8d8d8d"/>
          </g>
          <g id="Grupo_12125" data-name="Grupo 12125">
            <path id="Trazado_25105" data-name="Trazado 25105" d="M1358.089,244.515a6,6,0,0,0,.665-2.844l.243-12.324-7.258,4.218-.287,10.147Z" fill="#8d8d8d"/>
            <path id="Trazado_25106" data-name="Trazado 25106" d="M1341.905,256.682l1.039-2.6,5.688.545a4.4,4.4,0,0,0,3.561-2.082l5.2-6.894-5.974-.784.005.1-4.662-.446.907-2.269c.226-.565-.165-.908-.558-.49l-6.93,7.384a.9.9,0,0,0-.245.707l1.163,7.046C1341.175,257.345,1341.7,257.2,1341.905,256.682Z" fill="#8d8d8d"/>
          </g>
          <g id="Grupo_12126" data-name="Grupo 12126">
            <path id="Trazado_25107" data-name="Trazado 25107" d="M1331.281,242.3a.171.171,0,0,1,.106-.064l8.213,1.509-3.023,9.486-9.1-1.523a2.006,2.006,0,0,1-1.837-2.029.206.206,0,0,1,.05-.137Z" fill="#8d8d8d"/>
            <path id="Trazado_25108" data-name="Trazado 25108" d="M1324.894,241.486a5.034,5.034,0,0,0-.013.949l.754,7.184,5.678-7.356Z" fill="#8d8d8d"/>
            <path id="Trazado_25109" data-name="Trazado 25109" d="M1337.366,237.157l.351-9.389c.009-.246-.124-.4-.324-.377l-6.315.756a.785.785,0,0,0-.523,1.025l1.075,1.556-5.276,7.052a7.749,7.749,0,0,0-1.249,2.565l6.933.839,3.543-4.736.938,1.357C1336.752,238.143,1337.346,237.689,1337.366,237.157Z" fill="#8d8d8d"/>
          </g>
        </g>
        <path id="Trazado_25110" data-name="Trazado 25110" d="M1398.805,204.675l-91.751-12.16c-3.426-.614-5.133-4.257-3.812-8.138l.056.554c1.321-3.881,5.169-6.529,8.6-5.915l91.75,12.16c3.427.614,5.134,4.257,3.813,8.138l-.056-.554C1406.08,202.641,1402.231,205.289,1398.805,204.675Z" fill="#383838"/>
        <g id="Grupo_12128" data-name="Grupo 12128">
          <path id="Trazado_25111" data-name="Trazado 25111" d="M1333.723,333.609l6.791-23.673a4.907,4.907,0,0,0,.112-2.4l-1.484-6.586a4.955,4.955,0,0,1,.152-2.528l8.066-25.77c-.952-2.535-1.455-3.872-2.406-6.408l-20.015-3.377-5.166,4.576-6.585,25.214a5.664,5.664,0,0,1-1.281,2.382l-5.13,5.574a5.657,5.657,0,0,0-1.246,2.25l-7.109,24.785Z" fill="#848484"/>
          <path id="Trazado_25112" data-name="Trazado 25112" d="M1333.723,333.609l6.884-24a3.643,3.643,0,0,0,.083-1.785l-1.616-7.174a3.687,3.687,0,0,1,.113-1.884l8.322-26.591c-.866-2.308-1.337-3.561-2.2-5.87l-15.272-2.577-4.142,3.67-6.947,26.6a4.231,4.231,0,0,1-.955,1.776l-5.587,6.069a4.227,4.227,0,0,0-.928,1.678l-7.2,25.116Z" fill="#3b3b3b"/>
          <path id="Trazado_25113" data-name="Trazado 25113" d="M1345.586,278.619l-22.956-3.873c-.722-.122-1.536.579-1.819,1.565s.073,1.884.794,2.006l22.957,3.873Z" fill="#868686"/>
        </g>
        <g id="Grupo_12129" data-name="Grupo 12129">
          <path id="Trazado_25114" data-name="Trazado 25114" d="M1398.882,329.145h-5.466c-9.471,0-17.149,10.072-17.149,22.5s7.678,22.5,17.149,22.5h5.466Z" fill="#48442c"/>
          <ellipse id="Elipse_860" data-name="Elipse 860" cx="17.148" cy="22.497" rx="17.148" ry="22.497" transform="translate(1380.896 329.145)" fill="#6f6b53"/>
          <ellipse id="Elipse_861" data-name="Elipse 861" cx="11.173" cy="14.658" rx="11.173" ry="14.658" transform="translate(1386.872 336.984)" fill="#48442c"/>
          <ellipse id="Elipse_862" data-name="Elipse 862" cx="3.722" cy="4.883" rx="3.722" ry="4.883" transform="translate(1394.323 346.759)" fill="#625e46"/>
        </g>
      </g>
      <path id="Trazado_25115" data-name="Trazado 25115" d="M1459.893,192.873c1.749-.187,4.155,7.218,5.072,8.828,1.1,1.928,2.349,3.814,3.517,5.6-3.35-1.275-8.052,1.205-11.111,2.384a89.483,89.483,0,0,1-8.808,3.113c-4.817,1.3-9.415,3.1-14.469,2.663-2.42-.207-6.282-.508-6.226-3.383.045-2.32,1.641-5.263,3.056-7.02,1.827-2.267,4.49-5.277,7.541-5.309,2.653-.027,4.888,2.183,7.6,2.125s5.708-2.393,7.862-4.008C1456.007,196.3,1458.31,194.327,1459.893,192.873Z" fill="#e4b25b"/>
    </g>
    <g id="Grupo_12148" data-name="Grupo 12148">
      <g id="Grupo_12136" data-name="Grupo 12136">
        <g id="Grupo_12132" data-name="Grupo 12132">
          <path id="Trazado_25116" data-name="Trazado 25116" d="M1688.614,165.207c-1.477,1-2.951,2.02-4.421,3.024a69.57,69.57,0,0,1,8.442,12.553,63.142,63.142,0,0,0,16.2-11.16,14.394,14.394,0,0,0,2.3-2.735c2.229-3.642,2.21-8.364-1.615-10.384a9.573,9.573,0,0,0-7.484-.775c-3.158,1.089-5.926,3.734-8.5,5.894A58.764,58.764,0,0,1,1688.614,165.207Z" fill="#9283b1"/>
          <path id="Trazado_25117" data-name="Trazado 25117" d="M1660.444,184.343a5.137,5.137,0,0,0,.382,2.11c.906,2.626,1.4,5.166,4.722,5.413a10.707,10.707,0,0,0,4.6-.946c4.2-1.633,8.1-3.862,12.257-5.56,3.432-1.408,6.876-2.9,10.225-4.576a69.57,69.57,0,0,0-8.442-12.553,92.586,92.586,0,0,1-11.178,6.811c-1.929.952-3.625,2.128-5.495,3.163a25.52,25.52,0,0,0-5.68,3.768A3.812,3.812,0,0,0,1660.444,184.343Z" fill="#ac9177"/>
          <path id="Trazado_25118" data-name="Trazado 25118" d="M1629.4,188.332c.441.106.886.229,1.336.365,1.1.33,2.025,1.392,3.093,1.524,3.628.449,7.061-2.044,10.331-3.106,4.264-1.385,8.56-2.676,12.794-4.153,2.471-.862,4.983-1.812,7.717-1.718s5.794,1.511,7.022,4.052a3.652,3.652,0,0,1,.41,1.978c-.188,1.583-1.761,2.448-3.2,3.086a134.474,134.474,0,0,1-13.478,5.146,80.634,80.634,0,0,1-12.7,2.556c-2.185.341-4.392,1.182-6.594,1.329-1.972.132-3.978.176-5.962.314a19.525,19.525,0,0,1-2.713-.163c-1.685-.1-3.269.964-4.97.889-1.9-.084-4.561-.916-5.617-2.6-1.957-3.116,2.746-7.15,5.1-8.643C1624.387,187.665,1626.826,187.711,1629.4,188.332Z" fill="#ac9177"/>
        </g>
        <path id="Trazado_25119" data-name="Trazado 25119" d="M1649.686,184.12a2.775,2.775,0,0,1,.686.812c1.371,2.326.765,5.678,1.26,8.242.29,1.507.764,2.906,1.2,4.4-5.086.263-9.844,1.434-14.943,1.844-3.836.308-7.772.737-11.6.872-2.565.091-6.328-.825-8.064-2.845-1.312-1.528-1.334-4.2-.72-6.06,1.416-4.278,7.668-4.7,11.364-3.747,1.878.485,3.963,1.34,5.87,1.632,3.6.551,7.258-2.728,10.377-4.206C1646.659,184.339,1648.375,183.109,1649.686,184.12Z" fill="#bf5763"/>
        <g id="Grupo_12134" data-name="Grupo 12134">
          <path id="Trazado_25120" data-name="Trazado 25120" d="M1716.2,279.831c5.319,1.061,10.971.736,16.461,1.219-1.142,3.46-2.277,6.99-3.4,10.555q-6.866-4.5-13.724-9.006v-.006Q1715.878,281.17,1716.2,279.831Z" fill="#a88a73"/>
          <path id="Trazado_25121" data-name="Trazado 25121" d="M1711.639,347.714a8.973,8.973,0,0,0-3.079,2.9c-.87,1.361-1.5,3.07-3.03,3.683-1.79.725-3.743-.461-5.24-1.69,4.7-18.2,10.5-49.838,15.252-70.005q6.866,4.5,13.724,9.006c-5.993,19.1-11.548,39.212-16.376,55.491A7.984,7.984,0,0,0,1711.639,347.714Z" fill="#b9ab84"/>
          <path id="Trazado_25122" data-name="Trazado 25122" d="M1717.4,350.007c-.952,4.45-.96,9.108-1.5,13.654-.221.2-.733.634-.962.824-7.758,0-15.294-.618-23.1-.984,0,0-8.286-.388-12.718-.746.655-3.719,4.217-4.449,7.725-5.477,5.033-1.474,10.353.421,13.247-4.722,2.463-4.378,1.926-9.529,2.612-14.292.656-4.552,1.382-9.216,2.135-13.783a77.942,77.942,0,0,1,2.492-10.519c.228-.743,15.711,4.181,17.048,4.221C1721.83,328.744,1719.669,339.387,1717.4,350.007Z" fill="#ca9841"/>
          <path id="Trazado_25123" data-name="Trazado 25123" d="M1791.639,349.536a.389.389,0,0,1,.011-.067c.192.09.383.175.568.261,1.823.846,4.157,1.578,5.795.372,1.353-.99,1.532-2.8,2.04-4.345a9.022,9.022,0,0,1,1.519-2.749,7.96,7.96,0,0,1,.772-.848,12.506,12.506,0,0,1,4.221,6.254,90.746,90.746,0,0,1,1.519,9.847l-6.1,1.234s-.727-1.784-2.058-1.885a5.161,5.161,0,0,0-3.6,1.486,34.3,34.3,0,0,1-3.024,2.155l-6.408,1.3s-8.256,1.769-12.72,2.571c-.308-3.764,3.015-5.393,6.207-7.294,2.556-1.52,5.408-2.5,8.1-3.791A5.016,5.016,0,0,0,1791.639,349.536Z" fill="#7abb99"/>
          <path id="Trazado_25124" data-name="Trazado 25124" d="M1791.65,349.469a.115.115,0,0,1-.034-.016c-5.587-16.884-13.224-38.5-21.657-58.8a96.051,96.051,0,0,0,15.946,4.383c4.716,16.813,10.389,33.784,15.666,47.966v.005a9.022,9.022,0,0,0-1.519,2.749c-.508,1.541-.687,3.355-2.04,4.345-1.638,1.206-3.972.474-5.795-.372C1792.033,349.644,1791.842,349.559,1791.65,349.469Z" fill="#c6b891"/>
          <path id="Trazado_25125" data-name="Trazado 25125" d="M1776.2,285.578c2.273-.366,4.537-.841,6.787-1.384.917,3.582,1.892,7.206,2.918,10.837v.006a96.051,96.051,0,0,1-15.946-4.383q-.894-2.161-1.8-4.29A58.678,58.678,0,0,0,1776.2,285.578Z" fill="#b59780"/>
          <path id="Trazado_25126" data-name="Trazado 25126" d="M1805,343.979c1.239,4.294,3.493,8.537,5.179,12.814-.117.239-.4.763-.532.995-7.511,1.981-15.111,3.337-22.847,4.994,0,0-8.212,1.76-12.678,2.564-1.171-3.553,1.924-5.126,4.823-6.956,4.158-2.626,10.23-2.257,10.535-7.677.26-4.614-2.76-9.167-4.408-13.68-1.575-4.311-3.137-8.743-4.624-13.093a72.225,72.225,0,0,1-2.693-10.212c-.14-.735,17.244-.2,18.558-.505C1798.97,323.489,1802.044,333.73,1805,343.979Z" fill="#d7a54e"/>
          <path id="Trazado_25127" data-name="Trazado 25127" d="M1747.937,248.506c-.6,2.274-2.211,4.7-2.95,6.709q-1.709,4.643-3.234,9.327c-2.216,6.756-4.213,13.56-6.09,20.384-7.322.071-14.763,1.075-21.925.474.193-1.071.387-2.11.575-3.109,3.092-16.2,6.237-32.446,9.938-48.493,1.822-7.9,2.407-16.238,3.98-24.229.02-.1.041-.2.053-.315,4.96,9.711,12.6,18.472,16.766,28.472,1.133,2.723,2.849,5.886,3.1,8.787A5.909,5.909,0,0,1,1747.937,248.506Z" fill="#3f444c"/>
          <path id="Trazado_25128" data-name="Trazado 25128" d="M1741.355,124.419c-2.4-1.017-6.315-1.12-8.856-2.3-.173-.055-.346-.093-.519-.153-.025-.008-.048-.018-.072-.026a25.343,25.343,0,0,1-2.979-.676,20.578,20.578,0,0,1-6.356-3.205c-.21.322-.394.691-.681,1.117-.519.77-1.318,1.5-.91.859-3.246,1.676-3.734,7.493-6.027,10.128-3.681,4.233-11.266,1.693-14.675,6.46-1.561,2.182-.232,3.707.418,5.829,1.095,3.582-6.319,5.6-1.7,9.365,2.262,1.84,5.454,2.7,8.2,3.841a53.312,53.312,0,0,0,10.8,2.909c6.508,1.2,13.043,1.9,19.674.731,3.566-.628,8.585-1.885,11.348-3.994,3.791-2.895,2.653-9.009,2.3-12.85C1750.663,135.449,1749.494,127.871,1741.355,124.419Z" fill="#bd8b34"/>
          <path id="Trazado_25129" data-name="Trazado 25129" d="M1761.421,141.779c-2.178-1.263-5.025-1.373-6.914-3.014-3.944-3.42-1.166-10.949-5.395-14.041-1.971-1.444-4.711-1.268-7.2-1.208a13.446,13.446,0,0,1-3.988-.4,22.715,22.715,0,0,1-5.942-1.146c-.023-.007-.045-.016-.067-.024a25.639,25.639,0,0,1-2.984-.678,19.853,19.853,0,0,1-2.895-1.123,17.207,17.207,0,0,1-.693,4.214,4.22,4.22,0,0,0,1.615.875c1.491.421,3.1.24,4.632.487s3.166,1.151,3.376,2.64c.343,2.434-3.268,4.513-2.345,6.8a3.25,3.25,0,0,0,2.8,1.661c1.153.113,2.328-.047,3.465.148,9.373,1.608,5.038,15.73,5.307,21.648.175,3.846,1.553,8.216,5.966,9.113,2.239.455,4.3-1.175,5.858-2.46,1.879-1.552,3.212-4,4.884-5.783a16.182,16.182,0,0,0,4.173-7.806C1765.845,148,1764.733,143.7,1761.421,141.779Z" fill="#d7a54e"/>
          <path id="Trazado_25130" data-name="Trazado 25130" d="M1771.621,213.519c4.679,10.722,3.241,23.056,4.54,34.667a275.941,275.941,0,0,0,7.045,35.963c-2.208.535-4.431,1-6.663,1.359-4.84-9.709-5.666-21.21-6.088-32.194-.495-13.124-.819-26.875-7.485-38.228-1.341-2.288-3.527-6.618-6.143-7.374-2.486-.718-5.154.109-7.672.8a71.844,71.844,0,0,1-23.916,2.323c-.285-1.775-.675-3.4-.837-5.194-.127-1.409-.726-3.843.228-5.075,1.433-1.849,5.822-2.272,7.94-2.295,3.6-.04,7.14.538,10.748.634a42.5,42.5,0,0,1,6.628.609,21.014,21.014,0,0,0,3.989.554c1.578,0,3.144.021,4.693.105,1.412.077,2.963-.177,4.112.848a32.9,32.9,0,0,1,3.211,4.128C1768.028,207.765,1770.276,210.43,1771.621,213.519Z" fill="#3f444c"/>
          <path id="Trazado_25131" data-name="Trazado 25131" d="M1721.1,109.2l.005,0a14.065,14.065,0,0,1,4.757,8.208,15.772,15.772,0,0,1-.524,6.951,22.741,22.741,0,0,1-1.9,4.533,44.923,44.923,0,0,1-5.246,7.334,19.99,19.99,0,0,1-.954-3.164l0-.005A15.95,15.95,0,0,0,1722,121.245a15.7,15.7,0,0,0-6.947-12.232c-1.772-1.185-3.9-2.166-5.258-3.677a16.665,16.665,0,0,1,3.867.247A15.772,15.772,0,0,1,1721.1,109.2Z" fill="#ca9841"/>
          <path id="Trazado_25132" data-name="Trazado 25132" d="M1764.982,219.018a40.6,40.6,0,0,0-2.012-3.932c-1.341-2.288-3.527-6.618-6.143-7.374-2.373-.686-4.909.036-7.325.7C1752.493,214.74,1758.413,217.942,1764.982,219.018Z" fill="#595e66"/>
          <path id="Trazado_25133" data-name="Trazado 25133" d="M1764.982,219.018c-6.569-1.076-12.489-4.278-15.48-10.6l-.347.1a71.87,71.87,0,0,1-23.916,2.324c1.307.1,2.578,7.654,2.974,8.727,1.425,3.863,4.442,7.524,6.917,10.762,8.62,11.272,16.766,21.608,21.916,35.006,1.492,3.88,2.8,7.83,3.961,11.82.409,1.4,1.717,8.9,3.417,9.016,1.411.1,2.818.138,4.225.1a56.393,56.393,0,0,0,7.894-.757c-4.84-9.709-5.666-21.21-6.088-32.194C1770.015,241.67,1769.7,229.536,1764.982,219.018Z" fill="#4c5159"/>
          <path id="Trazado_25134" data-name="Trazado 25134" d="M1718.063,125.433c.184-1.674.609-4.583-.272-6.025-1.253-2.03-2.135-.812-4.154-.026-2.1.818-4.358-.484-6.189-1.731-1.028-.7-2.067-1.41-3.083-2.156a34.236,34.236,0,0,1-6.046-5.378,18.979,18.979,0,0,1,11.474-4.781c1.355,1.511,3.486,2.492,5.258,3.677A15.7,15.7,0,0,1,1722,121.245a15.95,15.95,0,0,1-4.755,11.809,13.2,13.2,0,0,1-.247-1.63c-.036-.391-.06-.782-.059-1.177a10.443,10.443,0,0,1,1.123-4.806Z" fill="#ca9841"/>
          <path id="Trazado_25135" data-name="Trazado 25135" d="M1700.228,139.872a12.738,12.738,0,0,1-.748-1.511,45.518,45.518,0,0,1-3.407-14.575,29.464,29.464,0,0,0,8.292-8.291c1.016.746,2.055,1.458,3.083,2.156,1.831,1.247,4.092,2.549,6.189,1.731,2.019-.786,2.9-2,4.154.026.881,1.442.456,4.351.272,6.025l0,.008a10.443,10.443,0,0,0-1.123,4.806c0,.4.023.786.059,1.177-.1.3-.211.6-.334.893a24.1,24.1,0,0,1-6.55,9.1,10.259,10.259,0,0,1-2.545,1.484C1704.488,144.091,1701.928,142.777,1700.228,139.872Z" fill="#c6b891"/>
          <path id="Trazado_25136" data-name="Trazado 25136" d="M1710.646,149.459q-.794-2.029-1.753-4a108.811,108.811,0,0,0,9.893-7.842c.2.453.413.9.631,1.348.871,1.772,1.843,3.507,2.7,5.284,1.707-.447,3.41-.886,5.138-1.255a20.037,20.037,0,0,1-8.628,8.328,20.8,20.8,0,0,1-12.508,1.875A47.119,47.119,0,0,0,1710.646,149.459Z" fill="#c6b891"/>
          <path id="Trazado_25137" data-name="Trazado 25137" d="M1718.2,136.223c.184.473.376.936.587,1.4a108.811,108.811,0,0,1-9.893,7.842c-.416-.863-.861-1.72-1.326-2.562a10.259,10.259,0,0,0,2.545-1.484,24.1,24.1,0,0,0,6.55-9.1c.123-.3.232-.593.334-.893a13.2,13.2,0,0,0,.247,1.63l0,.005A19.99,19.99,0,0,0,1718.2,136.223Z" fill="#b59780"/>
          <path id="Trazado_25138" data-name="Trazado 25138" d="M1741.458,190.609c-3.9-15.607-10.679-35.062,3.429-46.957-.171-.078-.332-.169-.509-.237a24.31,24.31,0,0,0-10.142-1.436q-1.335.078-2.648.251c-2.055,5.94-5.905,11.481-11.588,14.462a18.006,18.006,0,0,1-10.552,1.882l-.532-1.846c-3.51-1.326-8.112-3.918-8.254,2.166-.1,4.232,2.178,10.5,3.938,14.312a71.994,71.994,0,0,0,8.041,12.915c1.725,2.293,4.192,4.112,5.684,6.571a38.907,38.907,0,0,1,3.4,8.719,34.4,34.4,0,0,0,1.478,4.875c.7,1.475,1.247,3.238,2.381,4.45,1.487,1.59,2.953,1.052,4.946.855a30.947,30.947,0,0,0,7.611-1.333c4.031-1.541,5.292-4.561,5.149-8.671A53.192,53.192,0,0,0,1741.458,190.609Z" fill="#9f90be"/>
          <path id="Trazado_25139" data-name="Trazado 25139" d="M1764.493,197.86a114.661,114.661,0,0,1-5.727-17.261c-1.536-6.681-3.019-13.327-4.681-19.983-1.433-5.735-3.217-14.231-9.2-16.964-6.941,5.852-9.041,14.471-8.4,23.23.3,4.111,1.381,8.033,1.8,12.1a89.1,89.1,0,0,0,2,13.217,48.951,48.951,0,0,1,1.588,9.419,10.562,10.562,0,0,1-.275,4.172c-.171.464-2.284,3.992-2.222,4,1.739.195,4.187-1.1,5.932-1.444,1.987-.391,3.98-.924,5.961-1.26,3.862-.655,7.918-.478,11.881-.517,1-.01,3.232-.328,3.618-1.458C1767.347,203.42,1765.134,199.467,1764.493,197.86Z" fill="#9283b1"/>
          <path id="Trazado_25140" data-name="Trazado 25140" d="M1697.97,122.964a19.108,19.108,0,0,1-3.17,1.878l0-.005c-.662-5.075.367-10.173,3.084-13.769a12.563,12.563,0,0,1,1.03-1.209,38.364,38.364,0,0,0,5.453,5.636A21.491,21.491,0,0,1,1697.97,122.964Z" fill="#ca9841"/>
          <g id="Grupo_12133" data-name="Grupo 12133">
            <path id="Trazado_25141" data-name="Trazado 25141" d="M1707.412,126.549a.9.9,0,0,0,1.182,0,.711.711,0,0,0,.022-1.074.9.9,0,0,0-1.182,0A.711.711,0,0,0,1707.412,126.549Z" fill="#37371d"/>
            <path id="Trazado_25142" data-name="Trazado 25142" d="M1698.486,127.814a.842.842,0,0,0,1.044.489.761.761,0,0,0,.556-.955.842.842,0,0,0-1.044-.489A.759.759,0,0,0,1698.486,127.814Z" fill="#37371d"/>
            <path id="Trazado_25143" data-name="Trazado 25143" d="M1702.467,126.288a9.667,9.667,0,0,1,.045,5.011,1.72,1.72,0,0,0-.063,1.071c.236.583,1.036.762,1.715.856" fill="none" stroke="#8e7959" stroke-linecap="round" stroke-linejoin="round" stroke-width="0.53"/>
            <path id="Trazado_25144" data-name="Trazado 25144" d="M1708.51,136.015a5.539,5.539,0,0,1-5.337,1.467" fill="none" stroke="#c96f81" stroke-linecap="round" stroke-linejoin="round" stroke-width="0.584"/>
            <path id="Trazado_25145" data-name="Trazado 25145" d="M1710.137,121.648a8.142,8.142,0,0,0-5.036.692" fill="none" stroke="#8e7959" stroke-linecap="round" stroke-linejoin="round" stroke-width="0.587"/>
            <path id="Trazado_25146" data-name="Trazado 25146" d="M1700.348,123.565a8.142,8.142,0,0,0-5.036.692" fill="none" stroke="#8e7959" stroke-linecap="round" stroke-linejoin="round" stroke-width="0.587"/>
          </g>
          <path id="Trazado_25147" data-name="Trazado 25147" d="M1712.008,153.308a20.527,20.527,0,0,0,6.622-1.982,20.037,20.037,0,0,0,8.628-8.328l.006,0c1.431-.318,2.872-.583,4.324-.766-2.055,5.94-5.9,11.481-11.588,14.462-5.6,2.934-13.085,2.765-17.852-1.039a31.5,31.5,0,0,0,3.969-2.449l.005,0A20.546,20.546,0,0,0,1712.008,153.308Z" fill="#9283b1"/>
          <path id="Trazado_25148" data-name="Trazado 25148" d="M1694.3,118.122c0,.116.008.232.013.346.141,3.083,1.538,2.743,3.767,2.653,2.151-.087,4.3-.069,6.44-.176a54.81,54.81,0,0,0,9.31-.959c2.843-.636,5.512-1.692,8.335-2.394,1.026-.255,3.012-.5,3.565-1.8.969-2.278-1.316-6.638-2.546-8.281a13.337,13.337,0,0,0-7.049-4.8,18.664,18.664,0,0,0-7.188-.429,18.09,18.09,0,0,0-12.474,7.019C1694.774,111.638,1694.213,115.084,1694.3,118.122Z" fill="#bf5763"/>
          <path id="Trazado_25149" data-name="Trazado 25149" d="M1725.726,115.792c-.543,1.294-2.538,1.541-3.555,1.8-2.825.7-5.5,1.757-8.335,2.4a50.9,50.9,0,0,1-8.632.919,8.745,8.745,0,0,0,.879-.168c2.845-.642,5.511-1.7,8.335-2.4,1.027-.257,3.012-.5,3.565-1.8.968-2.282-1.313-6.647-2.547-8.286a13.3,13.3,0,0,0-7.042-4.8,18.1,18.1,0,0,0-2.686-.494,21.142,21.142,0,0,1,3.239-.682,18.794,18.794,0,0,1,7.19.425,13.328,13.328,0,0,1,7.051,4.8C1724.412,109.156,1726.7,113.511,1725.726,115.792Z" fill="#b24a56"/>
          <path id="Trazado_25150" data-name="Trazado 25150" d="M1709.78,119.121c1.091-3.045-8.019-1.344-9.471-1.212-3.093.282-6.188.543-9.289.7-2.685.139-5.4-.118-7.966.7-1.436.458-2.9,1.734-1.334,2.968,1.7,1.342,6.5.357,8.538.251,5.29-.277,10.532-.486,15.757-1.167C1707.464,121.174,1709.243,120.619,1709.78,119.121Z" fill="#d9717d"/>
          <path id="Trazado_25151" data-name="Trazado 25151" d="M1734.551,219.109c-5.171,1.051-8.149-3.527-9.59-7.708-1.115-3.236-2.17-6.519-3.069-9.834-1.347-4.969-4.087-9.277-6.359-13.814-.866-1.728-2.012-3.553-2.688-5.238,4.221-1.139,8.719-2.153,13.026-3.233a50.266,50.266,0,0,0,6.316-1.924c1.554-.609,3.222-1.59,4.9-1.588-.074,3.583,1.606,7.272,2.643,10.648a78.151,78.151,0,0,0,4.686,11.743c2.664,5.308,5.4,11.071,8.763,15.842-2.365,1.152-5.917.845-8.522,1.6C1741.294,216.582,1737.965,218.415,1734.551,219.109Z" fill="#4c5159"/>
          <path id="Trazado_25152" data-name="Trazado 25152" d="M1733.091,181.894c-1.713-3.274-1.906-7-2.308-10.6a65.985,65.985,0,0,1-.469-13.081c.425-4.76,1.131-12.034,4.424-15.854,1.633-1.894,2.955-.768,5.015-1.144a22.373,22.373,0,0,0-5.675,10.715,31.629,31.629,0,0,0,.149,8.736c.536,4.843,2.036,9.369,2.581,14.245.157,1.411,1.333,4.771.43,5.816C1736.272,181.846,1734.15,180.884,1733.091,181.894Z" fill="#4c5159"/>
          <path id="Trazado_25153" data-name="Trazado 25153" d="M1714.57,184.337a8.929,8.929,0,0,1,3.309-1.417,19.993,19.993,0,0,1-3.662-4.17,33.363,33.363,0,0,1-3.264-8.408c-1.391-4.848-1.77-9.792-3.166-14.677-.244-.853-.424-2.537-.8-3.877-1.733.9-3.434,1.828-5.155,2.7a59.2,59.2,0,0,0,1.811,7.124A69.736,69.736,0,0,0,1708.3,174.3,50.882,50.882,0,0,0,1714.57,184.337Z" fill="#4c5159"/>
        </g>
        <g id="Grupo_12135" data-name="Grupo 12135">
          <path id="Trazado_25154" data-name="Trazado 25154" d="M1728.23,160.189c-.858,1.566-1.7,3.144-2.557,4.707a69.6,69.6,0,0,1,13.235,7.328,63.2,63.2,0,0,0,9.334-17.315,14.427,14.427,0,0,0,.8-3.483c.324-4.258-1.844-8.452-6.169-8.507a9.572,9.572,0,0,0-7.015,2.72c-2.314,2.408-3.573,6.024-4.877,9.118A58.785,58.785,0,0,1,1728.23,160.189Z" fill="#ac9dcb"/>
          <path id="Trazado_25155" data-name="Trazado 25155" d="M1711.874,190.06a5.167,5.167,0,0,0,1.3,1.7c2,1.925,3.6,3.962,6.671,2.666a10.711,10.711,0,0,0,3.668-2.94c2.99-3.366,5.453-7.13,8.377-10.534,2.413-2.818,4.8-5.714,7.017-8.732a69.6,69.6,0,0,0-13.235-7.328,92.63,92.63,0,0,1-6.847,11.157c-1.283,1.725-2.257,3.545-3.45,5.319a25.477,25.477,0,0,0-3.339,5.942A3.81,3.81,0,0,0,1711.874,190.06Z" fill="#c6b891"/>
          <path id="Trazado_25156" data-name="Trazado 25156" d="M1685.822,209.632c.436-.126.884-.24,1.341-.346,1.118-.258,2.449.205,3.443-.21,3.372-1.409,5.117-5.276,7.43-7.82,3.016-3.318,6.106-6.569,9.051-9.952,1.718-1.973,3.428-4.043,5.849-5.318s5.781-1.562,8.107.037a3.663,3.663,0,0,1,1.337,1.514c.622,1.468-.315,3-1.244,4.264a134.376,134.376,0,0,1-9.152,11.152,80.651,80.651,0,0,1-9.759,8.516c-1.727,1.381-3.227,3.205-5.066,4.425-1.647,1.092-3.367,2.125-5.022,3.229a19.739,19.739,0,0,1-2.436,1.2c-1.513.749-2.361,2.458-3.876,3.237-1.689.867-4.415,1.466-6.166.53-3.243-1.736-1.161-7.571.145-10.036C1681.139,211.539,1683.28,210.369,1685.822,209.632Z" fill="#c6b891"/>
        </g>
        <path id="Trazado_25157" data-name="Trazado 25157" d="M1699.814,196.238c1.486-.7,5.857,5.106,7.154,6.249,1.553,1.368,3.23,2.652,4.8,3.872-3.343-.108-6.738,3.507-9.078,5.476a83.758,83.758,0,0,1-6.826,5.421c-3.854,2.61-7.366,5.589-11.957,6.741-2.2.552-5.7,1.459-6.519-1.094-.664-2.061-.15-5.142.565-7.121.923-2.555,2.359-6.018,5.041-6.973,2.333-.83,4.975.442,7.348-.432s4.309-3.844,5.719-5.923C1697.427,200.444,1698.859,198,1699.814,196.238Z" fill="#cc6470"/>
      </g>
      <g id="Grupo_12147" data-name="Grupo 12147">
        <g id="Grupo_12137" data-name="Grupo 12137">
          <path id="Trazado_25158" data-name="Trazado 25158" d="M1554.035,327.046h-5.3c-9.177,0-16.616,10.072-16.616,22.5s7.439,22.5,16.616,22.5h5.3Z" fill="#2e2a12"/>
          <ellipse id="Elipse_863" data-name="Elipse 863" cx="16.617" cy="22.497" rx="16.617" ry="22.497" transform="translate(1536.607 327.046)" fill="#555139"/>
          <path id="Trazado_25159" data-name="Trazado 25159" d="M1556.83,349.543c0,2.7-1.615,4.883-3.607,4.883s-3.606-2.186-3.606-4.883,1.615-4.883,3.606-4.883S1556.83,346.846,1556.83,349.543Z" fill="#48442c"/>
        </g>
        <g id="Grupo_12138" data-name="Grupo 12138">
          <path id="Trazado_25160" data-name="Trazado 25160" d="M1635.888,224l-.342,1.056,2.031.617Z" fill="#61a37b"/>
          <path id="Trazado_25161" data-name="Trazado 25161" d="M1679.04,262l-19.888,61.5c-1.942,6-7.4,9.668-13.013,8.648a13.279,13.279,0,0,0-1.534-.187v-.028h-5.463c-9.469,0-17.147,10.071-17.147,22.5,0,.487.008.973.042,1.459l-24.825-12.316,38.332-118.51,2.032.617Z" fill="#c4c4c4"/>
          <path id="Trazado_25162" data-name="Trazado 25162" d="M1642.949,202.171,1635.888,224l1.69,1.673,4.6,1.4-4.6-1.4L1679.041,262l11.192-34.6Z" fill="#a3a3a3"/>
        </g>
        <g id="Grupo_12139" data-name="Grupo 12139">
          <path id="Trazado_25163" data-name="Trazado 25163" d="M1624.027,365.068l-60.617-11.062-40.623-23.36,74.425,12.923,24.825,12.316A27.8,27.8,0,0,0,1624.027,365.068Z" fill="#d0d0d0"/>
        </g>
        <g id="Grupo_12140" data-name="Grupo 12140">
          <path id="Trazado_25164" data-name="Trazado 25164" d="M1522.788,330.648l74.42,12.923,38.338-118.515-87.284-22.166Z" fill="#e5e5e5"/>
          <path id="Trazado_25165" data-name="Trazado 25165" d="M1634.813,222.935l1.075,1.065,7.061-21.829-92-11.933-2.691,12.651,87.284,22.166.342-1.056Z" fill="#bebebe"/>
        </g>
        <path id="Trazado_25166" data-name="Trazado 25166" d="M1696.7,226.107c-.622-3.042-1.488-2.794-3.591-4.175-3.163-2.078-6.749-3.6-10.058-5.366-10.445-5.572-27.552-13.014-38-18.586a9.98,9.98,0,0,1-2.743,5.575,9.688,9.688,0,0,1-3.268,6.01c0,.127.007.241.008.378,20.707,11.046,47.019,23.4,47.023,23.4C1692.8,236.932,1698.068,232.832,1696.7,226.107Z" fill="#a0a0a0"/>
        <g id="Grupo_12144" data-name="Grupo 12144">
          <g id="Grupo_12141" data-name="Grupo 12141">
            <path id="Trazado_25167" data-name="Trazado 25167" d="M1587.894,216.665a4.063,4.063,0,0,0-2.177,1.505l-8.6,9.754,4.327,5.377,7.151-7.987a36.785,36.785,0,0,1-.509-5.865A17.265,17.265,0,0,1,1587.894,216.665Z" fill="#939393"/>
            <path id="Trazado_25168" data-name="Trazado 25168" d="M1599.381,226.4l-2.005.858-.719-7.352a2.613,2.613,0,0,0-2.131-2.628l-5.786-.7.607,7.9.069-.089.59,6.027-1.749.748c-.436.186-.6.941-.233,1.077l6.459,2.4a.5.5,0,0,0,.538-.279l4.665-7.157C1599.981,226.742,1599.784,226.224,1599.381,226.4Z" fill="#939393"/>
          </g>
          <g id="Grupo_12142" data-name="Grupo 12142">
            <path id="Trazado_25169" data-name="Trazado 25169" d="M1597.875,250.629a6,6,0,0,0,.665-2.844l.244-12.324-7.259,4.218-.287,10.147Z" fill="#939393"/>
            <path id="Trazado_25170" data-name="Trazado 25170" d="M1581.691,262.8l1.04-2.6,5.687.545a4.4,4.4,0,0,0,3.561-2.083l5.2-6.893-5.975-.785.006.1-4.663-.446.907-2.269c.226-.565-.165-.909-.557-.49l-6.93,7.383a.908.908,0,0,0-.246.708l1.163,7.045C1580.962,263.459,1581.482,263.319,1581.691,262.8Z" fill="#939393"/>
          </g>
          <g id="Grupo_12143" data-name="Grupo 12143">
            <path id="Trazado_25171" data-name="Trazado 25171" d="M1571.068,248.415a.165.165,0,0,1,.1-.064l8.213,1.509-3.023,9.486-9.1-1.524a2.006,2.006,0,0,1-1.837-2.029.21.21,0,0,1,.05-.136Z" fill="#939393"/>
            <path id="Trazado_25172" data-name="Trazado 25172" d="M1564.68,247.6a5.034,5.034,0,0,0-.013.949l.755,7.183,5.678-7.355Z" fill="#939393"/>
            <path id="Trazado_25173" data-name="Trazado 25173" d="M1577.152,243.271l.352-9.389c.008-.246-.125-.4-.325-.377l-6.315.756a.785.785,0,0,0-.523,1.025l1.075,1.556-5.275,7.051a7.744,7.744,0,0,0-1.249,2.566l6.933.838,3.542-4.736.938,1.358C1576.538,244.257,1577.132,243.8,1577.152,243.271Z" fill="#939393"/>
          </g>
        </g>
        <path id="Trazado_25174" data-name="Trazado 25174" d="M1638.591,210.789l-91.75-12.161c-3.427-.613-5.134-4.257-3.813-8.137l.056.554c1.321-3.881,5.17-6.529,8.6-5.916l91.751,12.161c3.426.614,5.133,4.257,3.812,8.138l-.056-.554C1645.866,208.754,1642.018,211.4,1638.591,210.789Z" fill="#adadad"/>
        <g id="Grupo_12145" data-name="Grupo 12145">
          <path id="Trazado_25175" data-name="Trazado 25175" d="M1573.51,339.723l6.79-23.674a4.892,4.892,0,0,0,.113-2.394l-1.485-6.587a4.962,4.962,0,0,1,.152-2.527l8.066-25.77-2.406-6.408-20.014-3.377c-2.032,1.8-3.135,2.776-5.166,4.576l-6.585,25.213a5.681,5.681,0,0,1-1.281,2.382l-5.131,5.574a5.675,5.675,0,0,0-1.245,2.25l-7.11,24.785Z" fill="#a5a5a5"/>
          <path id="Trazado_25176" data-name="Trazado 25176" d="M1573.51,339.723l6.883-24a3.656,3.656,0,0,0,.084-1.785l-1.617-7.174a3.689,3.689,0,0,1,.114-1.884l8.322-26.59-2.2-5.87-15.272-2.577-4.143,3.67-6.946,26.6a4.233,4.233,0,0,1-.956,1.776l-5.586,6.069a4.211,4.211,0,0,0-.928,1.677l-7.2,25.117Z" fill="#c3c3c3"/>
          <path id="Trazado_25177" data-name="Trazado 25177" d="M1585.372,284.733l-22.956-3.874c-.721-.122-1.535.579-1.818,1.565s.072,1.885.794,2.006l22.956,3.874Z" fill="#9d9d9d"/>
        </g>
        <g id="Grupo_12146" data-name="Grupo 12146">
          <path id="Trazado_25178" data-name="Trazado 25178" d="M1638.669,335.258H1633.2c-9.471,0-17.148,10.073-17.148,22.5s7.677,22.5,17.148,22.5h5.467Z" fill="#48442c"/>
          <ellipse id="Elipse_864" data-name="Elipse 864" cx="17.148" cy="22.497" rx="17.148" ry="22.497" transform="translate(1620.683 335.258)" fill="#6f6b53"/>
          <ellipse id="Elipse_865" data-name="Elipse 865" cx="11.173" cy="14.658" rx="11.173" ry="14.658" transform="translate(1626.658 343.098)" fill="#48442c"/>
          <path id="Trazado_25179" data-name="Trazado 25179" d="M1641.553,357.756c0,2.7-1.667,4.882-3.722,4.882s-3.722-2.186-3.722-4.882,1.666-4.883,3.722-4.883S1641.553,355.059,1641.553,357.756Z" fill="#625e46"/>
        </g>
      </g>
      <path id="Trazado_25180" data-name="Trazado 25180" d="M1699.814,196.238c1.486-.7,5.857,5.106,7.154,6.249,1.553,1.368,3.23,2.652,4.8,3.872-3.343-.108-6.738,3.507-9.078,5.476a83.758,83.758,0,0,1-6.826,5.421c-3.854,2.61-7.366,5.589-11.957,6.741-2.2.552-5.7,1.459-6.519-1.094-.664-2.061-.15-5.142.565-7.121.923-2.555,2.359-6.018,5.041-6.973,2.333-.83,4.975.442,7.348-.432s4.309-3.844,5.719-5.923C1697.427,200.444,1698.859,198,1699.814,196.238Z" fill="#cc6470"/>
    </g>
  </g>
</svg>
