<svg xmlns="http://www.w3.org/2000/svg" width="684.612" height="318.395" viewBox="0 0 684.612 318.395">
  <g id="Grupo_17571" data-name="Grupo 17571" transform="translate(-146.221 -319.475)">
    <path id="Trazado_32725" data-name="Trazado 32725" d="M484.2,409.112a101.886,101.886,0,0,0-20.082-1.312c-8.6.3-17.733,1.921-24.073,7.535-5.28,4.676-7.92,11.507-12.931,16.444-8.166,8.045-21.19,9.648-32.734,8.078s-22.511-5.772-34.027-7.505c-21.574-3.246-48.412,1.657-61.59,19.956-7.447,10.342-7.832,24.921.95,34.625,7.734,8.546,21.1,7.928,19.959,23.525-.653,8.892-6.44,16.77-13.042,23.156s-14.231,11.831-20.144,18.8c-8.623,10.16-13.16,23.622-11.184,36.449a38.745,38.745,0,0,0,23.324,29.709c12.135,4.875,26.058,3.192,39.058.715s26.285-5.683,39.3-3.589c10.021,1.612,22.176,8,25.334,17.879,1.222,3.823-.013,7.581,1.06,11.4,1.574,5.595,7.167,11.164,12.2,14.089,14.13,8.209,32.7,1.707,46.842-6.811s28.2-19.367,44.842-19.867c23.105-.694,41,18.59,63.06,24.9,21.137,6.05,45.95-1.358,59.908-17.885,4.977-5.893,8.683-12.809,14.546-17.911a34.118,34.118,0,0,1,22.336-7.964c7.777.034,12.9,4.752,19.994,5.61,13.738,1.662,34.061-12.482,38.62-24.461,5.578-14.657-6.034-28.766-18.9-39.635-9.629-8.138-20.781-13.5-29.116-23.387-5.945-7.05-10.233-15.741-10.136-24.835.073-6.852,2.6-13.5,3.24-20.331,1.723-18.285-11.984-36.616-30.638-40.972-15.237-3.558-31.127,1.423-46.714,3.632C549.412,455.388,524.659,415.793,484.2,409.112Z" transform="translate(-4.451 -69.832)" fill="#efb0ac" opacity="0.16"/>
    <g id="Grupo_17539" data-name="Grupo 17539" transform="translate(146.221 399.543)">
      <g id="Grupo_17532" data-name="Grupo 17532" transform="translate(16.146 72.927)">
        <path id="Trazado_32726" data-name="Trazado 32726" d="M357.935,1080s16.533,10.737,31.525,11.833c15.7,1.148,11.111-37.871,12.655-39.3s18.964-.014,23.154,7.264c0,0-12.865,47.59-32.588,45.174-21.649-2.652-37.8-15.6-39.805-18.256s-9.094-7.444-5.195-13.464C353.1,1064.882,357.935,1080,357.935,1080Z" transform="translate(-346.53 -1052.039)" fill="#d79f9c"/>
      </g>
      <path id="Trazado_32727" data-name="Trazado 32727" d="M340.268,1148.667c-1.208-.776-1.925-2.25-1.4-4.629a4.231,4.231,0,0,1-4.364-.084c-1.756-1.15-2.4-3.788-2.432-5.788-4.337,4.886-7.623-4.058-4.971-5.023-4.32,1.572-5.639-6.275-.7-5.432a2.954,2.954,0,0,1-1.955-2.364c-.312-2.274,2.245-3.43,3.972-3.886,2.038-.537,4.7,1.228,4.34,3.4a9.642,9.642,0,0,1,4.412-3.464,5.512,5.512,0,0,1,5.4.964,4.292,4.292,0,0,1,.872,5.36,15.761,15.761,0,0,1,5.467-.4,6.486,6.486,0,0,1,4.662,2.9c.983,1.664.836,4.068-.612,5.2a6.123,6.123,0,0,1,7.313,4.028,6.394,6.394,0,0,1-1.383,6.029c-.931,1.029-3.487,2.2-4.489.659a2.654,2.654,0,0,1-.812,1.464,3.2,3.2,0,0,1-1.862.657,4.552,4.552,0,0,1-4.477-2.718C348.321,1148.579,343.02,1150.434,340.268,1148.667Z" transform="translate(-311.96 -1033.736)" fill="#d6edf4" opacity="0.79"/>
      <path id="Trazado_32728" data-name="Trazado 32728" d="M396.77,1031.49l-2.554,39.838,6.242-.567L400,1031.319Z" transform="translate(-368.111 -962.72)" fill="#6bc3dc"/>
      <path id="Trazado_32729" data-name="Trazado 32729" d="M592.037,1014.2s-6.81.681-9.761,8.4-5.675,31.1-7.718,32.688,6.583,9.761,9.988,10.669S597.258,1017.379,592.037,1014.2Z" transform="translate(-510.545 -949.177)" fill="#006479"/>
      <g id="Grupo_17533" data-name="Grupo 17533" transform="translate(102.449 187.453)">
        <path id="Trazado_32730" data-name="Trazado 32730" d="M797.959,1651.284c-.761-18.272-1.086-30.289-1.086-30.289s-37.566-33.056-37.106-15.388c.216,8.31,3.326,25.324,7.661,45.677Z" transform="translate(-759.763 -1600.412)" fill="#efb0ac"/>
      </g>
      <g id="Grupo_17534" data-name="Grupo 17534" transform="translate(78.027 185.834)">
        <path id="Trazado_32731" data-name="Trazado 32731" d="M673.832,1645.148c2.229-16,3.8-26.271,3.8-26.271s-31.093-39.206-33.781-21.738c-1.3,8.439-1.225,26.456-.524,48.009Z" transform="translate(-642.828 -1592.656)" fill="#efb0ac"/>
      </g>
      <path id="Trazado_32732" data-name="Trazado 32732" d="M672.141,1503.088c-12.046-63.863-20.407-79.9-20.407-79.9s-53.535-1.751-56.434-10.1c0,0-12.812,62.734-13.77,89.993Z" transform="translate(-516.305 -1264.762)" fill="#262e4c"/>
      <path id="Trazado_32733" data-name="Trazado 32733" d="M645.022,710.179c14.716-10.776,26.354-7.322,33.365-4.268,5.267,2.295,12.184,9.608,8.88,17.287,1.8-3.148,13.466-11.522,25.265-4.786,4.841,2.763,4.384,9.2,1.181,12.549a44.236,44.236,0,0,1,11.419-.019c3.762.65,7.485,2.41,9.709,5.514s2.576,7.683.191,10.664c6.155-1.07,12.966,2.167,15.535,7.861s.167,13.3-5.447,16.041-13.442-.472-15.064-6.5c-4.808,3.344-9.858,6.786-15.661,7.578s-12.548-2-14.223-7.608a45.2,45.2,0,0,1-8.252,7.078,15.2,15.2,0,0,1-10.39,2.39c-3.577-.639-6.9-3.336-7.57-6.907a44.01,44.01,0,0,1-10.213,4.52c-3.621.911-7.637.836-10.881-1.014s-5.454-5.733-4.631-9.374c-4.971.157-13.838-7.951-14.463-21.238C633.368,731.356,633.064,718.935,645.022,710.179Z" transform="translate(-557.527 -702.854)" fill="#262e4c"/>
      <g id="Grupo_17535" data-name="Grupo 17535" transform="translate(83.157 19.262)">
        <path id="Trazado_32734" data-name="Trazado 32734" d="M675.981,832.424a11.332,11.332,0,0,0,3.083-6.713c.784-7.5,2.126-22.859.606-27.923-2.039-6.8,15.634,1.359,15.634,1.359s-.933,15.621,2.408,27.751c1.425,5.17,9.161,6.6,11.193,8.627,6.8,6.8-29.831,11.757-36.711,9.164C660.872,840.424,672.688,835.836,675.981,832.424Z" transform="translate(-667.392 -795.084)" fill="#d79f9c"/>
      </g>
      <g id="Grupo_17536" data-name="Grupo 17536" transform="translate(82.729 10.753)">
        <path id="Trazado_32735" data-name="Trazado 32735" d="M689.417,756.309a13.721,13.721,0,0,1,7.335,11.525c1.232,15.761-10.993,30.378-23.105,24.921-6.916-3.116-9.421-19.479-7.857-24.717C669.043,757.14,679.391,750.939,689.417,756.309Z" transform="translate(-665.341 -754.344)" fill="#efb0ac"/>
      </g>
      <path id="Trazado_32736" data-name="Trazado 32736" d="M604.1,987.677c5.127-8.584,10.4-11.106,10.4-11.106s13.524,14.13,31.712-2.208c0,0,12.591,2.649,16.788,8.831s12.879,70.042,2.039,92.625c-1.4.883-41.876,7.883-59.131-.064-8.732-8.545-9.53-50.014-9.53-60.611C596.381,1010.109,599.457,995.446,604.1,987.677Z" transform="translate(-528.054 -917.659)" fill="#006d84"/>
      <path id="Trazado_32737" data-name="Trazado 32737" d="M674.661,731.52s24.25-6.063,25.578,32.566c.59,17.17-10.726,4.9-13.058-4.2a22.645,22.645,0,0,1-21.226-13.6s-4.268,4.663-3.957,12.9C658.184,735.717,674.661,731.52,674.661,731.52Z" transform="translate(-579.515 -725.26)" fill="#262e4c"/>
      <g id="Grupo_17537" data-name="Grupo 17537" transform="translate(24.813 77.921)">
        <path id="Trazado_32738" data-name="Trazado 32738" d="M403.159,1112.508s23.889,9.035,41.966,6.748c18.931-2.4,27.776-33.028,29-35.129s14.083-13.247,22.028-5.429c0,0-17.6,53.895-41.788,55.722-26.548,2.006-50.905-9.809-54.364-12.541s-13.778-6.836-11.693-15.079C391.207,1095.337,403.159,1112.508,403.159,1112.508Z" transform="translate(-388.032 -1075.952)" fill="#efb0ac"/>
      </g>
      <path id="Trazado_32739" data-name="Trazado 32739" d="M775.562,1017.334s10.656,6.019-12.155,50.058c-12.641,3.162-26.925-9.455-26.925-9.455s6.475-19.937,17.053-32.6C762.736,1014.322,772.986,1011.329,775.562,1017.334Z" transform="translate(-638.895 -949.248)" fill="#007593"/>
      <g id="Grupo_17538" data-name="Grupo 17538" transform="translate(0 55.806)">
        <path id="Trazado_32740" data-name="Trazado 32740" d="M273.307,1019.7l-4.086-.033c.009-1.13.258-27.812,2.772-39.239a12.314,12.314,0,0,1,7.264-9.1c5.424-2.337,12.5-1.067,15.531.749a14.466,14.466,0,0,1,6.892,11.21l-4.083.152,2.042-.076-2.041.088a10.326,10.326,0,0,0-4.912-7.87c-1.893-1.135-7.617-2.307-11.812-.5a8.176,8.176,0,0,0-4.891,6.224C273.56,992.323,273.309,1019.431,273.307,1019.7Z" transform="translate(-269.221 -970.062)" fill="#cfcfcf"/>
      </g>
      <rect id="Rect치ngulo_2936" data-name="Rect치ngulo 2936" width="5.107" height="2.1" rx="0.188" transform="translate(27.609 68.089)" fill="#eaeaea"/>
    </g>
    <g id="Grupo_17556" data-name="Grupo 17556" transform="translate(586.709 386.748)">
      <path id="Trazado_32741" data-name="Trazado 32741" d="M2200.522,1002.044c.833-.48-1.27-12.3,11.231-15.626,9.032-2.4,9.625,8.037,6.791,14.662-2.254,5.268-5.6,7.113-7.741,9.177S2200.522,1002.044,2200.522,1002.044Z" transform="translate(-2045.662 -914.122)" fill="#efb0ac"/>
      <path id="Trazado_32742" data-name="Trazado 32742" d="M2292.34,939.945s-11.1,4.7-12.793,23.141c-2.446-2.446-2.075-9.211-.188-14.3,2.163-5.832,5.079-11.476,12.229-12.417C2294.786,935.43,2292.34,939.945,2292.34,939.945Z" transform="translate(-2106.822 -874.704)" fill="#262e4c"/>
      <path id="Trazado_32743" data-name="Trazado 32743" d="M1903.6,981.451s8.456,1.018,12.605,5.832,16.484,40.207,19.812,42.407,27.219-33.512,27.219-33.512,14.747,10.417,14.366,13.592c-.918,7.658-10.529,32.547-31.61,45.389s-40.135-21.218-40.135-21.218S1897.125,984.5,1903.6,981.451Z" transform="translate(-1808.862 -910.471)" fill="#00657a"/>
      <g id="Grupo_17541" data-name="Grupo 17541" transform="translate(56.526 183.144)">
        <g id="Grupo_17540" data-name="Grupo 17540">
          <path id="Trazado_32744" data-name="Trazado 32744" d="M1734.828,1586.489h45.321c.58-38.232.941-67.978.941-67.978s-54.155,7.434-51.3,7.466C1731.176,1544.853,1732.922,1565.541,1734.828,1586.489Z" transform="translate(-1729.682 -1518.511)" fill="#1f253c"/>
        </g>
      </g>
      <g id="Grupo_17543" data-name="Grupo 17543" transform="translate(55.688 29.899)">
        <g id="Grupo_17542" data-name="Grupo 17542">
          <path id="Trazado_32745" data-name="Trazado 32745" d="M1738.251,784.748s21.265,13.7,22.525,10.991c-.684,23.41,7.486,30.8,8.859,32.1-5.137,7.494-46.969-.546-43.8-6.649C1738.639,812.125,1738.251,784.748,1738.251,784.748Z" transform="translate(-1725.666 -784.748)" fill="#d79f9c"/>
        </g>
      </g>
      <g id="Grupo_17545" data-name="Grupo 17545" transform="translate(29.73 183.519)">
        <g id="Grupo_17544" data-name="Grupo 17544">
          <path id="Trazado_32746" data-name="Trazado 32746" d="M1601.375,1587.911H1646.5c4.993-38,8.791-67.6,8.791-67.6s-54.65,1.145-51.817,1.506C1602.6,1542.415,1601.912,1565.094,1601.375,1587.911Z" transform="translate(-1601.375 -1520.309)" fill="#262e4c"/>
        </g>
      </g>
      <g id="Grupo_17547" data-name="Grupo 17547" transform="translate(17.542 63.846)">
        <g id="Grupo_17546" data-name="Grupo 17546">
          <path id="Trazado_32747" data-name="Trazado 32747" d="M1548.384,959.638c6.983-3.661,28.075-12.849,35.461-12.324,3.249,7.973,31.972,16.59,37.856,3.293,0,0,6.62,1.26,11.657,12.212,2.663,8.164.611,60.985,3.687,83.689,3.21,23.694,2.307,35.594-5.648,46.744-2.4,2.788-50.564,15.563-74.167.245-6.65-3.6-7.693-2.372-7.994-29.7-.143-12.944-4.6-65.441-6.184-85.759C1542.728,973.881,1544.693,961.573,1548.384,959.638Z" transform="translate(-1543.018 -947.293)" fill="#006d84"/>
        </g>
      </g>
      <g id="Grupo_17548" data-name="Grupo 17548" transform="translate(92.717 27.39)">
        <path id="Trazado_32748" data-name="Trazado 32748" d="M1903.859,773.171a3.083,3.083,0,0,0-.879,2.379c-.135,2.656.965,7.486,2.13,8.3a6.193,6.193,0,0,0,2.608.492c1.448.046,6.233-.01,7.037-2.666a30.131,30.131,0,0,0,.822-6c.078-1.383-.626-2.5-1.636-2.592-1.224-.117-3.067-.269-4.886-.328a18.08,18.08,0,0,0-5.006.315Zm.5,1.481a18.334,18.334,0,0,1,4.531-.228c1.8.057,3.617.208,4.829.323.379.036.644.46.615.985a27.151,27.151,0,0,1-.732,5.476c-.233.774-2.641,1.572-5.72,1.473a5.713,5.713,0,0,1-2.1-.32c-.476-.334-1.421-3.422-1.55-5.994A4.593,4.593,0,0,1,1904.358,774.651Z" transform="translate(-1902.968 -772.734)" fill="#1f253c"/>
      </g>
      <path id="Trazado_32749" data-name="Trazado 32749" d="M1499.285,1602s-3.23,4.889-1.01,14.751,13.615,13.879,17.535,12.614-7.449-23.082-6.972-27.563S1500.338,1597.812,1499.285,1602Z" transform="translate(-1489.461 -1398.764)" fill="#efb0ac"/>
      <path id="Trazado_32750" data-name="Trazado 32750" d="M1485.172,1021.254a4.111,4.111,0,0,0-6.958,1.592c-3.9,12.741-17.565,58.022-18.924,70.4-1.586,14.457,4.4,53.877,5.669,57.8s16.466,3.342,16.466,3.342,1.96-53.527,4.9-57.84,11.4-27.242,11.854-28.83C1498.545,1066.41,1493.651,1030.6,1485.172,1021.254Z" transform="translate(-1459.025 -940.907)" fill="#007089"/>
      <g id="Grupo_17552" data-name="Grupo 17552" transform="translate(59.114)">
        <g id="Grupo_17550" data-name="Grupo 17550" transform="translate(5.981 5.059)">
          <g id="Grupo_17549" data-name="Grupo 17549">
            <path id="Trazado_32751" data-name="Trazado 32751" d="M1806.743,672.625s8.317,30.506-7.662,43.62c-11.764,9.654-31.346-14.247-27.987-32.78S1799.734,660.434,1806.743,672.625Z" transform="translate(-1770.712 -665.81)" fill="#efb0ac"/>
          </g>
        </g>
        <g id="Grupo_17551" data-name="Grupo 17551">
          <path id="Trazado_32752" data-name="Trazado 32752" d="M1784.678,656.631a24.506,24.506,0,0,0-19.954-1.172c-3.252.484-3.04,6.1-3.04,6.1s-7.981.63-5.013,11.177c1.832,4.3-2.5.272-2.5.272s-.276-5.74-2.233-4.669c-2.844,1.556-2.861,3.482-.734,13.193-.6,2.96-9.645-9.2-9.111-23.251.555-7.733,6.161-15.057,17.983-16.288s22.715.551,25.232,2.574C1790.175,648.475,1784.678,656.631,1784.678,656.631Z" transform="translate(-1742.075 -641.587)" fill="#262e4c"/>
        </g>
      </g>
      <g id="Grupo_17553" data-name="Grupo 17553" transform="translate(71.502 25.703)">
        <path id="Trazado_32753" data-name="Trazado 32753" d="M1814.279,766.6l-.869,2.028c-3.089-1.021-9.7-3.83-12.02-3.426l.087-.088C1805.341,763.6,1813.368,766.3,1814.279,766.6Z" transform="translate(-1801.39 -764.658)" fill="#1f253c"/>
      </g>
      <g id="Grupo_17554" data-name="Grupo 17554" transform="translate(99.704 27.355)">
        <path id="Trazado_32754" data-name="Trazado 32754" d="M1940.8,773.217l-.6,1.328a7.3,7.3,0,0,0-3.612-.46l-.171-1.443A8.634,8.634,0,0,1,1940.8,773.217Z" transform="translate(-1936.425 -772.57)" fill="#1f253c"/>
      </g>
      <path id="Trazado_32755" data-name="Trazado 32755" d="M1784.263,799.947c2.578,2.6,6.151,4.24,6.794,1.419.639-2.805-2.178-7.246-3.717-9.405a4.322,4.322,0,0,0-.087-.7c2.368,1.495,9.223,5.422,15.292,5.013,7.478-.5,15.18-.461,16.08,1.732a19.243,19.243,0,0,1,1.543,11.727c-1.413,8.843-23.743,16.541-36.278-9.32C1784.054,800.02,1784.228,800.375,1784.263,799.947Z" transform="translate(-1716.041 -760)" fill="#d6edf4"/>
      <g id="Grupo_17555" data-name="Grupo 17555" transform="translate(83.393 25.906)">
        <path id="Trazado_32756" data-name="Trazado 32756" d="M1859.324,766.438a3.119,3.119,0,0,0-.977,2.193,28.457,28.457,0,0,0,.251,5.523c.59,2.912,8.032,3.5,8.881,3.56a8.5,8.5,0,0,0,3.767-.326c1.459-.823,4.331-5.836,4.471-8.294a1.974,1.974,0,0,0-.71-1.859l-.219-.11c-1.625-.517-5.065-.956-10.224-1.308-1.141-.077-2.2-.139-3.06-.185A2.92,2.92,0,0,0,1859.324,766.438Zm1.077,1.2a1.348,1.348,0,0,1,1.007-.372c.856.046,1.9.107,3.038.184a58.738,58.738,0,0,1,9.654,1.177,2.149,2.149,0,0,1-.06.946c-.509,2.328-2.84,5.98-3.557,6.383a7.86,7.86,0,0,1-2.885.125c-3.982-.271-7.267-1.443-7.435-2.271a25.713,25.713,0,0,1-.216-5.142A1.456,1.456,0,0,1,1860.4,767.639Z" transform="translate(-1858.322 -765.628)" fill="#1f253c"/>
      </g>
      <path id="Trazado_32757" data-name="Trazado 32757" d="M2176.5,910.284v9.873s-9.256-3.7-15.426,3.7-7.2,8.639,0,28.385c5.68,15.58,10.7,38.669,8.844,53.479s-39.492,10.49-41.96,3.7-9.42-15.1,12.753-61.912c5.553-11.724,3.291-25.711,3.085-26.122-1.9-3.793-4.731.206-5.348-3.5s-.206-7.2,13.576-6.993S2176.5,910.284,2176.5,910.284Z" transform="translate(-1985.882 -854.167)" fill="#6bc3dc"/>
      <path id="Trazado_32758" data-name="Trazado 32758" d="M2212.422,995.527c.5-.335,5.842-2.374,4.694.475s-8.237,9.92-8.562,6.13S2210.238,996.985,2212.422,995.527Z" transform="translate(-2051.989 -920.801)" fill="#efb0ac"/>
      <rect id="Rect치ngulo_2937" data-name="Rect치ngulo 2937" width="6.773" height="12.417" rx="1.313" transform="translate(185.613 54.424)" fill="#262e4c"/>
      <path id="Trazado_32759" data-name="Trazado 32759" d="M2271.964,998.885a3.831,3.831,0,0,0-2.226-4.17,2.237,2.237,0,0,0-2.893,1.035c-2.294,3.31-3.845,8.676-2.771,10.54s4.23,4.267,5.753,1.153C2270.847,1005.357,2271.587,1001.322,2271.964,998.885Z" transform="translate(-2095.666 -920.812)" fill="#efb0ac"/>
      <path id="Trazado_32760" data-name="Trazado 32760" d="M2396.611,860.51v2.649l33.823-15.033Z" transform="translate(-2200.798 -804.991)" fill="#d6edf4"/>
      <path id="Trazado_32761" data-name="Trazado 32761" d="M2396.611,951.737v2.037l38.151,10Z" transform="translate(-2200.798 -886.963)" fill="#d6edf4"/>
      <path id="Trazado_32762" data-name="Trazado 32762" d="M2396.611,928.346v2.787l48.31-2.044Z" transform="translate(-2200.798 -868.457)" fill="#d6edf4"/>
    </g>
    <g id="Grupo_17558" data-name="Grupo 17558" transform="translate(728.885 390.052)">
      <g id="Grupo_17557" data-name="Grupo 17557">
        <path id="Trazado_32763" data-name="Trazado 32763" d="M2498.781,683.816a11.437,11.437,0,1,0,11.8,11.061A11.437,11.437,0,0,0,2498.781,683.816Z" transform="translate(-2484.049 -678.296)" fill="#d79f9c"/>
        <path id="Trazado_32764" data-name="Trazado 32764" d="M2558.2,678.081a1.882,1.882,0,0,0-.972-.323s-.426-1.276-1.137-.761-.147.6-.841,1.906a4.781,4.781,0,0,1-2.321,2.467c-1.069.5-.156,1.13.5,1.645.787.615,1.555.694,1.557-.318,0,0,.423-2.344,1.816-2.974S2558.859,678.443,2558.2,678.081Z" transform="translate(-2535.254 -672.809)" fill="#efb0ac"/>
        <path id="Trazado_32765" data-name="Trazado 32765" d="M2582.048,752.29c-.79-.383-.6.156-2.077.161a4.781,4.781,0,0,1-3.271-.878c-.945-.707-1.07.4-1.212,1.221-.17.984.124,1.7,1.017,1.222,0,0,2.265-.736,3.479.193s2.1,1.206,2.106.452a1.879,1.879,0,0,0-.176-1.01S2582.838,752.673,2582.048,752.29Z" transform="translate(-2553.456 -731.728)" fill="#efb0ac"/>
        <path id="Trazado_32766" data-name="Trazado 32766" d="M2585.894,710.8s.454-1.266-.424-1.3-.488.383-1.838.979a4.783,4.783,0,0,1-3.35.506c-1.148-.27-.822.792-.621,1.6.239.969.794,1.507,1.421.713,0,0,1.781-1.582,3.265-1.216s2.407.264,2.111-.429A1.882,1.882,0,0,0,2585.894,710.8Z" transform="translate(-2556.634 -698.619)" fill="#efb0ac"/>
        <path id="Trazado_32767" data-name="Trazado 32767" d="M2547.22,778.917c.349-1.126-.732-.875-1.557-.733-.984.17-1.559.686-.811,1.368,0,0,1.452,1.888.983,3.343s-.433,2.383.279,2.136a1.88,1.88,0,0,0,.893-.5s1.231.542,1.328-.331-.348-.514-.847-1.9A4.781,4.781,0,0,1,2547.22,778.917Z" transform="translate(-2528.985 -752.859)" fill="#efb0ac"/>
        <path id="Trazado_32768" data-name="Trazado 32768" d="M2502.532,770.011c-.778-.626-1.545-.717-1.562.3,0,0-.457,2.338-1.859,2.947s-2.074,1.25-1.418,1.621a1.883,1.883,0,0,0,.967.337s.407,1.281,1.126.778.156-.6.868-1.893a4.782,4.782,0,0,1,2.357-2.433C2504.087,771.182,2503.184,770.536,2502.532,770.011Z" transform="translate(-2491.744 -746.123)" fill="#efb0ac"/>
        <path id="Trazado_32769" data-name="Trazado 32769" d="M2475.9,731.425s-2.19.937-3.482.12-2.2-1.012-2.138-.261a1.881,1.881,0,0,0,.265.99s-.831,1.057-.01,1.368.585-.209,2.054-.346a4.781,4.781,0,0,1,3.337.58c1,.619,1.03-.491,1.1-1.325C2477.1,731.555,2476.742,730.869,2475.9,731.425Z" transform="translate(-2470.168 -715.483)" fill="#efb0ac"/>
        <path id="Trazado_32770" data-name="Trazado 32770" d="M2512.225,673.112s-1.771-1.592-1.575-3.108-.008-2.422-.663-2.05a1.878,1.878,0,0,0-.786.657s-1.309-.309-1.246.567.436.442,1.179,1.717a4.783,4.783,0,0,1,.877,3.271c-.138,1.171.879.728,1.665.438C2512.613,674.258,2513.085,673.645,2512.225,673.112Z" transform="translate(-2500.062 -665.685)" fill="#efb0ac"/>
        <path id="Trazado_32771" data-name="Trazado 32771" d="M2507.122,747.892c-.468-.174-.722-.032-.569.321,0,0,.372.38-.17.705s-1.208-.121-1.341.7c-.112.684.881,1.8,1.736,1.327.539-.3.236-1,.457-1.228.414-.424,1.407.245,1.339-.228A2.228,2.228,0,0,0,2507.122,747.892Z" transform="translate(-2497.752 -728.936)" fill="#efb0ac"/>
        <path id="Trazado_32772" data-name="Trazado 32772" d="M2524.273,713.685s-.393.467-.823-.115,0-1.391-.949-1.452c-.793-.051-1.955,1.2-1.322,2.127.4.581,1.169.158,1.451.385.53.426-.124,1.632.408,1.5a2.552,2.552,0,0,0,1.664-1.833C2524.849,713.746,2524.659,713.472,2524.273,713.685Z" transform="translate(-2510.382 -700.69)" fill="#efb0ac"/>
        <path id="Trazado_32773" data-name="Trazado 32773" d="M2556.69,715.457c-.7.094-.668.973-1,1.122-.619.281-1.4-.847-1.525-.313a2.552,2.552,0,0,0,.886,2.311c.427.38.758.334.742-.107,0,0-.24-.561.473-.683s1.24.63,1.724-.193C2558.4,716.911,2557.8,715.308,2556.69,715.457Z" transform="translate(-2536.589 -703.326)" fill="#efb0ac"/>
        <path id="Trazado_32774" data-name="Trazado 32774" d="M2541.678,741.42c-.121-.51.848-.934.462-1.107a1.968,1.968,0,0,0-1.88.328c-.35.267-.365.524-.029.577,0,0,.459-.1.447.459s-.66.845-.109,1.333c.458.406,1.76.191,1.811-.669C2542.412,741.8,2541.742,741.692,2541.678,741.42Z" transform="translate(-2525.406 -722.903)" fill="#efb0ac"/>
        <path id="Trazado_32775" data-name="Trazado 32775" d="M2476.76,695.846a6.106,6.106,0,0,1-3.192-2c-1.148-.408-1,.852-1.144.833s-1.049.917.019,1.136a7.827,7.827,0,0,1,4.174,1.821c1.24,1.271,1.772.247,1.988-.538S2478.656,696.217,2476.76,695.846Z" transform="translate(-2471.562 -686.169)" fill="#d79f9c"/>
        <path id="Trazado_32776" data-name="Trazado 32776" d="M2540.835,657.663c-.029-.137-1.219-.673-1.062.405a7.829,7.829,0,0,1-.288,4.545c-.772,1.6.372,1.75,1.183,1.685s.843-.251.545-2.161a6.108,6.108,0,0,1,.794-3.684C2542,657.236,2540.865,657.8,2540.835,657.663Z" transform="translate(-2524.806 -657.408)" fill="#d79f9c"/>
        <path id="Trazado_32777" data-name="Trazado 32777" d="M2583.706,685.919c.084-.112-.3-1.361-1-.532a7.829,7.829,0,0,1-3.61,2.776c-1.712.472-1.072,1.433-.489,2s.744.469,1.985-1.013a6.109,6.109,0,0,1,3.3-1.829C2584.794,686.514,2583.622,686.031,2583.706,685.919Z" transform="translate(-2555.468 -679.32)" fill="#d79f9c"/>
        <path id="Trazado_32778" data-name="Trazado 32778" d="M2596.516,732.2a7.827,7.827,0,0,1-4.531.459c-1.7-.5-1.666.654-1.469,1.443s.386.791,2.22.184a6.111,6.111,0,0,1,3.765.181c1.2-.207.458-1.235.588-1.286S2597.554,731.863,2596.516,732.2Z" transform="translate(-2565.307 -716.532)" fill="#d79f9c"/>
        <path id="Trazado_32779" data-name="Trazado 32779" d="M2575.148,778.113a7.828,7.828,0,0,1-3.366-3.067c-.766-1.6-1.6-.8-2.055-.13s-.331.815,1.346,1.776a6.108,6.108,0,0,1,2.378,2.924c.955.755,1.225-.484,1.35-.421S2576.089,778.664,2575.148,778.113Z" transform="translate(-2548.754 -749.737)" fill="#d79f9c"/>
        <path id="Trazado_32780" data-name="Trazado 32780" d="M2520.247,784.261c-.731-.142-.8.03-1,1.953a6.35,6.35,0,0,1-1.579,3.364c-.283,1.181.852.921.845,1.061s.914.959,1.032-.124a8.409,8.409,0,0,1,1.339-4.324C2521.949,784.839,2520.977,784.4,2520.247,784.261Z" transform="translate(-2507.715 -757.738)" fill="#d79f9c"/>
        <path id="Trazado_32781" data-name="Trazado 32781" d="M2477.737,759.942a6.349,6.349,0,0,1-3.153,1.966c-.879.837.214,1.236.132,1.35s.246,1.3.934.457a8.4,8.4,0,0,1,3.473-2.9c1.626-.558,1.046-1.452.51-1.968S2478.943,758.433,2477.737,759.942Z" transform="translate(-2473.39 -737.438)" fill="#d79f9c"/>
      </g>
    </g>
    <circle id="Elipse_1022" data-name="Elipse 1022" cx="4.35" cy="4.35" r="4.35" transform="translate(731.684 474.807)" fill="#e6e6e6"/>
    <circle id="Elipse_1023" data-name="Elipse 1023" cx="4.35" cy="4.35" r="4.35" transform="translate(684.428 409.809) rotate(-45)" fill="#e6e6e6"/>
    <g id="Grupo_17565" data-name="Grupo 17565" transform="translate(404.995 372.175)">
      <path id="Trazado_32784" data-name="Trazado 32784" d="M1414.937,952.463a7.949,7.949,0,0,1-6.964,6.763c-6.34.9-23.989-5.849-31.3-12.594s-2.585-34.056-2.585-34.056S1415.613,940.59,1414.937,952.463Z" transform="translate(-1277.92 -841.408)" fill="#d79f9c"/>
      <path id="Trazado_32785" data-name="Trazado 32785" d="M1352.205,874.114c3.987.87,9.284,3.058,11.349,6.578,4.3,7.334,14.462,18.558,20.4,36.114-.392,4.033-6.816,12.441-13.2,13.8C1364.846,931.871,1327.851,868.8,1352.205,874.114Z" transform="translate(-1255.303 -810.727)" fill="#6bc3dc"/>
      <path id="Trazado_32786" data-name="Trazado 32786" d="M921.777,968.565a7.972,7.972,0,0,0,7.112,6.646c6.374.784,23.938-6.328,31.141-13.233s1.932-34.195,1.932-34.195S920.869,956.674,921.777,968.565Z" transform="translate(-921.255 -853.439)" fill="#d79f9c"/>
      <g id="Grupo_17559" data-name="Grupo 17559" transform="translate(57.003 217.408)">
        <path id="Trazado_32787" data-name="Trazado 32787" d="M1199.51,1661.086h34.383c-.774-16.048-1.139-26.227-1.139-26.227s-41.145-35.57-40.477-16.372C1192.558,1626.548,1195.411,1642.128,1199.51,1661.086Z" transform="translate(-1192.27 -1612.8)" fill="#efb0ac"/>
      </g>
      <g id="Grupo_17560" data-name="Grupo 17560" transform="translate(28.498 212.633)">
        <path id="Trazado_32788" data-name="Trazado 32788" d="M1091.327,1642.994c1.514-15.94,2.6-26.028,2.6-26.028s-35.661-41.066-37.734-21.969c-.941,8.674-.156,26.479,1.44,48Z" transform="translate(-1055.786 -1589.933)" fill="#efb0ac"/>
      </g>
      <g id="Grupo_17561" data-name="Grupo 17561" transform="translate(26.135 171.435)">
        <path id="Trazado_32789" data-name="Trazado 32789" d="M1082.963,1486.93c.3-44.035.7-85.561.7-85.561s-28.847-16.548-37.395-3.994c0,0-2.1,42.535-1.756,89.555Z" transform="translate(-1044.471 -1392.672)" fill="#00657a"/>
      </g>
      <g id="Grupo_17562" data-name="Grupo 17562" transform="translate(59.509 171.802)">
        <path id="Trazado_32790" data-name="Trazado 32790" d="M1250.315,1488.321c-1.788-45.473-3.245-88.416-3.245-88.416s-35.02-12.606-42.8.436c0,0,2.3,41.619,6.456,87.98Z" transform="translate(-1204.268 -1394.429)" fill="#006d84"/>
      </g>
      <path id="Trazado_32791" data-name="Trazado 32791" d="M1097,574.158c-31.942-9.4-41.572,10.952-43.976,34.352-.99,9.63-18.994,11.365-10.03,19.3s23.429,8.518,35.8,8.329a175.217,175.217,0,0,0,20.4-4.4c4.1-1.113,10.171-2.98,11.362-6.88C1123.584,582.213,1097,574.158,1097,574.158Z" transform="translate(-1015.197 -571.812)" fill="#1f253c"/>
      <path id="Trazado_32792" data-name="Trazado 32792" d="M1005.6,891.1a14.7,14.7,0,0,0-9.261,7.245c-4.16,7.416-14.1,18.834-19.7,36.5.469,4.025,7.055,12.307,13.463,13.548C996.033,949.541,1029.846,885.315,1005.6,891.1Z" transform="translate(-964.673 -824.126)" fill="#64b4ca"/>
      <g id="Grupo_17563" data-name="Grupo 17563" transform="translate(48.169 13.585)">
        <path id="Trazado_32793" data-name="Trazado 32793" d="M1199.512,687.6c-2.167-2.623-11.13-5.175-12.229-11.43-2.579-14.679.276-33,.276-33s-19.925-11.6-18.283-3.358c1.223,6.141-2.084,24.1-3.851,32.859a13.424,13.424,0,0,1-4.39,7.57c-4.265,3.653-18.715,7.737-5.842,14.039C1163.014,698.118,1206.765,696.383,1199.512,687.6Z" transform="translate(-1149.97 -636.861)" fill="#d79f9c"/>
      </g>
      <g id="Grupo_17564" data-name="Grupo 17564" transform="translate(48.8 5.81)">
        <path id="Trazado_32794" data-name="Trazado 32794" d="M1178.474,600.734c-12.741-4.379-23.666,4.834-25.405,18.193-.835,6.421,5.2,25.079,13.872,27.412,15.2,4.086,26.722-15.323,22.294-33.519A16.252,16.252,0,0,0,1178.474,600.734Z" transform="translate(-1152.992 -599.633)" fill="#efb0ac"/>
      </g>
      <path id="Trazado_32795" data-name="Trazado 32795" d="M1105.833,857.763c-23.385,18.305-37.7.206-37.7.206s-14.251,2.823-21.316,12.939c-6.395,9.155-1.21,25.091-1.807,31.361-1.257,13.2-9.869,97.1-3.139,96.353,19.4,11.836,76.55,5.358,78.3,4.415,3.3-11.339,7.428-123.882,3.212-132.052S1105.833,857.763,1105.833,857.763Z" transform="translate(-1014.263 -798.043)" fill="#6bc3dc"/>
      <path id="Trazado_32796" data-name="Trazado 32796" d="M1193.371,727.411c-14.311,8.054-30.747-.24-30.747-.24-.5,14.425,7.566,21.552,17.327,21.359,12.1-.24,18.4-14.278,17.883-16.68C1191.433,734.825,1192.6,728.893,1193.371,727.411Z" transform="translate(-1111.795 -694.725)" fill="#d6edf4"/>
      <path id="Trazado_32797" data-name="Trazado 32797" d="M1154.993,575.659s-26.956,10.186-10,41.316c-3.112-13.071,8.224-25.553,8.224-25.553s8.09,13.612,21.793,15.036c4.45,10.191,20.008,22.4,16.064,2.432C1182.2,563.974,1154.993,575.659,1154.993,575.659Z" transform="translate(-1093.433 -573.773)" fill="#1f253c"/>
      <path id="Trazado_32798" data-name="Trazado 32798" d="M1150.567,730.251s-4.59-3.358-6.1,1.264c-.985,3.019,1.1,10.078,8.247,11.956-.882.1-.592-1.024-.592-1.024s-7.664-3.4-6.691-9.314C1145.443,729.18,1147.643,729.068,1150.567,730.251Z" transform="translate(-1097.267 -696.229)" fill="#d6edf4"/>
      <path id="Trazado_32799" data-name="Trazado 32799" d="M963.52,737.889s-5,3.976-12.385,11.214-30.5,50.558-31.63,60.528,3.51,13.528,6.252,13.84,11.682-7.255,13.738-9.8,18.464-57.987,19.8-58.593,2.527-2.237,5.246-3.948S976.335,731.773,963.52,737.889Z" transform="translate(-919.331 -702.19)" fill="#efb0ac"/>
      <path id="Trazado_32800" data-name="Trazado 32800" d="M1299.9,723.17c.138-.372,2.161-4.443,6.4-3.544s6.47,5.243-2.252,10.715c.117.255.165-1.124.165-1.124s5-3.091,4.765-5.358-3.983-6.412-8.265-.536C1300.069,723.74,1299.9,723.17,1299.9,723.17Z" transform="translate(-1220.42 -688.653)" fill="#d6edf4"/>
      <path id="Trazado_32801" data-name="Trazado 32801" d="M1334.365,723.323s5.073,3.879,12.6,10.973,31.465,49.96,32.792,59.906-3.248,13.593-5.983,13.958-11.82-7.028-13.925-9.531-19.58-57.62-20.923-58.2-2.57-2.188-5.321-3.846S1321.435,717.456,1334.365,723.323Z" transform="translate(-1242.423 -690.731)" fill="#efb0ac"/>
    </g>
    <g id="Grupo_17566" data-name="Grupo 17566" transform="translate(299.328 356.27)" opacity="0.52">
      <path id="Trazado_32802" data-name="Trazado 32802" d="M467.723,499.644c-6.576-5.35-48.565-6.539-51.853,4.161s-4.047,21.4,2.276,25.266,49.071-1.189,49.071-1.189,3.541-.595,7.841,8.323C475.058,536.205,474.3,504.995,467.723,499.644Z" transform="translate(-413.381 -495.653)" fill="#efb0ac"/>
      <path id="Trazado_32803" data-name="Trazado 32803" d="M496.3,548.408a32.588,32.588,0,0,0-8.321-6.856l-3.34,3.106s8.285,5.625,11.835,10.313c-.116.82,8.315-11.251,17.4-17.931-.879-.82-3.691-2.7-3.691-2.7S498.3,544.6,496.3,548.408Z" transform="translate(-469.76 -526.264)" fill="#fff"/>
    </g>
    <g id="Grupo_17568" data-name="Grupo 17568" transform="translate(482.157 319.475)" opacity="0.44">
      <path id="Trazado_32804" data-name="Trazado 32804" d="M1296.909,323.948c7.275-6,53.729-7.33,57.366,4.664s4.477,23.988-2.518,28.319-54.288-1.333-54.288-1.333-3.918-.666-8.675,9.329C1288.794,364.928,1289.633,329.945,1296.909,323.948Z" transform="translate(-1288.794 -319.475)" fill="#6bc3dc"/>
      <g id="Grupo_17567" data-name="Grupo 17567" transform="translate(23.168 5.566)">
        <path id="Trazado_32805" data-name="Trazado 32805" d="M1426.4,352.5c-8.715-1.323-13.044-6.378-13.044-6.378l0,0,0,0s-4.329,5.055-13.044,6.378c-1.173,4.716-2.025,17.9,13.037,22.133,0,0,.007,0,.01,0l.011,0v-.006C1428.422,370.406,1427.57,357.22,1426.4,352.5Zm-13.039,19.759v.005l-.009,0s-.009,0-.009,0c-12.454-3.5-11.749-14.4-10.779-18.3a18.452,18.452,0,0,0,10.785-5.273l0,0,0,0a18.451,18.451,0,0,0,10.784,5.273C1425.106,357.862,1425.811,368.765,1413.357,372.263Z" transform="translate(-1399.724 -346.126)" fill="#fff"/>
        <path id="Trazado_32806" data-name="Trazado 32806" d="M1440.984,387.905h-3.176v4.28h-5.16v2.634h5.16v4.28h3.176v-4.28h5.16v-2.634h-5.16Z" transform="translate(-1425.773 -379.18)" fill="#fff"/>
      </g>
    </g>
    <g id="Grupo_17570" data-name="Grupo 17570" transform="translate(615.192 333.646)" opacity="0.39">
      <path id="Trazado_32807" data-name="Trazado 32807" d="M1933.532,391.9c6.945-6.12,51.284-7.48,54.757,4.76s4.273,24.481-2.4,28.9-51.818-1.36-51.818-1.36-3.74-.68-8.28,9.52C1925.786,433.717,1926.587,398.016,1933.532,391.9Z" transform="translate(-1925.786 -387.33)" fill="#006d84"/>
      <g id="Grupo_17569" data-name="Grupo 17569" transform="translate(18.65 8.743)">
        <path id="Trazado_32808" data-name="Trazado 32808" d="M2120.972,500.085l-10.9-4.825a1.361,1.361,0,0,0-1.694.866h0a1.361,1.361,0,0,0,.5,1.837l10.9,4.825a1.361,1.361,0,0,0,1.695-.866h0A1.36,1.36,0,0,0,2120.972,500.085Z" transform="translate(-2088.777 -481.396)" fill="#fff"/>
        <path id="Trazado_32809" data-name="Trazado 32809" d="M2029.487,430.074a10.246,10.246,0,1,0,5.409,5.677A10.174,10.174,0,0,0,2029.487,430.074Zm2.5,12.311a7.267,7.267,0,1,1,.135-5.561A7.276,7.276,0,0,1,2031.983,442.384Z" transform="translate(-2015.087 -429.194)" fill="#fff"/>
        <path id="Trazado_32810" data-name="Trazado 32810" d="M2105.833,487.131a.633.633,0,0,0-.835.322l-1.638,3.7a.633.633,0,0,0,1.157.513l1.638-3.7A.632.632,0,0,0,2105.833,487.131Z" transform="translate(-2084.882 -474.988)" fill="#fff"/>
      </g>
    </g>
  </g>
</svg>
