<svg xmlns="http://www.w3.org/2000/svg" xmlns:xlink="http://www.w3.org/1999/xlink" width="460.652" height="299.964" viewBox="0 0 460.652 299.964">
  <defs>
    <clipPath id="clip-path">
      <path id="Trazado_31972" data-name="Trazado 31972" d="M964.948,1520.633H849.485V1364.845l159.965-2.459Z" transform="translate(-849.485 -1362.387)" fill="none"/>
    </clipPath>
    <clipPath id="clip-path-2">
      <path id="Trazado_32040" data-name="Trazado 32040" d="M3079.344,1358.049H3198.4V1185.928H3001.59Z" transform="translate(-3001.59 -1185.928)" fill="none"/>
    </clipPath>
  </defs>
  <g id="Grupo_17309" data-name="Grupo 17309" transform="translate(-70.656 -255.419)">
    <g id="Grupo_17145" data-name="Grupo 17145" transform="translate(70.656 255.419)">
      <path id="Trazado_31936" data-name="Trazado 31936" d="M531.305,405.945c.119,17.859-4.134,35.069-9.717,51.394-4.824,14.1-10.055,28.665-17.036,41.641-7.682,14.279-17.475,24.846-28.584,34.98-9.694,8.843-20.188,16.333-31.57,21.422H135.343c-24.253-25.2-43.58-57.477-55.015-93.818-.1-.328-.206-.657-.308-.985-8.045-25.942-12.268-54.535-7.094-81.55,5.58-29.137,22.121-54.456,43.351-69.334a93.373,93.373,0,0,1,70.977-15.109c11.99,2.228,23.848,6.632,35.967,6.042,34.821-1.7,61.823-43.362,96.642-45.149,37.883-1.942,66.7,43.164,103.825,52.565,17.182,4.35,35.274.754,52.334,5.76C508.66,323.379,531.032,364.9,531.305,405.945Z" transform="translate(-70.656 -255.419)" fill="#8bd7f1"/>
    </g>
    <g id="Grupo_17147" data-name="Grupo 17147" transform="translate(70.906 255.419)" opacity="0.15">
      <g id="Grupo_17146" data-name="Grupo 17146" transform="translate(0)">
        <path id="Trazado_31937" data-name="Trazado 31937" d="M534.242,378.506c-.273-33.564-22.645-67.515-55.284-75.344-17.06-4.094-35.152-1.153-52.334-4.71C389.5,290.765,360.683,253.88,322.8,255.469c-34.819,1.461-61.821,35.532-96.642,36.919-12.119.482-23.977-3.119-35.967-4.941-24.193-3.674-49.744.186-70.977,12.355s-37.771,32.87-43.351,56.7a86.051,86.051,0,0,0-2.02,13.371,93.352,93.352,0,0,1,35.627-36.406c21.233-12.169,46.784-16.029,70.977-12.355,11.99,1.822,23.848,5.423,35.967,4.941,34.821-1.387,61.823-35.458,96.642-36.919,37.883-1.588,66.7,35.3,103.825,42.983,17.182,3.557,35.273.616,52.334,4.71,32.639,7.829,55.01,41.78,55.284,75.344a77.847,77.847,0,0,1-.544,9.725l.571-1.361C530.108,407.182,534.361,393.11,534.242,378.506Z" transform="translate(-73.843 -255.419)" fill="#009cd5"/>
      </g>
    </g>
    <g id="Grupo_17197" data-name="Grupo 17197" transform="translate(179.532 282.666)">
      <g id="Grupo_17149" data-name="Grupo 17149" transform="translate(1.149 5.773)" opacity="0.2">
        <g id="Grupo_17148" data-name="Grupo 17148">
          <rect id="Rectángulo_2867" data-name="Rectángulo 2867" width="255.78" height="155.985" fill="#009cd5"/>
        </g>
      </g>
      <g id="Grupo_17151" data-name="Grupo 17151" transform="translate(0 0)">
        <g id="Grupo_17150" data-name="Grupo 17150">
          <rect id="Rectángulo_2868" data-name="Rectángulo 2868" width="248.218" height="155.985" fill="#fefefe"/>
        </g>
        <path id="Trazado_31938" data-name="Trazado 31938" d="M1792.639,601.95V757.935H1552.02c79.976-19.6,197.966-123.1,233.954-155.985Z" transform="translate(-1544.421 -601.95)" fill="#8bd7f1" opacity="0.15"/>
      </g>
      <g id="Grupo_17152" data-name="Grupo 17152" transform="translate(0 0)">
        <rect id="Rectángulo_2869" data-name="Rectángulo 2869" width="248.218" height="13.182" fill="#009cd5"/>
      </g>
      <g id="Grupo_17153" data-name="Grupo 17153" transform="translate(12.48 3.849)">
        <circle id="Elipse_1001" data-name="Elipse 1001" cx="2.904" cy="2.904" r="2.904" transform="translate(0 5.734) rotate(-80.783)" fill="#fff"/>
      </g>
      <g id="Grupo_17154" data-name="Grupo 17154" transform="translate(23.703 3.849)">
        <circle id="Elipse_1002" data-name="Elipse 1002" cx="2.904" cy="2.904" r="2.904" transform="translate(0 5.734) rotate(-80.783)" fill="#fd3540"/>
      </g>
      <g id="Grupo_17155" data-name="Grupo 17155" transform="translate(34.926 3.849)">
        <circle id="Elipse_1003" data-name="Elipse 1003" cx="2.904" cy="2.904" r="2.904" transform="translate(0 5.734) rotate(-80.783)" fill="#00488b"/>
      </g>
      <g id="Grupo_17156" data-name="Grupo 17156" transform="translate(50.052 37.406)">
        <path id="Trazado_31939" data-name="Trazado 31939" d="M2113.021,1124.335h32.268v-46.651h-53.342Z" transform="translate(-2091.947 -1077.684)" fill="none"/>
      </g>
      <g id="Grupo_17157" data-name="Grupo 17157" transform="translate(46.906 26.533)">
        <rect id="Rectángulo_2870" data-name="Rectángulo 2870" width="5.939" height="5.939" fill="#009cd5"/>
      </g>
      <g id="Grupo_17158" data-name="Grupo 17158" transform="translate(15.144 26.533)">
        <rect id="Rectángulo_2871" data-name="Rectángulo 2871" width="5.939" height="5.939" fill="#8bd7f1"/>
      </g>
      <g id="Grupo_17159" data-name="Grupo 17159" transform="translate(78.756 26.533)">
        <rect id="Rectángulo_2872" data-name="Rectángulo 2872" width="5.939" height="5.939" fill="#009cd5"/>
      </g>
      <g id="Grupo_17160" data-name="Grupo 17160" transform="translate(110.606 26.533)">
        <rect id="Rectángulo_2873" data-name="Rectángulo 2873" width="5.939" height="5.939" fill="#009cd5"/>
      </g>
      <g id="Grupo_17161" data-name="Grupo 17161" transform="translate(142.456 26.533)">
        <rect id="Rectángulo_2874" data-name="Rectángulo 2874" width="5.939" height="5.939" fill="#009cd5"/>
      </g>
      <g id="Grupo_17162" data-name="Grupo 17162" transform="translate(174.305 26.533)">
        <rect id="Rectángulo_2875" data-name="Rectángulo 2875" width="5.939" height="5.939" fill="#009cd5"/>
      </g>
      <g id="Grupo_17163" data-name="Grupo 17163" transform="translate(206.155 26.533)">
        <rect id="Rectángulo_2876" data-name="Rectángulo 2876" width="5.939" height="5.939" fill="#009cd5"/>
      </g>
      <g id="Grupo_17164" data-name="Grupo 17164" transform="translate(46.906 56.822)">
        <rect id="Rectángulo_2877" data-name="Rectángulo 2877" width="5.939" height="5.939" fill="#009cd5"/>
      </g>
      <g id="Grupo_17165" data-name="Grupo 17165" transform="translate(15.144 56.822)">
        <rect id="Rectángulo_2878" data-name="Rectángulo 2878" width="5.939" height="5.939" fill="#009cd5"/>
      </g>
      <g id="Grupo_17166" data-name="Grupo 17166" transform="translate(78.756 56.822)">
        <rect id="Rectángulo_2879" data-name="Rectángulo 2879" width="5.939" height="5.939" fill="#fd3540"/>
      </g>
      <g id="Grupo_17167" data-name="Grupo 17167" transform="translate(110.606 56.822)">
        <rect id="Rectángulo_2880" data-name="Rectángulo 2880" width="5.939" height="5.939" fill="#fd3540"/>
      </g>
      <g id="Grupo_17168" data-name="Grupo 17168" transform="translate(142.456 56.822)">
        <rect id="Rectángulo_2881" data-name="Rectángulo 2881" width="5.939" height="5.939" fill="#fd3540"/>
      </g>
      <g id="Grupo_17169" data-name="Grupo 17169" transform="translate(174.305 56.822)">
        <rect id="Rectángulo_2882" data-name="Rectángulo 2882" width="5.939" height="5.939" fill="#fd3540"/>
      </g>
      <g id="Grupo_17170" data-name="Grupo 17170" transform="translate(206.155 56.822)">
        <rect id="Rectángulo_2883" data-name="Rectángulo 2883" width="5.939" height="5.939" fill="#009cd5"/>
      </g>
      <g id="Grupo_17171" data-name="Grupo 17171" transform="translate(46.906 87.11)">
        <rect id="Rectángulo_2884" data-name="Rectángulo 2884" width="5.939" height="5.939" fill="#009cd5"/>
      </g>
      <g id="Grupo_17172" data-name="Grupo 17172" transform="translate(15.144 87.11)">
        <rect id="Rectángulo_2885" data-name="Rectángulo 2885" width="5.939" height="5.939" fill="#009cd5"/>
      </g>
      <g id="Grupo_17173" data-name="Grupo 17173" transform="translate(78.756 87.11)">
        <rect id="Rectángulo_2886" data-name="Rectángulo 2886" width="5.939" height="5.939" fill="#009cd5"/>
      </g>
      <g id="Grupo_17174" data-name="Grupo 17174" transform="translate(110.606 87.11)">
        <rect id="Rectángulo_2887" data-name="Rectángulo 2887" width="5.939" height="5.939" fill="#009cd5"/>
      </g>
      <g id="Grupo_17175" data-name="Grupo 17175" transform="translate(142.456 87.11)">
        <rect id="Rectángulo_2888" data-name="Rectángulo 2888" width="5.939" height="5.939" fill="#009cd5"/>
      </g>
      <g id="Grupo_17176" data-name="Grupo 17176" transform="translate(174.305 87.11)">
        <rect id="Rectángulo_2889" data-name="Rectángulo 2889" width="5.939" height="5.939" fill="#009cd5"/>
      </g>
      <g id="Grupo_17177" data-name="Grupo 17177" transform="translate(206.155 87.11)">
        <rect id="Rectángulo_2890" data-name="Rectángulo 2890" width="5.939" height="5.939" fill="#009cd5"/>
      </g>
      <g id="Grupo_17178" data-name="Grupo 17178" transform="translate(46.906 117.398)">
        <rect id="Rectángulo_2891" data-name="Rectángulo 2891" width="5.939" height="5.939" fill="#009cd5"/>
      </g>
      <g id="Grupo_17179" data-name="Grupo 17179" transform="translate(15.144 117.398)">
        <rect id="Rectángulo_2892" data-name="Rectángulo 2892" width="5.939" height="5.939" fill="#009cd5"/>
      </g>
      <g id="Grupo_17180" data-name="Grupo 17180" transform="translate(78.756 117.398)">
        <rect id="Rectángulo_2893" data-name="Rectángulo 2893" width="5.939" height="5.939" fill="#009cd5"/>
      </g>
      <g id="Grupo_17181" data-name="Grupo 17181" transform="translate(110.606 117.398)">
        <rect id="Rectángulo_2894" data-name="Rectángulo 2894" width="5.939" height="5.939" fill="#009cd5"/>
      </g>
      <g id="Grupo_17182" data-name="Grupo 17182" transform="translate(142.456 117.398)">
        <rect id="Rectángulo_2895" data-name="Rectángulo 2895" width="5.939" height="5.939" fill="#009cd5"/>
      </g>
      <g id="Grupo_17183" data-name="Grupo 17183" transform="translate(174.305 117.398)">
        <rect id="Rectángulo_2896" data-name="Rectángulo 2896" width="5.939" height="5.939" fill="#009cd5"/>
      </g>
      <g id="Grupo_17184" data-name="Grupo 17184" transform="translate(206.155 117.398)">
        <rect id="Rectángulo_2897" data-name="Rectángulo 2897" width="5.939" height="5.939" fill="#009cd5"/>
      </g>
      <g id="Grupo_17185" data-name="Grupo 17185" transform="translate(76.118 54.281)" opacity="0.2">
        <rect id="Rectángulo_2898" data-name="Rectángulo 2898" width="126.487" height="30.145" fill="#fd3540"/>
      </g>
      <g id="Grupo_17196" data-name="Grupo 17196" transform="translate(12.687 23.85)">
        <g id="Grupo_17186" data-name="Grupo 17186">
          <path id="Trazado_31940" data-name="Trazado 31940" d="M1838.267,1026.431H1616.952a.22.22,0,0,1-.22-.22V905.5a.22.22,0,0,1,.22-.22h221.315a.22.22,0,0,1,.22.22v120.713A.22.22,0,0,1,1838.267,1026.431Zm-221.095-.44h220.875V905.718H1617.172Z" transform="translate(-1616.732 -905.278)" fill="#009cd5"/>
        </g>
        <g id="Grupo_17187" data-name="Grupo 17187" transform="translate(0 90.535)">
          <path id="Trazado_31941" data-name="Trazado 31941" d="M1838.267,2057.161H1616.952a.22.22,0,0,1,0-.44h221.315a.22.22,0,0,1,0,.44Z" transform="translate(-1616.732 -2056.721)" fill="#009cd5"/>
        </g>
        <g id="Grupo_17188" data-name="Grupo 17188" transform="translate(0 60.357)">
          <path id="Trazado_31942" data-name="Trazado 31942" d="M1838.267,1673.347H1616.952a.22.22,0,0,1,0-.44h221.315a.22.22,0,0,1,0,.44Z" transform="translate(-1616.732 -1672.907)" fill="#009cd5"/>
        </g>
        <g id="Grupo_17189" data-name="Grupo 17189" transform="translate(0 30.178)">
          <path id="Trazado_31943" data-name="Trazado 31943" d="M1838.267,1289.533H1616.952a.22.22,0,0,1,0-.44h221.315a.22.22,0,0,1,0,.44Z" transform="translate(-1616.732 -1289.093)" fill="#009cd5"/>
        </g>
        <g id="Grupo_17190" data-name="Grupo 17190" transform="translate(189.698)">
          <path id="Trazado_31944" data-name="Trazado 31944" d="M4029.579,1026.431a.22.22,0,0,1-.22-.22V905.5a.22.22,0,1,1,.44,0v120.713A.22.22,0,0,1,4029.579,1026.431Z" transform="translate(-4029.359 -905.278)" fill="#009cd5"/>
        </g>
        <g id="Grupo_17191" data-name="Grupo 17191" transform="translate(158.082)">
          <path id="Trazado_31945" data-name="Trazado 31945" d="M3627.475,1026.431a.22.22,0,0,1-.22-.22V905.5a.22.22,0,1,1,.44,0v120.713A.22.22,0,0,1,3627.475,1026.431Z" transform="translate(-3627.255 -905.278)" fill="#009cd5"/>
        </g>
        <g id="Grupo_17192" data-name="Grupo 17192" transform="translate(126.465)">
          <path id="Trazado_31946" data-name="Trazado 31946" d="M3225.37,1026.431a.22.22,0,0,1-.22-.22V905.5a.22.22,0,1,1,.44,0v120.713A.22.22,0,0,1,3225.37,1026.431Z" transform="translate(-3225.15 -905.278)" fill="#009cd5"/>
        </g>
        <g id="Grupo_17193" data-name="Grupo 17193" transform="translate(94.849)">
          <path id="Trazado_31947" data-name="Trazado 31947" d="M2823.266,1026.431a.22.22,0,0,1-.22-.22V905.5a.22.22,0,1,1,.44,0v120.713A.22.22,0,0,1,2823.266,1026.431Z" transform="translate(-2823.046 -905.278)" fill="#009cd5"/>
        </g>
        <g id="Grupo_17194" data-name="Grupo 17194" transform="translate(63.233)">
          <path id="Trazado_31948" data-name="Trazado 31948" d="M2421.161,1026.431a.22.22,0,0,1-.22-.22V905.5a.22.22,0,1,1,.44,0v120.713A.22.22,0,0,1,2421.161,1026.431Z" transform="translate(-2420.941 -905.278)" fill="#009cd5"/>
        </g>
        <g id="Grupo_17195" data-name="Grupo 17195" transform="translate(31.616)">
          <path id="Trazado_31949" data-name="Trazado 31949" d="M2019.057,1026.431a.22.22,0,0,1-.22-.22V905.5a.22.22,0,1,1,.44,0v120.713A.22.22,0,0,1,2019.057,1026.431Z" transform="translate(-2018.837 -905.278)" fill="#009cd5"/>
        </g>
      </g>
    </g>
    <g id="Grupo_17227" data-name="Grupo 17227" transform="translate(131.893 397.136)">
      <g id="Grupo_17226" data-name="Grupo 17226" clip-path="url(#clip-path)">
        <g id="Grupo_17225" data-name="Grupo 17225" transform="translate(6.306 15.682)">
          <g id="Grupo_17198" data-name="Grupo 17198" transform="translate(2.374 272.079)" opacity="0.2">
            <ellipse id="Elipse_1004" data-name="Elipse 1004" cx="54.067" cy="4.797" rx="54.067" ry="4.797" fill="#312783"/>
          </g>
          <g id="Grupo_17199" data-name="Grupo 17199" transform="translate(55.368 247.321)">
            <path id="Trazado_31950" data-name="Trazado 31950" d="M1634.414,4737.09c2.039,1.466,37.927,1.576,36.913-1.476s-18.24-7.7-20.159-10.985c-.563-.966.106-2.98.292-3.962.358-1.894.771-3.78,1.222-5.66.472-1.961.987-3.916,1.529-5.865q.23-.822.466-1.644l-15.565-.179c-.169.659-.323,1.268-.466,1.823-.4,1.57-.692,2.7-.836,3.261-.167.651-.385,1.543-.635,2.6C1635.559,4721.878,1632.649,4735.812,1634.414,4737.09Z" transform="translate(-1633.864 -4707.319)" fill="#ffc0b0"/>
          </g>
          <g id="Grupo_17200" data-name="Grupo 17200" transform="translate(28.447 246.979)">
            <path id="Trazado_31951" data-name="Trazado 31951" d="M1291.622,4733.02a2.039,2.039,0,0,0,.258.848c.508.772,2.655.5,3.463.527,1.325.047,2.652.055,3.978.039,2.656-.033,5.308-.169,7.959-.305a4.914,4.914,0,0,0,1.832-.33,3.661,3.661,0,0,0,1.815-3.045c.316-3.143-.539-6.315-.686-9.443-.059-1.172-.111-5.06-.155-10.31-.014-1.81-.028-3.784-.04-5.865,0-.649-.007-1.311-.011-1.979l-16.043-.185q-.014,1.1-.03,2.165-.044,2.933-.1,5.865-.032,1.6-.08,3.191a49.528,49.528,0,0,1-1.255,9.385C1291.841,4726.667,1291.188,4729.846,1291.622,4733.02Z" transform="translate(-1291.482 -4702.971)" fill="#ffc0b0"/>
          </g>
          <g id="Grupo_17201" data-name="Grupo 17201" transform="translate(26.886 125.755)">
            <path id="Trazado_31952" data-name="Trazado 31952" d="M1271.68,3178.926c.371-4.808,1.1-12.49,1.6-17.716h48.657c1.188,5.761,2.452,11.493,3.536,17.148,2.7,14.074,5.554,28.114,8.4,42.16a44.476,44.476,0,0,1,1.3,11.425c-.389,6.52-2.991,13.154-4.819,19.4-1.628,5.564-3.3,11.117-4.95,16.673-1.634,5.493-3.409,11.015-4.96,16.583h-15.565c3.075-12.022,12.6-49.816,11.3-55.127-1.468-6-19.133-43.418-19.133-43.418s-5.026,51.4-5.262,57.055c-.144,3.74-.135,25.691-.045,41.49h-16.084c.275-18.957.241-49.469.241-52.695C1275.909,3227.231,1271.073,3186.777,1271.68,3178.926Z" transform="translate(-1271.627 -3161.21)" fill="#0a1237"/>
          </g>
          <g id="Grupo_17204" data-name="Grupo 17204" transform="translate(43.75 125.755)">
            <g id="Grupo_17202" data-name="Grupo 17202" transform="translate(28.77)">
              <path id="Trazado_31953" data-name="Trazado 31953" d="M1861.91,3251.343c1.827-6.245,4.429-12.88,4.819-19.4a44.481,44.481,0,0,0-1.3-11.425c-2.851-14.046-5.708-28.086-8.4-42.16-1.083-5.655-2.347-11.387-3.536-17.148h3.2c1.188,5.761,2.452,11.493,3.536,17.148,2.7,14.074,5.554,28.114,8.4,42.16a44.476,44.476,0,0,1,1.3,11.425c-.389,6.52-2.991,13.154-4.819,19.4-1.628,5.564-3.3,11.117-4.949,16.673-1.634,5.493-3.409,11.015-4.96,16.583H1852c1.551-5.568,3.326-11.09,4.96-16.583C1858.613,3262.46,1860.283,3256.907,1861.91,3251.343Z" transform="translate(-1852.001 -3161.21)" fill="#020711"/>
            </g>
            <g id="Grupo_17203" data-name="Grupo 17203" transform="translate(0 21.682)">
              <path id="Trazado_31954" data-name="Trazado 31954" d="M1491.47,3440.128s4.752-10.033,2.647,5.646c-1.311,13.509-4.525,46.909-4.713,51.409-.143,3.741-.135,25.691-.045,41.49h-3.2c-.09-15.8-.1-37.749.045-41.49C1486.444,3491.523,1491.47,3440.128,1491.47,3440.128Z" transform="translate(-1486.098 -3436.966)" fill="#020711"/>
            </g>
          </g>
          <g id="Grupo_17205" data-name="Grupo 17205" transform="translate(102.089 1.789)">
            <path id="Trazado_31955" data-name="Trazado 31955" d="M2228.067,1617.8l4.154,1.363,7.086,6.023c3.554-5.513,7.308-10.91,10.126-16.854.744-1.568,1.325-3.2,2.119-4.745.605-1.176,1.694-1.83,2.579-2.774a4.727,4.727,0,0,0,1.145-4.266,20.489,20.489,0,0,0-1.176-3.751,5.411,5.411,0,0,1-.489-1.893,2.681,2.681,0,0,1,.486-1.547,22.216,22.216,0,0,0,2.365-3.9.718.718,0,0,0-.012-.742c-.207-.222-.574-.112-.848.019-2.317,1.109-4.263,2.794-6.468,4.087-1.006.59-2.071,1.088-3.019,1.768a5.568,5.568,0,0,0-2.089,2.543,12.926,12.926,0,0,0-.488,1.864,14.386,14.386,0,0,1-.268,1.758,3.64,3.64,0,0,1-.347.695q-.642,1.082-1.34,2.131c-1.277,1.924-2.628,3.8-3.99,5.666q-2.316,3.173-4.7,6.295-2.31,3.039-4.663,6.046Z" transform="translate(-2228.067 -1584.59)" fill="#ffc0b0"/>
          </g>
          <g id="Grupo_17206" data-name="Grupo 17206" transform="translate(38.64 46.267)">
            <path id="Trazado_31956" data-name="Trazado 31956" d="M1442.584,2150.566a26.192,26.192,0,0,1-21.469,1.047c1.2-.1,2.389-.224,3.58-.421a1.337,1.337,0,0,0,.573-.191.165.165,0,0,0,.04-.033,46.447,46.447,0,0,0,13.861-.7v.191S1440.524,2150.513,1442.584,2150.566Z" transform="translate(-1421.115 -2150.263)" fill="#10172a"/>
          </g>
          <g id="Grupo_17207" data-name="Grupo 17207" transform="translate(20.65 74.712)">
            <path id="Trazado_31957" data-name="Trazado 31957" d="M1200.395,2533.778a46.751,46.751,0,0,1-1.639,10.972,11.187,11.187,0,0,1-2.218,4.3c-.355-.724-1.981-1.224-4.113-1.79a13.765,13.765,0,0,1-.105-1.948,9.307,9.307,0,0,1,1.316-4.778c1.4-2.231,3.337-3.745,2.764-6.634-.2-1.04-.6-2.027-.869-3.047-1.132-4.317.434-8.49,1.659-12.6.369-1.231.75-2.455,1.139-3.686.191-.592.375-1.185.566-1.777.086-.257.217-.494.3-.757a6.272,6.272,0,0,1,.474,2.356c.079.862.224,1.731.329,2.593q.355,2.794.513,5.621A94.412,94.412,0,0,1,1200.395,2533.778Z" transform="translate(-1192.316 -2512.039)" fill="#009cd5"/>
          </g>
          <g id="Grupo_17208" data-name="Grupo 17208" transform="translate(20.65 74.712)" opacity="0.2">
            <path id="Trazado_31958" data-name="Trazado 31958" d="M1200.395,2533.778a46.751,46.751,0,0,1-1.639,10.972,11.187,11.187,0,0,1-2.218,4.3c-.355-.724-1.981-1.224-4.113-1.79a13.765,13.765,0,0,1-.105-1.948,9.307,9.307,0,0,1,1.316-4.778c1.4-2.231,3.337-3.745,2.764-6.634-.2-1.04-.6-2.027-.869-3.047-1.132-4.317.434-8.49,1.659-12.6.369-1.231.75-2.455,1.139-3.686.191-.592.375-1.185.566-1.777.086-.257.217-.494.3-.757a6.272,6.272,0,0,1,.474,2.356c.079.862.224,1.731.329,2.593q.355,2.794.513,5.621A94.412,94.412,0,0,1,1200.395,2533.778Z" transform="translate(-1192.316 -2512.039)" fill="#10172a"/>
          </g>
          <g id="Grupo_17209" data-name="Grupo 17209" transform="translate(41.5 45.316)">
            <path id="Trazado_31959" data-name="Trazado 31959" d="M1459.219,2138.557s9.01.709,13.462-.388c1.024,1.181,1.217,1.188,1.217,1.188s-8.577,3.861-16.41.8C1458.786,2138.937,1459.219,2138.557,1459.219,2138.557Z" transform="translate(-1457.488 -2138.169)" fill="#f9bbbb"/>
          </g>
          <g id="Grupo_17210" data-name="Grupo 17210" transform="translate(55.368 254.828)">
            <path id="Trazado_31960" data-name="Trazado 31960" d="M1637.177,4802.794h15.508c-.452,1.88-.864,3.766-1.223,5.66a10.765,10.765,0,0,0-.469,3.462,1.559,1.559,0,0,0,.177.5c1.92,3.287,19.145,7.933,20.159,10.985s-34.874,2.942-36.913,1.477c-1.133-.822-.338-6.865.8-12.9C1635.857,4808.612,1636.6,4805.251,1637.177,4802.794Z" transform="translate(-1633.867 -4802.794)" fill="#009cd5"/>
          </g>
          <g id="Grupo_17211" data-name="Grupo 17211" transform="translate(28.447 254.828)">
            <path id="Trazado_31961" data-name="Trazado 31961" d="M1293.162,4812.071a44.83,44.83,0,0,0,.612-6.085q.048-1.6.081-3.191h16.228c.034,4.14.074,7.433.118,9.215.013.478.024.848.037,1.1.147,3.128,1,6.3.685,9.443a3.66,3.66,0,0,1-1.815,3.045,4.925,4.925,0,0,1-1.833.33c-2.651.136-5.3.271-7.959.3-1.325.017-2.652.009-3.977-.038-.808-.028-2.954.244-3.463-.528a2.042,2.042,0,0,1-.257-.848c-.434-3.175.219-6.354.9-9.444C1292.765,4814.255,1292.981,4813.161,1293.162,4812.071Z" transform="translate(-1291.479 -4802.794)" fill="#009cd5"/>
          </g>
          <g id="Grupo_17212" data-name="Grupo 17212" transform="translate(54.907 263.778)">
            <path id="Trazado_31962" data-name="Trazado 31962" d="M1645.548,4916.621a1.6,1.6,0,0,0,.181.513c1.967,3.368,19.616,8.128,20.655,11.255s-35.733,3.015-37.822,1.513c-1.161-.842-.346-7.034.824-13.222Z" transform="translate(-1628 -4916.621)" fill="#10172a"/>
          </g>
          <g id="Grupo_17213" data-name="Grupo 17213" transform="translate(27.869 263.621)">
            <path id="Trazado_31963" data-name="Trazado 31963" d="M1285.9,4914.694l18.049-.065c.014.506.026.9.039,1.16.156,3.314,1.061,6.674.726,10a3.875,3.875,0,0,1-1.922,3.226,5.2,5.2,0,0,1-1.941.35c-2.808.144-5.617.288-8.431.323-1.4.018-2.809.01-4.213-.041-.856-.03-3.129.259-3.668-.559a2.161,2.161,0,0,1-.273-.9c-.46-3.363.232-6.731.954-10C1285.483,4917.008,1285.713,4915.849,1285.9,4914.694Z" transform="translate(-1284.121 -4914.629)" fill="#10172a"/>
          </g>
          <g id="Grupo_17214" data-name="Grupo 17214" transform="translate(7.047 34.998)">
            <path id="Trazado_31964" data-name="Trazado 31964" d="M1019.652,2074.18c1.625,4.923,8.7,6.469,13.36,7.7a13.769,13.769,0,0,1-.1-1.948,9.315,9.315,0,0,1,1.316-4.779c1.395-2.23,3.337-3.744,2.764-6.634-.2-1.04-.6-2.027-.869-3.048-1.132-4.317.434-8.49,1.658-12.6.369-1.23.751-2.456,1.139-3.686.191-.593.375-1.185.566-1.777.086-.257.217-.494.3-.757a6.263,6.263,0,0,1,.474,2.355c.079.863.224,1.732.329,2.594q.356,2.793.513,5.62a94.453,94.453,0,0,1-.111,11.168,46.757,46.757,0,0,1-1.639,10.972,11.185,11.185,0,0,1-2.219,4.3.649.649,0,0,1,.073.27c.145,2.6-1.651,14.15-2.073,17.067-.83,5.725,8.575,4.455,11.7,4.462,13.564,0,27.129.019,40.7.132.066.006.132.006.2.006a4.324,4.324,0,0,0,1.566-.184,3.191,3.191,0,0,0,1.521-1.507c1.218-2.258.862-4.857.369-7.259-.442-2.159-.941-4.311-1.415-6.463-.909-4.075-2.021-8.273-2.192-12.466,0-.111-.007-.23-.007-.342-.1-6.226-.237-25.325,1.981-31.69s24.615-17.547,27.721-19.718a9.015,9.015,0,0,0,1.777-1.987c.974-1.278,1.883-2.6,2.778-3.929,1.164-1.718,2.3-3.456,3.415-5.2q.171-.267.344-.533l-7.086-6.023-4.154-1.363c-1.168,1.491-2.344,2.979-3.541,4.448a15.507,15.507,0,0,1-1.832,2.135c-1.218,1.046-13.2,3.219-19.8,4.351a95.263,95.263,0,0,1-14.564.676c-.81-.009-1.566-.022-2.245-.038a26.2,26.2,0,0,1-21.47,1.046h-.006c-2,.165-4,.27-5.989.553a25.941,25.941,0,0,0-6.173,1.58,16.96,16.96,0,0,0-6.9,5.041C1028.234,2031.169,1017.2,2066.722,1019.652,2074.18Z" transform="translate(-1019.3 -2006.941)" fill="#009cd5"/>
          </g>
          <g id="Grupo_17216" data-name="Grupo 17216" transform="translate(23.185 35.803)" opacity="0.2">
            <g id="Grupo_17215" data-name="Grupo 17215">
              <path id="Trazado_31965" data-name="Trazado 31965" d="M1307.613,2017.747l-1.7-.557,5.348,4.546q-.173.266-.344.533c-1.119,1.744-2.251,3.482-3.415,5.2-.9,1.329-1.8,2.652-2.778,3.929a9.018,9.018,0,0,1-1.777,1.987c-3.106,2.172-25.509,13.347-27.722,19.718s-2.079,25.464-1.98,31.689c0,.112.007.231.007.342.17,4.193,1.283,8.391,2.192,12.466.474,2.152.973,4.3,1.415,6.463.493,2.4.848,5-.369,7.259a3.19,3.19,0,0,1-1.521,1.507,4.323,4.323,0,0,1-1.566.184c-.066,0-.132,0-.2-.006-13.571-.112-27.135-.132-40.7-.132-1.687,0-5.2.364-7.953-.2,1.687,3.121,8.758,2.224,11.388,2.23,13.564,0,27.129.02,40.7.132.066.006.132.006.2.006a4.318,4.318,0,0,0,1.566-.184,3.189,3.189,0,0,0,1.521-1.507c1.218-2.258.862-4.857.369-7.259-.442-2.159-.941-4.311-1.415-6.463-.908-4.074-2.021-8.273-2.192-12.466,0-.111-.007-.23-.007-.342-.1-6.226-.237-25.325,1.981-31.689s24.615-17.547,27.722-19.719a9.016,9.016,0,0,0,1.777-1.987c.974-1.277,1.883-2.6,2.778-3.929,1.164-1.718,2.3-3.456,3.415-5.2q.171-.268.344-.533Z" transform="translate(-1224.555 -2017.19)" fill="#10172a"/>
            </g>
          </g>
          <g id="Grupo_17217" data-name="Grupo 17217" transform="translate(62.589 9.363)">
            <path id="Trazado_31966" data-name="Trazado 31966" d="M1727.387,1680.92a36.659,36.659,0,0,1,3.595,7.335c2.219,5.977,3.333,13.765-1.485,18.828a9.208,9.208,0,0,1-3.795,2.354A168.8,168.8,0,0,0,1727.387,1680.92Z" transform="translate(-1725.702 -1680.92)" fill="#ffc0b0"/>
          </g>
          <g id="Grupo_17218" data-name="Grupo 17218">
            <path id="Trazado_31967" data-name="Trazado 31967" d="M956.562,1595.267a149.3,149.3,0,0,0,4.691-15.811.071.071,0,0,0,.01-.028,27.937,27.937,0,0,1,1.8-5.8,21.96,21.96,0,0,1,5.343-7.808,15.6,15.6,0,0,1,16.41-2.8,18.9,18.9,0,0,1,8.06,6.575c.38.523.742,1.055,1.077,1.606a179.46,179.46,0,0,1-1.685,29.409,67.427,67.427,0,0,1-3.45,13.8c-6.113,15.634-14.942,37.469-30.682,38.515s-23.546-8.162-25.81-11.674c-2.264-3.493-5.316-14.354,1.7-24.861S954.18,1601.338,956.562,1595.267Z" transform="translate(-929.681 -1561.833)" fill="#002c51"/>
          </g>
          <g id="Grupo_17221" data-name="Grupo 17221" transform="translate(8.058 46.57)" opacity="0.2">
            <g id="Grupo_17219" data-name="Grupo 17219" transform="translate(0 39.086)">
              <path id="Trazado_31968" data-name="Trazado 31968" d="M1047.976,2659.1a12.471,12.471,0,0,1-.378-3.7c-6.064.213-10.739-2.289-14.49-4.174-.289,1.306-.709,3.751-.938,4.974a28.029,28.029,0,0,0,16.665,5.9C1048.628,2661.077,1048.241,2660.1,1047.976,2659.1Z" transform="translate(-1032.17 -2651.227)" fill="#10172a"/>
            </g>
            <g id="Grupo_17220" data-name="Grupo 17220" transform="translate(20.67)">
              <path id="Trazado_31969" data-name="Trazado 31969" d="M1325.47,2165.5a62.274,62.274,0,0,0,3.036-11.35c-.742-.009-1.437-.021-2.066-.036a26.059,26.059,0,0,1-3.32,1.413c-.11.038-.221.075-.333.112-.337,1.1-.7,2.152-1.094,3.159-5.536,14.158-13.3,33.4-26.406,37.686.019,2.5-.077,5-.228,7.51C1310.629,2202.719,1319.393,2181.046,1325.47,2165.5Z" transform="translate(-1295.06 -2154.117)" fill="#10172a"/>
            </g>
          </g>
          <g id="Grupo_17222" data-name="Grupo 17222" transform="translate(99.685 30.047)">
            <path id="Trazado_31970" data-name="Trazado 31970" d="M2201.179,1943.977l13.782,8.777-2.01,6.891-15.452-9.606Z" transform="translate(-2197.5 -1943.977)" fill="#8bd7f1"/>
          </g>
          <g id="Grupo_17223" data-name="Grupo 17223" transform="translate(0.932 4.719)">
            <path id="Trazado_31971" data-name="Trazado 31971" d="M965.286,1701.531c15.739-1.046,24.569-22.881,30.682-38.515a67.441,67.441,0,0,0,3.45-13.8,176.584,176.584,0,0,0,1.727-27.356,22.4,22.4,0,0,1,2.658,3.041c.38.523.742,1.055,1.077,1.606a179.444,179.444,0,0,1-1.685,29.409,67.444,67.444,0,0,1-3.45,13.8c-6.113,15.634-14.942,37.469-30.682,38.515s-23.546-8.162-25.81-11.674a15.586,15.586,0,0,1-1.715-4.017C945.208,1696.663,952.722,1702.373,965.286,1701.531Z" transform="translate(-941.538 -1621.856)" fill="#000a18"/>
          </g>
          <g id="Grupo_17224" data-name="Grupo 17224" transform="translate(59.201 20.552)">
            <circle id="Elipse_1005" data-name="Elipse 1005" cx="2.717" cy="2.717" r="2.717" transform="translate(0 5.2) rotate(-73.155)" fill="#ffc0b0"/>
          </g>
        </g>
      </g>
    </g>
    <g id="Grupo_17228" data-name="Grupo 17228" transform="translate(235.231 319.27)">
      <path id="Trazado_31973" data-name="Trazado 31973" d="M2182.6,937.262h28.837v-41.69h-47.67Z" transform="translate(-2163.764 -895.573)" fill="none"/>
    </g>
    <g id="Grupo_17308" data-name="Grupo 17308" transform="translate(301.107 383.261)">
      <g id="Grupo_17307" data-name="Grupo 17307" transform="translate(0 0)" clip-path="url(#clip-path-2)">
        <g id="Grupo_17306" data-name="Grupo 17306" transform="translate(40.767 20.123)">
          <g id="Grupo_17229" data-name="Grupo 17229" transform="translate(62.824)">
            <path id="Trazado_31974" data-name="Trazado 31974" d="M4378.5,1526.9l.006-.009q.133-.2.267-.427l0-.008c.09-.15.181-.308.272-.474a19.509,19.509,0,0,0,1.073-2.3,25.421,25.421,0,0,0-1.642-21.682c-6.333-11.421-19.567-17.3-21.486-23.747a152.033,152.033,0,0,1-3.427-16.642.078.078,0,0,1-.008-.03,28.45,28.45,0,0,0-1.341-6.112,22.593,22.593,0,0,0-4.839-8.5,16.353,16.353,0,0,0-10.895-5.088,17.888,17.888,0,0,0-11.849,3.635,12.3,12.3,0,0,0-3.819,4.835c-1.056,2.49-1.054,5.419-1.244,8.1a168.491,168.491,0,0,0-.341,19.229q.029.639.064,1.277.04.723.088,1.444c0,.044.006.089.01.133.1,1.506.238,3,.409,4.478q.064.55.133,1.095.061.467.126.929a59.16,59.16,0,0,0,1.193,6.194q.212.837.45,1.64c.461,1.555.942,3.169,1.449,4.818q.253.825.515,1.66c1.136,3.619,2.4,7.37,3.85,11.025q.669,1.687,1.393,3.339.182.412.366.822.369.818.754,1.623.576,1.206,1.188,2.374c4.491,8.557,10.462,15.358,18.849,16.666q1.143.179,2.238.285a31.015,31.015,0,0,0,15-2.025q.944-.388,1.808-.818a27.9,27.9,0,0,0,2.782-1.585,25.615,25.615,0,0,0,6.076-5.423c.085-.107.172-.223.259-.345l.006-.009Q4378.363,1527.106,4378.5,1526.9Z" transform="translate(-4319.091 -1441.854)" fill="#fd3540"/>
          </g>
          <g id="Grupo_17230" data-name="Grupo 17230" transform="translate(35.74 157.941)">
            <path id="Trazado_31975" data-name="Trazado 31975" d="M3980.319,3450.58l-5.7,34.338q.195-2.32.484-4.775C3976.28,3470.282,3978.392,3460.4,3980.319,3450.58Z" transform="translate(-3974.624 -3450.58)" fill="#009cd5"/>
          </g>
          <g id="Grupo_17231" data-name="Grupo 17231" transform="translate(17.394 129.85)">
            <path id="Trazado_31976" data-name="Trazado 31976" d="M3830.557,3248.725h0a3.194,3.194,0,0,1-.166.439c-.018.041-.038.08-.058.12l-.062.115a5,5,0,0,1-.756,1.01l-.062.063c-.177.179-.307.285-.323.3h0s-7.143.025-14.58.048l-.666,0h-.334l-1,0h0l-1,0h0l-2.608.008h0l-6.228.018h-.506l-1.578,0h-1.957a8.358,8.358,0,0,1,.2-1.749c.017-.078.035-.154.053-.232q.046-.188.1-.378c.031-.109.063-.218.1-.327.016-.05.032-.1.047-.148l.06-.177a11.56,11.56,0,0,1,.5-1.206c.03-.064.062-.127.094-.192s.052-.1.079-.153q.059-.114.121-.226a8.926,8.926,0,0,1,1.685-2.209,20.6,20.6,0,0,0,2.252-2.645c.067-.089.132-.18.2-.27.263-.359.514-.715.747-1.05.1-.141.193-.279.284-.412h0l.072-.1.07-.1c.046-.068.09-.135.135-.2h0l.092-.138c.029-.045.059-.089.087-.131.071-.108.137-.208.2-.3.025-.037.049-.073.071-.108.236-.365.374-.588.374-.588h0c-.048-.011-.1-.11-.156-.293-.018-.061-.037-.131-.057-.21-.025-.1-.049-.212-.075-.339-.01-.051-.021-.1-.031-.158-.047-.247-.1-.539-.146-.871-.011-.073-.023-.15-.034-.227s-.024-.168-.037-.255q-.034-.23-.067-.481c0-.011,0-.022,0-.033-.145-1.073-.3-2.42-.468-3.992q-.081-.758-.163-1.585c0-.013,0-.027,0-.04q-.056-.541-.111-1.108c-.033-.344-.067-.7-.1-1.054-.025-.26-.05-.523-.075-.79-.013-.139-.026-.28-.04-.422-.027-.283-.053-.57-.08-.86-.013-.146-.027-.292-.04-.439-.292-3.051-.51-6.11-.714-9.168q-.213-3.2-.386-6.395c-1.343-24.536-2.123-48.889-6.119-73.2,0-.03-.01-.062-.016-.095-.35-2.124-.731-4.243-1.187-6.346-.087-.4-.482-1.474-.828-2.547a8.984,8.984,0,0,1-.555-2.415.522.522,0,0,1,.048-.215l-.067.128c-5.848,11.255-12.484,40.2-13.857,44.974-3.735,12.973-.156,26.383-.967,39.594-.246,3.987-.743,10.114-1.281,15.683q-.042.422-.083.839t-.083.829c-.013.137-.027.273-.041.41q-.042.408-.083.808-.062.6-.124,1.182c-.069.646-.138,1.272-.206,1.872h0c-.014.12-.028.238-.041.356h0c-.289,2.529-.564,4.575-.794,5.717-.021.105-.043.2-.063.293a1.755,1.755,0,0,1-.237.681l-.017.018a.187.187,0,0,0-.035.075,1.2,1.2,0,0,0,.021.489c0,.009,0,.017,0,.026.007.036.015.074.023.114.037.163.086.347.148.552.016.053.033.108.051.163.008.023.015.047.023.072,0,.006,0,.014.006.021l.009.029.009.025h0c.014.046.03.093.047.142.01.032.021.065.032.1l0,0c.011.034.024.069.036.1l.021.061c.01.029.02.057.03.086.021.058.042.117.063.177.6,1.678,1.59,4.018,2.362,6.106.038.1.076.206.112.308s.066.179.1.268.071.2.105.3h0q.059.17.116.338l.056.166c.2.605.369,1.165.482,1.649.021.088.04.175.056.257a3.212,3.212,0,0,1,.079,1.164.358.358,0,0,1-.122.19l-.049.04a.96.96,0,0,1-.119.076,1.514,1.514,0,0,1-.151.073q-.062.027-.131.052l-.1.034-.1.032h0c-.072.022-.147.043-.228.063s-.167.04-.257.059c-.067.015-.136.029-.208.043h0c-.1.019-.2.036-.3.054h0c-.1.018-.212.035-.326.051s-.23.032-.35.047h0l-.184.023-.094.011-.193.021-.3.031-.207.02c-.314.028-.647.055-1,.08l-.476.031-.245.014c-1.748.1-3.848.153-6.151.17h-.023c-3.382.025-7.2-.022-10.979-.1l-.454-.01h-.054l-.41-.009-1.384-.03-.909-.021h0q-1.293-.03-2.551-.063l-.372-.01-.207-.005h0l-1.033-.027h-.062l-.2-.006-.429-.011-1.663-.044-.4-.011-.208-.005-.4-.01-.193-.006h-.01l-.379-.01h-.01l-.189,0-.38-.01-.382-.01-.365-.01-.366-.01-.357-.009-.357-.009-.341-.009-.339-.008-.331-.007c-.929-.021-1.771-.038-2.506-.048h0a7.1,7.1,0,0,1,.572-3.373h0c.043-.094.09-.186.138-.276s.1-.177.151-.263c.079-.129.162-.253.25-.373a5.249,5.249,0,0,1,.374-.454l.1-.106a7.632,7.632,0,0,1,3.392-1.9q.133-.039.269-.075c.354-.1.716-.178,1.083-.247q.157-.03.315-.056c.422-.071.848-.128,1.273-.173.213-.022.425-.041.637-.059s.423-.031.632-.043.417-.022.623-.031c2.161-.088,4.09.011,5.047-.173a4,4,0,0,0,1.109-.409c.053-.027.105-.056.157-.086.13-.074.26-.154.388-.241a10.351,10.351,0,0,0,1.811-1.605c.089-.1.175-.194.26-.292s.169-.2.25-.3c.041-.049.081-.1.121-.148.078-.1.156-.2.231-.294s.149-.2.22-.292l.1-.178.362-.641h0l.843-1.5h0a.572.572,0,0,1-.015-.093c0-.026-.007-.058-.01-.1s0-.051-.007-.08-.006-.06-.009-.094c-.007-.084-.016-.181-.025-.292-.005-.066-.011-.138-.017-.213-.008-.1-.016-.211-.024-.329,0-.059-.009-.119-.013-.182h0c-.01-.125-.019-.258-.029-.4h0q-.023-.316-.048-.682h0c-.009-.122-.017-.247-.025-.377-.006-.086-.012-.174-.019-.265q-.013-.2-.028-.416c-.005-.095-.012-.191-.019-.289,0-.049-.006-.1-.009-.148-.006-.1-.013-.2-.02-.3,0-.054-.007-.109-.011-.164-.01-.15-.019-.3-.029-.459,0-.061-.007-.123-.012-.185-.006-.1-.013-.208-.02-.315a.194.194,0,0,0,0-.021q-.038-.587-.078-1.224c-.048-.75-.1-1.546-.147-2.382-.043-.714-.089-1.457-.135-2.222q-.037-.623-.076-1.265c-.008-.143-.017-.285-.025-.429-.646-10.868-1.419-25.261-1.419-29.318,0-11.175-.719-19.953-.586-29.539h8.16s12.8-40.473,16.626-72.476l.751.07q.606.055,1.221.105l.669.053.535.041.29.021q.3.023.6.042l.6.042q.765.051,1.537.1l.515.03q.688.039,1.379.073.5.026,1,.048c.323.015.646.029.968.042l.034,0,.173.007.594.024.781.029q.516.019,1.031.035l.059,0,.456.014.514.015.789.021q1.3.034,2.575.056l.594.01.592.009c1.182.017,2.347.027,3.489.032,1.007,0,2,0,2.96,0,9.14-.028,16.113-.356,16.267-.364h0q.375,3.307.722,6.615a216.64,216.64,0,0,1,1.394,23.919c-.073,10-.876,20.194-1.323,30.054-.761,16.852-.739,33.679-.8,50.533-.018,4.919-.652,12.847-1.294,19.654-.026.272-.052.542-.077.811-.015.153-.029.3-.044.456l-.08.827c-.147,1.5-.29,2.918-.423,4.206-.052.5-.1.986-.151,1.445-.01.1-.02.188-.029.28-.02.185-.039.366-.058.543-.021.195-.041.385-.061.57-.013.116-.024.229-.036.34-.01.085-.019.17-.028.254-.006.056-.013.113-.018.168-.009.082-.017.164-.026.243-.006.053-.012.106-.018.158-.009.082-.017.162-.026.24-.014.125-.026.244-.04.361-.144,1.313-.233,2.079-.233,2.079h0l0,0,.033.035.058.061h0c.023.025.05.054.081.085l.031.034.071.075c.2.213.5.531.87.923l.212.227h0l.079.083.081.085.092.1c.062.068.127.137.192.208l.1.106h0l.109.117.111.119c1.693,1.835,3.981,4.39,5.257,6.128l.164.226c.079.111.154.219.222.321s.131.2.19.293c.019.031.038.062.055.092.035.06.069.117.1.173.016.028.03.055.043.082.028.052.052.1.075.151h0a1.884,1.884,0,0,1,.078.2.936.936,0,0,1,.028.112A2.321,2.321,0,0,1,3830.557,3248.725Z" transform="translate(-3741.306 -3093.323)" fill="#00488b"/>
          </g>
          <g id="Grupo_17232" data-name="Grupo 17232" transform="translate(48.571 126.45)">
            <path id="Trazado_31977" data-name="Trazado 31977" d="M4137.817,3054.8s44.055,3.628,52.456-.761c-19.888-7.638-50.272-1.864-50.272-1.864Z" transform="translate(-4137.817 -3050.079)" fill="#000a18"/>
          </g>
          <g id="Grupo_17235" data-name="Grupo 17235" transform="translate(17.394 127.535)">
            <g id="Grupo_17233" data-name="Grupo 17233">
              <path id="Trazado_31978" data-name="Trazado 31978" d="M3745.359,3224.034c-.434-9.183,11.892-7.029,14.856-7.6,1.7-.33,3.415-2.123,4.547-3.664l.464-.82.844-1.5c-.041-.1-.222-2.718-.468-6.625-.118-1.853-.245-4-.384-6.3-.646-10.868-1.419-25.261-1.419-29.317,0-16.573-1.582-27.875.377-44.361,1.435-12.08,4.281-24.184,6.47-36.181,1.361-7.433,3.541-15.206,4.018-22.781a39.38,39.38,0,0,1-3.987-1.007c-.336,7.892-2.652,16.026-4.073,23.788-2.188,12-5.035,24.1-6.47,36.181-1.959,16.487-.377,27.788-.377,44.361,0,4.056.773,18.45,1.419,29.317.139,2.3.265,4.446.383,6.3.246,3.906.427,6.527.468,6.625l-.844,1.5-.463.82c-1.132,1.541-2.851,3.334-4.547,3.664-2.965.57-15.29-1.585-14.857,7.6,5.934.08,18.8.583,28.249.511C3760.768,3224.487,3750.481,3224.1,3745.359,3224.034Z" transform="translate(-3741.306 -3063.876)" fill="#004887"/>
            </g>
            <g id="Grupo_17234" data-name="Grupo 17234" transform="translate(53.443 27.446)">
              <path id="Trazado_31979" data-name="Trazado 31979" d="M4431.452,3533.976l-.284.414a27.138,27.138,0,0,1-3.2,3.964,10.493,10.493,0,0,0-3.036,7c.768,0,2.2,0,4.042-.007a10.493,10.493,0,0,1,3.036-6.99,27.169,27.169,0,0,0,3.2-3.964c.1-.141.193-.28.284-.414s.188-.279.276-.407c.5-.751.823-1.269.823-1.269-.254-.057-.627-2.647-1.075-6.861-.192-1.821-.4-3.944-.615-6.3-.292-3.051-.509-6.11-.714-9.168q-.213-3.2-.386-6.4c-1.343-24.536-2.123-48.889-6.119-73.2-.354-2.156-.74-4.306-1.2-6.441-.18-.833-3.243-10.349-2.9-11a56.924,56.924,0,0,0-2.569,5.823c.4,1.922,2.314,9.68,2.633,11.618,4,24.309,4.775,48.662,6.119,73.2q.175,3.2.386,6.4c.2,3.058.422,6.117.714,9.168.215,2.354.422,4.477.615,6.3.448,4.213.82,6.8,1.075,6.861,0,0-.32.518-.823,1.269C4431.64,3533.7,4431.549,3533.835,4431.452,3533.976Z" transform="translate(-4421.01 -3412.94)" fill="#004887"/>
            </g>
          </g>
          <g id="Grupo_17236" data-name="Grupo 17236" transform="translate(6.662 65.996)">
            <path id="Trazado_31980" data-name="Trazado 31980" d="M3604.81,2281.205q.075.146.152.3C3604.91,2281.4,3604.858,2281.3,3604.81,2281.205Z" transform="translate(-3604.81 -2281.205)" fill="#009cd5"/>
          </g>
          <g id="Grupo_17237" data-name="Grupo 17237" transform="translate(66.952 25.081)">
            <path id="Trazado_31981" data-name="Trazado 31981" d="M4395.677,1762.58s2.051,20.65,8.6,24.159,25.514,12.8,23.048,25.988-39.713,5.5-39.713,5.5-14.445-36.5-15.2-46.763-.807-10.631-.807-10.631Z" transform="translate(-4371.596 -1760.838)" fill="#b71d25"/>
          </g>
          <g id="Grupo_17238" data-name="Grupo 17238" transform="translate(6.886 66.436)">
            <path id="Trazado_31982" data-name="Trazado 31982" d="M3607.709,2286.911h0c-.019-.037-.038-.075-.056-.113Z" transform="translate(-3607.652 -2286.798)" fill="#009cd5"/>
          </g>
          <g id="Grupo_17239" data-name="Grupo 17239" transform="translate(6.943 66.549)">
            <path id="Trazado_31983" data-name="Trazado 31983" d="M3608.494,2288.47h0l-.117-.231Z" transform="translate(-3608.377 -2288.239)" fill="#009cd5"/>
          </g>
          <g id="Grupo_17240" data-name="Grupo 17240" transform="translate(7.06 66.781)">
            <path id="Trazado_31984" data-name="Trazado 31984" d="M3609.929,2291.309l.2.392c-.068-.133-.135-.264-.2-.391l-.06-.118C3609.889,2291.231,3609.909,2291.27,3609.929,2291.309Z" transform="translate(-3609.869 -2291.192)" fill="#009cd5"/>
          </g>
          <g id="Grupo_17241" data-name="Grupo 17241" transform="translate(9.26 71.092)">
            <path id="Trazado_31985" data-name="Trazado 31985" d="M3637.855,2346.017q.2.387.409.785l-.034-.063C3638.1,2346.5,3637.977,2346.254,3637.855,2346.017Z" transform="translate(-3637.855 -2346.017)" fill="#009cd5"/>
          </g>
          <g id="Grupo_17242" data-name="Grupo 17242" transform="translate(9.81 72.143)">
            <path id="Trazado_31986" data-name="Trazado 31986" d="M3644.84,2359.39l.311.591c-.105-.2-.209-.394-.311-.589Z" transform="translate(-3644.84 -2359.39)" fill="#009cd5"/>
          </g>
          <g id="Grupo_17243" data-name="Grupo 17243" transform="translate(46.502 109.856)">
            <path id="Trazado_31987" data-name="Trazado 31987" d="M4113.66,2839.024l.685.392-2.749,16.575c-.453-2.758.853-7.459,1.713-11.953a29.825,29.825,0,0,0,.319-3.9C4113.641,2839.78,4113.651,2839.408,4113.66,2839.024Z" transform="translate(-4111.503 -2839.024)" fill="#009cd5"/>
          </g>
          <g id="Grupo_17244" data-name="Grupo 17244" transform="translate(60.047 44.919)">
            <path id="Trazado_31988" data-name="Trazado 31988" d="M4344.909,2053.358c0,.218,0,.436,0,.659,0,.052,0,.107,0,.162,0,.19-.006.379-.011.572,0,.211-.011.424-.018.638-.009.292-.023.588-.034.883-.007.113-.013.228-.018.341-.011.209-.023.42-.037.631-.032.509-.068,1.02-.108,1.524-.01.1-.019.195-.028.292-.013.155-.029.307-.043.459-.011.129-.025.259-.039.388-.09.858-.2,1.7-.323,2.5-.02.141-.042.28-.063.416-.1.567-.2,1.114-.309,1.634-.016.086-.036.17-.055.254-.036.166-.075.33-.113.49-.018.082-.039.161-.06.241s-.039.156-.059.234c-.041.155-.084.307-.125.454s-.086.292-.132.434-.091.277-.136.411-.094.261-.142.386c-.1.25-.2.483-.3.7q-.078.16-.157.307a4.607,4.607,0,0,1-.429.654c-.027.034-.052.063-.079.093l-.089.1c-.032.032-.066.066-.1.1s-.052.048-.079.071c-.046.04-.1.079-.146.118s-.1.072-.149.108-.121.082-.187.12-.129.077-.2.116c-.147.082-.307.159-.475.234-.063.028-.126.055-.192.082-.159.067-.325.127-.5.184s-.352.116-.535.168c-.091.028-.184.055-.279.078s-.19.05-.288.073a.065.065,0,0,1-.016,0c-.091.023-.184.044-.277.064-.417.1-.853.174-1.3.247-.134.018-.269.039-.4.059a.02.02,0,0,0-.012,0c-.2.029-.409.057-.615.079-.85.1-1.719.173-2.563.22l-.391.021c-.138.007-.274.013-.411.018l-.582.021-.229.007c-1.035.028-1.976.025-2.722.014-.036,0-.073,0-.107,0-.14,0-.272,0-.4-.01h-.036c-.731-.016-1.174-.04-1.174-.04v.056a.485.485,0,0,0,0,.062l0,.145,0,.118,0,.1,0,.052c0,.027,0,.054,0,.084s0,.084,0,.127l0,.155-.009.472-.012.5c0,.037,0,.073,0,.109l-.006.386c0,.05,0,.1,0,.152s0,.1,0,.156c0,.1,0,.212-.007.323,0,.055,0,.112,0,.168,0,.1,0,.213-.007.323,0,.063,0,.127,0,.193v.007c0,.177-.009.361-.011.552l0,.089c0,.111,0,.223-.007.338,0,.079,0,.158,0,.241l0,.109q-.007.32-.014.654c0,.125-.007.25-.007.375l-.07,3.485,0,.134-.016.779c0,.138,0,.277-.006.413-.01.481-.019.965-.028,1.446,0,.323-.011.645-.018.965,0,.24-.006.481-.011.719-.006.32-.011.638-.018.951,0,.113,0,.23,0,.343s0,.24-.006.36c0,.155,0,.309-.007.461,0,.077,0,.155,0,.229,0,.152,0,.3-.007.454,0,.052,0,.1,0,.152-.009.55-.016,1.083-.025,1.594,0,.139,0,.277-.007.414,0,.077,0,.155,0,.229,0,.194-.006.384-.009.57,0,.418-.009.818-.014,1.192,0,.132,0,.259,0,.384,0,.07,0,.14,0,.208-.011,1.41-.011,2.4,0,2.724a1.8,1.8,0,0,1-.028.416c-.009.048-.021.1-.032.145l-.006.025c-.012.044-.025.086-.039.128a2.71,2.71,0,0,1-.5.851.787.787,0,0,1-.066.078,4.5,4.5,0,0,1-.651.612l-.109.084c-.039.031-.08.059-.118.089s-.064.043-.1.066c-.068.047-.136.093-.2.134a1,1,0,0,1-.095.061c-.1.059-.187.114-.263.157-.134.075-.232.125-.28.147l-.024.014h0c-.155.007-7.127.335-16.268.364q-1.447.006-2.959,0c-1.142-.006-2.308-.016-3.489-.032l-.592-.009-.594-.01q-1.279-.022-2.575-.055l-.789-.021-.514-.015-.456-.014h-.059l-1.032-.035-.781-.029-.594-.024-.174-.007-.034,0-.968-.042-1-.048q-.691-.035-1.379-.073l-.515-.03q-.771-.045-1.536-.1l-.6-.041-.6-.043-.29-.021-.535-.041-.67-.053q-.615-.051-1.221-.105l-.751-.07a134.833,134.833,0,0,0,1.064-15.958c-.059-32.33,8.29-68.752,8.29-68.752.289-.021.566-.041.834-.057a.581.581,0,0,1,.065,0c.08,0,.156-.011.234-.016l.17-.009c.05,0,.1,0,.15-.01.134-.009.263-.016.391-.022h0l.182-.01.268-.013.257-.014.143-.007c.375-.038.7-.029,1.078-.061v.016c.093,0,.175-.007.245-.007l.332-.009h15.54c.331,0,.672,0,1.021.016h0c.354.011.719.029,1.092.05l.413.027c.223.016.449.032.677.052.139.012.279.023.423.039s.268.025.4.039.261.027.393.041l.161.017c.184.021.37.044.556.066l.123.013.561.075c.186.025.375.052.561.079l.1.016c.2.03.395.059.594.091s.42.07.631.107c.241.04.479.084.717.127q.749.14,1.487.3l.467.1.463.108c.173.04.346.084.516.124.239.059.472.12.706.182l.3.082c.1.025.191.052.284.077l.125.036c.161.045.32.093.476.14q.582.175,1.14.361c.085.027.17.057.256.086.262.091.519.184.768.279.059.021.118.044.174.066s.1.039.146.057l.256.1c.084.034.168.068.252.1l.134.056c.078.032.155.066.23.1a16.763,16.763,0,0,1,1.677.847,3.031,3.031,0,0,1,.362.25c.029.026.061.05.09.075a6.8,6.8,0,0,1,.838.856c.039.045.075.093.114.139s.077.1.116.145.077.1.116.15c.155.2.311.42.47.649l.1.155c.069.1.14.209.21.318h0q.265.407.533.857a79.879,79.879,0,0,1,4.915,10.4c.118.286.231.572.346.861.079.2.158.4.236.6s.147.375.218.563c.045.114.088.228.131.338.077.2.155.4.229.6.758,2,1.456,3.957,2.057,5.748.09.268.179.533.263.792.259.783.5,1.525.706,2.218.025.077.047.155.07.229l.068.225.034.111c.028.093.055.184.082.275.009.034.021.066.029.1.037.129.073.254.11.377q.19.661.34,1.226c.041.155.08.3.114.447.053.2.1.4.138.574v0l.038.174c.012.045.02.09.03.134.084.4.156.849.218,1.334.032.241.059.493.087.754.02.194.038.393.054.6.005.068.011.136.016.205.021.277.039.563.055.856s.027.581.039.881c0,.156.009.313.013.472.007.3.014.608.016.919C4344.907,2052.991,4344.909,2053.175,4344.909,2053.358Z" transform="translate(-4283.768 -2013.139)" fill="#00488b"/>
          </g>
          <g id="Grupo_17249" data-name="Grupo 17249" transform="translate(30.304 44.919)">
            <g id="Grupo_17246" data-name="Grupo 17246" transform="translate(0 39.75)" opacity="0.15">
              <g id="Grupo_17245" data-name="Grupo 17245">
                <path id="Trazado_31989" data-name="Trazado 31989" d="M3919.933,2518.689s.085,2.068.184,5.133c-2.744,3.367-7.224,7.123-13.491,6.974a6.852,6.852,0,0,1-1.138-.129C3915.195,2529.36,3919.933,2518.689,3919.933,2518.689Z" transform="translate(-3905.488 -2518.689)" fill="#0062b5"/>
              </g>
            </g>
            <g id="Grupo_17248" data-name="Grupo 17248" transform="translate(55.525)" opacity="0.15">
              <g id="Grupo_17247" data-name="Grupo 17247">
                <path id="Trazado_31990" data-name="Trazado 31990" d="M4647.026,2053.358c0,.218,0,.436,0,.659,0,.052,0,.107,0,.162,0,.19-.006.379-.011.572,0,.211-.011.424-.019.638-.009.292-.023.588-.034.883-.007.113-.013.228-.018.341-.011.209-.023.42-.037.631-.031.509-.068,1.02-.108,1.524q-.014.146-.027.292c-.014.155-.029.307-.043.459-.011.129-.025.259-.039.388-.09.858-.2,1.7-.322,2.5-.02.141-.043.28-.063.416-.1.567-.2,1.114-.308,1.634-.016.086-.037.17-.055.254-.036.166-.075.33-.113.49-.019.082-.039.161-.06.241s-.039.156-.059.234c-.041.155-.084.307-.125.454s-.086.292-.131.434-.091.277-.136.411-.094.261-.141.386c-.1.25-.2.483-.3.7q-.078.16-.157.307a4.607,4.607,0,0,1-.429.654c-.027.034-.052.063-.079.093l-.089.1c-.031.032-.065.066-.1.1l-.079.071c-.046.04-.1.079-.146.118s-.1.072-.15.108-.12.082-.187.12-.129.077-.2.116c-.147.082-.306.159-.475.234-.063.028-.126.055-.192.082-.159.067-.325.127-.5.184s-.352.116-.536.168c-.091.028-.184.055-.279.078s-.19.05-.288.073a.067.067,0,0,1-.016,0c-.091.023-.184.044-.277.064-.418.1-.854.174-1.3.247-.134.018-.269.039-.4.059a.022.022,0,0,0-.012,0c-.2.028-.409.055-.615.079-.85.1-1.719.173-2.563.22l-.391.021c-.138.007-.274.013-.411.018l-.582.021-.229.007c-1.035.028-1.976.025-2.722.014-.036,0-.073,0-.106,0-.141,0-.272,0-.4-.01h-.036l-.145,0c3.591-.1,8.282-.554,9.869-2.189,2.7-2.781,3.566-16.859,2.41-22.419s-8.808-27.062-13.105-29.586c-2.609-1.529-6.748-2.7-10.834-3.383-1.041-.175-2.079-.318-3.087-.426-1.429-.157-2.8-.243-4.032-.257-.114,0-.227,0-.339,0h3.463c.331,0,.672,0,1.021.016h0c.354.011.719.029,1.092.05l.413.027c.222.016.449.032.677.052.139.012.279.023.422.039s.268.025.4.039.262.027.393.041l.161.017c.184.021.37.044.556.066l.123.013.561.075c.186.025.375.052.561.079l.1.016c.2.03.395.059.594.091s.42.07.631.107c.241.04.479.084.717.127q.749.14,1.488.3l.466.1.463.108c.173.04.346.084.516.124.239.059.472.12.706.182l.3.082c.1.025.191.052.284.077.043.014.083.025.125.036.161.045.32.093.476.14q.582.175,1.14.361c.086.027.17.057.256.086.262.091.519.184.768.279.059.021.118.044.174.066s.1.039.146.057l.256.1c.084.034.168.068.252.1l.134.056c.077.032.154.066.229.1a16.773,16.773,0,0,1,1.678.847,3.067,3.067,0,0,1,.361.25c.029.026.061.05.09.075a6.832,6.832,0,0,1,.837.856c.039.045.075.093.114.139s.077.1.115.145.077.1.116.15c.155.2.311.42.47.649.035.051.07.1.1.155q.1.155.21.318h0c.175.272.353.559.533.857a79.879,79.879,0,0,1,4.915,10.4c.118.286.231.572.346.861.079.2.158.4.236.6s.147.375.218.563c.045.114.088.228.132.338.077.2.154.4.229.6.759,2,1.456,3.957,2.057,5.748.09.268.179.533.263.792.259.783.5,1.525.706,2.218.025.077.048.155.071.229l.068.225.034.111c.027.094.054.185.082.275.009.034.021.066.029.1.037.129.073.254.109.377q.19.661.341,1.226c.038.155.077.3.113.447.051.2.1.4.138.574v0q.019.089.038.174c.009.045.018.09.028.134.084.4.156.849.22,1.334.032.241.059.493.086.754.018.194.037.393.054.6.005.068.011.136.016.205.021.277.039.563.055.856s.027.581.039.881c0,.156.009.313.014.472.007.3.013.608.016.919C4647.023,2052.991,4647.026,2053.175,4647.026,2053.358Z" transform="translate(-4611.666 -2013.139)" fill="#0062b5"/>
              </g>
            </g>
          </g>
          <g id="Grupo_17250" data-name="Grupo 17250" transform="translate(0 43.828)">
            <path id="Trazado_31991" data-name="Trazado 31991" d="M3520.081,2009.769a7.719,7.719,0,0,0,4.239,7.31c.09.135.2.32.328.552.363.651.875,1.66,1.519,2.931,3.806-2.139,6.684-6.973,8.034-9.6-.194-.247-.383-.49-.565-.726a36.987,36.987,0,0,0-4.369-4.606c-2.773-2.972-5.865-6.262-7.647-6.353s2.662,5.459,2.179,6S3520.032,2005.465,3520.081,2009.769Z" transform="translate(-3520.08 -1999.275)" fill="#ffc0b0"/>
          </g>
          <g id="Grupo_17251" data-name="Grupo 17251" transform="translate(74.764 275.609)">
            <path id="Trazado_31992" data-name="Trazado 31992" d="M4473.986,4951.9a10.493,10.493,0,0,0-3.035,7c4.385,0,30.454-.09,30.454-.09s1.784-1.435,1.5-3.095c-.194-1.1-3.806-5.167-6.212-7.775l-.219-.236c-.132-.144-.261-.281-.383-.414l-.157-.17h-18.186c-.168.251-.358.528-.561.82A27.063,27.063,0,0,1,4473.986,4951.9Z" transform="translate(-4470.951 -4947.12)" fill="#10172a"/>
          </g>
          <g id="Grupo_17252" data-name="Grupo 17252" transform="translate(17.395 275.609)">
            <path id="Trazado_31993" data-name="Trazado 31993" d="M3741.323,4959.2c9.9.133,39.106,1.445,39.54-.707.316-1.567-2.3-7.306-3.466-10.557-.106-.3-.2-.571-.279-.82h-15.928l-.462.82c-1.133,1.542-2.853,3.335-4.549,3.664C3753.216,4952.175,3740.89,4950.021,3741.323,4959.2Z" transform="translate(-3741.312 -4947.12)" fill="#10172a"/>
          </g>
          <g id="Grupo_17253" data-name="Grupo 17253" transform="translate(81.279 267.482)">
            <path id="Trazado_31994" data-name="Trazado 31994" d="M4553.81,4852.283l19,.176c-.131-.144-.261-.281-.383-.414-.053-.059-.106-.114-.157-.17-.785-.837-1.322-1.4-1.364-1.445l0,0s.314-2.714.725-6.681h-17.8c.448,4.213.819,6.8,1.073,6.861,0,0-.321.517-.822,1.267C4554,4852,4553.907,4852.141,4553.81,4852.283Z" transform="translate(-4553.81 -4843.747)" fill="#fff"/>
          </g>
          <g id="Grupo_17254" data-name="Grupo 17254" transform="translate(37.272 267.482)">
            <path id="Trazado_31995" data-name="Trazado 31995" d="M4010.039,4851.875c-.245-.775-.341-1.306-.194-1.437.263-.232.665-2.929,1.094-6.691h-16.45c.245,3.906.427,6.526.466,6.625l-.844,1.5,15.977.148C4010.069,4851.972,4010.055,4851.922,4010.039,4851.875Z" transform="translate(-3994.11 -4843.747)" fill="#fff"/>
          </g>
          <g id="Grupo_17255" data-name="Grupo 17255" transform="translate(80.689 261.183)">
            <path id="Trazado_31996" data-name="Trazado 31996" d="M4546.3,4763.643c.217,2.354.422,4.477.616,6.3h17.8c.193-1.873.408-4.022.625-6.3Z" transform="translate(-4546.296 -4763.643)" fill="#ffc0b0"/>
          </g>
          <g id="Grupo_17256" data-name="Grupo 17256" transform="translate(37.265 261.183)">
            <path id="Trazado_31997" data-name="Trazado 31997" d="M3994.022,4763.643c.138,2.3.268,4.445.385,6.3h16.45c.217-1.89.441-4.048.66-6.3Z" transform="translate(-3994.022 -4763.643)" fill="#ffc0b0"/>
          </g>
          <g id="Grupo_17257" data-name="Grupo 17257" transform="translate(8.585 69.783)">
            <path id="Trazado_31998" data-name="Trazado 31998" d="M3629.269,2329.368q.082.157.164.318v0Z" transform="translate(-3629.269 -2329.368)" fill="#ffc0b0"/>
          </g>
          <g id="Grupo_17258" data-name="Grupo 17258" transform="translate(9.087 70.757)">
            <path id="Trazado_31999" data-name="Trazado 31999" d="M3635.691,2341.847l.043.084c-.029-.056-.057-.112-.086-.167Z" transform="translate(-3635.648 -2341.764)" fill="#ffc0b0"/>
          </g>
          <g id="Grupo_17259" data-name="Grupo 17259" transform="translate(11.164 74.677)">
            <path id="Trazado_32000" data-name="Trazado 32000" d="M3662.063,2391.61q.253.465.513.937Q3662.315,2392.075,3662.063,2391.61Z" transform="translate(-3662.063 -2391.61)" fill="#ffc0b0"/>
          </g>
          <g id="Grupo_17260" data-name="Grupo 17260" transform="translate(20.157 63.383)">
            <path id="Trazado_32001" data-name="Trazado 32001" d="M3776.439,2247.977q.311.363.624.724l-.387-.448C3776.6,2248.161,3776.517,2248.069,3776.439,2247.977Z" transform="translate(-3776.439 -2247.977)" fill="#ffc0b0"/>
          </g>
          <g id="Grupo_17261" data-name="Grupo 17261" transform="translate(21.21 64.604)">
            <path id="Trazado_32002" data-name="Trazado 32002" d="M3789.833,2263.5q.447.513.9,1.022c-.1-.113-.2-.228-.3-.341Q3790.13,2263.84,3789.833,2263.5Z" transform="translate(-3789.833 -2263.497)" fill="#ffc0b0"/>
          </g>
          <g id="Grupo_17262" data-name="Grupo 17262" transform="translate(22.837 66.449)">
            <path id="Trazado_32003" data-name="Trazado 32003" d="M3810.523,2286.969q.344.384.686.763Q3810.865,2287.354,3810.523,2286.969Z" transform="translate(-3810.523 -2286.969)" fill="#ffc0b0"/>
          </g>
          <g id="Grupo_17263" data-name="Grupo 17263" transform="translate(24.128 67.879)">
            <path id="Trazado_32004" data-name="Trazado 32004" d="M3828.358,2306.689c-.052-.053-.1-.108-.156-.162s-.1-.111-.156-.168c-.365-.392-.735-.792-1.106-1.2Q3827.658,2305.945,3828.358,2306.689Z" transform="translate(-3826.94 -2305.16)" fill="#ffc0b0"/>
          </g>
          <g id="Grupo_17264" data-name="Grupo 17264" transform="translate(84.515 45.182)">
            <path id="Trazado_32005" data-name="Trazado 32005" d="M4631.627,2055.9c0-.312-.009-.617-.016-.919,0-.159-.009-.316-.013-.472-.012-.3-.023-.595-.039-.881s-.034-.579-.054-.856c0-.069-.011-.137-.016-.205q-.024-.3-.054-.6c-.027-.261-.054-.513-.086-.754-.062-.486-.134-.933-.218-1.334-.009-.044-.018-.089-.03-.134s-.025-.114-.038-.173v0c-.039-.178-.085-.371-.138-.574-.034-.143-.073-.292-.113-.447q-.149-.566-.341-1.226c-.037-.123-.073-.248-.109-.377-.009-.032-.02-.063-.029-.1-.026-.091-.053-.182-.082-.275-.011-.036-.022-.074-.034-.111l-.068-.225c-.023-.075-.045-.152-.07-.229-.211-.693-.447-1.435-.706-2.218-.084-.259-.173-.525-.263-.792-.6-1.792-1.3-3.75-2.057-5.748-.074-.2-.152-.4-.229-.6-.043-.111-.086-.224-.131-.338-.071-.188-.144-.374-.218-.563s-.157-.4-.236-.6c-.114-.288-.228-.574-.346-.861a79.871,79.871,0,0,0-4.915-10.4q-.269-.451-.534-.858h0c-.07-.109-.14-.215-.21-.318-.035-.052-.07-.1-.1-.155-.16-.229-.315-.447-.47-.649-.039-.052-.078-.1-.115-.15s-.078-.1-.116-.145-.075-.094-.114-.139a6.791,6.791,0,0,0-.838-.856l-.09-.075a2.975,2.975,0,0,0-.361-.25,16.736,16.736,0,0,0-1.677-.847c-.075-.034-.152-.068-.23-.1l-.134-.056c-.084-.036-.168-.071-.252-.1l-.256-.1c-.048-.018-.1-.039-.146-.057s-.116-.045-.174-.066c-.25-.1-.506-.188-.768-.279-.086-.029-.171-.059-.256-.086q-.559-.188-1.14-.361c-.156-.047-.315-.1-.477-.14l-.125-.036c-.093-.025-.188-.052-.283-.077l-.3-.083c-.234-.061-.468-.122-.706-.181-.17-.04-.343-.084-.516-.124l-.464-.108-.467-.1q-.739-.159-1.487-.3c-.238-.043-.477-.086-.717-.127-.212-.037-.423-.073-.632-.107s-.4-.061-.594-.091c-.032,0-.066-.011-.1-.016-.187-.027-.375-.054-.562-.079l-.56-.075-.123-.013c-.187-.022-.373-.045-.557-.066l-.161-.018q-.2.19-.43.422c-2.622,2.666-7.691,9.4-8.354,22.116-.271,5.217-.386,13.778-.412,23.184-.012,4.063-.006,8.285.009,12.463.033,8.614.109,17.042.182,23.519.016,1.391.031,2.692.045,3.885l2.563,71.554h16.215v-74.766c0-.052,0-.1,0-.158-.016-.323-.016-1.314,0-2.724,0-.068,0-.139,0-.208,0-.125,0-.252,0-.384,0-.374.009-.773.014-1.192,0-.186,0-.376.009-.57,0-.074,0-.152,0-.229,0-.136,0-.275.007-.414.008-.51.016-1.044.024-1.594,0-.05,0-.1,0-.152,0-.15,0-.3.008-.454,0-.074,0-.152,0-.229,0-.152,0-.307.007-.461,0-.12,0-.24.006-.36s0-.23,0-.343c.008-.313.012-.631.019-.951,0-.239.01-.479.011-.719.007-.32.014-.643.018-.965.01-.481.019-.965.028-1.446,0-.136,0-.275.006-.413l.016-.779,0-.134.071-3.485c0-.125,0-.25.007-.375q.006-.334.014-.654l0-.109c0-.082,0-.162,0-.241,0-.115,0-.227.007-.338l0-.089c0-.19.007-.374.011-.552v-.007c0-.065,0-.129,0-.192,0-.109,0-.218.007-.322,0-.057,0-.114,0-.168,0-.111,0-.218.007-.323,0-.054,0-.106,0-.156s0-.1,0-.152l.006-.386c0-.037,0-.073,0-.109l.011-.5.009-.472,0-.155c0-.043,0-.086,0-.127s0-.057,0-.084l0-.052,0-.1,0-.118,0-.145a.487.487,0,0,1,0-.062v-.056s.442.024,1.174.04h.036c.125,0,.257.007.4.01.034,0,.071,0,.107,0,.746.011,1.687.013,2.722-.014l.229-.006.582-.021c.136,0,.272-.011.411-.018l.391-.021c.844-.047,1.714-.118,2.563-.22.206-.022.413-.05.615-.079a.023.023,0,0,1,.012,0c.133-.02.268-.041.4-.059.447-.073.883-.152,1.3-.247.094-.021.187-.041.277-.064a.056.056,0,0,0,.016,0c.1-.023.192-.048.289-.073s.188-.05.279-.078c.184-.052.363-.109.536-.168s.338-.117.5-.184c.066-.027.129-.054.192-.082.168-.075.328-.152.475-.234.068-.039.134-.074.2-.116s.127-.079.186-.12.1-.072.15-.109.1-.078.146-.118l.08-.07c.034-.032.068-.066.1-.1s.059-.064.088-.1.053-.059.08-.093a4.638,4.638,0,0,0,.429-.654q.078-.146.157-.307c.1-.215.2-.449.3-.7.047-.125.1-.254.141-.386s.091-.27.137-.411.088-.286.131-.433.084-.3.125-.454c.02-.078.038-.155.059-.234s.041-.159.059-.241c.038-.161.077-.325.113-.49.019-.084.039-.168.055-.254.111-.52.213-1.066.309-1.634.02-.136.043-.275.063-.416.125-.8.232-1.643.323-2.5.013-.129.028-.259.039-.388.014-.152.029-.3.043-.459.01-.1.018-.2.028-.292.041-.5.077-1.015.109-1.524q.02-.316.036-.631c0-.113.011-.227.018-.341.011-.295.025-.59.034-.883.007-.214.013-.427.018-.638,0-.193.009-.382.011-.572,0-.055,0-.109,0-.162,0-.223,0-.441,0-.658C4631.63,2056.267,4631.627,2056.083,4631.627,2055.9Z" transform="translate(-4594.956 -2016.495)" fill="#fff"/>
          </g>
          <g id="Grupo_17266" data-name="Grupo 17266" transform="translate(70.715 100.343)" opacity="0.15">
            <g id="Grupo_17265" data-name="Grupo 17265">
              <path id="Trazado_32006" data-name="Trazado 32006" d="M4433.269,2721.062l19.389-.167s-3.643,3.244-6.218,3.72-15.729-.476-16.759,0-5.5,1.823-6.791,1.466-3.435-3.113-3.435-3.113l6.66-4.93Z" transform="translate(-4419.454 -2718.037)" fill="#0062b5"/>
            </g>
          </g>
          <g id="Grupo_17267" data-name="Grupo 17267" transform="translate(72.161 89.444)">
            <path id="Trazado_32007" data-name="Trazado 32007" d="M4437.841,2582.41s8.957-.745,12.154-1.475,6.073-1.507,6.073-1.507v13.855s-15.823.265-17-.156S4437.841,2582.41,4437.841,2582.41Z" transform="translate(-4437.841 -2579.428)" fill="#fff"/>
          </g>
          <g id="Grupo_17269" data-name="Grupo 17269" transform="translate(72.299 91.785)" opacity="0.15">
            <g id="Grupo_17268" data-name="Grupo 17268">
              <path id="Trazado_32008" data-name="Trazado 32008" d="M4439.591,2614.4c.148,2.812.456,5.923,1.091,6.151a30.683,30.683,0,0,0,4.581.225c.185-1.7.938-8.907.7-11.583-2.473.281-4.921.5-5.971.6C4439.839,2610.8,4439.692,2612.508,4439.591,2614.4Z" transform="translate(-4439.591 -2609.197)" fill="#0062b5"/>
            </g>
          </g>
          <g id="Grupo_17271" data-name="Grupo 17271" transform="translate(84.521 73.163)" opacity="0.15">
            <g id="Grupo_17270" data-name="Grupo 17270">
              <path id="Trazado_32009" data-name="Trazado 32009" d="M4595.038,2390.1s19.439-1.18,20.232-4.033-.834-13.709-.834-13.709-2.177,9.747-3.207,10.7S4595.038,2390.1,4595.038,2390.1Z" transform="translate(-4595.038 -2372.36)" fill="#0062b5"/>
            </g>
          </g>
          <g id="Grupo_17272" data-name="Grupo 17272" transform="translate(6.662 65.996)">
            <path id="Trazado_32010" data-name="Trazado 32010" d="M3604.81,2281.205q.075.146.152.3C3604.91,2281.4,3604.858,2281.3,3604.81,2281.205Z" transform="translate(-3604.81 -2281.205)" fill="#fff"/>
          </g>
          <g id="Grupo_17273" data-name="Grupo 17273" transform="translate(6.886 66.436)">
            <path id="Trazado_32011" data-name="Trazado 32011" d="M3607.709,2286.911h0c-.019-.037-.038-.075-.056-.113Z" transform="translate(-3607.652 -2286.798)" fill="#fff"/>
          </g>
          <g id="Grupo_17274" data-name="Grupo 17274" transform="translate(6.943 66.549)">
            <path id="Trazado_32012" data-name="Trazado 32012" d="M3608.494,2288.47h0l-.117-.231Z" transform="translate(-3608.377 -2288.239)" fill="#fff"/>
          </g>
          <g id="Grupo_17275" data-name="Grupo 17275" transform="translate(7.06 66.781)">
            <path id="Trazado_32013" data-name="Trazado 32013" d="M3609.929,2291.309l.2.392c-.068-.133-.135-.264-.2-.391l-.06-.118C3609.889,2291.231,3609.909,2291.27,3609.929,2291.309Z" transform="translate(-3609.869 -2291.192)" fill="#fff"/>
          </g>
          <g id="Grupo_17276" data-name="Grupo 17276" transform="translate(8.585 69.783)">
            <path id="Trazado_32014" data-name="Trazado 32014" d="M3629.269,2329.368q.082.157.164.318v0Z" transform="translate(-3629.269 -2329.368)" fill="#fff"/>
          </g>
          <g id="Grupo_17277" data-name="Grupo 17277" transform="translate(9.087 70.757)">
            <path id="Trazado_32015" data-name="Trazado 32015" d="M3635.691,2341.847l.043.084c-.029-.056-.057-.112-.086-.167Z" transform="translate(-3635.648 -2341.764)" fill="#fff"/>
          </g>
          <g id="Grupo_17278" data-name="Grupo 17278" transform="translate(9.26 71.092)">
            <path id="Trazado_32016" data-name="Trazado 32016" d="M3637.855,2346.017q.2.387.409.785l-.034-.063C3638.1,2346.5,3637.977,2346.254,3637.855,2346.017Z" transform="translate(-3637.855 -2346.017)" fill="#fff"/>
          </g>
          <g id="Grupo_17279" data-name="Grupo 17279" transform="translate(9.81 72.143)">
            <path id="Trazado_32017" data-name="Trazado 32017" d="M3644.84,2359.39l.311.591c-.105-.2-.209-.394-.311-.589Z" transform="translate(-3644.84 -2359.39)" fill="#fff"/>
          </g>
          <g id="Grupo_17280" data-name="Grupo 17280" transform="translate(11.164 74.677)">
            <path id="Trazado_32018" data-name="Trazado 32018" d="M3662.063,2391.61q.253.465.513.937Q3662.315,2392.075,3662.063,2391.61Z" transform="translate(-3662.063 -2391.61)" fill="#fff"/>
          </g>
          <g id="Grupo_17281" data-name="Grupo 17281" transform="translate(20.157 63.383)">
            <path id="Trazado_32019" data-name="Trazado 32019" d="M3776.439,2247.977q.311.363.624.724l-.387-.448C3776.6,2248.161,3776.517,2248.069,3776.439,2247.977Z" transform="translate(-3776.439 -2247.977)" fill="#fff"/>
          </g>
          <g id="Grupo_17282" data-name="Grupo 17282" transform="translate(21.21 64.604)">
            <path id="Trazado_32020" data-name="Trazado 32020" d="M3789.833,2263.5q.447.513.9,1.022c-.1-.113-.2-.228-.3-.341Q3790.13,2263.84,3789.833,2263.5Z" transform="translate(-3789.833 -2263.497)" fill="#fff"/>
          </g>
          <g id="Grupo_17283" data-name="Grupo 17283" transform="translate(22.837 66.449)">
            <path id="Trazado_32021" data-name="Trazado 32021" d="M3810.523,2286.969q.344.384.686.763Q3810.865,2287.354,3810.523,2286.969Z" transform="translate(-3810.523 -2286.969)" fill="#fff"/>
          </g>
          <g id="Grupo_17284" data-name="Grupo 17284" transform="translate(24.128 67.879)">
            <path id="Trazado_32022" data-name="Trazado 32022" d="M3826.94,2305.16q.718.785,1.418,1.529c-.052-.053-.1-.108-.156-.162s-.1-.111-.156-.168C3827.682,2305.967,3827.312,2305.567,3826.94,2305.16Z" transform="translate(-3826.94 -2305.16)" fill="#fff"/>
          </g>
          <g id="Grupo_17285" data-name="Grupo 17285" transform="translate(6.662 45.141)">
            <path id="Trazado_32023" data-name="Trazado 32023" d="M3667.1,2016.005c-.284.021-.577.045-.874.07q-.34.026-.69.061l-.223.021-.513.05-.427.045c-.211.023-.425.045-.64.071-.258.029-.52.061-.781.093l-.406.052c-.415.055-.833.112-1.249.175-.263.038-.524.079-.785.122s-.545.094-.813.141c-.129.025-.257.048-.381.073s-.262.05-.391.077-.259.052-.386.079q-.619.13-1.205.28c-.159.039-.316.082-.47.123-.055.016-.109.029-.162.045-.115.032-.229.066-.342.1s-.232.068-.343.1-.213.068-.315.1c-.068.022-.136.047-.2.07s-.155.055-.229.084a.082.082,0,0,0-.021.007l-.23.089c-.175.068-.343.138-.5.213-.09.041-.179.082-.265.125-.059.027-.116.056-.173.088s-.088.044-.132.068l-.188.1-.213.131c-.047.029-.09.06-.134.091a1.441,1.441,0,0,0-.134.1,3.536,3.536,0,0,0-.313.254c-2.731,2.493-12.374,17.145-17.945,23.945-1.652,2.015-2.946,3.341-3.6,3.453a2.473,2.473,0,0,1-1.46-.611c-.048-.032-.1-.066-.147-.1-.023-.016-.045-.034-.07-.05-.068-.048-.138-.1-.208-.155-.286-.216-.6-.463-.924-.742-.082-.071-.166-.141-.25-.216-.436-.379-.9-.808-1.4-1.279l-.312-.3c-.533-.518-1.1-1.079-1.675-1.675q-.3-.3-.6-.62l-.356-.377c-.109-.113-.216-.227-.326-.344l0,0c-.052-.053-.1-.109-.156-.163s-.1-.111-.156-.168c-.365-.391-.735-.792-1.106-1.2l-.264-.29-.341-.377q-.344-.378-.686-.763-.365-.409-.73-.823c-.1-.113-.2-.228-.3-.341q-.3-.339-.6-.681l-.429-.5-.387-.448c-.079-.093-.159-.185-.236-.277q-.566-.661-1.119-1.318l-.265-.315c-.6-.716-1.184-1.422-1.744-2.109l-.266-.327-.187-.231c-.1-.123-.2-.246-.3-.367l-.344-.429-.231-.29q-.215-.271-.422-.535s-8.621,8.533-8.621,8.534l.152.3.071.14c.019.037.038.074.057.113.039.076.078.153.117.232.021.039.041.078.06.117l.2.392c.292.578.608,1.2.948,1.868l.078.155.241.47q.082.157.164.319c.062.121.125.243.188.367.05.1.1.192.149.289.015.028.029.055.044.083l.043.084.087.167.409.785.14.266.312.591q.5.947,1.043,1.942.253.465.513.937.4.721.813,1.456l.176.31.176.31.01.016c.224.391.452.784.68,1.176l.048.083q.249.426.5.851c.084.143.17.286.256.427q.256.426.518.851l.143.231.121.2q.4.636.8,1.27l.27.419,0,0c.134.2.265.407.4.609.265.4.536.806.808,1.2.068.1.136.2.2.3.136.2.275.392.411.588.07.1.138.195.208.292.275.386.551.769.835,1.144.141.189.282.377.423.561.071.093.143.184.214.277.155.2.311.4.47.6q.513.647,1.035,1.255.323.382.654.747l.218.242c.146.162.291.32.441.475l.22.231c.073.078.147.152.22.228q.221.224.443.442c.075.075.147.146.222.216l.223.211q.221.208.445.409.123.112.245.218l.2.17c.141.12.282.238.422.352.307.25.616.483.922.7.075.055.15.107.225.159.136.093.273.186.409.272.32.207.64.4.96.568.068.036.134.07.2.1s.15.078.224.112c.1.048.191.093.286.134s.2.086.293.127c.179.075.36.144.541.2.054.021.111.039.166.055.077.025.152.05.229.071s.155.045.231.063a.308.308,0,0,0,.043.011l.2.046a.119.119,0,0,0,.039.009c.066.016.134.029.2.041a.028.028,0,0,0,.013,0c.118.023.236.041.354.057.056.01.114.016.168.021h.009l.052.006.157.016.073,0,.059,0c.076,0,.151.009.227.01q.195.005.387,0l.216,0h.051l.167,0,.108,0c.092,0,.184-.008.275-.013h0l.116-.007c.054,0,.105-.007.161-.011.091-.007.181-.013.272-.023l.1-.01.074-.008c.122-.014.244-.027.364-.043l.081-.011c.059-.009.118-.015.176-.025l.065-.01c.071-.01.14-.022.208-.034q.275-.046.544-.1c.049-.011.1-.021.149-.033h0l.047-.012c.029-.005.058-.011.086-.018s.084-.018.125-.03l.232-.058.167-.044.175-.049c.078-.021.154-.044.23-.067l.029-.009.083-.025c.107-.031.211-.068.315-.1l.072-.025c.161-.054.32-.111.476-.17.078-.03.156-.06.233-.092.043-.017.086-.034.128-.052.066-.027.132-.054.2-.082l.046-.019q.41-.177.8-.373c.083-.041.166-.083.248-.126a.5.5,0,0,0,.048-.025l.208-.111a.337.337,0,0,0,.039-.021c.083-.045.165-.09.246-.137l.234-.135.034-.02.134-.081.038-.024c.083-.05.165-.1.246-.152l.026-.017c.074-.047.147-.094.22-.143l.022-.013c.074-.049.149-.1.223-.15.232-.157.459-.319.68-.484l.056-.042.061-.047.075-.058.135-.1q.131-.1.259-.207.093-.074.183-.15l.094-.078c.059-.049.116-.1.173-.148l.173-.15c.086-.075.169-.151.253-.227.03-.025.059-.052.087-.078l.161-.147c.218-.2.428-.407.63-.616l.026-.027c.043-.043.084-.086.125-.129l.15-.156c.1-.1.2-.207.29-.311q.252-.275.488-.548l.116-.136.115-.136c.076-.09.15-.181.225-.272a25.275,25.275,0,0,0,3.278-5.133c.291,7.1.5,14.22.491,21.331-.012,9.925-3.389,20.388-4.912,30.187-1.776,11.429-2.891,22.731-4.866,34.126-1,5.763-1.975,11.531-2.875,17.31q-.661,4.241-1.263,8.491c-.2,1.417-.411,2.834-.581,4.255-.172,1.439-.523,1.958,1.055,1.958h8.16s12.8-40.473,16.626-72.476a134.83,134.83,0,0,0,1.064-15.958c-.058-32.33,8.291-68.752,8.291-68.752Z" transform="translate(-3604.81 -2015.971)" fill="#fff"/>
          </g>
          <g id="Grupo_17287" data-name="Grupo 17287" transform="translate(6.661 57.462)" opacity="0.15">
            <g id="Grupo_17286" data-name="Grupo 17286">
              <path id="Trazado_32024" data-name="Trazado 32024" d="M3615.168,2174.844l-.266-.327-.187-.231-.3-.367-.345-.429-.23-.29q-.215-.271-.422-.535l-8.621,8.533h0l.152.3.072.14.057.113h0l.117.231s0,0,0,0c.021.039.04.078.06.117l.2.392c.292.578.608,1.2.948,1.868.026.052.052.1.078.155l.241.47c.054.1.108.208.162.314l9.6-8.862Q3615.808,2175.628,3615.168,2174.844Z" transform="translate(-3604.8 -2172.664)" fill="#0062b5"/>
            </g>
          </g>
          <g id="Grupo_17288" data-name="Grupo 17288" transform="translate(27.971 72.428)">
            <path id="Trazado_32025" data-name="Trazado 32025" d="M3875.827,2363.011l10.416,35.521.885,3.019h31.443l-11.3-38.54Z" transform="translate(-3875.827 -2363.011)" fill="#000a18"/>
          </g>
          <g id="Grupo_17289" data-name="Grupo 17289" transform="translate(27.971 72.428)">
            <path id="Trazado_32026" data-name="Trazado 32026" d="M3875.827,2363.011l10.416,35.521h26.2l-10.416-35.521Z" transform="translate(-3875.827 -2363.011)" fill="#002c51"/>
          </g>
          <g id="Grupo_17290" data-name="Grupo 17290" transform="translate(53.979 89.444)">
            <path id="Trazado_32027" data-name="Trazado 32027" d="M4224.779,2582.41s-5.434-2.592-6.554-2.646h0a1.074,1.074,0,0,0-1.171,1.1,3.162,3.162,0,0,0,1.037,2.2c-3.672-.751-6.756-1.962-7.527-2.9s-3.614-1.031-3.952,0,5.2,10.044,8.53,11.075a85.474,85.474,0,0,0,10.866,1.883Z" transform="translate(-4206.597 -2579.428)" fill="#ffc0b0"/>
          </g>
          <g id="Grupo_17291" data-name="Grupo 17291" transform="translate(70.715 90.675)">
            <path id="Trazado_32028" data-name="Trazado 32028" d="M4419.984,2595.078l-.53,14.6,6.1,1.968.767-16.249Z" transform="translate(-4419.454 -2595.078)" fill="#fff"/>
          </g>
          <g id="Grupo_17292" data-name="Grupo 17292" transform="translate(4.153 54.269)">
            <path id="Trazado_32029" data-name="Trazado 32029" d="M3583.522,2132.056l-10.623,10.027,2.966,5.685,11.95-11.037Z" transform="translate(-3572.9 -2132.056)" fill="#fff"/>
          </g>
          <g id="Grupo_17295" data-name="Grupo 17295" transform="translate(55.704 44.219)">
            <g id="Grupo_17293" data-name="Grupo 17293" transform="translate(0.421 0.211)" opacity="0.26">
              <path id="Trazado_32030" data-name="Trazado 32030" d="M4251.617,2007.216a.478.478,0,0,0-.625-.257c-3.39,1.412-6.325,4.2-9.237,8.79a53.382,53.382,0,0,0-5.752,12.263,2.361,2.361,0,0,0-2.081,2.12,2.125,2.125,0,1,0,4.159.614,2.419,2.419,0,0,0-1.141-2.527,52.429,52.429,0,0,1,5.622-11.958c2.8-4.412,5.6-7.088,8.8-8.421A.477.477,0,0,0,4251.617,2007.216Z" transform="translate(-4233.892 -2006.922)" fill="#1d1d1b"/>
            </g>
            <g id="Grupo_17294" data-name="Grupo 17294">
              <path id="Trazado_32031" data-name="Trazado 32031" d="M4246.258,2004.536a.477.477,0,0,0-.625-.257c-3.39,1.411-6.325,4.2-9.237,8.79a53.385,53.385,0,0,0-5.752,12.263,2.361,2.361,0,0,0-2.081,2.12,2.125,2.125,0,1,0,4.159.614,2.418,2.418,0,0,0-1.141-2.527,52.449,52.449,0,0,1,5.622-11.958c2.8-4.412,5.6-7.088,8.8-8.42A.478.478,0,0,0,4246.258,2004.536Z" transform="translate(-4228.533 -2004.242)" fill="#002c51"/>
            </g>
          </g>
          <g id="Grupo_17298" data-name="Grupo 17298" transform="translate(81.078 44.129)">
            <g id="Grupo_17296" data-name="Grupo 17296" transform="translate(0.465 0.571)" opacity="0.26">
              <path id="Trazado_32032" data-name="Trazado 32032" d="M4571.075,2037.186a13.794,13.794,0,0,0-1.476-4.394,5.677,5.677,0,0,0-3.367-2.775l-.053-12.03a12.882,12.882,0,0,0-.561-4.481,4.714,4.714,0,0,0-3.473-3.143.526.526,0,0,0-.159,1.04,3.674,3.674,0,0,1,2.646,2.471,11.93,11.93,0,0,1,.494,4.116l.052,11.894a4.274,4.274,0,0,0-3.088,1.213,9.22,9.22,0,0,0-2.017,3.153,34.987,34.987,0,0,0-2.912,13.453.521.521,0,0,0,.031.184,1.807,1.807,0,0,0-.017.244c0,.617.315,1.118.7,1.118s.7-.5.7-1.118a1.332,1.332,0,0,0-.355-.971,33.948,33.948,0,0,1,2.811-12.488,8.309,8.309,0,0,1,1.77-2.805,3.79,3.79,0,0,1,.829-.586,2.827,2.827,0,0,1,1.118-.339,4.9,4.9,0,0,1,.6.02,3.5,3.5,0,0,1,.542.077,3.558,3.558,0,0,1,1.017.4,4.3,4.3,0,0,1,.718.531,4.868,4.868,0,0,1,.469.493,5.88,5.88,0,0,1,.426.586,7.285,7.285,0,0,1,.384.68c.126.253.24.513.343.776.112.287.212.579.3.873q.147.482.264.972c.082.341.154.684.218,1.028a39.758,39.758,0,0,1,.462,10.135,1.2,1.2,0,0,0-.473,1.057c0,.617.314,1.118.7,1.118s.7-.5.7-1.118c0-.014,0-.029,0-.043a.517.517,0,0,0,.059-.2A41.477,41.477,0,0,0,4571.075,2037.186Z" transform="translate(-4557.164 -2010.357)" fill="#1d1d1b"/>
            </g>
            <g id="Grupo_17297" data-name="Grupo 17297">
              <path id="Trazado_32033" data-name="Trazado 32033" d="M4565.166,2029.93a13.783,13.783,0,0,0-1.476-4.394,5.677,5.677,0,0,0-3.367-2.775l-.053-12.03a12.894,12.894,0,0,0-.561-4.481,4.714,4.714,0,0,0-3.473-3.143.526.526,0,0,0-.159,1.04,3.674,3.674,0,0,1,2.646,2.471,11.918,11.918,0,0,1,.494,4.116l.052,11.894a4.274,4.274,0,0,0-3.088,1.213,9.222,9.222,0,0,0-2.017,3.153,35,35,0,0,0-2.912,13.453.522.522,0,0,0,.031.184,1.805,1.805,0,0,0-.017.244c0,.618.314,1.118.7,1.118s.7-.5.7-1.118a1.332,1.332,0,0,0-.355-.971,33.968,33.968,0,0,1,2.811-12.488,8.309,8.309,0,0,1,1.77-2.805,3.8,3.8,0,0,1,.829-.586,2.825,2.825,0,0,1,1.118-.34,4.92,4.92,0,0,1,.6.02,3.456,3.456,0,0,1,.542.077,3.554,3.554,0,0,1,1.017.4,4.3,4.3,0,0,1,.718.531,4.894,4.894,0,0,1,.469.493,5.818,5.818,0,0,1,.426.586,7.283,7.283,0,0,1,.384.68c.126.253.24.513.343.776.112.287.212.579.3.873q.147.482.264.972c.082.341.154.684.218,1.028a39.779,39.779,0,0,1,.463,10.135,1.2,1.2,0,0,0-.473,1.057c0,.617.314,1.118.7,1.118s.7-.5.7-1.118c0-.014,0-.028,0-.042a.527.527,0,0,0,.059-.2A41.478,41.478,0,0,0,4565.166,2029.93Z" transform="translate(-4551.254 -2003.101)" fill="#002c51"/>
            </g>
          </g>
          <g id="Grupo_17299" data-name="Grupo 17299" transform="translate(72.939 34.468)">
            <path id="Trazado_32034" data-name="Trazado 32034" d="M4447.731,1885.5v9.237c.339.986,1.515,1.425,3.043,1.493.169.008.344.011.522.009h0c4.276-.031,10.676-2.566,9.931-4.217a4.609,4.609,0,0,1-.187-.5c-.943-2.931-1.573-11.23-1.6-11.3Z" transform="translate(-4447.731 -1880.226)" fill="#ffc0b0"/>
          </g>
          <g id="Grupo_17300" data-name="Grupo 17300" transform="translate(72.938 34.467)">
            <path id="Trazado_32035" data-name="Trazado 32035" d="M4459.724,1883.2c-.175.345-.356.688-.55,1.024a10.429,10.429,0,0,1-8.346,5.651,7.635,7.635,0,0,1-3.1-.157v-4.228l11.706-5.278C4459.442,1880.173,4459.544,1881.453,4459.724,1883.2Z" transform="translate(-4447.729 -1880.213)" fill="#c9978a"/>
          </g>
          <g id="Grupo_17301" data-name="Grupo 17301" transform="translate(66.514 9.278)">
            <path id="Trazado_32036" data-name="Trazado 32036" d="M4366.062,1570.314c.016.413.034.816.046,1.2.162,4.936,2.046,20.046,9.419,19.945s14.371-12.188,14.371-12.188c2.853-6.246,1.184-18.435-11.894-19.341-5.877-.407-8.907.894-10.447,2.9C4365.938,1564.938,4365.965,1567.821,4366.062,1570.314Z" transform="translate(-4366.024 -1559.857)" fill="#ffc0b0"/>
          </g>
          <g id="Grupo_17302" data-name="Grupo 17302" transform="translate(66.514 10.757)">
            <path id="Trazado_32037" data-name="Trazado 32037" d="M4366.062,1587.645c3.57-2.526,3.477-8.977,3.477-8.977l-1.983,1.494C4365.938,1582.269,4365.965,1585.153,4366.062,1587.645Z" transform="translate(-4366.024 -1578.668)" fill="#c9978a"/>
          </g>
          <g id="Grupo_17303" data-name="Grupo 17303" transform="translate(70.029 10.758)">
            <path id="Trazado_32038" data-name="Trazado 32038" d="M4410.725,1578.671s4.72,14.455,21.509,9.839l-7.684-7.778Z" transform="translate(-4410.725 -1578.671)" fill="#c9978a"/>
          </g>
          <g id="Grupo_17304" data-name="Grupo 17304" transform="translate(87.635 20.277)">
            <circle id="Elipse_1006" data-name="Elipse 1006" cx="3.149" cy="3.149" r="3.149" transform="translate(0 0.519) rotate(-4.731)" fill="#ffc0b0"/>
          </g>
          <g id="Grupo_17305" data-name="Grupo 17305" transform="translate(64.916 6.183)">
            <path id="Trazado_32039" data-name="Trazado 32039" d="M4350.81,1525.063s9.15,14.1,24.489,9.1a44.956,44.956,0,0,0-8.938-13.375l-14.8-.3-5.867,10.657.7,2.314S4348.711,1533.567,4350.81,1525.063Z" transform="translate(-4345.697 -1520.488)" fill="#fd3540"/>
          </g>
        </g>
      </g>
    </g>
  </g>
</svg>
