<svg xmlns="http://www.w3.org/2000/svg" xmlns:xlink="http://www.w3.org/1999/xlink" width="439.078" height="308.416" viewBox="0 0 439.078 308.416">
  <defs>
    <clipPath id="clip-path">
      <path id="Trazado_24878" data-name="Trazado 24878" d="M227.408,361.915l-16.239-.278.38-21.87,16.237.286Z" transform="translate(-211.169 -339.767)" fill="#e7c693"/>
    </clipPath>
    <clipPath id="clip-path-2">
      <path id="Trazado_24945" data-name="Trazado 24945" d="M405.426,660.62s-1.941,4.409-8.4,4.425-48.524.129-54.858,0-7.158-4.425-7.158-4.425L327.523,546.4h88.689Z" transform="translate(-327.523 -546.401)" fill="none"/>
    </clipPath>
    <clipPath id="clip-path-3">
      <path id="Trazado_25014" data-name="Trazado 25014" d="M538.758,661.042s1.94,4.409,8.4,4.424,48.525.129,54.859,0,7.157-4.424,7.157-4.424l7.491-114.22H527.972Z" transform="translate(-527.972 -546.822)" fill="none"/>
    </clipPath>
  </defs>
  <g id="Grupo_17365" data-name="Grupo 17365" transform="translate(-148.447 -251.787)">
    <path id="Rectángulo_2473" data-name="Rectángulo 2473" d="M6.037,0H63.329a6.037,6.037,0,0,1,6.037,6.037v0a6.037,6.037,0,0,1-6.037,6.037H6.037A6.037,6.037,0,0,1,0,6.037v0A6.037,6.037,0,0,1,6.037,0Z" transform="translate(164.626 548.128)" fill="#c9c4bd" opacity="0.6"/>
    <path id="Rectángulo_2474" data-name="Rectángulo 2474" d="M6.037,0h73.3a6.037,6.037,0,0,1,6.037,6.037v0a6.037,6.037,0,0,1-6.037,6.037H6.037A6.037,6.037,0,0,1,0,6.037v0A6.037,6.037,0,0,1,6.037,0Z" transform="translate(256.55 548.128)" fill="#c9c4bd" opacity="0.6"/>
    <rect id="Rectángulo_2475" data-name="Rectángulo 2475" width="78.634" height="12.075" rx="6.037" transform="translate(481.761 548.128)" fill="#c9c4bd" opacity="0.6"/>
    <rect id="Rectángulo_2476" data-name="Rectángulo 2476" width="85.374" height="12.075" rx="6.037" transform="translate(378.597 548.128)" fill="#c9c4bd" opacity="0.6"/>
    <g id="Grupo_12109" data-name="Grupo 12109" transform="translate(148.447 251.787)">
      <g id="Grupo_12106" data-name="Grupo 12106" transform="translate(0 0)">
        <g id="Grupo_12094" data-name="Grupo 12094">
          <g id="Grupo_12088" data-name="Grupo 12088">
            <g id="Grupo_12087" data-name="Grupo 12087">
              <g id="Grupo_12081" data-name="Grupo 12081" transform="translate(0 52.953)">
                <g id="Grupo_12080" data-name="Grupo 12080">
                  <path id="Trazado_24858" data-name="Trazado 24858" d="M154.677,405.325c.879.119,1.774.223,2.7.313,1.955.19,4.36,1.506,6.984,2.621-1.827,7.152-5.648,27.17-5.75,32.585-.125,6.594.521,43.483.527,43.8l-9.862,1.168c-.219-1.405-.942-38.376-.815-45.162C148.573,434.778,152.321,414.23,154.677,405.325Z" transform="translate(-148.447 -365.867)" fill="#e7c693"/>
                  <path id="Trazado_24859" data-name="Trazado 24859" d="M300.173,403.6c-7.39,0-16.8-5.363-23.277-10.551-4.785-3.831-9.731-7.793-13.85-8.618L259.9,373.686c2.678-.309,8.825,1.4,10.562,2.219,4.564,2.141,8.846,5.57,13.026,8.917,5.086,4.074,13.189,8.753,16.89,8.706,7.761-.108,26.877-8.213,33.35-11.153l1.357,9.055c-2.587,1.175-22.682,12.011-34.021,12.169C300.993,403.6,300.243,403.6,300.173,403.6Z" transform="translate(-192.819 -353.256)" fill="#e7c693"/>
                  <g id="Grupo_12073" data-name="Grupo 12073" transform="translate(0.03 117.802)">
                    <path id="Trazado_24860" data-name="Trazado 24860" d="M169.363,544.628a1.793,1.793,0,0,1-2.536-.123l-3.959-4.384a1.786,1.786,0,0,1,.126-2.541h0a1.8,1.8,0,0,1,2.545.127l3.959,4.382a1.792,1.792,0,0,1-.134,2.539Z" transform="translate(-154.031 -536.139)" fill="#e7c693"/>
                    <path id="Trazado_24861" data-name="Trazado 24861" d="M152.675,545.322a3.242,3.242,0,0,1-3.212-3.264l.028-3.352a3.235,3.235,0,0,1,3.261-3.213l5.02.039a3.243,3.243,0,0,1,3.217,3.263l-.031,3.351a3.234,3.234,0,0,1-3.263,3.211Z" transform="translate(-148.881 -535.493)" fill="#e7c693"/>
                    <path id="Trazado_24862" data-name="Trazado 24862" d="M166.714,553.082a1.578,1.578,0,0,1-1.924-1.142l-1.584-6.947c-.215-.846.6.194,1.446-.023h0c.848-.215.758-3.828.975-2.98l2.237,9.172a1.575,1.575,0,0,1-1.151,1.921Z" transform="translate(-154.339 -538.028)" fill="#e7c693"/>
                    <path id="Trazado_24863" data-name="Trazado 24863" d="M161.175,557.345a1.578,1.578,0,0,1-1.757-1.391l-.766-7.475c-.1-.866.7.651,1.569.552h0c.869-.1,1.2-2.4,1.3-1.53l1.049,8.092a1.589,1.589,0,0,1-1.393,1.752Z" transform="translate(-152.537 -540.196)" fill="#e7c693"/>
                    <path id="Trazado_24864" data-name="Trazado 24864" d="M155.322,555.8a1.591,1.591,0,0,1-1.649-1.524l-.1-7.124c-.031-.872.545.311,1.419.279h0c.879-.03,1.538-3.586,1.579-2.711l.281,9.435a1.58,1.58,0,0,1-1.525,1.647Z" transform="translate(-150.516 -539.109)" fill="#e7c693"/>
                    <path id="Trazado_24865" data-name="Trazado 24865" d="M149.923,553.15a1.514,1.514,0,0,1-1.423-1.607l.524-7.171c.054-.833.548.727,1.386.781h0c.834.047,1.533-2.061,1.481-1.227l-.36,7.8a1.525,1.525,0,0,1-1.608,1.419Z" transform="translate(-148.497 -538.773)" fill="#e7c693"/>
                  </g>
                  <g id="Grupo_12074" data-name="Grupo 12074" transform="translate(140.245 23.291)">
                    <path id="Trazado_24866" data-name="Trazado 24866" d="M388.794,378.8a1.793,1.793,0,0,1,.439,2.5l-3.4,4.83a1.788,1.788,0,0,1-2.507.439h0a1.806,1.806,0,0,1-.438-2.509l3.4-4.83a1.794,1.794,0,0,1,2.507-.43Z" transform="translate(-381.899 -378.464)" fill="#e7c693"/>
                    <path id="Trazado_24867" data-name="Trazado 24867" d="M392.212,392.29a3.241,3.241,0,0,1-2.474,3.855l-3.275.714a3.235,3.235,0,0,1-3.854-2.47l-1.073-4.9a3.243,3.243,0,0,1,2.471-3.859l3.275-.711a3.231,3.231,0,0,1,3.851,2.472Z" transform="translate(-381.46 -381.002)" fill="#e7c693"/>
                  </g>
                  <g id="Grupo_12075" data-name="Grupo 12075" transform="translate(51.807 240.247)">
                    <path id="Trazado_24868" data-name="Trazado 24868" d="M238.42,738.932l13.072,1.13a3.866,3.866,0,0,1,4.026,3.692l.082,4.4-12.979.24a1.467,1.467,0,0,0-2.613.048l-5.376.1-.107-5.761A3.881,3.881,0,0,1,238.42,738.932Z" transform="translate(-234.524 -738.932)" fill="#644d33"/>
                    <path id="Trazado_24869" data-name="Trazado 24869" d="M255.6,750l.044,2.566-12.979.24a1.467,1.467,0,0,0-2.613.048l-5.376.1-.046-2.562Z" transform="translate(-234.565 -743.337)" fill="#3c352e" opacity="0.57" style="mix-blend-mode: multiply;isolation: isolate"/>
                    <path id="Trazado_24870" data-name="Trazado 24870" d="M251.863,744.214l-10.131,2.139-7.187-2.149,15.512-3.372Z" transform="translate(-234.533 -739.688)" fill="#644d33"/>
                  </g>
                  <g id="Grupo_12076" data-name="Grupo 12076" transform="translate(21.782 240.232)">
                    <path id="Trazado_24871" data-name="Trazado 24871" d="M188.534,738.907l13.073,1.129a3.868,3.868,0,0,1,4.025,3.693l.082,4.4-12.979.241a1.467,1.467,0,0,0-2.614.048l-5.376.1-.107-5.762A3.882,3.882,0,0,1,188.534,738.907Z" transform="translate(-184.638 -738.907)" fill="#644d33"/>
                    <path id="Trazado_24872" data-name="Trazado 24872" d="M205.71,749.973l.045,2.565-12.979.241a1.467,1.467,0,0,0-2.614.048l-5.376.1-.045-2.563Z" transform="translate(-184.679 -743.313)" fill="#3c352e" opacity="0.57" style="mix-blend-mode: multiply;isolation: isolate"/>
                    <path id="Trazado_24873" data-name="Trazado 24873" d="M201.977,744.191l-10.13,2.139-7.187-2.149,15.512-3.372Z" transform="translate(-184.647 -739.664)" fill="#644d33"/>
                  </g>
                  <path id="Trazado_24874" data-name="Trazado 24874" d="M180.23,456.86a7.825,7.825,0,0,0,7.855,7.783l34.564.6a7.834,7.834,0,0,0,8.12-7.51l1.428-82.258a7.821,7.821,0,0,0-7.854-7.774l-34.564-.6a7.824,7.824,0,0,0-8.122,7.5l-1.276,73.47Z" transform="translate(-161.1 -350.65)" fill="#214668"/>
                  <path id="Trazado_24875" data-name="Trazado 24875" d="M231.413,456.667l-.261-80.851A7.986,7.986,0,0,0,223.3,367.7l-34.564-.6a7.989,7.989,0,0,0-8.128,7.835l-2.994,81.57C177.954,456.452,231.383,456.667,231.413,456.667Z" transform="translate(-160.061 -350.65)" fill="#2b95b2"/>
                  <g id="Grupo_12078" data-name="Grupo 12078" transform="translate(37.751)">
                    <path id="Trazado_24876" data-name="Trazado 24876" d="M227.408,361.915l-16.239-.278.38-21.87,16.237.286Z" transform="translate(-211.169 -339.767)" fill="#e7c693"/>
                    <g id="Grupo_12077" data-name="Grupo 12077" clip-path="url(#clip-path)">
                      <path id="Trazado_24877" data-name="Trazado 24877" d="M212.16,257.239l-3.13-.055-1.8,18.294a9.377,9.377,0,0,0-1.146-.09l-16.27-.286-.078,3.373c-.012.142-.022.286-.026.457L189.4,296.91c-.186,10.894,13.049,21.642,21.849,22.45h0c7.545-.214,22.068-9.158,22.285-21.685l.315-17.976A22.107,22.107,0,0,0,212.16,257.239Z" transform="translate(-202.502 -306.889)" fill="#f2c097" opacity="0.2" style="mix-blend-mode: multiply;isolation: isolate"/>
                    </g>
                  </g>
                  <path id="Trazado_24879" data-name="Trazado 24879" d="M227.524,364.935l-8.416,4.842-7.784-5.039,7.968-3.662Z" transform="translate(-173.48 -348.251)" fill="#e7c693"/>
                  <rect id="Rectángulo_2477" data-name="Rectángulo 2477" width="14.928" height="133.177" transform="translate(21.823 108.67)" fill="#214668"/>
                  <rect id="Rectángulo_2478" data-name="Rectángulo 2478" width="14.928" height="133.177" transform="translate(51.568 108.67)" fill="#214668"/>
                  <g id="Grupo_12079" data-name="Grupo 12079" transform="translate(113.404 32.038)">
                    <path id="Trazado_24880" data-name="Trazado 24880" d="M343.068,467.407c-1.718.634-3.451,1.55-5.885.4-1.078-.512.846-1.7,1.868-3.014,2.307-2.972,3.543-36.888,8.528-48.63S369.365,393,369.365,393l-.534,74.6C356.412,467.575,349.848,466.049,343.068,467.407Z" transform="translate(-336.865 -392.998)" fill="#222322"/>
                    <path id="Trazado_24881" data-name="Trazado 24881" d="M409.614,467.407c1.718.634,3.452,1.55,5.885.4,1.078-.512-.846-1.7-1.868-3.014-2.308-2.972-3.544-36.888-8.528-48.63S384.478,393,384.478,393l-9.651,33.65,9.024,40.955C396.27,467.575,402.834,466.049,409.614,467.407Z" transform="translate(-351.979 -392.998)" fill="#222322"/>
                  </g>
                  <path id="Trazado_24882" data-name="Trazado 24882" d="M273.334,372.56" transform="translate(-198.168 -352.823)" fill="#2b95b2"/>
                  <path id="Trazado_24883" data-name="Trazado 24883" d="M387.973,384.485h0l-3.75-12.834a3.1,3.1,0,0,1,3.088-2.874,2.845,2.845,0,0,1,3.282,2.545Z" transform="translate(-242.315 -351.309)" fill="#222322"/>
                  <path id="Trazado_24884" data-name="Trazado 24884" d="M386.381,388.262h0l-8.361-10.434a3.1,3.1,0,0,1,1.759-3.834,2.844,2.844,0,0,1,4,1.1Z" transform="translate(-239.785 -353.222)" fill="#222322"/>
                  <path id="Trazado_24885" data-name="Trazado 24885" d="M390.617,388.383h0l6.787-11.521a3.1,3.1,0,0,0-2.288-3.543,2.845,2.845,0,0,0-3.806,1.661Z" transform="translate(-244.861 -353.034)" fill="#222322"/>
                  <path id="Trazado_24886" data-name="Trazado 24886" d="M388.794,378.8a1.793,1.793,0,0,1,.439,2.5l-3.4,4.83a1.788,1.788,0,0,1-2.507.439h0a1.806,1.806,0,0,1-.438-2.509l3.4-4.83a1.794,1.794,0,0,1,2.507-.43Z" transform="translate(-241.655 -355.173)" fill="#e7c693"/>
                  <path id="Trazado_24887" data-name="Trazado 24887" d="M387.017,387.385a1.578,1.578,0,0,1,1.079-1.959l5.278-1.39a1.278,1.278,0,0,1,1.683,1.02h0c.246.841.256,1.636-.584,1.88l-5.5,1.536a1.576,1.576,0,0,1-1.96-1.086Z" transform="translate(-243.402 -357.365)" fill="#e7c693"/>
                  <path id="Trazado_24888" data-name="Trazado 24888" d="M388.274,390.859a1.579,1.579,0,0,1,1.348-1.785l5.422-.621a1.278,1.278,0,0,1,1.52,1.25h0c.123.867.019,1.656-.848,1.777l-5.658.733a1.576,1.576,0,0,1-1.785-1.355Z" transform="translate(-243.922 -359.143)" fill="#e7c693"/>
                  <path id="Trazado_24889" data-name="Trazado 24889" d="M388.661,394.876a1.484,1.484,0,0,1,1.419-1.552l5.129-.1a1.2,1.2,0,0,1,1.313,1.3h0c.037.823-.129,1.551-.95,1.589l-5.36.189a1.481,1.481,0,0,1-1.551-1.425Z" transform="translate(-244.081 -361.047)" fill="#e7c693"/>
                  <path id="Trazado_24890" data-name="Trazado 24890" d="M390.846,399a1.252,1.252,0,0,1,1.2-1.309l4.323-.088a1.013,1.013,0,0,1,1.107,1.1h0c.032.693-.108,1.307-.8,1.338l-4.518.16a1.248,1.248,0,0,1-1.307-1.2Z" transform="translate(-244.952 -362.794)" fill="#e7c693"/>
                  <path id="Trazado_24891" data-name="Trazado 24891" d="M204.414,367.388a12.293,12.293,0,0,0-.134,1.691,12.455,12.455,0,1,0,24.91,0,11.9,11.9,0,0,0-.088-1.355Z" transform="translate(-170.676 -350.764)" fill="#2b95b2" opacity="0.39" style="mix-blend-mode: multiply;isolation: isolate"/>
                  <path id="Trazado_24892" data-name="Trazado 24892" d="M207.252,367.3a10.759,10.759,0,1,0,21.264.354Z" transform="translate(-171.798 -350.728)" fill="#e7c693"/>
                  <path id="Trazado_24893" data-name="Trazado 24893" d="M226.336,426.4a6.241,6.241,0,0,1-8.825-.141l-14.581-15.055a6.24,6.24,0,0,1,.142-8.824h0a6.241,6.241,0,0,1,8.824.141l14.582,15.054a6.242,6.242,0,0,1-.142,8.825Z" transform="translate(-169.439 -363.997)" fill="#fff" opacity="0.29" style="mix-blend-mode: overlay;isolation: isolate"/>
                  <path id="Trazado_24894" data-name="Trazado 24894" d="M226.557,402.919a6.24,6.24,0,0,1-.141,8.825l-15.054,14.581a6.24,6.24,0,0,1-8.824-.141h0a6.241,6.241,0,0,1,.141-8.825l15.054-14.58a6.24,6.24,0,0,1,8.824.141Z" transform="translate(-169.282 -364.153)" fill="#fff" opacity="0.29" style="mix-blend-mode: overlay;isolation: isolate"/>
                  <path id="Trazado_24895" data-name="Trazado 24895" d="M364.254,445.747c-.1,2.121-1.4,4.145-3.157,4.517h0c-1.753.377-3.34-1.523-3.223-4.243a49.956,49.956,0,0,1,4.155-17.9c1.091-2.486,3.341-3.47,4.746-2.349h0c1.411,1.123,1.692,3.51.847,5.452A40.562,40.562,0,0,0,364.254,445.747Z" transform="translate(-231.823 -373.826)" fill="#fff" opacity="0.19"/>
                  <path id="Trazado_24896" data-name="Trazado 24896" d="M403.022,421.217a2.813,2.813,0,0,1-.557-3.243h0c.586-.9,2.057-.757,3.148.447a29.825,29.825,0,0,1,5.753,9.337c.581,1.513.04,2.875-1.027,2.99h0a2.828,2.828,0,0,1-2.648-1.957A24.191,24.191,0,0,0,403.022,421.217Z" transform="translate(-249.456 -370.673)" fill="#fff" opacity="0.09"/>
                  <path id="Trazado_24897" data-name="Trazado 24897" d="M264.808,370.625c5.289,2.482,10.251,6.455,15.093,10.332l.538.432-7.183,9.895-.991-.792c-5.543-4.44-11.275-9.031-16.047-9.986l-3.648-12.451C255.672,367.7,262.8,369.682,264.808,370.625Z" transform="translate(-189.901 -351.012)" fill="#2b95b2"/>
                  <path id="Trazado_24898" data-name="Trazado 24898" d="M171.5,381.548a114.114,114.114,0,0,0-3.008,12.539l-12.051-2c1.521-7.383,3.038-13.631,3.957-15.636,2.952-6.435,11.082-9.342,19.457-9.342l-2.443,12.024C174.964,379.171,171.957,380.545,171.5,381.548Z" transform="translate(-151.629 -350.655)" fill="#2b95b2"/>
                </g>
              </g>
              <g id="Grupo_12083" data-name="Grupo 12083" transform="translate(19.822)">
                <path id="Trazado_24899" data-name="Trazado 24899" d="M181.927,284.815a19.539,19.539,0,0,0,20.367,18.675l10.766-.466a19.536,19.536,0,0,0,18.673-20.359l-.528-12.181a19.541,19.541,0,0,0-20.359-18.678l-10.764.47A19.53,19.53,0,0,0,181.4,272.634Z" transform="translate(-181.382 -251.787)" fill="#885730"/>
                <path id="Trazado_24900" data-name="Trazado 24900" d="M221.834,262.8l2.383,55.13c5.862-.251,18.252-9.131,17.811-19.406l-.773-17.916A18.631,18.631,0,0,0,221.834,262.8Z" transform="translate(-197.487 -256.164)" fill="#ecc993"/>
                <path id="Trazado_24901" data-name="Trazado 24901" d="M210.057,262.8l3.387,27.229-1.006,27.912c-5.856.251-18.973-7.529-19.417-17.8l-.775-17.914A18.637,18.637,0,0,1,210.057,262.8Z" transform="translate(-185.7 -256.172)" fill="#ecc993"/>
                <path id="Trazado_24902" data-name="Trazado 24902" d="M206.653,301.328a2.134,2.134,0,1,1-2.225-2.041A2.135,2.135,0,0,1,206.653,301.328Z" transform="translate(-189.745 -270.698)" fill="#313338"/>
                <path id="Trazado_24903" data-name="Trazado 24903" d="M241.874,299.8a2.129,2.129,0,1,1-2.225-2.041A2.132,2.132,0,0,1,241.874,299.8Z" transform="translate(-203.771 -270.091)" fill="#313338"/>
                <path id="Trazado_24904" data-name="Trazado 24904" d="M230.6,302.145l-31.563,1.36.113,2.531,31.557-1.36Z" transform="translate(-188.412 -271.836)" fill="#ecc993"/>
                <g id="Grupo_12082" data-name="Grupo 12082" transform="translate(25.373 24.009)" opacity="0.4" style="mix-blend-mode: multiply;isolation: isolate">
                  <path id="Trazado_24905" data-name="Trazado 24905" d="M242.707,310.027l-.773-17.916c-.007-.149-.032-.289-.04-.433l-12.851.556a5.755,5.755,0,0,0-5.5,5.99l1.352,31.209C230.759,329.178,243.148,320.3,242.707,310.027Z" transform="translate(-223.539 -291.678)" fill="#f2c097" opacity="0.7" style="mix-blend-mode: multiply;isolation: isolate"/>
                  <path id="Trazado_24906" data-name="Trazado 24906" d="M242.707,310.027l-.773-17.916c-.007-.149-.032-.289-.04-.433l-12.851.556a5.755,5.755,0,0,0-5.5,5.99l1.352,31.209C230.759,329.178,243.148,320.3,242.707,310.027Z" transform="translate(-223.539 -291.678)" fill="#f2c097"/>
                </g>
                <path id="Trazado_24907" data-name="Trazado 24907" d="M189.451,310.879a2.422,2.422,0,0,0,2.524,2.314l2.3-.1a2.428,2.428,0,0,0,2.321-2.524l-.164-3.753a2.419,2.419,0,0,0-2.528-2.318l-2.307.1a2.424,2.424,0,0,0-2.312,2.527Z" transform="translate(-184.529 -272.771)" fill="#ecc993"/>
                <path id="Trazado_24908" data-name="Trazado 24908" d="M193.743,299.026a1.391,1.391,0,0,1-1.345,1.458h0a1.392,1.392,0,0,1-1.447-1.337l-.309-7.206c-.034-.771-2.083-6.222-1.319-6.257l2.569-1.468c-1.215,3.136,1.508,6.835,1.54,7.6Z" transform="translate(-184.476 -264.698)" fill="#885730"/>
                <path id="Trazado_24909" data-name="Trazado 24909" d="M208.437,325.261a10.723,10.723,0,0,0,19.372-.835Z" transform="translate(-192.153 -280.707)" fill="#fff"/>
                <path id="Trazado_24910" data-name="Trazado 24910" d="M246.653,308.4a2.423,2.423,0,0,0,2.525,2.317l2.3-.1a2.424,2.424,0,0,0,2.321-2.527l-.163-3.755a2.424,2.424,0,0,0-2.528-2.314l-2.3.1a2.427,2.427,0,0,0-2.317,2.527Z" transform="translate(-207.302 -271.788)" fill="#ecc993"/>
                <path id="Trazado_24911" data-name="Trazado 24911" d="M246.653,308.4a2.423,2.423,0,0,0,2.525,2.317l2.3-.1a2.424,2.424,0,0,0,2.321-2.527l-.163-3.755a2.424,2.424,0,0,0-2.528-2.314l-2.3.1a2.427,2.427,0,0,0-2.317,2.527Z" transform="translate(-207.302 -271.788)" fill="#f2c097" opacity="0.4" style="mix-blend-mode: multiply;isolation: isolate"/>
                <path id="Trazado_24912" data-name="Trazado 24912" d="M250.562,296.623a1.391,1.391,0,0,0,1.455,1.338h0a1.4,1.4,0,0,0,1.336-1.458l-.314-7.205c-.033-.772,1.54-6.382.764-6.346l-2.68-1.244c1.487,3.015-.9,6.94-.873,7.71Z" transform="translate(-208.8 -263.7)" fill="#885730"/>
                <path id="Trazado_24913" data-name="Trazado 24913" d="M190.186,277.192a52.505,52.505,0,0,0,5.6-6.85c6.855,4.258,33.29,5.173,33.29,5.173l-.652-15.073-17.152-1.466-21.743,3.145Z" transform="translate(-184.625 -254.649)" fill="#885730"/>
                <path id="Trazado_24914" data-name="Trazado 24914" d="M193.4,320.452l.086,2c.444,10.276,13.561,18.056,19.41,17.8l.007.005c5.855-.256,18.245-9.136,17.8-19.411l-.088-2Z" transform="translate(-186.167 -278.485)" fill="#885730"/>
                <path id="Trazado_24915" data-name="Trazado 24915" d="M208.545,327.763a10.719,10.719,0,0,0,19.37-.834Z" transform="translate(-192.196 -281.703)" fill="#fff"/>
                <path id="Trazado_24916" data-name="Trazado 24916" d="M197.838,314.607l-5.365,1.934-.5-11.714,2.789-.121Z" transform="translate(-185.597 -272.856)" fill="#885730"/>
                <path id="Trazado_24917" data-name="Trazado 24917" d="M246.793,312.484l5.512,1.459-.507-11.711-2.8.124Z" transform="translate(-207.424 -271.871)" fill="#885730"/>
              </g>
              <rect id="Rectángulo_2479" data-name="Rectángulo 2479" width="10.737" height="3.742" transform="translate(0.311 168.179) rotate(-2.661)" fill="#936932"/>
              <g id="Grupo_12084" data-name="Grupo 12084" transform="translate(2.48 166.608)">
                <path id="Trazado_24918" data-name="Trazado 24918" d="M153.545,532.274a2.693,2.693,0,1,0,2.693-2.693A2.692,2.692,0,0,0,153.545,532.274Z" transform="translate(-152.956 -528.992)" fill="#fff"/>
                <path id="Trazado_24919" data-name="Trazado 24919" d="M152.567,531.885a3.282,3.282,0,1,1,3.281,3.281A3.284,3.284,0,0,1,152.567,531.885Zm1.178,0a2.1,2.1,0,1,0,2.1-2.1A2.106,2.106,0,0,0,153.745,531.885Z" transform="translate(-152.567 -528.603)" fill="#936932"/>
              </g>
              <path id="Trazado_24920" data-name="Trazado 24920" d="M153.545,532.274a2.693,2.693,0,1,0,2.693-2.693A2.692,2.692,0,0,0,153.545,532.274Z" transform="translate(-150.477 -362.384)" fill="#efe7da"/>
              <g id="Grupo_12085" data-name="Grupo 12085" transform="translate(36.919 2.95)">
                <path id="Trazado_24921" data-name="Trazado 24921" d="M248.9,273.131a.669.669,0,0,1-.926.178l-2.318-1.581a.665.665,0,0,1-.175-.923h0a.665.665,0,0,1,.925-.178l2.317,1.58a.668.668,0,0,1,.178.924Z" transform="translate(-223.952 -262.191)" fill="#fff" opacity="0.1" style="mix-blend-mode: overlay;isolation: isolate"/>
                <path id="Trazado_24922" data-name="Trazado 24922" d="M235.742,268.832a.667.667,0,0,1-.314.888l-2.536,1.2a.657.657,0,0,1-.884-.313h0a.661.661,0,0,1,.31-.888l2.536-1.2a.665.665,0,0,1,.888.315Z" transform="translate(-218.607 -261.372)" fill="#fff" opacity="0.15" style="mix-blend-mode: overlay;isolation: isolate"/>
                <path id="Trazado_24923" data-name="Trazado 24923" d="M245.758,263.588a.672.672,0,0,1-.781.528l-2.753-.536a.665.665,0,0,1-.528-.782h0a.663.663,0,0,1,.781-.525l2.752.539a.664.664,0,0,1,.529.776Z" transform="translate(-222.486 -258.907)" fill="#fff" opacity="0.19" style="mix-blend-mode: overlay;isolation: isolate"/>
                <path id="Trazado_24924" data-name="Trazado 24924" d="M209.88,259.767a.666.666,0,0,1,.235-.912l2.417-1.423a.666.666,0,0,1,.912.233h0a.668.668,0,0,1-.238.912L210.79,260a.666.666,0,0,1-.91-.235Z" transform="translate(-209.787 -256.947)" fill="#fff" opacity="0.19" style="mix-blend-mode: overlay;isolation: isolate"/>
                <path id="Trazado_24925" data-name="Trazado 24925" d="M222.879,264.964a.672.672,0,0,1-.876-.355l-1.1-2.575a.664.664,0,0,1,.352-.875h0a.664.664,0,0,1,.872.348l1.106,2.58a.674.674,0,0,1-.349.877Z" transform="translate(-214.189 -258.446)" fill="#fff" opacity="0.1" style="mix-blend-mode: overlay;isolation: isolate"/>
                <path id="Trazado_24926" data-name="Trazado 24926" d="M230.723,259.605a.665.665,0,0,1,.08-.938l2.137-1.82a.663.663,0,0,1,.935.075h0a.666.666,0,0,1-.073.94l-2.14,1.82a.669.669,0,0,1-.939-.075Z" transform="translate(-218.06 -256.688)" fill="#fff" opacity="0.15" style="mix-blend-mode: overlay;isolation: isolate"/>
              </g>
              <g id="Grupo_12086" data-name="Grupo 12086" transform="translate(22.647 5.055)">
                <path id="Trazado_24927" data-name="Trazado 24927" d="M238.57,276.634a.668.668,0,0,1,.921.2L241,279.2a.667.667,0,0,1-.2.917h0a.666.666,0,0,1-.921-.2l-1.507-2.365a.668.668,0,0,1,.2-.92Z" transform="translate(-206.853 -266.692)" fill="#fff" opacity="0.1" style="mix-blend-mode: overlay;isolation: isolate"/>
                <path id="Trazado_24928" data-name="Trazado 24928" d="M197.455,260.985a.666.666,0,0,1,.637-.693l2.806-.105a.657.657,0,0,1,.688.636h0a.659.659,0,0,1-.634.693l-2.806.108a.662.662,0,0,1-.692-.639Z" transform="translate(-190.605 -260.186)" fill="#fff" opacity="0.15" style="mix-blend-mode: overlay;isolation: isolate"/>
                <path id="Trazado_24929" data-name="Trazado 24929" d="M186.188,276.819a.674.674,0,0,1,.927-.178l2.319,1.578a.666.666,0,0,1,.177.926h0a.663.663,0,0,1-.924.174l-2.317-1.579a.664.664,0,0,1-.181-.923Z" transform="translate(-186.075 -266.692)" fill="#fff" opacity="0.19" style="mix-blend-mode: overlay;isolation: isolate"/>
                <path id="Trazado_24930" data-name="Trazado 24930" d="M222.4,276.848a.665.665,0,0,1-.9.281l-2.485-1.3a.666.666,0,0,1-.284-.9h0a.669.669,0,0,1,.9-.279l2.486,1.3a.666.666,0,0,1,.28.9Z" transform="translate(-199.048 -265.914)" fill="#fff" opacity="0.19" style="mix-blend-mode: overlay;isolation: isolate"/>
                <path id="Trazado_24931" data-name="Trazado 24931" d="M209.292,268.481a.672.672,0,0,1,.667.672v2.8a.664.664,0,0,1-.668.666h0a.665.665,0,0,1-.666-.664v-2.807a.673.673,0,0,1,.666-.668Z" transform="translate(-195.053 -263.488)" fill="#fff" opacity="0.1" style="mix-blend-mode: overlay;isolation: isolate"/>
                <path id="Trazado_24932" data-name="Trazado 24932" d="M257.734,284.857a.672.672,0,0,1-.847-.417l-.9-2.657a.666.666,0,0,1,.418-.846h0a.663.663,0,0,1,.843.418l.9,2.657a.663.663,0,0,1-.411.844Z" transform="translate(-213.894 -268.434)" fill="#fff" opacity="0.19" style="mix-blend-mode: overlay;isolation: isolate"/>
                <path id="Trazado_24933" data-name="Trazado 24933" d="M187.979,288.241a.671.671,0,0,1,.666.671l0,2.8a.665.665,0,0,1-.668.666h0a.664.664,0,0,1-.665-.663v-2.807a.672.672,0,0,1,.665-.668Z" transform="translate(-186.568 -271.355)" fill="#fff" opacity="0.1" style="mix-blend-mode: overlay;isolation: isolate"/>
                <path id="Trazado_24934" data-name="Trazado 24934" d="M198.673,271.067a.667.667,0,0,1-.444.832l-2.681.831a.665.665,0,0,1-.832-.437h0a.669.669,0,0,1,.439-.835l2.684-.829a.67.67,0,0,1,.834.439Z" transform="translate(-189.503 -264.332)" fill="#fff" opacity="0.15" style="mix-blend-mode: overlay;isolation: isolate"/>
              </g>
            </g>
          </g>
          <g id="Grupo_12093" data-name="Grupo 12093" transform="translate(100.783 168.279)">
            <g id="Grupo_12092" data-name="Grupo 12092" transform="translate(0 0.206)">
              <path id="Trazado_24935" data-name="Trazado 24935" d="M483.047,554.76l-11.628,5.055V543.95h11.628Z" transform="translate(-377.814 -536.589)" fill="#fa0"/>
              <path id="Trazado_24936" data-name="Trazado 24936" d="M483.047,554.76l-11.628,5.055V543.95h11.628Z" transform="translate(-377.814 -536.589)" fill="#2c2c2c" style="mix-blend-mode: multiply;isolation: isolate"/>
              <path id="Trazado_24937" data-name="Trazado 24937" d="M371.583,748.276h-7.067l-4.989-10.02h12.056Z" transform="translate(-333.267 -613.947)" fill="#fa0"/>
              <path id="Trazado_24938" data-name="Trazado 24938" d="M371.583,748.276h-7.067l-4.989-10.02h12.056Z" transform="translate(-333.267 -613.947)" fill="#fa0" opacity="0.38" style="mix-blend-mode: multiply;isolation: isolate"/>
              <path id="Trazado_24939" data-name="Trazado 24939" d="M371.583,748.276h-7.067l-4.989-10.02h12.056Z" transform="translate(-333.267 -613.947)" style="mix-blend-mode: multiply;isolation: isolate"/>
              <path id="Trazado_24940" data-name="Trazado 24940" d="M405.426,660.62s-1.941,4.409-8.4,4.425-48.524.129-54.858,0-7.158-4.425-7.158-4.425L327.523,546.4h88.689Z" transform="translate(-320.525 -537.565)" fill="#383838"/>
              <path id="Trazado_24941" data-name="Trazado 24941" d="M338,546.4H327.523l7.492,114.219s.823,4.3,7.158,4.425c.745.015,1.99.027,3.609.037Z" transform="translate(-320.525 -537.565)" fill="#171717" style="mix-blend-mode: multiply;isolation: isolate"/>
              <path id="Trazado_24942" data-name="Trazado 24942" d="M440.71,664.1c0-3.895-3.021-6.186-6.588-6.587l-1.563-.177a7.9,7.9,0,0,0,4.089-3.609L446.783,546.4h11.247L447.243,660.62s-1.583,3.56-6.6,4.287A5.7,5.7,0,0,0,440.71,664.1Z" transform="translate(-362.342 -537.565)" fill="#fff" opacity="0.25" style="mix-blend-mode: overlay;isolation: isolate"/>
              <path id="Trazado_24943" data-name="Trazado 24943" d="M391.284,731.085a10.368,10.368,0,0,0,5.606-1.482c.051.193.092.389.15.58a19.814,19.814,0,0,0,4.412,7.8c-7.673.019-48.223.124-54.432,0-6.334-.129-7.157-4.425-7.157-4.425l-.16-2.438C351.556,731.191,385.536,731.1,391.284,731.085Z" transform="translate(-325.375 -610.502)" fill="#030303" opacity="0.784" style="mix-blend-mode: multiply;isolation: isolate"/>
              <g id="Grupo_12090" data-name="Grupo 12090" transform="translate(6.998 8.836)">
                <g id="Grupo_12089" data-name="Grupo 12089" clip-path="url(#clip-path-2)">
                  <path id="Trazado_24944" data-name="Trazado 24944" d="M450.613,721.249a18.58,18.58,0,1,1-18.579-18.579A18.58,18.58,0,0,1,450.613,721.249Z" transform="translate(-361.734 -608.616)" opacity="0.59" style="mix-blend-mode: multiply;isolation: isolate"/>
                </g>
              </g>
              <path id="Trazado_24946" data-name="Trazado 24946" d="M448.677,725.03a12.861,12.861,0,1,1-12.861-12.86A12.86,12.86,0,0,1,448.677,725.03Z" transform="translate(-358.519 -603.562)" fill="#272828"/>
              <path id="Trazado_24947" data-name="Trazado 24947" d="M447.15,728.012a8.353,8.353,0,1,1-8.352-8.353A8.352,8.352,0,0,1,447.15,728.012Z" transform="translate(-361.5 -606.543)" fill="#484848"/>
              <path id="Trazado_24948" data-name="Trazado 24948" d="M445.574,731.092a3.7,3.7,0,1,1-3.7-3.7A3.7,3.7,0,0,1,445.574,731.092Z" transform="translate(-364.58 -609.623)" fill="#272828"/>
              <path id="Trazado_24949" data-name="Trazado 24949" d="M415.017,559.046l1.194-12.645H327.523l.829,12.645Z" transform="translate(-320.525 -537.565)" fill="#020202" style="mix-blend-mode: multiply;isolation: isolate"/>
              <path id="Trazado_24950" data-name="Trazado 24950" d="M315.9,543.95V548.7c0,1.2,1.276,2.164,2.849,2.164h93.483c1.573,0,2.849-.968,2.849-2.164V543.95Z" transform="translate(-315.896 -536.589)" fill="#404040"/>
              <path id="Trazado_24951" data-name="Trazado 24951" d="M420.255,532.475a3,3,0,0,0-2.154-.746H397.406l-81.51,4.633v2.72H421.13v-3.564S421.3,533.363,420.255,532.475Z" transform="translate(-315.896 -531.72)" fill="#fa0"/>
              <path id="Trazado_24952" data-name="Trazado 24952" d="M420.255,532.475a3,3,0,0,0-2.154-.746H397.406l-81.51,4.633v2.72H421.13v-3.564S421.3,533.363,420.255,532.475Z" transform="translate(-315.896 -531.72)" fill="#0a0a0a" style="mix-blend-mode: multiply;isolation: isolate"/>
              <path id="Trazado_24953" data-name="Trazado 24953" d="M427.825,733.538a9.93,9.93,0,0,0,19.86,0Z" transform="translate(-360.458 -612.069)" fill="#272828" opacity="0.43" style="mix-blend-mode: multiply;isolation: isolate"/>
              <g id="Grupo_12091" data-name="Grupo 12091" transform="translate(27.281 33.552)" opacity="0.64">
                <path id="Trazado_24954" data-name="Trazado 24954" d="M383,590.344a4.331,4.331,0,0,0-2.09,1.915L376,600.794l7.614,4.383,5.738-9.978-.732-1.281C386.778,590.687,384.838,589.564,383,590.344Z" transform="translate(-367.106 -588.517)" fill="#fff"/>
                <path id="Trazado_24955" data-name="Trazado 24955" d="M396.391,592l4.679,8.2-1.658.488.224.489,8.561,3.735,3.446-7.264-.176-.507-1.745.513c-1.1-1.872-2.273-3.869-3.036-5.162-.158-.268-.31-.536-.459-.8-1.278-2.256-2.234-3.937-6.188-4.22h-8.352C393.141,587.878,394.765,589.145,396.391,592Z" transform="translate(-373.351 -587.466)" fill="#fff"/>
                <path id="Trazado_24956" data-name="Trazado 24956" d="M421.154,629.67h1.476c3.719-.007,5.654-1.139,5.884-3.123a4.328,4.328,0,0,0-.632-2.763l-5-8.484-7.571,4.453Z" transform="translate(-382.758 -598.547)" fill="#fff"/>
                <path id="Trazado_24957" data-name="Trazado 24957" d="M416.19,640.868l-9.44.016.395-1.683-.538-.047-7.475,5.6,4.61,6.585.53.1.416-1.771c2.17-.031,4.486-.064,5.987-.088.312-.005.619-.005.923,0,2.593,0,4.527,0,6.727-3.295l4.128-7.261C421.376,640.075,419.471,640.86,416.19,640.868Z" transform="translate(-376.315 -607.989)" fill="#fff"/>
                <path id="Trazado_24958" data-name="Trazado 24958" d="M374.663,642.074l-.74,1.277c-1.863,3.221-1.858,5.461-.258,6.656a4.329,4.329,0,0,0,2.706.843l9.846-.055-.044-8.784Z" transform="translate(-365.709 -609.182)" fill="#fff"/>
                <path id="Trazado_24959" data-name="Trazado 24959" d="M372.645,623.56l1.256,1.189.312-.442-1.082-9.276-8.011.677-.35.409,1.322,1.249c-1.064,1.892-2.2,3.912-2.932,5.221-.153.273-.307.538-.46.8-1.306,2.242-2.279,3.913-.533,7.472l4.2,7.218c-.376-1.465-.1-3.506,1.546-6.346Z" transform="translate(-361.222 -598.44)" fill="#fff"/>
              </g>
              <path id="Trazado_24960" data-name="Trazado 24960" d="M328.15,538.272l-12.254.7v7.473c0,1.2,1.276,2.164,2.849,2.164H328.97Z" transform="translate(-315.896 -534.329)" fill="#fff" opacity="0.25" style="mix-blend-mode: overlay;isolation: isolate"/>
              <rect id="Rectángulo_2480" data-name="Rectángulo 2480" width="99.181" height="1.751" transform="translate(0 7.361)" fill="#fff" opacity="0.25" style="mix-blend-mode: overlay;isolation: isolate"/>
            </g>
            <path id="Trazado_24961" data-name="Trazado 24961" d="M356.294,536.162h46.084l2-4.784H349.31Z" transform="translate(-329.199 -531.378)" fill="#fff"/>
          </g>
        </g>
        <g id="Grupo_12105" data-name="Grupo 12105" transform="translate(218.869 2.943)">
          <path id="Trazado_24962" data-name="Trazado 24962" d="M625.086,393.371a1.794,1.794,0,0,0-.435,2.5l3.408,4.823a1.788,1.788,0,0,0,2.507.435h0a1.807,1.807,0,0,0,.435-2.51l-3.408-4.823a1.794,1.794,0,0,0-2.508-.426Z" transform="translate(-556.775 -310.965)" fill="#f1cea5"/>
          <path id="Trazado_24963" data-name="Trazado 24963" d="M619.169,406.874a3.242,3.242,0,0,0,2.48,3.85l3.277.707a3.235,3.235,0,0,0,3.85-2.477l1.063-4.908a3.243,3.243,0,0,0-2.477-3.854l-3.276-.7a3.235,3.235,0,0,0-3.849,2.48Z" transform="translate(-554.694 -313.504)" fill="#f1cea5"/>
          <path id="Trazado_24964" data-name="Trazado 24964" d="M613.757,395.418a1.578,1.578,0,0,0,.693,2.126l6.43,3.068c.778.395-.058-.627.339-1.406h0c.4-.781,3.9.1,3.122-.3l-8.458-4.193a1.576,1.576,0,0,0-2.128.7Z" transform="translate(-552.499 -311.565)" fill="#f1cea5"/>
          <path id="Trazado_24965" data-name="Trazado 24965" d="M609.054,400.587a1.581,1.581,0,0,0,.974,2.02l7.124,2.386c.824.282-.481-.825-.194-1.652h0c.288-.826,2.6-.648,1.777-.932l-7.664-2.8a1.591,1.591,0,0,0-2.017.974Z" transform="translate(-550.66 -313.549)" fill="#f1cea5"/>
          <path id="Trazado_24966" data-name="Trazado 24966" d="M608.434,406.888a1.59,1.59,0,0,0,1.126,1.943l6.928,1.664c.843.221-.185-.6.039-1.446h0c.222-.851,3.836-.714,2.992-.945l-9.145-2.343a1.579,1.579,0,0,0-1.94,1.126Z" transform="translate(-550.427 -316.009)" fill="#f1cea5"/>
          <path id="Trazado_24967" data-name="Trazado 24967" d="M610.967,413.147a1.515,1.515,0,0,0,1.257,1.739l7.111,1.061c.825.129-.589-.694-.457-1.524h0c.137-.824,2.346-1.044,1.521-1.175l-7.694-1.36a1.525,1.525,0,0,0-1.737,1.259Z" transform="translate(-551.449 -318.463)" fill="#f1cea5"/>
          <path id="Trazado_24968" data-name="Trazado 24968" d="M744.733,731.587a5.368,5.368,0,0,1-3.06,6.938l-14.14,5.461h-7.017c-1.068-2.75.368-7.129,3.125-8.2l14.148-7.255a5.375,5.375,0,0,1,6.946,3.055Z" transform="translate(-594.93 -444.39)" fill="#3b2e1d"/>
          <path id="Trazado_24969" data-name="Trazado 24969" d="M755.79,743.747h-5.824l-2.928-16.178h8.752Z" transform="translate(-605.63 -444.151)" fill="#3b2e1d"/>
          <path id="Trazado_24970" data-name="Trazado 24970" d="M811.313,747.956V744.58a6.438,6.438,0,0,0-6.437-6.438h-4.406a6.435,6.435,0,0,0-6.444,6.438v3.377Z" transform="translate(-624.338 -448.36)" fill="#3b2e1d"/>
          <path id="Trazado_24971" data-name="Trazado 24971" d="M729.2,495.975v7.2a10.371,10.371,0,0,0,10.362,10.382H781.1a10.376,10.376,0,0,0,10.367-10.382v-7.2Z" transform="translate(-598.528 -351.947)" fill="#42598f"/>
          <path id="Trazado_24972" data-name="Trazado 24972" d="M749.547,647.3l-24.087-.493,2.216-142.075,24.087.485Z" transform="translate(-597.04 -355.434)" fill="#42598f"/>
          <path id="Trazado_24973" data-name="Trazado 24973" d="M811.251,648.667l-24.074-.724,3.344-140.06,24.08.746Z" transform="translate(-621.611 -356.688)" fill="#42598f"/>
          <rect id="Rectángulo_2481" data-name="Rectángulo 2481" width="64.909" height="4.73" transform="translate(129.258 147.291)" fill="#d687d4"/>
          <g id="Grupo_12095" data-name="Grupo 12095" transform="translate(141.06)">
            <path id="Trazado_24974" data-name="Trazado 24974" d="M769.541,260.214a19.554,19.554,0,0,0-19.532,19.539v13.5c0,11.078,13.865,19.538,19.532,19.538s19.531-8.46,19.531-19.538v-13.5A19.559,19.559,0,0,0,769.541,260.214Z" transform="translate(-747.873 -258.085)" fill="#422f1a"/>
            <path id="Trazado_24975" data-name="Trazado 24975" d="M768.128,313.514c-6.464,0-21.667-9.146-21.667-21.667v-13.5a21.667,21.667,0,1,1,43.335,0v13.5C789.8,304.369,774.591,313.514,768.128,313.514Zm0-52.572a17.419,17.419,0,0,0-17.4,17.4v13.5c0,9.691,12.494,17.4,17.4,17.4s17.41-7.711,17.41-17.4v-13.5A17.426,17.426,0,0,0,768.128,260.942Z" transform="translate(-746.461 -256.677)" fill="#422f1a"/>
          </g>
          <path id="Trazado_24976" data-name="Trazado 24976" d="M764.365,334.242H738.789s-.365-34.994,5.546-52.663c2.311-4.258,20.029,7.192,20.029,7.192Z" transform="translate(-602.345 -266.213)" fill="#422f1a"/>
          <path id="Trazado_24977" data-name="Trazado 24977" d="M783.926,334.242h25.583s.35-34.994-5.561-52.663c-2.3-4.258-20.022,7.192-20.022,7.192Z" transform="translate(-620.317 -266.213)" fill="#422f1a"/>
          <rect id="Rectángulo_2482" data-name="Rectángulo 2482" width="14.747" height="32.872" transform="translate(155.251 34.515)" fill="#f1cea5"/>
          <path id="Trazado_24978" data-name="Trazado 24978" d="M782.46,263.764v48.307c4.825,0,17.41-7.788,17.41-17.4v-13.5A17.4,17.4,0,0,0,782.46,263.764Z" transform="translate(-619.733 -259.499)" fill="#f1cea5"/>
          <path id="Trazado_24979" data-name="Trazado 24979" d="M770.949,263.764l2.129,16.443-2.129,31.864c-4.825,0-17.4-7.788-17.4-17.4v-13.5A17.4,17.4,0,0,1,770.949,263.764Z" transform="translate(-608.222 -259.499)" fill="#f1cea5"/>
          <path id="Trazado_24980" data-name="Trazado 24980" d="M789.072,281.651v-1.9a19.531,19.531,0,1,0-39.063,0v1.9Z" transform="translate(-606.813 -258.085)" fill="#422f1a"/>
          <g id="Grupo_12096" data-name="Grupo 12096" transform="translate(129.258 59.11)">
            <path id="Trazado_24981" data-name="Trazado 24981" d="M760.219,354.887H745.576c-6.766,0-12.247,5.2-12.247,11.614v33.515c0,10.49-6.43,36.517-6.477,42.31s11.958,3.127,18.724,3.127h14.643Z" transform="translate(-726.852 -354.887)" fill="#d687d4"/>
            <path id="Trazado_24982" data-name="Trazado 24982" d="M780.931,354.887H795.56c6.767,0,12.255,5.2,12.255,11.614v33.515c0,10.49,6.438,36.517,6.477,42.31s-11.965,3.127-18.732,3.127H780.931Z" transform="translate(-748.382 -354.887)" fill="#d687d4"/>
          </g>
          <g id="Grupo_12097" data-name="Grupo 12097" transform="translate(149.75 59.11)">
            <path id="Trazado_24983" data-name="Trazado 24983" d="M774.031,386.856h0s-12.044-19-13.133-31.969h13.133Z" transform="translate(-760.898 -354.887)" fill="#f1cea5"/>
            <path id="Trazado_24984" data-name="Trazado 24984" d="M781.706,386.856h0s12.043-19,13.131-31.969H780.176Z" transform="translate(-768.573 -354.887)" fill="#f1cea5"/>
          </g>
          <path id="Trazado_24985" data-name="Trazado 24985" d="M769.315,382.731a134.782,134.782,0,0,0,8.067,15.21,134.74,134.74,0,0,0,8.066-15.21Z" transform="translate(-614.499 -306.862)" fill="#d95fb6"/>
          <path id="Trazado_24986" data-name="Trazado 24986" d="M766.9,304.837a2.168,2.168,0,1,1-2.164-2.164A2.166,2.166,0,0,1,766.9,304.837Z" transform="translate(-611.811 -274.989)" fill="#313338"/>
          <path id="Trazado_24987" data-name="Trazado 24987" d="M799.344,304.837a2.164,2.164,0,1,1-2.158-2.164A2.166,2.166,0,0,1,799.344,304.837Z" transform="translate(-624.732 -274.989)" fill="#313338"/>
          <rect id="Rectángulo_2483" data-name="Rectángulo 2483" width="26.276" height="2.57" transform="translate(149.225 30.632)" fill="#f1cea5"/>
          <g id="Grupo_12098" data-name="Grupo 12098" transform="translate(162.455 25.365)" opacity="0.4" style="mix-blend-mode: multiply;isolation: isolate">
            <path id="Trazado_24988" data-name="Trazado 24988" d="M799.69,308.626v-9.805h-10.5a7.183,7.183,0,0,0-7.185,7.192v19.995c.083.007.2.021.273.021C787.1,326.028,799.69,318.241,799.69,308.626Z" transform="translate(-782.007 -298.821)" fill="#f2c097" style="mix-blend-mode: color-burn;isolation: isolate"/>
            <path id="Trazado_24989" data-name="Trazado 24989" d="M799.69,308.626v-9.805h-10.5a7.183,7.183,0,0,0-7.185,7.192v19.995c.083.007.2.021.273.021C787.1,326.028,799.69,318.241,799.69,308.626Z" transform="translate(-782.007 -298.821)" fill="#f2c097"/>
          </g>
          <path id="Trazado_24990" data-name="Trazado 24990" d="M769.533,325.175a8.207,8.207,0,0,0,14.833,0Z" transform="translate(-614.586 -283.948)" fill="#fff"/>
          <path id="Trazado_24991" data-name="Trazado 24991" d="M754.936,311.78a1.657,1.657,0,0,1-1.66,1.653h-1.568a1.656,1.656,0,0,1-1.653-1.653v-2.556a1.651,1.651,0,0,1,1.653-1.653h1.568a1.652,1.652,0,0,1,1.66,1.653Z" transform="translate(-606.832 -276.939)" fill="#f1cea5"/>
          <path id="Trazado_24992" data-name="Trazado 24992" d="M810.8,311.78a1.651,1.651,0,0,1-1.653,1.653h-1.569a1.656,1.656,0,0,1-1.653-1.653v-2.556a1.652,1.652,0,0,1,1.653-1.653h1.569a1.646,1.646,0,0,1,1.653,1.653Z" transform="translate(-629.076 -276.939)" fill="#f1cea5"/>
          <path id="Trazado_24993" data-name="Trazado 24993" d="M810.8,311.78a1.651,1.651,0,0,1-1.653,1.653h-1.569a1.656,1.656,0,0,1-1.653-1.653v-2.556a1.652,1.652,0,0,1,1.653-1.653h1.569a1.646,1.646,0,0,1,1.653,1.653Z" transform="translate(-629.076 -276.939)" fill="#f2c097" opacity="0.4" style="mix-blend-mode: multiply;isolation: isolate"/>
          <path id="Trazado_24994" data-name="Trazado 24994" d="M831.18,452.333c1.975-1.964,19.376-19.583,20.183-32.56.855-13.8-25.728-56.919-35.9-61.6L811.2,368.05c6.659,3.4,30.285,42.1,29.728,51.036-.386,6.29-10.166,18.66-16.982,25.444Z" transform="translate(-631.174 -297.086)" fill="#f1cea5"/>
          <path id="Trazado_24995" data-name="Trazado 24995" d="M839.321,442.014l-7.457-7.655c4.648-5.891,8.654-12.312,8.9-16.291.556-8.939-23.07-47.64-29.728-51.036l-.249-11.415c4.583.312,8.169,4,10.444,6.426,12.012,12.784,30.689,45.113,29.97,56.712C850.727,426.269,844.7,435.32,839.321,442.014Z" transform="translate(-631.009 -296.067)" fill="#d687d4"/>
          <path id="Trazado_24996" data-name="Trazado 24996" d="M763.074,385.605A10.665,10.665,0,1,1,752.4,374.94,10.661,10.661,0,0,1,763.074,385.605Z" transform="translate(-603.523 -303.76)" fill="#fff" opacity="0.25" style="mix-blend-mode: overlay;isolation: isolate"/>
          <path id="Trazado_24997" data-name="Trazado 24997" d="M807.362,385.605A10.662,10.662,0,1,1,796.7,374.94,10.66,10.66,0,0,1,807.362,385.605Z" transform="translate(-621.157 -303.76)" fill="#fff" opacity="0.25" style="mix-blend-mode: overlay;isolation: isolate"/>
          <g id="Grupo_12099" data-name="Grupo 12099" transform="translate(184.364 141.817)">
            <path id="Trazado_24998" data-name="Trazado 24998" d="M827.256,502.467a3.5,3.5,0,0,1,2-4.451l3.272-1.24c1.747-.657,3.044-1.874,3.672-.066l2.417,7.212a3.513,3.513,0,0,1-2.018,4.466l-3.264,1.225a3.329,3.329,0,0,1-4.306-2.075Z" transform="translate(-821.851 -493.68)" fill="#f1cea5"/>
            <path id="Trazado_24999" data-name="Trazado 24999" d="M818.432,502.9a1.653,1.653,0,0,0,1.883,1.425l5.353-.893a1.7,1.7,0,0,0,1.369-1.956h0a1.669,1.669,0,0,0-1.889-1.417l-5.347.878a1.71,1.71,0,0,0-1.369,1.964Z" transform="translate(-818.41 -495.382)" fill="#f1cea5"/>
            <path id="Trazado_25000" data-name="Trazado 25000" d="M818.495,508.437a1.657,1.657,0,0,0,1.882,1.44l5.354-.842a1.688,1.688,0,0,0,1.384-1.942h0a1.643,1.643,0,0,0-1.875-1.432l-5.354.834a1.705,1.705,0,0,0-1.39,1.942Z" transform="translate(-818.436 -497.613)" fill="#f1cea5"/>
            <path id="Trazado_25001" data-name="Trazado 25001" d="M820.609,513.5a1.636,1.636,0,0,0,2.031,1.174l5.219-1.52A1.713,1.713,0,0,0,829,511.037h0a1.637,1.637,0,0,0-2.031-1.174l-5.218,1.521a1.7,1.7,0,0,0-1.141,2.111Z" transform="translate(-819.26 -499.268)" fill="#f1cea5"/>
            <path id="Trazado_25002" data-name="Trazado 25002" d="M823.972,517.708a1.47,1.47,0,0,0,1.839,1.048l4.7-1.41a1.556,1.556,0,0,0,1.012-1.919h0a1.481,1.481,0,0,0-1.847-1.048l-4.7,1.417a1.538,1.538,0,0,0-1.006,1.912Z" transform="translate(-820.599 -501.068)" fill="#f1cea5"/>
            <path id="Trazado_25003" data-name="Trazado 25003" d="M835.58,495.686a1.665,1.665,0,0,1-1.989,1.292l-5.312-1.284a1.716,1.716,0,0,1-1.241-2.06h0a1.647,1.647,0,0,1,1.989-1.284l5.311,1.277a1.729,1.729,0,0,1,1.241,2.059Z" transform="translate(-821.827 -492.303)" fill="#f1cea5"/>
          </g>
          <g id="Grupo_12104" data-name="Grupo 12104" transform="translate(0 165.406)">
            <g id="Grupo_12103" data-name="Grupo 12103" transform="translate(0 0.389)">
              <path id="Trazado_25006" data-name="Trazado 25006" d="M623.29,748.7h7.067l4.988-10.021H623.29Z" transform="translate(-556.363 -614.369)" fill="#fff"/>
              <path id="Trazado_25009" data-name="Trazado 25009" d="M538.758,661.042s1.94,4.409,8.4,4.424,48.525.129,54.859,0,7.157-4.424,7.157-4.424l7.491-114.22H527.972Z" transform="translate(-518.415 -537.987)" fill="#bfbfbf"/>
              <path id="Trazado_25010" data-name="Trazado 25010" d="M652.773,546.822h10.474l-7.491,114.22s-.823,4.3-7.157,4.424c-.746.016-1.991.027-3.61.037Z" transform="translate(-565.002 -537.987)" fill="#4c78a4" opacity="0.25" style="mix-blend-mode: multiply;isolation: isolate"/>
              <path id="Trazado_25011" data-name="Trazado 25011" d="M545.291,664.517c0-3.9,3.021-6.186,6.587-6.587l1.563-.177a7.9,7.9,0,0,1-4.088-3.609L539.218,546.822H527.972l10.786,114.22s1.582,3.56,6.6,4.287A5.8,5.8,0,0,1,545.291,664.517Z" transform="translate(-518.415 -537.987)" fill="#fff" opacity="0.25" style="mix-blend-mode: overlay;isolation: isolate"/>
              <path id="Trazado_25012" data-name="Trazado 25012" d="M570.718,731.507a10.375,10.375,0,0,1-5.606-1.483c-.052.193-.092.389-.151.58a19.819,19.819,0,0,1-4.413,7.8c7.674.018,48.224.124,54.433,0,6.334-.129,7.157-4.424,7.157-4.424l.16-2.438C610.446,731.612,576.465,731.52,570.718,731.507Z" transform="translate(-531.384 -610.924)" fill="#4c78a4" opacity="0.25" style="mix-blend-mode: multiply;isolation: isolate"/>
              <g id="Grupo_12101" data-name="Grupo 12101" transform="translate(9.557 8.835)">
                <g id="Grupo_12100" data-name="Grupo 12100" clip-path="url(#clip-path-3)">
                  <path id="Trazado_25013" data-name="Trazado 25013" d="M527.654,721.67a18.58,18.58,0,1,0,18.58-18.578A18.58,18.58,0,0,0,527.654,721.67Z" transform="translate(-527.845 -609.037)" fill="#272828" opacity="0.31" style="mix-blend-mode: multiply;isolation: isolate"/>
                </g>
              </g>
              <path id="Trazado_25015" data-name="Trazado 25015" d="M537.155,725.451a12.861,12.861,0,1,0,12.861-12.86A12.861,12.861,0,0,0,537.155,725.451Z" transform="translate(-522.071 -603.983)" fill="#272828"/>
              <path id="Trazado_25016" data-name="Trazado 25016" d="M544.647,728.433A8.352,8.352,0,1,0,553,720.081,8.353,8.353,0,0,0,544.647,728.433Z" transform="translate(-525.054 -606.965)" fill="#484848"/>
              <path id="Trazado_25017" data-name="Trazado 25017" d="M552.382,731.512a3.7,3.7,0,1,0,3.7-3.7A3.7,3.7,0,0,0,552.382,731.512Z" transform="translate(-528.133 -610.044)" fill="#272828"/>
              <path id="Trazado_25018" data-name="Trazado 25018" d="M529.165,559.468l-1.194-12.645h88.688l-.829,12.645Z" transform="translate(-518.415 -537.987)" fill="#cecece" opacity="0.38" style="mix-blend-mode: multiply;isolation: isolate"/>
              <path id="Trazado_25019" data-name="Trazado 25019" d="M621.345,544.371v4.753c0,1.2-1.275,2.165-2.849,2.165H525.013c-1.575,0-2.849-.968-2.849-2.165v-4.753Z" transform="translate(-516.102 -537.011)" fill="#9f9f9f"/>
              <path id="Trazado_25020" data-name="Trazado 25020" d="M512.978,532.9a2.994,2.994,0,0,1,2.153-.746h20.694l81.51,4.632v2.72H512.1v-3.564S511.937,533.784,512.978,532.9Z" transform="translate(-512.093 -532.142)" fill="#c3c3c3"/>
              <path id="Trazado_25022" data-name="Trazado 25022" d="M561.885,733.959a9.93,9.93,0,0,1-19.859,0Z" transform="translate(-524.01 -612.49)" fill="#272828" opacity="0.43" style="mix-blend-mode: multiply;isolation: isolate"/>
              <g id="Grupo_12102" data-name="Grupo 12102" transform="translate(31.825 33.552)" opacity="0.64">
                <path id="Trazado_25023" data-name="Trazado 25023" d="M586.747,590.765a4.338,4.338,0,0,0-2.09,1.914l-4.908,8.536,7.612,4.382,5.739-9.977-.733-1.282C590.525,591.109,588.586,589.985,586.747,590.765Z" transform="translate(-570.853 -588.939)" fill="#fff"/>
                <path id="Trazado_25024" data-name="Trazado 25024" d="M600.139,592.417l4.679,8.2-1.659.488.225.489,8.56,3.735,3.447-7.264-.176-.508-1.746.513c-1.1-1.873-2.273-3.869-3.036-5.162-.158-.268-.31-.536-.459-.8-1.278-2.256-2.235-3.937-6.188-4.22h-8.352C596.889,588.3,598.512,589.567,600.139,592.417Z" transform="translate(-577.098 -587.888)" fill="#fff"/>
                <path id="Trazado_25025" data-name="Trazado 25025" d="M624.9,630.091h1.475c3.72-.006,5.655-1.139,5.885-3.122a4.322,4.322,0,0,0-.633-2.764l-4.994-8.483-7.573,4.453Z" transform="translate(-586.504 -598.969)" fill="#fff"/>
                <path id="Trazado_25026" data-name="Trazado 25026" d="M619.937,641.289l-9.439.014.395-1.682-.538-.047-7.475,5.6,4.61,6.584.529.1.416-1.771c2.171-.031,4.487-.064,5.988-.088.312,0,.619,0,.923,0,2.593,0,4.527,0,6.727-3.293l4.128-7.262C625.123,640.5,623.219,641.281,619.937,641.289Z" transform="translate(-580.062 -608.41)" fill="#fff"/>
                <path id="Trazado_25027" data-name="Trazado 25027" d="M578.41,642.495l-.74,1.277c-1.863,3.221-1.859,5.461-.258,6.657a4.321,4.321,0,0,0,2.705.843l9.846-.054-.044-8.784Z" transform="translate(-569.456 -609.604)" fill="#fff"/>
                <path id="Trazado_25028" data-name="Trazado 25028" d="M576.391,623.982l1.256,1.189.312-.443-1.082-9.275-8.011.676-.351.409,1.322,1.248c-1.064,1.892-2.2,3.912-2.932,5.221-.152.272-.307.538-.46.8-1.306,2.243-2.279,3.913-.533,7.473l4.2,7.218c-.375-1.465-.1-3.506,1.547-6.346Z" transform="translate(-564.969 -598.862)" fill="#fff"/>
              </g>
              <path id="Trazado_25029" data-name="Trazado 25029" d="M666.05,538.693l12.253.7v7.473c0,1.2-1.275,2.165-2.849,2.165H665.23Z" transform="translate(-573.061 -534.75)" fill="#fff" opacity="0.25" style="mix-blend-mode: overlay;isolation: isolate"/>
              <rect id="Rectángulo_2484" data-name="Rectángulo 2484" width="99.181" height="1.751" transform="translate(6.062 7.36)" fill="#fff" opacity="0.25" style="mix-blend-mode: overlay;isolation: isolate"/>
              <path id="Trazado_25052" data-name="Trazado 25052" d="M512.109,555.181l11.628,5.056V544.371H512.109Z" transform="translate(-512.099 -537.011)" fill="#8d8d8d" style="mix-blend-mode: multiply;isolation: isolate"/>
            </g>
            <path id="Trazado_25030" data-name="Trazado 25030" d="M610.126,536.28H564.042l-2-4.785h55.064Z" transform="translate(-531.981 -531.495)" fill="#fff"/>
          </g>
          <path id="Trazado_25034" data-name="Trazado 25034" d="M592.447,488.243l-5.4-.211-7.282-20.119,8.39,11.834Z" transform="translate(-539.035 -340.775)" fill="#e8e0d6" opacity="0.29" style="mix-blend-mode: multiply;isolation: isolate"/>
          <path id="Trazado_25036" data-name="Trazado 25036" d="M669.607,396.045c7.133-1.929,14.817-9.563,19.715-16.262,3.618-4.948,7.358-10.064,11.118-11.935l5.12-12.692c-5.89.277-13.037,5.156-14.5,6.4-3.847,3.259-7.086,7.687-10.246,12.009-3.846,5.261-10.447,11.893-14.032,12.815-7.52,1.922-28.088-.91-35.106-2.058l-.209,9.1c2.8.459,26.295,5.672,37.281,2.863C668.816,396.259,669.539,396.064,669.607,396.045Z" transform="translate(-559.618 -295.884)" fill="#f1cea5"/>
          <path id="Trazado_25037" data-name="Trazado 25037" d="M694.98,361.553c-3.847,3.259-7.086,7.687-10.246,12.009-3.846,5.261-10.447,11.893-14.031,12.815-5.746,1.469-19.1.162-28.22-1.049l-1.166,9.207c8.4,1.529,23.264,3.809,31.353,1.742.069-.017.792-.213.859-.232,7.133-1.929,14.817-9.563,19.715-16.262,3.618-4.948,7.358-10.064,11.118-11.935l5.12-12.692C703.591,355.433,696.444,360.312,694.98,361.553Z" transform="translate(-563.54 -295.884)" fill="#d687d4"/>
        </g>
      </g>
      <g id="Grupo_12107" data-name="Grupo 12107" transform="translate(376.209 6.709)">
        <path id="Trazado_25038" data-name="Trazado 25038" d="M808.421,283.478a.631.631,0,0,1-.876.168l-2.194-1.5a.63.63,0,0,1-.166-.874h0a.63.63,0,0,1,.876-.169l2.192,1.5a.631.631,0,0,1,.168.875Z" transform="translate(-786.077 -270.126)" fill="#fff" opacity="0.1" style="mix-blend-mode: overlay;isolation: isolate"/>
        <path id="Trazado_25039" data-name="Trazado 25039" d="M795.97,279.41a.63.63,0,0,1-.3.84l-2.4,1.138a.622.622,0,0,1-.836-.3h0a.625.625,0,0,1,.293-.84l2.4-1.14a.63.63,0,0,1,.841.3Z" transform="translate(-781.019 -269.351)" fill="#fff" opacity="0.15" style="mix-blend-mode: overlay;isolation: isolate"/>
        <path id="Trazado_25040" data-name="Trazado 25040" d="M805.448,274.447a.637.637,0,0,1-.739.5l-2.606-.508a.629.629,0,0,1-.5-.739h0a.629.629,0,0,1,.739-.5l2.6.51a.628.628,0,0,1,.5.734Z" transform="translate(-784.69 -267.018)" fill="#fff" opacity="0.19" style="mix-blend-mode: overlay;isolation: isolate"/>
        <path id="Trazado_25041" data-name="Trazado 25041" d="M773.6,265.233a.63.63,0,0,1,.223-.863l2.288-1.347a.629.629,0,0,1,.863.221h0a.632.632,0,0,1-.225.863l-2.288,1.349a.631.631,0,0,1-.861-.223Z" transform="translate(-773.509 -262.935)" fill="#fff" opacity="0.19" style="mix-blend-mode: overlay;isolation: isolate"/>
        <path id="Trazado_25042" data-name="Trazado 25042" d="M781.7,273.649a.636.636,0,0,1-.831-.336l-1.044-2.436a.628.628,0,0,1,.333-.828h0a.627.627,0,0,1,.825.329l1.047,2.441a.636.636,0,0,1-.33.829Z" transform="translate(-776.003 -265.747)" fill="#fff" opacity="0.1" style="mix-blend-mode: overlay;isolation: isolate"/>
        <path id="Trazado_25043" data-name="Trazado 25043" d="M791.221,270.679a.63.63,0,0,1,.075-.888l2.024-1.722a.626.626,0,0,1,.883.071h0a.629.629,0,0,1-.07.889l-2.025,1.721a.632.632,0,0,1-.888-.071Z" transform="translate(-780.501 -264.919)" fill="#fff" opacity="0.15" style="mix-blend-mode: overlay;isolation: isolate"/>
      </g>
      <g id="Grupo_12108" data-name="Grupo 12108" transform="translate(361.725 12.122)">
        <path id="Trazado_25044" data-name="Trazado 25044" d="M800.608,287.493a.657.657,0,0,1,.894.191l1.464,2.24a.622.622,0,0,1-.2.868h0a.656.656,0,0,1-.894-.191l-1.462-2.237a.623.623,0,0,1,.2-.87Z" transform="translate(-769.696 -278.085)" fill="#fff" opacity="0.1" style="mix-blend-mode: overlay;isolation: isolate"/>
        <path id="Trazado_25045" data-name="Trazado 25045" d="M760.717,272.685a.637.637,0,0,1,.619-.655l2.722-.1a.631.631,0,0,1,.667.6h0a.632.632,0,0,1-.616.657l-2.721.1a.637.637,0,0,1-.672-.6Z" transform="translate(-753.932 -271.928)" fill="#fff" opacity="0.15" style="mix-blend-mode: overlay;isolation: isolate"/>
        <path id="Trazado_25046" data-name="Trazado 25046" d="M749.787,287.668a.663.663,0,0,1,.9-.168l2.25,1.493a.621.621,0,0,1,.172.876h0a.654.654,0,0,1-.9.166l-2.249-1.5a.618.618,0,0,1-.175-.872Z" transform="translate(-749.537 -278.085)" fill="#fff" opacity="0.19" style="mix-blend-mode: overlay;isolation: isolate"/>
        <path id="Trazado_25047" data-name="Trazado 25047" d="M784.923,287.7a.652.652,0,0,1-.872.265l-2.41-1.231a.622.622,0,0,1-.275-.85h0a.658.658,0,0,1,.873-.265l2.412,1.231a.622.622,0,0,1,.272.849Z" transform="translate(-762.124 -277.348)" fill="#fff" opacity="0.19" style="mix-blend-mode: overlay;isolation: isolate"/>
        <path id="Trazado_25048" data-name="Trazado 25048" d="M772.2,279.778a.644.644,0,0,1,.646.636l0,2.651a.638.638,0,0,1-.649.63h0a.637.637,0,0,1-.645-.628v-2.655a.645.645,0,0,1,.645-.633Z" transform="translate(-758.248 -275.053)" fill="#fff" opacity="0.1" style="mix-blend-mode: overlay;isolation: isolate"/>
        <path id="Trazado_25049" data-name="Trazado 25049" d="M814.813,298.654a.657.657,0,0,1-.822-.394l-.873-2.515a.624.624,0,0,1,.4-.8h0a.647.647,0,0,1,.819.395l.87,2.515a.623.623,0,0,1-.4.8Z" transform="translate(-774.78 -281.078)" fill="#fff" opacity="0.19" style="mix-blend-mode: overlay;isolation: isolate"/>
        <path id="Trazado_25050" data-name="Trazado 25050" d="M750.09,297.076a.643.643,0,0,1,.646.636v2.651a.637.637,0,0,1-.647.63h0a.637.637,0,0,1-.646-.628v-2.656a.644.644,0,0,1,.646-.633Z" transform="translate(-749.444 -281.94)" fill="#fff" opacity="0.1" style="mix-blend-mode: overlay;isolation: isolate"/>
        <path id="Trazado_25051" data-name="Trazado 25051" d="M761.9,282.225a.629.629,0,0,1-.43.788l-2.6.785a.647.647,0,0,1-.807-.414h0a.629.629,0,0,1,.425-.789l2.6-.785a.652.652,0,0,1,.809.415Z" transform="translate(-752.863 -275.852)" fill="#fff" opacity="0.15" style="mix-blend-mode: overlay;isolation: isolate"/>
      </g>
    </g>
  </g>
</svg>
