<svg xmlns="http://www.w3.org/2000/svg" width="154" height="154" viewBox="0 0 154 154">
  <g id="Grupo_19044" data-name="Grupo 19044" transform="translate(-390 -2527)">
    <g id="Elipse_814" data-name="Elipse 814" transform="translate(390 2527)" fill="#739ee3" stroke="#2643a2" stroke-width="3">
      <circle cx="77" cy="77" r="77" stroke="none"/>
      <circle cx="77" cy="77" r="75.5" fill="none"/>
    </g>
    <g id="Grupo_12017" data-name="Grupo 12017" transform="translate(-3824 -49.18)">
      <path id="Trazado_24594" data-name="Trazado 24594" d="M4361.735,2733.326a3.517,3.517,0,0,0-3.518,3.518h-38.7a3.518,3.518,0,0,0-3.518-3.518v-59.808a3.518,3.518,0,0,0,3.518-3.518h38.7a3.517,3.517,0,0,0,3.518,3.518Z" transform="translate(-48.367 -48.367)" fill="#ebedf0"/>
      <g id="Grupo_12016" data-name="Grupo 12016" transform="translate(4254 2608)">
        <g id="Grupo_12015" data-name="Grupo 12015" transform="translate(0 0)">
          <g id="Grupo_12013" data-name="Grupo 12013" transform="translate(1.319 1.319)">
            <ellipse id="Elipse_825" data-name="Elipse 825" cx="7.5" cy="7" rx="7.5" ry="7" transform="translate(41.681 71.861)" fill="#8ff3ad"/>
            <path id="Trazado_24595" data-name="Trazado 24595" d="M4422.813,2919.41a11.259,11.259,0,1,1,22.517,0,5.216,5.216,0,0,1,2.6,3.2,4.954,4.954,0,0,1,.211,1.46,18.119,18.119,0,0,0-4.116,9.956,5,5,0,0,1-1.161.863,11.078,11.078,0,0,0-8.8,3.253,10.975,10.975,0,0,0-8.795-3.237,5.03,5.03,0,0,1-1.161-.879,5.249,5.249,0,0,1-1.443-4.679,3.882,3.882,0,0,1,.141-.615,5.27,5.27,0,0,1,0-9.324Zm18.295,4.662a7.036,7.036,0,1,0-7.037,7.036A7.035,7.035,0,0,0,4441.108,2924.072Z" transform="translate(-4384.819 -2844.916)" fill="#ebedf0"/>
            <path id="Trazado_24596" data-name="Trazado 24596" d="M4444,3024.7v-1.478a10.975,10.975,0,0,1,8.795,3.237,11.08,11.08,0,0,1,8.8-3.253v15.567l-8.8-5.277L4444,3038.77V3024.7Z" transform="translate(-4403.542 -2933.228)" fill="#ebedf0"/>
            <path id="Trazado_24597" data-name="Trazado 24597" d="M4293.422,2705.47H4260V2614h70.361v91.47h-12.313v-1.495a5.016,5.016,0,0,0,1.162-.863,18.118,18.118,0,0,1,4.115-9.956,4.971,4.971,0,0,0-.211-1.46l.211-.123v-65.26a5.27,5.27,0,0,1-5.277-5.277h-45.735a5.269,5.269,0,0,1-5.276,5.277v66.844a5.269,5.269,0,0,1,5.276,5.277h25.541a5.247,5.247,0,0,0,1.443,4.679,5.012,5.012,0,0,0,1.161.88v1.478Z" transform="translate(-4260 -2614)" fill="#8ff3ad"/>
            <path id="Trazado_24598" data-name="Trazado 24598" d="M4379.663,2691.277l-19.35,19.35L4348,2698.313l5.277-5.277,7.036,7.036L4374.386,2686Z" transform="translate(-4328.65 -2670.169)" fill="#8ff3ad"/>
          </g>
          <g id="Grupo_12014" data-name="Grupo 12014">
            <path id="Trazado_24599" data-name="Trazado 24599" d="M4355.633,2707.265a1.315,1.315,0,0,1-.933-.387l-12.314-12.313a1.32,1.32,0,0,1,0-1.865l5.278-5.277a1.318,1.318,0,0,1,1.865,0l6.1,6.1,13.14-13.139a1.318,1.318,0,0,1,1.865,0l5.277,5.277a1.318,1.318,0,0,1,0,1.865l-19.349,19.35A1.316,1.316,0,0,1,4355.633,2707.265Zm-10.447-13.633,10.447,10.448,17.483-17.484-3.411-3.411-13.139,13.139a1.319,1.319,0,0,1-1.866,0l-6.1-6.1Z" transform="translate(-4322.65 -2664.169)" fill="#303e58"/>
            <path id="Trazado_24600" data-name="Trazado 24600" d="M4325.681,2702.108H4320.4a1.319,1.319,0,0,1,0-2.638h3.958v-88.832h-67.723v88.832h32.1a1.319,1.319,0,0,1,0,2.638h-33.422a1.32,1.32,0,0,1-1.319-1.319v-91.47a1.319,1.319,0,0,1,1.319-1.319h70.361a1.319,1.319,0,0,1,1.319,1.319v91.47A1.32,1.32,0,0,1,4325.681,2702.108Z" transform="translate(-4254 -2608)" fill="#303e58"/>
            <path id="Trazado_24601" data-name="Trazado 24601" d="M4310.187,2720.036H4292.6a1.319,1.319,0,0,1-1.319-1.319,3.962,3.962,0,0,0-3.958-3.958,1.32,1.32,0,0,1-1.319-1.319V2646.6a1.32,1.32,0,0,1,1.319-1.319,3.963,3.963,0,0,0,3.958-3.958A1.319,1.319,0,0,1,4292.6,2640h45.735a1.319,1.319,0,0,1,1.319,1.319,3.962,3.962,0,0,0,3.958,3.958,1.32,1.32,0,0,1,1.319,1.319v51.012a1.32,1.32,0,0,1-2.639,0v-49.825a6.616,6.616,0,0,1-5.144-5.145h-43.362a6.616,6.616,0,0,1-5.145,5.145v64.47a6.616,6.616,0,0,1,5.145,5.145h16.4a1.319,1.319,0,0,1,0,2.638Z" transform="translate(-4278.964 -2632.964)" fill="#303e58"/>
            <path id="Trazado_24602" data-name="Trazado 24602" d="M4374.982,2834.639H4343.32a1.319,1.319,0,1,1,0-2.639h31.662a1.319,1.319,0,1,1,0,2.639Z" transform="translate(-4322.65 -2782.747)" fill="#979faf"/>
            <path id="Trazado_24603" data-name="Trazado 24603" d="M4397.392,2874.639h-14.072a1.319,1.319,0,0,1,0-2.639h14.072a1.319,1.319,0,0,1,0,2.639Z" transform="translate(-4353.855 -2813.952)" fill="#979faf"/>
            <path id="Trazado_24604" data-name="Trazado 24604" d="M4454.355,2952.711a8.355,8.355,0,1,1,8.355-8.355A8.365,8.365,0,0,1,4454.355,2952.711Zm0-14.072a5.717,5.717,0,1,0,5.717,5.717A5.723,5.723,0,0,0,4454.355,2938.639Z" transform="translate(-4403.783 -2863.879)" fill="#303e58"/>
            <path id="Trazado_24605" data-name="Trazado 24605" d="M4429.392,2934.783a6.571,6.571,0,0,1-5.281-2.646,6.648,6.648,0,0,1-4.155-.756,6.316,6.316,0,0,1-1.454-1.1,40.411,40.411,0,0,0-4.5-10.889,40.863,40.863,0,0,0,4.5-10.889,40.982,40.982,0,0,0,10.89-4.5,40.727,40.727,0,0,0,10.883,4.5,6.632,6.632,0,0,1,1.864,5.615,6.515,6.515,0,0,1,2.379,3.45,6.266,6.266,0,0,1,.265,1.831,40.765,40.765,0,0,0-4.5,10.883,6.306,6.306,0,0,1-1.459,1.088,18.149,18.149,0,0,0-9.437,3.42Zm-4.663-5.453a1.32,1.32,0,0,1,1.167.7,3.949,3.949,0,0,0,6.99,0,1.32,1.32,0,0,1,1.559-.645,3.918,3.918,0,0,0,3.089-.327l.021-.011a3.718,3.718,0,0,0,.859-.637,3.96,3.96,0,0,0,.976-3.967,1.319,1.319,0,0,1,.644-1.562,3.94,3.94,0,0,0,2.11-3.5,3.63,3.63,0,0,0-.153-1.071c0-.012-.007-.023-.01-.035a3.877,3.877,0,0,0-1.941-2.386,1.318,1.318,0,0,1-.65-1.561,3.946,3.946,0,0,0-4.942-4.947,1.32,1.32,0,0,1-1.562-.644,3.95,3.95,0,0,0-6.99,0,1.319,1.319,0,0,1-1.562.644,3.946,3.946,0,0,0-4.942,4.947,1.319,1.319,0,0,1-.645,1.558,3.949,3.949,0,0,0,0,6.99,1.319,1.319,0,0,1,.635,1.587,2.858,2.858,0,0,0-.091.417c0,.009,0,.019-.005.028a3.939,3.939,0,0,0,1.087,3.5,3.738,3.738,0,0,0,.85.645,4.014,4.014,0,0,0,3.118.322A1.309,1.309,0,0,1,4424.729,2929.331Z" transform="translate(-4378.819 -2838.916)" fill="#303e58"/>
            <path id="Trazado_24606" data-name="Trazado 24606" d="M4456.91,3053.193a1.316,1.316,0,0,1-.679-.188l-8.116-4.87L4440,3053a1.319,1.319,0,0,1-2-1.131v-10.554a1.319,1.319,0,1,1,2.639,0v8.224l6.8-4.078a1.319,1.319,0,0,1,1.357,0l6.8,4.078v-8.224a1.319,1.319,0,1,1,2.638,0v10.554a1.318,1.318,0,0,1-1.319,1.319Z" transform="translate(-4397.542 -2945.012)" fill="#303e58"/>
          </g>
        </g>
      </g>
    </g>
  </g>
</svg>
