<svg xmlns="http://www.w3.org/2000/svg" width="154" height="154" viewBox="0 0 154 154">
  <g id="Grupo_19049" data-name="Grupo 19049" transform="translate(-390 -3903)">
    <g id="Elipse_829" data-name="Elipse 829" transform="translate(390 3903)" fill="#f56b6b" stroke="#2643a2" stroke-width="3">
      <circle cx="77" cy="77" r="77" stroke="none"/>
      <circle cx="77" cy="77" r="75.5" fill="none"/>
    </g>
    <g id="Grupo_12043" data-name="Grupo 12043" transform="translate(-239.803 3233.328)">
      <path id="Trazado_24745" data-name="Trazado 24745" d="M776.441,739.1a36.926,36.926,0,1,0-36.926,36.925A36.925,36.925,0,0,0,776.441,739.1Z" transform="translate(-28.101 -2.418)" fill="#ebedf0"/>
      <g id="Grupo_12042" data-name="Grupo 12042" transform="translate(659.803 698.491)">
        <g id="Grupo_12041" data-name="Grupo 12041">
          <g id="Grupo_12039" data-name="Grupo 12039" transform="translate(1.259 1.259)">
            <path id="Trazado_24746" data-name="Trazado 24746" d="M688.066,878.2a5.028,5.028,0,0,1,5.035,5.035,4.935,4.935,0,0,1-1.679,3.742v8.007a3.357,3.357,0,0,1-6.714,0v-8.007a4.932,4.932,0,0,1-1.678-3.742A5.029,5.029,0,0,1,688.066,878.2Z" transform="translate(-676.317 -817.775)" fill="#fff"/>
            <path id="Trazado_24747" data-name="Trazado 24747" d="M719.133,809.739a4.2,4.2,0,0,1,0,8.392H687.21a4.2,4.2,0,0,1,0-8.392h31.923Z" transform="translate(-676.317 -772.813)" fill="#fff"/>
            <path id="Trazado_24748" data-name="Trazado 24748" d="M861.637,804.777a3.438,3.438,0,0,1-1.948.621,3.353,3.353,0,0,1-.605-.05,3.467,3.467,0,0,1-2.2-1.41l-12.824-18.295a5.7,5.7,0,0,1-1.006-2.736l-1.31-12.554a5.761,5.761,0,0,1,2.435-5.338l-.016-.016,6.025-4.213,5.153-3.592a6.186,6.186,0,0,1,5.958,2.569l19.3,27.577a3.219,3.219,0,0,1,.638,1.9,3.421,3.421,0,0,1-1.478,2.836Zm6.176-24.807-3.642-5.254-3.944,2.736-2.737-3.944-5.254,3.642,2.736,3.944-3.943,2.736,3.642,5.254,3.944-2.736,2.737,3.945,5.253-3.642-2.735-3.945Z" transform="translate(-780.534 -738.261)" fill="#fff"/>
            <path id="Trazado_24749" data-name="Trazado 24749" d="M832.432,704.609l-2.786,1.948a5.132,5.132,0,0,0-2.115,3.306,5.068,5.068,0,0,0,.856,3.827l1.947,2.785-8.376,5.875-2.937-4.2a3.419,3.419,0,0,0-3.106-1.443H815.9l-4.161-5.942,10.539-7.368a7.089,7.089,0,0,1,4.029-1.242,6.582,6.582,0,0,1,3.138.823Z" transform="translate(-760.846 -702.159)" fill="#fff"/>
            <path id="Trazado_24750" data-name="Trazado 24750" d="M852.515,746.624l-5.153,3.592-6.025,4.213-3.927-5.573,1.41-.973,8.376-5.875,1.41-.973Z" transform="translate(-777.707 -727.692)" fill="#8ff3ad"/>
            <path id="Trazado_24751" data-name="Trazado 24751" d="M663.471,821.554V751.059h23.5V771.2h-12.6a4.2,4.2,0,0,0,0,8.392h12.6v41.961Zm16.784-21.82a5.035,5.035,0,0,0-10.071,0,4.932,4.932,0,0,0,1.678,3.742v8.007a3.357,3.357,0,0,0,6.714,0v-8.007A4.935,4.935,0,0,0,680.255,799.734Z" transform="translate(-663.471 -734.275)" fill="#8ff3ad"/>
            <path id="Trazado_24752" data-name="Trazado 24752" d="M801.073,727.244l4.161,5.942a3.333,3.333,0,0,0-1.627.6l-4.2,2.937-3.911-5.588Z" transform="translate(-750.183 -718.634)" fill="#8ff3ad"/>
            <path id="Trazado_24753" data-name="Trazado 24753" d="M881.993,806.058l3.642,5.253-3.944,2.735,2.735,3.945-5.253,3.642-2.737-3.945-3.944,2.736-3.642-5.254,3.944-2.736-2.736-3.944,5.254-3.642,2.737,3.944Z" transform="translate(-798.356 -769.602)" fill="#8ff3ad"/>
          </g>
          <g id="Grupo_12040" data-name="Grupo 12040">
            <path id="Trazado_24754" data-name="Trazado 24754" d="M716.724,816.981H684.8a5.455,5.455,0,0,1,0-10.91h31.923a5.455,5.455,0,0,1,0,10.91ZM684.8,808.589a2.937,2.937,0,0,0,0,5.874h31.923a2.937,2.937,0,0,0,0-5.874Z" transform="translate(-672.649 -769.145)" fill="#303e58"/>
            <path id="Trazado_24755" data-name="Trazado 24755" d="M684.56,820.4h-23.5a1.259,1.259,0,0,1-1.259-1.259V748.651a1.259,1.259,0,0,1,1.259-1.259h23.5a1.259,1.259,0,0,1,1.259,1.259v13.528a1.259,1.259,0,1,1-2.518,0V749.91h-20.98v67.976H683.3V784a1.259,1.259,0,1,1,2.518,0v35.147A1.259,1.259,0,0,1,684.56,820.4Z" transform="translate(-659.803 -730.607)" fill="#303e58"/>
            <path id="Trazado_24756" data-name="Trazado 24756" d="M685.657,897.19a4.621,4.621,0,0,1-4.616-4.616V885.1a6.227,6.227,0,0,1-1.678-4.276,6.294,6.294,0,1,1,12.588,0,6.232,6.232,0,0,1-1.678,4.276v7.473A4.621,4.621,0,0,1,685.657,897.19Zm0-20.141a3.781,3.781,0,0,0-3.777,3.776,3.69,3.69,0,0,0,1.246,2.793,1.26,1.26,0,0,1,.432.949v8.007a2.1,2.1,0,0,0,4.2,0v-8.007a1.259,1.259,0,0,1,.432-.949,3.692,3.692,0,0,0,1.247-2.793A3.781,3.781,0,0,0,685.657,877.049Z" transform="translate(-672.649 -814.107)" fill="#303e58"/>
            <path id="Trazado_24757" data-name="Trazado 24757" d="M857.281,804.247a4.61,4.61,0,0,1-.813-.068,4.716,4.716,0,0,1-3.019-1.928l-12.825-18.3a6.978,6.978,0,0,1-1.228-3.333l-1.31-12.549a7.045,7.045,0,0,1,2.966-6.5,1.259,1.259,0,1,1,1.442,2.063,4.526,4.526,0,0,0-1.9,4.177l1.31,12.554a4.465,4.465,0,0,0,.781,2.139l12.828,18.3a2.2,2.2,0,0,0,1.4.9,2.048,2.048,0,0,0,.372.029,2.19,2.19,0,0,0,1.236-.4l18.115-12.7a2.156,2.156,0,0,0,.941-1.805,1.965,1.965,0,0,0-.407-1.17l-19.305-27.582a4.909,4.909,0,0,0-4.746-2.044,1.259,1.259,0,1,1-.36-2.492,7.416,7.416,0,0,1,7.168,3.091l19.3,27.578a4.48,4.48,0,0,1,.866,2.619,4.7,4.7,0,0,1-2.022,3.873l-18.118,12.7A4.707,4.707,0,0,1,857.281,804.247Z" transform="translate(-776.868 -734.592)" fill="#303e58"/>
            <path id="Trazado_24758" data-name="Trazado 24758" d="M838.929,753.279a1.257,1.257,0,0,1-1.03-.534l-3.927-5.573a1.258,1.258,0,0,1,.314-1.761l1.41-.973,8.368-5.87,1.418-.978a1.258,1.258,0,0,1,1.746.314l3.911,5.588a1.259,1.259,0,1,1-2.062,1.443l-3.194-4.564-.38.263-8.739,6.125,2.473,3.509,5-3.494a1.259,1.259,0,0,1,1.443,2.063l-6.025,4.213A1.255,1.255,0,0,1,838.929,753.279Z" transform="translate(-774.039 -724.023)" fill="#303e58"/>
            <path id="Trazado_24759" data-name="Trazado 24759" d="M797,719.1a1.2,1.2,0,0,1-.219-.02,1.258,1.258,0,0,1-.812-.518l-3.911-5.588a1.259,1.259,0,0,1,.31-1.753l16.112-11.263a8.346,8.346,0,0,1,4.75-1.469,7.86,7.86,0,0,1,3.723.968l3.005,1.636a1.259,1.259,0,0,1,.119,2.137l-2.786,1.948a3.845,3.845,0,0,0-1.6,2.493,3.788,3.788,0,0,0,.641,2.878l1.954,2.8a1.259,1.259,0,1,1-2.063,1.443L814.283,712a6.28,6.28,0,0,1-1.064-4.766,6.351,6.351,0,0,1,2.632-4.119l1.121-.784-1.2-.655a5.318,5.318,0,0,0-2.536-.669,5.8,5.8,0,0,0-3.307,1.014l-15.081,10.542,2.467,3.525,3.165-2.215a4.556,4.556,0,0,1,2.238-.827,1.259,1.259,0,0,1,.222,2.508,2.077,2.077,0,0,0-1.015.38l-4.2,2.938A1.257,1.257,0,0,1,797,719.1Z" transform="translate(-746.515 -698.491)" fill="#303e58"/>
            <path id="Trazado_24760" data-name="Trazado 24760" d="M827.544,749.021a1.258,1.258,0,0,1-1.032-.537l-2.937-4.2a2.158,2.158,0,0,0-1.967-.91,1.259,1.259,0,0,1-.216-2.509,4.693,4.693,0,0,1,4.249,1.979l2.934,4.192a1.259,1.259,0,0,1-1.03,1.981Z" transform="translate(-765.172 -726.312)" fill="#303e58"/>
            <path id="Trazado_24761" data-name="Trazado 24761" d="M813.506,732.044a1.261,1.261,0,0,1-.838-.316,1.205,1.205,0,0,1-.21-.23l-4.161-5.942a1.259,1.259,0,1,1,2.062-1.444l4.085,5.833a1.241,1.241,0,0,1,.32.831A1.266,1.266,0,0,1,813.506,732.044Z" transform="translate(-757.178 -714.966)" fill="#303e58"/>
            <path id="Trazado_24762" data-name="Trazado 24762" d="M813.434,757.3a1.259,1.259,0,0,1-1.036-1.973,16.442,16.442,0,0,0,2.571-12.882,1.259,1.259,0,0,1,2.468-.5,19.16,19.16,0,0,1-2.964,14.812A1.257,1.257,0,0,1,813.434,757.3Z" transform="translate(-759.876 -726.367)" fill="#303e58"/>
            <path id="Trazado_24763" data-name="Trazado 24763" d="M876.766,820.484a1.258,1.258,0,0,1-1.035-.541l-2.02-2.911L870.8,819.05a1.259,1.259,0,0,1-1.752-.317l-3.642-5.253a1.259,1.259,0,0,1,.317-1.752l2.909-2.018-2.019-2.91a1.259,1.259,0,0,1,.317-1.753l5.254-3.642a1.258,1.258,0,0,1,1.751.317l2.02,2.91,2.91-2.018a1.26,1.26,0,0,1,1.752.317l3.642,5.254a1.259,1.259,0,0,1-.317,1.751l-2.91,2.018,2.018,2.911a1.259,1.259,0,0,1-.317,1.751l-5.253,3.642A1.253,1.253,0,0,1,876.766,820.484Zm-2.739-6.463a1.257,1.257,0,0,1,1.035.541l2.02,2.911,3.184-2.207-2.018-2.911a1.259,1.259,0,0,1,.317-1.752l2.91-2.018-2.207-3.184-2.909,2.018a1.259,1.259,0,0,1-1.752-.317l-2.02-2.91L869.4,806.4l2.018,2.909a1.259,1.259,0,0,1-.317,1.752l-2.909,2.018,2.207,3.184,2.909-2.018A1.253,1.253,0,0,1,874.026,814.021Z" transform="translate(-794.688 -765.934)" fill="#303e58"/>
            <path id="Trazado_24764" data-name="Trazado 24764" d="M749.083,768.665a1.259,1.259,0,0,1-.634-2.347l.722-.419a1.259,1.259,0,1,1,1.266,2.176l-.722.42A1.251,1.251,0,0,1,749.083,768.665Z" transform="translate(-717.611 -742.649)" fill="#979faf"/>
            <path id="Trazado_24765" data-name="Trazado 24765" d="M766.1,759.031a1.259,1.259,0,0,1-.632-2.349l.637-.369a1.259,1.259,0,1,1,1.261,2.179l-.637.369A1.256,1.256,0,0,1,766.1,759.031Z" transform="translate(-728.788 -736.356)" fill="#979faf"/>
            <path id="Trazado_24766" data-name="Trazado 24766" d="M781.5,750.261a1.259,1.259,0,0,1-.622-2.354l.622-.353a1.259,1.259,0,0,1,1.241,2.191l-.622.352A1.251,1.251,0,0,1,781.5,750.261Z" transform="translate(-738.902 -730.606)" fill="#979faf"/>
            <path id="Trazado_24767" data-name="Trazado 24767" d="M768.64,792.6a1.259,1.259,0,0,1-1.027-1.985l.486-.689a1.259,1.259,0,0,1,2.056,1.453l-.486.689A1.258,1.258,0,0,1,768.64,792.6Z" transform="translate(-730.457 -758.193)" fill="#979faf"/>
            <path id="Trazado_24768" data-name="Trazado 24768" d="M780.378,776.059a1.259,1.259,0,0,1-1.033-1.976l.535-.772a1.259,1.259,0,0,1,2.069,1.434l-.536.772A1.257,1.257,0,0,1,780.378,776.059Z" transform="translate(-738.166 -747.274)" fill="#979faf"/>
            <path id="Trazado_24769" data-name="Trazado 24769" d="M791.868,760.277a1.259,1.259,0,0,1-1.023-1.991l.42-.588a1.259,1.259,0,1,1,2.049,1.464l-.42.588A1.257,1.257,0,0,1,791.868,760.277Z" transform="translate(-745.712 -737.03)" fill="#979faf"/>
          </g>
        </g>
      </g>
    </g>
  </g>
</svg>
