<svg xmlns="http://www.w3.org/2000/svg" width="154" height="154" viewBox="0 0 154 154">
  <g id="Grupo_19052" data-name="Grupo 19052" transform="translate(-390 -4732)">
    <g id="Elipse_844" data-name="Elipse 844" transform="translate(390 4732)" fill="#f56b6b" stroke="#2643a2" stroke-width="3">
      <circle cx="77" cy="77" r="77" stroke="none"/>
      <circle cx="77" cy="77" r="75.5" fill="none"/>
    </g>
    <g id="Grupo_12053" data-name="Grupo 12053" transform="translate(-1204.26 4078.84)">
      <circle id="Elipse_847" data-name="Elipse 847" cx="33.852" cy="33.852" r="33.852" transform="translate(1637.165 680.506) rotate(-0.955)" fill="#ebedf0"/>
      <g id="Grupo_12052" data-name="Grupo 12052" transform="translate(1624.26 678.789)">
        <g id="Grupo_12051" data-name="Grupo 12051">
          <g id="Grupo_12049" data-name="Grupo 12049" transform="translate(1.154 1.155)">
            <path id="Trazado_24799" data-name="Trazado 24799" d="M1653.132,767.088c-.338-2.016-2.938-10.756-2.938-10.756-7.187-19.5-21.467-29.7-22.266-41.561,10.218-3.678,23.8-16.911,30.651-20.265,11.479-5.617,25.773-3.585,37.053-12.048,5.647,6.539,9.139,31.112,12.31,41.545,3.586,11.8,6.294,13.356,12.311,21.542a21.326,21.326,0,0,1-4.956,5.446,50.894,50.894,0,0,1-5.032,3.97c-.261-3.155-.568-7.432-2.047-11.233-1.446-3.755-6.431-15.094-6.831-16.588-2.047-7.416-4.309-18.2-6.094-22.911-1.569-4.169-2.861-4.247-4.124-3.508-3.153,1.8,1.894,22.267-.415,23.589-1.292.739-3.97-6.57-5.509-11.462-3.339-10.542-5.292-14.558-7.632-13.217-3.308,1.906-1.769,5.8,1.416,15.493,2,6.079,4.247,11.7,2.862,12.5-1.524.878-5.262-5.987-8.355-11.309-7.586-13.094-8.018-15.018-10.573-13.542-3.062,1.755-1.46,5.17,5.187,16.634,3.216,5.569,6.215,12.478,5.569,12.848-3.539,2.032-13.786-17.079-17.542-14.909-1.692.968-1.892,2.954-.368,5.584,2.078,3.585,20.665,25.713,17.7,27.436-3.047,1.74-14.572-11.324-18.9-8.831-3.369,1.938-1.6,4.493-1.6,4.493s7.015,5.369,10.279,8.417a76.828,76.828,0,0,0,13.079,10.663,31.9,31.9,0,0,0,6.247,2.909c-4.895,1.553-8.17,2.293-8.17,2.293-8.818,2.769-16.481,4.478-20.358,4.478A68.662,68.662,0,0,0,1653.132,767.088Z" transform="translate(-1627.928 -682.458)" fill="#8ff3ad"/>
            <path id="Trazado_24800" data-name="Trazado 24800" d="M1830.094,917.148l9.264,10.927a67.936,67.936,0,0,1-27.7,4.616,21.291,21.291,0,0,0-1.6-3.648c-.631-1.106-4.156-1.646-8.34-3.122,7.4-2.356,18.526-6.6,27.65-13.049A13.451,13.451,0,0,0,1830.094,917.148Z" transform="translate(-1747.033 -840.367)" fill="#fff"/>
            <path id="Trazado_24801" data-name="Trazado 24801" d="M1761.833,780.586c1.479,3.8,1.785,8.078,2.047,11.233-9.124,6.447-20.25,10.694-27.65,13.049a31.9,31.9,0,0,1-6.247-2.909A76.832,76.832,0,0,1,1716.9,791.3c-3.264-3.048-10.279-8.417-10.279-8.417s-1.769-2.554,1.6-4.493c4.324-2.493,15.85,10.571,18.9,8.831,2.969-1.722-15.618-23.85-17.7-27.436-1.523-2.63-1.324-4.616.368-5.584,3.756-2.17,14,16.941,17.542,14.909.646-.369-2.353-7.279-5.569-12.848-6.648-11.464-8.25-14.879-5.187-16.634,2.554-1.476,2.986.448,10.573,13.542,3.093,5.323,6.831,12.187,8.355,11.309,1.385-.8-.863-6.416-2.862-12.5-3.185-9.693-4.724-13.587-1.416-15.493,2.339-1.34,4.293,2.676,7.632,13.217,1.539,4.893,4.216,12.2,5.509,11.462,2.308-1.322-2.739-21.789.414-23.589,1.262-.738,2.554-.661,4.123,3.508,1.785,4.708,4.048,15.5,6.095,22.911C1755.4,765.492,1760.387,776.831,1761.833,780.586Z" transform="translate(-1681.543 -719.316)" fill="#fff"/>
            <path id="Trazado_24802" data-name="Trazado 24802" d="M1635.16,695.907a3.979,3.979,0,0,0-2.217-2.218l-5.015-2,5.015-2a3.967,3.967,0,0,0,2.217-2.215l2-5.016,2.016,5.016a3.959,3.959,0,0,0,2.215,2.215l5,2-5,2a3.97,3.97,0,0,0-2.215,2.218l-2.016,5.016Z" transform="translate(-1627.928 -682.458)" fill="#fff"/>
            <path id="Trazado_24803" data-name="Trazado 24803" d="M1636.346,918.187a4.639,4.639,0,0,0-2.571-2.57l-5.847-2.338,5.847-2.34a4.635,4.635,0,0,0,2.571-2.57l2.353-5.861,2.338,5.861a4.635,4.635,0,0,0,2.57,2.57l5.848,2.34-5.848,2.338a4.639,4.639,0,0,0-2.57,2.57l-2.338,5.864Z" transform="translate(-1627.928 -833.265)" fill="#fff"/>
            <path id="Trazado_24804" data-name="Trazado 24804" d="M1887.816,690.151l-4.187,1.677a3.3,3.3,0,0,0-1.83,1.83l-1.678,4.186-1.677-4.186a3.3,3.3,0,0,0-1.83-1.83l-4.186-1.677,4.186-1.677a3.3,3.3,0,0,0,1.83-1.832l1.677-4.184,1.678,4.184a3.3,3.3,0,0,0,1.83,1.832Z" transform="translate(-1795.492 -682.458)" fill="#fff"/>
          </g>
          <g id="Grupo_12050" data-name="Grupo 12050">
            <path id="Trazado_24805" data-name="Trazado 24805" d="M1743.654,810.282a1.155,1.155,0,0,1-1.1-.8,20.246,20.246,0,0,0-1.5-3.419,14.163,14.163,0,0,0-3.656-1.339c-1.216-.355-2.595-.756-4.071-1.277a32.532,32.532,0,0,1-6.472-3.017,71.634,71.634,0,0,1-12.094-9.694c-.416-.4-.8-.769-1.164-1.106-3.185-2.974-10.123-8.29-10.193-8.343a1.154,1.154,0,0,1-.247-.259,4.1,4.1,0,0,1-.578-3.073,4.859,4.859,0,0,1,2.551-3.077c3-1.73,7.669,1.654,12.183,4.924,1.864,1.351,5.191,3.761,6.424,3.923-.144-.675-.868-2.542-4.165-7.34-2.629-3.827-6.017-8.262-8.739-11.825-2.4-3.147-4.3-5.633-4.926-6.708a6.435,6.435,0,0,1-1.046-4.84,3.786,3.786,0,0,1,1.84-2.324c2.751-1.591,6.333,2.794,10.479,7.871,1.56,1.91,3.173,3.884,4.554,5.258a10.538,10.538,0,0,0,1.757,1.475,73.358,73.358,0,0,0-5.244-10.964c-5.322-9.178-7.419-13.183-6.7-15.859a3.812,3.812,0,0,1,1.938-2.354,3.175,3.175,0,0,1,2.451-.487c1.706.462,2.82,2.418,6.51,8.9.912,1.6,1.945,3.416,3.184,5.554.3.519.609,1.053.921,1.594,1.552,2.692,4.273,7.411,5.712,8.835a49.35,49.35,0,0,0-2.215-7.641c-.335-.984-.681-2-1.021-3.035l-.557-1.69c-1.408-4.265-2.426-7.346-2.693-9.631-.2-1.679-.166-4.08,2.354-5.532a2.685,2.685,0,0,1,2.385-.221c2.125.829,3.807,4.252,6.922,14.089a57.929,57.929,0,0,0,3.87,9.908,69.049,69.049,0,0,0-.582-8.307c-.863-8.083-1.278-13.1.964-14.381a2.99,2.99,0,0,1,2.533-.36c1.247.442,2.247,1.819,3.242,4.464,1.138,3,2.418,8.223,3.772,13.751.781,3.19,1.59,6.488,2.355,9.26.205.766,1.957,4.9,3.5,8.55,1.3,3.076,2.65,6.257,3.294,7.93a40.148,40.148,0,0,1,2.09,11.2l.03.356a18.077,18.077,0,0,0,.537,3.724l9.181,10.828a1.154,1.154,0,0,1-1.761,1.493l-9.264-10.927a1.173,1.173,0,0,1-.119-.17c-.516-.895-.675-2.394-.875-4.757l-.03-.36a37.722,37.722,0,0,0-1.942-10.552c-.632-1.641-1.972-4.8-3.267-7.863-2.09-4.936-3.376-7.994-3.6-8.845-.771-2.8-1.584-6.111-2.369-9.316-1.279-5.218-2.6-10.613-3.69-13.485-.985-2.62-1.669-3.038-1.854-3.1-.051-.018-.183-.065-.607.183-.017.015-.571.545-.491,4.025.054,2.361.366,5.284.668,8.112.828,7.758.977,10.553-.6,11.457a1.558,1.558,0,0,1-1.366.089c-.558-.219-2.257-.884-5.818-12.206-1.131-3.571-3.782-11.94-5.56-12.634-.069-.026-.162-.062-.4.071-2.187,1.261-1.409,3.992,1.38,12.439l.558,1.693c.337,1.024.681,2.035,1.013,3.012,2.129,6.258,3.3,9.705,1.329,10.843-2.271,1.308-4.651-2.578-9.011-10.141-.31-.538-.617-1.071-.918-1.588-1.244-2.146-2.279-3.965-3.193-5.57-2.607-4.577-4.329-7.6-5.108-7.812a1.3,1.3,0,0,0-.7.26,1.531,1.531,0,0,0-.86.952c-.5,1.875,2.234,6.8,6.469,14.1,1.717,2.974,6.269,11.72,5.756,13.618a1.316,1.316,0,0,1-.613.81c-2.587,1.488-5.858-2.515-10-7.582a67.6,67.6,0,0,0-5.015-5.725c-1.947-1.853-2.522-1.607-2.526-1.6a1.491,1.491,0,0,0-.761.923,4.47,4.47,0,0,0,.814,3.083c.549.947,2.5,3.5,4.763,6.464,9.464,12.39,13.878,18.741,13.364,21.326a1.785,1.785,0,0,1-.851,1.223c-2.042,1.166-5.054-1.017-9.222-4.037-3.364-2.438-7.971-5.776-9.677-4.793a2.73,2.73,0,0,0-1.446,1.564,1.773,1.773,0,0,0,.157,1.155c1.156.889,7.171,5.538,10.18,8.347.367.344.76.72,1.183,1.125a68.647,68.647,0,0,0,11.718,9.4,30.3,30.3,0,0,0,6.022,2.8c1.415.5,2.761.891,3.948,1.237,2.722.793,4.365,1.272,5.009,2.4a22.281,22.281,0,0,1,1.7,3.868,1.155,1.155,0,0,1-1.1,1.506Z" transform="translate(-1677.873 -715.65)" fill="#303e58"/>
            <path id="Trazado_24806" data-name="Trazado 24806" d="M1706.466,957.741a1.154,1.154,0,0,1-1.152-1.075,67.716,67.716,0,0,0-.937-7.565,1.154,1.154,0,0,1,2.27-.416c.4,2.16.693,4.413.885,6.709,3.97-.262,10.9-1.86,18.946-4.386a1.154,1.154,0,0,1,.692,2.2C1718.135,956.047,1710.395,957.741,1706.466,957.741Z" transform="translate(-1679.154 -863.109)" fill="#303e58"/>
            <path id="Trazado_24807" data-name="Trazado 24807" d="M1647.681,754.973a1.155,1.155,0,0,1-1.083-.755c-3.415-9.263-8.456-16.4-12.9-22.692-4.827-6.83-9-12.728-9.43-19.191a1.154,1.154,0,0,1,.76-1.164c5.929-2.134,13.1-7.639,19.435-12.495,4.42-3.39,8.236-6.318,11.1-7.72,5.021-2.457,10.608-3.5,16.011-4.508,7.172-1.339,14.588-2.723,20.857-7.427a1.154,1.154,0,0,1,1.566.169c4.07,4.713,6.92,17.66,9.435,29.082,1.093,4.967,2.126,9.659,3.105,12.882,2.775,9.132,5.021,12,8.742,16.753,1,1.274,2.129,2.718,3.395,4.441a1.154,1.154,0,0,1,.07,1.261,22.418,22.418,0,0,1-5.221,5.759,1.154,1.154,0,0,1-1.469-1.78,22.009,22.009,0,0,0,4.3-4.5c-1.061-1.424-2.025-2.655-2.888-3.757-3.887-4.964-6.233-7.96-9.133-17.5-1.006-3.31-2.048-8.044-3.151-13.056-2.2-9.984-4.9-22.266-8.289-27.233-6.477,4.49-13.8,5.857-20.891,7.181-5.493,1.026-10.682,1.994-15.42,4.312-2.656,1.3-6.568,4.3-10.709,7.479-6.176,4.738-13.141,10.08-19.216,12.514.7,5.522,4.528,10.942,8.931,17.171,4.531,6.411,9.665,13.677,13.186,23.225a1.155,1.155,0,0,1-1.083,1.554Z" transform="translate(-1624.26 -678.79)" fill="#303e58"/>
            <path id="Trazado_24808" data-name="Trazado 24808" d="M1636.185,922.691a1.154,1.154,0,0,1-1.071-.724l-2.353-5.864a3.5,3.5,0,0,0-1.936-1.931l-5.839-2.335a1.154,1.154,0,0,1,0-2.143l5.847-2.34a3.486,3.486,0,0,0,1.927-1.923l2.355-5.866a1.154,1.154,0,0,1,1.071-.724h0a1.154,1.154,0,0,1,1.07.726l2.338,5.861a3.491,3.491,0,0,0,1.933,1.929l5.842,2.337a1.154,1.154,0,0,1,0,2.143l-5.849,2.338a3.492,3.492,0,0,0-1.925,1.923l-2.34,5.866a1.153,1.153,0,0,1-1.07.727Zm-7.664-11.926,3.169,1.267a5.822,5.822,0,0,1,3.215,3.216l1.276,3.182,1.27-3.184a5.815,5.815,0,0,1,3.2-3.211l3.177-1.27-3.169-1.268a5.811,5.811,0,0,1-3.214-3.217l-1.269-3.18-1.279,3.185a5.8,5.8,0,0,1-3.207,3.209Z" transform="translate(-1624.26 -829.597)" fill="#979faf"/>
            <path id="Trazado_24809" data-name="Trazado 24809" d="M1877.608,696.485h0a1.154,1.154,0,0,1-1.071-.725l-1.677-4.187a2.129,2.129,0,0,0-1.177-1.183l-4.2-1.681a1.154,1.154,0,0,1,0-2.143l4.186-1.677a2.146,2.146,0,0,0,1.191-1.2l1.674-4.177a1.154,1.154,0,0,1,2.142,0l1.678,4.185a2.137,2.137,0,0,0,1.179,1.187l4.2,1.68a1.154,1.154,0,0,1,0,2.143l-4.186,1.677a2.138,2.138,0,0,0-1.191,1.2l-1.675,4.179A1.154,1.154,0,0,1,1877.608,696.485Zm-4.59-8.848,1.512.606a4.445,4.445,0,0,1,2.469,2.464l.609,1.521.607-1.513a4.456,4.456,0,0,1,2.484-2.477l1.5-.6-1.512-.606a4.456,4.456,0,0,1-2.47-2.467l-.609-1.52-.606,1.513a4.463,4.463,0,0,1-2.481,2.477Z" transform="translate(-1791.824 -678.789)" fill="#979faf"/>
            <path id="Trazado_24810" data-name="Trazado 24810" d="M1684.108,710.438h-.015a1.154,1.154,0,1,1,.015,0Z" transform="translate(-1664.474 -698.897)" fill="#979faf"/>
            <path id="Trazado_24811" data-name="Trazado 24811" d="M1634.646,699.562h0a1.155,1.155,0,0,1-1.071-.727l-2-5.016a2.822,2.822,0,0,0-1.582-1.577l-5.006-1.994a1.154,1.154,0,0,1,0-2.144l5.016-2a2.81,2.81,0,0,0,1.572-1.567l2-5.019a1.155,1.155,0,0,1,1.071-.727h0a1.154,1.154,0,0,1,1.071.724l2.016,5.016a2.81,2.81,0,0,0,1.581,1.577l4.994,2a1.154,1.154,0,0,1,0,2.143l-5,2a2.805,2.805,0,0,0-1.569,1.569l-2.02,5.024A1.154,1.154,0,0,1,1634.646,699.562Zm-6.117-10.388,2.327.927a5.114,5.114,0,0,1,2.863,2.866l.931,2.335.941-2.341a5.1,5.1,0,0,1,2.849-2.856l2.33-.931-2.322-.929a5.1,5.1,0,0,1-2.86-2.864l-.938-2.333-.932,2.338a5.1,5.1,0,0,1-2.853,2.856Z" transform="translate(-1624.26 -678.789)" fill="#979faf"/>
          </g>
        </g>
      </g>
    </g>
  </g>
</svg>
