<svg xmlns="http://www.w3.org/2000/svg" width="154" height="154" viewBox="0 0 154 154">
  <g id="Grupo_19050" data-name="Grupo 19050" transform="translate(-390 -4179)">
    <g id="Elipse_842" data-name="Elipse 842" transform="translate(390 4179)" fill="#f56b6b" stroke="#2643a2" stroke-width="3">
      <circle cx="77" cy="77" r="77" stroke="none"/>
      <circle cx="77" cy="77" r="75.5" fill="none"/>
    </g>
    <g id="Grupo_12038" data-name="Grupo 12038" transform="translate(-722.032 3529.569)">
      <path id="Trazado_24723" data-name="Trazado 24723" d="M1213.4,794.691a33.853,33.853,0,1,0-33.852,33.852A33.852,33.852,0,0,0,1213.4,794.691Z" transform="translate(-2.513 -56.134)" fill="#ebedf0"/>
      <g id="Grupo_12037" data-name="Grupo 12037" transform="translate(1142.032 678.931)">
        <g id="Grupo_12036" data-name="Grupo 12036">
          <g id="Grupo_12034" data-name="Grupo 12034" transform="translate(1.154 1.154)">
            <path id="Trazado_24724" data-name="Trazado 24724" d="M1368.726,835.794h-32.314V783.477a3.087,3.087,0,0,1,3.078-3.077h26.159a3.087,3.087,0,0,1,3.077,3.077Z" transform="translate(-1276.4 -749.624)" fill="#979faf"/>
            <path id="Trazado_24725" data-name="Trazado 24725" d="M1229.889,707.219v6.155H1222.2a3.087,3.087,0,0,0-3.078,3.077v7.694h-53.856V682.6h64.627Z" transform="translate(-1159.106 -682.599)" fill="#979faf"/>
            <path id="Trazado_24726" data-name="Trazado 24726" d="M1368.726,956.44v3.077a3.086,3.086,0,0,1-3.077,3.077H1339.49a3.087,3.087,0,0,1-3.078-3.077V956.44h32.314Z" transform="translate(-1276.4 -870.27)" fill="#8ff3ad"/>
            <path id="Trazado_24727" data-name="Trazado 24727" d="M1205.711,814.629v6.155h-56.933a3.088,3.088,0,0,1-3.078-3.078v-3.078h60.012Z" transform="translate(-1145.699 -773.083)" fill="#8ff3ad"/>
            <path id="Trazado_24728" data-name="Trazado 24728" d="M1405.589,704.963l-4.185,1.677a3.3,3.3,0,0,0-1.831,1.831l-1.677,4.186-1.677-4.186a3.3,3.3,0,0,0-1.832-1.831l-4.184-1.677,4.184-1.677a3.3,3.3,0,0,0,1.832-1.831l1.677-4.185,1.677,4.185a3.3,3.3,0,0,0,1.831,1.831Z" transform="translate(-1313.264 -692.653)" fill="#fff"/>
            <path id="Trazado_24729" data-name="Trazado 24729" d="M1172.494,867.2a4.015,4.015,0,0,0-2.216-2.216l-5.016-2,5.016-2a4.015,4.015,0,0,0,2.216-2.216l2-5.016,2.015,5.016a4,4,0,0,0,2.2,2.216l5.016,2-5.016,2a4,4,0,0,0-2.2,2.216l-2.015,5.016Z" transform="translate(-1159.106 -799.893)" fill="#fff"/>
            <path id="Trazado_24730" data-name="Trazado 24730" d="M1258.343,890.509l-6.693,2.678a5.294,5.294,0,0,0-2.939,2.939l-2.678,6.694-2.678-6.694a5.3,5.3,0,0,0-2.939-2.939l-6.693-2.678,6.693-2.677a5.3,5.3,0,0,0,2.939-2.939l2.678-6.694,2.678,6.694a5.3,5.3,0,0,0,2.939,2.939Z" transform="translate(-1206.024 -816.649)" fill="#fff"/>
          </g>
          <g id="Grupo_12035" data-name="Grupo 12035">
            <path id="Trazado_24731" data-name="Trazado 24731" d="M1363.135,840.589h-26.159a4.236,4.236,0,0,1-4.231-4.232V780.963a4.236,4.236,0,0,1,4.231-4.232h26.159a4.237,4.237,0,0,1,4.232,4.232v55.395A4.237,4.237,0,0,1,1363.135,840.589Zm-26.159-61.55a1.925,1.925,0,0,0-1.923,1.923v55.395a1.925,1.925,0,0,0,1.923,1.923h26.159a1.926,1.926,0,0,0,1.924-1.923V780.963a1.926,1.926,0,0,0-1.924-1.923Z" transform="translate(-1272.733 -745.956)" fill="#303e58"/>
            <path id="Trazado_24732" data-name="Trazado 24732" d="M1379.618,955.079h-26.159a1.154,1.154,0,0,1,0-2.308h26.159a1.154,1.154,0,0,1,0,2.308Z" transform="translate(-1286.138 -866.602)" fill="#303e58"/>
            <path id="Trazado_24733" data-name="Trazado 24733" d="M1243.519,901.459a1.154,1.154,0,0,1-1.072-.725l-2.678-6.694a4.159,4.159,0,0,0-2.3-2.3l-6.692-2.677a1.154,1.154,0,0,1,0-2.143l6.693-2.678a4.16,4.16,0,0,0,2.3-2.3l2.677-6.692a1.154,1.154,0,0,1,2.143,0l2.678,6.693a4.159,4.159,0,0,0,2.3,2.3l6.691,2.677a1.154,1.154,0,0,1,0,2.143l-6.693,2.678a4.16,4.16,0,0,0-2.3,2.3l-2.677,6.692A1.154,1.154,0,0,1,1243.519,901.459Zm-9.2-13.464,4.015,1.606a6.479,6.479,0,0,1,3.581,3.58l1.607,4.016,1.606-4.015a6.479,6.479,0,0,1,3.581-3.581l4.016-1.607-4.015-1.606a6.48,6.48,0,0,1-3.581-3.58l-1.607-4.017-1.607,4.015a6.479,6.479,0,0,1-3.58,3.581Z" transform="translate(-1202.357 -812.981)" fill="#979faf"/>
            <path id="Trazado_24734" data-name="Trazado 24734" d="M1221.444,881.729h-.015a1.154,1.154,0,1,1,.015,0Z" transform="translate(-1195.654 -816.333)" fill="#979faf"/>
            <path id="Trazado_24735" data-name="Trazado 24735" d="M1171.981,870.854h0a1.154,1.154,0,0,1-1.071-.727l-2-5.016a2.869,2.869,0,0,0-1.581-1.576l-5.007-2a1.154,1.154,0,0,1,0-2.144l5.016-2a2.872,2.872,0,0,0,1.575-1.582l2-5.006a1.154,1.154,0,0,1,1.071-.727h0a1.154,1.154,0,0,1,1.071.724l2.014,5.016a2.838,2.838,0,0,0,1.574,1.581l5,1.994a1.154,1.154,0,0,1,0,2.144l-5.016,2a2.822,2.822,0,0,0-1.556,1.569l-2.016,5.021A1.154,1.154,0,0,1,1171.981,870.854Zm-6.117-10.387,2.328.928a5.17,5.17,0,0,1,2.857,2.852l.936,2.347.94-2.34a5.116,5.116,0,0,1,2.831-2.852l2.342-.934-2.328-.928a5.132,5.132,0,0,1-2.848-2.864l-.938-2.335-.932,2.338a5.175,5.175,0,0,1-2.851,2.857Z" transform="translate(-1155.438 -796.225)" fill="#979faf"/>
            <path id="Trazado_24736" data-name="Trazado 24736" d="M1395.383,711.3a1.154,1.154,0,0,1-1.071-.725l-1.677-4.186a2.128,2.128,0,0,0-1.179-1.184l-4.2-1.681a1.154,1.154,0,0,1,0-2.143l4.185-1.677a2.138,2.138,0,0,0,1.193-1.2l1.674-4.179a1.154,1.154,0,0,1,2.143,0l1.677,4.186a2.125,2.125,0,0,0,1.178,1.185l4.2,1.681a1.154,1.154,0,0,1,0,2.143l-4.186,1.677a2.138,2.138,0,0,0-1.192,1.194l-1.674,4.18A1.154,1.154,0,0,1,1395.383,711.3Zm-4.591-8.848,1.511.606a4.443,4.443,0,0,1,2.472,2.466l.608,1.519.606-1.512a4.451,4.451,0,0,1,2.484-2.477l1.5-.6-1.512-.606a4.437,4.437,0,0,1-2.471-2.468l-.608-1.517-.605,1.512a4.455,4.455,0,0,1-2.486,2.478Z" transform="translate(-1309.597 -688.985)" fill="#979faf"/>
            <path id="Trazado_24737" data-name="Trazado 24737" d="M1197.043,819.424h-50.779a4.237,4.237,0,0,1-4.232-4.232v-3.077a1.154,1.154,0,0,1,1.154-1.154h53.857a1.154,1.154,0,0,1,0,2.308h-52.7v1.923a1.926,1.926,0,0,0,1.924,1.923h50.779a1.154,1.154,0,0,1,0,2.308Z" transform="translate(-1142.032 -769.415)" fill="#303e58"/>
            <path id="Trazado_24738" data-name="Trazado 24738" d="M1162.748,716.63a1.154,1.154,0,0,1-1.154-1.154V680.085a1.154,1.154,0,0,1,1.154-1.154h64.628a1.154,1.154,0,0,1,1.154,1.154v24.62a1.154,1.154,0,1,1-2.308,0V681.239H1163.9v34.237A1.154,1.154,0,0,1,1162.748,716.63Z" transform="translate(-1155.438 -678.931)" fill="#303e58"/>
            <path id="Trazado_24739" data-name="Trazado 24739" d="M1187.2,711.844a1.154,1.154,0,0,1-.816-1.97l6.155-6.155a1.154,1.154,0,0,1,1.632,1.633l-6.155,6.155A1.151,1.151,0,0,1,1187.2,711.844Z" transform="translate(-1172.195 -695.687)" fill="#fff"/>
            <path id="Trazado_24740" data-name="Trazado 24740" d="M1221.429,718.547a1.154,1.154,0,0,1-.816-1.97l3.078-3.078a1.154,1.154,0,0,1,1.632,1.633l-3.078,3.078A1.151,1.151,0,0,1,1221.429,718.547Z" transform="translate(-1195.654 -702.39)" fill="#fff"/>
            <path id="Trazado_24741" data-name="Trazado 24741" d="M1192.089,744.536a1.154,1.154,0,0,1-.816-1.971l4.616-4.616a1.154,1.154,0,0,1,1.632,1.632l-4.616,4.616A1.152,1.152,0,0,1,1192.089,744.536Z" transform="translate(-1175.547 -719.147)" fill="#fff"/>
            <path id="Trazado_24742" data-name="Trazado 24742" d="M1353.459,809.645a1.154,1.154,0,0,1-.816-1.97l6.155-6.155a1.154,1.154,0,0,1,1.632,1.632l-6.155,6.155A1.15,1.15,0,0,1,1353.459,809.645Z" transform="translate(-1286.138 -762.713)" fill="#fff"/>
            <path id="Trazado_24743" data-name="Trazado 24743" d="M1387.689,814.809a1.154,1.154,0,0,1-.816-1.97l1.539-1.539a1.154,1.154,0,1,1,1.633,1.632l-1.539,1.539A1.15,1.15,0,0,1,1387.689,814.809Z" transform="translate(-1309.597 -769.415)" fill="#fff"/>
            <path id="Trazado_24744" data-name="Trazado 24744" d="M1358.349,837.446a1.154,1.154,0,0,1-.816-1.97l4.616-4.616a1.154,1.154,0,0,1,1.632,1.632l-4.616,4.616A1.151,1.151,0,0,1,1358.349,837.446Z" transform="translate(-1289.49 -782.821)" fill="#fff"/>
          </g>
        </g>
      </g>
    </g>
  </g>
</svg>
