<svg xmlns="http://www.w3.org/2000/svg" width="154" height="154" viewBox="0 0 154 154">
  <g id="Grupo_19056" data-name="Grupo 19056" transform="translate(-390 -6089)">
    <g id="Elipse_855" data-name="Elipse 855" transform="translate(390 6089)" fill="#f59b6b" stroke="#2643a2" stroke-width="3">
      <circle cx="77" cy="77" r="77" stroke="none"/>
      <circle cx="77" cy="77" r="75.5" fill="none"/>
    </g>
    <g id="Grupo_12070" data-name="Grupo 12070" transform="translate(-2795 5910.387)">
      <circle id="Elipse_857" data-name="Elipse 857" cx="35" cy="35" r="35" transform="translate(3215 234.613)" fill="#ebedf0"/>
      <g id="Grupo_12069" data-name="Grupo 12069" transform="translate(3214 208)">
        <g id="Grupo_12068" data-name="Grupo 12068" transform="translate(0 0)">
          <g id="Grupo_12066" data-name="Grupo 12066" transform="translate(1.185 1.185)">
            <path id="Trazado_24835" data-name="Trazado 24835" d="M3267.4,322.034H3223.16a3.17,3.17,0,0,1-3.16-3.16V262h82.152v51.107a15,15,0,0,0-3.949-1.626l-1.58-5.246h-4.74l-1.58,5.246a15.149,15.149,0,0,0-4.076,1.691l-4.818-2.592-3.349,3.349,2.59,4.818a14.7,14.7,0,0,0-1.453,3.286h-11.8Z" transform="translate(-3220 -252.521)" fill="#fff"/>
            <path id="Trazado_24836" data-name="Trazado 24836" d="M3520.437,492.872a.451.451,0,0,1,.127.065l4.818-2.592,3.349,3.349-2.59,4.818a15.208,15.208,0,0,1,1.689,4.076l5.246,1.58v4.74l-5.246,1.58a15.209,15.209,0,0,1-1.689,4.076l2.59,4.818-3.349,3.349-4.818-2.592a15.16,15.16,0,0,1-4.076,1.691l-1.58,5.245h-4.74l-1.58-5.245a15.155,15.155,0,0,1-4.076-1.691l-4.818,2.592-3.349-3.349,2.591-4.818a15.194,15.194,0,0,1-1.69-4.076l-5.245-1.58v-4.74l5.245-1.58a6.694,6.694,0,0,1,.236-.79,14.689,14.689,0,0,1,1.453-3.286l-2.591-4.818,3.349-3.349,4.818,2.592a15.15,15.15,0,0,1,4.076-1.691l1.58-5.246h4.74l1.58,5.246A14.991,14.991,0,0,1,3520.437,492.872Zm1.58,13.666a9.479,9.479,0,1,0-9.479,9.479A9.486,9.486,0,0,0,3522.017,506.538Z" transform="translate(-3438.285 -432.285)" fill="#8ff3ad"/>
            <path id="Trazado_24837" data-name="Trazado 24837" d="M3223.16,214h75.832a3.17,3.17,0,0,1,3.16,3.16v6.319H3220V217.16A3.17,3.17,0,0,1,3223.16,214Z" transform="translate(-3220 -214)" fill="#8ff3ad"/>
          </g>
          <g id="Grupo_12067" data-name="Grupo 12067">
            <path id="Trazado_24838" data-name="Trazado 24838" d="M3262.58,279.883h-44.236a4.349,4.349,0,0,1-4.344-4.345V212.345a4.349,4.349,0,0,1,4.344-4.345h75.832a4.35,4.35,0,0,1,4.345,4.345V261.32a1.185,1.185,0,0,1-2.37,0V212.345a1.977,1.977,0,0,0-1.975-1.975h-75.832a1.977,1.977,0,0,0-1.975,1.975v63.194a1.977,1.977,0,0,0,1.975,1.975h44.236a1.185,1.185,0,0,1,0,2.37Z" transform="translate(-3214 -208)" fill="#303e58"/>
            <path id="Trazado_24839" data-name="Trazado 24839" d="M3297.336,258.37h-82.152a1.185,1.185,0,0,1,0-2.37h82.152a1.185,1.185,0,1,1,0,2.37Z" transform="translate(-3214 -246.521)" fill="#303e58"/>
            <path id="Trazado_24840" data-name="Trazado 24840" d="M3248.765,234.37h-1.58a1.185,1.185,0,0,1,0-2.37h1.58a1.185,1.185,0,0,1,0,2.37Z" transform="translate(-3239.681 -227.26)" fill="#303e58"/>
            <path id="Trazado_24841" data-name="Trazado 24841" d="M3288.765,234.37h-1.58a1.185,1.185,0,0,1,0-2.37h1.58a1.185,1.185,0,0,1,0,2.37Z" transform="translate(-3271.781 -227.26)" fill="#303e58"/>
            <path id="Trazado_24842" data-name="Trazado 24842" d="M3328.765,234.37h-1.58a1.185,1.185,0,0,1,0-2.37h1.58a1.185,1.185,0,1,1,0,2.37Z" transform="translate(-3303.882 -227.26)" fill="#303e58"/>
            <path id="Trazado_24843" data-name="Trazado 24843" d="M3267.924,306.37h-4.74a1.185,1.185,0,0,1,0-2.37h4.74a1.185,1.185,0,0,1,0,2.37Z" transform="translate(-3252.521 -285.042)" fill="#303e58"/>
            <path id="Trazado_24844" data-name="Trazado 24844" d="M3381.1,306.37h-37.916a1.185,1.185,0,0,1,0-2.37H3381.1a1.185,1.185,0,0,1,0,2.37Z" transform="translate(-3316.722 -285.042)" fill="#979faf"/>
            <path id="Trazado_24845" data-name="Trazado 24845" d="M3267.924,354.37h-4.74a1.185,1.185,0,0,1,0-2.37h4.74a1.185,1.185,0,0,1,0,2.37Z" transform="translate(-3252.521 -323.563)" fill="#303e58"/>
            <path id="Trazado_24846" data-name="Trazado 24846" d="M3358.983,354.37h-15.8a1.185,1.185,0,0,1,0-2.37h15.8a1.185,1.185,0,1,1,0,2.37Z" transform="translate(-3316.722 -323.563)" fill="#979faf"/>
            <path id="Trazado_24847" data-name="Trazado 24847" d="M3267.924,402.37h-4.74a1.185,1.185,0,0,1,0-2.37h4.74a1.185,1.185,0,0,1,0,2.37Z" transform="translate(-3252.521 -362.084)" fill="#303e58"/>
            <path id="Trazado_24848" data-name="Trazado 24848" d="M3349.5,402.37h-6.319a1.185,1.185,0,0,1,0-2.37h6.319a1.185,1.185,0,1,1,0,2.37Z" transform="translate(-3316.722 -362.084)" fill="#979faf"/>
            <path id="Trazado_24849" data-name="Trazado 24849" d="M3544.664,402.37h-9.479a1.185,1.185,0,0,1,0-2.37h9.479a1.185,1.185,0,0,1,0,2.37Z" transform="translate(-3470.806 -362.084)" fill="#979faf"/>
            <path id="Trazado_24850" data-name="Trazado 24850" d="M3430.983,402.37h-15.8a1.185,1.185,0,1,1,0-2.37h15.8a1.185,1.185,0,0,1,0,2.37Z" transform="translate(-3374.504 -362.084)" fill="#979faf"/>
            <path id="Trazado_24851" data-name="Trazado 24851" d="M3267.924,450.37h-4.74a1.185,1.185,0,0,1,0-2.37h4.74a1.185,1.185,0,0,1,0,2.37Z" transform="translate(-3252.521 -400.605)" fill="#303e58"/>
            <path id="Trazado_24852" data-name="Trazado 24852" d="M3355.823,450.37h-12.639a1.185,1.185,0,0,1,0-2.37h12.639a1.185,1.185,0,0,1,0,2.37Z" transform="translate(-3316.722 -400.605)" fill="#979faf"/>
            <path id="Trazado_24853" data-name="Trazado 24853" d="M3467.723,450.37h-20.538a1.185,1.185,0,0,1,0-2.37h20.538a1.185,1.185,0,0,1,0,2.37Z" transform="translate(-3400.185 -400.605)" fill="#979faf"/>
            <path id="Trazado_24854" data-name="Trazado 24854" d="M3267.924,498.37h-4.74a1.185,1.185,0,0,1,0-2.37h4.74a1.185,1.185,0,0,1,0,2.37Z" transform="translate(-3252.521 -439.126)" fill="#303e58"/>
            <path id="Trazado_24855" data-name="Trazado 24855" d="M3362.143,498.37h-18.958a1.185,1.185,0,0,1,0-2.37h18.958a1.185,1.185,0,0,1,0,2.37Z" transform="translate(-3316.722 -439.126)" fill="#979faf"/>
            <path id="Trazado_24856" data-name="Trazado 24856" d="M3552.664,557.328a10.664,10.664,0,1,1,10.664-10.664A10.676,10.676,0,0,1,3552.664,557.328Zm0-18.958a8.294,8.294,0,1,0,8.294,8.294A8.3,8.3,0,0,0,3552.664,538.37Z" transform="translate(-3477.227 -471.227)" fill="#303e58"/>
            <path id="Trazado_24857" data-name="Trazado 24857" d="M3510.093,523.446h-4.74a1.185,1.185,0,0,1-1.135-.843l-1.391-4.617a16.3,16.3,0,0,1-3.147-1.307l-4.241,2.281a1.185,1.185,0,0,1-1.4-.206l-3.349-3.349a1.185,1.185,0,0,1-.206-1.4l2.281-4.242a16.348,16.348,0,0,1-1.306-3.146l-4.617-1.391a1.185,1.185,0,0,1-.843-1.135v-4.74a1.185,1.185,0,0,1,.843-1.135l4.623-1.392q.037-.111.075-.218a15.684,15.684,0,0,1,1.225-2.926l-2.281-4.242a1.185,1.185,0,0,1,.206-1.4l3.349-3.349a1.185,1.185,0,0,1,1.4-.206l4.241,2.281a16.292,16.292,0,0,1,3.147-1.307l1.391-4.617a1.185,1.185,0,0,1,1.135-.843h4.74a1.185,1.185,0,0,1,1.135.843l1.39,4.616a16.232,16.232,0,0,1,3.138,1.312l4.249-2.286a1.186,1.186,0,0,1,1.4.206l3.349,3.349a1.184,1.184,0,0,1,.206,1.4l-2.281,4.242a16.364,16.364,0,0,1,1.306,3.146l4.617,1.391a1.185,1.185,0,0,1,.843,1.135v4.74a1.185,1.185,0,0,1-.843,1.135l-4.617,1.391a16.364,16.364,0,0,1-1.306,3.146l2.281,4.242a1.184,1.184,0,0,1-.206,1.4l-3.349,3.349a1.185,1.185,0,0,1-1.4.206l-4.241-2.281a16.309,16.309,0,0,1-3.147,1.307l-1.391,4.617A1.185,1.185,0,0,1,3510.093,523.446Zm-3.859-2.37h2.979l1.326-4.4a1.184,1.184,0,0,1,.848-.808,13.935,13.935,0,0,0,3.756-1.559,1.184,1.184,0,0,1,1.168-.026l4.042,2.174,2.1-2.1-2.173-4.042a1.185,1.185,0,0,1,.025-1.167,13.98,13.98,0,0,0,1.558-3.757,1.185,1.185,0,0,1,.808-.848l4.4-1.326v-2.978l-4.4-1.326a1.185,1.185,0,0,1-.808-.848,13.979,13.979,0,0,0-1.558-3.757,1.185,1.185,0,0,1-.025-1.167l2.173-4.042-2.1-2.1-4.042,2.174a1.473,1.473,0,0,1-1.285-.085,13.8,13.8,0,0,0-3.636-1.5,1.185,1.185,0,0,1-.851-.809l-1.326-4.4h-2.979l-1.326,4.4a1.185,1.185,0,0,1-.848.808,13.931,13.931,0,0,0-3.756,1.559,1.184,1.184,0,0,1-1.168.026l-4.042-2.174-2.1,2.1,2.174,4.042a1.185,1.185,0,0,1-.025,1.166,13.526,13.526,0,0,0-1.337,3.02c-.008.025-.016.05-.025.075a5.453,5.453,0,0,0-.194.648,1.184,1.184,0,0,1-.811.863l-4.4,1.326v2.978l4.4,1.326a1.186,1.186,0,0,1,.808.848,13.987,13.987,0,0,0,1.558,3.757,1.185,1.185,0,0,1,.026,1.167l-2.174,4.042,2.1,2.1,4.042-2.174a1.185,1.185,0,0,1,1.168.026,13.932,13.932,0,0,0,3.756,1.559,1.185,1.185,0,0,1,.848.808Zm-13.567-24.093h0Zm22.591-7.8h0Z" transform="translate(-3432.285 -426.285)" fill="#303e58"/>
          </g>
        </g>
      </g>
    </g>
  </g>
</svg>
