<svg xmlns="http://www.w3.org/2000/svg" width="818.008" height="261.894" viewBox="0 0 818.008 261.894">
  <g id="Grupo_18747" data-name="Grupo 18747" transform="translate(-513.992 -11822.294)">
    <g id="Grupo_18726" data-name="Grupo 18726" transform="translate(472.942 9366.398)">
      <rect id="Rectángulo_3029" data-name="Rectángulo 3029" width="261.625" height="261.513" transform="translate(319.058 2456.275)" fill="#c0e5f0"/>
      <g id="Grupo_18725" data-name="Grupo 18725" transform="translate(331.311 2494.752)">
        <g id="Grupo_18721" data-name="Grupo 18721" transform="translate(0 0)">
          <g id="Grupo_18720" data-name="Grupo 18720">
            <path id="Trazado_34954" data-name="Trazado 34954" d="M547.781,2761.635c-.415-.146-41.563-14.543-46-16.325-1.024-.411-2.348-.892-3.75-1.4a76.029,76.029,0,0,1-8.917-3.644,2.667,2.667,0,0,1-1.346-2.328l-.208-20.641-28.273,6.327-29.549-6.306-.21,20.772a2.7,2.7,0,0,1-1.235,2.264,65.184,65.184,0,0,1-9.156,4.047c-.852.329-1.644.635-2.328.91-4.434,1.782-45.582,16.18-45.989,16.322-.819.282-20.117,7.122-24.371,26.489-2.346,10.68-3.561,32.014-4.168,35.282H576.311c-.605-3.265-1.82-24.6-4.167-35.282C567.891,2768.754,548.592,2761.914,547.781,2761.635Z" transform="translate(-340.739 -2600.701)" fill="#d98b5e"/>
            <path id="Trazado_34955" data-name="Trazado 34955" d="M551.766,2594.387c-1.953,0-3.455,2.226-4.011,3.184l-.029.05-.467.941,2.028-25.631-12.755-19.416-26.857-10.722h-8.865l-26.857,10.722L461.2,2572.93l2.028,25.632-.468-.941-.029-.05c-.555-.957-2.057-3.184-4.01-3.184-.8,0-2.253.375-2.967,2.883-.918,3.23.685,13.249,1.314,14.875h0l5.375,13.723c.2.509,2.066,4.966,5.582,4.966a4.106,4.106,0,0,0,.732-.066l.314,1.258c1.147,4.612,2.078,8.482,2.657,10.917a22.791,22.791,0,0,0,2.988,7.059,135.752,135.752,0,0,0,8.182,11.326c7.022,8.766,15.267,9.364,15.615,9.385l.05,0h13.362l.05,0c.347-.021,8.592-.619,15.614-9.385A135.622,135.622,0,0,0,535.77,2650a22.778,22.778,0,0,0,2.988-7.059c.577-2.424,1.507-6.286,2.657-10.917l.314-1.258a4.1,4.1,0,0,0,.731.066h0c3.516,0,5.381-4.458,5.584-4.971l5.373-13.718c.628-1.626,2.232-11.643,1.313-14.874C554.018,2594.762,552.567,2594.387,551.766,2594.387Z" transform="translate(-386.684 -2529.87)" fill="#d98b5e"/>
            <path id="Trazado_34956" data-name="Trazado 34956" d="M541.682,2538.1s-6.517-14.723-16.806-16.142-35.154-2.306-44.757,6.209-15.605,15.077-15.262,22.528c0,0-4.459,21.986-.343,39.192.481,2.01.923,3.808,1.331,5.423a13.655,13.655,0,0,1,4.343,1.381c.245-10.5.8-24.312,2.042-27.2,2.058-4.79,5.144-13.836,16.12-13.836s39.27.887,44.757-3.9a37.713,37.713,0,0,1,11.833,21.464,171.89,171.89,0,0,1,2.073,23.072,14.468,14.468,0,0,1,3.244-1.14c.592-2.747,1.166-5.877,1.618-9.279,1.423-10.725,1.811-32.865-1.619-39.073A21.853,21.853,0,0,0,541.682,2538.1Z" transform="translate(-389.644 -2521.041)" fill="#062a48"/>
            <path id="Trazado_34957" data-name="Trazado 34957" d="M572.51,2806.392c-4.434-20.186-24.482-27.292-25.317-27.58-.315-.11-31.658-11.077-42.617-15.064l-1.691-.615-1.378,1.186c-9.678,8.338-25.851,13.315-43.264,13.315s-33.586-4.977-43.264-13.315l-1.378-1.186-1.692.615c-10.959,3.987-42.3,14.954-42.6,15.059-.851.293-20.9,7.4-25.333,27.585-2.44,11.108-3.666,32.539-4.266,35.812l-.026.139H576.8l-.025-.138C576.178,2838.938,574.953,2817.514,572.51,2806.392Z" transform="translate(-339.683 -2619.307)" fill="#f5c000"/>
            <path id="Trazado_34958" data-name="Trazado 34958" d="M467.6,2645.481l10.786,3.954.085-4.666c-1.782,0-11.443-1.642-11.443-1.642Z" transform="translate(-391.373 -2570.596)" fill="#fff"/>
            <path id="Trazado_34959" data-name="Trazado 34959" d="M474.558,2690.657s2.734,10.086,6.121,16.585l1.358-3.1s-5.443-13.075-5.57-13.457A3.736,3.736,0,0,1,474.558,2690.657Z" transform="translate(-394.429 -2589.889)" fill="#fff"/>
            <path id="Trazado_34960" data-name="Trazado 34960" d="M591.759,2649.725l10.545-4.157.573-2.354s-9.484,1.59-11.266,1.59Z" transform="translate(-441.941 -2570.632)" fill="#fff"/>
            <path id="Trazado_34961" data-name="Trazado 34961" d="M596.482,2690.656c-.2.754-5.729,13.489-5.729,13.489l.955,4.242c3.388-6.5,5.729-17.518,5.729-17.518A4.7,4.7,0,0,0,596.482,2690.656Z" transform="translate(-441.593 -2589.888)" fill="#fff"/>
          </g>
        </g>
        <path id="Trazado_34962" data-name="Trazado 34962" d="M527.251,2638.816a37.713,37.713,0,0,0-13.334-3.316c-3.4-.161-8.233,1.111-13.844,3.316-5.565,2.188-18.481,2.736-18.481,2.736-.608,23.16-3.957,32.385-3.957,32.385,4.871,21.123,19.727,28.631,24.841,31.558,4.335,2.48,10.5,2.443,11.441,2.422.943.021,7.106.059,11.441-2.422,5.115-2.927,19.971-10.435,24.842-31.558,0,0-3.349-9.226-3.958-32.385C546.241,2641.552,532.722,2641.23,527.251,2638.816Z" transform="translate(-395.678 -2567.495)" fill="#fff"/>
        <path id="Trazado_34963" data-name="Trazado 34963" d="M531.169,2647.355c-6.28-1.527-9.336-4.835-16.635-4.835-7.214,0-9.507,2.978-14.6,4.156a136.317,136.317,0,0,1-13.924,2.376c-.393,15.142-6.02,32.321-6.02,32.321a44.036,44.036,0,0,0,18.2,24.432c8.835,5.878,15.556,5.438,16.868,5.259,1.311.179,7.523.619,16.358-5.259a46.605,46.605,0,0,0,18.714-24.432s-5.627-17.179-6.02-32.321A115.629,115.629,0,0,1,531.169,2647.355Z" transform="translate(-396.635 -2570.35)" fill="#52c0e3"/>
        <g id="Grupo_18722" data-name="Grupo 18722" transform="translate(89.595 84.949)">
          <path id="Trazado_34964" data-name="Trazado 34964" d="M545.467,2666.343c-.781-.127-1.729-.271-2.819-.411s-2.319-.3-3.664-.442-2.8-.3-4.34-.437-3.167-.289-4.851-.4-3.423-.26-5.194-.343-3.566-.186-5.38-.253c-.886-.026-1.826-.035-2.742-.009s-1.81.066-2.7.117c-1.779.092-3.519.259-5.2.4s-3.307.326-4.845.494-2.991.35-4.331.524c-5.36.689-8.909,1.365-8.909,1.365l.649-.005c.422-.006,1.044,0,1.832-.019,1.577-.028,3.828-.08,6.525-.184,1.349-.049,2.809-.1,4.352-.175l4.851-.219,5.174-.222q1.32-.058,2.644-.08c.876-.012,1.734.006,2.646.044l5.345.186c1.766.083,3.507.11,5.191.171s3.313.094,4.857.13,3.006.067,4.354.087l6.521.087,1.828.036.647.034-.632-.15C546.859,2666.588,546.248,2666.458,545.467,2666.343Z" transform="translate(-490.492 -2664.029)" fill="#40b1c7"/>
        </g>
        <g id="Grupo_18723" data-name="Grupo 18723" transform="translate(88.067 101.989)">
          <path id="Trazado_34965" data-name="Trazado 34965" d="M546.11,2693.915c-1.687.2-4.077.566-6.934.979-.715.1-1.459.207-2.231.3s-1.565.215-2.385.313c-1.638.2-3.368.38-5.156.562s-3.642.3-5.522.433-3.777.2-5.716.256c-1.9.064-3.8.072-5.675-.016s-3.717-.193-5.5-.382-3.5-.395-5.127-.647-3.162-.516-4.575-.79-2.707-.549-3.85-.809-2.139-.5-2.956-.71l-1.9-.5-.668-.192.631.294c.415.184,1.021.462,1.81.775s1.75.688,2.869,1.069,2.388.8,3.793,1.192,2.932.8,4.57,1.146,3.371.694,5.185.936c.907.115,1.827.263,2.767.34s1.886.211,2.85.235c1.921.113,3.885.129,5.841.087,1.92-.05,3.876-.175,5.789-.318s3.781-.368,5.587-.607,3.545-.524,5.184-.838c1.643-.295,3.183-.635,4.6-.968,2.834-.652,5.159-1.317,6.792-1.737.818-.209,1.461-.368,1.9-.458l.683-.13-.7.012C547.621,2693.766,546.952,2693.808,546.11,2693.915Z" transform="translate(-487.92 -2692.712)" fill="#40b1c7"/>
        </g>
        <g id="Grupo_18724" data-name="Grupo 18724" transform="translate(87.049 116.75)">
          <path id="Trazado_34966" data-name="Trazado 34966" d="M548.729,2717.763a11.141,11.141,0,0,0-2.024.659c-1.7.691-4.018,1.86-6.869,3.035-1.426.586-2.99,1.16-4.663,1.694s-3.467.984-5.336,1.376a55,55,0,0,1-5.819.85,55.708,55.708,0,0,1-6.058.238l-1.555-.028c-.476-.023-.981-.038-1.474-.093-.992-.084-1.985-.24-2.969-.41-1.966-.367-3.909-.783-5.772-1.272s-3.663-.992-5.362-1.5-3.3-1.01-4.781-1.481c-2.954-.952-5.413-1.773-7.134-2.355l-2.706-.918.664.345c.434.221,1.068.555,1.889.948,1.638.794,4,1.895,6.886,3.079,1.444.6,3.018,1.221,4.706,1.826s3.474,1.232,5.359,1.784,3.847,1.1,5.9,1.478c1.025.19,2.065.365,3.131.469.534.065,1.064.089,1.622.12l1.555.043a57.727,57.727,0,0,0,6.3-.318,46.877,46.877,0,0,0,6.011-1.058,43.92,43.92,0,0,0,5.443-1.692,44.622,44.622,0,0,0,4.65-2.066c2.808-1.419,4.986-2.847,6.559-3.73a12.76,12.76,0,0,1,1.879-.909,3.822,3.822,0,0,1,.531-.15l.187-.04-.191.01A3.288,3.288,0,0,0,548.729,2717.763Z" transform="translate(-486.206 -2717.558)" fill="#40b1c7"/>
        </g>
      </g>
    </g>
    <g id="Grupo_18740" data-name="Grupo 18740" transform="translate(-528.253 9366.019)">
      <rect id="Rectángulo_3030" data-name="Rectángulo 3030" width="261" height="260.889" transform="translate(1599.253 2456.275)" fill="#c0e5f0"/>
      <g id="Grupo_18732" data-name="Grupo 18732" transform="translate(1611.477 2494.66)">
        <g id="Grupo_18728" data-name="Grupo 18728" transform="translate(0 0)">
          <g id="Grupo_18727" data-name="Grupo 18727">
            <path id="Trazado_34967" data-name="Trazado 34967" d="M1827.485,2761.529c-.414-.145-41.464-14.508-45.887-16.286-1.022-.41-2.342-.89-3.741-1.4a75.752,75.752,0,0,1-8.895-3.635,2.661,2.661,0,0,1-1.344-2.323l-.208-20.592-28.205,6.312-29.479-6.291-.209,20.723a2.687,2.687,0,0,1-1.232,2.259,65.1,65.1,0,0,1-9.135,4.038c-.85.328-1.64.634-2.323.907-4.424,1.778-45.473,16.141-45.879,16.283-.817.281-20.069,7.105-24.313,26.426-2.34,10.654-3.552,31.938-4.157,35.2h233.469c-.6-3.257-1.816-24.537-4.157-35.2C1847.547,2768.631,1828.294,2761.807,1827.485,2761.529Z" transform="translate(-1620.938 -2600.979)" fill="#d98b5e"/>
            <path id="Trazado_34968" data-name="Trazado 34968" d="M1831.731,2594.264c-1.949,0-3.447,2.221-4,3.176l-.028.05-.466.939,2.023-25.57-12.724-19.37-26.792-10.7H1780.9l-26.792,10.7-12.724,19.37,2.023,25.571-.466-.939-.028-.05c-.554-.955-2.053-3.176-4-3.176-.8,0-2.248.374-2.959,2.876-.917,3.223.683,13.217,1.31,14.839h0l5.363,13.691c.2.507,2.061,4.955,5.569,4.955a4.113,4.113,0,0,0,.73-.066q.157.63.313,1.255c1.144,4.6,2.073,8.462,2.651,10.891a22.747,22.747,0,0,0,2.981,7.042,135.423,135.423,0,0,0,8.162,11.3c7.005,8.745,15.231,9.342,15.577,9.363l.05,0h13.33l.05,0c.347-.021,8.572-.618,15.577-9.363a135.469,135.469,0,0,0,8.163-11.3,22.713,22.713,0,0,0,2.98-7.042c.576-2.418,1.5-6.271,2.652-10.891q.155-.624.313-1.255a4.1,4.1,0,0,0,.73.066h0c3.507,0,5.368-4.448,5.571-4.96l5.36-13.685c.626-1.622,2.227-11.615,1.31-14.838C1833.979,2594.638,1832.531,2594.264,1831.731,2594.264Z" transform="translate(-1667.044 -2529.901)" fill="#d98b5e"/>
            <path id="Trazado_34969" data-name="Trazado 34969" d="M1821.689,2538.057s-6.5-14.688-16.766-16.1-35.07-2.3-44.65,6.194-15.568,15.042-15.226,22.474c0,0-4.448,21.933-.342,39.1.479,2.005.921,3.8,1.328,5.41a13.618,13.618,0,0,1,4.333,1.378c.244-10.472.8-24.254,2.037-27.138,2.053-4.778,5.133-13.8,16.081-13.8s39.177.885,44.651-3.893a37.623,37.623,0,0,1,11.8,21.412,171.383,171.383,0,0,1,2.068,23.017,14.41,14.41,0,0,1,3.236-1.137c.59-2.74,1.163-5.863,1.614-9.257,1.419-10.7,1.807-32.787-1.615-38.98A21.8,21.8,0,0,0,1821.689,2538.057Z" transform="translate(-1670.014 -2521.041)" fill="#062a48"/>
            <path id="Trazado_34970" data-name="Trazado 34970" d="M1852.149,2806.289c-4.423-20.138-24.424-27.227-25.257-27.514-.315-.11-31.582-11.051-42.515-15.028l-1.687-.614-1.375,1.183c-9.655,8.318-25.79,13.283-43.161,13.283s-33.506-4.966-43.161-13.283l-1.374-1.183-1.687.614c-10.933,3.977-42.2,14.918-42.5,15.022-.849.292-20.85,7.381-25.273,27.519-2.434,11.082-3.657,32.461-4.255,35.727l-.025.139H1856.43l-.025-.138C1855.808,2838.757,1854.586,2817.384,1852.149,2806.289Z" transform="translate(-1619.878 -2619.651)" fill="#f5c000"/>
            <path id="Trazado_34971" data-name="Trazado 34971" d="M1747.794,2645.475l10.76,3.945.085-4.655c-1.778,0-11.416-1.638-11.416-1.638Z" transform="translate(-1671.749 -2570.77)" fill="#fff"/>
            <path id="Trazado_34972" data-name="Trazado 34972" d="M1754.753,2690.657s2.727,10.062,6.107,16.546l1.354-3.089s-5.429-13.044-5.556-13.425A3.73,3.73,0,0,1,1754.753,2690.657Z" transform="translate(-1674.816 -2590.129)" fill="#fff"/>
            <path id="Trazado_34973" data-name="Trazado 34973" d="M1871.954,2649.709l10.52-4.147.572-2.348s-9.462,1.586-11.24,1.586Z" transform="translate(-1722.494 -2570.805)" fill="#fff"/>
            <path id="Trazado_34974" data-name="Trazado 34974" d="M1876.663,2690.656c-.2.752-5.715,13.457-5.715,13.457l.953,4.232c3.379-6.484,5.715-17.477,5.715-17.477A4.721,4.721,0,0,0,1876.663,2690.656Z" transform="translate(-1722.145 -2590.129)" fill="#fff"/>
          </g>
        </g>
        <path id="Trazado_34975" data-name="Trazado 34975" d="M1807.327,2638.808a37.621,37.621,0,0,0-13.3-3.308c-3.387-.161-8.213,1.108-13.81,3.308-5.552,2.183-18.437,2.73-18.437,2.73-.607,23.1-3.948,32.308-3.948,32.308,4.859,21.073,19.68,28.563,24.782,31.482,4.324,2.474,10.473,2.437,11.414,2.416.941.021,7.089.058,11.413-2.416,5.1-2.919,19.923-10.41,24.782-31.482,0,0-3.341-9.2-3.948-32.308C1826.272,2641.538,1812.785,2641.216,1807.327,2638.808Z" transform="translate(-1676.069 -2567.657)" fill="#fff"/>
        <path id="Trazado_34976" data-name="Trazado 34976" d="M1811.241,2647.344c-6.265-1.524-9.313-4.824-16.595-4.824-7.2,0-9.484,2.97-14.563,4.146a136.023,136.023,0,0,1-13.891,2.37c-.392,15.106-6.005,32.244-6.005,32.244a43.93,43.93,0,0,0,18.161,24.374c8.814,5.865,15.519,5.425,16.827,5.247,1.309.178,7.506.618,16.319-5.247a46.5,46.5,0,0,0,18.67-24.374s-5.615-17.138-6.006-32.244A115.314,115.314,0,0,1,1811.241,2647.344Z" transform="translate(-1677.029 -2570.522)" fill="#52c0e3"/>
        <g id="Grupo_18729" data-name="Grupo 18729" transform="translate(89.381 84.746)">
          <path id="Trazado_34977" data-name="Trazado 34977" d="M1825.531,2666.337c-.779-.127-1.724-.27-2.812-.41s-2.314-.3-3.655-.441-2.792-.3-4.33-.436-3.159-.289-4.839-.4-3.414-.259-5.181-.342-3.557-.186-5.367-.253c-.883-.026-1.822-.034-2.735-.009s-1.806.066-2.692.117c-1.775.092-3.51.258-5.191.4s-3.3.325-4.834.493-2.984.35-4.321.522c-5.347.687-8.888,1.362-8.888,1.362l.647-.005c.421-.006,1.041,0,1.827-.019,1.573-.028,3.819-.08,6.509-.183,1.345-.049,2.8-.1,4.341-.174l4.839-.218,5.162-.221q1.317-.058,2.638-.08c.873-.012,1.729.006,2.639.045l5.332.185c1.762.083,3.5.11,5.178.171s3.3.094,4.846.13,3,.067,4.344.087l6.505.087,1.824.036.645.034-.631-.149C1826.919,2666.582,1826.31,2666.452,1825.531,2666.337Z" transform="translate(-1770.687 -2664.029)" fill="#40b1c7"/>
        </g>
        <g id="Grupo_18730" data-name="Grupo 18730" transform="translate(87.857 101.745)">
          <path id="Trazado_34978" data-name="Trazado 34978" d="M1826.166,2693.912c-1.683.2-4.067.565-6.918.977-.714.1-1.456.206-2.225.3s-1.562.215-2.379.312c-1.634.2-3.36.379-5.143.561s-3.633.3-5.509.432-3.767.2-5.7.255c-1.9.064-3.793.072-5.662-.016s-3.708-.192-5.484-.381-3.493-.394-5.115-.646-3.154-.514-4.564-.787-2.7-.548-3.841-.807-2.134-.5-2.949-.709l-1.892-.5-.666-.192.63.293c.414.183,1.019.461,1.806.773s1.745.687,2.863,1.066,2.383.8,3.784,1.19,2.926.8,4.559,1.143,3.363.692,5.172.933c.905.114,1.822.262,2.76.339s1.882.21,2.843.235c1.917.113,3.875.129,5.827.087,1.915-.05,3.867-.175,5.775-.317s3.772-.367,5.574-.606,3.536-.522,5.172-.836c1.639-.294,3.175-.634,4.587-.965,2.828-.65,5.146-1.313,6.776-1.733.815-.209,1.457-.368,1.9-.458l.681-.129-.7.012C1827.674,2693.763,1827.006,2693.805,1826.166,2693.912Z" transform="translate(-1768.116 -2692.712)" fill="#40b1c7"/>
        </g>
        <g id="Grupo_18731" data-name="Grupo 18731" transform="translate(86.841 116.471)">
          <path id="Trazado_34979" data-name="Trazado 34979" d="M1828.775,2717.762a11.157,11.157,0,0,0-2.019.658c-1.693.69-4.008,1.856-6.853,3.028-1.422.584-2.983,1.157-4.651,1.689s-3.459.982-5.323,1.373a54.869,54.869,0,0,1-5.805.848,55.556,55.556,0,0,1-6.043.238l-1.551-.028c-.475-.023-.979-.038-1.471-.093-.989-.084-1.981-.24-2.962-.409-1.961-.366-3.9-.781-5.758-1.269s-3.654-.99-5.35-1.5-3.295-1.008-4.77-1.478c-2.947-.95-5.4-1.769-7.117-2.349l-2.7-.916.662.344c.433.22,1.065.554,1.884.946,1.634.792,3.986,1.89,6.87,3.071,1.44.594,3.01,1.219,4.694,1.821s3.467,1.229,5.346,1.78,3.839,1.093,5.882,1.474c1.023.189,2.06.364,3.124.468.532.065,1.062.088,1.619.12l1.55.043a57.46,57.46,0,0,0,6.289-.317,46.717,46.717,0,0,0,6-1.056,43.85,43.85,0,0,0,5.43-1.688,44.4,44.4,0,0,0,4.638-2.062c2.8-1.415,4.974-2.84,6.543-3.721a12.679,12.679,0,0,1,1.875-.907,3.779,3.779,0,0,1,.529-.149l.186-.04-.19.01A3.287,3.287,0,0,0,1828.775,2717.762Z" transform="translate(-1766.401 -2717.558)" fill="#40b1c7"/>
        </g>
      </g>
      <g id="Grupo_18735" data-name="Grupo 18735" transform="translate(1668.523 2588.109)">
        <path id="Trazado_34980" data-name="Trazado 34980" d="M1809.958,2702.677a4.181,4.181,0,0,0-2.938-.233,2.845,2.845,0,0,0-1.811,1.5l-11.61,25.231a1.6,1.6,0,0,1-1.045.884,1.462,1.462,0,0,1-1.3-.279c-.17-.138-.341-.273-.516-.4a1.56,1.56,0,0,1-.479-1.838l14.658-36.1c.629-1.551-.337-3.422-2.2-4.256s-4.043-.254-4.741,1.279l-15.954,34.992a1.544,1.544,0,0,1-2,.82l-.795-.341a1.539,1.539,0,0,1-.779-2.011l15.017-36.982c.623-1.548-.338-3.421-2.195-4.255a4.179,4.179,0,0,0-2.939-.225,2.842,2.842,0,0,0-1.8,1.5l-16.807,36.866a1.566,1.566,0,0,1-1.634.922c-.193-.028-.388-.052-.582-.074a1.456,1.456,0,0,1-1.114-.74,1.591,1.591,0,0,1-.079-1.379l12.949-31.953c.622-1.549-.341-3.418-2.2-4.252-1.87-.841-4.043-.257-4.744,1.276l-19.415,42.509a1.564,1.564,0,0,1-1.674.915c-.414-.2-2.3-1.444-.388-15.121,1.559-11.14-6.5-9.059-6.5-9.059s-4.749,19.206-6,25.422c-2.811,13.906,3.017,30.617,3.806,32.283.068.261-17.524,31.385-26.025,48.835h46.021c5.892-16.25,12.149-33.375,12.381-33.454,6.234-2.152,15.029-13.073,19.258-22.364,5.1-11.2,18.356-45.673,18.356-45.673C1812.767,2705.375,1811.8,2703.511,1809.958,2702.677Z" transform="translate(-1716.13 -2679.355)" fill="#d98b5e"/>
        <g id="Grupo_18733" data-name="Grupo 18733" transform="translate(9.654)">
          <path id="Trazado_34981" data-name="Trazado 34981" d="M1817.465,2702.677a4.181,4.181,0,0,0-2.938-.233,2.842,2.842,0,0,0-1.811,1.5l-11.612,25.231a1.6,1.6,0,0,1-1.044.884,1.462,1.462,0,0,1-1.3-.279c-.169-.138-.341-.273-.516-.4a1.56,1.56,0,0,1-.479-1.838l14.658-36.1c.63-1.551-.337-3.422-2.2-4.255s-4.043-.255-4.741,1.278l-15.954,34.993a1.544,1.544,0,0,1-2,.819l-.795-.341a1.539,1.539,0,0,1-.779-2.011l15.016-36.982c.624-1.548-.338-3.421-2.195-4.255a4.178,4.178,0,0,0-2.938-.225,2.843,2.843,0,0,0-1.8,1.5l-16.808,36.866a1.565,1.565,0,0,1-1.633.922c-.193-.028-.388-.053-.582-.075a1.457,1.457,0,0,1-1.114-.74,1.589,1.589,0,0,1-.079-1.378l12.949-31.954c.622-1.549-.341-3.418-2.2-4.252-1.87-.841-4.043-.257-4.744,1.276l-19.415,42.509a1.563,1.563,0,0,1-1.674.915c-.414-.2-2.3-1.444-.388-15.121,1.559-11.139-6.5-9.059-6.5-9.059s-4.749,19.206-6,25.422c-2.81,13.906,3.018,30.617,3.806,32.283.044.17-8.3,13.373-15.1,27.388l37.228,15.58c5.179-14.253,10.047-27.516,10.251-27.587,6.234-2.152,15.029-13.073,19.258-22.364,5.1-11.2,18.356-45.673,18.356-45.673C1820.274,2705.376,1819.309,2703.511,1817.465,2702.677Z" transform="translate(-1733.29 -2679.355)" fill="#008eba"/>
          <path id="Trazado_34982" data-name="Trazado 34982" d="M1816.978,2701.186a5.113,5.113,0,0,0-3.6-.275,3.761,3.761,0,0,0-2.385,2l-11.611,25.23a.671.671,0,0,1-.432.372.523.523,0,0,1-.471-.1c-.179-.146-.36-.288-.545-.427a.627.627,0,0,1-.175-.742l14.658-36.1c.818-2.018-.358-4.415-2.678-5.457s-5.065-.248-5.973,1.742l-15.954,34.993a.616.616,0,0,1-.779.349l-.8-.341a.613.613,0,0,1-.281-.8l15.017-36.985c.814-2.019-.363-4.414-2.678-5.454a5.1,5.1,0,0,0-3.6-.265,3.758,3.758,0,0,0-2.378,2.007l-16.807,36.865a.636.636,0,0,1-.65.387c-.2-.031-.409-.056-.615-.08a.526.526,0,0,1-.4-.27.664.664,0,0,1-.027-.572l12.95-31.956c.809-2.016-.367-4.411-2.679-5.45-2.329-1.048-5.066-.251-5.975,1.74l-19.415,42.509a.658.658,0,0,1-.482.384c-.313-.435-1.382-2.821.193-14.074.587-4.2-.069-7.177-1.95-8.855a6.685,6.685,0,0,0-5.709-1.236l-.539.139-.133.54c-.048.192-4.768,19.3-6.014,25.46-2.693,13.331,2.33,29.073,3.688,32.426-.211.365-.582.987-.992,1.676-2.6,4.364-8.689,14.582-13.916,25.347l-.43.887,39.041,16.338.334-.919c7.479-20.581,9.54-25.975,10.044-27.157,6.628-2.58,15.336-13.711,19.438-22.725,5.051-11.1,18.245-45.379,18.372-45.711C1820.453,2704.618,1819.281,2702.229,1816.978,2701.186Zm.932,4.757c-.132.344-13.305,34.573-18.334,45.621-3.935,8.646-12.589,19.754-18.713,21.869-.559.192-.559.192-3.83,9.032-1.63,4.4-3.869,10.522-6.659,18.2l-35.413-14.821c5.091-10.365,10.891-20.1,13.407-24.321,1.433-2.405,1.433-2.405,1.325-2.821l-.06-.166c-.885-1.872-6.437-18.329-3.735-31.7,1.114-5.512,5.042-21.512,5.85-24.792a4.487,4.487,0,0,1,3.473.91c1.369,1.221,1.834,3.713,1.344,7.2-2.05,14.646.172,15.732.9,16.089l.119.058.13.022a2.493,2.493,0,0,0,2.683-1.445l19.415-42.509c.483-1.057,2.124-1.438,3.512-.813s2.148,1.969,1.714,3.052l-12.948,31.952a2.507,2.507,0,0,0,.13,2.188,2.4,2.4,0,0,0,1.824,1.208q.275.031.549.071a2.509,2.509,0,0,0,2.618-1.458l16.808-36.867a1.925,1.925,0,0,1,1.231-1,3.251,3.251,0,0,1,2.28.185c1.4.628,2.15,1.97,1.713,3.053l-15.016,36.983a2.485,2.485,0,0,0,1.275,3.219l.795.341a2.489,2.489,0,0,0,3.213-1.289l15.954-34.993c.482-1.057,2.122-1.438,3.51-.814s2.153,1.97,1.713,3.053l-14.658,36.1a2.493,2.493,0,0,0,.783,2.934q.248.186.487.381a2.4,2.4,0,0,0,2.118.459,2.522,2.522,0,0,0,1.66-1.4l11.611-25.231a1.928,1.928,0,0,1,1.236-1,3.241,3.241,0,0,1,2.28.191C1817.6,2703.515,1818.348,2704.852,1817.91,2705.943Z" transform="translate(-1732.418 -2678.714)" fill="#008eba"/>
        </g>
        <g id="Grupo_18734" data-name="Grupo 18734" transform="translate(9.175 104.387)">
          <path id="Trazado_34983" data-name="Trazado 34983" d="M1771.507,2871.6l-36.737-16.562a2.238,2.238,0,1,0-1.841,4.08l36.737,16.562a2.238,2.238,0,1,0,1.841-4.081Z" transform="translate(-1731.61 -2854.841)" fill="#007bb5"/>
        </g>
      </g>
      <g id="Grupo_18739" data-name="Grupo 18739" transform="translate(1708.984 2646.362)">
        <ellipse id="Elipse_1101" data-name="Elipse 1101" cx="21.946" cy="21.936" rx="21.946" ry="21.936" fill="#f14800"/>
        <g id="Grupo_18738" data-name="Grupo 18738" transform="translate(10.126 9.976)">
          <g id="Grupo_18736" data-name="Grupo 18736" transform="translate(0 0.145)">
            <rect id="Rectángulo_3031" data-name="Rectángulo 3031" width="5.845" height="27.581" transform="matrix(0.707, -0.707, 0.707, 0.707, 0, 4.134)" fill="#fff"/>
          </g>
          <g id="Grupo_18737" data-name="Grupo 18737" transform="translate(0.696 0)">
            <rect id="Rectángulo_3032" data-name="Rectángulo 3032" width="26.853" height="5.844" transform="matrix(0.666, -0.746, 0.746, 0.666, 0, 20.028)" fill="#fff"/>
          </g>
        </g>
      </g>
    </g>
    <g id="Grupo_18746" data-name="Grupo 18746" transform="translate(-1085.26 10131.686)">
      <rect id="Rectángulo_3033" data-name="Rectángulo 3033" width="260.633" height="260.521" transform="translate(1599.253 1690.976)" fill="#c0e5f0"/>
      <g id="Grupo_18741" data-name="Grupo 18741" transform="translate(1599.253 1793.217)">
        <path id="Trazado_34984" data-name="Trazado 34984" d="M1709.589,1906.75c.244-.554,1.777-3.1,19.846-1.3,14.716,1.464,11.561-9.008,11.561-9.008s-25.482-5.229-33.714-6.552c-18.417-2.961-40.067,5.564-42.215,6.686-.3.09-40.582-21.1-65.814-32.849v56.7c15.048,5.756,47.266,15.135,47.356,15.367,3.144,8.046,17.814,23.065,30.217,28.151a17.73,17.73,0,0,1,1.785-7.621,93.128,93.128,0,0,1,11.405-18.2c2.755-3.581,57.3-2.592,59.6-3.306l-38.736-25.912A2.053,2.053,0,0,1,1709.589,1906.75Z" transform="translate(-1599.253 -1863.727)" fill="#ba754d"/>
        <path id="Trazado_34985" data-name="Trazado 34985" d="M1721.05,1957.393c-12.048,13.38,8.032,29.438,8.032,29.438,9.371,3.345,52.877-.669,42.167-20.74S1733.1,1944.012,1721.05,1957.393Z" transform="translate(-1647.394 -1898.481)" fill="#008f97"/>
        <path id="Trazado_34986" data-name="Trazado 34986" d="M1804.287,1983.024l-53.266-.608a2.058,2.058,0,0,1-1.977-1.474c-.068-.247-.142-.494-.22-.738a1.917,1.917,0,0,1,.3-1.733,2.093,2.093,0,0,1,1.616-.827l45.308-1.419c2.194-.075,3.93-2.225,3.947-4.9.018-2.695-1.839-4.994-4.055-5.022l-61.437-.743a2.053,2.053,0,0,1-1.989-1.526c.023-.6.513-3.533,17.978-8.5,14.224-4.045,7.439-12.625,7.439-12.625s-25.621,4.5-33.763,6.292c-18.217,4.012-35.218,19.894-36.8,21.726-.387.306-88.111-8.947-88.111-8.947V2023.7s86.4-6.139,86.818-5.689c5.9,6.347,23.707,11.113,37.127,11.258,16.179.174,64.68-2.212,64.68-2.212,2.186-.074,3.915-2.224,3.939-4.883a5.485,5.485,0,0,0-1.281-3.655,3.738,3.738,0,0,0-2.764-1.38l-36.512-.546a2.106,2.106,0,0,1-1.618-.785,1.92,1.92,0,0,1-.353-1.705q.114-.415.212-.835a2.052,2.052,0,0,1,1.956-1.552l51.2-1.568c2.2-.068,3.935-2.223,3.951-4.9.016-2.695-1.842-4.993-4.057-5.018l-50.559-.577a2.028,2.028,0,0,1-2.046-1.964l-.012-1.136a2.024,2.024,0,0,1,2-2l52.454-1.606c2.193-.073,3.935-2.223,3.951-4.9a5.489,5.489,0,0,0-1.291-3.65A3.732,3.732,0,0,0,1804.287,1983.024Z" transform="translate(-1599.253 -1896.048)" fill="#d98b5e"/>
      </g>
      <g id="Grupo_18745" data-name="Grupo 18745" transform="translate(1782.826 1711.577)">
        <path id="Trazado_34987" data-name="Trazado 34987" d="M1938.955,1764.835h-9.52a20.01,20.01,0,0,0-20.01,20.01v73.129a5.789,5.789,0,0,0,5.789,5.789h37.963a5.789,5.789,0,0,0,5.789-5.789v-73.129A20.01,20.01,0,0,0,1938.955,1764.835Z" transform="translate(-1909.425 -1741.723)" fill="#008f97"/>
        <rect id="Rectángulo_3034" data-name="Rectángulo 3034" width="23.762" height="9.454" transform="translate(12.889 15.248)" fill="#fff"/>
        <rect id="Rectángulo_3035" data-name="Rectángulo 3035" width="5.228" height="18.052" transform="translate(22.156 0.475)" fill="#fff"/>
        <path id="Trazado_34988" data-name="Trazado 34988" d="M1930.6,1726.952a1.081,1.081,0,0,0,.939,1.168,57.057,57.057,0,0,1,10.981,1.15l6.638,1.671c1.339.337,2.591-.913,2.591-2.584v-2.573h-20.193A1.078,1.078,0,0,0,1930.6,1726.952Z" transform="translate(-1918.068 -1725.784)" fill="#fff"/>
        <rect id="Rectángulo_3036" data-name="Rectángulo 3036" width="32.436" height="39.189" transform="translate(8.552 52.982)" fill="#fff"/>
        <g id="Grupo_18744" data-name="Grupo 18744" transform="translate(14.672 62.481)">
          <g id="Grupo_18742" data-name="Grupo 18742" transform="translate(8.198)">
            <path id="Trazado_34989" data-name="Trazado 34989" d="M1949.967,1831.355a1.9,1.9,0,0,0-1.9,1.9v16.389a1.9,1.9,0,0,0,3.8,0v-16.389A1.9,1.9,0,0,0,1949.967,1831.355Z" transform="translate(-1948.066 -1831.355)" fill="#008b94"/>
          </g>
          <g id="Grupo_18743" data-name="Grupo 18743" transform="translate(0 8.195)">
            <path id="Trazado_34990" data-name="Trazado 34990" d="M1952.511,1845.2h-16.4a1.9,1.9,0,0,0,0,3.8h16.4a1.9,1.9,0,1,0,0-3.8Z" transform="translate(-1934.215 -1845.201)" fill="#008b94"/>
          </g>
        </g>
      </g>
    </g>
  </g>
</svg>
