<svg xmlns="http://www.w3.org/2000/svg" width="1006.08" height="269.18" viewBox="0 0 1006.08 269.18">
  <g id="Grupo_18711" data-name="Grupo 18711" transform="translate(-457 -7614)">
    <g id="Grupo_10598" data-name="Grupo 10598" transform="translate(457 6881.079)">
      <g id="Grupo_10597" data-name="Grupo 10597" transform="translate(58.892 757.874)">
        <g id="Grupo_10567" data-name="Grupo 10567" transform="translate(519.383 107.992)">
          <g id="Grupo_10561" data-name="Grupo 10561" transform="translate(21.096 10.715)">
            <path id="Trazado_20359" data-name="Trazado 20359" d="M2384.885,1230.157a1.11,1.11,0,0,0-1.565,1.576l7.029,6.981a1.111,1.111,0,1,0,1.565-1.576Z" transform="translate(-2382.992 -1229.835)" fill="#5d898f"/>
          </g>
          <g id="Grupo_10566" data-name="Grupo 10566" transform="translate(0 0)">
            <rect id="Rectángulo_2314" data-name="Rectángulo 2314" width="5.087" height="119.644" transform="translate(18.911 8.148)" fill="#5d898f"/>
            <circle id="Elipse_648" data-name="Elipse 648" cx="6.227" cy="6.227" r="6.227" transform="translate(14.102 2.504) rotate(-11.599)" fill="#5d898f"/>
            <path id="Trazado_20360" data-name="Trazado 20360" d="M2339.194,1688.5h-37.241a2.834,2.834,0,1,0,0,5.667h37.241a2.834,2.834,0,1,0,0-5.667Z" transform="translate(-2299.119 -1562.42)" fill="#5d898f"/>
            <g id="Grupo_10565" data-name="Grupo 10565" transform="translate(27.016 13.097)">
              <g id="Grupo_10562" data-name="Grupo 10562" transform="translate(0 3.491)">
                <path id="Trazado_20361" data-name="Trazado 20361" d="M2413.059,1256.358c-1.757-1.532-2.722-2.507-2.732-2.516a2.219,2.219,0,0,0-3.158,3.118c.042.043,1.077,1.089,2.971,2.743a2.22,2.22,0,0,0,2.92-3.344Z" transform="translate(-2406.529 -1253.183)" fill="#21ada4"/>
              </g>
              <g id="Grupo_10563" data-name="Grupo 10563" transform="translate(5.295 5.231)">
                <path id="Trazado_20362" data-name="Trazado 20362" d="M2530.523,1260.768c-1.738,1.773-3.519,3.463-5.292,5.025a2.129,2.129,0,0,1-2.375,2.022c-1.907,1.567-3.861,3.035-5.805,4.365a2.113,2.113,0,0,1-2.6,1.7,69.616,69.616,0,0,1-6.316,3.511,2.1,2.1,0,0,1-2.809,1.291,61.966,61.966,0,0,1-6.763,2.462,2.088,2.088,0,0,1-2.975.8,58.611,58.611,0,0,1-7.072,1.26,2.087,2.087,0,0,1-3.068.272,59.542,59.542,0,0,1-7.192.013,2.245,2.245,0,0,0-1.595.551,2.216,2.216,0,0,0-1.482-.8,66.763,66.763,0,0,1-7.124-1.165,2.11,2.11,0,0,1-3.014-.728c-2.285-.607-4.611-1.346-6.909-2.2a2.123,2.123,0,0,1-2.9-1.134c-2.2-.913-4.427-1.942-6.607-3.062a2.134,2.134,0,0,1-2.756-1.473c-2.1-1.169-4.206-2.443-6.248-3.782a2.14,2.14,0,0,1-2.593-1.758c-2.011-1.408-3.974-2.888-5.833-4.4a2.219,2.219,0,1,0-2.8,3.444c1.94,1.579,3.988,3.124,6.086,4.594a2.3,2.3,0,0,1,2.706,1.834c2.133,1.4,4.327,2.727,6.524,3.949a2.309,2.309,0,0,1,2.888,1.542c2.287,1.175,4.621,2.255,6.937,3.213a2.322,2.322,0,0,1,3.056,1.2c2.43.9,4.89,1.68,7.311,2.321a2.338,2.338,0,0,1,3.2.776,71.21,71.21,0,0,0,7.6,1.241,2.353,2.353,0,0,1,3.3.271c1.246.072,2.51.108,3.754.108,1.318,0,2.653-.041,3.969-.123a2.212,2.212,0,0,0,1.589-.821,2.248,2.248,0,0,0,1.711.53,63.067,63.067,0,0,0,7.61-1.358,2.361,2.361,0,0,1,3.2-.863,66.175,66.175,0,0,0,7.249-2.638,2.35,2.35,0,0,1,3-1.38,74.106,74.106,0,0,0,6.719-3.734,2.329,2.329,0,0,1,2.752-1.8c2.051-1.4,4.11-2.951,6.118-4.6a2.31,2.31,0,0,1,2.492-2.122c1.853-1.633,3.713-3.4,5.525-5.248a2.219,2.219,0,1,0-3.168-3.108Z" transform="translate(-2427.579 -1260.102)" fill="#21ada4"/>
              </g>
              <g id="Grupo_10564" data-name="Grupo 10564" transform="translate(109.83)">
                <path id="Trazado_20363" data-name="Trazado 20363" d="M2849.46,1239.846a2.22,2.22,0,0,0-3.131.222q-1.271,1.467-2.544,2.843a2.219,2.219,0,0,0,3.26,3.013q1.319-1.427,2.638-2.946A2.22,2.22,0,0,0,2849.46,1239.846Z" transform="translate(-2843.194 -1239.303)" fill="#21ada4"/>
              </g>
            </g>
          </g>
        </g>
        <g id="Grupo_10576" data-name="Grupo 10576" transform="translate(654.051)">
          <g id="Grupo_10573" data-name="Grupo 10573">
            <g id="Grupo_10569" data-name="Grupo 10569" transform="translate(67.596 44.55)">
              <g id="Grupo_10568" data-name="Grupo 10568" transform="translate(29.41)">
                <path id="Trazado_20364" data-name="Trazado 20364" d="M3233.953,1218.96l-5.064,20.129c0,6.59,3.05,14.77,12.828,14.77h8.358c10.5,0,15.641-6.453,15.641-14.747l-5.814-20.152Z" transform="translate(-3226.707 -1147.538)" fill="#21ada4"/>
                <path id="Trazado_20365" data-name="Trazado 20365" d="M3264.239,935c-9.526,0-11.767,4.765-12.028,9.434-.393,7.03-2.38,21.247-.979,28.148,1.372,6.76,24.23,3.293,24.718,0,1.738-11.716-.927-18.775-2.046-25.493C3272.748,940.148,3270.7,935,3264.239,935Z" transform="translate(-3243.062 -934.997)" fill="#8f6421"/>
                <path id="Trazado_20366" data-name="Trazado 20366" d="M3255.247,1050.466l-11.025-3.434a5.419,5.419,0,0,1-3.689,1.308,5.487,5.487,0,0,1-3.46-1.117l-10.957,3.295a6.849,6.849,0,0,0-4.741,5.187h.014l-1.173,7.131c1.24.652,2.729,1.554,5.525,3.2-.242,1.862-.378,7.943,1.1,8.85l-.163,15.393h26.737l.463-22.882s8.154-2.215,8.7-2.394l-2.09-9.82A7.924,7.924,0,0,0,3255.247,1050.466Z" transform="translate(-3220.215 -1018.853)" fill="#21ada4"/>
                <path id="Trazado_20367" data-name="Trazado 20367" d="M3271.537,969.3a46.435,46.435,0,0,1-5.281.631V977.5a7.758,7.758,0,0,0,7.557,7.943c4.174,0,6.6-4.005,7.047-8.37a33.089,33.089,0,0,0-1.319-11.143A23.061,23.061,0,0,1,3271.537,969.3Z" transform="translate(-3254.676 -958.147)" fill="#eab99f"/>
                <path id="Trazado_20368" data-name="Trazado 20368" d="M3282.886,1028.271c0,2.613,2.145,4.027,4.767,4.027s4.73-1.414,4.73-4.027V1017.68h-9.5Z" transform="translate(-3267.123 -996.883)" fill="#eab99f"/>
                <path id="Trazado_20369" data-name="Trazado 20369" d="M3279.028,997.487c-.168-.081-.358-.15-.539-.228-.515-.178-1.027-.356-1.553-.5-.577-.161-1.159-.279-1.744-.4-.206-.019-.412-.04-.617-.055a16.874,16.874,0,0,0-8.318.778v3a7.758,7.758,0,0,0,7.557,7.944,6.278,6.278,0,0,0,5.444-3.316,28.119,28.119,0,0,1,.287-6.953C3279.372,997.661,3279.2,997.571,3279.028,997.487Z" transform="translate(-3254.676 -980.726)" fill="#fff"/>
                <path id="Trazado_20370" data-name="Trazado 20370" d="M3278.741,1002.044l-.186-.087c-.154-.074-2.334-1.117-6.841-1.115-.391,0-.778.055-1.166.089a19.439,19.439,0,0,0-4.292.886v2.5c0,4.005,3.728,7.26,7.539,7.26a6.507,6.507,0,0,0,4.963-2.409A18.427,18.427,0,0,1,3278.741,1002.044Z" transform="translate(-3254.676 -984.281)" fill="#98ddeb"/>
              </g>
              <path id="Trazado_20371" data-name="Trazado 20371" d="M3155.075,1278.588c-5.918-4.872-12.019-.117-14.209,1.591s-5.143,8.174-5.143,8.174l-15.612,31.47-12.781,18.541s-6.364,7.807-3.129,8.782c4.6,1.388,9.3.244,12.729-5.855l7.833-17.565,19.336-23.419s2-9.4,8.322-9.514,4.422,2.927,4.422,2.927S3162.833,1284.975,3155.075,1278.588Z" transform="translate(-3103.284 -1190.57)" fill="#eab99f"/>
              <path id="Trazado_20372" data-name="Trazado 20372" d="M3108.417,1519.391a5.946,5.946,0,0,1-.105-2.448l-.981,1.422s-6.363,7.807-3.128,8.783c4.6,1.388,9.3.244,12.727-5.855l.82-1.837C3115.052,1521.911,3109.655,1523.686,3108.417,1519.391Z" transform="translate(-3103.285 -1370.572)" fill="#40403f"/>
              <path id="Trazado_20373" data-name="Trazado 20373" d="M3259.23,1324.191l1.835,38.57v17.41c.49,6.732,4.216,8.59,8.654,7.395,2.587-.7,1.657-7.162,1.657-7.162l-3.7-17.643,6.609-46.427C3260.087,1303.565,3259.23,1324.191,3259.23,1324.191Z" transform="translate(-3220.007 -1217.298)" fill="#eab99f"/>
              <path id="Trazado_20374" data-name="Trazado 20374" d="M3276.229,1570.708c-.465,3.455-5.065,3.1-7.677,1.418a8.619,8.619,0,0,1-2.024-1.821v3.08c.489,6.732,4.215,8.59,8.653,7.395,2.586-.7,1.658-7.162,1.658-7.162Z" transform="translate(-3225.469 -1410.512)" fill="#40403f"/>
              <path id="Trazado_20375" data-name="Trazado 20375" d="M3244.184,1085.66c-2.663,0-3.617,12.493-3.617,12.493v.365a5.088,5.088,0,0,0,4.841,5.278h16.556c2.662,0,5.82-2.375,5.82-5.278l-.414-9.2C3267.369,1086.411,3244.184,1085.66,3244.184,1085.66Z" transform="translate(-3206.038 -1047.765)" fill="#21ada4"/>
              <path id="Trazado_20376" data-name="Trazado 20376" d="M3301.787,1050.276l3.343,2.679a14.508,14.508,0,0,0,4.892-8.613l-3.486-2.723A11.012,11.012,0,0,1,3301.787,1050.276Z" transform="translate(-3251.86 -1014.801)" fill="#fff"/>
              <path id="Trazado_20377" data-name="Trazado 20377" d="M3272.979,1042.033l-3.329,2.619a14.506,14.506,0,0,0,4.891,8.613l3.2-2.739A11.479,11.479,0,0,1,3272.979,1042.033Z" transform="translate(-3227.806 -1015.111)" fill="#fff"/>
              <path id="Trazado_20378" data-name="Trazado 20378" d="M3209.432,1229.055a1.745,1.745,0,0,0,2.369,1.48l7.681-2.185,5.874,1.48s3.846,1.276,6.339-.817v-4.133l-11.894-2.474Z" transform="translate(-3182.734 -1150.118)" fill="#eab99f"/>
              <path id="Trazado_20379" data-name="Trazado 20379" d="M3320.748,1118.466l-10.19.816,5.3,24.349-17.917,2.491v6.537h22.332c4.619,0,5.528-5.74,5.335-6.919Z" transform="translate(-3248.983 -1072.32)" fill="#21ada4"/>
              <path id="Trazado_20380" data-name="Trazado 20380" d="M3208.682,1197.764h0a11.994,11.994,0,0,1,.2-1.314c.111-.555.254-1.154.413-1.763.123-.472.257-.952.4-1.434l-5.368.154Z" transform="translate(-3178.911 -1128.297)" fill="#21ada4"/>
              <path id="Trazado_20381" data-name="Trazado 20381" d="M3217.73,1096.493l-21.009.6c-.139.482-.273.962-.4,1.434-.158.609-.3,1.208-.412,1.763a11.7,11.7,0,0,0-.2,1.314h0l-4.357-4.357,5.367-.154c.22-.765.455-1.539.7-2.316.8-2.535,1.7-5.094,2.638-7.647s1.909-5.106,2.907-7.652l1.515-3.813.769-1.9.775-1.88.024-.059c.027-.066.052-.132.077-.2a5.114,5.114,0,0,0-9.626-3.46l-.715,1.99-.7,1.978-1.369,3.963q-1.351,3.971-2.624,7.986c-.844,2.683-1.659,5.381-2.4,8.154-.37,1.389-.724,2.794-1.037,4.264-.156.737-.3,1.491-.425,2.3a17.706,17.706,0,0,0-.234,2.8h0v.014a4.216,4.216,0,0,0,4.094,4.336l.263.008,26.377.756c.092,0,.2,0,.293,0a5.115,5.115,0,1,0-.293-10.226Z" transform="translate(-3165.94 -1032.139)" fill="#21ada4"/>
              <path id="Trazado_20382" data-name="Trazado 20382" d="M3304.7,958.681l-2.938,2.1s5.531,3.644,5.657,5.886,0,6.851,0,6.851L3310,972.03l-1.109-12.368Z" transform="translate(-3251.843 -952.724)" fill="#8f6421"/>
              <path id="Trazado_20383" data-name="Trazado 20383" d="M3317.313,999.762l1.59-1.2v-.73l-1.869.956Z" transform="translate(-3263.271 -982.029)" fill="#fff"/>
              <path id="Trazado_20384" data-name="Trazado 20384" d="M3315.958,1019.47a15.621,15.621,0,0,0,1.947-4.858l-1.947,3.434Z" transform="translate(-3262.466 -994.587)" fill="#fff"/>
            </g>
            <rect id="Rectángulo_2315" data-name="Rectángulo 2315" width="0.218" height="120.021" transform="translate(234.029 119.717)" fill="#fffffc"/>
            <rect id="Rectángulo_2316" data-name="Rectángulo 2316" width="0.218" height="40.513" transform="translate(234.029 119.717)" fill="#cde1de"/>
            <rect id="Rectángulo_2317" data-name="Rectángulo 2317" width="0.218" height="7.375" transform="translate(234.029 112.342)" fill="#21ada4"/>
            <rect id="Rectángulo_2318" data-name="Rectángulo 2318" width="224.265" height="120.021" transform="translate(0 119.717)" fill="#cbe2e5"/>
            <g id="Grupo_10572" data-name="Grupo 10572" transform="translate(144.548 54.373)">
              <path id="Rectángulo_2319" data-name="Rectángulo 2319" d="M7.535,0H53.7a7.535,7.535,0,0,1,7.535,7.535V33.657A7.536,7.536,0,0,1,53.7,41.193H7.535A7.535,7.535,0,0,1,0,33.657V7.535A7.535,7.535,0,0,1,7.535,0Z" fill="#414141"/>
              <path id="Trazado_20385" data-name="Trazado 20385" d="M3510.3,1028.266h-8.544a1.889,1.889,0,0,0-1.886,1.792l-2.218,42.949h16.752l-2.218-42.949A1.889,1.889,0,0,0,3510.3,1028.266Z" transform="translate(-3475.414 -1014.631)" fill="#878787"/>
              <g id="Grupo_10570" data-name="Grupo 10570" transform="translate(54.301 8.497)">
                <rect id="Rectángulo_2320" data-name="Rectángulo 2320" width="6.932" height="1.971" fill="#212121"/>
                <rect id="Rectángulo_2321" data-name="Rectángulo 2321" width="6.932" height="1.97" transform="translate(0 3.705)" fill="#212121"/>
                <rect id="Rectángulo_2322" data-name="Rectángulo 2322" width="6.932" height="1.97" transform="translate(0 7.409)" fill="#212121"/>
                <rect id="Rectángulo_2323" data-name="Rectángulo 2323" width="6.932" height="1.97" transform="translate(0 11.114)" fill="#212121"/>
                <rect id="Rectángulo_2324" data-name="Rectángulo 2324" width="6.932" height="1.97" transform="translate(0 14.818)" fill="#212121"/>
                <rect id="Rectángulo_2325" data-name="Rectángulo 2325" width="6.932" height="1.97" transform="translate(0 18.523)" fill="#212121"/>
                <rect id="Rectángulo_2326" data-name="Rectángulo 2326" width="6.932" height="1.97" transform="translate(0 22.227)" fill="#212121"/>
              </g>
              <g id="Grupo_10571" data-name="Grupo 10571" transform="translate(0 8.497)">
                <rect id="Rectángulo_2327" data-name="Rectángulo 2327" width="6.932" height="1.971" fill="#212121"/>
                <rect id="Rectángulo_2328" data-name="Rectángulo 2328" width="6.932" height="1.97" transform="translate(0 3.705)" fill="#212121"/>
                <rect id="Rectángulo_2329" data-name="Rectángulo 2329" width="6.932" height="1.97" transform="translate(0 7.409)" fill="#212121"/>
                <rect id="Rectángulo_2330" data-name="Rectángulo 2330" width="6.932" height="1.97" transform="translate(0 11.114)" fill="#212121"/>
                <rect id="Rectángulo_2331" data-name="Rectángulo 2331" width="6.932" height="1.97" transform="translate(0 14.818)" fill="#212121"/>
                <rect id="Rectángulo_2332" data-name="Rectángulo 2332" width="6.932" height="1.97" transform="translate(0 18.523)" fill="#212121"/>
                <rect id="Rectángulo_2333" data-name="Rectángulo 2333" width="6.932" height="1.97" transform="translate(0 22.227)" fill="#212121"/>
              </g>
            </g>
            <rect id="Rectángulo_2334" data-name="Rectángulo 2334" width="224.265" height="40.513" transform="translate(0 119.717)" fill="#adc8cc"/>
            <rect id="Rectángulo_2335" data-name="Rectángulo 2335" width="0.218" height="3.927" transform="translate(234.029 119.736)" opacity="0.2"/>
            <rect id="Rectángulo_2336" data-name="Rectángulo 2336" width="224.265" height="4.286" transform="translate(0 119.717)" opacity="0.2"/>
            <rect id="Rectángulo_2337" data-name="Rectángulo 2337" width="9.981" height="239.738" transform="translate(224.265)" fill="#0d4c5f"/>
            <rect id="Rectángulo_2338" data-name="Rectángulo 2338" width="9.981" height="239.738" transform="translate(0)" fill="#0d4c5f"/>
          </g>
          <g id="Grupo_10575" data-name="Grupo 10575" transform="translate(9.783 9.968)">
            <path id="Trazado_20386" data-name="Trazado 20386" d="M2873.432,900.552h75.5v-9.4a12.092,12.092,0,0,1,11.986-12.2h39.212a12.093,12.093,0,0,1,11.987,12.2v9.4h75.5V797.505H2873.432Z" transform="translate(-2873.432 -797.505)" fill="#d8e2e8" style="mix-blend-mode: multiply;isolation: isolate"/>
            <path id="Trazado_20387" data-name="Trazado 20387" d="M2929.476,833.694l-36.07,36.07v42.608h19.53a6.956,6.956,0,0,1,1.541-7.067l30.345-30.345,53.621-53.621,8.04-8.04h-56.611Z" transform="translate(-2888.382 -809.326)" fill="#fff" opacity="0.4"/>
            <path id="Trazado_20388" data-name="Trazado 20388" d="M3424.443,951.97a12.539,12.539,0,0,1,.095,1.511v9.4h27.5l14.653-14.653,28.949-28.949v-38.5l-21.86,21.86Z" transform="translate(-3285.853 -859.833)" fill="#fff" opacity="0.2"/>
            <path id="Trazado_20389" data-name="Trazado 20389" d="M2893.406,848.658l17.86-17.86,17.5-17.5h-35.36Z" transform="translate(-2888.382 -809.326)" fill="#fff" opacity="0.4"/>
            <g id="Grupo_10574" data-name="Grupo 10574" transform="translate(74.759 80.71)">
              <path id="Trazado_20390" data-name="Trazado 20390" d="M3222.6,1118.395h-39.212a12.849,12.849,0,0,0-12.728,12.938v9.4h1.484v-9.4a11.363,11.363,0,0,1,11.244-11.454H3222.6a11.364,11.364,0,0,1,11.244,11.454v9.4h1.484v-9.4A12.849,12.849,0,0,0,3222.6,1118.395Z" transform="translate(-3170.66 -1118.395)" fill="#fff"/>
            </g>
          </g>
          <rect id="Rectángulo_2339" data-name="Rectángulo 2339" width="214.482" height="7.375" transform="translate(9.783 112.342)" fill="#128397"/>
        </g>
        <g id="Grupo_10581" data-name="Grupo 10581" transform="translate(212.395 23.877)">
          <path id="Trazado_20391" data-name="Trazado 20391" d="M1276.6,995.277c-1.206-6.783-12.665-10.6-16.211-4.694-2.436,4.06.191,9.3,1.4,13.351,3.769,12.633,4.533,16.971,8.426,29.563,1.9,6.132,7.967,22.116,10.137,28.156.783,2.18,5.868.756,5.681-1.216C1284.283,1041.938,1280.434,1017.083,1276.6,995.277Z" transform="translate(-1213.915 -953.744)" fill="#21ada4"/>
          <path id="Trazado_20392" data-name="Trazado 20392" d="M1295.327,1080.961a44.425,44.425,0,0,1-7.153,7.752c-.443.368-.9.721-1.359,1.068,1.048,3.849,2.168,7.854,3.928,13.548,1.629,5.269,7.025,19.681,9.7,26.938-.149-3.176,1.166,1.6.957-1.576C1301.109,1124.311,1297.007,1105.614,1295.327,1080.961Z" transform="translate(-1234.442 -1023.575)" opacity="0.08"/>
          <path id="Trazado_20393" data-name="Trazado 20393" d="M1345.582,1263.509a4.109,4.109,0,0,0-1.61-.185c-1.443.13-3.6.832-4.412,2.12-.049.079-.1.152-.155.221.319.869.6,1.645.838,2.3.783,2.18,5.868.756,5.681-1.216C1345.823,1265.7,1345.708,1264.614,1345.582,1263.509Z" transform="translate(-1273.804 -1160.058)" fill="#dfe6e9"/>
          <g id="Grupo_10577" data-name="Grupo 10577" transform="translate(15.375)">
            <path id="Trazado_20394" data-name="Trazado 20394" d="M1268.381,1299.622c0-17.969-.819-35.938-.726-53.907-.014-8.834-10.235-14.259-17.5-9.105-7.074,5.018-4.018,13.748-2.818,20.777,2.714,15.9,5.458,31.836,7.417,47.842,1.145,9.351,3.712,36.225,4.123,40.28.3,2.951,2.708,5.714,5.932,4.1,2.978-1.493,1.922.384,1.96-2.338C1266.831,1342.85,1268.381,1309.122,1268.381,1299.622Z" transform="translate(-1219 -1138.576)" fill="#0d4c5f"/>
            <path id="Trazado_20395" data-name="Trazado 20395" d="M1182.119,1234.92a11.122,11.122,0,0,0-8.015,5.654c-1.321,2.433-1.339,4.959-1.329,7.632.06,15.862-2.8,77.874-3.184,86.1q-.216,4.657-.431,9.314c-.062,1.329-.325,2.878.208,4.139a4.085,4.085,0,0,0,7.2.516c1.285-2.135,1.15-5.618,1.517-8.01q1.8-11.73,3.919-23.409c1.052-5.735,2.673-12.019,3.72-17.4,1.966-8.45,3.093-17.139,4.539-25.689q2.2-13.019,4.446-26.031A11.162,11.162,0,0,0,1182.119,1234.92Z" transform="translate(-1161.666 -1138.713)" fill="#0d4c5f"/>
            <path id="Trazado_20396" data-name="Trazado 20396" d="M1184.9,1229.513s-.473,7.966-.677,10.628c-.452,5.888,10.179,10.669,18.781,11.45h0c8.6.781,18.371-1.311,18.646-7.21.222-4.74-.776-14.941-.776-14.941Z" transform="translate(-1173.02 -1134.709)" fill="#0d4c5f"/>
            <path id="Trazado_20397" data-name="Trazado 20397" d="M1312.911,1681.087c-3.163-.321-10.533-4.262-10.533-4.262l-7.352-.006c-2.07,8.579-.009,8.5-.009,8.5l21.906.023S1317.818,1681.585,1312.911,1681.087Z" transform="translate(-1255.272 -1469.563)" fill="#0c2d48"/>
            <path id="Trazado_20398" data-name="Trazado 20398" d="M1178.3,1681.36c-1.006-.022-4.749-4.278-4.749-4.278l-7.735-.008c-2.484,6.6-.009,8.5-.009,8.5l17.093.042S1183.95,1681.484,1178.3,1681.36Z" transform="translate(-1158.427 -1469.754)" fill="#0c2d48"/>
            <path id="Trazado_20399" data-name="Trazado 20399" d="M1203.222,990.486c1.442-6.711-4.993-14.329-20.752-13.051-31.284,2.536-18.5,25.769-17.7,29.826,3.323,16.763,3.153,16.692,2.449,42.689,0,0,12.281.923,20.181.335,7.661-.57,17.259-1.786,17.259-1.786s-2.426-20.477-3.805-44.075C1200.633,1000.546,1202.175,995.36,1203.222,990.486Z" transform="translate(-1156.033 -945.982)" fill="#21ada4"/>
            <path id="Trazado_20400" data-name="Trazado 20400" d="M1170.582,1073.014a30.119,30.119,0,0,1,.979,2.978c1.738,8.766,2.52,12.93,2.771,18.623l0-.013c.625-2.711,6.152-23.513,6.279-25.481-2.682.024-7.51,2.79-9.96,3.866C1170.63,1073,1170.606,1073,1170.582,1073.014Z" transform="translate(-1162.819 -1014.713)" opacity="0.08"/>
            <path id="Trazado_20401" data-name="Trazado 20401" d="M1228.1,937.451c.3,4.125-1.529,8.569.886,11.167a5.579,5.579,0,0,0,9.257-1.969c.978-2.987-1.052-7.023-1.986-9.807C1234.787,932.469,1227.806,933.435,1228.1,937.451Z" transform="translate(-1205.579 -913.558)" fill="#a87551"/>
            <path id="Trazado_20402" data-name="Trazado 20402" d="M1203.583,865.644c-3.874,4.373,5.1,20.566,5.1,20.566s3.373,3.11,10.569,3c8.205-.122,2.519-23.963,2.519-23.963S1206.606,862.23,1203.583,865.644Z" transform="translate(-1186.793 -861.197)" fill="#b37d57"/>
            <path id="Trazado_20403" data-name="Trazado 20403" d="M1237.717,915.162c2.041,3.439,1.343,8.064-1.117,9.529a14.544,14.544,0,0,0,7.915,1.769c3.992-.06,5.114-5.5,4.513-12.256C1248.806,914.142,1247.542,911.993,1237.717,915.162Z" transform="translate(-1212.232 -898.185)" fill="#fff"/>
            <path id="Trazado_20404" data-name="Trazado 20404" d="M1243.172,920.636c1.6,3.666.439,7.73-1.7,9.007a12.228,12.228,0,0,0,6.69,1.17c4.5-.6,5.056-4.789,4.533-10.676C1252.5,920.083,1251.73,917.876,1243.172,920.636Z" transform="translate(-1215.876 -902.538)" fill="#98ddeb"/>
            <path id="Trazado_20405" data-name="Trazado 20405" d="M1206.913,852.927c-4.414.693-8.242,3.482-8.787,9.671a16.236,16.236,0,0,0,8.082,15.9,12.135,12.135,0,0,1-.456-5.2c-1.814-.117-2.558-3-2.165-4.9.294-1.425,3.095.016,3.095.016l1.476-.894a14.607,14.607,0,0,1-.776-3.31c-.122-1.546,1.758-2.127,8.249-2.637s4.1-6.892,4.1-6.892C1217.511,854.7,1211.327,852.234,1206.913,852.927Z" transform="translate(-1183.377 -852.804)" fill="#0c2d48"/>
            <path id="Trazado_20406" data-name="Trazado 20406" d="M1221.978,967.749l-2.111,3.379c1.538,5.142,7.994,6.815,7.994,6.815l1.709-2.825A17.73,17.73,0,0,1,1221.978,967.749Z" transform="translate(-1199.708 -938.838)" fill="#dfe6e9"/>
            <path id="Trazado_20407" data-name="Trazado 20407" d="M1258.443,974.99l2.313,2.027a10.368,10.368,0,0,0,2.529-6.681l-2.143-2.8S1261.236,972.376,1258.443,974.99Z" transform="translate(-1228.582 -938.679)" fill="#dfe6e9"/>
            <path id="Trazado_20408" data-name="Trazado 20408" d="M1150.909,1000.586c-2.545,1.225-4.056,2.273-4.934,4.82a146.542,146.542,0,0,0-3.758,15.149c-1.739,9.445-2.79,17.063-2.428,26.656.258,6.829,2.6,17.3,3.4,24.086.228,1.93,6.057,1.861,6.27-.743.471-5.745,0-11.661.27-17.435a115.173,115.173,0,0,1,1.449-15.1c1.567-8.7,5.222-17.675,8.393-26.077C1161.881,1005.793,1156.9,997.7,1150.909,1000.586Z" transform="translate(-1139.718 -962.966)" fill="#21ada4"/>
            <path id="Trazado_20409" data-name="Trazado 20409" d="M1152.167,1268.79c.132.9.25,1.755.344,2.559.228,1.93,6.057,1.861,6.271-.742.081-.99.133-1.986.167-2.985C1156.978,1266.784,1153.7,1267.517,1152.167,1268.79Z" transform="translate(-1149.036 -1163.019)" fill="#dfe6e9"/>
          </g>
          <g id="Grupo_10580" data-name="Grupo 10580" transform="translate(0 107.299)">
            <g id="Grupo_10579" data-name="Grupo 10579" transform="translate(0 7.663)">
              <rect id="Rectángulo_2340" data-name="Rectángulo 2340" width="44.468" height="32.731" rx="8.965" transform="translate(0.436 7.768)" fill="#4f4a49"/>
              <path id="Trazado_20410" data-name="Trazado 20410" d="M1121.664,1336.351h-40.812a2.264,2.264,0,0,0-2.264,2.264v5.419a9.135,9.135,0,0,0,9.135,9.135h27.07a9.135,9.135,0,0,0,9.135-9.135v-5.419A2.264,2.264,0,0,0,1121.664,1336.351Z" transform="translate(-1078.588 -1329.691)" fill="#403c3b"/>
              <rect id="Rectángulo_2341" data-name="Rectángulo 2341" width="9.591" height="2.618" transform="translate(17.874 21.516)" fill="#fbc500"/>
              <g id="Grupo_10578" data-name="Grupo 10578" transform="translate(15.394)">
                <path id="Trazado_20411" data-name="Trazado 20411" d="M1150.241,1309.874h-6.349a4.25,4.25,0,0,0-4.1,4.374v2.528h2.2v-2.528a1.966,1.966,0,0,1,1.9-2.024h6.349a1.966,1.966,0,0,1,1.9,2.024v2.528h2.2v-2.528A4.249,4.249,0,0,0,1150.241,1309.874Z" transform="translate(-1139.79 -1309.874)" fill="#403c3b"/>
              </g>
            </g>
            <path id="Trazado_20412" data-name="Trazado 20412" d="M1153.435,1279.882c-1.211-1.007-5.26-.205-6.089.447-.345.271-3.086,7-1.952,8.25,1.662,1.839,1.389,1.81,3.424,2.155s5.144-.336,5.655-1.3a8.969,8.969,0,0,0-1.326-.4s-.573-2.157,1.614-1.927a2.378,2.378,0,0,1,1.839.863,4.987,4.987,0,0,0-.735-4C1155.474,1283.292,1153.675,1280.083,1153.435,1279.882Z" transform="translate(-1128.386 -1279.405)" fill="#b37d57"/>
          </g>
          <path id="Trazado_20413" data-name="Trazado 20413" d="M1352.6,1281.387c-.544-1.055-1.05-2.232-1.764-3.556a14.772,14.772,0,0,0-1.656-2.35c-1.2-.9-4.382-.068-4.489,1.435,0,0-.7,3.827.781,5.8s8.033,4.786,8.226,6.332a20.106,20.106,0,0,0,.5-4.306A17.246,17.246,0,0,0,1352.6,1281.387Z" transform="translate(-1277.637 -1168.891)" fill="#b37d57"/>
          <path id="Trazado_20414" data-name="Trazado 20414" d="M1339.374,1289.818a1.041,1.041,0,0,0-1.471.071l-1.6,6.753a2.139,2.139,0,0,0,.75,2.088l9.232,8.383a1.041,1.041,0,0,0,1.471-.071l1.6-6.753a2.181,2.181,0,0,0-.582-1.935Z" transform="translate(-1271.444 -1179.698)" fill="#2f4c52"/>
          <path id="Trazado_20415" data-name="Trazado 20415" d="M1350.225,1288.685c1.353-.435-4.039-6.646-5.071-5.454,0,0-1.141.864.616,4.726.76,1.672,2.15,3.306,2.733,4.932.753,2.1,2.03,2.561,2.416,1.744C1350.92,1294.634,1349.148,1289.031,1350.225,1288.685Z" transform="translate(-1277.834 -1174.857)" fill="#b37d57"/>
          <path id="Trazado_20416" data-name="Trazado 20416" d="M1229.6,913.626l3.279,2.161.941-.611-3.555-1.55Z" transform="translate(-1191.62 -898.328)" fill="#fff"/>
          <path id="Trazado_20417" data-name="Trazado 20417" d="M1226.746,933.676s.679,4.076,2.466,6.163l1.237-.3a17.893,17.893,0,0,1-3.218-5.715Z" transform="translate(-1189.481 -913.335)" fill="#fff"/>
        </g>
        <g id="Grupo_10585" data-name="Grupo 10585" transform="translate(0 35.67)">
          <path id="Trazado_20418" data-name="Trazado 20418" d="M484.553,1287.582a7.22,7.22,0,0,0-1.389,4.183c-.116,2.7.169,6.348.089,7.48l-.08,1.132s1.672.98,1.922-1.735.155-4.3.9-2.963a8.586,8.586,0,0,1,1.229,3.349,29.746,29.746,0,0,1-.193,4.838s-.3,1.78,1.117,1.858c0,0,1.89-5.207,2.225-6.9s-.345-8.171-1.55-10.677C488.325,1287.119,487.229,1285.663,484.553,1287.582Z" transform="translate(-420.51 -1189.318)" fill="#8e684e"/>
          <g id="Grupo_10584" data-name="Grupo 10584" transform="translate(0 29.727)">
            <path id="Trazado_20419" data-name="Trazado 20419" d="M465.971,1190.576l0-.019h0l-.009-.027.006.026c.008.032.022.108.014.067Z" transform="translate(-407.653 -1147.105)" fill="#8e684e"/>
            <path id="Trazado_20420" data-name="Trazado 20420" d="M465.961,1190.451h0v0Z" transform="translate(-407.646 -1147)" fill="#8e684e"/>
            <path id="Trazado_20421" data-name="Trazado 20421" d="M442.17,1120.046q-1.341-3.775-2.734-7.531c-.916-2.478-.918-4.945-1.7-7.469,0,.049-.7-16.886-.15-25.256-2.727-.062-5.452-.214-8.173-.406l-.969-.07a2.59,2.59,0,0,0-.553-.041c-.32.074-.17-.183-.3.207a8.752,8.752,0,0,0-.185,1.8q-.177,1.833-.314,3.668a120.866,120.866,0,0,0-.239,15.92c.107,1.827.348,4.067.577,5.689a21,21,0,0,0,1.7,4.4c1.314,2.85,2.724,5.656,4.164,8.445,2.662,5.156,5.946,10.3,9.073,15.192.644,1.007,1.163,1.67,2.4,1.308a2.444,2.444,0,0,0,1.639-3.008C445.14,1128.565,443.678,1124.295,442.17,1120.046Z" transform="translate(-378.258 -1063.82)" fill="#8e684e"/>
            <path id="Trazado_20422" data-name="Trazado 20422" d="M465.994,1190.636h0Z" transform="translate(-407.679 -1147.185)" fill="#8e684e"/>
            <path id="Trazado_20423" data-name="Trazado 20423" d="M466.026,1190.773l-.006-.064-.024-.068v0h0c.017.094.045.255.039.219Z" transform="translate(-407.679 -1147.185)" fill="#8e684e"/>
            <path id="Trazado_20424" data-name="Trazado 20424" d="M289.485,1219.554a10.243,10.243,0,0,0-14.024,10.219c.139,1.617.672,3.208.945,4.809.386,2.261.659,4.54.873,6.823a138.126,138.126,0,0,1,.511,14.465c-.054,4.794-.386,9.579-.834,14.351-.208,2.216-.486,4.422-.762,6.63-.214,1.722-.219,4.008-.9,5.6-.821,1.906-6.982,14.662-12.115,25.825-3.256,7.081-5.657,14.517-8.355,21.828a2.6,2.6,0,0,0,2.77,3.439c2.206-.308,3.553-2.794,4.422-4.409,2.216-4.123,25.075-39.93,25.629-41.64.619-1.908,1.212-3.83,1.788-5.752,1.362-4.543,2.173-9.274,3.176-13.909a170.173,170.173,0,0,0,3.289-28.761C296.179,1232.278,297.115,1222.75,289.485,1219.554Z" transform="translate(-249.504 -1168.254)" fill="#8e684e"/>
            <path id="Trazado_20425" data-name="Trazado 20425" d="M398.508,1260.053Z" transform="translate(-356.132 -1198.415)" fill="#8e684e"/>
            <path id="Trazado_20426" data-name="Trazado 20426" d="M415.268,1292.581c-2.311-8.864-5.888-20.973-9.542-29.373-1.357-3.12-3.126-5.78-6.418-7.11a10.6,10.6,0,0,0-13.012,15.37c2.079,3.395,4.407,6.627,6.421,10.072,4.765,8.151,8.147,17.532,12.939,29.836a14.21,14.21,0,0,1,.66,4.5c.53,12.754,6.3,31.846,8.4,41.032.427,1.87.736,3.834,1.308,5.668,1.027,3.29,6.374,1.412,6.265-1.943-.226-6.953-3.673-45.773-4.074-50.077C417.292,1300.636,416.814,1298.509,415.268,1292.581Z" transform="translate(-346.862 -1195.61)" fill="#8e684e"/>
            <path id="Trazado_20427" data-name="Trazado 20427" d="M337.953,1196.638l.048-.209c-8.956-.674-17.315-1.4-26.279-2.874-.072.263-1.314,6.745-2.693,9.4-4.249,8.186-11.224,65.99-11.224,65.99s7.272,6.825,27.761,5.313c9.459-.7,30.913-4.77,30.913-4.77s-3.191-14.115-7.589-30.023C343.983,1221.719,337.818,1201.742,337.953,1196.638Z" transform="translate(-281.793 -1149.37)" fill="#f25512"/>
            <path id="Trazado_20428" data-name="Trazado 20428" d="M523.466,1665.311c-3.571.995-9.86-1.822-11.226-4.217l-7.473,1.437a28.207,28.207,0,0,0,1.822,11.123s4.445,0,6.608-1.279,10.971-1.507,14.327-6.086C527.523,1666.289,527.037,1664.316,523.466,1665.311Z" transform="translate(-436.67 -1499.313)" fill="#81a1b9"/>
            <path id="Trazado_20429" data-name="Trazado 20429" d="M528.4,1676.757c-5.4,3.707-12.5,5.588-18.857,6.039a4.287,4.287,0,0,1-.577,0c.22.821.479,1.68.8,2.581,0,0,4.445,0,6.608-1.279s10.971-1.507,14.327-6.086C530.693,1678.012,530.375,1676.74,528.4,1676.757Z" transform="translate(-439.84 -1511.037)" fill="#0d4c5f"/>
            <path id="Trazado_20430" data-name="Trazado 20430" d="M252.192,1660.425c-3.532-.864-3.788-1.785-4.763-3.392a5.852,5.852,0,0,1-.714-4.948l-6.511-3.023a27.921,27.921,0,0,0-6.06,8.435,25.749,25.749,0,0,0,11.231,6.347c2.312.533,3.5.694,8.81-.024C254.184,1663.821,255.589,1661.256,252.192,1660.425Z" transform="translate(-234.143 -1490.307)" fill="#81a1b9"/>
            <path id="Trazado_20431" data-name="Trazado 20431" d="M254.4,1682.932c-6.656.746-12.957-1.432-18.454-5.116a3.563,3.563,0,0,1-1.027-1.035c-.26.466-.521.948-.78,1.464a25.747,25.747,0,0,0,11.231,6.347c2.312.533,3.5.694,8.81-.024a2.585,2.585,0,0,0,.234-1.638Z" transform="translate(-234.143 -1511.054)" fill="#0d4c5f"/>
            <g id="Grupo_10582" data-name="Grupo 10582" transform="translate(25.443)">
              <path id="Trazado_20432" data-name="Trazado 20432" d="M365,1021.1c-2.319-1.075-5.667-3.01-8.84-3.186a28.327,28.327,0,0,0-10.289,1.669c-11.666,3.874-9.4,11.138-8.291,17.917,3.653,22.409-2.283,37.748-2.283,37.748s12.7,5.39,33.345,1.484c0,0-1.91-9.089-1.863-11.576.134-7.166,2.313-28.126,2.313-28.126C370.1,1030.559,370.69,1023.731,365,1021.1Z" transform="translate(-335.301 -1017.881)" fill="#fbc500"/>
              <path id="Trazado_20433" data-name="Trazado 20433" d="M393.735,1069.866l.014,0-5.283-15.148-1.076,9.518-17.789-.478a5.917,5.917,0,0,0-5.9,5.9l-.014.494a5.879,5.879,0,0,0,5.547,6.206l18.346.493a6.1,6.1,0,0,0,6.254-6.792S393.8,1069.985,393.735,1069.866Z" transform="translate(-356.542 -1045.45)" fill="#fbc500"/>
            </g>
            <path id="Trazado_20434" data-name="Trazado 20434" d="M373.474,1023.517l-2.722.824s5.221-1.468,5.718,10.579,1.247,20.965,1.247,20.965h2.666s-.841-21.4-2.4-27.768C376.859,1023.548,373.474,1023.517,373.474,1023.517Z" transform="translate(-336.392 -1022.099)" fill="#403c3b"/>
            <path id="Trazado_20435" data-name="Trazado 20435" d="M337.554,1155.348a3.323,3.323,0,0,0-3.318-3.144H312.585a2.6,2.6,0,0,0-2.6,2.458l-.765,13.737a4.041,4.041,0,0,0,4.036,4.252h20.966a4.041,4.041,0,0,0,4.035-4.259Z" transform="translate(-290.333 -1118.419)" fill="#403c3b"/>
            <path id="Trazado_20436" data-name="Trazado 20436" d="M337.408,1187.73c-.511.106-1.1.178-1.731.273l-.99.145c-.343.045-.692.12-1.059.15-.73.078-1.5.158-2.293.255-.8.074-1.622.11-2.458.184-.837.053-1.689.063-2.541.1-.851,0-1.7.009-2.541-.01-.836-.051-1.664-.039-2.458-.121l-1.173-.089-1.12-.122-.539-.059-.52-.076-.989-.14c-.628-.118-1.211-.2-1.719-.317s-.953-.208-1.318-.293-.65-.164-.841-.224-.3-.09-.3-.09.387.189,1.093.456c.356.124.786.284,1.292.428.5.162,1.078.3,1.706.461l.988.212.522.107.542.088,1.129.181,1.186.133.609.067.62.043c.416.028.837.056,1.262.078.85.027,1.715.031,2.579.036.863-.042,1.727-.062,2.575-.124s1.68-.157,2.483-.251c.8-.116,1.573-.241,2.3-.358s1.412-.292,2.044-.425,1.209-.261,1.712-.416l1.305-.375,1.131-.341-1.166.2Z" transform="translate(-293.033 -1144.683)" fill="#0c2d48"/>
            <g id="Grupo_10583" data-name="Grupo 10583" transform="translate(12.676 2.767)">
              <path id="Trazado_20437" data-name="Trazado 20437" d="M314.931,1084.312c-2.441-1.507-17.089-10.965-20.62-15.086a161.851,161.851,0,0,1,12.178-22.746c1.376-2.093,3.271-4.059,3.077-6.845a4.425,4.425,0,0,0-5.637-3.88c-2.445.542-4.188,2.911-5.593,4.781a90.812,90.812,0,0,0-5.719,9.447,76.5,76.5,0,0,0-7.743,19.478,3.88,3.88,0,0,0-.2,2.578,3.939,3.939,0,0,0,1.233,2.085,25.351,25.351,0,0,0,3.7,3.068,73.581,73.581,0,0,0,7.6,4.936c4.689,2.7,8.62,3.721,13.6,5.83a2.24,2.24,0,0,0,3.027-1.547C314.084,1085.284,315.84,1084.873,314.931,1084.312Z" transform="translate(-284.54 -1033.93)" fill="#8e684e"/>
              <path id="Trazado_20438" data-name="Trazado 20438" d="M322.287,1028.958a11.7,11.7,0,0,0-6.515,3.827c-2.164,2.879-5.78,8.534-7.571,11.663-.867,1.514-1.7,3.07-2.486,4.656,2.831,1.6,6.841,4.38,9.841,5.645,2.351-4.457,5.227-10.184,8.066-13.355,1.671-1.866,3.271-4.06,3.078-6.845C326.505,1031.737,325.1,1028.334,322.287,1028.958Z" transform="translate(-300.389 -1028.883)" fill="#fbc500"/>
              <rect id="Rectángulo_2342" data-name="Rectángulo 2342" width="16.608" height="6.401" rx="3.2" transform="translate(30.684 59.348) rotate(-66.791)" fill="#0c2d48"/>
              <path id="Trazado_20439" data-name="Trazado 20439" d="M404.5,1226.41a1.472,1.472,0,0,1-.881.348,22.831,22.831,0,0,1-5.07-.833.619.619,0,0,1-.468-.87l.322-.7a17.342,17.342,0,0,0-2.63-.262,36.329,36.329,0,0,0-3.647.937l-2.151,4.124a41.277,41.277,0,0,0,5.043,3.708c2.416,1.242,6.807,1.323,6.807,1.323a1.3,1.3,0,0,0,.983-.512.942.942,0,0,0,.082-1.182.971.971,0,0,0,.892-.693,1.416,1.416,0,0,0-.016-1.187s.7-.434.81-.931c.18-.842-.064-1.031-.064-1.031a1.636,1.636,0,0,0,.571-.612A1.263,1.263,0,0,0,404.5,1226.41Z" transform="translate(-363.457 -1174.984)" fill="#8e684e"/>
            </g>
          </g>
          <path id="Trazado_20440" data-name="Trazado 20440" d="M365.447,903.474c-2.7,1.965-5.924,18.718,7.846,22.331,4.466,1.172,8.51-6.855,8.51-6.855a14.857,14.857,0,0,0,3.5-8.408C385.7,903.244,377.685,894.567,365.447,903.474Z" transform="translate(-330.639 -899.693)" fill="#0c2d48"/>
          <path id="Trazado_20441" data-name="Trazado 20441" d="M399.137,974.781c-.984,3.331-1.814,9.088-1.55,10.088,1.28,4.844,10.979,7.6,9.457.813-.679-3.027.151-6.638.367-9.774C407.794,971.888,400.188,971.222,399.137,974.781Z" transform="translate(-356.44 -954.16)" fill="#825f47"/>
          <path id="Trazado_20442" data-name="Trazado 20442" d="M392.885,940.945c-2.855.011-3.419,5.673-2.789,8.457.569,2.516,1.558,5.352,3.255,6.9,3.5,3.19,9.125,2.812,11.112-.017,3.089-4.4-.458-15.849-.458-15.849A88.919,88.919,0,0,1,392.885,940.945Z" transform="translate(-350.697 -930.186)" fill="#8e684e"/>
          <path id="Trazado_20443" data-name="Trazado 20443" d="M408.861,966.472c-1.411.143-5.149,1.1-6.591.92.439,2.86-.225,6.689-1.688,7.448a6.513,6.513,0,0,0,.792.879c3.5,3.19,9.125,2.812,11.112-.017,1.489-2.12,1.436-5.878.982-9.2A31.565,31.565,0,0,0,408.861,966.472Z" transform="translate(-358.719 -949.607)" fill="#fff"/>
          <path id="Trazado_20444" data-name="Trazado 20444" d="M411.781,971.779c-1.248.127-4.554.975-5.83.814-.172,2.071-.394,6.226-2.223,7.1a7.862,7.862,0,0,0,1.336.991c3.108,2.067,8.165,1.756,9.922-.745,1.317-1.875,1.432-5.209,1.03-8.15A30.26,30.26,0,0,0,411.781,971.779Z" transform="translate(-361.074 -953.585)" fill="#98ddeb"/>
          <path id="Trazado_20445" data-name="Trazado 20445" d="M344.877,912.5c-3.2,5.043,2.039,17.057,6.4,12.4s1.56-14.558,1.56-14.558A5.722,5.722,0,0,0,344.877,912.5Z" transform="translate(-316.288 -907.048)" fill="#0c2d48"/>
          <path id="Trazado_20446" data-name="Trazado 20446" d="M378.454,960.463c.046,2.846,1.757,4.574,3.918,4.252s-1.047-4.818-1.047-4.818S378.408,957.617,378.454,960.463Z" transform="translate(-342.157 -944.108)" fill="#8e684e"/>
          <path id="Trazado_20447" data-name="Trazado 20447" d="M387.731,960.177l6.1,3.372,1.572-.34L388.4,959.75Z" transform="translate(-349.1 -944.644)" fill="#fff"/>
          <path id="Trazado_20448" data-name="Trazado 20448" d="M389.212,981.458s1.811,3.729,2.859,4.668l.606-.507a19.977,19.977,0,0,1-2.705-4.08Z" transform="translate(-350.209 -960.892)" fill="#fff"/>
        </g>
        <g id="Grupo_10587" data-name="Grupo 10587" transform="translate(664.362 27.256)">
          <path id="Trazado_20449" data-name="Trazado 20449" d="M3094.71,1039.136l16.24,5.691,13.484-22.359-16.24-5.691Z" transform="translate(-3039.582 -978.914)" fill="#fff"/>
          <path id="Trazado_20450" data-name="Trazado 20450" d="M3147.657,1026.612l12.874,4.511.792-1.383-12.873-4.511Z" transform="translate(-3079.212 -985.241)" fill="#d3dde3" style="mix-blend-mode: multiply;isolation: isolate"/>
          <path id="Trazado_20451" data-name="Trazado 20451" d="M3135.328,1047.3l12.805,4.621.792-1.383-12.805-4.62Z" transform="translate(-3069.983 -1000.723)" fill="#d3dde3" style="mix-blend-mode: multiply;isolation: isolate"/>
          <path id="Trazado_20452" data-name="Trazado 20452" d="M3115.528,1080.651l12.713,4.726.792-1.382-12.713-4.726Z" transform="translate(-3055.164 -1025.687)" fill="#d3dde3" style="mix-blend-mode: multiply;isolation: isolate"/>
          <path id="Trazado_20453" data-name="Trazado 20453" d="M3131.732,1054.947l12.848,4.423.4-.691-12.848-4.423Z" transform="translate(-3067.292 -1006.966)" fill="#d3dde3" style="mix-blend-mode: multiply;isolation: isolate"/>
          <path id="Trazado_20454" data-name="Trazado 20454" d="M3127.97,1060.884l12.836,4.452.4-.691-12.836-4.452Z" transform="translate(-3064.477 -1011.41)" fill="#d3dde3" style="mix-blend-mode: multiply;isolation: isolate"/>
          <path id="Trazado_20455" data-name="Trazado 20455" d="M3144.008,1034.5l12.873,4.512.4-.691-12.873-4.511Z" transform="translate(-3076.48 -991.663)" fill="#d3dde3" style="mix-blend-mode: multiply;isolation: isolate"/>
          <g id="Grupo_10586" data-name="Grupo 10586">
            <path id="Trazado_20456" data-name="Trazado 20456" d="M2900.731,1041.728a15.992,15.992,0,0,0-3.644-.087,45.626,45.626,0,0,1-9.993-1.043,94.4,94.4,0,0,1,5.679-14.669c1.963-4.377,4.034-8.706,6.173-13a31.1,31.1,0,0,0,1.977-4.112,7.283,7.283,0,0,0-9.812-8.926c-3.408,1.468-5.55,5.254-6.733,8.425-1.7,4.563-2.079,8.9-3.593,13.529a124.5,124.5,0,0,0-4.11,14.737c-.764,3.908-2.715,9.4,1.343,11.845,3.171,1.909,8.7,1.71,12.234,1.393a68.546,68.546,0,0,0,7.022-1.033c1.623-.317,3.963-.431,5.107-1.783a3.272,3.272,0,0,0-1.649-5.275Z" transform="translate(-2875.53 -965.84)" fill="#f25512"/>
            <path id="Trazado_20457" data-name="Trazado 20457" d="M2913.544,1048.041a16,16,0,0,0-3.644-.087,45.63,45.63,0,0,1-9.994-1.043,94.451,94.451,0,0,1,5.679-14.669c1.963-4.377,4.034-8.706,6.173-13a31.113,31.113,0,0,0,1.977-4.112,7.321,7.321,0,0,0-.4-5.451,7.082,7.082,0,0,0-1.4-1.934,30.165,30.165,0,0,1-3.977,7.692c-2.17,5.408-4.5,10.755-6.4,16.266-.289,1.267-.647,2.514-1.048,3.748-.044,3.141-5.015,15.65-6.532,17.959a6.409,6.409,0,0,1-1.334,2.129c3.191,1.032,7.486.855,10.415.592a68.651,68.651,0,0,0,7.021-1.033c1.623-.317,3.963-.431,5.107-1.783a3.272,3.272,0,0,0-1.649-5.275Z" transform="translate(-2888.343 -972.154)" fill="#d94c10"/>
            <path id="Trazado_20458" data-name="Trazado 20458" d="M2963.485,881.737c-3.973,3.909,3.507,19.906,3.507,19.906s3.007,3.18,9.862,3.549c7.817.421,3.965-22.641,3.965-22.641S2966.586,878.686,2963.485,881.737Z" transform="translate(-2940.492 -876.961)" fill="#e8aa85"/>
            <path id="Trazado_20459" data-name="Trazado 20459" d="M3021.4,925.007c1.3,3.626.861,6.035-2.252,9.11a26.955,26.955,0,0,1,1.125,4.03c4.748.066,4.207-7.683,3.982-13.461C3022.933,924.631,3021.314,924.763,3021.4,925.007Z" transform="translate(-2983.026 -909.976)" fill="#fff"/>
            <path id="Trazado_20460" data-name="Trazado 20460" d="M3025.58,929.431a8.282,8.282,0,0,1-2.281,8.958,19.9,19.9,0,0,1,.92,3.149c3.93-.569,3.36-7.544,3.178-12.172C3026.337,929.321,3025.506,929.237,3025.58,929.431Z" transform="translate(-2986.132 -913.445)" fill="#98ddeb"/>
            <path id="Trazado_20461" data-name="Trazado 20461" d="M2983.417,960.46c-.039-.183-.086-.457-.143-.786-.109-.663-.234-1.576-.336-2.5s-.186-1.869-.242-2.573-.085-1.163-.085-1.163l-.007-.11a3.874,3.874,0,0,0-3.337-3.24c-2.38-.489-4.8.662-5.414,2.57,0,0-.156.49-.391,1.225s-.525,1.7-.8,2.689-.534,1.992-.71,2.768c-.087.39-.158.717-.2.953l-.073.368-.024.116a3.86,3.86,0,0,0,.006,1.472c.514,2.617,3.577,4.4,6.84,3.991s5.491-2.868,4.977-5.485Z" transform="translate(-2947.425 -928.911)" fill="#e8aa85"/>
            <path id="Trazado_20462" data-name="Trazado 20462" d="M2975.752,868.076c-2.968-1.007-6.92-2.663-13.14-1.352-3.278.691-6.155,5.028-6.48,9.553-.627,8.72,3.244,14.746,5.292,16.31,1.826,1.4,6.53.755,6.53.755s3.391-7.3,2.261-8.544-.365-5.315.925-5.227a2.689,2.689,0,0,1,1.7.515s1.157-4.248,3.754-4.883a2.441,2.441,0,0,0,1.493-1.28A4.1,4.1,0,0,0,2975.752,868.076Z" transform="translate(-2935.808 -866.24)" fill="#0c2d48"/>
            <path id="Trazado_20463" data-name="Trazado 20463" d="M3003.095,1263.038c-.2-5.736-.377-11.473-.564-17.209a10.866,10.866,0,1,0-21.515,2.485c.644,3.39,1.331,6.772,1.982,10.16,1.144,5.96,5.065,21.921,8.351,39.374.475,2.525.555,14.75.994,18.209,1.154,9.088,2.247,17.437,3.253,26.543.162,1.464.293,2.934.472,4.4a4.068,4.068,0,0,0,2.308,3.282,4.019,4.019,0,0,0,4.6-.942,4.636,4.636,0,0,0,1.033-3.357c-.021-8.486.025-16.971.069-25.456.05-9.626.653-19.25.412-28.874C3004.252,1282.111,3003.429,1272.573,3003.095,1263.038Z" transform="translate(-2954.336 -1142.485)" fill="#0f3c5f"/>
            <path id="Trazado_20464" data-name="Trazado 20464" d="M2915.61,1235.73a10.933,10.933,0,0,0-6.383,5.618,14.729,14.729,0,0,0-1.051,6.714c.032,7.8-.521,15.606-.6,23.408-.042,4.26-.3,23.773-.453,25.193-.454,4.232-1.745,12.791-2.038,17.037-.567,8.239-.935,27.976-1.1,30.759-.087,1.517-.346,3.069.556,4.419a4.01,4.01,0,0,0,6.99-.713,17.748,17.748,0,0,0,.7-3.925c.283-1.873.58-3.743.874-5.614q1.881-12,4.1-23.958c.768-4.108,1.557-8.216,2.454-12.3.237-1.079.482-2.158.748-3.231.086-.347.174-.693.261-1.04.061-.244.12-.488.183-.731.013-.052.088-.434.055-.2.239-1.694.709-3.39,1.023-5.074,2.739-14.69,5.119-29.449,7.749-44.159a10.839,10.839,0,0,0-14.071-12.2Z" transform="translate(-2896.757 -1142.398)" fill="#0f3c5f"/>
            <path id="Trazado_20465" data-name="Trazado 20465" d="M2921.888,1230.112s-.474,6.978-.675,9.588c-.443,5.773,9.99,11.292,18.424,12.057h0c8.433.766,17.872-1.737,18.4-7.5l-.451-14.213Z" transform="translate(-2909.712 -1138.537)" fill="#0f3c5f"/>
            <path id="Trazado_20466" data-name="Trazado 20466" d="M3057.417,1681.677c-3.555-.316-11.836-4.18-11.836-4.18l-8.261-.007c-2.325,8.411-.009,8.332-.009,8.332l24.615.025S3062.931,1682.166,3057.417,1681.677Z" transform="translate(-2995.851 -1473.444)" fill="#0c2d48"/>
            <path id="Trazado_20467" data-name="Trazado 20467" d="M2912.876,1681.942c-.986-.021-4.656-4.194-4.656-4.194l-7.584-.008c-2.436,6.47-.009,8.332-.009,8.332l16.758.041S2918.411,1682.063,2912.876,1681.942Z" transform="translate(-2893.51 -1473.632)" fill="#0c2d48"/>
            <path id="Trazado_20468" data-name="Trazado 20468" d="M2932.33,989.673c-8.284,0-14.925,2.056-17.377,5.806-4.086,6.249-.191,16.251.331,22.663,1.226,15.061,1.588,17.505-.427,43.306a172.79,172.79,0,0,0,19.555,1.6c7.531-.042,17.632-.587,17.632-.587s-.144-25.918.779-45.185C2953.28,1007.755,2960.94,989.669,2932.33,989.673Z" transform="translate(-2903.655 -958.627)" fill="#f25512"/>
            <path id="Trazado_20469" data-name="Trazado 20469" d="M3011.123,938.173l2.019,6.049.906-.244-2.2-5.093Z" transform="translate(-2977.018 -920.08)" fill="#fff"/>
            <path id="Trazado_20470" data-name="Trazado 20470" d="M3021.295,919.742l1.786,1.616.748-.473-2.028-1.366Z" transform="translate(-2984.632 -906.119)" fill="#fff"/>
            <path id="Trazado_20471" data-name="Trazado 20471" d="M3010.241,917.307c-1.352.22-1.985,5.172,0,6.367s2.558-4.475,2.277-5.209A2.654,2.654,0,0,0,3010.241,917.307Z" transform="translate(-2975.413 -904.446)" fill="#e8aa85"/>
          </g>
          <path id="Trazado_20472" data-name="Trazado 20472" d="M3149.653,1089.059a4.986,4.986,0,0,1-3.431,1.806.958.958,0,0,1-1.061-1.137,6.987,6.987,0,0,1,.816-2.211,1.609,1.609,0,0,0-.289-2.343,24.2,24.2,0,0,0-3.77,6.453c-1.2,3.388-.412,5.383-.412,5.383l4.306,1.85s4.329-3.965,5.292-5.177c.907-1.143.329-4.4.959-5.756a4.256,4.256,0,0,0,.339-3.23A43.8,43.8,0,0,1,3149.653,1089.059Z" transform="translate(-3074.419 -1029.751)" fill="#e8aa85"/>
          <path id="Trazado_20473" data-name="Trazado 20473" d="M3158.158,1133.37l.033.033Z" transform="translate(-3087.071 -1066.181)" fill="#f25512"/>
          <path id="Trazado_20474" data-name="Trazado 20474" d="M3155.846,1131.1l.071.07Z" transform="translate(-3085.341 -1064.481)" fill="#f25512"/>
          <path id="Trazado_20475" data-name="Trazado 20475" d="M3156.129,1131.376l.058.058Z" transform="translate(-3085.553 -1064.689)" fill="#f25512"/>
          <path id="Trazado_20476" data-name="Trazado 20476" d="M3155.828,1131.079Z" transform="translate(-3085.323 -1064.462)" fill="#f25512"/>
          <path id="Trazado_20477" data-name="Trazado 20477" d="M3156.95,1132.182l-.142-.139.142.14Z" transform="translate(-3086.061 -1065.188)" fill="#f25512"/>
          <path id="Trazado_20478" data-name="Trazado 20478" d="M3156.362,1131.6l.067.066Z" transform="translate(-3085.728 -1064.86)" fill="#f25512"/>
          <path id="Trazado_20479" data-name="Trazado 20479" d="M3156.629,1131.867l.045.044Z" transform="translate(-3085.927 -1065.056)" fill="#f25512"/>
          <path id="Trazado_20480" data-name="Trazado 20480" d="M3051.557,1038.1a3.31,3.31,0,0,0-3.251-.8c-.975.294-7.019,4.605-9.411,6.425-1.48-4.9-2.419-8.491-3.588-13.471-1.129-4.809-2.231-9.616-3.68-14.341-1-3.268-1.638-7-4.946-8.742a7.283,7.283,0,0,0-10.6,7.533,18.263,18.263,0,0,0,1.6,4.276c1.92,4.483,3.586,9.037,5.181,13.643q2.55,7.361,5.52,14.557c.758,1.839,1.533,3.761,2.325,5.546a6.907,6.907,0,0,0,3.444,3.572c4.569,2,8.683-1.942,11.41-5.146,1.5-1.763,2.88-3.626,4.2-5.528q.922-1.33,1.8-2.689a4.753,4.753,0,0,0,.971-2.268,3.3,3.3,0,0,0-.972-2.565Z" transform="translate(-2980.668 -971.107)" fill="#f25512"/>
          <path id="Trazado_20481" data-name="Trazado 20481" d="M3158.291,1133.5Z" transform="translate(-3087.171 -1066.279)" fill="#f25512"/>
          <path id="Trazado_20482" data-name="Trazado 20482" d="M3157.371,1132.6h0Z" transform="translate(-3086.482 -1065.602)" fill="#f25512"/>
          <path id="Trazado_20483" data-name="Trazado 20483" d="M3157.373,1132.6l.2.194-.2-.194Z" transform="translate(-3086.483 -1065.603)" fill="#f25512"/>
        </g>
        <g id="Grupo_10588" data-name="Grupo 10588" transform="translate(70.386 78.075)" opacity="0.8">
          <path id="Trazado_20484" data-name="Trazado 20484" d="M654.4,1072.106H522.839v-3.818l-8.854,5.737,8.854,5.735v-3.819H654.4v3.819l8.854-5.735-8.854-5.737Z" transform="translate(-513.985 -1068.287)" fill="#f25512"/>
          <path id="Trazado_20485" data-name="Trazado 20485" d="M1514.9,1077.786H1379.965v-3.818l-8.854,5.736,8.854,5.736v-3.819H1514.9v3.819l8.854-5.736-8.854-5.736Z" transform="translate(-1155.526 -1072.539)" fill="#f25512"/>
          <path id="Trazado_20486" data-name="Trazado 20486" d="M2345.189,1072.106H2210.259v-3.818l-8.854,5.737,8.854,5.735v-3.819h134.931v3.819l8.854-5.735-8.854-5.737Z" transform="translate(-1776.985 -1068.287)" fill="#f25512"/>
        </g>
        <g id="Grupo_10596" data-name="Grupo 10596" transform="translate(426.438 32.596)">
          <path id="Trazado_20487" data-name="Trazado 20487" d="M2035.223,958.332s-.688,18.778-.005,22.352l24.167-.864-1.9-20.866Z" transform="translate(-2008.423 -940.509)" fill="#5e403b"/>
          <path id="Trazado_20488" data-name="Trazado 20488" d="M2183.115,1293.575a7,7,0,0,0-1,4.159c.109,2.625.682,6.125.7,7.227l.015,1.1s1.7.811,1.716-1.835.467-5.429,1.292-4.2,1.715,3.437,1.526,4.357-.522,4.733-.522,4.733-.147,1.747,1.232,1.706c0,0,1.4-5.191,1.587-6.856s-1-7.874-2.372-10.2C2186.725,1292.819,2185.545,1291.5,2183.115,1293.575Z" transform="translate(-2118.593 -1190.607)" fill="#e8aa85"/>
          <g id="Grupo_10595" data-name="Grupo 10595">
            <path id="Trazado_20489" data-name="Trazado 20489" d="M1984.9,1283.31l5.528-1.4,1.43-10.11-6.744.491S1985.2,1283.029,1984.9,1283.31Z" transform="translate(-1970.984 -1175.13)" fill="#e8aa85"/>
            <g id="Grupo_10591" data-name="Grupo 10591" transform="translate(21.878)">
              <path id="Trazado_20490" data-name="Trazado 20490" d="M2125.652,1078.192l-.023-.016C2125.639,1078.187,2125.647,1078.195,2125.652,1078.192Z" transform="translate(-2098.198 -1030.21)" fill="#fbc500"/>
              <path id="Trazado_20491" data-name="Trazado 20491" d="M2129.64,1070.06c-2.359-10.93-1.728-18.2-2.542-31.709-.574-9.529-2.522-12.487-6.614-15.676-3.269-2.591-7.122-.153-9.2,3.451-2.148,3.725-.36,7.525,2.906,9.7-.024-.026-.054-.075-.059-.078,3.1,1.235,3.19,8.4,3.342,11.055.169,2.944-.148,5.978.252,8.9.785,5.737,2.661,11.567,4.248,17.107,1.238,4.324,4.964,14.6,6.237,18.914.48,1.63,5.781.023,5.372-1.5C2132.679,1086.856,2130.633,1074.663,2129.64,1070.06Z" transform="translate(-2086.76 -987.861)" fill="#fbc500"/>
              <path id="Trazado_20492" data-name="Trazado 20492" d="M2143.551,1092.128q-.554.035-1.107.078a32.84,32.84,0,0,1-6.889.184c-.055-.007-.109-.017-.162-.028a37.784,37.784,0,0,1,.828,7.234c.169,2.944-.148,5.978.252,8.9.785,5.737,2.661,11.567,4.247,17.107,1.238,4.324,4.964,14.6,6.237,18.914.129.438.608.64,1.228.675-1.242-2.275-3.319-37.537-3.459-42.319A74.452,74.452,0,0,0,2143.551,1092.128Z" transform="translate(-2105.507 -1040.653)" opacity="0.08"/>
              <path id="Trazado_20493" data-name="Trazado 20493" d="M2046.281,1001.973c-14.253,1.051-15.9,19.423-15.519,23.9.764,9.018,2.033,15.259,3.073,22.271.626,4.222-1.737,10.787-2.063,20.143l27.9.51s-.858-21.856,1.723-37.708C2062.9,1021.86,2059,1001.035,2046.281,1001.973Z" transform="translate(-2027.157 -973.15)" fill="#ededed"/>
              <path id="Trazado_20494" data-name="Trazado 20494" d="M2094.09,1261.205c-1.606,3.062-.729,6.344-.288,9.567.6,4.417.727,8.843,1.249,13.27,2.012,17.074,3.46,34.1,3.911,51.268.217,8.281.39,16.563.567,24.845.032,1.5-.2,3.319.69,4.63,2.079,3.072,6.276,1.379,6.827-1.8,1.3-7.479,1.456-15.329,2.106-22.883.722-8.391,1.406-16.792,1.884-25.2a500.675,500.675,0,0,0,.182-50.071C2110.819,1256,2098.226,1253.319,2094.09,1261.205Z" transform="translate(-2073.899 -1163.704)" fill="#128397"/>
              <path id="Trazado_20495" data-name="Trazado 20495" d="M2023.925,1270.382c-1.93,3.023-1.243,6.209-.791,9.519.653,4.779,1.207,9.573,1.695,14.371,1.611,15.834,1.843,31.584,1.783,47.483q-.048,12.471-.122,24.941a25.118,25.118,0,0,0,.021,4.439c.6,3.322,5.515,2.38,7.1-.7,1.2-2.332,6.194-35.784,7.089-44.829,1.629-16.467,2.955-32.7,2.206-49.234C2042.52,1267.986,2028.456,1263.285,2023.925,1270.382Z" transform="translate(-2021.11 -1171.478)" fill="#128397"/>
              <path id="Trazado_20496" data-name="Trazado 20496" d="M2024.714,1252.022l-.8,7.983c-.522,5.629,6.952,10.811,15.185,11.575l1.864,1.509c13.475,1.09,16.145-5.931,16.667-11.561l-1.148-11.208Z" transform="translate(-2022.05 -1159.056)" fill="#128397"/>
              <path id="Trazado_20497" data-name="Trazado 20497" d="M2132.748,1682.56c-2.9-.313-9.083-4.1-9.083-4.1l-6.937-.019a25.186,25.186,0,0,0-.9,5.855,9.312,9.312,0,0,0,.508,2.28l20.085.061S2137.246,1683.046,2132.748,1682.56Z" transform="translate(-2090.861 -1479.498)" fill="#0d4c5f"/>
              <path id="Trazado_20498" data-name="Trazado 20498" d="M2046.129,1682.556c-2-.31-3.838-4.089-3.838-4.089l-6.906-.013a19.707,19.707,0,0,0-1.157,5.146c0,2.478.554,2.989.554,2.989l13.879.042S2049.237,1683.037,2046.129,1682.556Z" transform="translate(-2029.787 -1479.506)" fill="#0d4c5f"/>
              <path id="Trazado_20499" data-name="Trazado 20499" d="M2033.67,1018.825c-1.04-4.524-2.839-10.018-2.654-10.681-19.393,5.1-13.927,17.181-13.147,26.464.608,7.225,4.932,13.587,3.4,21.233-1.717,8.564-4.037,21.874-4.589,28.724,6.93.022,13.191.22,20.09-.435-.091-15.63-.814-36.725-.806-43.178C2035.98,1026.916,2036.415,1030.764,2033.67,1018.825Z" transform="translate(-2016.57 -977.792)" fill="#fbc500"/>
              <path id="Trazado_20500" data-name="Trazado 20500" d="M2023.818,1119.022c.286-1.2.574-2.4.9-3.6.711-2.6,2.606-14.194,2.994-16.774-2.861-.854-5.237-1.458-8.165-2.056.222,1.445.436,2.861.55,4.217C2020.624,1107.064,2023.93,1112.671,2023.818,1119.022Z" transform="translate(-2018.799 -1043.996)" opacity="0.08"/>
              <path id="Trazado_20501" data-name="Trazado 20501" d="M2132.114,1065.521c-.526-16.315-.694-21.887-1.295-28.856-1.453-16.861,3.343-23.247-12.983-30.319a2.778,2.778,0,0,1,.162.3c2.423,5.289,4.53,17.7,5.276,23.409.722,5.531,1.866,33.88,1.7,53.167,2.977.3,4.569.705,7.142,0C2132.051,1081.534,2132.169,1067.235,2132.114,1065.521Z" transform="translate(-2092.366 -976.447)" fill="#fbc500"/>
              <path id="Trazado_20502" data-name="Trazado 20502" d="M2085.694,975.263l-.049-.353c-.029-.227-.078-.543-.141-.917-.125-.749-.318-1.717-.54-2.662s-.467-1.87-.662-2.565c-.1-.348-.185-.639-.243-.842l-.073-.249-.026-.085a3.39,3.39,0,0,0-3.865-2.776,3.31,3.31,0,0,0-2.872,3.736s0,.034,0,.075,0,.115-.008.2c-.007.185-.018.45-.03.768-.03.639-.08,1.5-.159,2.335s-.18,1.662-.275,2.255c-.048.3-.09.54-.124.705s-.05.262-.05.262a4.428,4.428,0,0,0-.035,1.4,4.6,4.6,0,0,0,5.194,3.841,4.5,4.5,0,0,0,3.975-5.021Z" transform="translate(-2061.427 -945.334)" fill="#d99a73"/>
              <path id="Trazado_20503" data-name="Trazado 20503" d="M2048.969,905.916c-2.612,4.774,8.89,17.62,8.89,17.62s4.011,4.257,10.22.538c7.8-4.671-2.676-22.283-2.676-22.283S2051.007,902.189,2048.969,905.916Z" transform="translate(-2040.531 -898.189)" fill="#e8aa85"/>
              <path id="Trazado_20504" data-name="Trazado 20504" d="M2098.908,945.155a49.462,49.462,0,0,0-7.028,2.306,5.373,5.373,0,0,1,.175.623,24.256,24.256,0,0,1,.5,5.014,6.613,6.613,0,0,1-1.245,3.871,8.87,8.87,0,0,0,9.069-.481c3.235-1.938,3.336-6.5,1.879-10.876C2102.242,945.611,2101.682,944.666,2098.908,945.155Z" transform="translate(-2072.51 -930.541)" fill="#fff"/>
              <path id="Trazado_20505" data-name="Trazado 20505" d="M2102.674,951.232a26.3,26.3,0,0,0-5.83,1.693,32.875,32.875,0,0,1,.426,4.947,8.919,8.919,0,0,1-1.6,4.158,8.645,8.645,0,0,0,8.4-.5c2.853-1.709,3.157-6.04,1.873-9.9C2105.931,951.631,2105.121,950.8,2102.674,951.232Z" transform="translate(-2075.774 -935.102)" fill="#98ddeb"/>
              <path id="Trazado_20506" data-name="Trazado 20506" d="M2053.885,888.174c-5.248-1.5-10.638-.638-14.56,3.05-5.9,5.549-5.471,22.519,1.288,25.848,5.148,2.535,6.518-4.716,6.518-4.716l-.487-4.246c-.961.586-2.506-.654-2.538-3.5s3.7.167,3.7.167-.848-3.774-.191-5.608,11.2-3.685,11.2-3.685S2058.956,889.628,2053.885,888.174Z" transform="translate(-2030.514 -887.471)" fill="#5e403b"/>
              <g id="Grupo_10590" data-name="Grupo 10590" transform="translate(17.939 66.666)">
                <g id="Grupo_10589" data-name="Grupo 10589">
                  <path id="Trazado_20507" data-name="Trazado 20507" d="M2087.9,1152.524l-.012.025C2087.919,1152.535,2087.9,1152.524,2087.9,1152.524Z" transform="translate(-2087.891 -1152.524)" fill="#ffba94"/>
                </g>
              </g>
              <path id="Trazado_20508" data-name="Trazado 20508" d="M2104.712,1000.385s.229,5.059-2.679,6.513l3.391,2.572a20.9,20.9,0,0,0,1.7-3.8,7.2,7.2,0,0,0-.477-3.333Z" transform="translate(-2080.537 -971.985)" opacity="0.1"/>
              <path id="Trazado_20509" data-name="Trazado 20509" d="M2075.694,1018.925l.939-3.463-8.535-3.635C2070.353,1018.723,2075.694,1018.925,2075.694,1018.925Z" transform="translate(-2055.138 -980.549)" opacity="0.1"/>
              <path id="Trazado_20510" data-name="Trazado 20510" d="M2104.455,998.345s.485,5.486-2.423,6.94l3.134,2.144a20.857,20.857,0,0,0,1.7-3.8,7.39,7.39,0,0,0-.276-3.131Z" transform="translate(-2080.537 -970.458)" fill="#ededed"/>
              <path id="Trazado_20511" data-name="Trazado 20511" d="M2069.947,997.25l-2.869,3.153c2.255,6.9,7.6,7.1,7.6,7.1l1.2-3.036C2070.637,1004.029,2069.947,997.25,2069.947,997.25Z" transform="translate(-2054.374 -969.638)" fill="#ededed"/>
            </g>
            <g id="Grupo_10594" data-name="Grupo 10594" transform="translate(0 97.139)">
              <g id="Grupo_10593" data-name="Grupo 10593" transform="translate(0 14.533)">
                <g id="Grupo_10592" data-name="Grupo 10592" transform="translate(11.423)">
                  <path id="Trazado_20512" data-name="Trazado 20512" d="M1985.56,1331.46h-8.369a2.17,2.17,0,0,0-2.187,2.148v8.221a2.17,2.17,0,0,0,2.187,2.148h8.369a2.17,2.17,0,0,0,2.187-2.148v-8.221A2.17,2.17,0,0,0,1985.56,1331.46Zm.068,10.369a.067.067,0,0,1-.068.066h-8.369a.067.067,0,0,1-.067-.066v-8.221a.067.067,0,0,1,.067-.066h8.369a.067.067,0,0,1,.068.066Z" transform="translate(-1975.004 -1331.46)" fill="#0d4c5f"/>
                </g>
                <path id="Trazado_20513" data-name="Trazado 20513" d="M1964.081,1363.048c-.113-2.06-2.564-3.689-5.548-3.689h-22.3c-2.984,0-5.435,1.63-5.548,3.689l-1.092,19.893c-.119,2.173,2.4,3.98,5.548,3.98h24.485c3.149,0,5.667-1.807,5.548-3.98Z" transform="translate(-1929.588 -1352.342)" fill="#0d4c5f"/>
              </g>
              <path id="Trazado_20514" data-name="Trazado 20514" d="M1985.732,1274.7c-.972,3.668.051,8.737.051,8.737l5.912-.175-.6-9.545S1986.082,1273.382,1985.732,1274.7Z" transform="translate(-1971.297 -1273.68)" fill="#e8aa85"/>
              <path id="Trazado_20515" data-name="Trazado 20515" d="M1988.2,1300.105c-2.316-3.2-6.29,0-6.29,0s-1.541,4.68-1.446,5.834a8.934,8.934,0,0,0,1.5,3.789c.68,1.2,2.591,1.116,4.467,1.187,2.1.079,3.364-.817,3.15-1.76a1.343,1.343,0,0,1-1.277-.991,2.064,2.064,0,0,1,.391-1.233h1.5a6.845,6.845,0,0,0-.388-3.337A12.477,12.477,0,0,0,1988.2,1300.105Z" transform="translate(-1967.661 -1292.394)" fill="#e8aa85"/>
            </g>
            <path id="Trazado_20516" data-name="Trazado 20516" d="M1996.168,1025.483c-2.341,1.618-3.011,4.457-3.846,6.99q-1.575,4.781-2.811,9.661a186.8,186.8,0,0,0-4.907,33.325,169.55,169.55,0,0,0-.485,18.142c.065,2.015,6.338,2.168,6.628.413.988-5.983,4.579-27.158,5.831-32.3,2.306-9.463,5.156-18.876,9.76-27.518C2009.488,1028,2002.024,1021.434,1996.168,1025.483Z" transform="translate(-1970.349 -989.835)" fill="#fbc500"/>
            <path id="Trazado_20517" data-name="Trazado 20517" d="M1966.968,1414.369c-.409.078-.911.146-1.477.249-.282.053-.586.092-.9.14s-.649.109-1,.15l-1.085.146c-.374.049-.763.089-1.16.135s-.806.085-1.223.125l-.631.06-.645.048c-.433.035-.874.065-1.319.087s-.9.044-1.352.063c-.91.034-1.834.05-2.759.044-.462,0-.925-.011-1.385-.016-.46-.025-.92-.022-1.375-.048-.911-.044-1.807-.093-2.676-.163-.435-.026-.86-.08-1.28-.108l-1.226-.125c-.8-.082-1.551-.18-2.25-.269s-1.339-.183-1.907-.273-1.067-.167-1.477-.237c-.822-.135-1.3-.228-1.3-.228s.1.068.3.181.484.279.863.464a25.24,25.24,0,0,0,3.233,1.325c.687.226,1.439.455,2.244.656s1.663.39,2.557.539c.447.08.9.147,1.367.2s.934.112,1.409.154.955.074,1.438.1.968.034,1.453.037c.97-.006,1.941-.027,2.893-.113l.711-.059c.235-.023.469-.057.7-.085l.692-.088c.229-.03.454-.075.678-.112.448-.077.889-.147,1.316-.249s.846-.176,1.247-.291.794-.206,1.168-.323l1.077-.348c.683-.244,1.3-.479,1.842-.713s1-.445,1.377-.645.663-.359.861-.466l.3-.171-.343.053C1967.7,1414.242,1967.377,1414.291,1966.968,1414.369Z" transform="translate(-1936.291 -1281.68)" fill="#0b3f4f"/>
          </g>
          <path id="Trazado_20518" data-name="Trazado 20518" d="M2082.785,953.87l2.364.415,1.55-1.172-4.7.212Z" transform="translate(-2043.667 -936.603)" fill="#fff"/>
          <path id="Trazado_20519" data-name="Trazado 20519" d="M2078.75,969.529a1.154,1.154,0,0,1-.655.134,13.946,13.946,0,0,0,3.323,5.654l.806-.612A14.688,14.688,0,0,1,2078.75,969.529Z" transform="translate(-2040.743 -948.89)" fill="#fff"/>
        </g>
      </g>
      <rect id="Rectángulo_2343" data-name="Rectángulo 2343" width="1006.08" height="5" transform="translate(0 997.101)" fill="#7cb6bf"/>
    </g>
    <text id="Máximo_4_personas" data-name="Máximo 4 personas" transform="translate(825 7632)" fill="#f42727" font-size="24" font-family="Helvetica-Bold, Helvetica" font-weight="700"><tspan x="0" y="0">Máximo 4 personas</tspan></text>
  </g>
</svg>
