<svg xmlns="http://www.w3.org/2000/svg" width="1140" height="288.006" viewBox="0 0 1140 288.006">
  <g id="Grupo_10598" data-name="Grupo 10598" transform="translate(0 -757.874)">
    <g id="Grupo_10597" data-name="Grupo 10597" transform="translate(66.731 757.874)">
      <g id="Grupo_10567" data-name="Grupo 10567" transform="translate(588.518 122.367)">
        <g id="Grupo_10561" data-name="Grupo 10561" transform="translate(23.904 12.142)">
          <path id="Trazado_20359" data-name="Trazado 20359" d="M2385.136,1230.2a1.258,1.258,0,0,0-1.773,1.786l7.965,7.911a1.258,1.258,0,1,0,1.773-1.786Z" transform="translate(-2382.992 -1229.835)" fill="#5d898f"/>
        </g>
        <g id="Grupo_10566" data-name="Grupo 10566" transform="translate(0 0)">
          <rect id="Rectángulo_2314" data-name="Rectángulo 2314" width="5.764" height="135.57" transform="translate(21.428 9.233)" fill="#5d898f"/>
          <circle id="Elipse_648" data-name="Elipse 648" cx="7.056" cy="7.056" r="7.056" transform="translate(15.979 2.838) rotate(-11.599)" fill="#5d898f"/>
          <path id="Trazado_20360" data-name="Trazado 20360" d="M2344.528,1688.5h-42.2a3.211,3.211,0,1,0,0,6.422h42.2a3.211,3.211,0,1,0,0-6.422Z" transform="translate(-2299.119 -1545.638)" fill="#5d898f"/>
          <g id="Grupo_10565" data-name="Grupo 10565" transform="translate(30.612 14.84)">
            <g id="Grupo_10562" data-name="Grupo 10562" transform="translate(0 3.956)">
              <path id="Trazado_20361" data-name="Trazado 20361" d="M2413.928,1256.781c-1.991-1.736-3.085-2.84-3.1-2.851a2.515,2.515,0,0,0-3.579,3.533c.048.049,1.22,1.234,3.367,3.108a2.515,2.515,0,1,0,3.308-3.79Z" transform="translate(-2406.529 -1253.183)" fill="#21ada4"/>
            </g>
            <g id="Grupo_10563" data-name="Grupo 10563" transform="translate(5.999 5.928)">
              <path id="Trazado_20362" data-name="Trazado 20362" d="M2544.226,1260.856c-1.969,2.009-3.987,3.924-6,5.694a2.413,2.413,0,0,1-2.691,2.291c-2.161,1.776-4.375,3.439-6.578,4.946a2.395,2.395,0,0,1-2.945,1.929,78.871,78.871,0,0,1-7.156,3.979,2.379,2.379,0,0,1-3.183,1.463,70.22,70.22,0,0,1-7.664,2.789,2.366,2.366,0,0,1-3.371.909,66.4,66.4,0,0,1-8.013,1.428,2.365,2.365,0,0,1-3.476.308,67.468,67.468,0,0,1-8.149.015,2.545,2.545,0,0,0-1.807.624,2.511,2.511,0,0,0-1.679-.909,75.66,75.66,0,0,1-8.072-1.32,2.391,2.391,0,0,1-3.415-.825c-2.59-.687-5.225-1.525-7.829-2.488a2.406,2.406,0,0,1-3.284-1.285c-2.5-1.034-5.016-2.2-7.487-3.469a2.418,2.418,0,0,1-3.123-1.669c-2.384-1.325-4.765-2.768-7.08-4.285a2.425,2.425,0,0,1-2.938-1.992c-2.279-1.595-4.5-3.272-6.609-4.987a2.515,2.515,0,0,0-3.173,3.9c2.2,1.789,4.519,3.54,6.9,5.205a2.606,2.606,0,0,1,3.066,2.078c2.417,1.584,4.9,3.089,7.392,4.474a2.616,2.616,0,0,1,3.273,1.748c2.591,1.331,5.236,2.555,7.86,3.641a2.631,2.631,0,0,1,3.462,1.357c2.753,1.018,5.541,1.9,8.284,2.63a2.649,2.649,0,0,1,3.629.879,80.712,80.712,0,0,0,8.61,1.406,2.667,2.667,0,0,1,3.734.307c1.412.081,2.844.123,4.254.123,1.493,0,3.006-.047,4.5-.14a2.507,2.507,0,0,0,1.8-.931,2.547,2.547,0,0,0,1.938.6,71.471,71.471,0,0,0,8.623-1.539,2.675,2.675,0,0,1,3.624-.977,75,75,0,0,0,8.214-2.989,2.662,2.662,0,0,1,3.4-1.563,83.959,83.959,0,0,0,7.614-4.231,2.639,2.639,0,0,1,3.119-2.042c2.324-1.59,4.656-3.343,6.932-5.211a2.617,2.617,0,0,1,2.824-2.4c2.1-1.85,4.207-3.851,6.261-5.947a2.515,2.515,0,1,0-3.59-3.521Z" transform="translate(-2427.579 -1260.102)" fill="#21ada4"/>
            </g>
            <g id="Grupo_10564" data-name="Grupo 10564" transform="translate(124.45)">
              <path id="Trazado_20363" data-name="Trazado 20363" d="M2850.294,1239.918a2.515,2.515,0,0,0-3.548.251q-1.441,1.662-2.883,3.221a2.515,2.515,0,0,0,3.694,3.414q1.495-1.617,2.989-3.339A2.516,2.516,0,0,0,2850.294,1239.918Z" transform="translate(-2843.194 -1239.303)" fill="#21ada4"/>
            </g>
          </g>
        </g>
      </g>
      <g id="Grupo_10576" data-name="Grupo 10576" transform="translate(741.112)">
        <g id="Grupo_10573" data-name="Grupo 10573">
          <g id="Grupo_10569" data-name="Grupo 10569" transform="translate(76.594 50.48)">
            <g id="Grupo_10568" data-name="Grupo 10568" transform="translate(33.325)">
              <path id="Trazado_20364" data-name="Trazado 20364" d="M3234.627,1218.96l-5.738,22.808c0,7.467,3.456,16.736,14.536,16.736h9.47c11.9,0,17.723-7.312,17.723-16.71l-6.587-22.835Z" transform="translate(-3226.417 -1138.031)" fill="#21ada4"/>
              <path id="Trazado_20365" data-name="Trazado 20365" d="M3266.036,935c-10.794,0-13.333,5.4-13.629,10.69-.445,7.966-2.7,24.076-1.109,31.895,1.555,7.66,27.455,3.732,28.009,0,1.97-13.275-1.05-21.274-2.319-28.886C3275.678,940.834,3273.361,935,3266.036,935Z" transform="translate(-3242.04 -934.997)" fill="#8f6421"/>
              <path id="Trazado_20366" data-name="Trazado 20366" d="M3259.91,1050.923l-12.492-3.891a6.141,6.141,0,0,1-4.181,1.483,6.218,6.218,0,0,1-3.921-1.266l-12.415,3.733a7.76,7.76,0,0,0-5.373,5.877h.016l-1.33,8.081c1.406.739,3.092,1.761,6.261,3.622-.274,2.11-.428,9,1.243,10.028l-.185,17.441h30.3l.525-25.928s9.239-2.51,9.853-2.713l-2.369-11.127A8.979,8.979,0,0,0,3259.91,1050.923Z" transform="translate(-3220.215 -1015.102)" fill="#21ada4"/>
              <path id="Trazado_20367" data-name="Trazado 20367" d="M3272.24,969.748a52.613,52.613,0,0,1-5.984.715v8.572a8.79,8.79,0,0,0,8.563,9c4.729,0,7.484-4.538,7.985-9.484.6-5.874-1.494-12.626-1.494-12.626A26.131,26.131,0,0,1,3272.24,969.748Z" transform="translate(-3253.134 -957.111)" fill="#eab99f"/>
              <path id="Trazado_20368" data-name="Trazado 20368" d="M3282.886,1029.681c0,2.961,2.431,4.563,5.4,4.563s5.359-1.6,5.359-4.563v-12h-10.76Z" transform="translate(-3265.025 -994.115)" fill="#eab99f"/>
              <path id="Trazado_20369" data-name="Trazado 20369" d="M3280.728,997.672c-.19-.092-.405-.17-.611-.258-.583-.2-1.164-.4-1.76-.57-.654-.182-1.313-.316-1.976-.457-.233-.022-.466-.046-.7-.062a19.121,19.121,0,0,0-9.425.881v3.4a8.79,8.79,0,0,0,8.563,9,7.114,7.114,0,0,0,6.169-3.758,31.851,31.851,0,0,1,.325-7.878C3281.118,997.87,3280.925,997.767,3280.728,997.672Z" transform="translate(-3253.134 -978.68)" fill="#fff"/>
              <path id="Trazado_20370" data-name="Trazado 20370" d="M3280.4,1002.2l-.21-.1c-.174-.084-2.645-1.265-7.752-1.264-.443,0-.881.062-1.321.1a22.028,22.028,0,0,0-4.864,1v2.829c0,4.539,4.224,8.226,8.542,8.226a7.373,7.373,0,0,0,5.624-2.73A20.878,20.878,0,0,1,3280.4,1002.2Z" transform="translate(-3253.134 -982.076)" fill="#98ddeb"/>
            </g>
            <path id="Trazado_20371" data-name="Trazado 20371" d="M3161.969,1278.872c-6.706-5.521-13.618-.132-16.1,1.8s-5.827,9.262-5.827,9.262l-17.69,35.659-14.483,21.008s-7.211,8.846-3.545,9.952c5.216,1.573,10.54.276,14.423-6.635l8.875-19.9,21.91-26.537s2.265-10.649,9.43-10.781,5.01,3.317,5.01,3.317S3170.76,1286.109,3161.969,1278.872Z" transform="translate(-3103.284 -1179.138)" fill="#eab99f"/>
            <path id="Trazado_20372" data-name="Trazado 20372" d="M3109.1,1519.716a6.74,6.74,0,0,1-.119-2.773l-1.112,1.612s-7.21,8.846-3.544,9.952c5.215,1.573,10.539.276,14.421-6.635l.929-2.082C3116.619,1522.572,3110.5,1524.583,3109.1,1519.716Z" transform="translate(-3103.285 -1351.089)" fill="#40403f"/>
            <path id="Trazado_20373" data-name="Trazado 20373" d="M3259.231,1325.792l2.08,43.7v19.728c.555,7.628,4.777,9.733,9.805,8.379,2.931-.789,1.878-8.116,1.878-8.116L3268.8,1369.5l7.488-52.608C3260.2,1302.421,3259.231,1325.792,3259.231,1325.792Z" transform="translate(-3214.786 -1204.671)" fill="#eab99f"/>
            <path id="Trazado_20374" data-name="Trazado 20374" d="M3277.52,1570.762c-.526,3.914-5.739,3.511-8.7,1.607a9.773,9.773,0,0,1-2.293-2.064v3.49c.554,7.628,4.776,9.733,9.805,8.379,2.93-.789,1.878-8.116,1.878-8.116Z" transform="translate(-3220.004 -1389.242)" fill="#40403f"/>
            <path id="Trazado_20375" data-name="Trazado 20375" d="M3244.666,1085.66c-3.017,0-4.1,14.156-4.1,14.156v.413a5.766,5.766,0,0,0,5.485,5.98h18.76c3.016,0,6.594-2.691,6.594-5.98l-.469-10.429C3270.937,1086.51,3244.666,1085.66,3244.666,1085.66Z" transform="translate(-3201.441 -1042.721)" fill="#21ada4"/>
            <path id="Trazado_20376" data-name="Trazado 20376" d="M3301.787,1051.428l3.788,3.035a16.437,16.437,0,0,0,5.543-9.76l-3.95-3.085A12.479,12.479,0,0,1,3301.787,1051.428Z" transform="translate(-3245.214 -1011.231)" fill="#fff"/>
            <path id="Trazado_20377" data-name="Trazado 20377" d="M3273.422,1042.033,3269.65,1045a16.438,16.438,0,0,0,5.542,9.76l3.631-3.1A13.008,13.008,0,0,1,3273.422,1042.033Z" transform="translate(-3222.236 -1011.528)" fill="#fff"/>
            <path id="Trazado_20378" data-name="Trazado 20378" d="M3209.432,1229.94s.172,2.2,2.684,1.677l8.7-2.476,6.656,1.677s4.357,1.446,7.183-.926v-4.683l-13.477-2.8Z" transform="translate(-3179.18 -1140.495)" fill="#eab99f"/>
            <path id="Trazado_20379" data-name="Trazado 20379" d="M3323.783,1118.466l-11.546.925,6.008,27.59-20.3,2.822v7.407h25.305c5.234,0,6.263-6.5,6.045-7.84Z" transform="translate(-3242.466 -1066.177)" fill="#21ada4"/>
            <path id="Trazado_20380" data-name="Trazado 20380" d="M3209.262,1198.364h0a13.537,13.537,0,0,1,.229-1.489c.126-.629.288-1.308.467-2,.14-.535.292-1.078.449-1.624l-6.082.174Z" transform="translate(-3175.529 -1119.65)" fill="#21ada4"/>
            <path id="Trazado_20381" data-name="Trazado 20381" d="M3221.822,1100.714l-23.806.682c-.157.546-.309,1.09-.449,1.625-.179.69-.342,1.369-.467,2a13.247,13.247,0,0,0-.229,1.489h0l-4.937-4.937,6.082-.175c.249-.867.516-1.744.794-2.624.912-2.873,1.932-5.773,2.989-8.665s2.163-5.785,3.294-8.67l1.717-4.32.872-2.153.878-2.131.027-.067c.031-.075.06-.15.087-.226a5.8,5.8,0,0,0-10.907-3.921l-.81,2.254-.792,2.242-1.551,4.49q-1.53,4.5-2.973,9.049c-.957,3.04-1.88,6.1-2.722,9.24-.419,1.574-.82,3.166-1.175,4.832-.177.836-.342,1.689-.481,2.6a20.043,20.043,0,0,0-.266,3.178h0v.016a4.777,4.777,0,0,0,4.639,4.913l.3.009,29.888.856c.1,0,.227,0,.332,0a5.8,5.8,0,1,0-.332-11.587Z" transform="translate(-3163.138 -1027.794)" fill="#21ada4"/>
            <path id="Trazado_20382" data-name="Trazado 20382" d="M3305.093,958.681l-3.329,2.382s6.267,4.129,6.41,6.67,0,7.762,0,7.762l2.927-1.689-1.257-14.014Z" transform="translate(-3245.198 -951.931)" fill="#8f6421"/>
            <path id="Trazado_20383" data-name="Trazado 20383" d="M3317.35,1000.019l1.8-1.358v-.827l-2.118,1.083Z" transform="translate(-3256.115 -979.925)" fill="#fff"/>
            <path id="Trazado_20384" data-name="Trazado 20384" d="M3315.958,1020.117a17.7,17.7,0,0,0,2.206-5.5l-2.206,3.891Z" transform="translate(-3255.346 -991.922)" fill="#fff"/>
          </g>
          <rect id="Rectángulo_2315" data-name="Rectángulo 2315" width="0.247" height="135.997" transform="translate(265.18 135.652)" fill="#fffffc"/>
          <rect id="Rectángulo_2316" data-name="Rectángulo 2316" width="0.247" height="45.906" transform="translate(265.18 135.652)" fill="#cde1de"/>
          <rect id="Rectángulo_2317" data-name="Rectángulo 2317" width="0.247" height="8.357" transform="translate(265.18 127.295)" fill="#21ada4"/>
          <rect id="Rectángulo_2318" data-name="Rectángulo 2318" width="254.117" height="135.997" transform="translate(0 135.652)" fill="#cbe2e5"/>
          <g id="Grupo_10572" data-name="Grupo 10572" transform="translate(163.788 61.611)">
            <path id="Rectángulo_2319" data-name="Rectángulo 2319" d="M7.535,0H61.848a7.535,7.535,0,0,1,7.535,7.535v31.6a7.536,7.536,0,0,1-7.536,7.536H7.535A7.535,7.535,0,0,1,0,39.14V7.535A7.535,7.535,0,0,1,7.535,0Z" fill="#414141"/>
            <path id="Trazado_20385" data-name="Trazado 20385" d="M3511.986,1028.266H3502.3a2.14,2.14,0,0,0-2.137,2.031l-2.514,48.667h18.982l-2.513-48.667A2.141,2.141,0,0,0,3511.986,1028.266Z" transform="translate(-3472.453 -1012.815)" fill="#878787"/>
            <g id="Grupo_10570" data-name="Grupo 10570" transform="translate(61.529 9.628)">
              <rect id="Rectángulo_2320" data-name="Rectángulo 2320" width="7.855" height="2.233" fill="#212121"/>
              <rect id="Rectángulo_2321" data-name="Rectángulo 2321" width="7.855" height="2.233" transform="translate(0 4.198)" fill="#212121"/>
              <rect id="Rectángulo_2322" data-name="Rectángulo 2322" width="7.855" height="2.232" transform="translate(0 8.396)" fill="#212121"/>
              <rect id="Rectángulo_2323" data-name="Rectángulo 2323" width="7.855" height="2.232" transform="translate(0 12.593)" fill="#212121"/>
              <rect id="Rectángulo_2324" data-name="Rectángulo 2324" width="7.855" height="2.233" transform="translate(0 16.791)" fill="#212121"/>
              <rect id="Rectángulo_2325" data-name="Rectángulo 2325" width="7.855" height="2.232" transform="translate(0 20.988)" fill="#212121"/>
              <rect id="Rectángulo_2326" data-name="Rectángulo 2326" width="7.855" height="2.233" transform="translate(0 25.186)" fill="#212121"/>
            </g>
            <g id="Grupo_10571" data-name="Grupo 10571" transform="translate(0 9.628)">
              <rect id="Rectángulo_2327" data-name="Rectángulo 2327" width="7.855" height="2.233" fill="#212121"/>
              <rect id="Rectángulo_2328" data-name="Rectángulo 2328" width="7.855" height="2.233" transform="translate(0 4.198)" fill="#212121"/>
              <rect id="Rectángulo_2329" data-name="Rectángulo 2329" width="7.855" height="2.232" transform="translate(0 8.396)" fill="#212121"/>
              <rect id="Rectángulo_2330" data-name="Rectángulo 2330" width="7.855" height="2.232" transform="translate(0 12.593)" fill="#212121"/>
              <rect id="Rectángulo_2331" data-name="Rectángulo 2331" width="7.855" height="2.233" transform="translate(0 16.791)" fill="#212121"/>
              <rect id="Rectángulo_2332" data-name="Rectángulo 2332" width="7.855" height="2.232" transform="translate(0 20.988)" fill="#212121"/>
              <rect id="Rectángulo_2333" data-name="Rectángulo 2333" width="7.855" height="2.233" transform="translate(0 25.186)" fill="#212121"/>
            </g>
          </g>
          <rect id="Rectángulo_2334" data-name="Rectángulo 2334" width="254.117" height="45.906" transform="translate(0 135.652)" fill="#adc8cc"/>
          <rect id="Rectángulo_2335" data-name="Rectángulo 2335" width="0.247" height="4.45" transform="translate(265.18 135.674)" opacity="0.2"/>
          <rect id="Rectángulo_2336" data-name="Rectángulo 2336" width="254.117" height="4.857" transform="translate(0 135.652)" opacity="0.2"/>
          <rect id="Rectángulo_2337" data-name="Rectángulo 2337" width="11.309" height="271.649" transform="translate(254.118)" fill="#0d4c5f"/>
          <rect id="Rectángulo_2338" data-name="Rectángulo 2338" width="11.309" height="271.649" transform="translate(0)" fill="#0d4c5f"/>
        </g>
        <g id="Grupo_10575" data-name="Grupo 10575" transform="translate(11.085 11.295)">
          <path id="Trazado_20386" data-name="Trazado 20386" d="M2873.432,914.268h85.551V903.619a13.7,13.7,0,0,1,13.582-13.819H3017a13.7,13.7,0,0,1,13.582,13.819v10.649h85.551V797.505h-242.7Z" transform="translate(-2873.432 -797.505)" fill="#d8e2e8" style="mix-blend-mode: multiply;isolation: isolate"/>
          <path id="Trazado_20387" data-name="Trazado 20387" d="M2934.278,836.409l-40.872,40.872V925.56h22.129a7.882,7.882,0,0,1,1.746-8.008l34.385-34.385,60.759-60.759,9.11-9.111h-64.147Z" transform="translate(-2887.713 -808.797)" fill="#fff" opacity="0.4"/>
          <path id="Trazado_20388" data-name="Trazado 20388" d="M3424.443,961.447a14.245,14.245,0,0,1,.107,1.712v10.649h31.155l16.6-16.6,32.8-32.8V880.778l-24.77,24.77Z" transform="translate(-3267.405 -857.045)" fill="#fff" opacity="0.2"/>
          <path id="Trazado_20389" data-name="Trazado 20389" d="M2893.406,853.365l20.238-20.237,19.829-19.829h-40.067Z" transform="translate(-2887.713 -808.797)" fill="#fff" opacity="0.4"/>
          <g id="Grupo_10574" data-name="Grupo 10574" transform="translate(84.71 91.454)">
            <path id="Trazado_20390" data-name="Trazado 20390" d="M3229.514,1118.395h-44.432a14.56,14.56,0,0,0-14.423,14.66V1143.7h1.682v-10.649a12.876,12.876,0,0,1,12.741-12.979h44.432a12.876,12.876,0,0,1,12.741,12.979V1143.7h1.682v-10.649A14.56,14.56,0,0,0,3229.514,1118.395Z" transform="translate(-3170.66 -1118.395)" fill="#fff"/>
          </g>
        </g>
        <rect id="Rectángulo_2339" data-name="Rectángulo 2339" width="243.032" height="8.357" transform="translate(11.085 127.295)" fill="#128397"/>
      </g>
      <g id="Grupo_10581" data-name="Grupo 10581" transform="translate(240.667 27.055)">
        <path id="Trazado_20391" data-name="Trazado 20391" d="M1278.893,996.291c-1.366-7.686-14.351-12.016-18.369-5.319-2.76,4.6.217,10.537,1.586,15.129,4.271,14.315,5.136,19.23,9.547,33.5,2.148,6.948,9.027,25.06,11.486,31.9.887,2.47,6.649.857,6.437-1.377C1287.6,1049.163,1283.236,1021,1278.893,996.291Z" transform="translate(-1207.862 -949.228)" fill="#21ada4"/>
        <path id="Trazado_20392" data-name="Trazado 20392" d="M1296.46,1080.961a50.342,50.342,0,0,1-8.1,8.784c-.5.417-1.018.817-1.54,1.21,1.187,4.361,2.456,8.9,4.451,15.351,1.846,5.97,7.96,22.3,10.987,30.524-.169-3.6,1.321,1.808,1.085-1.786C1303.012,1130.082,1298.364,1108.9,1296.46,1080.961Z" transform="translate(-1227.471 -1015.937)" opacity="0.08"/>
        <path id="Trazado_20393" data-name="Trazado 20393" d="M1346.4,1263.535a4.655,4.655,0,0,0-1.825-.21c-1.635.148-4.078.943-5,2.4-.056.089-.115.172-.176.251.361.984.682,1.864.95,2.61.887,2.47,6.649.856,6.437-1.377C1346.678,1266.017,1346.548,1264.788,1346.4,1263.535Z" transform="translate(-1265.071 -1146.314)" fill="#dfe6e9"/>
        <g id="Grupo_10577" data-name="Grupo 10577" transform="translate(17.422)">
          <path id="Trazado_20394" data-name="Trazado 20394" d="M1271.408,1308.276c0-20.361-.928-40.721-.823-61.082-.016-10.01-11.6-16.157-19.831-10.317-8.015,5.686-4.553,15.578-3.193,23.542,3.075,18.011,6.184,36.074,8.4,54.21,1.3,10.6,4.207,41.047,4.672,45.642.339,3.344,3.068,6.475,6.722,4.642,3.374-1.692,2.177.435,2.221-2.649C1269.652,1357.258,1271.407,1319.04,1271.408,1308.276Z" transform="translate(-1215.453 -1125.793)" fill="#0d4c5f"/>
          <path id="Trazado_20395" data-name="Trazado 20395" d="M1183.86,1234.937a12.6,12.6,0,0,0-9.082,6.407c-1.5,2.757-1.517,5.62-1.505,8.648.068,17.973-3.176,88.24-3.608,97.56q-.244,5.277-.488,10.554c-.07,1.505-.368,3.261.236,4.69a4.629,4.629,0,0,0,8.162.585c1.456-2.419,1.3-6.366,1.719-9.076q2.037-13.291,4.441-26.525c1.193-6.5,3.029-13.619,4.216-19.715,2.227-9.574,3.5-19.421,5.143-29.108q2.494-14.752,5.037-29.5A12.648,12.648,0,0,0,1183.86,1234.937Z" transform="translate(-1160.684 -1125.924)" fill="#0d4c5f"/>
          <path id="Trazado_20396" data-name="Trazado 20396" d="M1184.994,1229.523s-.536,9.026-.768,12.043c-.512,6.672,11.534,12.09,21.281,12.974h0c9.746.885,20.816-1.485,21.128-8.17.251-5.37-.879-16.93-.879-16.93Z" transform="translate(-1171.53 -1122.1)" fill="#0d4c5f"/>
          <path id="Trazado_20397" data-name="Trazado 20397" d="M1315.414,1681.655c-3.584-.364-11.935-4.829-11.935-4.829l-8.331-.006c-2.346,9.721-.01,9.63-.01,9.63l24.822.026S1320.975,1682.219,1315.414,1681.655Z" transform="translate(-1250.104 -1441.975)" fill="#0c2d48"/>
          <path id="Trazado_20398" data-name="Trazado 20398" d="M1180.114,1681.931c-1.14-.025-5.381-4.848-5.381-4.848l-8.765-.009c-2.815,7.478-.01,9.63-.01,9.63l19.368.047S1186.511,1682.071,1180.114,1681.931Z" transform="translate(-1157.59 -1442.157)" fill="#0c2d48"/>
          <path id="Trazado_20399" data-name="Trazado 20399" d="M1208.774,992.243c1.634-7.6-5.658-16.236-23.515-14.789-35.448,2.873-20.962,29.2-20.051,33.8,3.766,18.995,3.573,18.914,2.775,48.371,0,0,13.916,1.046,22.868.38,8.681-.646,19.557-2.024,19.557-2.024s-2.748-23.2-4.312-49.942C1205.84,1003.641,1207.588,997.764,1208.774,992.243Z" transform="translate(-1155.303 -941.814)" fill="#21ada4"/>
          <path id="Trazado_20400" data-name="Trazado 20400" d="M1170.582,1073.532a34.112,34.112,0,0,1,1.109,3.375c1.969,9.933,2.855,14.651,3.139,21.1l0-.015c.709-3.072,6.971-26.643,7.115-28.873-3.038.027-8.51,3.161-11.286,4.38C1170.636,1073.513,1170.609,1073.521,1170.582,1073.532Z" transform="translate(-1161.786 -1007.471)" opacity="0.08"/>
          <path id="Trazado_20401" data-name="Trazado 20401" d="M1228.146,937.914c.337,4.674-1.733,9.71,1,12.653a6.321,6.321,0,0,0,10.489-2.231c1.108-3.385-1.192-7.958-2.25-11.112C1235.729,932.269,1227.819,933.364,1228.146,937.914Z" transform="translate(-1202.633 -910.84)" fill="#a87551"/>
          <path id="Trazado_20402" data-name="Trazado 20402" d="M1203.712,865.861c-4.389,4.956,5.778,23.3,5.778,23.3s3.822,3.524,11.976,3.4c9.3-.139,2.854-27.153,2.854-27.153S1207.138,861.992,1203.712,865.861Z" transform="translate(-1184.688 -860.822)" fill="#b37d57"/>
          <path id="Trazado_20403" data-name="Trazado 20403" d="M1237.865,915.392c2.313,3.9,1.522,9.137-1.265,10.8a16.48,16.48,0,0,0,8.968,2c4.523-.068,5.8-6.23,5.114-13.888C1250.43,914.236,1249,911.8,1237.865,915.392Z" transform="translate(-1208.989 -896.155)" fill="#fff"/>
          <path id="Trazado_20404" data-name="Trazado 20404" d="M1243.4,920.821c1.808,4.154.5,8.76-1.93,10.206a13.855,13.855,0,0,0,7.581,1.326c5.1-.684,5.729-5.426,5.136-12.1C1253.967,920.194,1253.1,917.693,1243.4,920.821Z" transform="translate(-1212.47 -900.314)" fill="#98ddeb"/>
          <path id="Trazado_20405" data-name="Trazado 20405" d="M1208.093,852.944c-5,.785-9.339,3.945-9.957,10.959a18.4,18.4,0,0,0,9.158,18.016,13.75,13.75,0,0,1-.517-5.9c-2.055-.132-2.9-3.4-2.453-5.556.333-1.615,3.507.018,3.507.018l1.673-1.013a16.551,16.551,0,0,1-.88-3.751c-.138-1.752,1.992-2.41,9.347-2.989s4.647-7.81,4.647-7.81C1220.1,854.953,1213.094,852.158,1208.093,852.944Z" transform="translate(-1181.424 -852.804)" fill="#0c2d48"/>
          <path id="Trazado_20406" data-name="Trazado 20406" d="M1222.259,967.749l-2.392,3.828c1.743,5.826,9.058,7.722,9.058,7.722l1.936-3.2C1225.168,973.522,1222.259,967.749,1222.259,967.749Z" transform="translate(-1197.025 -934.99)" fill="#dfe6e9"/>
          <path id="Trazado_20407" data-name="Trazado 20407" d="M1258.443,975.982l2.621,2.3a11.749,11.749,0,0,0,2.865-7.571l-2.429-3.172S1261.607,973.02,1258.443,975.982Z" transform="translate(-1224.607 -934.838)" fill="#dfe6e9"/>
          <path id="Trazado_20408" data-name="Trazado 20408" d="M1152.4,1000.666c-2.884,1.388-4.6,2.576-5.591,5.461a166.011,166.011,0,0,0-4.258,17.165c-1.97,10.7-3.161,19.335-2.751,30.2.292,7.738,2.951,19.6,3.858,27.292.258,2.187,6.863,2.109,7.1-.842.534-6.51,0-13.213.305-19.756a130.5,130.5,0,0,1,1.641-17.106c1.776-9.853,5.917-20.028,9.51-29.548C1164.831,1006.566,1159.183,997.4,1152.4,1000.666Z" transform="translate(-1139.718 -958.038)" fill="#21ada4"/>
          <path id="Trazado_20409" data-name="Trazado 20409" d="M1152.167,1268.993c.15,1.016.283,1.988.39,2.9.258,2.187,6.863,2.109,7.105-.841.092-1.122.151-2.251.189-3.382C1157.619,1266.72,1153.9,1267.551,1152.167,1268.993Z" transform="translate(-1148.619 -1149.143)" fill="#dfe6e9"/>
        </g>
        <g id="Grupo_10580" data-name="Grupo 10580" transform="translate(0 121.581)">
          <g id="Grupo_10579" data-name="Grupo 10579" transform="translate(0 8.684)">
            <rect id="Rectángulo_2340" data-name="Rectángulo 2340" width="50.387" height="37.088" rx="8.965" transform="translate(0.494 8.802)" fill="#4f4a49"/>
            <path id="Trazado_20410" data-name="Trazado 20410" d="M1127.4,1336.351h-46.244a2.565,2.565,0,0,0-2.565,2.565v6.14a10.351,10.351,0,0,0,10.351,10.351h30.674a10.351,10.351,0,0,0,10.35-10.351v-6.14A2.565,2.565,0,0,0,1127.4,1336.351Z" transform="translate(-1078.588 -1328.805)" fill="#403c3b"/>
            <rect id="Rectángulo_2341" data-name="Rectángulo 2341" width="10.868" height="2.966" transform="translate(20.254 24.38)" fill="#fbc500"/>
            <g id="Grupo_10578" data-name="Grupo 10578" transform="translate(17.443)">
              <path id="Trazado_20411" data-name="Trazado 20411" d="M1151.632,1309.874h-7.194a4.815,4.815,0,0,0-4.648,4.956v2.864h2.5v-2.864a2.228,2.228,0,0,1,2.151-2.293h7.194a2.228,2.228,0,0,1,2.151,2.293v2.864h2.5v-2.864A4.815,4.815,0,0,0,1151.632,1309.874Z" transform="translate(-1139.79 -1309.874)" fill="#403c3b"/>
            </g>
          </g>
          <path id="Trazado_20412" data-name="Trazado 20412" d="M1154.541,1279.946c-1.372-1.141-5.961-.232-6.9.507-.39.307-3.5,7.928-2.212,9.348,1.884,2.083,1.574,2.051,3.88,2.442s5.828-.381,6.408-1.469a10.163,10.163,0,0,0-1.5-.458s-.65-2.444,1.829-2.183a2.7,2.7,0,0,1,2.084.977,5.651,5.651,0,0,0-.833-4.536C1156.853,1283.81,1154.813,1280.173,1154.541,1279.946Z" transform="translate(-1126.159 -1279.406)" fill="#b37d57"/>
        </g>
        <path id="Trazado_20413" data-name="Trazado 20413" d="M1353.675,1282.222c-.616-1.2-1.19-2.529-2-4.029a16.739,16.739,0,0,0-1.877-2.663c-1.359-1.018-4.965-.077-5.086,1.626,0,0-.793,4.337.885,6.573s9.1,5.423,9.321,7.175c0,0,.794-3.855.564-4.88A19.549,19.549,0,0,0,1353.675,1282.222Z" transform="translate(-1268.734 -1154.752)" fill="#b37d57"/>
        <path id="Trazado_20414" data-name="Trazado 20414" d="M1339.79,1289.854a1.18,1.18,0,0,0-1.667.081l-1.808,7.652a2.423,2.423,0,0,0,.85,2.365l10.461,9.5a1.179,1.179,0,0,0,1.666-.081l1.808-7.652a2.471,2.471,0,0,0-.659-2.192Z" transform="translate(-1262.818 -1165.076)" fill="#2f4c52"/>
        <path id="Trazado_20415" data-name="Trazado 20415" d="M1350.949,1289.431c1.533-.493-4.577-7.531-5.746-6.18,0,0-1.293.978.7,5.355.861,1.895,2.436,3.746,3.1,5.589.853,2.379,2.3,2.9,2.738,1.977C1351.736,1296.172,1349.728,1289.824,1350.949,1289.431Z" transform="translate(-1268.922 -1160.451)" fill="#b37d57"/>
        <path id="Trazado_20416" data-name="Trazado 20416" d="M1229.6,913.626l3.716,2.449,1.066-.693-4.029-1.756Z" transform="translate(-1186.564 -896.292)" fill="#fff"/>
        <path id="Trazado_20417" data-name="Trazado 20417" d="M1226.746,933.676s.769,4.619,2.794,6.983l1.4-.338a20.274,20.274,0,0,1-3.646-6.475Z" transform="translate(-1184.521 -910.628)" fill="#fff"/>
      </g>
      <g id="Grupo_10585" data-name="Grupo 10585" transform="translate(0 40.418)">
        <path id="Trazado_20418" data-name="Trazado 20418" d="M484.742,1287.707a8.181,8.181,0,0,0-1.573,4.74c-.131,3.064.191,7.193.1,8.476l-.091,1.283s1.895,1.11,2.177-1.966.176-4.872,1.015-3.357a9.728,9.728,0,0,1,1.393,3.794,33.706,33.706,0,0,1-.218,5.482s-.343,2.017,1.266,2.106c0,0,2.142-5.9,2.521-7.82s-.391-9.259-1.756-12.1C489.016,1287.183,487.773,1285.532,484.742,1287.707Z" transform="translate(-412.173 -1176.363)" fill="#8e684e"/>
        <g id="Grupo_10584" data-name="Grupo 10584" transform="translate(0 33.684)">
          <path id="Trazado_20419" data-name="Trazado 20419" d="M465.973,1190.582l0-.021h0l-.01-.031.007.029c.009.036.024.122.016.076Z" transform="translate(-399.891 -1141.324)" fill="#8e684e"/>
          <path id="Trazado_20420" data-name="Trazado 20420" d="M465.963,1190.46h0v0C465.944,1190.35,465.95,1190.386,465.963,1190.46Z" transform="translate(-399.885 -1141.225)" fill="#8e684e"/>
          <path id="Trazado_20421" data-name="Trazado 20421" d="M444.232,1125.476q-1.519-4.278-3.1-8.533c-1.038-2.808-1.04-5.6-1.927-8.464,0,.056-.79-19.134-.17-28.618-3.091-.07-6.178-.242-9.261-.46l-1.1-.079a2.936,2.936,0,0,0-.627-.047c-.363.083-.193-.207-.342.235a9.915,9.915,0,0,0-.21,2.039q-.2,2.076-.355,4.156a136.956,136.956,0,0,0-.271,18.039c.121,2.07.395,4.608.654,6.446a23.794,23.794,0,0,0,1.932,4.984c1.489,3.229,3.087,6.409,4.718,9.569,3.016,5.842,6.738,11.671,10.281,17.214.729,1.141,1.317,1.893,2.719,1.482a2.77,2.77,0,0,0,1.858-3.408C447.6,1135.128,445.94,1130.29,444.232,1125.476Z" transform="translate(-371.812 -1061.765)" fill="#8e684e"/>
          <path id="Trazado_20422" data-name="Trazado 20422" d="M465.994,1190.636h0Z" transform="translate(-399.917 -1141.401)" fill="#8e684e"/>
          <path id="Trazado_20423" data-name="Trazado 20423" d="M466.03,1190.792l-.007-.072-.027-.077,0-.005h0c.019.106.051.288.045.248Z" transform="translate(-399.916 -1141.401)" fill="#8e684e"/>
          <path id="Trazado_20424" data-name="Trazado 20424" d="M294.12,1219.656a11.606,11.606,0,0,0-15.891,11.579c.158,1.833.761,3.635,1.071,5.449.437,2.562.747,5.145.99,7.731a156.513,156.513,0,0,1,.578,16.391c-.061,5.432-.437,10.854-.945,16.261-.236,2.511-.551,5.011-.863,7.513-.243,1.951-.248,4.542-1.024,6.343-.93,2.16-7.911,16.614-13.728,29.263-3.689,8.023-6.411,16.449-9.467,24.733a2.948,2.948,0,0,0,3.139,3.9c2.5-.349,4.026-3.166,5.01-5,2.511-4.671,28.412-45.245,29.041-47.183.7-2.162,1.373-4.34,2.026-6.518,1.543-5.147,2.462-10.509,3.6-15.761a192.825,192.825,0,0,0,3.726-32.59C301.7,1234.074,302.766,1223.277,294.12,1219.656Z" transform="translate(-248.817 -1161.527)" fill="#8e684e"/>
          <path id="Trazado_20425" data-name="Trazado 20425" d="M398.692,1260.182Z" transform="translate(-350.675 -1190.34)" fill="#8e684e"/>
          <path id="Trazado_20426" data-name="Trazado 20426" d="M419.332,1297.539c-2.619-10.044-6.672-23.764-10.812-33.283-1.538-3.535-3.542-6.55-7.273-8.057a12.009,12.009,0,0,0-14.744,17.416c2.356,3.846,4.993,7.509,7.275,11.413,5.4,9.236,9.231,19.866,14.661,33.808a16.1,16.1,0,0,1,.748,5.1c.6,14.451,7.14,36.085,9.518,46.493.484,2.118.834,4.344,1.483,6.422,1.163,3.728,7.223,1.6,7.1-2.2-.256-7.878-4.162-51.866-4.616-56.743C421.625,1306.666,421.083,1304.256,419.332,1297.539Z" transform="translate(-341.82 -1187.66)" fill="#8e684e"/>
          <path id="Trazado_20427" data-name="Trazado 20427" d="M343.3,1197.048l.054-.236c-10.148-.764-19.619-1.581-29.777-3.257-.082.3-1.489,7.643-3.051,10.651-4.815,9.276-12.718,74.774-12.718,74.774s8.241,7.733,31.456,6.02c10.718-.791,35.028-5.405,35.028-5.405s-3.615-15.994-8.6-34.019C350.129,1225.468,343.144,1202.832,343.3,1197.048Z" transform="translate(-279.661 -1143.488)" fill="#f25512"/>
          <path id="Trazado_20428" data-name="Trazado 20428" d="M525.96,1665.872c-4.046,1.128-11.173-2.064-12.72-4.778l-8.468,1.628a31.962,31.962,0,0,0,2.064,12.6s5.037.005,7.488-1.45,12.432-1.707,16.234-6.9C530.558,1666.98,530.007,1664.745,525.96,1665.872Z" transform="translate(-427.611 -1477.778)" fill="#81a1b9"/>
          <path id="Trazado_20429" data-name="Trazado 20429" d="M530.982,1676.758c-6.121,4.2-14.159,6.331-21.367,6.843a4.862,4.862,0,0,1-.654,0c.249.93.543,1.9.9,2.924,0,0,5.037.005,7.488-1.449s12.432-1.707,16.234-6.9C533.586,1678.179,533.226,1676.737,530.982,1676.758Z" transform="translate(-430.639 -1488.978)" fill="#0d4c5f"/>
          <path id="Trazado_20430" data-name="Trazado 20430" d="M254.594,1661.938c-4-.979-4.292-2.022-5.4-3.844a6.631,6.631,0,0,1-.809-5.607l-7.378-3.425s-3.553,2.963-6.867,9.558a29.176,29.176,0,0,0,12.726,7.192c2.619.6,3.969.787,9.983-.027C256.852,1665.786,258.444,1662.879,254.594,1661.938Z" transform="translate(-234.143 -1469.175)" fill="#81a1b9"/>
          <path id="Trazado_20431" data-name="Trazado 20431" d="M257.1,1683.751c-7.542.846-14.681-1.623-20.91-5.8a4.037,4.037,0,0,1-1.164-1.173c-.295.528-.59,1.074-.884,1.658a29.175,29.175,0,0,0,12.726,7.192c2.619.6,3.969.787,9.983-.027a2.929,2.929,0,0,0,.265-1.856Z" transform="translate(-234.143 -1488.994)" fill="#0d4c5f"/>
          <g id="Grupo_10582" data-name="Grupo 10582" transform="translate(28.83)">
            <path id="Trazado_20432" data-name="Trazado 20432" d="M368.958,1021.525c-2.628-1.218-6.422-3.411-10.017-3.61a32.1,32.1,0,0,0-11.659,1.891c-13.219,4.389-10.647,12.621-9.395,20.3,4.139,25.392-2.587,42.773-2.587,42.773s14.388,6.108,37.784,1.682c0,0-2.164-10.3-2.111-13.117.152-8.12,2.621-31.87,2.621-31.87C374.735,1032.247,375.4,1024.509,368.958,1021.525Z" transform="translate(-335.301 -1017.881)" fill="#fbc500"/>
            <path id="Trazado_20433" data-name="Trazado 20433" d="M397.736,1071.882l.016,0-5.986-17.165-1.22,10.785-20.157-.541a6.7,6.7,0,0,0-6.69,6.684l-.016.56a6.662,6.662,0,0,0,6.285,7.032l20.788.558a6.911,6.911,0,0,0,7.086-7.7S397.8,1072.017,397.736,1071.882Z" transform="translate(-355.592 -1044.217)" fill="#fbc500"/>
          </g>
          <path id="Trazado_20434" data-name="Trazado 20434" d="M373.836,1023.517l-3.084.933s5.915-1.664,6.479,11.987,1.413,23.755,1.413,23.755h3.02s-.953-24.248-2.722-31.464C377.672,1023.553,373.836,1023.517,373.836,1023.517Z" transform="translate(-331.818 -1021.911)" fill="#403c3b"/>
          <path id="Trazado_20435" data-name="Trazado 20435" d="M341.326,1155.766a3.765,3.765,0,0,0-3.76-3.562H313.034a2.95,2.95,0,0,0-2.945,2.785l-.867,15.565a4.579,4.579,0,0,0,4.573,4.818h23.757a4.579,4.579,0,0,0,4.572-4.826Z" transform="translate(-287.82 -1113.922)" fill="#403c3b"/>
          <path id="Trazado_20436" data-name="Trazado 20436" d="M340.68,1187.789c-.579.121-1.242.2-1.961.309l-1.122.164c-.388.051-.784.137-1.2.17-.828.089-1.7.179-2.6.289-.9.083-1.838.125-2.785.209-.948.06-1.914.071-2.879.11-.964,0-1.93.01-2.879-.011-.947-.058-1.885-.044-2.786-.137l-1.329-.1-1.269-.138-.611-.067-.589-.086-1.12-.159c-.712-.133-1.372-.23-1.947-.359-.58-.114-1.08-.236-1.494-.332s-.736-.186-.953-.254-.335-.1-.335-.1.438.215,1.239.516c.4.141.891.322,1.464.485.568.183,1.221.341,1.933.522l1.12.24.591.121.614.1,1.279.205,1.343.151.691.075.7.049c.471.032.949.063,1.43.089.963.031,1.943.036,2.922.04.978-.048,1.957-.07,2.918-.14.959-.086,1.9-.178,2.814-.284.907-.131,1.782-.273,2.611-.405s1.6-.33,2.316-.482,1.37-.3,1.94-.471l1.479-.425,1.282-.386-1.321.222Z" transform="translate(-290.399 -1139.011)" fill="#0c2d48"/>
          <g id="Grupo_10583" data-name="Grupo 10583" transform="translate(14.363 3.136)">
            <path id="Trazado_20437" data-name="Trazado 20437" d="M318.976,1090.793c-2.766-1.707-19.364-12.424-23.364-17.094a183.4,183.4,0,0,1,13.8-25.774c1.559-2.372,3.706-4.6,3.487-7.756-.221-3.186-3.2-5.1-6.387-4.4-2.771.614-4.746,3.3-6.337,5.417a102.9,102.9,0,0,0-6.48,10.7,86.676,86.676,0,0,0-8.774,22.071,4.4,4.4,0,0,0-.23,2.921,4.463,4.463,0,0,0,1.4,2.363,28.73,28.73,0,0,0,4.188,3.477,83.393,83.393,0,0,0,8.612,5.593c5.313,3.058,9.767,4.216,15.408,6.607a2.538,2.538,0,0,0,3.43-1.753C318.017,1091.894,320.006,1091.428,318.976,1090.793Z" transform="translate(-284.54 -1033.704)" fill="#8e684e"/>
            <path id="Trazado_20438" data-name="Trazado 20438" d="M324.493,1028.968a13.255,13.255,0,0,0-7.382,4.337c-2.452,3.262-6.55,9.67-8.579,13.215-.982,1.715-1.925,3.479-2.817,5.276,3.208,1.815,7.751,4.963,11.151,6.4,2.664-5.05,5.923-11.539,9.14-15.133,1.894-2.115,3.706-4.6,3.487-7.756C329.273,1032.117,327.685,1028.261,324.493,1028.968Z" transform="translate(-299.68 -1028.883)" fill="#fbc500"/>
            <rect id="Rectángulo_2342" data-name="Rectángulo 2342" width="18.819" height="7.253" rx="3.626" transform="translate(34.768 67.247) rotate(-66.791)" fill="#0c2d48"/>
            <path id="Trazado_20439" data-name="Trazado 20439" d="M406.435,1226.72a1.668,1.668,0,0,1-1,.395,25.878,25.878,0,0,1-5.744-.944.7.7,0,0,1-.531-.986l.365-.8a19.651,19.651,0,0,0-2.98-.3,41.14,41.14,0,0,0-4.132,1.061l-2.437,4.672a46.774,46.774,0,0,0,5.714,4.2c2.737,1.407,7.713,1.5,7.713,1.5a1.473,1.473,0,0,0,1.114-.581,1.067,1.067,0,0,0,.092-1.339,1.1,1.1,0,0,0,1.011-.785,1.6,1.6,0,0,0-.018-1.346s.8-.491.918-1.055c.2-.954-.073-1.168-.073-1.168a1.853,1.853,0,0,0,.647-.693A1.432,1.432,0,0,0,406.435,1226.72Z" transform="translate(-359.927 -1168.448)" fill="#8e684e"/>
          </g>
        </g>
        <path id="Trazado_20440" data-name="Trazado 20440" d="M365.764,903.978c-3.059,2.226-6.712,21.21,8.89,25.3,5.06,1.328,9.643-7.768,9.643-7.768a16.835,16.835,0,0,0,3.962-9.527C388.711,903.716,379.631,893.884,365.764,903.978Z" transform="translate(-326.323 -899.693)" fill="#0c2d48"/>
        <path id="Trazado_20441" data-name="Trazado 20441" d="M399.35,975.09c-1.115,3.774-2.056,10.3-1.757,11.43,1.451,5.489,12.44,8.612,10.716.922-.769-3.43.172-7.522.416-11.075C409.16,971.812,400.541,971.057,399.35,975.09Z" transform="translate(-350.97 -951.724)" fill="#825f47"/>
        <path id="Trazado_20442" data-name="Trazado 20442" d="M393.287,941.013c-3.235.012-3.874,6.428-3.16,9.583.645,2.85,1.766,6.064,3.688,7.814,3.971,3.615,10.34,3.186,12.591-.019,3.5-4.984-.519-17.958-.519-17.958A100.743,100.743,0,0,1,393.287,941.013Z" transform="translate(-345.483 -928.822)" fill="#8e684e"/>
        <path id="Trazado_20443" data-name="Trazado 20443" d="M409.963,966.484c-1.6.162-5.834,1.249-7.469,1.043.5,3.241-.255,7.579-1.913,8.439a7.384,7.384,0,0,0,.9,1c3.971,3.615,10.34,3.186,12.591-.019,1.687-2.4,1.627-6.66,1.112-10.428A35.767,35.767,0,0,0,409.963,966.484Z" transform="translate(-353.146 -947.374)" fill="#fff"/>
        <path id="Trazado_20444" data-name="Trazado 20444" d="M412.853,971.79c-1.414.143-5.16,1.1-6.606.922-.195,2.347-.447,7.055-2.519,8.05a8.911,8.911,0,0,0,1.514,1.123c3.522,2.342,9.252,1.99,11.242-.844,1.492-2.125,1.623-5.9,1.168-9.235A34.28,34.28,0,0,0,412.853,971.79Z" transform="translate(-355.396 -951.174)" fill="#98ddeb"/>
        <path id="Trazado_20445" data-name="Trazado 20445" d="M345.008,912.9c-3.624,5.715,2.31,19.328,7.254,14.054s1.768-16.5,1.768-16.5A6.484,6.484,0,0,0,345.008,912.9Z" transform="translate(-312.613 -906.719)" fill="#0c2d48"/>
        <path id="Trazado_20446" data-name="Trazado 20446" d="M378.454,960.654c.052,3.225,1.991,5.183,4.439,4.818s-1.186-5.459-1.186-5.459S378.4,957.429,378.454,960.654Z" transform="translate(-337.325 -942.121)" fill="#8e684e"/>
        <path id="Trazado_20447" data-name="Trazado 20447" d="M387.731,960.234l6.917,3.821,1.781-.385-7.939-3.919Z" transform="translate(-343.958 -942.634)" fill="#fff"/>
        <path id="Trazado_20448" data-name="Trazado 20448" d="M389.212,981.458s2.052,4.225,3.24,5.289l.687-.575a22.637,22.637,0,0,1-3.065-4.624Z" transform="translate(-345.017 -958.155)" fill="#fff"/>
      </g>
      <g id="Grupo_10587" data-name="Grupo 10587" transform="translate(752.795 30.884)">
        <path id="Trazado_20449" data-name="Trazado 20449" d="M3094.71,1042.113l18.4,6.449,15.279-25.335-18.4-6.449Z" transform="translate(-3032.244 -973.874)" fill="#fff"/>
        <path id="Trazado_20450" data-name="Trazado 20450" d="M3147.657,1026.8l14.587,5.112.9-1.567-14.587-5.112Z" transform="translate(-3070.101 -979.918)" fill="#d3dde3" style="mix-blend-mode: multiply;isolation: isolate"/>
        <path id="Trazado_20451" data-name="Trazado 20451" d="M3135.328,1047.481l14.51,5.236.9-1.567-14.51-5.235Z" transform="translate(-3061.285 -994.707)" fill="#d3dde3" style="mix-blend-mode: multiply;isolation: isolate"/>
        <path id="Trazado_20452" data-name="Trazado 20452" d="M3115.528,1080.835l14.406,5.355.9-1.566-14.406-5.355Z" transform="translate(-3047.128 -1018.555)" fill="#d3dde3" style="mix-blend-mode: multiply;isolation: isolate"/>
        <path id="Trazado_20453" data-name="Trazado 20453" d="M3131.732,1055.039l14.558,5.011.449-.783-14.559-5.011Z" transform="translate(-3058.715 -1000.671)" fill="#d3dde3" style="mix-blend-mode: multiply;isolation: isolate"/>
        <path id="Trazado_20454" data-name="Trazado 20454" d="M3127.97,1060.976l14.544,5.045.449-.783-14.545-5.045Z" transform="translate(-3056.025 -1004.916)" fill="#d3dde3" style="mix-blend-mode: multiply;isolation: isolate"/>
        <path id="Trazado_20455" data-name="Trazado 20455" d="M3144.008,1034.594l14.587,5.112.449-.783-14.587-5.112Z" transform="translate(-3067.492 -986.053)" fill="#d3dde3" style="mix-blend-mode: multiply;isolation: isolate"/>
        <g id="Grupo_10586" data-name="Grupo 10586">
          <path id="Trazado_20456" data-name="Trazado 20456" d="M2904.085,1047.374a18.12,18.12,0,0,0-4.129-.1,51.706,51.706,0,0,1-11.323-1.182c1.484-5.726,4.02-11.24,6.434-16.621,2.225-4.959,4.571-9.865,6.995-14.73a35.206,35.206,0,0,0,2.24-4.66,8.252,8.252,0,0,0-11.117-10.114c-3.861,1.663-6.29,5.953-7.63,9.546-1.928,5.17-2.355,10.085-4.072,15.33a141.072,141.072,0,0,0-4.657,16.7c-.866,4.428-3.076,10.653,1.521,13.422,3.593,2.163,9.858,1.938,13.863,1.579a77.677,77.677,0,0,0,7.957-1.171c1.839-.359,4.491-.489,5.787-2.02a3.708,3.708,0,0,0-1.869-5.977Z" transform="translate(-2875.53 -961.385)" fill="#f25512"/>
          <path id="Trazado_20457" data-name="Trazado 20457" d="M2916.325,1053.4a18.115,18.115,0,0,0-4.128-.1,51.7,51.7,0,0,1-11.324-1.182c1.484-5.726,4.021-11.24,6.435-16.622,2.225-4.959,4.571-9.865,6.994-14.73a35.29,35.29,0,0,0,2.241-4.659,8.3,8.3,0,0,0-.448-6.176,8.032,8.032,0,0,0-1.587-2.191,34.171,34.171,0,0,1-4.506,8.716c-2.459,6.128-5.1,12.187-7.251,18.431-.328,1.436-.733,2.848-1.188,4.247-.05,3.559-5.683,17.734-7.4,20.35a7.264,7.264,0,0,1-1.512,2.413c3.616,1.17,8.483.968,11.8.671a77.759,77.759,0,0,0,7.957-1.171c1.839-.359,4.491-.488,5.787-2.02a3.707,3.707,0,0,0-1.869-5.977Z" transform="translate(-2887.77 -967.416)" fill="#d94c10"/>
          <path id="Trazado_20458" data-name="Trazado 20458" d="M2963.64,881.894c-4.5,4.429,3.974,22.556,3.974,22.556s3.407,3.6,11.174,4.021c8.858.477,4.492-25.655,4.492-25.655S2967.154,878.436,2963.64,881.894Z" transform="translate(-2937.586 -876.482)" fill="#e8aa85"/>
          <path id="Trazado_20459" data-name="Trazado 20459" d="M3021.7,925.051c1.473,4.109.976,6.838-2.552,10.323a30.525,30.525,0,0,1,1.275,4.566c5.38.075,4.767-8.706,4.512-15.253C3023.436,924.625,3021.6,924.775,3021.7,925.051Z" transform="translate(-2978.218 -908.02)" fill="#fff"/>
          <path id="Trazado_20460" data-name="Trazado 20460" d="M3025.883,929.447c1.368,3.574.242,7.358-2.584,10.15a22.551,22.551,0,0,1,1.043,3.569c4.453-.645,3.807-8.548,3.6-13.792C3026.742,929.322,3025.8,929.227,3025.883,929.447Z" transform="translate(-2981.184 -911.334)" fill="#98ddeb"/>
          <path id="Trazado_20461" data-name="Trazado 20461" d="M2984.992,961.856c-.044-.208-.1-.517-.162-.891-.124-.752-.266-1.785-.381-2.838s-.21-2.118-.274-2.916-.1-1.318-.1-1.318l-.008-.124a4.39,4.39,0,0,0-3.781-3.671c-2.7-.554-5.442.75-6.134,2.912,0,0-.177.555-.443,1.388s-.595,1.928-.908,3.047-.6,2.257-.8,3.137c-.1.442-.179.812-.229,1.08l-.082.417-.028.132a4.38,4.38,0,0,0,.006,1.668c.583,2.965,4.053,4.99,7.75,4.522s6.222-3.25,5.639-6.215Z" transform="translate(-2944.209 -926.107)" fill="#e8aa85"/>
          <path id="Trazado_20462" data-name="Trazado 20462" d="M2978.373,868.321c-3.363-1.142-7.841-3.017-14.889-1.532-3.715.783-6.974,5.7-7.343,10.825-.71,9.88,3.676,16.708,6,18.482,2.069,1.581,7.4.856,7.4.856s3.843-8.272,2.562-9.681-.413-6.023,1.048-5.923a3.048,3.048,0,0,1,1.923.583s1.312-4.813,4.253-5.533a2.765,2.765,0,0,0,1.692-1.45A4.647,4.647,0,0,0,2978.373,868.321Z" transform="translate(-2933.112 -866.24)" fill="#0c2d48"/>
          <path id="Trazado_20463" data-name="Trazado 20463" d="M3006.06,1266.729c-.228-6.5-.427-13-.639-19.5a12.313,12.313,0,1,0-24.379,2.816c.73,3.841,1.508,7.673,2.246,11.513,1.3,6.753,5.739,24.838,9.462,44.615.539,2.861.628,16.714,1.126,20.633,1.307,10.3,2.546,19.758,3.686,30.076.183,1.659.332,3.324.535,4.981a4.609,4.609,0,0,0,2.615,3.719,4.554,4.554,0,0,0,5.217-1.067,5.253,5.253,0,0,0,1.17-3.8c-.023-9.615.028-19.23.078-28.845.056-10.908.74-21.812.466-32.718C3007.371,1288.34,3006.439,1277.533,3006.06,1266.729Z" transform="translate(-2950.811 -1130.129)" fill="#0f3c5f"/>
          <path id="Trazado_20464" data-name="Trazado 20464" d="M2917.169,1235.8a12.387,12.387,0,0,0-7.232,6.365c-1.175,2.451-1.2,4.966-1.191,7.607.037,8.842-.59,17.683-.677,26.524-.048,4.827-.341,26.937-.513,28.546-.514,4.8-1.978,14.494-2.309,19.3-.642,9.335-1.06,31.7-1.242,34.853-.1,1.719-.392,3.478.631,5.007a4.544,4.544,0,0,0,7.92-.808,20.116,20.116,0,0,0,.793-4.447c.321-2.122.657-4.241.99-6.361q2.131-13.6,4.641-27.147c.87-4.655,1.764-9.31,2.78-13.935.268-1.222.546-2.446.847-3.661.1-.393.2-.786.3-1.179.069-.276.136-.553.208-.828.015-.059.1-.492.063-.226.271-1.919.8-3.842,1.159-5.75,3.1-16.646,5.8-33.369,8.78-50.037a12.282,12.282,0,0,0-15.944-13.829Z" transform="translate(-2895.808 -1130.046)" fill="#0f3c5f"/>
          <path id="Trazado_20465" data-name="Trazado 20465" d="M2921.98,1230.121s-.538,7.907-.765,10.864c-.5,6.541,11.32,12.8,20.876,13.662h0c9.555.867,20.251-1.968,20.844-8.5l-.511-16.1Z" transform="translate(-2908.184 -1126.357)" fill="#0f3c5f"/>
          <path id="Trazado_20466" data-name="Trazado 20466" d="M3060.229,1682.234c-4.028-.358-13.411-4.737-13.411-4.737l-9.361-.007c-2.635,9.53-.01,9.441-.01,9.441l27.892.029S3066.478,1682.788,3060.229,1682.234Z" transform="translate(-2990.469 -1446.284)" fill="#0c2d48"/>
          <path id="Trazado_20467" data-name="Trazado 20467" d="M2914.65,1682.5c-1.117-.024-5.276-4.752-5.276-4.752l-8.594-.009c-2.76,7.331-.01,9.441-.01,9.441l18.988.047S2920.921,1682.638,2914.65,1682.5Z" transform="translate(-2892.706 -1446.463)" fill="#0c2d48"/>
          <path id="Trazado_20468" data-name="Trazado 20468" d="M2934.888,989.673c-9.386,0-16.911,2.33-19.69,6.578-4.63,7.081-.216,18.414.375,25.68,1.389,17.066,1.8,19.835-.484,49.071,0,0,13.357,1.867,22.158,1.817,8.534-.048,19.979-.665,19.979-.665s-.163-29.368.883-51.2C2958.628,1010.162,2967.307,989.669,2934.888,989.673Z" transform="translate(-2902.397 -954.494)" fill="#f25512"/>
          <path id="Trazado_20469" data-name="Trazado 20469" d="M3011.123,938.173l2.288,6.854,1.026-.277-2.494-5.771Z" transform="translate(-2972.479 -917.672)" fill="#fff"/>
          <path id="Trazado_20470" data-name="Trazado 20470" d="M3021.295,919.772l2.023,1.831.848-.536-2.3-1.548Z" transform="translate(-2979.752 -904.335)" fill="#fff"/>
          <path id="Trazado_20471" data-name="Trazado 20471" d="M3010.409,917.311c-1.532.249-2.25,5.86-.005,7.214s2.9-5.07,2.58-5.9A3.007,3.007,0,0,0,3010.409,917.311Z" transform="translate(-2970.945 -902.737)" fill="#e8aa85"/>
        </g>
        <path id="Trazado_20472" data-name="Trazado 20472" d="M3150.771,1089.64a5.649,5.649,0,0,1-3.887,2.047,1.085,1.085,0,0,1-1.2-1.289,7.914,7.914,0,0,1,.924-2.505,1.824,1.824,0,0,0-.328-2.655,27.424,27.424,0,0,0-4.272,7.312c-1.355,3.839-.467,6.1-.467,6.1l4.879,2.1s4.906-4.493,6-5.866c1.028-1.3.373-4.984,1.087-6.522a4.823,4.823,0,0,0,.384-3.66A49.656,49.656,0,0,1,3150.771,1089.64Z" transform="translate(-3065.523 -1022.437)" fill="#e8aa85"/>
        <path id="Trazado_20473" data-name="Trazado 20473" d="M3158.158,1133.37l.038.037Z" transform="translate(-3077.609 -1057.238)" fill="#f25512"/>
        <path id="Trazado_20474" data-name="Trazado 20474" d="M3155.846,1131.1l.08.079Z" transform="translate(-3075.956 -1055.613)" fill="#f25512"/>
        <path id="Trazado_20475" data-name="Trazado 20475" d="M3156.129,1131.376l.066.065Z" transform="translate(-3076.158 -1055.812)" fill="#f25512"/>
        <path id="Trazado_20476" data-name="Trazado 20476" d="M3155.829,1131.08Z" transform="translate(-3075.939 -1055.596)" fill="#f25512"/>
        <path id="Trazado_20477" data-name="Trazado 20477" d="M3156.969,1132.2l-.16-.158.16.158Z" transform="translate(-3076.644 -1056.289)" fill="#f25512"/>
        <path id="Trazado_20478" data-name="Trazado 20478" d="M3156.362,1131.6l.076.075Z" transform="translate(-3076.325 -1055.976)" fill="#f25512"/>
        <path id="Trazado_20479" data-name="Trazado 20479" d="M3156.629,1131.867l.051.05Z" transform="translate(-3076.516 -1056.163)" fill="#f25512"/>
        <path id="Trazado_20480" data-name="Trazado 20480" d="M3056.29,1042.328a3.75,3.75,0,0,0-3.684-.906c-1.1.333-7.953,5.218-10.663,7.28-1.677-5.549-2.741-9.621-4.066-15.265-1.279-5.449-2.528-10.9-4.169-16.25-1.136-3.7-1.856-7.927-5.6-9.906a8.252,8.252,0,0,0-12.011,8.536,20.7,20.7,0,0,0,1.809,4.845c2.176,5.079,4.063,10.24,5.871,15.459q2.889,8.34,6.255,16.495c.859,2.083,1.737,4.262,2.635,6.285a7.827,7.827,0,0,0,3.9,4.047c5.178,2.27,9.839-2.2,12.929-5.831,1.7-2,3.263-4.109,4.757-6.264q1.045-1.507,2.042-3.047a5.386,5.386,0,0,0,1.1-2.57,3.739,3.739,0,0,0-1.1-2.907Z" transform="translate(-2975.966 -966.416)" fill="#f25512"/>
        <path id="Trazado_20481" data-name="Trazado 20481" d="M3158.291,1133.5Z" transform="translate(-3077.704 -1057.331)" fill="#f25512"/>
        <path id="Trazado_20482" data-name="Trazado 20482" d="M3157.371,1132.6h0Z" transform="translate(-3077.046 -1056.685)" fill="#f25512"/>
        <path id="Trazado_20483" data-name="Trazado 20483" d="M3157.373,1132.6l.223.22-.224-.22Z" transform="translate(-3077.047 -1056.685)" fill="#f25512"/>
      </g>
      <g id="Grupo_10588" data-name="Grupo 10588" transform="translate(79.755 88.468)" opacity="0.8">
        <path id="Trazado_20484" data-name="Trazado 20484" d="M673.094,1072.614H524.018v-4.327l-10.033,6.5,10.033,6.5v-4.327H673.094v4.327l10.033-6.5-10.033-6.5Z" transform="translate(-513.985 -1068.287)" fill="#f25512"/>
        <path id="Trazado_20485" data-name="Trazado 20485" d="M1534.035,1078.294H1381.144v-4.327l-10.033,6.5,10.033,6.5v-4.327h152.892v4.327l10.033-6.5-10.033-6.5Z" transform="translate(-1126.83 -1072.349)" fill="#f25512"/>
        <path id="Trazado_20486" data-name="Trazado 20486" d="M2364.329,1072.614H2211.438v-4.327l-10.033,6.5,10.033,6.5v-4.327h152.891v4.327l10.033-6.5-10.033-6.5Z" transform="translate(-1720.49 -1068.287)" fill="#f25512"/>
      </g>
      <g id="Grupo_10596" data-name="Grupo 10596" transform="translate(483.202 36.935)">
        <path id="Trazado_20487" data-name="Trazado 20487" d="M2035.264,958.332s-.78,21.278-.006,25.328l27.384-.979-2.153-23.643Z" transform="translate(-2004.897 -938.137)" fill="#5e403b"/>
        <path id="Trazado_20488" data-name="Trazado 20488" d="M2183.249,1293.722a7.936,7.936,0,0,0-1.135,4.713c.124,2.974.773,6.941.79,8.189l.017,1.248s1.924.919,1.945-2.079.529-6.151,1.464-4.754,1.943,3.894,1.729,4.937-.591,5.363-.591,5.363-.167,1.979,1.4,1.933c0,0,1.589-5.881,1.8-7.768s-1.135-8.922-2.688-11.557C2187.339,1292.865,2186,1291.37,2183.249,1293.722Z" transform="translate(-2110.138 -1177.047)" fill="#e8aa85"/>
        <g id="Grupo_10595" data-name="Grupo 10595">
          <path id="Trazado_20489" data-name="Trazado 20489" d="M1984.9,1284.843l6.264-1.591,1.62-11.456-7.641.557S1985.246,1284.525,1984.9,1284.843Z" transform="translate(-1969.133 -1162.263)" fill="#e8aa85"/>
          <g id="Grupo_10591" data-name="Grupo 10591" transform="translate(24.79)">
            <path id="Trazado_20490" data-name="Trazado 20490" d="M2125.655,1078.194l-.026-.018C2125.64,1078.189,2125.65,1078.2,2125.655,1078.194Z" transform="translate(-2094.547 -1023.825)" fill="#fbc500"/>
            <path id="Trazado_20491" data-name="Trazado 20491" d="M2132.208,1076.511c-2.673-12.385-1.958-20.621-2.88-35.93-.651-10.8-2.857-14.149-7.494-17.763-3.7-2.935-8.07-.173-10.425,3.91-2.434,4.221-.408,8.526,3.293,10.992-.027-.03-.062-.085-.067-.089,3.516,1.4,3.614,9.515,3.787,12.526.191,3.336-.167,6.773.286,10.085.89,6.5,3.015,13.107,4.813,19.385,1.4,4.9,5.625,16.544,7.067,21.431.544,1.846,6.55.027,6.087-1.7C2135.652,1095.543,2133.333,1081.726,2132.208,1076.511Z" transform="translate(-2083.621 -983.37)" fill="#fbc500"/>
            <path id="Trazado_20492" data-name="Trazado 20492" d="M2144.637,1092.128c-.418.026-.836.055-1.254.089a37.2,37.2,0,0,1-7.806.208c-.062-.008-.124-.019-.184-.032a42.817,42.817,0,0,1,.938,8.2c.191,3.336-.168,6.773.285,10.085.89,6.5,3.015,13.107,4.813,19.384,1.4,4.9,5.625,16.544,7.067,21.432.146.5.688.726,1.392.765-1.407-2.578-3.76-42.534-3.919-47.953A84.333,84.333,0,0,0,2144.637,1092.128Z" transform="translate(-2101.528 -1033.801)" opacity="0.08"/>
            <path id="Trazado_20493" data-name="Trazado 20493" d="M2048.353,1001.977c-16.15,1.191-18.014,22.009-17.584,27.082.865,10.219,2.3,17.29,3.482,25.235.71,4.784-1.969,12.223-2.338,22.825l31.613.578s-.972-24.766,1.952-42.728C2067.179,1024.512,2062.762,1000.914,2048.353,1001.977Z" transform="translate(-2026.684 -969.318)" fill="#ededed"/>
            <path id="Trazado_20494" data-name="Trazado 20494" d="M2094.214,1261.828c-1.82,3.47-.826,7.188-.326,10.841.685,5.005.823,10.02,1.415,15.037,2.28,19.347,3.92,38.635,4.432,58.092.246,9.383.442,18.768.643,28.152.037,1.7-.222,3.761.782,5.246,2.356,3.481,7.112,1.563,7.735-2.039,1.468-8.475,1.649-17.369,2.386-25.929.818-9.508,1.593-19.027,2.134-28.555a567.289,567.289,0,0,0,.206-56.735C2113.169,1255.927,2098.9,1252.891,2094.214,1261.828Z" transform="translate(-2071.335 -1151.348)" fill="#128397"/>
            <path id="Trazado_20495" data-name="Trazado 20495" d="M2024.1,1270.843c-2.187,3.425-1.409,7.036-.9,10.786.74,5.414,1.367,10.847,1.92,16.284,1.825,17.942,2.089,35.788,2.02,53.8q-.055,14.131-.138,28.261a28.46,28.46,0,0,0,.023,5.03c.677,3.764,6.25,2.7,8.049-.788,1.364-2.642,7.018-40.548,8.032-50.8,1.846-18.659,3.348-37.055,2.5-55.788C2045.167,1268.128,2029.23,1262.8,2024.1,1270.843Z" transform="translate(-2020.907 -1158.774)" fill="#128397"/>
            <path id="Trazado_20496" data-name="Trazado 20496" d="M2024.823,1252.249l-.9,9.045c-.592,6.378,7.878,12.25,17.206,13.116l2.113,1.71c15.268,1.235,18.294-6.721,18.885-13.1l-1.3-12.7Z" transform="translate(-2021.805 -1146.908)" fill="#128397"/>
            <path id="Trazado_20497" data-name="Trazado 20497" d="M2135,1683.108c-3.286-.355-10.292-4.644-10.292-4.644l-7.861-.021a28.539,28.539,0,0,0-1.021,6.635,10.557,10.557,0,0,0,.575,2.584l22.759.069S2140.1,1683.659,2135,1683.108Z" transform="translate(-2087.538 -1453.016)" fill="#0d4c5f"/>
            <path id="Trazado_20498" data-name="Trazado 20498" d="M2047.713,1683.1c-2.27-.352-4.349-4.633-4.349-4.633l-7.825-.015a22.329,22.329,0,0,0-1.311,5.832c0,2.808.628,3.386.628,3.386l15.726.048S2051.235,1683.647,2047.713,1683.1Z" transform="translate(-2029.196 -1453.024)" fill="#0d4c5f"/>
            <path id="Trazado_20499" data-name="Trazado 20499" d="M2035.946,1020.247c-1.179-5.126-3.217-11.352-3.007-12.1-21.975,5.781-15.781,19.468-14.9,29.987.689,8.186,5.589,15.4,3.852,24.059-1.946,9.7-4.575,24.786-5.2,32.548,7.852.025,14.947.249,22.764-.492-.1-17.71-.923-41.613-.913-48.925C2038.564,1029.414,2039.057,1033.775,2035.946,1020.247Z" transform="translate(-2016.57 -973.752)" fill="#fbc500"/>
            <path id="Trazado_20500" data-name="Trazado 20500" d="M2024.387,1122.007c.324-1.362.651-2.724,1.02-4.075.806-2.95,2.952-16.083,3.392-19.007-3.241-.967-5.934-1.652-9.252-2.33.252,1.637.494,3.242.624,4.779C2020.767,1108.458,2024.513,1114.811,2024.387,1122.007Z" transform="translate(-2018.699 -1036.995)" opacity="0.08"/>
            <path id="Trazado_20501" data-name="Trazado 20501" d="M2134.014,1073.4c-.6-18.487-.787-24.8-1.467-32.7-1.647-19.106,3.788-26.342-14.711-34.355a3.114,3.114,0,0,1,.184.337c2.745,5.994,5.133,20.053,5.979,26.525.819,6.267,2.115,38.39,1.923,60.244,3.373.335,5.177.8,8.093,0C2133.943,1091.543,2134.077,1075.341,2134.014,1073.4Z" transform="translate(-2088.975 -972.467)" fill="#fbc500"/>
            <path id="Trazado_20502" data-name="Trazado 20502" d="M2086.918,976.658l-.055-.4c-.033-.257-.088-.616-.159-1.039-.142-.849-.361-1.946-.612-3.016s-.529-2.12-.75-2.906c-.114-.395-.209-.724-.275-.954l-.083-.282-.029-.1a3.841,3.841,0,0,0-4.38-3.146,3.751,3.751,0,0,0-3.255,4.233s0,.039,0,.085,0,.13-.009.229c-.008.21-.02.51-.034.87-.034.724-.091,1.694-.18,2.646s-.2,1.883-.312,2.556c-.054.337-.1.612-.14.8s-.056.3-.056.3a5.013,5.013,0,0,0-.04,1.584,5.21,5.21,0,0,0,5.886,4.353,5.1,5.1,0,0,0,4.5-5.69Z" transform="translate(-2059.42 -942.746)" fill="#d99a73"/>
            <path id="Trazado_20503" data-name="Trazado 20503" d="M2049.02,906.465c-2.959,5.41,10.073,19.966,10.073,19.966s4.545,4.824,11.58.61c8.835-5.293-3.032-25.249-3.032-25.249S2051.33,902.243,2049.02,906.465Z" transform="translate(-2039.459 -897.71)" fill="#e8aa85"/>
            <path id="Trazado_20504" data-name="Trazado 20504" d="M2099.919,945.174a56.06,56.06,0,0,0-7.964,2.613,6.1,6.1,0,0,1,.2.706,27.483,27.483,0,0,1,.566,5.681,7.493,7.493,0,0,1-1.411,4.386c1.922,1.075,5.767,2.155,10.276-.546,3.666-2.2,3.78-7.367,2.129-12.324C2103.7,945.69,2103.063,944.62,2099.919,945.174Z" transform="translate(-2070.008 -928.615)" fill="#fff"/>
            <path id="Trazado_20505" data-name="Trazado 20505" d="M2103.606,951.249c-2.33.411-6.189,1.532-6.606,1.918a37.277,37.277,0,0,1,.482,5.606,10.106,10.106,0,0,1-1.814,4.712,9.8,9.8,0,0,0,9.521-.568c3.232-1.936,3.577-6.844,2.122-11.215C2107.3,951.7,2106.379,950.76,2103.606,951.249Z" transform="translate(-2073.125 -932.971)" fill="#98ddeb"/>
            <path id="Trazado_20506" data-name="Trazado 20506" d="M2056.372,888.267c-5.946-1.705-12.054-.723-16.5,3.456-6.686,6.287-6.2,25.517,1.46,29.289,5.833,2.873,7.385-5.344,7.385-5.344l-.552-4.811c-1.089.664-2.839-.741-2.876-3.97s4.191.189,4.191.189-.961-4.277-.216-6.354,12.688-4.176,12.688-4.176S2062.118,889.915,2056.372,888.267Z" transform="translate(-2029.89 -887.471)" fill="#5e403b"/>
            <g id="Grupo_10590" data-name="Grupo 10590" transform="translate(20.326 75.54)">
              <g id="Grupo_10589" data-name="Grupo 10589">
                <path id="Trazado_20507" data-name="Trazado 20507" d="M2087.906,1152.524l-.014.028C2087.923,1152.536,2087.906,1152.524,2087.906,1152.524Z" transform="translate(-2087.891 -1152.524)" fill="#ffba94"/>
              </g>
            </g>
            <path id="Trazado_20508" data-name="Trazado 20508" d="M2105.068,1000.385s.259,5.732-3.036,7.379l3.842,2.914a23.677,23.677,0,0,0,1.925-4.306,8.154,8.154,0,0,0-.54-3.776Z" transform="translate(-2077.676 -968.205)" opacity="0.1"/>
            <path id="Trazado_20509" data-name="Trazado 20509" d="M2076.705,1019.87l1.064-3.924-9.671-4.118C2070.653,1019.641,2076.705,1019.87,2076.705,1019.87Z" transform="translate(-2053.413 -976.386)" opacity="0.1"/>
            <path id="Trazado_20510" data-name="Trazado 20510" d="M2104.778,998.345s.549,6.217-2.745,7.864l3.551,2.43a23.626,23.626,0,0,0,1.925-4.306,8.374,8.374,0,0,0-.313-3.548Z" transform="translate(-2077.676 -966.746)" fill="#ededed"/>
            <path id="Trazado_20511" data-name="Trazado 20511" d="M2070.329,997.25l-3.251,3.573c2.555,7.814,8.607,8.043,8.607,8.043l1.354-3.44C2071.111,1004.932,2070.329,997.25,2070.329,997.25Z" transform="translate(-2052.683 -965.963)" fill="#ededed"/>
          </g>
          <g id="Grupo_10594" data-name="Grupo 10594" transform="translate(0 110.069)">
            <g id="Grupo_10593" data-name="Grupo 10593" transform="translate(0 16.467)">
              <g id="Grupo_10592" data-name="Grupo 10592" transform="translate(12.944)">
                <path id="Trazado_20512" data-name="Trazado 20512" d="M1986.965,1331.46h-9.483a2.459,2.459,0,0,0-2.478,2.434v9.315a2.459,2.459,0,0,0,2.478,2.434h9.483a2.459,2.459,0,0,0,2.478-2.434v-9.315A2.459,2.459,0,0,0,1986.965,1331.46Zm.077,11.749a.076.076,0,0,1-.077.075h-9.483a.076.076,0,0,1-.076-.075v-9.315a.076.076,0,0,1,.076-.075h9.483a.076.076,0,0,1,.077.075Z" transform="translate(-1975.004 -1331.46)" fill="#0d4c5f"/>
              </g>
              <path id="Trazado_20513" data-name="Trazado 20513" d="M1968.673,1363.539c-.128-2.334-2.905-4.18-6.287-4.18h-25.27c-3.382,0-6.158,1.846-6.286,4.18l-1.237,22.542c-.135,2.462,2.719,4.509,6.287,4.509h27.744c3.568,0,6.421-2.047,6.286-4.509Z" transform="translate(-1929.588 -1351.408)" fill="#0d4c5f"/>
            </g>
            <path id="Trazado_20514" data-name="Trazado 20514" d="M1985.788,1274.837c-1.1,4.157.057,9.9.057,9.9l6.7-.2-.682-10.815S1986.184,1273.343,1985.788,1274.837Z" transform="translate(-1969.431 -1273.68)" fill="#e8aa85"/>
            <path id="Trazado_20515" data-name="Trazado 20515" d="M1989.226,1300.295c-2.624-3.626-7.128,0-7.128,0s-1.746,5.3-1.638,6.61a10.125,10.125,0,0,0,1.7,4.293c.77,1.363,2.936,1.264,5.062,1.344,2.38.089,3.812-.926,3.57-1.994a1.522,1.522,0,0,1-1.447-1.123,2.338,2.338,0,0,1,.444-1.4h1.7a7.755,7.755,0,0,0-.44-3.781A14.137,14.137,0,0,0,1989.226,1300.295Z" transform="translate(-1965.958 -1291.557)" fill="#e8aa85"/>
          </g>
          <path id="Trazado_20516" data-name="Trazado 20516" d="M1997.781,1025.649c-2.652,1.834-3.412,5.05-4.358,7.921q-1.785,5.417-3.185,10.947c-3.162,12.37-4.672,25.054-5.56,37.761a192.166,192.166,0,0,0-.549,20.557c.073,2.284,7.181,2.457,7.51.468,1.119-6.779,5.189-30.774,6.607-36.6,2.613-10.722,5.843-21.389,11.06-31.181C2012.875,1028.5,2004.417,1021.061,1997.781,1025.649Z" transform="translate(-1968.526 -985.257)" fill="#fbc500"/>
          <path id="Trazado_20517" data-name="Trazado 20517" d="M1970.752,1414.4c-.463.089-1.032.166-1.673.282-.32.06-.664.1-1.025.159s-.735.124-1.132.17l-1.229.166c-.424.055-.864.1-1.314.154s-.913.1-1.386.142l-.715.068-.73.054c-.491.04-.99.073-1.5.1s-1.017.05-1.532.071c-1.031.039-2.078.057-3.126.05-.524,0-1.048-.012-1.57-.018-.521-.028-1.042-.024-1.558-.054-1.032-.05-2.048-.105-3.032-.185-.493-.029-.974-.091-1.45-.122l-1.389-.142c-.9-.093-1.758-.2-2.549-.3s-1.517-.208-2.161-.309-1.208-.19-1.674-.268c-.931-.153-1.468-.259-1.468-.259s.114.076.336.2.549.316.978.526a28.606,28.606,0,0,0,3.664,1.5c.779.256,1.63.516,2.543.743s1.884.442,2.9.611c.506.09,1.024.167,1.549.231s1.058.127,1.6.175,1.082.084,1.629.113c.547.013,1.1.038,1.646.042,1.1-.006,2.2-.031,3.278-.127l.805-.066c.267-.027.531-.065.794-.1l.784-.1c.26-.034.515-.085.769-.127.508-.087,1.008-.166,1.491-.282s.959-.2,1.413-.329.9-.233,1.323-.365l1.22-.394c.774-.276,1.477-.542,2.088-.808s1.138-.5,1.561-.73.751-.407.975-.528l.34-.194-.389.06C1971.586,1414.254,1971.215,1414.31,1970.752,1414.4Z" transform="translate(-1935.991 -1264.047)" fill="#0b3f4f"/>
        </g>
        <path id="Trazado_20518" data-name="Trazado 20518" d="M2082.889,953.971l2.678.47,1.756-1.328-5.321.24Z" transform="translate(-2038.564 -934.405)" fill="#fff"/>
        <path id="Trazado_20519" data-name="Trazado 20519" d="M2078.837,969.529a1.307,1.307,0,0,1-.742.152s1.2,4.13,3.766,6.407l.914-.694A16.644,16.644,0,0,1,2078.837,969.529Z" transform="translate(-2035.771 -946.142)" fill="#fff"/>
      </g>
    </g>
    <rect id="Rectángulo_2343" data-name="Rectángulo 2343" width="1140" height="16.935" transform="translate(0 1028.945)" fill="#7cb6bf"/>
  </g>
</svg>
