<svg xmlns="http://www.w3.org/2000/svg" width="661.738" height="492" viewBox="0 0 661.738 492">
  <g id="Grupo_18710" data-name="Grupo 18710" transform="translate(-538 -3887)">
    <path id="Trazado_34892" data-name="Trazado 34892" d="M73,0A73,73,0,1,1,0,73,73,73,0,0,1,73,0Z" transform="translate(538 3887)" fill="#f56b6b"/>
    <path id="Trazado_34895" data-name="Trazado 34895" d="M73,0A73,73,0,1,1,0,73,73,73,0,0,1,73,0Z" transform="translate(538 4060)" fill="#f5c06b"/>
    <path id="Trazado_34898" data-name="Trazado 34898" d="M73,0A73,73,0,1,1,0,73,73,73,0,0,1,73,0Z" transform="translate(538 4233)" fill="#52c368"/>
    <path id="Trazado_34893" data-name="Trazado 34893" d="M11.881,5.478h3.427L9.571,21H6.026L.322,5.478H3.738L7.81,17.24Zm11.5,15.737A8.033,8.033,0,0,1,21,20.876a5.626,5.626,0,0,1-1.917-1.015,4.543,4.543,0,0,1-1.294-1.772,6.388,6.388,0,0,1-.467-2.524V5.478h3.223v9.646a3.374,3.374,0,0,0,.779,2.46,2.784,2.784,0,0,0,2.068.784,2.81,2.81,0,0,0,2.079-.79,3.348,3.348,0,0,0,.79-2.455V5.478h3.223V15.564a6.388,6.388,0,0,1-.467,2.524,4.519,4.519,0,0,1-1.3,1.772,5.685,5.685,0,0,1-1.923,1.015A8.071,8.071,0,0,1,23.386,21.215Zm13.009-3.062h4.866V21H33.172V5.478h3.223ZM54.323,5.478h3.212V21H53.808L46.933,9.9V21H43.721V5.478h3.685L54.323,16.51ZM70.555,8.313H64.8v3.523h5.1v2.8H64.8v3.513h5.758V21h-9V5.478h9ZM82.07,21l-4.039-6.832H77.1V21H73.874V5.478H79.5a6.511,6.511,0,0,1,2.256.36,3.9,3.9,0,0,1,1.563,1A4.278,4.278,0,0,1,84.2,8.3a5.363,5.363,0,0,1,.3,1.815,3.791,3.791,0,0,1-.849,2.551,4.277,4.277,0,0,1-2.438,1.337L85.884,21ZM77.1,8.152v3.706H79q2.417,0,2.417-1.848a1.682,1.682,0,0,0-.591-1.364A2.809,2.809,0,0,0,79,8.152ZM98.764,21l-1.128-3.2H91.115L89.987,21h-3.3L92.4,5.478h3.942L102.062,21Zm-6.7-5.9h4.63l-2.31-6.585Zm20.668-2.3a3.631,3.631,0,0,1,2.922,3.846,4.168,4.168,0,0,1-1.235,3.185A5.1,5.1,0,0,1,110.784,21h-6.392V5.478h5.027a5.7,5.7,0,0,1,3.8,1.123,3.894,3.894,0,0,1,1.316,3.131,3.652,3.652,0,0,1-.457,1.842A3.007,3.007,0,0,1,112.729,12.8Zm-3.276-4.651H107.5V11.8h2.095a1.962,1.962,0,0,0,1.482-.516,1.875,1.875,0,0,0,.494-1.354,1.666,1.666,0,0,0-.537-1.294A2.273,2.273,0,0,0,109.452,8.152Zm.73,10.087a2.475,2.475,0,0,0,1.778-.548,1.863,1.863,0,0,0,.564-1.4,1.951,1.951,0,0,0-.569-1.439,2.519,2.519,0,0,0-1.837-.569H107.5v3.953ZM118.519,21V5.478h3.223V21Zm10.452-2.847h4.866V21h-8.089V5.478h3.223ZM136.3,21V5.478h3.223V21Zm7.229,0V5.478h5.618a8.759,8.759,0,0,1,3.239.559,5.966,5.966,0,0,1,2.32,1.584,6.893,6.893,0,0,1,1.375,2.444,10.09,10.09,0,0,1,.467,3.169,10.127,10.127,0,0,1-.467,3.18,6.893,6.893,0,0,1-1.375,2.444,5.966,5.966,0,0,1-2.32,1.584,8.759,8.759,0,0,1-3.239.559Zm3.223-2.847h2.234a3.813,3.813,0,0,0,3.137-1.262,5.657,5.657,0,0,0,1.031-3.658,5.657,5.657,0,0,0-1.031-3.658,3.813,3.813,0,0,0-3.137-1.262h-2.234ZM169.179,21l-1.128-3.2H161.53L160.4,21h-3.3l5.715-15.522h3.942L172.477,21Zm-6.7-5.9h4.63L164.8,8.518ZM174.808,21V5.478h5.618a8.759,8.759,0,0,1,3.239.559,5.966,5.966,0,0,1,2.32,1.584,6.893,6.893,0,0,1,1.375,2.444,10.09,10.09,0,0,1,.467,3.169,10.127,10.127,0,0,1-.467,3.18,6.893,6.893,0,0,1-1.375,2.444,5.966,5.966,0,0,1-2.32,1.584,8.759,8.759,0,0,1-3.239.559Zm3.223-2.847h2.234a3.813,3.813,0,0,0,3.137-1.262,5.657,5.657,0,0,0,1.031-3.658A5.657,5.657,0,0,0,183.4,9.576a3.813,3.813,0,0,0-3.137-1.262H178.03Z" transform="translate(738 3924)" fill="#00223d"/>
    <path id="Trazado_34894" data-name="Trazado 34894" d="M10.28,5.875V7.626H6.4V21H4.49V7.626H.6V5.875ZM13.267,12.3a3.192,3.192,0,0,1,1.311-1.418,3.947,3.947,0,0,1,2.03-.559v1.751a3.479,3.479,0,0,0-2.455.784,3.276,3.276,0,0,0-.843,2.5V21H11.451V10.44h1.815ZM21.1,21.2a3.593,3.593,0,0,1-2.315-.725,2.6,2.6,0,0,1-.908-2.165,3.076,3.076,0,0,1,.29-1.38,2.433,2.433,0,0,1,.859-.961,5.155,5.155,0,0,1,1.241-.6A11.469,11.469,0,0,1,21.871,15l1.708-.279q.935-.172.935-.978a1.845,1.845,0,0,0-.661-1.574,2.692,2.692,0,0,0-1.67-.5,2.742,2.742,0,0,0-1.654.483,2.023,2.023,0,0,0-.784,1.482l-1.676-.354a3.225,3.225,0,0,1,1.321-2.261,4.937,4.937,0,0,1,2.879-.757,5.839,5.839,0,0,1,1.531.188,4.16,4.16,0,0,1,1.278.591,2.65,2.65,0,0,1,.913,1.139,4.237,4.237,0,0,1,.328,1.735v4.361a1.784,1.784,0,0,0,.242,1.1,1.043,1.043,0,0,0,.833.285h.172V21h-.924a1.762,1.762,0,0,1-2-1.429h-.086A4.035,4.035,0,0,1,21.1,21.2Zm.43-1.5a2.818,2.818,0,0,0,2.267-1.021,4.2,4.2,0,0,0,.859-2.793l-2.793.537a3.76,3.76,0,0,0-1.638.585,1.362,1.362,0,0,0-.532,1.155,1.346,1.346,0,0,0,.51,1.16A2.181,2.181,0,0,0,21.527,19.7Zm14.255-9.464a4.6,4.6,0,0,1,3.491,1.525A5.565,5.565,0,0,1,40.7,15.726,5.6,5.6,0,0,1,39.284,19.7a4.591,4.591,0,0,1-3.5,1.525,4.238,4.238,0,0,1-2.25-.612,3.875,3.875,0,0,1-1.509-1.665L31.979,21H30.186V4.5h1.848l.011,7.96a3.892,3.892,0,0,1,1.509-1.627A4.248,4.248,0,0,1,35.782,10.236Zm-.408,9.378a3.232,3.232,0,0,0,2.471-1.08,3.972,3.972,0,0,0,1-2.809,3.972,3.972,0,0,0-1-2.809,3.232,3.232,0,0,0-2.471-1.08,3.16,3.16,0,0,0-2.449,1.117,4.005,4.005,0,0,0-1,2.771,4.013,4.013,0,0,0,.994,2.777A3.162,3.162,0,0,0,35.374,19.614ZM46.063,21.2a3.593,3.593,0,0,1-2.315-.725,2.6,2.6,0,0,1-.908-2.165,3.076,3.076,0,0,1,.29-1.38,2.433,2.433,0,0,1,.859-.961,5.155,5.155,0,0,1,1.241-.6A11.469,11.469,0,0,1,46.836,15l1.708-.279q.935-.172.935-.978a1.845,1.845,0,0,0-.661-1.574,2.692,2.692,0,0,0-1.67-.5,2.742,2.742,0,0,0-1.654.483,2.023,2.023,0,0,0-.784,1.482l-1.676-.354a3.225,3.225,0,0,1,1.321-2.261,4.937,4.937,0,0,1,2.879-.757,5.839,5.839,0,0,1,1.531.188,4.16,4.16,0,0,1,1.278.591,2.65,2.65,0,0,1,.913,1.139,4.237,4.237,0,0,1,.328,1.735v4.361a1.784,1.784,0,0,0,.242,1.1,1.043,1.043,0,0,0,.833.285h.172V21h-.924a1.762,1.762,0,0,1-2-1.429h-.086A4.035,4.035,0,0,1,46.063,21.2Zm.43-1.5a2.818,2.818,0,0,0,2.267-1.021,4.2,4.2,0,0,0,.859-2.793l-2.793.537a3.76,3.76,0,0,0-1.638.585,1.362,1.362,0,0,0-.532,1.155,1.346,1.346,0,0,0,.51,1.16A2.181,2.181,0,0,0,46.492,19.7ZM56.106,7.959A1.265,1.265,0,0,1,54.85,6.7a1.192,1.192,0,0,1,.371-.881,1.218,1.218,0,0,1,.886-.365,1.206,1.206,0,0,1,.875.365,1.192,1.192,0,0,1,.371.881,1.209,1.209,0,0,1-.371.886A1.2,1.2,0,0,1,56.106,7.959ZM52.723,25.941V24.362a3.022,3.022,0,0,0,1.515-.3,1.647,1.647,0,0,0,.709-1.031,8.684,8.684,0,0,0,.2-2.181V10.44h1.88V20.85a6.141,6.141,0,0,1-.978,3.942A4.171,4.171,0,0,1,52.723,25.941ZM63.261,21.2a3.593,3.593,0,0,1-2.315-.725,2.6,2.6,0,0,1-.908-2.165,3.076,3.076,0,0,1,.29-1.38,2.433,2.433,0,0,1,.859-.961,5.155,5.155,0,0,1,1.241-.6A11.469,11.469,0,0,1,64.034,15l1.708-.279q.935-.172.935-.978a1.845,1.845,0,0,0-.661-1.574,2.692,2.692,0,0,0-1.67-.5,2.742,2.742,0,0,0-1.654.483,2.023,2.023,0,0,0-.784,1.482l-1.676-.354a3.225,3.225,0,0,1,1.321-2.261,4.937,4.937,0,0,1,2.879-.757,5.839,5.839,0,0,1,1.531.188,4.16,4.16,0,0,1,1.278.591,2.65,2.65,0,0,1,.913,1.139,4.237,4.237,0,0,1,.328,1.735v4.361a1.784,1.784,0,0,0,.242,1.1,1.043,1.043,0,0,0,.833.285h.172V21H68.8a1.762,1.762,0,0,1-2-1.429H66.72A4.035,4.035,0,0,1,63.261,21.2Zm.43-1.5a2.818,2.818,0,0,0,2.267-1.021,4.2,4.2,0,0,0,.859-2.793l-2.793.537a3.76,3.76,0,0,0-1.638.585,1.362,1.362,0,0,0-.532,1.155,1.346,1.346,0,0,0,.51,1.16A2.181,2.181,0,0,0,63.69,19.7ZM79.933,4.5h1.858V21H80l-.043-2.052a3.885,3.885,0,0,1-1.5,1.665,4.191,4.191,0,0,1-2.234.612,4.8,4.8,0,0,1-3.486-1.488,5.085,5.085,0,0,1-1.063-1.746,6.386,6.386,0,0,1-.392-2.267,5.553,5.553,0,0,1,1.434-3.964,4.629,4.629,0,0,1,3.507-1.525,4.209,4.209,0,0,1,2.208.6,3.907,3.907,0,0,1,1.509,1.617ZM76.6,19.614A3.162,3.162,0,0,0,79.057,18.5a4.013,4.013,0,0,0,.994-2.777,4.005,4.005,0,0,0-1-2.771A3.16,3.16,0,0,0,76.6,11.837a3.232,3.232,0,0,0-2.471,1.08,3.972,3.972,0,0,0-1,2.809,3.972,3.972,0,0,0,1,2.809A3.232,3.232,0,0,0,76.6,19.614ZM90.02,21.2a5.566,5.566,0,0,1-2.707-.655,4.771,4.771,0,0,1-1.907-1.917,5.89,5.89,0,0,1-.7-2.917,5.38,5.38,0,0,1,1.5-3.98,5.622,5.622,0,0,1,7.643,0,5.39,5.39,0,0,1,1.493,3.98,5.394,5.394,0,0,1-1.5,3.991A5.173,5.173,0,0,1,90.02,21.2Zm-.011-1.547a3.243,3.243,0,0,0,2.5-1.085,4.065,4.065,0,0,0,.994-2.857,4.05,4.05,0,0,0-.994-2.847,3.243,3.243,0,0,0-2.5-1.085,3.2,3.2,0,0,0-2.476,1.085,4.077,4.077,0,0,0-.983,2.847,4.092,4.092,0,0,0,.983,2.857A3.2,3.2,0,0,0,90.009,19.657ZM100.063,12.3a3.192,3.192,0,0,1,1.311-1.418,3.947,3.947,0,0,1,2.03-.559v1.751a3.479,3.479,0,0,0-2.455.784,3.276,3.276,0,0,0-.843,2.5V21H98.248V10.44h1.815Zm20.475,3.212-.021.5h-8.25a3.731,3.731,0,0,0,1.01,2.7,3.315,3.315,0,0,0,2.406.94,3.166,3.166,0,0,0,1.751-.5,3.276,3.276,0,0,0,1.2-1.4l1.676.354a4.763,4.763,0,0,1-1.8,2.267,4.924,4.924,0,0,1-2.8.827,5.1,5.1,0,0,1-3.8-1.472,5.475,5.475,0,0,1-1.45-4.018,5.448,5.448,0,0,1,1.456-4.007,5.038,5.038,0,0,1,3.744-1.472,4.767,4.767,0,0,1,3.55,1.354A5.348,5.348,0,0,1,120.538,15.511Zm-4.888-3.846a3.293,3.293,0,0,0-2.2.747,3.42,3.42,0,0,0-1.112,2.175h6.327a3.138,3.138,0,0,0-.924-2.175A2.983,2.983,0,0,0,115.65,11.665Zm12.783-1.429a3.673,3.673,0,0,1,2.659.956,3.566,3.566,0,0,1,.994,2.7V21h-1.858V14.308a2.5,2.5,0,0,0-.645-1.891,2.3,2.3,0,0,0-1.654-.612,2.555,2.555,0,0,0-1.88.725,2.942,2.942,0,0,0-.741,2.154V21h-1.858V10.44h1.858v1.354A3.526,3.526,0,0,1,128.434,10.236Zm17.338,10.957a5.086,5.086,0,0,1-3.781-1.515,5.4,5.4,0,0,1-1.493-3.964,5.414,5.414,0,0,1,1.488-3.964,5.5,5.5,0,0,1,6.843-.591,4.662,4.662,0,0,1,1.778,2.567l-1.74.279a3.214,3.214,0,0,0-1.192-1.644,3.247,3.247,0,0,0-1.912-.58,3.122,3.122,0,0,0-2.444,1.085,4.133,4.133,0,0,0-.961,2.847,4.113,4.113,0,0,0,.961,2.841,3.129,3.129,0,0,0,2.444,1.08,3.247,3.247,0,0,0,1.912-.58,3.214,3.214,0,0,0,1.192-1.644l1.74.29a4.668,4.668,0,0,1-1.789,2.562A5.115,5.115,0,0,1,145.771,21.193Zm10.012.011a3.593,3.593,0,0,1-2.315-.725,2.6,2.6,0,0,1-.908-2.165,3.076,3.076,0,0,1,.29-1.38,2.433,2.433,0,0,1,.859-.961,5.155,5.155,0,0,1,1.241-.6A11.469,11.469,0,0,1,156.557,15l1.708-.279q.935-.172.935-.978a1.845,1.845,0,0,0-.661-1.574,2.692,2.692,0,0,0-1.67-.5,2.742,2.742,0,0,0-1.654.483,2.023,2.023,0,0,0-.784,1.482l-1.676-.354a3.225,3.225,0,0,1,1.321-2.261,4.937,4.937,0,0,1,2.879-.757,5.839,5.839,0,0,1,1.531.188,4.16,4.16,0,0,1,1.278.591,2.65,2.65,0,0,1,.913,1.139A4.237,4.237,0,0,1,161,13.91v4.361a1.784,1.784,0,0,0,.242,1.1,1.043,1.043,0,0,0,.833.285h.172V21h-.924a1.762,1.762,0,0,1-2-1.429h-.086A4.035,4.035,0,0,1,155.783,21.2Zm.43-1.5a2.818,2.818,0,0,0,2.267-1.021,4.2,4.2,0,0,0,.859-2.793l-2.793.537a3.76,3.76,0,0,0-1.638.585,1.362,1.362,0,0,0-.532,1.155,1.346,1.346,0,0,0,.51,1.16A2.181,2.181,0,0,0,156.213,19.7Zm12,1.5a5.006,5.006,0,0,1-2.847-.763,3.155,3.155,0,0,1-1.386-2.17l1.622-.462a2.262,2.262,0,0,0,.865,1.466,2.805,2.805,0,0,0,1.735.521,3.462,3.462,0,0,0,1.015-.14,1.627,1.627,0,0,0,.779-.521,1.453,1.453,0,0,0,.226-1.4,1.865,1.865,0,0,0-.172-.349,1.064,1.064,0,0,0-.3-.29,3.965,3.965,0,0,0-.365-.226,3.749,3.749,0,0,0-.478-.2q-.317-.113-.51-.172t-.591-.172q-.4-.113-.612-.177a11.453,11.453,0,0,1-1.1-.387,4.805,4.805,0,0,1-.892-.51,2.053,2.053,0,0,1-.693-.833,2.817,2.817,0,0,1-.231-1.182,2.731,2.731,0,0,1,.516-1.687,2.9,2.9,0,0,1,1.337-.994,5.346,5.346,0,0,1,1.875-.306,4.588,4.588,0,0,1,2.573.688,2.934,2.934,0,0,1,1.284,2.063l-1.525.387a2.022,2.022,0,0,0-.806-1.337,2.565,2.565,0,0,0-1.515-.446,2.614,2.614,0,0,0-1.418.371,1.246,1.246,0,0,0-.591,1.133,1.128,1.128,0,0,0,.156.585,1.859,1.859,0,0,0,.317.414,1.948,1.948,0,0,0,.58.317q.419.167.623.226t.773.2q.107.032.161.043.623.161,1.015.285a6.239,6.239,0,0,1,.913.387,3.035,3.035,0,0,1,.822.575,2.663,2.663,0,0,1,.516.816A2.882,2.882,0,0,1,172.1,18.1a3.075,3.075,0,0,1-.317,1.423,2.479,2.479,0,0,1-.865.972,4.182,4.182,0,0,1-1.23.532A5.86,5.86,0,0,1,168.212,21.2Zm9.249,0a3.593,3.593,0,0,1-2.315-.725,2.6,2.6,0,0,1-.908-2.165,3.076,3.076,0,0,1,.29-1.38,2.433,2.433,0,0,1,.859-.961,5.155,5.155,0,0,1,1.241-.6A11.469,11.469,0,0,1,178.234,15l1.708-.279q.935-.172.935-.978a1.845,1.845,0,0,0-.661-1.574,2.692,2.692,0,0,0-1.67-.5,2.742,2.742,0,0,0-1.654.483,2.023,2.023,0,0,0-.784,1.482l-1.676-.354a3.225,3.225,0,0,1,1.321-2.261,4.937,4.937,0,0,1,2.879-.757,5.839,5.839,0,0,1,1.531.188,4.16,4.16,0,0,1,1.278.591,2.65,2.65,0,0,1,.913,1.139,4.237,4.237,0,0,1,.328,1.735v4.361a1.784,1.784,0,0,0,.242,1.1,1.043,1.043,0,0,0,.833.285h.172V21H183a1.762,1.762,0,0,1-2-1.429h-.086A4.035,4.035,0,0,1,177.461,21.2Zm.43-1.5a2.818,2.818,0,0,0,2.267-1.021,4.2,4.2,0,0,0,.859-2.793l-2.793.537a3.76,3.76,0,0,0-1.638.585,1.362,1.362,0,0,0-.532,1.155,1.346,1.346,0,0,0,.51,1.16A2.181,2.181,0,0,0,177.891,19.7ZM188,24.878h-1.354l1.311-6.66H189.9ZM202.576,21.2a5.006,5.006,0,0,1-2.847-.763,3.155,3.155,0,0,1-1.386-2.17l1.622-.462a2.262,2.262,0,0,0,.865,1.466,2.805,2.805,0,0,0,1.735.521,3.462,3.462,0,0,0,1.015-.14,1.627,1.627,0,0,0,.779-.521,1.453,1.453,0,0,0,.226-1.4,1.865,1.865,0,0,0-.172-.349,1.064,1.064,0,0,0-.3-.29,3.965,3.965,0,0,0-.365-.226,3.749,3.749,0,0,0-.478-.2q-.317-.113-.51-.172t-.591-.172q-.4-.113-.612-.177a11.453,11.453,0,0,1-1.1-.387,4.805,4.805,0,0,1-.892-.51,2.053,2.053,0,0,1-.693-.833,2.817,2.817,0,0,1-.231-1.182,2.731,2.731,0,0,1,.516-1.687,2.9,2.9,0,0,1,1.337-.994,5.346,5.346,0,0,1,1.875-.306,4.588,4.588,0,0,1,2.573.688,2.934,2.934,0,0,1,1.284,2.063l-1.525.387a2.022,2.022,0,0,0-.806-1.337,2.565,2.565,0,0,0-1.515-.446,2.614,2.614,0,0,0-1.418.371,1.246,1.246,0,0,0-.591,1.133,1.128,1.128,0,0,0,.156.585,1.859,1.859,0,0,0,.317.414,1.948,1.948,0,0,0,.58.317q.419.167.623.226t.773.2q.107.032.161.043.623.161,1.015.285a6.239,6.239,0,0,1,.913.387,3.035,3.035,0,0,1,.822.575,2.663,2.663,0,0,1,.516.816,2.882,2.882,0,0,1,.215,1.139,3.075,3.075,0,0,1-.317,1.423,2.479,2.479,0,0,1-.865.972,4.182,4.182,0,0,1-1.23.532A5.86,5.86,0,0,1,202.576,21.2Zm7.756-13.245A1.265,1.265,0,0,1,209.075,6.7a1.192,1.192,0,0,1,.371-.881,1.218,1.218,0,0,1,.886-.365,1.206,1.206,0,0,1,.875.365,1.192,1.192,0,0,1,.371.881,1.209,1.209,0,0,1-.371.886A1.2,1.2,0,0,1,210.332,7.959ZM209.387,21V10.44h1.869V21Zm20.6-5.489-.021.5h-8.25a3.731,3.731,0,0,0,1.01,2.7,3.315,3.315,0,0,0,2.406.94,3.166,3.166,0,0,0,1.751-.5,3.276,3.276,0,0,0,1.2-1.4l1.676.354a4.763,4.763,0,0,1-1.8,2.267,4.924,4.924,0,0,1-2.8.827,5.1,5.1,0,0,1-3.8-1.472,5.475,5.475,0,0,1-1.45-4.018,5.448,5.448,0,0,1,1.456-4.007,5.038,5.038,0,0,1,3.744-1.472,4.767,4.767,0,0,1,3.55,1.354A5.348,5.348,0,0,1,229.99,15.511ZM225.1,11.665a3.293,3.293,0,0,0-2.2.747,3.42,3.42,0,0,0-1.112,2.175h6.327a3.138,3.138,0,0,0-.924-2.175A2.983,2.983,0,0,0,225.1,11.665Zm11.14,9.539a5.006,5.006,0,0,1-2.847-.763,3.155,3.155,0,0,1-1.386-2.17l1.622-.462a2.262,2.262,0,0,0,.865,1.466,2.805,2.805,0,0,0,1.735.521,3.462,3.462,0,0,0,1.015-.14,1.627,1.627,0,0,0,.779-.521,1.453,1.453,0,0,0,.226-1.4,1.865,1.865,0,0,0-.172-.349,1.064,1.064,0,0,0-.3-.29,3.965,3.965,0,0,0-.365-.226,3.749,3.749,0,0,0-.478-.2q-.317-.113-.51-.172t-.591-.172q-.4-.113-.612-.177a11.453,11.453,0,0,1-1.1-.387,4.805,4.805,0,0,1-.892-.51,2.053,2.053,0,0,1-.693-.833,2.817,2.817,0,0,1-.231-1.182,2.731,2.731,0,0,1,.516-1.687,2.9,2.9,0,0,1,1.337-.994,5.346,5.346,0,0,1,1.875-.306,4.588,4.588,0,0,1,2.573.688,2.934,2.934,0,0,1,1.284,2.063l-1.525.387a2.022,2.022,0,0,0-.806-1.337,2.565,2.565,0,0,0-1.515-.446,2.614,2.614,0,0,0-1.418.371,1.246,1.246,0,0,0-.591,1.133,1.128,1.128,0,0,0,.156.585,1.859,1.859,0,0,0,.317.414,1.948,1.948,0,0,0,.58.317q.419.167.623.226t.773.2q.107.032.161.043.623.161,1.015.285a6.239,6.239,0,0,1,.913.387,3.035,3.035,0,0,1,.822.575,2.663,2.663,0,0,1,.516.816,2.882,2.882,0,0,1,.215,1.139,3.075,3.075,0,0,1-.317,1.423,2.479,2.479,0,0,1-.865.972,4.182,4.182,0,0,1-1.23.532A5.86,5.86,0,0,1,236.242,21.2Zm18.1-10.968a4.8,4.8,0,0,1,1.912.387,4.7,4.7,0,0,1,1.568,1.085,5.071,5.071,0,0,1,1.058,1.74,6.417,6.417,0,0,1,.392,2.277,5.583,5.583,0,0,1-1.423,3.985,4.623,4.623,0,0,1-3.507,1.515,4.18,4.18,0,0,1-2.208-.6A3.943,3.943,0,0,1,250.626,19v7.315h-1.858V10.44h1.794l.043,2.052a3.865,3.865,0,0,1,1.5-1.649A4.219,4.219,0,0,1,254.343,10.236Zm-.365,9.378a3.206,3.206,0,0,0,2.444-1.069,3.976,3.976,0,0,0,.994-2.82,3.956,3.956,0,0,0-.994-2.814,3.332,3.332,0,0,0-4.925.048,3.96,3.96,0,0,0-1.01,2.766A3.975,3.975,0,0,0,251.5,18.5,3.222,3.222,0,0,0,253.978,19.614Zm12.676,1.59a5.566,5.566,0,0,1-2.707-.655,4.771,4.771,0,0,1-1.907-1.917,5.89,5.89,0,0,1-.7-2.917,5.38,5.38,0,0,1,1.5-3.98,5.622,5.622,0,0,1,7.643,0,5.39,5.39,0,0,1,1.493,3.98,5.394,5.394,0,0,1-1.5,3.991A5.173,5.173,0,0,1,266.653,21.2Zm-.011-1.547a3.243,3.243,0,0,0,2.5-1.085,4.065,4.065,0,0,0,.994-2.857,4.05,4.05,0,0,0-.994-2.847,3.243,3.243,0,0,0-2.5-1.085,3.2,3.2,0,0,0-2.476,1.085,4.077,4.077,0,0,0-.983,2.847,4.092,4.092,0,0,0,.983,2.857A3.2,3.2,0,0,0,266.643,19.657Zm11.58,1.547a5.006,5.006,0,0,1-2.847-.763,3.154,3.154,0,0,1-1.386-2.17l1.622-.462a2.262,2.262,0,0,0,.865,1.466,2.805,2.805,0,0,0,1.735.521,3.462,3.462,0,0,0,1.015-.14,1.627,1.627,0,0,0,.779-.521,1.453,1.453,0,0,0,.226-1.4,1.866,1.866,0,0,0-.172-.349,1.064,1.064,0,0,0-.3-.29,3.967,3.967,0,0,0-.365-.226,3.748,3.748,0,0,0-.478-.2q-.317-.113-.51-.172t-.591-.172q-.4-.113-.612-.177a11.456,11.456,0,0,1-1.1-.387,4.805,4.805,0,0,1-.892-.51,2.053,2.053,0,0,1-.693-.833,2.817,2.817,0,0,1-.231-1.182,2.731,2.731,0,0,1,.516-1.687,2.9,2.9,0,0,1,1.337-.994,5.346,5.346,0,0,1,1.875-.306,4.588,4.588,0,0,1,2.573.688,2.934,2.934,0,0,1,1.284,2.063l-1.525.387a2.022,2.022,0,0,0-.806-1.337,2.565,2.565,0,0,0-1.515-.446,2.615,2.615,0,0,0-1.418.371,1.245,1.245,0,0,0-.591,1.133,1.128,1.128,0,0,0,.156.585,1.86,1.86,0,0,0,.317.414,1.948,1.948,0,0,0,.58.317q.419.167.623.226t.773.2q.107.032.161.043.623.161,1.015.285a6.239,6.239,0,0,1,.913.387,3.036,3.036,0,0,1,.822.575,2.662,2.662,0,0,1,.516.816,2.882,2.882,0,0,1,.215,1.139,3.075,3.075,0,0,1-.317,1.423,2.479,2.479,0,0,1-.865.972,4.182,4.182,0,0,1-1.23.532A5.86,5.86,0,0,1,278.223,21.2Zm7.756-13.245A1.265,1.265,0,0,1,284.722,6.7a1.192,1.192,0,0,1,.371-.881,1.218,1.218,0,0,1,.886-.365,1.206,1.206,0,0,1,.875.365,1.192,1.192,0,0,1,.371.881,1.209,1.209,0,0,1-.371.886A1.2,1.2,0,0,1,285.979,7.959ZM285.033,21V10.44H286.9V21ZM296.28,10.236a4.6,4.6,0,0,1,3.491,1.525,5.565,5.565,0,0,1,1.429,3.964,5.6,5.6,0,0,1-1.418,3.975,4.591,4.591,0,0,1-3.5,1.525,4.238,4.238,0,0,1-2.25-.612,3.875,3.875,0,0,1-1.509-1.665L292.478,21h-1.794V4.5h1.848l.011,7.96a3.892,3.892,0,0,1,1.509-1.627A4.248,4.248,0,0,1,296.28,10.236Zm-.408,9.378a3.232,3.232,0,0,0,2.471-1.08,3.972,3.972,0,0,0,1-2.809,3.972,3.972,0,0,0-1-2.809,3.232,3.232,0,0,0-2.471-1.08,3.16,3.16,0,0,0-2.449,1.117,4.005,4.005,0,0,0-1,2.771,4.013,4.013,0,0,0,.994,2.777A3.162,3.162,0,0,0,295.872,19.614ZM304.122,21V4.5H306V21Zm14.9-5.489-.021.5h-8.25a3.731,3.731,0,0,0,1.01,2.7,3.315,3.315,0,0,0,2.406.94,3.166,3.166,0,0,0,1.751-.5,3.276,3.276,0,0,0,1.2-1.4l1.676.354a4.763,4.763,0,0,1-1.8,2.267,4.924,4.924,0,0,1-2.8.827,5.1,5.1,0,0,1-3.8-1.472,5.475,5.475,0,0,1-1.45-4.018,5.448,5.448,0,0,1,1.456-4.007,5.038,5.038,0,0,1,3.744-1.472,4.767,4.767,0,0,1,3.55,1.354A5.348,5.348,0,0,1,319.021,15.511Zm-4.888-3.846a3.293,3.293,0,0,0-2.2.747,3.42,3.42,0,0,0-1.112,2.175h6.327a3.138,3.138,0,0,0-.924-2.175A2.983,2.983,0,0,0,314.134,11.665Z" transform="translate(738 3953)" fill="#00223d"/>
    <path id="Trazado_34896" data-name="Trazado 34896" d="M11.881,5.478h3.427L9.571,21H6.026L.322,5.478H3.738L7.81,17.24Zm11.5,15.737A8.033,8.033,0,0,1,21,20.876a5.626,5.626,0,0,1-1.917-1.015,4.543,4.543,0,0,1-1.294-1.772,6.388,6.388,0,0,1-.467-2.524V5.478h3.223v9.646a3.374,3.374,0,0,0,.779,2.46,2.784,2.784,0,0,0,2.068.784,2.81,2.81,0,0,0,2.079-.79,3.348,3.348,0,0,0,.79-2.455V5.478h3.223V15.564a6.388,6.388,0,0,1-.467,2.524,4.519,4.519,0,0,1-1.3,1.772,5.685,5.685,0,0,1-1.923,1.015A8.071,8.071,0,0,1,23.386,21.215Zm13.009-3.062h4.866V21H33.172V5.478h3.223ZM54.323,5.478h3.212V21H53.808L46.933,9.9V21H43.721V5.478h3.685L54.323,16.51ZM70.555,8.313H64.8v3.523h5.1v2.8H64.8v3.513h5.758V21h-9V5.478h9ZM82.07,21l-4.039-6.832H77.1V21H73.874V5.478H79.5a6.511,6.511,0,0,1,2.256.36,3.9,3.9,0,0,1,1.563,1A4.278,4.278,0,0,1,84.2,8.3a5.363,5.363,0,0,1,.3,1.815,3.791,3.791,0,0,1-.849,2.551,4.277,4.277,0,0,1-2.438,1.337L85.884,21ZM77.1,8.152v3.706H79q2.417,0,2.417-1.848a1.682,1.682,0,0,0-.591-1.364A2.809,2.809,0,0,0,79,8.152ZM98.764,21l-1.128-3.2H91.115L89.987,21h-3.3L92.4,5.478h3.942L102.062,21Zm-6.7-5.9h4.63l-2.31-6.585Zm20.668-2.3a3.631,3.631,0,0,1,2.922,3.846,4.168,4.168,0,0,1-1.235,3.185A5.1,5.1,0,0,1,110.784,21h-6.392V5.478h5.027a5.7,5.7,0,0,1,3.8,1.123,3.894,3.894,0,0,1,1.316,3.131,3.652,3.652,0,0,1-.457,1.842A3.007,3.007,0,0,1,112.729,12.8Zm-3.276-4.651H107.5V11.8h2.095a1.962,1.962,0,0,0,1.482-.516,1.875,1.875,0,0,0,.494-1.354,1.666,1.666,0,0,0-.537-1.294A2.273,2.273,0,0,0,109.452,8.152Zm.73,10.087a2.475,2.475,0,0,0,1.778-.548,1.863,1.863,0,0,0,.564-1.4,1.951,1.951,0,0,0-.569-1.439,2.519,2.519,0,0,0-1.837-.569H107.5v3.953ZM118.519,21V5.478h3.223V21Zm10.452-2.847h4.866V21h-8.089V5.478h3.223ZM136.3,21V5.478h3.223V21Zm7.229,0V5.478h5.618a8.759,8.759,0,0,1,3.239.559,5.966,5.966,0,0,1,2.32,1.584,6.893,6.893,0,0,1,1.375,2.444,10.09,10.09,0,0,1,.467,3.169,10.127,10.127,0,0,1-.467,3.18,6.893,6.893,0,0,1-1.375,2.444,5.966,5.966,0,0,1-2.32,1.584,8.759,8.759,0,0,1-3.239.559Zm3.223-2.847h2.234a3.813,3.813,0,0,0,3.137-1.262,5.657,5.657,0,0,0,1.031-3.658,5.657,5.657,0,0,0-1.031-3.658,3.813,3.813,0,0,0-3.137-1.262h-2.234ZM169.179,21l-1.128-3.2H161.53L160.4,21h-3.3l5.715-15.522h3.942L172.477,21Zm-6.7-5.9h4.63L164.8,8.518ZM174.808,21V5.478h5.618a8.759,8.759,0,0,1,3.239.559,5.966,5.966,0,0,1,2.32,1.584,6.893,6.893,0,0,1,1.375,2.444,10.09,10.09,0,0,1,.467,3.169,10.127,10.127,0,0,1-.467,3.18,6.893,6.893,0,0,1-1.375,2.444,5.966,5.966,0,0,1-2.32,1.584,8.759,8.759,0,0,1-3.239.559Zm3.223-2.847h2.234a3.813,3.813,0,0,0,3.137-1.262,5.657,5.657,0,0,0,1.031-3.658A5.657,5.657,0,0,0,183.4,9.576a3.813,3.813,0,0,0-3.137-1.262H178.03ZM204.9,12.8a3.631,3.631,0,0,1,2.922,3.846,4.168,4.168,0,0,1-1.235,3.185A5.1,5.1,0,0,1,202.952,21h-6.392V5.478h5.027a5.7,5.7,0,0,1,3.8,1.123A3.894,3.894,0,0,1,206.7,9.731a3.652,3.652,0,0,1-.457,1.842A3.007,3.007,0,0,1,204.9,12.8ZM201.62,8.152h-1.955V11.8h2.095a1.962,1.962,0,0,0,1.482-.516,1.875,1.875,0,0,0,.494-1.354,1.666,1.666,0,0,0-.537-1.294A2.273,2.273,0,0,0,201.62,8.152Zm.73,10.087a2.475,2.475,0,0,0,1.778-.548,1.863,1.863,0,0,0,.564-1.4,1.951,1.951,0,0,0-.569-1.439,2.519,2.519,0,0,0-1.837-.569h-2.621v3.953ZM221.074,21l-1.128-3.2h-6.521L212.3,21H209l5.715-15.522h3.942L224.372,21Zm-6.7-5.9H219l-2.31-6.585Zm14.7,6.112a8.778,8.778,0,0,1-4.1-1.074l1.364-2.653a4.054,4.054,0,0,0,2.353.827,1.7,1.7,0,0,0,1.439-.618,3.242,3.242,0,0,0,.473-1.96V5.478h3.223v10.86a4.827,4.827,0,0,1-1.294,3.6A4.712,4.712,0,0,1,229.066,21.215ZM247.973,21l-1.128-3.2h-6.521L239.2,21h-3.3l5.715-15.522h3.942L251.271,21Zm-6.7-5.9h4.63l-2.31-6.585Z" transform="translate(738 4088)" fill="#00223d"/>
    <path id="Trazado_34897" data-name="Trazado 34897" d="M10.615,5.25h1.846L7.422,19h-1.8L.586,5.25H2.422l4.1,11.563Zm5.371,13.936a3.267,3.267,0,0,1-2.1-.659,2.367,2.367,0,0,1-.825-1.968A2.8,2.8,0,0,1,13.32,15.3a2.212,2.212,0,0,1,.781-.874,4.686,4.686,0,0,1,1.128-.542,10.427,10.427,0,0,1,1.46-.347l1.553-.254q.85-.156.85-.889a1.678,1.678,0,0,0-.6-1.431,2.447,2.447,0,0,0-1.519-.454,2.493,2.493,0,0,0-1.5.439,1.839,1.839,0,0,0-.713,1.348l-1.523-.322a2.932,2.932,0,0,1,1.2-2.056,4.488,4.488,0,0,1,2.617-.688,5.308,5.308,0,0,1,1.392.171,3.782,3.782,0,0,1,1.162.537,2.409,2.409,0,0,1,.83,1.035,3.852,3.852,0,0,1,.3,1.577V16.52a1.622,1.622,0,0,0,.22,1,.949.949,0,0,0,.757.259h.156V19h-.84a1.6,1.6,0,0,1-1.816-1.3h-.078A3.668,3.668,0,0,1,15.986,19.186Zm.391-1.367a2.561,2.561,0,0,0,2.061-.928,3.819,3.819,0,0,0,.781-2.539l-2.539.488a3.418,3.418,0,0,0-1.489.532,1.238,1.238,0,0,0-.483,1.05,1.224,1.224,0,0,0,.464,1.055A1.983,1.983,0,0,0,16.377,17.818ZM24.248,19V4h1.709V19Zm9.189.186a5.06,5.06,0,0,1-2.461-.6,4.338,4.338,0,0,1-1.733-1.743A5.354,5.354,0,0,1,28.6,14.2a4.89,4.89,0,0,1,1.362-3.618,5.111,5.111,0,0,1,6.948,0A4.9,4.9,0,0,1,38.271,14.2a4.9,4.9,0,0,1-1.362,3.628A4.7,4.7,0,0,1,33.438,19.186Zm-.01-1.406a2.948,2.948,0,0,0,2.271-.986,3.7,3.7,0,0,0,.9-2.6,3.682,3.682,0,0,0-.9-2.588,2.948,2.948,0,0,0-2.271-.986,2.908,2.908,0,0,0-2.251.986,3.706,3.706,0,0,0-.894,2.588,3.72,3.72,0,0,0,.894,2.6A2.908,2.908,0,0,0,33.428,17.779Zm9.141-6.689A2.9,2.9,0,0,1,43.76,9.8a3.588,3.588,0,0,1,1.846-.508v1.592a3.163,3.163,0,0,0-2.231.713,2.978,2.978,0,0,0-.767,2.275V19H40.918V9.4h1.65Zm7.119,8.1a3.267,3.267,0,0,1-2.1-.659,2.367,2.367,0,0,1-.825-1.968,2.8,2.8,0,0,1,.264-1.255,2.212,2.212,0,0,1,.781-.874,4.686,4.686,0,0,1,1.128-.542,10.427,10.427,0,0,1,1.46-.347l1.553-.254q.85-.156.85-.889a1.678,1.678,0,0,0-.6-1.431,2.447,2.447,0,0,0-1.519-.454,2.493,2.493,0,0,0-1.5.439,1.839,1.839,0,0,0-.713,1.348l-1.523-.322a2.932,2.932,0,0,1,1.2-2.056,4.488,4.488,0,0,1,2.617-.688,5.308,5.308,0,0,1,1.392.171,3.782,3.782,0,0,1,1.162.537,2.409,2.409,0,0,1,.83,1.035,3.852,3.852,0,0,1,.3,1.577V16.52a1.622,1.622,0,0,0,.22,1,.949.949,0,0,0,.757.259h.156V19h-.84a1.6,1.6,0,0,1-1.816-1.3h-.078A3.668,3.668,0,0,1,49.688,19.186Zm.391-1.367a2.561,2.561,0,0,0,2.061-.928,3.819,3.819,0,0,0,.781-2.539l-2.539.488a3.418,3.418,0,0,0-1.489.532,1.238,1.238,0,0,0-.483,1.05,1.224,1.224,0,0,0,.464,1.055A1.983,1.983,0,0,0,50.078,17.818Zm11.66,1.357A4.624,4.624,0,0,1,58.3,17.8a4.912,4.912,0,0,1-1.357-3.6,4.922,4.922,0,0,1,1.353-3.6,5,5,0,0,1,6.221-.537,4.238,4.238,0,0,1,1.616,2.334l-1.582.254a2.922,2.922,0,0,0-1.084-1.494,2.952,2.952,0,0,0-1.738-.527,2.838,2.838,0,0,0-2.222.986,3.757,3.757,0,0,0-.874,2.588,3.739,3.739,0,0,0,.874,2.583,2.844,2.844,0,0,0,2.222.981,2.952,2.952,0,0,0,1.738-.527,2.922,2.922,0,0,0,1.084-1.494L66.133,16a4.243,4.243,0,0,1-1.626,2.329A4.65,4.65,0,0,1,61.738,19.176ZM69.482,7.145A1.15,1.15,0,0,1,68.34,6a1.083,1.083,0,0,1,.337-.8,1.107,1.107,0,0,1,.806-.332,1.1,1.1,0,0,1,.8.332,1.083,1.083,0,0,1,.337.8,1.1,1.1,0,0,1-.337.806A1.088,1.088,0,0,1,69.482,7.145ZM68.623,19V9.4h1.7V19ZM77.158,7.75l2.451-3.184.9.654L78.32,7.75ZM77.8,19.186a5.06,5.06,0,0,1-2.461-.6,4.338,4.338,0,0,1-1.733-1.743,5.354,5.354,0,0,1-.64-2.651,4.89,4.89,0,0,1,1.362-3.618,5.111,5.111,0,0,1,6.948,0A4.9,4.9,0,0,1,82.637,14.2a4.9,4.9,0,0,1-1.362,3.628A4.7,4.7,0,0,1,77.8,19.186Zm-.01-1.406a2.948,2.948,0,0,0,2.271-.986,3.7,3.7,0,0,0,.9-2.6,3.682,3.682,0,0,0-.9-2.588,2.948,2.948,0,0,0-2.271-.986,2.908,2.908,0,0,0-2.251.986,3.706,3.706,0,0,0-.894,2.588,3.72,3.72,0,0,0,.894,2.6A2.908,2.908,0,0,0,77.793,17.779ZM89.814,9.215a3.339,3.339,0,0,1,2.417.869,3.242,3.242,0,0,1,.9,2.451V19H91.445V12.916a2.27,2.27,0,0,0-.586-1.719,2.1,2.1,0,0,0-1.5-.557,2.322,2.322,0,0,0-1.709.659,2.675,2.675,0,0,0-.674,1.958V19H85.283V9.4h1.689v1.23A3.206,3.206,0,0,1,89.814,9.215ZM108.682,4h1.689V19H108.74l-.039-1.865a3.532,3.532,0,0,1-1.367,1.514,3.81,3.81,0,0,1-2.031.557,4.363,4.363,0,0,1-3.169-1.353,4.623,4.623,0,0,1-.967-1.587,5.8,5.8,0,0,1-.356-2.061,5.048,5.048,0,0,1,1.3-3.6A4.209,4.209,0,0,1,105.3,9.215a3.826,3.826,0,0,1,2.007.542,3.552,3.552,0,0,1,1.372,1.47Zm-3.027,13.74a2.875,2.875,0,0,0,2.231-1.011,3.648,3.648,0,0,0,.9-2.524,3.641,3.641,0,0,0-.908-2.52,2.873,2.873,0,0,0-2.227-1.016,2.938,2.938,0,0,0-2.246.981,3.611,3.611,0,0,0-.908,2.554,3.611,3.611,0,0,0,.908,2.554A2.938,2.938,0,0,0,105.654,17.74Zm16.553-3.73-.02.459h-7.5a3.392,3.392,0,0,0,.918,2.456,3.014,3.014,0,0,0,2.188.854,2.878,2.878,0,0,0,1.592-.459,2.978,2.978,0,0,0,1.094-1.27l1.523.322a4.33,4.33,0,0,1-1.641,2.061,4.476,4.476,0,0,1-2.549.752,4.638,4.638,0,0,1-3.457-1.338,4.977,4.977,0,0,1-1.318-3.652,4.953,4.953,0,0,1,1.323-3.643,4.58,4.58,0,0,1,3.4-1.338,4.334,4.334,0,0,1,3.228,1.23A4.862,4.862,0,0,1,122.207,14.01Zm-4.443-3.5a2.994,2.994,0,0,0-2,.679,3.11,3.11,0,0,0-1.011,1.978h5.752a2.852,2.852,0,0,0-.84-1.978A2.712,2.712,0,0,0,117.764,10.514ZM124.854,19V4h1.709V19Zm13.408,0a2.523,2.523,0,0,1-1.875-.688,2.6,2.6,0,0,1-.684-1.919V10.748H133.74V9.4h.723a1.387,1.387,0,0,0,1.06-.337,1.658,1.658,0,0,0,.308-1.128V6.2H137.4V9.4h2.207v1.348H137.4v5.469a1.455,1.455,0,0,0,.366,1.06,1.282,1.282,0,0,0,.962.376h.879V19Zm5.439-7.91A2.9,2.9,0,0,1,144.893,9.8a3.588,3.588,0,0,1,1.846-.508v1.592a3.163,3.163,0,0,0-2.231.713,2.978,2.978,0,0,0-.767,2.275V19h-1.689V9.4h1.65Zm7.119,8.1a3.267,3.267,0,0,1-2.1-.659,2.367,2.367,0,0,1-.825-1.968,2.8,2.8,0,0,1,.264-1.255,2.212,2.212,0,0,1,.781-.874,4.686,4.686,0,0,1,1.128-.542,10.427,10.427,0,0,1,1.46-.347l1.553-.254q.85-.156.85-.889a1.678,1.678,0,0,0-.6-1.431,2.447,2.447,0,0,0-1.519-.454,2.493,2.493,0,0,0-1.5.439,1.839,1.839,0,0,0-.713,1.348l-1.523-.322a2.932,2.932,0,0,1,1.2-2.056,4.488,4.488,0,0,1,2.617-.688,5.308,5.308,0,0,1,1.392.171,3.782,3.782,0,0,1,1.162.537,2.409,2.409,0,0,1,.83,1.035,3.852,3.852,0,0,1,.3,1.577V16.52a1.622,1.622,0,0,0,.22,1,.949.949,0,0,0,.757.259h.156V19h-.84a1.6,1.6,0,0,1-1.816-1.3h-.078A3.668,3.668,0,0,1,150.82,19.186Zm.391-1.367a2.561,2.561,0,0,0,2.061-.928,3.819,3.819,0,0,0,.781-2.539l-2.539.488a3.418,3.418,0,0,0-1.489.532,1.238,1.238,0,0,0-.483,1.05A1.224,1.224,0,0,0,150,17.477,1.983,1.983,0,0,0,151.211,17.818Zm12.959-8.6a4.183,4.183,0,0,1,3.174,1.387,5.059,5.059,0,0,1,1.3,3.6,5.1,5.1,0,0,1-1.289,3.613,4.174,4.174,0,0,1-3.184,1.387,3.853,3.853,0,0,1-2.046-.557,3.523,3.523,0,0,1-1.372-1.514L160.713,19h-1.631V4h1.68l.01,7.236a3.538,3.538,0,0,1,1.372-1.479A3.862,3.862,0,0,1,164.17,9.215ZM163.8,17.74a2.938,2.938,0,0,0,2.246-.981,3.611,3.611,0,0,0,.908-2.554,3.611,3.611,0,0,0-.908-2.554,2.938,2.938,0,0,0-2.246-.981,2.873,2.873,0,0,0-2.227,1.016,3.641,3.641,0,0,0-.908,2.52,3.648,3.648,0,0,0,.9,2.524A2.875,2.875,0,0,0,163.8,17.74Zm9.717,1.445a3.267,3.267,0,0,1-2.1-.659,2.367,2.367,0,0,1-.825-1.968,2.8,2.8,0,0,1,.264-1.255,2.212,2.212,0,0,1,.781-.874,4.686,4.686,0,0,1,1.128-.542,10.427,10.427,0,0,1,1.46-.347l1.553-.254q.85-.156.85-.889a1.678,1.678,0,0,0-.6-1.431,2.447,2.447,0,0,0-1.519-.454,2.493,2.493,0,0,0-1.5.439,1.839,1.839,0,0,0-.713,1.348l-1.523-.322a2.932,2.932,0,0,1,1.2-2.056,4.488,4.488,0,0,1,2.617-.688,5.308,5.308,0,0,1,1.392.171,3.782,3.782,0,0,1,1.162.537,2.409,2.409,0,0,1,.83,1.035,3.852,3.852,0,0,1,.3,1.577V16.52a1.622,1.622,0,0,0,.22,1,.949.949,0,0,0,.757.259h.156V19h-.84a1.6,1.6,0,0,1-1.816-1.3h-.078A3.668,3.668,0,0,1,173.516,19.186Zm.391-1.367a2.561,2.561,0,0,0,2.061-.928,3.819,3.819,0,0,0,.781-2.539l-2.539.488a3.418,3.418,0,0,0-1.489.532,1.238,1.238,0,0,0-.483,1.05,1.224,1.224,0,0,0,.464,1.055A1.983,1.983,0,0,0,173.906,17.818Zm8.74-10.674A1.15,1.15,0,0,1,181.5,6a1.083,1.083,0,0,1,.337-.8,1.107,1.107,0,0,1,.806-.332,1.1,1.1,0,0,1,.8.332,1.083,1.083,0,0,1,.337.8,1.1,1.1,0,0,1-.337.806A1.088,1.088,0,0,1,182.646,7.145ZM179.57,23.492V22.057a2.747,2.747,0,0,0,1.377-.273,1.5,1.5,0,0,0,.645-.937,7.9,7.9,0,0,0,.186-1.982V9.4h1.709v9.463a5.583,5.583,0,0,1-.889,3.584A3.792,3.792,0,0,1,179.57,23.492Zm9.58-4.307a3.267,3.267,0,0,1-2.1-.659,2.367,2.367,0,0,1-.825-1.968,2.8,2.8,0,0,1,.264-1.255,2.212,2.212,0,0,1,.781-.874,4.686,4.686,0,0,1,1.128-.542,10.427,10.427,0,0,1,1.46-.347l1.553-.254q.85-.156.85-.889a1.678,1.678,0,0,0-.6-1.431,2.447,2.447,0,0,0-1.519-.454,2.493,2.493,0,0,0-1.5.439,1.839,1.839,0,0,0-.713,1.348l-1.523-.322a2.932,2.932,0,0,1,1.2-2.056,4.488,4.488,0,0,1,2.617-.688,5.308,5.308,0,0,1,1.392.171,3.782,3.782,0,0,1,1.162.537,2.409,2.409,0,0,1,.83,1.035,3.852,3.852,0,0,1,.3,1.577V16.52a1.622,1.622,0,0,0,.22,1,.949.949,0,0,0,.757.259h.156V19h-.84a1.6,1.6,0,0,1-1.816-1.3h-.078A3.668,3.668,0,0,1,189.15,19.186Zm.391-1.367a2.561,2.561,0,0,0,2.061-.928,3.819,3.819,0,0,0,.781-2.539l-2.539.488a3.418,3.418,0,0,0-1.489.532,1.238,1.238,0,0,0-.483,1.05,1.224,1.224,0,0,0,.464,1.055A1.983,1.983,0,0,0,189.541,17.818ZM204.307,4H206V19h-1.631l-.039-1.865a3.532,3.532,0,0,1-1.367,1.514,3.81,3.81,0,0,1-2.031.557,4.363,4.363,0,0,1-3.169-1.353,4.622,4.622,0,0,1-.967-1.587,5.805,5.805,0,0,1-.356-2.061,5.048,5.048,0,0,1,1.3-3.6,4.209,4.209,0,0,1,3.188-1.387,3.826,3.826,0,0,1,2.007.542,3.552,3.552,0,0,1,1.372,1.47Zm-3.027,13.74a2.875,2.875,0,0,0,2.231-1.011,3.648,3.648,0,0,0,.9-2.524,3.641,3.641,0,0,0-.908-2.52,2.873,2.873,0,0,0-2.227-1.016,2.938,2.938,0,0,0-2.246.981,3.611,3.611,0,0,0-.908,2.554,3.611,3.611,0,0,0,.908,2.554A2.938,2.938,0,0,0,201.279,17.74Zm12.2,1.445a5.06,5.06,0,0,1-2.461-.6,4.338,4.338,0,0,1-1.733-1.743,5.354,5.354,0,0,1-.64-2.651A4.89,4.89,0,0,1,210,10.577a5.111,5.111,0,0,1,6.948,0,4.9,4.9,0,0,1,1.357,3.618,4.9,4.9,0,0,1-1.362,3.628A4.7,4.7,0,0,1,213.477,19.186Zm-.01-1.406a2.948,2.948,0,0,0,2.271-.986,3.7,3.7,0,0,0,.9-2.6,3.682,3.682,0,0,0-.9-2.588,2.948,2.948,0,0,0-2.271-.986,2.908,2.908,0,0,0-2.251.986,3.706,3.706,0,0,0-.894,2.588,3.72,3.72,0,0,0,.894,2.6A2.908,2.908,0,0,0,213.467,17.779Zm9.141-6.689A2.9,2.9,0,0,1,223.8,9.8a3.588,3.588,0,0,1,1.846-.508v1.592a3.163,3.163,0,0,0-2.231.713,2.978,2.978,0,0,0-.767,2.275V19h-1.689V9.4h1.65Zm11.865,0A2.9,2.9,0,0,1,235.664,9.8a3.588,3.588,0,0,1,1.846-.508v1.592a3.163,3.163,0,0,0-2.231.713,2.978,2.978,0,0,0-.767,2.275V19h-1.689V9.4h1.65Zm13.3,2.92-.02.459h-7.5a3.392,3.392,0,0,0,.918,2.456,3.014,3.014,0,0,0,2.188.854,2.878,2.878,0,0,0,1.592-.459,2.978,2.978,0,0,0,1.094-1.27l1.523.322a4.33,4.33,0,0,1-1.641,2.061,4.476,4.476,0,0,1-2.549.752,4.638,4.638,0,0,1-3.457-1.338A4.977,4.977,0,0,1,238.6,14.2a4.953,4.953,0,0,1,1.323-3.643,4.58,4.58,0,0,1,3.4-1.338,4.334,4.334,0,0,1,3.228,1.23A4.862,4.862,0,0,1,247.773,14.01Zm-4.443-3.5a2.994,2.994,0,0,0-2,.679,3.11,3.11,0,0,0-1.011,1.978h5.752a2.852,2.852,0,0,0-.84-1.978A2.712,2.712,0,0,0,243.33,10.514Zm9.307,8.672a3.267,3.267,0,0,1-2.1-.659,2.367,2.367,0,0,1-.825-1.968,2.8,2.8,0,0,1,.264-1.255,2.212,2.212,0,0,1,.781-.874,4.686,4.686,0,0,1,1.128-.542,10.427,10.427,0,0,1,1.46-.347l1.553-.254q.85-.156.85-.889a1.678,1.678,0,0,0-.6-1.431,2.447,2.447,0,0,0-1.519-.454,2.493,2.493,0,0,0-1.5.439,1.839,1.839,0,0,0-.713,1.348l-1.523-.322a2.932,2.932,0,0,1,1.2-2.056,4.488,4.488,0,0,1,2.617-.688,5.308,5.308,0,0,1,1.392.171,3.782,3.782,0,0,1,1.162.537,2.409,2.409,0,0,1,.83,1.035,3.851,3.851,0,0,1,.3,1.577V16.52a1.622,1.622,0,0,0,.22,1,.949.949,0,0,0,.757.259h.156V19h-.84a1.6,1.6,0,0,1-1.816-1.3h-.078A3.668,3.668,0,0,1,252.637,19.186Zm.391-1.367a2.561,2.561,0,0,0,2.061-.928,3.819,3.819,0,0,0,.781-2.539l-2.539.488a3.418,3.418,0,0,0-1.489.532,1.238,1.238,0,0,0-.483,1.05,1.224,1.224,0,0,0,.464,1.055A1.983,1.983,0,0,0,253.027,17.818ZM260.9,19V4h1.709V19ZM266.9,7.145A1.15,1.15,0,0,1,265.762,6a1.083,1.083,0,0,1,.337-.8,1.107,1.107,0,0,1,.806-.332,1.1,1.1,0,0,1,.8.332,1.083,1.083,0,0,1,.337.8,1.1,1.1,0,0,1-.337.806A1.088,1.088,0,0,1,266.9,7.145ZM266.045,19V9.4h1.7V19Zm6.465-1.367h5.117V19h-7.656l5.059-8.223h-4.766V9.4h7.354Zm9.336,1.553a3.267,3.267,0,0,1-2.1-.659,2.367,2.367,0,0,1-.825-1.968,2.8,2.8,0,0,1,.264-1.255,2.212,2.212,0,0,1,.781-.874,4.687,4.687,0,0,1,1.128-.542,10.426,10.426,0,0,1,1.46-.347l1.553-.254q.85-.156.85-.889a1.678,1.678,0,0,0-.6-1.431,2.447,2.447,0,0,0-1.519-.454,2.493,2.493,0,0,0-1.5.439,1.839,1.839,0,0,0-.713,1.348l-1.523-.322a2.932,2.932,0,0,1,1.2-2.056,4.488,4.488,0,0,1,2.617-.688,5.308,5.308,0,0,1,1.392.171,3.782,3.782,0,0,1,1.162.537,2.409,2.409,0,0,1,.83,1.035,3.851,3.851,0,0,1,.3,1.577V16.52a1.622,1.622,0,0,0,.22,1,.949.949,0,0,0,.757.259h.156V19h-.84a1.6,1.6,0,0,1-1.816-1.3h-.078A3.668,3.668,0,0,1,281.846,19.186Zm.391-1.367a2.561,2.561,0,0,0,2.061-.928,3.819,3.819,0,0,0,.781-2.539l-2.539.488a3.418,3.418,0,0,0-1.489.532,1.238,1.238,0,0,0-.483,1.05,1.224,1.224,0,0,0,.464,1.055A1.983,1.983,0,0,0,282.236,17.818Zm9.521-6.729A2.9,2.9,0,0,1,292.949,9.8a3.588,3.588,0,0,1,1.846-.508v1.592a3.163,3.163,0,0,0-2.231.713,2.978,2.978,0,0,0-.767,2.275V19h-1.689V9.4h1.65Zm15.283-1.875a4.366,4.366,0,0,1,1.738.352,4.276,4.276,0,0,1,1.426.986,4.61,4.61,0,0,1,.962,1.582,5.833,5.833,0,0,1,.356,2.07,5.076,5.076,0,0,1-1.294,3.623,4.2,4.2,0,0,1-3.188,1.377,3.8,3.8,0,0,1-2.007-.547,3.584,3.584,0,0,1-1.372-1.475v6.65h-1.689V9.4H303.6l.039,1.865a3.514,3.514,0,0,1,1.367-1.5A3.835,3.835,0,0,1,307.041,9.215Zm-.332,8.525a2.915,2.915,0,0,0,2.222-.972,3.614,3.614,0,0,0,.9-2.563,3.6,3.6,0,0,0-.9-2.559,3.029,3.029,0,0,0-4.478.044,3.6,3.6,0,0,0-.918,2.515,3.614,3.614,0,0,0,.918,2.524A2.929,2.929,0,0,0,306.709,17.74Zm11.523,1.445a5.06,5.06,0,0,1-2.461-.6,4.338,4.338,0,0,1-1.733-1.743,5.354,5.354,0,0,1-.64-2.651,4.89,4.89,0,0,1,1.362-3.618,5.111,5.111,0,0,1,6.948,0,4.9,4.9,0,0,1,1.357,3.618,4.9,4.9,0,0,1-1.362,3.628A4.7,4.7,0,0,1,318.232,19.186Zm-.01-1.406a2.948,2.948,0,0,0,2.271-.986,3.7,3.7,0,0,0,.9-2.6,3.682,3.682,0,0,0-.9-2.588,2.948,2.948,0,0,0-2.271-.986,2.908,2.908,0,0,0-2.251.986,3.706,3.706,0,0,0-.894,2.588,3.72,3.72,0,0,0,.894,2.6A2.908,2.908,0,0,0,318.223,17.779Zm9.141-6.689A2.9,2.9,0,0,1,328.555,9.8a3.588,3.588,0,0,1,1.846-.508v1.592a3.163,3.163,0,0,0-2.231.713,2.978,2.978,0,0,0-.767,2.275V19h-1.689V9.4h1.65Zm18.613,2.92-.02.459h-7.5a3.392,3.392,0,0,0,.918,2.456,3.014,3.014,0,0,0,2.188.854,2.878,2.878,0,0,0,1.592-.459,2.978,2.978,0,0,0,1.094-1.27l1.523.322a4.33,4.33,0,0,1-1.641,2.061,4.476,4.476,0,0,1-2.549.752,4.638,4.638,0,0,1-3.457-1.338,4.977,4.977,0,0,1-1.318-3.652,4.953,4.953,0,0,1,1.323-3.643,4.58,4.58,0,0,1,3.4-1.338,4.334,4.334,0,0,1,3.228,1.23A4.862,4.862,0,0,1,345.977,14.01Zm-4.443-3.5a2.994,2.994,0,0,0-2,.679,3.11,3.11,0,0,0-1.011,1.978h5.752a2.852,2.852,0,0,0-.84-1.978A2.712,2.712,0,0,0,341.533,10.514ZM348.623,19V4h1.709V19ZM361.875,7.74l2.451-3.184.9.654L363.037,7.74Zm-.693,11.445a3.267,3.267,0,0,1-2.1-.659,2.367,2.367,0,0,1-.825-1.968,2.8,2.8,0,0,1,.264-1.255,2.212,2.212,0,0,1,.781-.874,4.687,4.687,0,0,1,1.128-.542,10.426,10.426,0,0,1,1.46-.347l1.553-.254q.85-.156.85-.889a1.678,1.678,0,0,0-.6-1.431,2.447,2.447,0,0,0-1.519-.454,2.493,2.493,0,0,0-1.5.439,1.839,1.839,0,0,0-.713,1.348l-1.523-.322a2.932,2.932,0,0,1,1.2-2.056,4.488,4.488,0,0,1,2.617-.688,5.308,5.308,0,0,1,1.392.171,3.782,3.782,0,0,1,1.162.537,2.409,2.409,0,0,1,.83,1.035,3.851,3.851,0,0,1,.3,1.577V16.52a1.622,1.622,0,0,0,.22,1,.949.949,0,0,0,.757.259h.156V19h-.84a1.6,1.6,0,0,1-1.816-1.3h-.078A3.668,3.668,0,0,1,361.182,19.186Zm.391-1.367a2.561,2.561,0,0,0,2.061-.928,3.819,3.819,0,0,0,.781-2.539l-2.539.488a3.418,3.418,0,0,0-1.489.532,1.238,1.238,0,0,0-.483,1.05,1.224,1.224,0,0,0,.464,1.055A1.983,1.983,0,0,0,361.572,17.818Zm9.521-6.729A2.9,2.9,0,0,1,372.285,9.8a3.588,3.588,0,0,1,1.846-.508v1.592a3.163,3.163,0,0,0-2.231.713,2.978,2.978,0,0,0-.767,2.275V19h-1.689V9.4h1.65Zm13.3,2.92-.02.459h-7.5a3.392,3.392,0,0,0,.918,2.456,3.014,3.014,0,0,0,2.188.854,2.878,2.878,0,0,0,1.592-.459,2.978,2.978,0,0,0,1.094-1.27l1.523.322a4.33,4.33,0,0,1-1.641,2.061,4.476,4.476,0,0,1-2.549.752,4.638,4.638,0,0,1-3.457-1.338,4.977,4.977,0,0,1-1.318-3.652,4.953,4.953,0,0,1,1.323-3.643,4.58,4.58,0,0,1,3.4-1.338,4.334,4.334,0,0,1,3.228,1.23A4.862,4.862,0,0,1,384.395,14.01Zm-4.443-3.5a2.994,2.994,0,0,0-2,.679,3.11,3.11,0,0,0-1.011,1.978H382.7a2.852,2.852,0,0,0-.84-1.978A2.712,2.712,0,0,0,379.951,10.514Zm9.307,8.672a3.267,3.267,0,0,1-2.1-.659,2.367,2.367,0,0,1-.825-1.968,2.8,2.8,0,0,1,.264-1.255,2.212,2.212,0,0,1,.781-.874,4.687,4.687,0,0,1,1.128-.542,10.426,10.426,0,0,1,1.46-.347l1.553-.254q.85-.156.85-.889a1.678,1.678,0,0,0-.6-1.431,2.447,2.447,0,0,0-1.519-.454,2.493,2.493,0,0,0-1.5.439,1.839,1.839,0,0,0-.713,1.348l-1.523-.322a2.932,2.932,0,0,1,1.2-2.056,4.488,4.488,0,0,1,2.617-.688,5.308,5.308,0,0,1,1.392.171,3.782,3.782,0,0,1,1.162.537,2.409,2.409,0,0,1,.83,1.035,3.851,3.851,0,0,1,.3,1.577V16.52a1.622,1.622,0,0,0,.22,1,.949.949,0,0,0,.757.259h.156V19h-.84a1.6,1.6,0,0,1-1.816-1.3H392.4A3.668,3.668,0,0,1,389.258,19.186Zm.391-1.367a2.561,2.561,0,0,0,2.061-.928,3.819,3.819,0,0,0,.781-2.539l-2.539.488a3.418,3.418,0,0,0-1.489.532,1.238,1.238,0,0,0-.483,1.05,1.224,1.224,0,0,0,.464,1.055A1.983,1.983,0,0,0,389.648,17.818ZM409.8,4h1.689V19h-1.631l-.039-1.865a3.532,3.532,0,0,1-1.367,1.514,3.81,3.81,0,0,1-2.031.557,4.363,4.363,0,0,1-3.169-1.353,4.623,4.623,0,0,1-.967-1.587,5.8,5.8,0,0,1-.356-2.061,5.048,5.048,0,0,1,1.3-3.6,4.209,4.209,0,0,1,3.188-1.387,3.826,3.826,0,0,1,2.007.542,3.552,3.552,0,0,1,1.372,1.47Zm-3.027,13.74a2.875,2.875,0,0,0,2.231-1.011,3.648,3.648,0,0,0,.9-2.524,3.641,3.641,0,0,0-.908-2.52,2.873,2.873,0,0,0-2.227-1.016,2.938,2.938,0,0,0-2.246.981,3.611,3.611,0,0,0-.908,2.554,3.611,3.611,0,0,0,.908,2.554A2.938,2.938,0,0,0,406.777,17.74Zm16.553-3.73-.02.459h-7.5a3.392,3.392,0,0,0,.918,2.456,3.014,3.014,0,0,0,2.188.854,2.878,2.878,0,0,0,1.592-.459,2.978,2.978,0,0,0,1.094-1.27l1.523.322a4.33,4.33,0,0,1-1.641,2.061,4.476,4.476,0,0,1-2.549.752,4.638,4.638,0,0,1-3.457-1.338A4.977,4.977,0,0,1,414.16,14.2a4.953,4.953,0,0,1,1.323-3.643,4.58,4.58,0,0,1,3.4-1.338,4.334,4.334,0,0,1,3.228,1.23A4.862,4.862,0,0,1,423.33,14.01Zm-4.443-3.5a2.994,2.994,0,0,0-2,.679,3.11,3.11,0,0,0-1.011,1.978h5.752a2.852,2.852,0,0,0-.84-1.978A2.712,2.712,0,0,0,418.887,10.514ZM11.533,39.215a3.094,3.094,0,0,1,2.236.815,3.025,3.025,0,0,1,.85,2.29V49H12.93V42.76a2.169,2.169,0,0,0-.527-1.582,1.8,1.8,0,0,0-1.338-.537,1.9,1.9,0,0,0-1.465.605,2.6,2.6,0,0,0-.557,1.816V49H7.324V42.828a2.269,2.269,0,0,0-.532-1.636,1.81,1.81,0,0,0-1.362-.552,1.878,1.878,0,0,0-1.46.62,2.694,2.694,0,0,0-.562,1.86V49H1.719V39.4H3.408v1.24a2.916,2.916,0,0,1,1.1-1.055,3.133,3.133,0,0,1,1.528-.371,3.261,3.261,0,0,1,1.641.405A2.523,2.523,0,0,1,8.74,40.787,2.987,2.987,0,0,1,9.893,39.62,3.3,3.3,0,0,1,11.533,39.215ZM26.289,44.01l-.02.459h-7.5a3.392,3.392,0,0,0,.918,2.456,3.014,3.014,0,0,0,2.188.854,2.878,2.878,0,0,0,1.592-.459,2.978,2.978,0,0,0,1.094-1.27l1.523.322a4.33,4.33,0,0,1-1.641,2.061,4.476,4.476,0,0,1-2.549.752,4.638,4.638,0,0,1-3.457-1.338A4.977,4.977,0,0,1,17.119,44.2a4.953,4.953,0,0,1,1.323-3.643,4.58,4.58,0,0,1,3.4-1.338,4.334,4.334,0,0,1,3.228,1.23A4.862,4.862,0,0,1,26.289,44.01Zm-4.443-3.5a2.994,2.994,0,0,0-2,.679,3.11,3.11,0,0,0-1.011,1.978H24.59a2.852,2.852,0,0,0-.84-1.978A2.712,2.712,0,0,0,21.846,40.514ZM36.025,34h1.689V49H36.084l-.039-1.865a3.532,3.532,0,0,1-1.367,1.514,3.81,3.81,0,0,1-2.031.557,4.363,4.363,0,0,1-3.169-1.353,4.623,4.623,0,0,1-.967-1.587,5.805,5.805,0,0,1-.356-2.061,5.048,5.048,0,0,1,1.3-3.6,4.209,4.209,0,0,1,3.188-1.387,3.826,3.826,0,0,1,2.007.542,3.552,3.552,0,0,1,1.372,1.47ZM33,47.74a2.875,2.875,0,0,0,2.231-1.011,3.964,3.964,0,0,0,0-5.044A2.873,2.873,0,0,0,33,40.67a2.938,2.938,0,0,0-2.246.981,4.044,4.044,0,0,0,0,5.107A2.938,2.938,0,0,0,33,47.74Zm9.014-10.6A1.15,1.15,0,0,1,40.869,36a1.083,1.083,0,0,1,.337-.8,1.107,1.107,0,0,1,.806-.332,1.1,1.1,0,0,1,.8.332,1.083,1.083,0,0,1,.337.8,1.1,1.1,0,0,1-.337.806A1.088,1.088,0,0,1,42.012,37.145ZM41.152,49V39.4h1.7V49Zm9.121.176A4.624,4.624,0,0,1,46.836,47.8a5.469,5.469,0,0,1,0-7.207,5,5,0,0,1,6.221-.537,4.238,4.238,0,0,1,1.616,2.334l-1.582.254A2.922,2.922,0,0,0,52,41.148a2.952,2.952,0,0,0-1.738-.527,2.838,2.838,0,0,0-2.222.986,4.261,4.261,0,0,0,0,5.171,2.844,2.844,0,0,0,2.222.981A2.952,2.952,0,0,0,52,47.232a2.922,2.922,0,0,0,1.084-1.494L54.668,46a4.243,4.243,0,0,1-1.626,2.329A4.65,4.65,0,0,1,50.273,49.176Zm7.744-12.031A1.15,1.15,0,0,1,56.875,36a1.083,1.083,0,0,1,.337-.8,1.107,1.107,0,0,1,.806-.332,1.1,1.1,0,0,1,.8.332,1.083,1.083,0,0,1,.337.8,1.1,1.1,0,0,1-.337.806A1.088,1.088,0,0,1,58.018,37.145ZM57.158,49V39.4h1.7V49Zm9.668-9.785a3.339,3.339,0,0,1,2.417.869,3.242,3.242,0,0,1,.9,2.451V49H68.457V42.916a2.27,2.27,0,0,0-.586-1.719,2.1,2.1,0,0,0-1.5-.557,2.322,2.322,0,0,0-1.709.659,2.675,2.675,0,0,0-.674,1.958V49H62.295V39.4h1.689v1.23A3.206,3.206,0,0,1,66.826,39.215Zm8.8,9.971a3.267,3.267,0,0,1-2.1-.659,2.367,2.367,0,0,1-.825-1.968,2.8,2.8,0,0,1,.264-1.255,2.212,2.212,0,0,1,.781-.874,4.687,4.687,0,0,1,1.128-.542,10.426,10.426,0,0,1,1.46-.347l1.553-.254q.85-.156.85-.889a1.678,1.678,0,0,0-.6-1.431,2.447,2.447,0,0,0-1.519-.454,2.493,2.493,0,0,0-1.5.439,1.839,1.839,0,0,0-.713,1.348l-1.523-.322a2.932,2.932,0,0,1,1.2-2.056,4.488,4.488,0,0,1,2.617-.688,5.308,5.308,0,0,1,1.392.171,3.782,3.782,0,0,1,1.162.537,2.409,2.409,0,0,1,.83,1.035,3.852,3.852,0,0,1,.3,1.577V46.52a1.622,1.622,0,0,0,.22,1,.949.949,0,0,0,.757.259H81.5V49h-.84a1.6,1.6,0,0,1-1.816-1.3H78.77A3.668,3.668,0,0,1,75.625,49.186Zm.391-1.367a2.561,2.561,0,0,0,2.061-.928,3.819,3.819,0,0,0,.781-2.539l-2.539.488a3.418,3.418,0,0,0-1.489.532,1.238,1.238,0,0,0-.483,1.05,1.224,1.224,0,0,0,.464,1.055A1.983,1.983,0,0,0,76.016,47.818ZM96.172,34h1.689V49H96.23l-.039-1.865a3.532,3.532,0,0,1-1.367,1.514,3.81,3.81,0,0,1-2.031.557,4.363,4.363,0,0,1-3.169-1.353,4.623,4.623,0,0,1-.967-1.587,5.8,5.8,0,0,1-.356-2.061,5.048,5.048,0,0,1,1.3-3.6,4.209,4.209,0,0,1,3.188-1.387,3.826,3.826,0,0,1,2.007.542,3.552,3.552,0,0,1,1.372,1.47ZM93.145,47.74a2.875,2.875,0,0,0,2.231-1.011,3.964,3.964,0,0,0,0-5.044,2.873,2.873,0,0,0-2.227-1.016,2.938,2.938,0,0,0-2.246.981,4.044,4.044,0,0,0,0,5.107A2.938,2.938,0,0,0,93.145,47.74ZM109.7,44.01l-.02.459h-7.5a3.392,3.392,0,0,0,.918,2.456,3.014,3.014,0,0,0,2.188.854,2.878,2.878,0,0,0,1.592-.459,2.978,2.978,0,0,0,1.094-1.27l1.523.322a4.33,4.33,0,0,1-1.641,2.061,4.476,4.476,0,0,1-2.549.752,4.638,4.638,0,0,1-3.457-1.338,4.977,4.977,0,0,1-1.318-3.652,4.953,4.953,0,0,1,1.323-3.643,4.58,4.58,0,0,1,3.4-1.338,4.334,4.334,0,0,1,3.228,1.23A4.862,4.862,0,0,1,109.7,44.01Zm-4.443-3.5a2.994,2.994,0,0,0-2,.679,3.11,3.11,0,0,0-1.011,1.978H108a2.852,2.852,0,0,0-.84-1.978A2.712,2.712,0,0,0,105.254,40.514ZM112.344,49V34h1.709V49Zm13.408,0a2.523,2.523,0,0,1-1.875-.688,2.6,2.6,0,0,1-.684-1.919V40.748H121.23V39.4h.723a1.387,1.387,0,0,0,1.06-.337,1.658,1.658,0,0,0,.308-1.128V36.2h1.572v3.2H127.1v1.348h-2.207v5.469a1.455,1.455,0,0,0,.366,1.06,1.282,1.282,0,0,0,.962.376h.879V49Zm5.439-7.91a2.9,2.9,0,0,1,1.191-1.289,3.588,3.588,0,0,1,1.846-.508v1.592A3.163,3.163,0,0,0,132,41.6a2.978,2.978,0,0,0-.767,2.275V49h-1.689V39.4h1.65Zm7.119,8.1a3.267,3.267,0,0,1-2.1-.659,2.367,2.367,0,0,1-.825-1.968,2.8,2.8,0,0,1,.264-1.255,2.212,2.212,0,0,1,.781-.874,4.686,4.686,0,0,1,1.128-.542,10.427,10.427,0,0,1,1.46-.347l1.553-.254q.85-.156.85-.889a1.678,1.678,0,0,0-.6-1.431,2.447,2.447,0,0,0-1.519-.454,2.493,2.493,0,0,0-1.5.439,1.839,1.839,0,0,0-.713,1.348l-1.523-.322a2.932,2.932,0,0,1,1.2-2.056,4.488,4.488,0,0,1,2.617-.688,5.308,5.308,0,0,1,1.392.171,3.782,3.782,0,0,1,1.162.537,2.409,2.409,0,0,1,.83,1.035,3.852,3.852,0,0,1,.3,1.577V46.52a1.622,1.622,0,0,0,.22,1,.948.948,0,0,0,.757.259h.156V49h-.84a1.6,1.6,0,0,1-1.816-1.3h-.078A3.668,3.668,0,0,1,138.311,49.186Zm.391-1.367a2.561,2.561,0,0,0,2.061-.928,3.819,3.819,0,0,0,.781-2.539L139,44.84a3.418,3.418,0,0,0-1.489.532,1.238,1.238,0,0,0-.483,1.05,1.224,1.224,0,0,0,.464,1.055A1.983,1.983,0,0,0,138.7,47.818Zm12.959-8.6a4.183,4.183,0,0,1,3.174,1.387,5.678,5.678,0,0,1,.01,7.217,4.174,4.174,0,0,1-3.184,1.387,3.853,3.853,0,0,1-2.046-.557,3.523,3.523,0,0,1-1.372-1.514L148.2,49h-1.631V34h1.68l.01,7.236a3.538,3.538,0,0,1,1.372-1.479A3.862,3.862,0,0,1,151.66,39.215Zm-.371,8.525a2.938,2.938,0,0,0,2.246-.981,4.044,4.044,0,0,0,0-5.107,2.938,2.938,0,0,0-2.246-.981,2.873,2.873,0,0,0-2.227,1.016,3.964,3.964,0,0,0,0,5.044A2.875,2.875,0,0,0,151.289,47.74Zm9.717,1.445a3.267,3.267,0,0,1-2.1-.659,2.367,2.367,0,0,1-.825-1.968,2.8,2.8,0,0,1,.264-1.255,2.212,2.212,0,0,1,.781-.874,4.686,4.686,0,0,1,1.128-.542,10.427,10.427,0,0,1,1.46-.347l1.553-.254q.85-.156.85-.889a1.678,1.678,0,0,0-.6-1.431,2.447,2.447,0,0,0-1.519-.454,2.493,2.493,0,0,0-1.5.439,1.839,1.839,0,0,0-.713,1.348l-1.523-.322a2.932,2.932,0,0,1,1.2-2.056,4.488,4.488,0,0,1,2.617-.688,5.308,5.308,0,0,1,1.392.171,3.782,3.782,0,0,1,1.162.537,2.409,2.409,0,0,1,.83,1.035,3.852,3.852,0,0,1,.3,1.577V46.52a1.622,1.622,0,0,0,.22,1,.948.948,0,0,0,.757.259h.156V49h-.84a1.6,1.6,0,0,1-1.816-1.3h-.078A3.668,3.668,0,0,1,161.006,49.186Zm.391-1.367a2.561,2.561,0,0,0,2.061-.928,3.819,3.819,0,0,0,.781-2.539l-2.539.488a3.418,3.418,0,0,0-1.489.532,1.238,1.238,0,0,0-.483,1.05,1.224,1.224,0,0,0,.464,1.055A1.983,1.983,0,0,0,161.4,47.818Zm8.74-10.674A1.15,1.15,0,0,1,168.994,36a1.083,1.083,0,0,1,.337-.8,1.107,1.107,0,0,1,.806-.332,1.1,1.1,0,0,1,.8.332,1.083,1.083,0,0,1,.337.8,1.1,1.1,0,0,1-.337.806A1.088,1.088,0,0,1,170.137,37.145Zm-3.076,16.348V52.057a2.747,2.747,0,0,0,1.377-.273,1.5,1.5,0,0,0,.645-.937,7.9,7.9,0,0,0,.186-1.982V39.4h1.709v9.463a5.583,5.583,0,0,1-.889,3.584A3.792,3.792,0,0,1,167.061,53.492Zm11.406-4.307a5.06,5.06,0,0,1-2.461-.6,4.338,4.338,0,0,1-1.733-1.743,5.354,5.354,0,0,1-.64-2.651A4.89,4.89,0,0,1,175,40.577a5.111,5.111,0,0,1,6.948,0A4.9,4.9,0,0,1,183.3,44.2a4.9,4.9,0,0,1-1.362,3.628A4.7,4.7,0,0,1,178.467,49.186Zm-.01-1.406a2.948,2.948,0,0,0,2.271-.986,4.173,4.173,0,0,0,0-5.186,2.948,2.948,0,0,0-2.271-.986,2.908,2.908,0,0,0-2.251.986,4.208,4.208,0,0,0,0,5.186A2.908,2.908,0,0,0,178.457,47.779ZM198.232,34h1.689V49h-1.631l-.039-1.865a3.532,3.532,0,0,1-1.367,1.514,3.81,3.81,0,0,1-2.031.557,4.363,4.363,0,0,1-3.169-1.353,4.622,4.622,0,0,1-.967-1.587,5.805,5.805,0,0,1-.356-2.061,5.048,5.048,0,0,1,1.3-3.6,4.209,4.209,0,0,1,3.188-1.387,3.826,3.826,0,0,1,2.007.542,3.552,3.552,0,0,1,1.372,1.47Zm-3.027,13.74a2.875,2.875,0,0,0,2.231-1.011,3.964,3.964,0,0,0,0-5.044,2.873,2.873,0,0,0-2.227-1.016,2.938,2.938,0,0,0-2.246.981,4.044,4.044,0,0,0,0,5.107A2.938,2.938,0,0,0,195.205,47.74Zm16.553-3.73-.02.459h-7.5a3.392,3.392,0,0,0,.918,2.456,3.014,3.014,0,0,0,2.188.854,2.878,2.878,0,0,0,1.592-.459,2.978,2.978,0,0,0,1.094-1.27l1.523.322a4.33,4.33,0,0,1-1.641,2.061,4.476,4.476,0,0,1-2.549.752,4.638,4.638,0,0,1-3.457-1.338,4.977,4.977,0,0,1-1.318-3.652,4.953,4.953,0,0,1,1.323-3.643,4.58,4.58,0,0,1,3.4-1.338,4.334,4.334,0,0,1,3.228,1.23A4.862,4.862,0,0,1,211.758,44.01Zm-4.443-3.5a2.994,2.994,0,0,0-2,.679,3.11,3.11,0,0,0-1.011,1.978h5.752a2.852,2.852,0,0,0-.84-1.978A2.712,2.712,0,0,0,207.314,40.514ZM219.6,49V34h1.709V49Zm7.363.186a3.267,3.267,0,0,1-2.1-.659,2.367,2.367,0,0,1-.825-1.968A2.8,2.8,0,0,1,224.3,45.3a2.212,2.212,0,0,1,.781-.874,4.686,4.686,0,0,1,1.128-.542,10.427,10.427,0,0,1,1.46-.347l1.553-.254q.85-.156.85-.889a1.678,1.678,0,0,0-.6-1.431,2.447,2.447,0,0,0-1.519-.454,2.493,2.493,0,0,0-1.5.439,1.839,1.839,0,0,0-.713,1.348l-1.523-.322a2.932,2.932,0,0,1,1.2-2.056,4.488,4.488,0,0,1,2.617-.688,5.308,5.308,0,0,1,1.392.171,3.782,3.782,0,0,1,1.162.537,2.409,2.409,0,0,1,.83,1.035,3.852,3.852,0,0,1,.3,1.577V46.52a1.622,1.622,0,0,0,.22,1,.948.948,0,0,0,.757.259h.156V49H232a1.6,1.6,0,0,1-1.816-1.3h-.078A3.668,3.668,0,0,1,226.963,49.186Zm.391-1.367a2.561,2.561,0,0,0,2.061-.928,3.819,3.819,0,0,0,.781-2.539l-2.539.488a3.418,3.418,0,0,0-1.489.532,1.238,1.238,0,0,0-.483,1.05,1.224,1.224,0,0,0,.464,1.055A1.983,1.983,0,0,0,227.354,47.818Zm21.465-3.809-.02.459h-7.5a3.392,3.392,0,0,0,.918,2.456,3.014,3.014,0,0,0,2.188.854A2.878,2.878,0,0,0,246,47.32a2.978,2.978,0,0,0,1.094-1.27l1.523.322a4.33,4.33,0,0,1-1.641,2.061,4.476,4.476,0,0,1-2.549.752,4.638,4.638,0,0,1-3.457-1.338,4.977,4.977,0,0,1-1.318-3.652,4.953,4.953,0,0,1,1.323-3.643,4.58,4.58,0,0,1,3.4-1.338,4.334,4.334,0,0,1,3.228,1.23A4.862,4.862,0,0,1,248.818,44.01Zm-4.443-3.5a2.994,2.994,0,0,0-2,.679,3.11,3.11,0,0,0-1.011,1.978h5.752a2.852,2.852,0,0,0-.84-1.978A2.712,2.712,0,0,0,244.375,40.514Zm16.9-1.3a3.094,3.094,0,0,1,2.236.815,3.025,3.025,0,0,1,.85,2.29V49h-1.689V42.76a2.169,2.169,0,0,0-.527-1.582,1.8,1.8,0,0,0-1.338-.537,1.9,1.9,0,0,0-1.465.605,2.6,2.6,0,0,0-.557,1.816V49H257.07V42.828a2.269,2.269,0,0,0-.532-1.636,1.81,1.81,0,0,0-1.362-.552,1.878,1.878,0,0,0-1.46.62,2.694,2.694,0,0,0-.562,1.86V49h-1.689V39.4h1.689v1.24a2.916,2.916,0,0,1,1.1-1.055,3.133,3.133,0,0,1,1.528-.371,3.261,3.261,0,0,1,1.641.405,2.523,2.523,0,0,1,1.064,1.167,2.987,2.987,0,0,1,1.152-1.167A3.3,3.3,0,0,1,261.279,39.215Zm11.426,0a4.366,4.366,0,0,1,1.738.352,4.276,4.276,0,0,1,1.426.986,4.61,4.61,0,0,1,.962,1.582,5.833,5.833,0,0,1,.356,2.07,5.076,5.076,0,0,1-1.294,3.623,4.2,4.2,0,0,1-3.188,1.377,3.8,3.8,0,0,1-2.007-.547,3.584,3.584,0,0,1-1.372-1.475v6.65h-1.689V39.4h1.631l.039,1.865a3.514,3.514,0,0,1,1.367-1.5A3.835,3.835,0,0,1,272.705,39.215Zm-.332,8.525a2.915,2.915,0,0,0,2.222-.972,4.082,4.082,0,0,0,0-5.122,3.029,3.029,0,0,0-4.478.044,3.917,3.917,0,0,0,0,5.039A2.929,2.929,0,0,0,272.373,47.74Zm9.131-6.65A2.9,2.9,0,0,1,282.7,39.8a3.588,3.588,0,0,1,1.846-.508v1.592a3.163,3.163,0,0,0-2.231.713,2.978,2.978,0,0,0-.767,2.275V49h-1.689V39.4h1.65Zm13.3,2.92-.02.459h-7.5a3.392,3.392,0,0,0,.918,2.456,3.014,3.014,0,0,0,2.188.854,2.878,2.878,0,0,0,1.592-.459,2.978,2.978,0,0,0,1.094-1.27l1.523.322a4.33,4.33,0,0,1-1.641,2.061,4.476,4.476,0,0,1-2.549.752,4.638,4.638,0,0,1-3.457-1.338,4.977,4.977,0,0,1-1.318-3.652,4.953,4.953,0,0,1,1.323-3.643,4.58,4.58,0,0,1,3.4-1.338,4.334,4.334,0,0,1,3.228,1.23A4.862,4.862,0,0,1,294.8,44.01Zm-4.443-3.5a2.994,2.994,0,0,0-2,.679,3.11,3.11,0,0,0-1.011,1.978h5.752a2.852,2.852,0,0,0-.84-1.978A2.712,2.712,0,0,0,290.361,40.514Zm10.127,8.672a4.551,4.551,0,0,1-2.588-.693,2.868,2.868,0,0,1-1.26-1.973l1.475-.42a2.057,2.057,0,0,0,.786,1.333,2.55,2.55,0,0,0,1.577.474,3.147,3.147,0,0,0,.923-.127,1.479,1.479,0,0,0,.708-.474,1.321,1.321,0,0,0,.205-1.27,1.7,1.7,0,0,0-.156-.317.967.967,0,0,0-.273-.264,3.6,3.6,0,0,0-.332-.205,3.409,3.409,0,0,0-.435-.181q-.288-.1-.464-.156t-.537-.156q-.361-.1-.557-.161a10.412,10.412,0,0,1-1-.352,4.369,4.369,0,0,1-.811-.464,1.866,1.866,0,0,1-.63-.757,2.561,2.561,0,0,1-.21-1.074,2.482,2.482,0,0,1,.469-1.533,2.637,2.637,0,0,1,1.216-.9,4.86,4.86,0,0,1,1.7-.278,4.171,4.171,0,0,1,2.339.625,2.668,2.668,0,0,1,1.167,1.875l-1.387.352a1.838,1.838,0,0,0-.732-1.216,2.332,2.332,0,0,0-1.377-.405,2.377,2.377,0,0,0-1.289.337,1.132,1.132,0,0,0-.537,1.03,1.025,1.025,0,0,0,.142.532,1.69,1.69,0,0,0,.288.376,1.771,1.771,0,0,0,.527.288q.381.151.566.205t.7.181q.1.029.146.039.566.146.923.259a5.673,5.673,0,0,1,.83.352,2.759,2.759,0,0,1,.747.522,2.421,2.421,0,0,1,.469.742,2.62,2.62,0,0,1,.2,1.035,2.8,2.8,0,0,1-.288,1.294,2.253,2.253,0,0,1-.786.884,3.8,3.8,0,0,1-1.118.483A5.327,5.327,0,0,1,300.488,49.186Zm8.408,0a3.267,3.267,0,0,1-2.1-.659,2.367,2.367,0,0,1-.825-1.968,2.8,2.8,0,0,1,.264-1.255,2.212,2.212,0,0,1,.781-.874,4.687,4.687,0,0,1,1.128-.542,10.426,10.426,0,0,1,1.46-.347l1.553-.254q.85-.156.85-.889a1.678,1.678,0,0,0-.6-1.431,2.447,2.447,0,0,0-1.519-.454,2.493,2.493,0,0,0-1.5.439,1.839,1.839,0,0,0-.713,1.348l-1.523-.322a2.932,2.932,0,0,1,1.2-2.056,4.488,4.488,0,0,1,2.617-.688,5.308,5.308,0,0,1,1.392.171,3.782,3.782,0,0,1,1.162.537,2.409,2.409,0,0,1,.83,1.035,3.851,3.851,0,0,1,.3,1.577V46.52a1.622,1.622,0,0,0,.22,1,.949.949,0,0,0,.757.259h.156V49h-.84a1.6,1.6,0,0,1-1.816-1.3h-.078A3.668,3.668,0,0,1,308.9,49.186Zm.391-1.367a2.561,2.561,0,0,0,2.061-.928,3.819,3.819,0,0,0,.781-2.539l-2.539.488a3.418,3.418,0,0,0-1.489.532,1.238,1.238,0,0,0-.483,1.05,1.224,1.224,0,0,0,.464,1.055A1.983,1.983,0,0,0,309.287,47.818Zm9.355,1.377a1.1,1.1,0,0,1-.8-.332,1.135,1.135,0,0,1,.8-1.934,1.1,1.1,0,0,1,.8.337,1.109,1.109,0,0,1,0,1.6A1.107,1.107,0,0,1,318.643,49.2Z" transform="translate(738 4124)" fill="#00223d"/>
    <path id="Trazado_34899" data-name="Trazado 34899" d="M7.165,21.215a7.5,7.5,0,0,1-4.308-1.187A4.761,4.761,0,0,1,.763,16.7l3.33-.763A2.828,2.828,0,0,0,5.119,17.9a3.4,3.4,0,0,0,2.175.682,2.81,2.81,0,0,0,1.7-.478,1.612,1.612,0,0,0,.645-1.413,1.506,1.506,0,0,0-.548-1.149,3.58,3.58,0,0,0-1.09-.7q-.542-.209-1.746-.575-.161-.054-.236-.075Q5.4,14,5.027,13.867t-.929-.36a6.188,6.188,0,0,1-.9-.451,6.607,6.607,0,0,1-.747-.559,2.926,2.926,0,0,1-.623-.714,3.8,3.8,0,0,1-.376-.892A3.935,3.935,0,0,1,1.3,9.785a4.155,4.155,0,0,1,.725-2.444A4.441,4.441,0,0,1,3.98,5.784a7.116,7.116,0,0,1,2.8-.521A8.84,8.84,0,0,1,8.8,5.488a7.093,7.093,0,0,1,1.81.693,4.434,4.434,0,0,1,1.445,1.278,4.807,4.807,0,0,1,.822,1.885l-3.115.773A2.524,2.524,0,0,0,6.972,7.895a3.058,3.058,0,0,0-1.729.451A1.529,1.529,0,0,0,4.565,9.71q0,.849,1.128,1.375a16.808,16.808,0,0,0,2.159.741q.634.193,1.031.322t1,.376A6.942,6.942,0,0,1,10.86,13a7.234,7.234,0,0,1,.816.6,3.211,3.211,0,0,1,.693.773,4.182,4.182,0,0,1,.424.961,4.018,4.018,0,0,1,.172,1.2,4.706,4.706,0,0,1-.312,1.751A3.811,3.811,0,0,1,11.8,19.6a4.959,4.959,0,0,1-1.284.908,6.228,6.228,0,0,1-1.579.537A9.082,9.082,0,0,1,7.165,21.215ZM15.941,21V5.478h3.223V21ZM33.773,5.478h3.212V21H33.258L26.383,9.9V21H23.171V5.478h3.685L33.773,16.51ZM53.593,21.215a8.664,8.664,0,0,1-3.164-.569,7.439,7.439,0,0,1-2.519-1.59,7.167,7.167,0,0,1-1.654-2.524,8.8,8.8,0,0,1-.6-3.3,8.408,8.408,0,0,1,1.031-4.216,7.021,7.021,0,0,1,2.831-2.788,8.476,8.476,0,0,1,4.077-.967A8.237,8.237,0,0,1,58.147,6.52,6.88,6.88,0,0,1,60.93,9.979l-3.008,1.1a4.252,4.252,0,0,0-1.665-2.095,4.756,4.756,0,0,0-2.664-.752A4.559,4.559,0,0,0,50.2,9.581a4.98,4.98,0,0,0-1.332,3.652A4.988,4.988,0,0,0,50.2,16.891a4.554,4.554,0,0,0,3.389,1.359,4.738,4.738,0,0,0,2.659-.757,4.271,4.271,0,0,0,1.67-2.1l3.008,1.1a6.908,6.908,0,0,1-2.782,3.464A8.211,8.211,0,0,1,53.593,21.215ZM71.769,21l-4.039-6.832h-.935V21H63.572V5.478H69.2a6.511,6.511,0,0,1,2.256.36,3.9,3.9,0,0,1,1.563,1A4.278,4.278,0,0,1,73.9,8.3a5.363,5.363,0,0,1,.3,1.815,3.791,3.791,0,0,1-.849,2.551,4.277,4.277,0,0,1-2.438,1.337L75.582,21ZM66.795,8.152v3.706h1.9q2.417,0,2.417-1.848a1.682,1.682,0,0,0-.591-1.364A2.809,2.809,0,0,0,68.7,8.152ZM77.945,21V5.478h3.223V21ZM94.177,5.478V8.313H90.492V21H87.3V8.313H83.6V5.478Zm11.44,2.836H99.859v3.523h5.1v2.8h-5.1v3.513h5.758V21h-9V5.478h9ZM117.133,21l-4.039-6.832h-.935V21h-3.223V5.478h5.629a6.511,6.511,0,0,1,2.256.36,3.9,3.9,0,0,1,1.563,1,4.278,4.278,0,0,1,.881,1.466,5.363,5.363,0,0,1,.3,1.815,3.791,3.791,0,0,1-.849,2.551,4.277,4.277,0,0,1-2.438,1.337L120.946,21ZM112.159,8.152v3.706h1.9q2.417,0,2.417-1.848a1.682,1.682,0,0,0-.591-1.364,2.809,2.809,0,0,0-1.826-.494ZM123.31,21V5.478h3.223V21Zm14.1.215a8.438,8.438,0,0,1-4.077-.972,7.047,7.047,0,0,1-2.831-2.8,8.416,8.416,0,0,1-1.031-4.211,8.408,8.408,0,0,1,1.031-4.216,7.021,7.021,0,0,1,2.831-2.788,9.067,9.067,0,0,1,8.148,0,7.03,7.03,0,0,1,2.825,2.788,8.408,8.408,0,0,1,1.031,4.216,8.416,8.416,0,0,1-1.031,4.211,7.047,7.047,0,0,1-2.831,2.8A8.415,8.415,0,0,1,137.414,21.215Zm-3.395-4.308a4.926,4.926,0,0,0,6.789-.005,5.014,5.014,0,0,0,1.332-3.668,4.98,4.98,0,0,0-1.332-3.652,4.933,4.933,0,0,0-6.789,0,4.98,4.98,0,0,0-1.332,3.652A5.033,5.033,0,0,0,134.02,16.907Zm19.357,4.308a7.5,7.5,0,0,1-4.308-1.187,4.761,4.761,0,0,1-2.095-3.325l3.33-.763a2.828,2.828,0,0,0,1.026,1.96,3.4,3.4,0,0,0,2.175.682,2.81,2.81,0,0,0,1.7-.478,1.612,1.612,0,0,0,.645-1.413,1.506,1.506,0,0,0-.548-1.149,3.58,3.58,0,0,0-1.09-.7q-.542-.209-1.746-.575-.161-.054-.236-.075-.612-.193-.988-.322t-.929-.36a6.187,6.187,0,0,1-.9-.451,6.607,6.607,0,0,1-.747-.559,2.926,2.926,0,0,1-.623-.714,3.8,3.8,0,0,1-.376-.892,3.935,3.935,0,0,1-.15-1.106,4.155,4.155,0,0,1,.725-2.444,4.441,4.441,0,0,1,1.955-1.558,7.116,7.116,0,0,1,2.8-.521,8.84,8.84,0,0,1,2.025.226,7.093,7.093,0,0,1,1.81.693,4.434,4.434,0,0,1,1.445,1.278,4.807,4.807,0,0,1,.822,1.885l-3.115.773a2.524,2.524,0,0,0-2.793-2.224,3.058,3.058,0,0,0-1.729.451,1.529,1.529,0,0,0-.677,1.364q0,.849,1.128,1.375a16.807,16.807,0,0,0,2.159.741q.634.193,1.031.322t1,.376a6.942,6.942,0,0,1,.978.478,7.234,7.234,0,0,1,.816.6,3.21,3.21,0,0,1,.693.773,4.182,4.182,0,0,1,.424.961,4.018,4.018,0,0,1,.172,1.2,4.706,4.706,0,0,1-.312,1.751,3.811,3.811,0,0,1-.854,1.321,4.959,4.959,0,0,1-1.284.908,6.228,6.228,0,0,1-1.579.537A9.082,9.082,0,0,1,153.377,21.215ZM167.868,21V5.478h5.618a8.759,8.759,0,0,1,3.239.559,5.966,5.966,0,0,1,2.32,1.584,6.893,6.893,0,0,1,1.375,2.444,10.09,10.09,0,0,1,.467,3.169,10.127,10.127,0,0,1-.467,3.18,6.893,6.893,0,0,1-1.375,2.444,5.966,5.966,0,0,1-2.32,1.584,8.759,8.759,0,0,1-3.239.559Zm3.223-2.847h2.234a3.813,3.813,0,0,0,3.137-1.262,5.657,5.657,0,0,0,1.031-3.658,5.657,5.657,0,0,0-1.031-3.658,3.813,3.813,0,0,0-3.137-1.262h-2.234Zm21.817-9.84H187.15v3.523h5.1v2.8h-5.1v3.513h5.758V21h-9V5.478h9Zm18.906-2.836h3.427L209.5,21H205.96l-5.7-15.522h3.416l4.071,11.763Zm11.5,15.737a8.033,8.033,0,0,1-2.39-.338,5.626,5.626,0,0,1-1.917-1.015,4.543,4.543,0,0,1-1.294-1.772,6.388,6.388,0,0,1-.467-2.524V5.478h3.223v9.646a3.374,3.374,0,0,0,.779,2.46,3.125,3.125,0,0,0,4.146-.005,3.348,3.348,0,0,0,.79-2.455V5.478h3.223V15.564a6.388,6.388,0,0,1-.467,2.524,4.519,4.519,0,0,1-1.3,1.772,5.685,5.685,0,0,1-1.923,1.015A8.071,8.071,0,0,1,223.319,21.215Zm13.009-3.062h4.866V21h-8.089V5.478h3.223ZM254.257,5.478h3.212V21h-3.728L246.866,9.9V21h-3.212V5.478h3.685l6.918,11.032Zm16.231,2.836H264.73v3.523h5.1v2.8h-5.1v3.513h5.758V21h-9V5.478h9ZM282,21l-4.039-6.832h-.935V21h-3.223V5.478h5.629a6.511,6.511,0,0,1,2.256.36,3.9,3.9,0,0,1,1.563,1,4.278,4.278,0,0,1,.881,1.466,5.364,5.364,0,0,1,.3,1.815,3.79,3.79,0,0,1-.849,2.551,4.277,4.277,0,0,1-2.438,1.337L285.817,21ZM277.03,8.152v3.706h1.9q2.417,0,2.417-1.848a1.682,1.682,0,0,0-.591-1.364,2.809,2.809,0,0,0-1.826-.494ZM298.7,21l-1.128-3.2h-6.521L289.921,21h-3.3l5.715-15.522h3.942L302,21Zm-6.7-5.9h4.63l-2.31-6.585Zm20.668-2.3a3.631,3.631,0,0,1,2.922,3.846,4.168,4.168,0,0,1-1.235,3.185A5.1,5.1,0,0,1,310.718,21h-6.392V5.478h5.027a5.7,5.7,0,0,1,3.8,1.123,3.894,3.894,0,0,1,1.316,3.131,3.652,3.652,0,0,1-.457,1.842A3.007,3.007,0,0,1,312.662,12.8Zm-3.276-4.651h-1.955V11.8h2.095a1.962,1.962,0,0,0,1.482-.516,1.875,1.875,0,0,0,.494-1.354,1.666,1.666,0,0,0-.537-1.294A2.273,2.273,0,0,0,309.386,8.152Zm.73,10.087a2.475,2.475,0,0,0,1.778-.548,1.863,1.863,0,0,0,.564-1.4,1.951,1.951,0,0,0-.569-1.439,2.519,2.519,0,0,0-1.837-.569h-2.621v3.953ZM318.452,21V5.478h3.223V21ZM328.9,18.153h4.866V21h-8.089V5.478H328.9ZM336.23,21V5.478h3.223V21Zm7.229,0V5.478h5.618a8.759,8.759,0,0,1,3.239.559,5.965,5.965,0,0,1,2.32,1.584,6.893,6.893,0,0,1,1.375,2.444,10.09,10.09,0,0,1,.467,3.169,10.127,10.127,0,0,1-.467,3.18,6.893,6.893,0,0,1-1.375,2.444,5.965,5.965,0,0,1-2.32,1.584,8.759,8.759,0,0,1-3.239.559Zm3.223-2.847h2.234a3.813,3.813,0,0,0,3.137-1.262,5.657,5.657,0,0,0,1.031-3.658,5.657,5.657,0,0,0-1.031-3.658,3.813,3.813,0,0,0-3.137-1.262h-2.234ZM369.112,21l-1.128-3.2h-6.521L360.336,21h-3.3l5.715-15.522H366.7L372.41,21Zm-6.7-5.9h4.63l-2.31-6.585ZM374.741,21V5.478h5.618a8.759,8.759,0,0,1,3.239.559,5.965,5.965,0,0,1,2.32,1.584,6.893,6.893,0,0,1,1.375,2.444,10.09,10.09,0,0,1,.467,3.169,10.127,10.127,0,0,1-.467,3.18,6.893,6.893,0,0,1-1.375,2.444,5.965,5.965,0,0,1-2.32,1.584,8.759,8.759,0,0,1-3.239.559Zm3.223-2.847H380.2a3.813,3.813,0,0,0,3.137-1.262,5.657,5.657,0,0,0,1.031-3.658,5.657,5.657,0,0,0-1.031-3.658A3.813,3.813,0,0,0,380.2,8.313h-2.234Z" transform="translate(738 4269)" fill="#00223d"/>
    <path id="Trazado_34900" data-name="Trazado 34900" d="M7.363,5.25a4.071,4.071,0,0,1,2.153.571A3.859,3.859,0,0,1,10.962,7.35a4.485,4.485,0,0,1,.5,2.119,4.172,4.172,0,0,1-1.138,2.993,3.9,3.9,0,0,1-2.964,1.2H3.906V19H2.158V5.25Zm-.254,6.885A2.5,2.5,0,0,0,9.023,11.4a2.728,2.728,0,0,0,.693-1.948,2.736,2.736,0,0,0-.693-1.938,2.483,2.483,0,0,0-1.914-.747h-3.2v5.371ZM20.068,9.4h1.689V19H20.137L20.1,17.73a3,3,0,0,1-1.191,1.079,3.665,3.665,0,0,1-1.68.376,3.339,3.339,0,0,1-2.417-.869,3.242,3.242,0,0,1-.9-2.451V9.4H15.6v6.084a2.278,2.278,0,0,0,.591,1.719,2.091,2.091,0,0,0,1.509.566,2.3,2.3,0,0,0,1.7-.664,2.7,2.7,0,0,0,.669-1.963ZM33.594,14.01l-.02.459h-7.5a3.392,3.392,0,0,0,.918,2.456,3.014,3.014,0,0,0,2.188.854,2.878,2.878,0,0,0,1.592-.459,2.978,2.978,0,0,0,1.094-1.27l1.523.322a4.33,4.33,0,0,1-1.641,2.061,4.476,4.476,0,0,1-2.549.752,4.638,4.638,0,0,1-3.457-1.338A4.977,4.977,0,0,1,24.424,14.2a4.953,4.953,0,0,1,1.323-3.643,4.58,4.58,0,0,1,3.4-1.338,4.334,4.334,0,0,1,3.228,1.23A4.862,4.862,0,0,1,33.594,14.01Zm-4.443-3.5a2.994,2.994,0,0,0-2,.679,3.11,3.11,0,0,0-1.011,1.978h5.752a2.852,2.852,0,0,0-.84-1.978A2.712,2.712,0,0,0,29.15,10.514ZM43.33,4H45.02V19H43.389l-.039-1.865a3.532,3.532,0,0,1-1.367,1.514,3.81,3.81,0,0,1-2.031.557,4.363,4.363,0,0,1-3.169-1.353,4.623,4.623,0,0,1-.967-1.587,5.805,5.805,0,0,1-.356-2.061,5.048,5.048,0,0,1,1.3-3.6,4.209,4.209,0,0,1,3.188-1.387,3.826,3.826,0,0,1,2.007.542,3.552,3.552,0,0,1,1.372,1.47ZM40.3,17.74a2.875,2.875,0,0,0,2.231-1.011,3.648,3.648,0,0,0,.9-2.524,3.641,3.641,0,0,0-.908-2.52A2.873,2.873,0,0,0,40.3,10.67a2.938,2.938,0,0,0-2.246.981,3.611,3.611,0,0,0-.908,2.554,3.611,3.611,0,0,0,.908,2.554A2.938,2.938,0,0,0,40.3,17.74Zm16.553-3.73-.02.459h-7.5a3.392,3.392,0,0,0,.918,2.456,3.014,3.014,0,0,0,2.188.854,2.878,2.878,0,0,0,1.592-.459,2.978,2.978,0,0,0,1.094-1.27l1.523.322a4.33,4.33,0,0,1-1.641,2.061,4.476,4.476,0,0,1-2.549.752A4.638,4.638,0,0,1,49,17.848,4.977,4.977,0,0,1,47.686,14.2a4.953,4.953,0,0,1,1.323-3.643,4.58,4.58,0,0,1,3.4-1.338,4.334,4.334,0,0,1,3.228,1.23A4.862,4.862,0,0,1,56.855,14.01Zm-4.443-3.5a2.994,2.994,0,0,0-2,.679A3.11,3.11,0,0,0,49.4,13.17h5.752a2.852,2.852,0,0,0-.84-1.978A2.712,2.712,0,0,0,52.412,10.514Zm11.621-1.3a3.339,3.339,0,0,1,2.417.869,3.242,3.242,0,0,1,.9,2.451V19H65.664V12.916a2.27,2.27,0,0,0-.586-1.719,2.1,2.1,0,0,0-1.5-.557,2.322,2.322,0,0,0-1.709.659,2.675,2.675,0,0,0-.674,1.958V19H59.5V9.4h1.689v1.23A3.206,3.206,0,0,1,64.033,9.215ZM76.67,7.145A1.15,1.15,0,0,1,75.527,6a1.083,1.083,0,0,1,.337-.8,1.107,1.107,0,0,1,.806-.332,1.1,1.1,0,0,1,.8.332A1.083,1.083,0,0,1,77.8,6a1.1,1.1,0,0,1-.337.806A1.088,1.088,0,0,1,76.67,7.145ZM75.811,19V9.4h1.7V19Zm9.668-9.785a3.339,3.339,0,0,1,2.417.869,3.242,3.242,0,0,1,.9,2.451V19H87.109V12.916a2.27,2.27,0,0,0-.586-1.719,2.1,2.1,0,0,0-1.5-.557,2.322,2.322,0,0,0-1.709.659,2.675,2.675,0,0,0-.674,1.958V19H80.947V9.4h1.689v1.23A3.206,3.206,0,0,1,85.479,9.215ZM99.014,9.4h1.641v9.111a5.229,5.229,0,0,1-1.24,3.74,5.164,5.164,0,0,1-8.1-1.631l1.4-.684a3.174,3.174,0,0,0,3.213,2.217,2.756,2.756,0,0,0,2.251-.937,3.99,3.99,0,0,0,.776-2.617V16.822A3.383,3.383,0,0,1,97.588,18.2a3.978,3.978,0,0,1-2,.522,4.116,4.116,0,0,1-3.105-1.353A4.77,4.77,0,0,1,91.2,13.961a4.725,4.725,0,0,1,1.284-3.4,4.156,4.156,0,0,1,3.12-1.343,3.878,3.878,0,0,1,2.012.537,3.458,3.458,0,0,1,1.357,1.416Zm-3.047,7.891a2.9,2.9,0,0,0,2.212-.986,3.484,3.484,0,0,0,0-4.7,3.009,3.009,0,0,0-4.429-.029,3.337,3.337,0,0,0-.9,2.383,3.309,3.309,0,0,0,.913,2.368A2.927,2.927,0,0,0,95.967,17.291Zm9.775-6.2A2.9,2.9,0,0,1,106.934,9.8a3.588,3.588,0,0,1,1.846-.508v1.592a3.163,3.163,0,0,0-2.231.713,2.978,2.978,0,0,0-.767,2.275V19h-1.689V9.4h1.65Zm13.3,2.92-.02.459h-7.5a3.392,3.392,0,0,0,.918,2.456,3.014,3.014,0,0,0,2.188.854,2.878,2.878,0,0,0,1.592-.459,2.978,2.978,0,0,0,1.094-1.27l1.523.322a4.33,4.33,0,0,1-1.641,2.061,4.476,4.476,0,0,1-2.549.752,4.638,4.638,0,0,1-3.457-1.338,4.977,4.977,0,0,1-1.318-3.652,4.953,4.953,0,0,1,1.323-3.643,4.58,4.58,0,0,1,3.4-1.338,4.334,4.334,0,0,1,3.228,1.23A4.862,4.862,0,0,1,119.043,14.01Zm-4.443-3.5a2.994,2.994,0,0,0-2,.679,3.11,3.11,0,0,0-1.011,1.978h5.752a2.852,2.852,0,0,0-.84-1.978A2.712,2.712,0,0,0,114.6,10.514Zm10.127,8.672a4.551,4.551,0,0,1-2.588-.693,2.868,2.868,0,0,1-1.26-1.973l1.475-.42a2.057,2.057,0,0,0,.786,1.333,2.55,2.55,0,0,0,1.577.474,3.147,3.147,0,0,0,.923-.127,1.479,1.479,0,0,0,.708-.474,1.321,1.321,0,0,0,.205-1.27,1.7,1.7,0,0,0-.156-.317.967.967,0,0,0-.273-.264,3.605,3.605,0,0,0-.332-.205,3.408,3.408,0,0,0-.435-.181q-.288-.1-.464-.156t-.537-.156q-.361-.1-.557-.161a10.413,10.413,0,0,1-1-.352,4.369,4.369,0,0,1-.811-.464,1.866,1.866,0,0,1-.63-.757,2.561,2.561,0,0,1-.21-1.074,2.482,2.482,0,0,1,.469-1.533,2.637,2.637,0,0,1,1.216-.9,4.86,4.86,0,0,1,1.7-.278,4.171,4.171,0,0,1,2.339.625,2.668,2.668,0,0,1,1.167,1.875l-1.387.352a1.839,1.839,0,0,0-.732-1.216,2.332,2.332,0,0,0-1.377-.405,2.377,2.377,0,0,0-1.289.337,1.132,1.132,0,0,0-.537,1.03,1.025,1.025,0,0,0,.142.532,1.69,1.69,0,0,0,.288.376,1.771,1.771,0,0,0,.527.288q.381.151.566.205t.7.181q.1.029.146.039.566.146.923.259a5.672,5.672,0,0,1,.83.352,2.76,2.76,0,0,1,.747.522,2.421,2.421,0,0,1,.469.742,2.62,2.62,0,0,1,.2,1.035,2.8,2.8,0,0,1-.288,1.294,2.253,2.253,0,0,1-.786.884,3.8,3.8,0,0,1-1.118.483A5.327,5.327,0,0,1,124.727,19.186Zm8.408,0a3.267,3.267,0,0,1-2.1-.659,2.367,2.367,0,0,1-.825-1.968,2.8,2.8,0,0,1,.264-1.255,2.212,2.212,0,0,1,.781-.874,4.686,4.686,0,0,1,1.128-.542,10.427,10.427,0,0,1,1.46-.347l1.553-.254q.85-.156.85-.889a1.678,1.678,0,0,0-.6-1.431,2.447,2.447,0,0,0-1.519-.454,2.493,2.493,0,0,0-1.5.439A1.839,1.839,0,0,0,131.9,12.3l-1.523-.322a2.932,2.932,0,0,1,1.2-2.056,4.488,4.488,0,0,1,2.617-.688,5.308,5.308,0,0,1,1.392.171,3.782,3.782,0,0,1,1.162.537,2.409,2.409,0,0,1,.83,1.035,3.852,3.852,0,0,1,.3,1.577V16.52a1.622,1.622,0,0,0,.22,1,.949.949,0,0,0,.757.259h.156V19h-.84a1.6,1.6,0,0,1-1.816-1.3h-.078A3.668,3.668,0,0,1,133.135,19.186Zm.391-1.367a2.561,2.561,0,0,0,2.061-.928,3.819,3.819,0,0,0,.781-2.539l-2.539.488a3.418,3.418,0,0,0-1.489.532,1.238,1.238,0,0,0-.483,1.05,1.224,1.224,0,0,0,.464,1.055A1.983,1.983,0,0,0,133.525,17.818Zm9.521-6.729A2.9,2.9,0,0,1,144.238,9.8a3.588,3.588,0,0,1,1.846-.508v1.592a3.163,3.163,0,0,0-2.231.713,2.978,2.978,0,0,0-.767,2.275V19H141.4V9.4h1.65Zm12.432,8.1a3.267,3.267,0,0,1-2.1-.659,2.367,2.367,0,0,1-.825-1.968,2.8,2.8,0,0,1,.264-1.255,2.212,2.212,0,0,1,.781-.874,4.686,4.686,0,0,1,1.128-.542,10.427,10.427,0,0,1,1.46-.347l1.553-.254q.85-.156.85-.889a1.678,1.678,0,0,0-.6-1.431,2.447,2.447,0,0,0-1.519-.454,2.493,2.493,0,0,0-1.5.439,1.839,1.839,0,0,0-.713,1.348l-1.523-.322a2.932,2.932,0,0,1,1.2-2.056,4.488,4.488,0,0,1,2.617-.688,5.308,5.308,0,0,1,1.392.171,3.782,3.782,0,0,1,1.162.537,2.409,2.409,0,0,1,.83,1.035,3.852,3.852,0,0,1,.3,1.577V16.52a1.622,1.622,0,0,0,.22,1,.949.949,0,0,0,.757.259h.156V19h-.84a1.6,1.6,0,0,1-1.816-1.3h-.078A3.668,3.668,0,0,1,155.479,19.186Zm.391-1.367a2.561,2.561,0,0,0,2.061-.928,3.819,3.819,0,0,0,.781-2.539l-2.539.488a3.418,3.418,0,0,0-1.489.532,1.238,1.238,0,0,0-.483,1.05,1.224,1.224,0,0,0,.464,1.055A1.983,1.983,0,0,0,155.869,17.818ZM172,19a2.523,2.523,0,0,1-1.875-.688,2.6,2.6,0,0,1-.684-1.919V10.748H167.48V9.4h.723a1.387,1.387,0,0,0,1.06-.337,1.658,1.658,0,0,0,.308-1.128V6.2h1.572V9.4h2.207v1.348h-2.207v5.469a1.455,1.455,0,0,0,.366,1.06,1.282,1.282,0,0,0,.962.376h.879V19Zm5.439-7.91A2.9,2.9,0,0,1,178.633,9.8a3.588,3.588,0,0,1,1.846-.508v1.592a3.163,3.163,0,0,0-2.231.713,2.978,2.978,0,0,0-.767,2.275V19h-1.689V9.4h1.65Zm7.119,8.1a3.267,3.267,0,0,1-2.1-.659,2.367,2.367,0,0,1-.825-1.968,2.8,2.8,0,0,1,.264-1.255,2.212,2.212,0,0,1,.781-.874,4.686,4.686,0,0,1,1.128-.542,10.427,10.427,0,0,1,1.46-.347l1.553-.254q.85-.156.85-.889a1.678,1.678,0,0,0-.6-1.431,2.447,2.447,0,0,0-1.519-.454,2.493,2.493,0,0,0-1.5.439,1.839,1.839,0,0,0-.713,1.348l-1.523-.322a2.932,2.932,0,0,1,1.2-2.056,4.488,4.488,0,0,1,2.617-.688,5.308,5.308,0,0,1,1.392.171,3.782,3.782,0,0,1,1.162.537,2.409,2.409,0,0,1,.83,1.035,3.852,3.852,0,0,1,.3,1.577V16.52a1.622,1.622,0,0,0,.22,1,.949.949,0,0,0,.757.259h.156V19h-.84a1.6,1.6,0,0,1-1.816-1.3h-.078A3.668,3.668,0,0,1,184.561,19.186Zm.391-1.367a2.561,2.561,0,0,0,2.061-.928,3.819,3.819,0,0,0,.781-2.539l-2.539.488a3.418,3.418,0,0,0-1.489.532,1.238,1.238,0,0,0-.483,1.05,1.224,1.224,0,0,0,.464,1.055A1.983,1.983,0,0,0,184.951,17.818Zm12.959-8.6a4.183,4.183,0,0,1,3.174,1.387,5.059,5.059,0,0,1,1.3,3.6,5.1,5.1,0,0,1-1.289,3.613,4.174,4.174,0,0,1-3.184,1.387,3.853,3.853,0,0,1-2.046-.557,3.523,3.523,0,0,1-1.372-1.514L194.453,19h-1.631V4h1.68l.01,7.236a3.538,3.538,0,0,1,1.372-1.479A3.862,3.862,0,0,1,197.91,9.215Zm-.371,8.525a2.938,2.938,0,0,0,2.246-.981,3.611,3.611,0,0,0,.908-2.554,3.611,3.611,0,0,0-.908-2.554,2.938,2.938,0,0,0-2.246-.981,2.873,2.873,0,0,0-2.227,1.016,3.641,3.641,0,0,0-.908,2.52,3.648,3.648,0,0,0,.9,2.524A2.875,2.875,0,0,0,197.539,17.74Zm9.717,1.445a3.267,3.267,0,0,1-2.1-.659,2.367,2.367,0,0,1-.825-1.968,2.8,2.8,0,0,1,.264-1.255,2.212,2.212,0,0,1,.781-.874,4.686,4.686,0,0,1,1.128-.542,10.427,10.427,0,0,1,1.46-.347l1.553-.254q.85-.156.85-.889a1.678,1.678,0,0,0-.6-1.431,2.447,2.447,0,0,0-1.519-.454,2.493,2.493,0,0,0-1.5.439,1.839,1.839,0,0,0-.713,1.348l-1.523-.322a2.932,2.932,0,0,1,1.2-2.056,4.488,4.488,0,0,1,2.617-.688,5.308,5.308,0,0,1,1.392.171,3.782,3.782,0,0,1,1.162.537,2.409,2.409,0,0,1,.83,1.035,3.852,3.852,0,0,1,.3,1.577V16.52a1.622,1.622,0,0,0,.22,1,.949.949,0,0,0,.757.259h.156V19h-.84a1.6,1.6,0,0,1-1.816-1.3H210.4A3.668,3.668,0,0,1,207.256,19.186Zm.391-1.367a2.561,2.561,0,0,0,2.061-.928,3.819,3.819,0,0,0,.781-2.539l-2.539.488a3.418,3.418,0,0,0-1.489.532,1.238,1.238,0,0,0-.483,1.05,1.224,1.224,0,0,0,.464,1.055A1.983,1.983,0,0,0,207.646,17.818Zm8.74-10.674A1.15,1.15,0,0,1,215.244,6a1.083,1.083,0,0,1,.337-.8,1.107,1.107,0,0,1,.806-.332,1.1,1.1,0,0,1,.8.332,1.083,1.083,0,0,1,.337.8,1.1,1.1,0,0,1-.337.806A1.088,1.088,0,0,1,216.387,7.145Zm-3.076,16.348V22.057a2.747,2.747,0,0,0,1.377-.273,1.5,1.5,0,0,0,.645-.937,7.9,7.9,0,0,0,.186-1.982V9.4h1.709v9.463a5.583,5.583,0,0,1-.889,3.584A3.792,3.792,0,0,1,213.311,23.492Zm9.58-4.307a3.267,3.267,0,0,1-2.1-.659,2.367,2.367,0,0,1-.825-1.968,2.8,2.8,0,0,1,.264-1.255,2.212,2.212,0,0,1,.781-.874,4.686,4.686,0,0,1,1.128-.542,10.427,10.427,0,0,1,1.46-.347l1.553-.254q.85-.156.85-.889a1.678,1.678,0,0,0-.6-1.431,2.447,2.447,0,0,0-1.519-.454,2.493,2.493,0,0,0-1.5.439,1.839,1.839,0,0,0-.713,1.348l-1.523-.322a2.932,2.932,0,0,1,1.2-2.056,4.488,4.488,0,0,1,2.617-.688,5.308,5.308,0,0,1,1.392.171,3.782,3.782,0,0,1,1.162.537,2.409,2.409,0,0,1,.83,1.035,3.852,3.852,0,0,1,.3,1.577V16.52a1.622,1.622,0,0,0,.22,1,.949.949,0,0,0,.757.259h.156V19h-.84a1.6,1.6,0,0,1-1.816-1.3h-.078A3.668,3.668,0,0,1,222.891,19.186Zm.391-1.367a2.561,2.561,0,0,0,2.061-.928,3.819,3.819,0,0,0,.781-2.539l-2.539.488a3.418,3.418,0,0,0-1.489.532,1.238,1.238,0,0,0-.483,1.05,1.224,1.224,0,0,0,.464,1.055A1.983,1.983,0,0,0,223.281,17.818ZM232.8,11.09A2.9,2.9,0,0,1,233.994,9.8a3.588,3.588,0,0,1,1.846-.508v1.592a3.163,3.163,0,0,0-2.231.713,2.978,2.978,0,0,0-.767,2.275V19h-1.689V9.4h1.65Zm18.613,2.92-.02.459h-7.5a3.392,3.392,0,0,0,.918,2.456,3.014,3.014,0,0,0,2.188.854,2.878,2.878,0,0,0,1.592-.459,2.978,2.978,0,0,0,1.094-1.27l1.523.322a4.33,4.33,0,0,1-1.641,2.061,4.476,4.476,0,0,1-2.549.752,4.638,4.638,0,0,1-3.457-1.338,4.977,4.977,0,0,1-1.318-3.652,4.953,4.953,0,0,1,1.323-3.643,4.58,4.58,0,0,1,3.4-1.338,4.334,4.334,0,0,1,3.228,1.23A4.862,4.862,0,0,1,251.416,14.01Zm-4.443-3.5a2.994,2.994,0,0,0-2,.679,3.11,3.11,0,0,0-1.011,1.978h5.752a2.852,2.852,0,0,0-.84-1.978A2.712,2.712,0,0,0,246.973,10.514Zm11.621-1.3a3.339,3.339,0,0,1,2.417.869,3.242,3.242,0,0,1,.9,2.451V19h-1.689V12.916a2.27,2.27,0,0,0-.586-1.719,2.1,2.1,0,0,0-1.5-.557,2.322,2.322,0,0,0-1.709.659,2.675,2.675,0,0,0-.674,1.958V19h-1.689V9.4h1.689v1.23A3.206,3.206,0,0,1,258.594,9.215Zm16.846,0a4.366,4.366,0,0,1,1.738.352,4.276,4.276,0,0,1,1.426.986,4.61,4.61,0,0,1,.962,1.582,5.833,5.833,0,0,1,.356,2.07,5.076,5.076,0,0,1-1.294,3.623,4.2,4.2,0,0,1-3.188,1.377,3.8,3.8,0,0,1-2.007-.547,3.584,3.584,0,0,1-1.372-1.475v6.65h-1.689V9.4H272l.039,1.865a3.514,3.514,0,0,1,1.367-1.5A3.835,3.835,0,0,1,275.439,9.215Zm-.332,8.525a2.915,2.915,0,0,0,2.222-.972,3.614,3.614,0,0,0,.9-2.563,3.6,3.6,0,0,0-.9-2.559,3.029,3.029,0,0,0-4.478.044,3.6,3.6,0,0,0-.918,2.515,3.614,3.614,0,0,0,.918,2.524A2.929,2.929,0,0,0,275.107,17.74Zm9.131-6.65A2.9,2.9,0,0,1,285.43,9.8a3.588,3.588,0,0,1,1.846-.508v1.592a3.163,3.163,0,0,0-2.231.713,2.978,2.978,0,0,0-.767,2.275V19h-1.689V9.4h1.65Zm8.945,8.1a5.06,5.06,0,0,1-2.461-.6,4.338,4.338,0,0,1-1.733-1.743,5.354,5.354,0,0,1-.64-2.651,4.89,4.89,0,0,1,1.362-3.618,5.111,5.111,0,0,1,6.948,0,4.9,4.9,0,0,1,1.357,3.618,4.9,4.9,0,0,1-1.362,3.628A4.7,4.7,0,0,1,293.184,19.186Zm-.01-1.406a2.948,2.948,0,0,0,2.271-.986,3.7,3.7,0,0,0,.9-2.6,3.682,3.682,0,0,0-.9-2.588,2.948,2.948,0,0,0-2.271-.986,2.908,2.908,0,0,0-2.251.986,3.706,3.706,0,0,0-.894,2.588,3.72,3.72,0,0,0,.894,2.6A2.908,2.908,0,0,0,293.174,17.779Zm11.475,1.4a4.624,4.624,0,0,1-3.437-1.377,4.912,4.912,0,0,1-1.357-3.6,4.922,4.922,0,0,1,1.353-3.6,5,5,0,0,1,6.221-.537,4.238,4.238,0,0,1,1.616,2.334l-1.582.254a2.922,2.922,0,0,0-1.084-1.494,2.952,2.952,0,0,0-1.738-.527,2.838,2.838,0,0,0-2.222.986,3.758,3.758,0,0,0-.874,2.588,3.739,3.739,0,0,0,.874,2.583,2.844,2.844,0,0,0,2.222.981,2.952,2.952,0,0,0,1.738-.527,2.922,2.922,0,0,0,1.084-1.494l1.582.264a4.243,4.243,0,0,1-1.626,2.329A4.65,4.65,0,0,1,304.648,19.176Zm15.283-5.166-.02.459h-7.5a3.392,3.392,0,0,0,.918,2.456,3.014,3.014,0,0,0,2.188.854,2.878,2.878,0,0,0,1.592-.459,2.978,2.978,0,0,0,1.094-1.27l1.523.322a4.33,4.33,0,0,1-1.641,2.061,4.476,4.476,0,0,1-2.549.752,4.638,4.638,0,0,1-3.457-1.338,4.977,4.977,0,0,1-1.318-3.652,4.953,4.953,0,0,1,1.323-3.643,4.58,4.58,0,0,1,3.4-1.338,4.334,4.334,0,0,1,3.228,1.23A4.862,4.862,0,0,1,319.932,14.01Zm-4.443-3.5a2.994,2.994,0,0,0-2,.679,3.11,3.11,0,0,0-1.011,1.978h5.752a2.852,2.852,0,0,0-.84-1.978A2.712,2.712,0,0,0,315.488,10.514Zm10.127,8.672a4.551,4.551,0,0,1-2.588-.693,2.868,2.868,0,0,1-1.26-1.973l1.475-.42a2.057,2.057,0,0,0,.786,1.333,2.55,2.55,0,0,0,1.577.474,3.147,3.147,0,0,0,.923-.127,1.479,1.479,0,0,0,.708-.474,1.321,1.321,0,0,0,.205-1.27,1.7,1.7,0,0,0-.156-.317.967.967,0,0,0-.273-.264,3.6,3.6,0,0,0-.332-.205,3.409,3.409,0,0,0-.435-.181q-.288-.1-.464-.156t-.537-.156q-.361-.1-.557-.161a10.411,10.411,0,0,1-1-.352,4.369,4.369,0,0,1-.811-.464,1.866,1.866,0,0,1-.63-.757,2.561,2.561,0,0,1-.21-1.074,2.482,2.482,0,0,1,.469-1.533,2.637,2.637,0,0,1,1.216-.9,4.86,4.86,0,0,1,1.7-.278,4.171,4.171,0,0,1,2.339.625,2.668,2.668,0,0,1,1.167,1.875l-1.387.352a1.838,1.838,0,0,0-.732-1.216,2.332,2.332,0,0,0-1.377-.405,2.377,2.377,0,0,0-1.289.337,1.132,1.132,0,0,0-.537,1.03,1.025,1.025,0,0,0,.142.532,1.69,1.69,0,0,0,.288.376,1.771,1.771,0,0,0,.527.288q.381.151.566.205t.7.181q.1.029.146.039.566.146.923.259a5.672,5.672,0,0,1,.83.352,2.759,2.759,0,0,1,.747.522,2.421,2.421,0,0,1,.469.742,2.62,2.62,0,0,1,.2,1.035,2.8,2.8,0,0,1-.288,1.294,2.253,2.253,0,0,1-.786.884,3.8,3.8,0,0,1-1.118.483A5.327,5.327,0,0,1,325.615,19.186Zm10.234,0a5.06,5.06,0,0,1-2.461-.6,4.338,4.338,0,0,1-1.733-1.743,5.354,5.354,0,0,1-.64-2.651,4.89,4.89,0,0,1,1.362-3.618,5.111,5.111,0,0,1,6.948,0,4.9,4.9,0,0,1,1.357,3.618,4.9,4.9,0,0,1-1.362,3.628A4.7,4.7,0,0,1,335.85,19.186Zm-.01-1.406a2.948,2.948,0,0,0,2.271-.986,3.7,3.7,0,0,0,.9-2.6,3.682,3.682,0,0,0-.9-2.588,2.948,2.948,0,0,0-2.271-.986,2.908,2.908,0,0,0-2.251.986A3.706,3.706,0,0,0,332.7,14.2a3.72,3.72,0,0,0,.894,2.6A2.908,2.908,0,0,0,335.84,17.779Zm10.527,1.406a4.551,4.551,0,0,1-2.588-.693,2.868,2.868,0,0,1-1.26-1.973l1.475-.42a2.057,2.057,0,0,0,.786,1.333,2.55,2.55,0,0,0,1.577.474,3.147,3.147,0,0,0,.923-.127,1.479,1.479,0,0,0,.708-.474,1.321,1.321,0,0,0,.205-1.27,1.7,1.7,0,0,0-.156-.317.967.967,0,0,0-.273-.264,3.6,3.6,0,0,0-.332-.205,3.409,3.409,0,0,0-.435-.181q-.288-.1-.464-.156T346,14.757q-.361-.1-.557-.161a10.411,10.411,0,0,1-1-.352,4.369,4.369,0,0,1-.811-.464,1.866,1.866,0,0,1-.63-.757,2.561,2.561,0,0,1-.21-1.074,2.482,2.482,0,0,1,.469-1.533,2.637,2.637,0,0,1,1.216-.9,4.86,4.86,0,0,1,1.7-.278,4.171,4.171,0,0,1,2.339.625,2.668,2.668,0,0,1,1.167,1.875l-1.387.352a1.838,1.838,0,0,0-.732-1.216,2.332,2.332,0,0,0-1.377-.405,2.377,2.377,0,0,0-1.289.337,1.132,1.132,0,0,0-.537,1.03,1.025,1.025,0,0,0,.142.532,1.69,1.69,0,0,0,.288.376,1.771,1.771,0,0,0,.527.288q.381.151.566.205t.7.181q.1.029.146.039.566.146.923.259a5.672,5.672,0,0,1,.83.352,2.759,2.759,0,0,1,.747.522,2.421,2.421,0,0,1,.469.742,2.62,2.62,0,0,1,.2,1.035,2.8,2.8,0,0,1-.288,1.294,2.253,2.253,0,0,1-.786.884,3.8,3.8,0,0,1-1.118.483A5.327,5.327,0,0,1,346.367,19.186Zm16.455-9.971a4.366,4.366,0,0,1,1.738.352,4.276,4.276,0,0,1,1.426.986,4.61,4.61,0,0,1,.962,1.582,5.833,5.833,0,0,1,.356,2.07,5.076,5.076,0,0,1-1.294,3.623,4.2,4.2,0,0,1-3.188,1.377,3.8,3.8,0,0,1-2.007-.547,3.584,3.584,0,0,1-1.372-1.475v6.65h-1.689V9.4h1.631l.039,1.865a3.514,3.514,0,0,1,1.367-1.5A3.835,3.835,0,0,1,362.822,9.215Zm-.332,8.525a2.915,2.915,0,0,0,2.222-.972,3.614,3.614,0,0,0,.9-2.563,3.6,3.6,0,0,0-.9-2.559,3.029,3.029,0,0,0-4.478.044,3.6,3.6,0,0,0-.918,2.515,3.614,3.614,0,0,0,.918,2.524A2.929,2.929,0,0,0,362.49,17.74Zm9.131-6.65A2.9,2.9,0,0,1,372.813,9.8a3.588,3.588,0,0,1,1.846-.508v1.592a3.163,3.163,0,0,0-2.231.713,2.978,2.978,0,0,0-.767,2.275V19h-1.689V9.4h1.65Zm8.945,8.1a5.06,5.06,0,0,1-2.461-.6,4.338,4.338,0,0,1-1.733-1.743,5.354,5.354,0,0,1-.64-2.651,4.89,4.89,0,0,1,1.362-3.618,5.111,5.111,0,0,1,6.948,0A4.9,4.9,0,0,1,385.4,14.2a4.9,4.9,0,0,1-1.362,3.628A4.7,4.7,0,0,1,380.566,19.186Zm-.01-1.406a2.948,2.948,0,0,0,2.271-.986,3.7,3.7,0,0,0,.9-2.6,3.682,3.682,0,0,0-.9-2.588,2.948,2.948,0,0,0-2.271-.986,2.908,2.908,0,0,0-2.251.986,3.706,3.706,0,0,0-.894,2.588,3.72,3.72,0,0,0,.894,2.6A2.908,2.908,0,0,0,380.557,17.779ZM395.137,4h1.689V19H395.2l-.039-1.865a3.532,3.532,0,0,1-1.367,1.514,3.81,3.81,0,0,1-2.031.557,4.363,4.363,0,0,1-3.169-1.353,4.623,4.623,0,0,1-.967-1.587,5.8,5.8,0,0,1-.356-2.061,5.048,5.048,0,0,1,1.3-3.6,4.209,4.209,0,0,1,3.188-1.387,3.826,3.826,0,0,1,2.007.542,3.552,3.552,0,0,1,1.372,1.47Zm-3.027,13.74a2.875,2.875,0,0,0,2.231-1.011,3.648,3.648,0,0,0,.9-2.524,3.641,3.641,0,0,0-.908-2.52,2.873,2.873,0,0,0-2.227-1.016,2.938,2.938,0,0,0-2.246.981,3.611,3.611,0,0,0-.908,2.554,3.611,3.611,0,0,0,.908,2.554A2.938,2.938,0,0,0,392.109,17.74ZM406.24,9.4h1.689V19h-1.621l-.039-1.27a3,3,0,0,1-1.191,1.079,3.665,3.665,0,0,1-1.68.376,3.339,3.339,0,0,1-2.417-.869,3.242,3.242,0,0,1-.9-2.451V9.4h1.689v6.084a2.278,2.278,0,0,0,.591,1.719,2.091,2.091,0,0,0,1.509.566,2.3,2.3,0,0,0,1.7-.664,2.7,2.7,0,0,0,.669-1.963Zm9.111,9.775a4.624,4.624,0,0,1-3.437-1.377,4.912,4.912,0,0,1-1.357-3.6,4.922,4.922,0,0,1,1.353-3.6,5,5,0,0,1,6.221-.537,4.238,4.238,0,0,1,1.616,2.334l-1.582.254a2.922,2.922,0,0,0-1.084-1.494,2.952,2.952,0,0,0-1.738-.527,2.838,2.838,0,0,0-2.222.986,3.758,3.758,0,0,0-.874,2.588,3.739,3.739,0,0,0,.874,2.583,2.844,2.844,0,0,0,2.222.981,2.952,2.952,0,0,0,1.738-.527,2.922,2.922,0,0,0,1.084-1.494l1.582.264a4.243,4.243,0,0,1-1.626,2.329A4.65,4.65,0,0,1,415.352,19.176ZM425.3,19a2.523,2.523,0,0,1-1.875-.688,2.6,2.6,0,0,1-.684-1.919V10.748h-1.963V9.4h.723a1.387,1.387,0,0,0,1.06-.337,1.658,1.658,0,0,0,.308-1.128V6.2h1.572V9.4h2.207v1.348h-2.207v5.469a1.455,1.455,0,0,0,.366,1.06,1.282,1.282,0,0,0,.962.376h.879V19Zm4.648-11.855A1.15,1.15,0,0,1,428.809,6a1.083,1.083,0,0,1,.337-.8,1.107,1.107,0,0,1,.806-.332,1.1,1.1,0,0,1,.8.332,1.083,1.083,0,0,1,.337.8,1.1,1.1,0,0,1-.337.806A1.088,1.088,0,0,1,429.951,7.145ZM429.092,19V9.4h1.7V19Zm11.123-9.6h1.807L438.115,19H436.68l-3.887-9.6h1.8l2.813,7.637Zm7.471,9.785a5.06,5.06,0,0,1-2.461-.6,4.338,4.338,0,0,1-1.733-1.743,5.354,5.354,0,0,1-.64-2.651,4.89,4.89,0,0,1,1.362-3.618,5.111,5.111,0,0,1,6.948,0A4.9,4.9,0,0,1,452.52,14.2a4.9,4.9,0,0,1-1.362,3.628A4.7,4.7,0,0,1,447.686,19.186Zm-.01-1.406a2.948,2.948,0,0,0,2.271-.986,3.7,3.7,0,0,0,.9-2.6,3.682,3.682,0,0,0-.9-2.588,2.948,2.948,0,0,0-2.271-.986,2.908,2.908,0,0,0-2.251.986,3.706,3.706,0,0,0-.894,2.588,3.72,3.72,0,0,0,.894,2.6A2.908,2.908,0,0,0,447.676,17.779ZM458.2,19.186a4.551,4.551,0,0,1-2.588-.693,2.868,2.868,0,0,1-1.26-1.973l1.475-.42a2.057,2.057,0,0,0,.786,1.333,2.55,2.55,0,0,0,1.577.474,3.147,3.147,0,0,0,.923-.127,1.479,1.479,0,0,0,.708-.474,1.321,1.321,0,0,0,.205-1.27,1.7,1.7,0,0,0-.156-.317.967.967,0,0,0-.273-.264,3.6,3.6,0,0,0-.332-.205,3.409,3.409,0,0,0-.435-.181q-.288-.1-.464-.156t-.537-.156q-.361-.1-.557-.161a10.411,10.411,0,0,1-1-.352,4.369,4.369,0,0,1-.811-.464,1.866,1.866,0,0,1-.63-.757,2.561,2.561,0,0,1-.21-1.074,2.482,2.482,0,0,1,.469-1.533,2.637,2.637,0,0,1,1.216-.9,4.86,4.86,0,0,1,1.7-.278,4.171,4.171,0,0,1,2.339.625,2.668,2.668,0,0,1,1.167,1.875l-1.387.352a1.838,1.838,0,0,0-.732-1.216,2.332,2.332,0,0,0-1.377-.405,2.377,2.377,0,0,0-1.289.337,1.132,1.132,0,0,0-.537,1.03,1.025,1.025,0,0,0,.142.532,1.69,1.69,0,0,0,.288.376,1.771,1.771,0,0,0,.527.288q.381.151.566.205t.7.181q.1.029.146.039.566.146.923.259a5.672,5.672,0,0,1,.83.352,2.759,2.759,0,0,1,.747.522,2.421,2.421,0,0,1,.469.742,2.62,2.62,0,0,1,.2,1.035,2.8,2.8,0,0,1-.288,1.294,2.253,2.253,0,0,1-.786.884,3.8,3.8,0,0,1-1.118.483A5.327,5.327,0,0,1,458.2,19.186Z" transform="translate(738 4305)" fill="#00223d"/>
  </g>
</svg>
