<svg xmlns="http://www.w3.org/2000/svg" xmlns:xlink="http://www.w3.org/1999/xlink" width="901" height="567" viewBox="0 0 901 567">
  <defs>
    <clipPath id="clip-path">
      <rect id="Rectángulo_2375" data-name="Rectángulo 2375" width="291.422" height="450.781" transform="translate(0 0)" fill="none"/>
    </clipPath>
  </defs>
  <g id="Grupo_18708" data-name="Grupo 18708" transform="translate(-549 -5875)">
    <rect id="Rectángulo_2374" data-name="Rectángulo 2374" width="901" height="567" transform="translate(549 5875)" fill="#2643a2"/>
    <text id="Síntomas_que_se_deben_reportar" data-name="Síntomas que se deben reportar" transform="translate(626 5974)" fill="#fff" font-size="35" font-family="Helvetica-Bold, Helvetica" font-weight="700"><tspan x="0" y="0">Síntomas que se deben reportar</tspan></text>
    <text id="_Malestar_o_dolor_de_garganta._Malestar_general._Sensación_de_fatiga_o_cansancio_muscular._Fiebre_38_C_._Tos_seca_y_persistente._Sensación_de_falta_de_aire._Secreciones_nasales_o_congestión._Pérdida_de_olfato_y_o_el_gusto._Contacto_con_alguien_sospechos" data-name="
Malestar o dolor de garganta.
Malestar general.
Sensación de fatiga o cansancio muscular.
Fiebre (+38° C).
Tos seca y persistente.
Sensación de falta de aire.
Secreciones nasales o congestión.
Pérdida de olfato y/o el gusto.
Contacto con alguien sospechos" transform="translate(624 6027)" fill="#fff" font-size="18" font-family="Helvetica"><tspan x="0" y="14"></tspan><tspan font-size="20"><tspan x="0" y="44">Malestar o dolor de garganta.</tspan><tspan x="0" y="74">Malestar general.</tspan><tspan x="0" y="104">Sensación de fatiga o cansancio muscular.</tspan><tspan x="0" y="134">Fiebre (+38° C).</tspan><tspan x="0" y="164">Tos seca y persistente.</tspan><tspan x="0" y="194">Sensación de falta de aire.</tspan><tspan x="0" y="224">Secreciones nasales o congestión.</tspan><tspan x="0" y="254">Pérdida de olfato y/o el gusto.</tspan><tspan x="0" y="284">Contacto con alguien sospechoso o confirmado de COVID-19.</tspan></tspan><tspan font-size="20" font-family="CerebriSans-Regular, Cerebri Sans"><tspan x="0" y="314"></tspan></tspan></text>
    <g id="Grupo_10930" data-name="Grupo 10930" transform="translate(86 4582)">
      <rect id="rectangle" width="30" height="30" transform="translate(504 1466)" fill="none"/>
      <path id="path" d="M8.6,7.75,10.35,6l7.5,7.5L10.35,21,8.6,19.25l5.75-5.75Z" transform="translate(506.15 1467.5)" fill="#fff" fill-rule="evenodd"/>
    </g>
    <g id="Grupo_10931" data-name="Grupo 10931" transform="translate(86 4611)">
      <rect id="rectangle-2" data-name="rectangle" width="30" height="30" transform="translate(504 1466)" fill="none"/>
      <path id="path-2" data-name="path" d="M8.6,7.75,10.35,6l7.5,7.5L10.35,21,8.6,19.25l5.75-5.75Z" transform="translate(506.15 1467.5)" fill="#fff" fill-rule="evenodd"/>
    </g>
    <g id="Grupo_10932" data-name="Grupo 10932" transform="translate(86 4641)">
      <rect id="rectangle-3" data-name="rectangle" width="30" height="30" transform="translate(504 1466)" fill="none"/>
      <path id="path-3" data-name="path" d="M8.6,7.75,10.35,6l7.5,7.5L10.35,21,8.6,19.25l5.75-5.75Z" transform="translate(506.15 1467.5)" fill="#fff" fill-rule="evenodd"/>
    </g>
    <g id="Grupo_10933" data-name="Grupo 10933" transform="translate(86 4671)">
      <rect id="rectangle-4" data-name="rectangle" width="30" height="30" transform="translate(504 1466)" fill="none"/>
      <path id="path-4" data-name="path" d="M8.6,7.75,10.35,6l7.5,7.5L10.35,21,8.6,19.25l5.75-5.75Z" transform="translate(506.15 1467.5)" fill="#fff" fill-rule="evenodd"/>
    </g>
    <g id="Grupo_10934" data-name="Grupo 10934" transform="translate(86 4700)">
      <rect id="rectangle-5" data-name="rectangle" width="30" height="30" transform="translate(504 1466)" fill="none"/>
      <path id="path-5" data-name="path" d="M8.6,7.75,10.35,6l7.5,7.5L10.35,21,8.6,19.25l5.75-5.75Z" transform="translate(506.15 1467.5)" fill="#fff" fill-rule="evenodd"/>
    </g>
    <g id="Grupo_10935" data-name="Grupo 10935" transform="translate(86 4730)">
      <rect id="rectangle-6" data-name="rectangle" width="30" height="30" transform="translate(504 1466)" fill="none"/>
      <path id="path-6" data-name="path" d="M8.6,7.75,10.35,6l7.5,7.5L10.35,21,8.6,19.25l5.75-5.75Z" transform="translate(506.15 1467.5)" fill="#fff" fill-rule="evenodd"/>
    </g>
    <g id="Grupo_10936" data-name="Grupo 10936" transform="translate(86 4764)">
      <rect id="rectangle-7" data-name="rectangle" width="30" height="30" transform="translate(504 1466)" fill="none"/>
      <path id="path-7" data-name="path" d="M8.6,7.75,10.35,6l7.5,7.5L10.35,21,8.6,19.25l5.75-5.75Z" transform="translate(506.15 1467.5)" fill="#fff" fill-rule="evenodd"/>
    </g>
    <g id="Grupo_10937" data-name="Grupo 10937" transform="translate(86 4794)">
      <rect id="rectangle-8" data-name="rectangle" width="30" height="30" transform="translate(504 1466)" fill="none"/>
      <path id="path-8" data-name="path" d="M8.6,7.75,10.35,6l7.5,7.5L10.35,21,8.6,19.25l5.75-5.75Z" transform="translate(506.15 1467.5)" fill="#fff" fill-rule="evenodd"/>
    </g>
    <g id="Grupo_10938" data-name="Grupo 10938" transform="translate(86 4823)">
      <rect id="rectangle-9" data-name="rectangle" width="30" height="30" transform="translate(504 1466)" fill="none"/>
      <path id="path-9" data-name="path" d="M8.6,7.75,10.35,6l7.5,7.5L10.35,21,8.6,19.25l5.75-5.75Z" transform="translate(506.15 1467.5)" fill="#fff" fill-rule="evenodd"/>
    </g>
    <g id="Grupo_10954" data-name="Grupo 10954" transform="translate(-814.714 5524.277)">
      <g id="Grupo_10953" data-name="Grupo 10953" transform="translate(1928.714 466.469)" clip-path="url(#clip-path)">
        <g id="Grupo_10952" data-name="Grupo 10952" transform="translate(11.148 11.585)">
          <g id="Grupo_10951" data-name="Grupo 10951">
            <g id="Grupo_10950" data-name="Grupo 10950">
              <g id="Grupo_10949" data-name="Grupo 10949">
                <g id="Grupo_10939" data-name="Grupo 10939" transform="translate(87.624 459.429)">
                  <path id="Trazado_21232" data-name="Trazado 21232" d="M2679.5,1997.892s5.385,16.73,2.364,24.165-17.892,15.1-17.892,17.892v6.273h57.41s.6-1.524-.562-7.8-10.144-41.694-10.144-41.694Z" transform="translate(-2536.43 -1996.73)" fill="#ffc524"/>
                  <path id="Trazado_21233" data-name="Trazado 21233" d="M2718.59,2018.054l32.568-2.143c-2.138-8.623-4.161-16.617-4.566-18.219l-20.833.478-10.008.373c.155.616.783,3.191,1.327,6.536A51.844,51.844,0,0,1,2718.59,2018.054Z" transform="translate(-2572.273 -1997.395)" fill="#d4415f"/>
                  <path id="Trazado_21234" data-name="Trazado 21234" d="M2721.2,2139.782c.619,4.321.176,5.46.176,5.46h-57.41v-5.46Z" transform="translate(-2536.43 -2095.751)" fill="#752435"/>
                  <path id="Trazado_21235" data-name="Trazado 21235" d="M2277.686,1997.892s3.991,16.73.97,24.165-29.045,15.1-29.045,17.892v6.273h64.381s.6-1.524-.562-7.8-1.779-6.609-2.708-15.205-1.859-26.489-1.859-26.489Z" transform="translate(-2249.611 -1996.73)" fill="#ffc524"/>
                  <path id="Trazado_21236" data-name="Trazado 21236" d="M2340.824,1997.892s2.745,11.52,1.953,19.69l30.363-2.616c-.637-8.545-1.14-18.236-1.14-18.236Z" transform="translate(-2312.749 -1996.73)" fill="#d4415f"/>
                  <path id="Trazado_21237" data-name="Trazado 21237" d="M2313.815,2139.782c.619,4.321.177,5.46.177,5.46h-64.381v-5.46Z" transform="translate(-2249.611 -2095.751)" fill="#752435"/>
                </g>
                <path id="Trazado_21238" data-name="Trazado 21238" d="M2368.279,1229.493s-39.021,79.93-64.595,106.884l12.291,122.22-36.687,7.668s-26.722-133.14-23-143.131,40.459-100.611,40.459-100.611l44.34-14.966Z" transform="translate(-2166.36 -991.034)" fill="#7faaeb"/>
                <line id="Línea_122" data-name="Línea 122" x1="37.495" y2="7.604" transform="translate(111.302 459.429)" fill="none" stroke="#2a5494" stroke-miterlimit="10" stroke-width="2.411"/>
                <path id="Trazado_21239" data-name="Trazado 21239" d="M2560.623,1142.946s12.38,9.294,15.8,35.318S2559.4,1281.43,2559.4,1281.43s27.633,121.755,27.019,132.443l-36.987,7.667s-40.388-127.563-41.317-138.716c-.552-6.626-1.433-42.618-2.057-70.741-.426-19.21-25.961-37.218-25.961-37.218Z" transform="translate(-2321.528 -946.311)" fill="#7faaeb"/>
                <line id="Línea_123" data-name="Línea 123" x1="38.687" y2="7.604" transform="translate(225.315 459.429)" fill="none" stroke="#2a5494" stroke-miterlimit="10" stroke-width="2.411"/>
                <g id="Grupo_10944" data-name="Grupo 10944">
                  <path id="Trazado_21240" data-name="Trazado 21240" d="M2611.735,1161.064a30.38,30.38,0,0,1,2.788,15.568c-.929,8.365-13.012,25.792-49.027,32.762s-32.995,3.486-32.995,3.486l-1.394-9.992Z" transform="translate(-2356.84 -958.853)" fill="#ffd024" stroke="#ffd024" stroke-miterlimit="10" stroke-width="2.037"/>
                  <path id="Trazado_21241" data-name="Trazado 21241" d="M2364.505,724.887c20.215,13.941,60.3,82.951,69.01,90.967s15.335,12.9,15.684,20.215,0,29.277-20.215,40.081-52.629,19.518-67.267,19.343a5.382,5.382,0,0,1-2.091-5.054c.348-3.485,1.394-18.821-1.743-20.563s-19.866-11.5-29.277-24.746-37.642-58.554-38.687-63.084c0,0,14.639-13.941,13.941-31.717s1.394-33.459,2.788-34.5S2344.29,710.945,2364.505,724.887Z" transform="translate(-2189.889 -649.774)" fill="#118185"/>
                  <path id="Trazado_21242" data-name="Trazado 21242" d="M2451.386,1189.1c-.943.046-1.833.065-2.667.055a5.382,5.382,0,0,1-2.091-5.054c.348-3.485,1.394-18.821-1.743-20.563s-19.866-11.5-29.277-24.746" transform="translate(-2276.891 -943.437)" fill="none" stroke="#0b5154" stroke-miterlimit="10" stroke-width="2.411"/>
                  <path id="Trazado_21243" data-name="Trazado 21243" d="M2495.87,879.656c.666-1.2,4.709-12.3-2.262-18.921s-10.8-7.319-23-19.518-74.241-98.2-85.567-100.856a26.588,26.588,0,0,0-19.383,2.578" transform="translate(-2242.313 -667.121)" fill="none" stroke="#0b5154" stroke-miterlimit="10" stroke-width="2.411"/>
                  <path id="Trazado_21244" data-name="Trazado 21244" d="M2055.175,813.813a32.069,32.069,0,0,0-15.973,8.068c-9.7,9.236-17.312,48.322-18.706,55.242,0,0-2.614-6.22-3.486-8.189s-4.357-4.235-8.365-1.621-14.987,6.971-13.07,20.738,16.114,33.291,28.661,35.847,22.366-7.964,27.512-17.891c3.853-7.434,12.314-33.59,12.314-33.59Z" transform="translate(-1985.99 -718.485)" fill="#118185"/>
                  <path id="Trazado_21245" data-name="Trazado 21245" d="M2046.193,967.677s4.442.084,10.334,11.056c2.023,3.767,6.779,14.638,8.373,15.336s2.958-2.788,2.276-4.182,3.849-.349,5.592,2.44,10.3-21.6,11.581-28.227,5.31-22.8,5.31-22.8" transform="translate(-2021.181 -806.728)" fill="none" stroke="#0b5154" stroke-miterlimit="10" stroke-width="2.411"/>
                  <path id="Trazado_21246" data-name="Trazado 21246" d="M2399.958,1300.844s1.619,8.183,0,9.345-15.1,2.324-25.319,0-14.892-7.268-15.335-9.345a9.717,9.717,0,0,1,0-3.9Z" transform="translate(-2237.78 -1052.909)" fill="#ffd024" stroke="#ffd024" stroke-miterlimit="10" stroke-width="2.037"/>
                  <path id="Trazado_21247" data-name="Trazado 21247" d="M2214.741,724.754c-8.871.677-35.6,10.152-41.355,30.454s8.163,59.894,29.968,81.55,35.353,33.161,35.353,33.161-13.775,21.995-11.97,29.777,32.615,7.3,43.765,5.076c0,0-1.15-9.813,4.5-17.6s3.823-15.565,0-17.6-17.5-15.83-36.3-40.606c-10.263-13.529-20.781-22.636-23.965-36.464-2.761-11.993,3.227-30.437,3.468-33.581C2218.729,752.163,2214.741,724.754,2214.741,724.754Z" transform="translate(-2108.323 -656.839)" fill="#118185"/>
                  <path id="Trazado_21248" data-name="Trazado 21248" d="M2495.438,1211.266a1.7,1.7,0,1,0,1.7-1.7A1.7,1.7,0,0,0,2495.438,1211.266Z" transform="translate(-2332.149 -992.426)" fill="#22686b"/>
                  <path id="Trazado_21249" data-name="Trazado 21249" d="M2425.939,1136.482a1.7,1.7,0,1,0,1.7-1.7A1.7,1.7,0,0,0,2425.939,1136.482Z" transform="translate(-2284.042 -940.66)" fill="#22686b"/>
                  <path id="Trazado_21250" data-name="Trazado 21250" d="M2356.493,1054.954a1.7,1.7,0,1,0,1.7-1.7A1.7,1.7,0,0,0,2356.493,1054.954Z" transform="translate(-2235.971 -884.226)" fill="#22686b"/>
                  <path id="Trazado_21251" data-name="Trazado 21251" d="M2294.953,949.871a1.7,1.7,0,1,0,1.7-1.7A1.7,1.7,0,0,0,2294.953,949.871Z" transform="translate(-2193.373 -811.488)" fill="#22686b"/>
                  <path id="Trazado_21252" data-name="Trazado 21252" d="M2366.431,1057.151s-1.15-9.813,4.5-17.6,3.824-15.565,0-17.6-17.5-15.83-36.3-40.606c-10.263-13.529-20.782-22.636-23.965-36.464" transform="translate(-2204.253 -809.216)" fill="none" stroke="#0b5154" stroke-miterlimit="10" stroke-width="2.411"/>
                  <path id="Trazado_21253" data-name="Trazado 21253" d="M2183.164,764.725s-.744,13.474,6.738,19.576c6.86,5.595,9.057,6.51,9.057,6.51s-12.573.545-20.675-2.813c-14.405-5.97-13.244-21.182-11.618-31.405s8.83-22.074,12.78-20.215S2186.882,744.277,2183.164,764.725Z" transform="translate(-2103.929 -664.75)" fill="#ffd024" stroke="#ffd024" stroke-miterlimit="10" stroke-width="2.037"/>
                  <g id="Grupo_10940" data-name="Grupo 10940" transform="translate(20.847 6.823)">
                    <path id="Trazado_21254" data-name="Trazado 21254" d="M2205.727,740.416a107.545,107.545,0,0,1,17.927,11.206s14.871,43.756-14.079,42.314c0,0-18.858-21.867-31-24.191Z" transform="translate(-2133.664 -674.503)" fill="#fad5c6"/>
                    <path id="Trazado_21255" data-name="Trazado 21255" d="M2219.91,729.523s4.421,5.339,1.55,16.027a29.1,29.1,0,0,1-6.918,11.53c-3.963,4.166-8.871,7-12.987,5.755l-1.181-.787s-1.771.5-1.19,2.016,16.569,14.839,18.024,15.97a40.038,40.038,0,0,0,4.823,2.813s9.643,5.873,11.388,8.656l-.652-9s8.556-14.838,6.464-26.623-9.128-30.833-9.477-31.181-8.232,3.376-9.445,3.2S2219.91,729.523,2219.91,729.523Z" transform="translate(-2147.848 -663.61)" fill="#b03b53"/>
                    <path id="Trazado_21256" data-name="Trazado 21256" d="M2042.563,594.077a19.584,19.584,0,0,0-9.868,15.355c-.836,10.8,15.545,27.36,15.545,27.36Z" transform="translate(-2032.663 -573.207)" fill="#305285"/>
                    <path id="Trazado_21257" data-name="Trazado 21257" d="M2052.369,566.216s10.156,51.583,28.744,59.948,36.48-17.427,37.409-36.945,9.991-35.318-4.879-52.513-35.715-9.062-44.578-4.182S2050.876,551.578,2052.369,566.216Z" transform="translate(-2046.194 -526.274)" fill="#fad5c6"/>
                    <path id="Trazado_21258" data-name="Trazado 21258" d="M2122.654,802.494c7.8-1,14.845-4.323,13.113-7.581-1.668-3.139-6.039-5.635-13.9-5.635a27.107,27.107,0,0,0-7.508,1s7.683,4.543,8.119,6.286A29.057,29.057,0,0,1,2122.654,802.494Z" transform="translate(-2089.215 -708.326)" fill="#2a5494"/>
                    <path id="Trazado_21259" data-name="Trazado 21259" d="M2152.5,800.044a7.948,7.948,0,0,1,1.914,2.321c1.731,3.258-5.317,6.586-13.114,7.581C2142.885,803.556,2148.794,801.021,2152.5,800.044Z" transform="translate(-2107.865 -715.778)" fill="#fa4d70"/>
                  </g>
                  <path id="Trazado_21260" data-name="Trazado 21260" d="M2311.91,703.722c-1.155-11.379-10.224-19.75-18.356-20.68a71.232,71.232,0,0,0-15.335,0s14.1,45.149,9,69.9a.325.325,0,0,0,.506.336C2291.992,750.29,2314.861,732.814,2311.91,703.722Z" transform="translate(-2181.789 -627.68)" fill="#ffd024" stroke="#ffd024" stroke-miterlimit="10" stroke-width="2.037"/>
                  <path id="Trazado_21261" data-name="Trazado 21261" d="M2010.568,975.6l1.26,5.2a10.83,10.83,0,0,1,.2,1.156,10.472,10.472,0,0,1-13.13,11.374c-2.89-.784-5.342-2-5.985-3.884a15.744,15.744,0,0,1-.814-3.148C1991.747,982.789,2002.552,971.9,2010.568,975.6Z" transform="translate(-1983.729 -829.953)" fill="#ffd024" stroke="#ffd024" stroke-miterlimit="10" stroke-width="2.037"/>
                  <g id="Grupo_10941" data-name="Grupo 10941" transform="translate(0 116.152)">
                    <path id="Trazado_21262" data-name="Trazado 21262" d="M1978.028,881.467s-5.948,1.606-9.608,9.909-3.485,14.224-3.485,14.224,9.062,14.991,10.63,17.082c0,0,7.494.273,10.631-3.436s4.791-8.069,3.515-16.441C1988.475,894.7,1978.028,881.467,1978.028,881.467Z" transform="translate(-1964.934 -881.467)" fill="#fad5c6"/>
                    <path id="Trazado_21263" data-name="Trazado 21263" d="M2007.476,881.467s14.839.5,16.058.5,5.086,8.83,5.26,9.353-3.021,9.139-4.415,9.488a2.511,2.511,0,0,1-3.137-2.788,35.287,35.287,0,0,1,1.046-5.4l-3.135-3.485-8.68,1.605Z" transform="translate(-1994.382 -881.467)" fill="#fad5c6"/>
                    <path id="Trazado_21264" data-name="Trazado 21264" d="M2001.82,902.3s13.07,1.394,14.29,2.44,1.742,13.007,0,15.043-6.585,1.164-6.585,1.164,2.054-6.274-1.779-8.016a17.122,17.122,0,0,0-6.2-1.271,4.169,4.169,0,0,1-4.033-3.817C1997.364,905.739,1998.131,903.355,2001.82,902.3Z" transform="translate(-1987.472 -895.888)" fill="#fad5c6"/>
                    <path id="Trazado_21265" data-name="Trazado 21265" d="M1997.394,917.693s11.743,1.252,12.839,2.192,1.566,11.687,0,13.516-5.917,1.046-5.917,1.046,1.845-5.637-1.6-7.2a15.384,15.384,0,0,0-5.572-1.142,3.745,3.745,0,0,1-3.624-3.429C1993.391,920.782,1994.08,918.64,1997.394,917.693Z" transform="translate(-1984.712 -906.543)" fill="#fad5c6"/>
                    <path id="Trazado_21266" data-name="Trazado 21266" d="M1995.551,941.5s9.735,1.038,10.643,1.817,1.3,9.688,0,11.2-4.9.867-4.9.867,1.53-4.673-1.325-5.97a12.745,12.745,0,0,0-4.619-.946,3.1,3.1,0,0,1-3-2.843C1992.232,944.061,1992.8,942.286,1995.551,941.5Z" transform="translate(-1983.896 -923.023)" fill="#fad5c6"/>
                    <path id="Trazado_21267" data-name="Trazado 21267" d="M2051.346,923.039s3.569,2.243,3.4,4.555-3.765,6.515-5.707,6.429-6.1-1.356-6.541-4.159S2043.357,923.338,2051.346,923.039Z" transform="translate(-2018.569 -910.243)" fill="#fad5c6"/>
                  </g>
                  <path id="Trazado_21268" data-name="Trazado 21268" d="M2084.551,565.452s-4.356-5.228-4.182-9.759,2.265-11.153-2.44-15.161-9.933,6.274-16.381,8.365-33.808,6.1-36.6-18.3c0,0,.349,1.743,3.311,3.311,0,0-1.568-6.448-.174-11.676,0,0,1.046,2.614,2.614,3.485a40.675,40.675,0,0,1,21.435-17.6c14.059-4.9,24.4-4.293,30.671-3.4,5.907.837,15.631,6.193,16.677,12.466,0,0,.773-.348,4.046,2.44s5.921,19.021,5.686,31.572c-.268,14.318-1.226,15.452-1.489,18.094-.347,3.485-3.892,8.108-6.22,8.539s-7.547-7.668-7.547-7.668,2.512-6.9-.871-10.282C2089.257,556.041,2084.726,561.618,2084.551,565.452Z" transform="translate(-2006.478 -504.106)" fill="#313131"/>
                  <g id="Grupo_10943" data-name="Grupo 10943" transform="translate(91.546 64.265)">
                    <g id="Grupo_10942" data-name="Grupo 10942" transform="translate(0 53.012)">
                      <path id="Trazado_21269" data-name="Trazado 21269" d="M2347.669,970.076" transform="translate(-2321.409 -943.928)" fill="#fad5c6"/>
                      <path id="Trazado_21270" data-name="Trazado 21270" d="M2392.311,907.555s-19.169-.7-20.912-1.51-16.729-19.169-17.311-19.983c0,0-2.788-1.51-4.879-.7s8.271,17.173,8.271,17.173l-20.238-1.373a19.092,19.092,0,0,0-.581,11.85c1.859,6.157,8.829,13.244,9.294,13.709s25.676-1.394,26.489-1.278,20.563,7.2,20.563,7.2Z" transform="translate(-2313.307 -885.124)" fill="#fad5c6"/>
                      <path id="Trazado_21271" data-name="Trazado 21271" d="M2294.125,924.6s-15.917-6.166-17.543-5.58-2.672.585-2.9,1.63,7.9,5.112,13.128,8.132,9.643,5.925,9.643,5.925" transform="translate(-2270.189 -908.56)" fill="#fad5c6"/>
                      <path id="Trazado_21272" data-name="Trazado 21272" d="M2298.956,981.238s-16.44-4.591-18-3.852-2.6.842-2.733,1.905,26.912,9.73,26.912,9.73" transform="translate(-2273.338 -948.932)" fill="#fad5c6"/>
                      <path id="Trazado_21273" data-name="Trazado 21273" d="M2310.52,1004.207s-14.362.173-15.448,1.139-1.9,1.294-1.757,2.184,24.032,1.505,24.032,1.505" transform="translate(-2283.773 -967.553)" fill="#fad5c6"/>
                      <path id="Trazado_21274" data-name="Trazado 21274" d="M2286.9,950.492s-20.009-7.02-21.635-6.435-2.672.585-2.9,1.63,11.992,5.966,17.22,8.987,9.643,5.925,9.643,5.925" transform="translate(-2262.355 -925.893)" fill="#fad5c6"/>
                    </g>
                    <path id="Trazado_21275" data-name="Trazado 21275" d="M2439.136,712.9c-8.069.147-16.729,15.723-11.385,37.332s25.559,28.812,42.056,32.065c0,0-16.962-.464-20.215,1.394s-2.556,3.02-2.556,3.02-8.3,22.306.963,31.136,45.044,7.9,60.147,4.415,25.327-12.082,25.792-23.7-5.344-25.559-17.659-37.642S2465.661,712.418,2439.136,712.9Z" transform="translate(-2375.7 -712.894)" fill="#139296"/>
                    <path id="Trazado_21276" data-name="Trazado 21276" d="M2435.129,742.549a57.058,57.058,0,0,1,30.418,4.356c15.743,7.017,50.508,43.631,54.336,47.969s4.465,7.85-1.276,7.211c0,0,5.908,2.25,4.23,5.111s-3.273,6.253-13.48,7.268-43.136-.051-47.707,0-11.371,4.8-11.371,4.8" transform="translate(-2381.949 -733.079)" fill="none" stroke="#0b5154" stroke-miterlimit="10" stroke-width="2.411"/>
                    <path id="Trazado_21277" data-name="Trazado 21277" d="M2458.036,949.427a1.927,1.927,0,0,0-1.157,2.048l.5,2.193a19.484,19.484,0,0,1-2.226,14.207l-1.18,2s-1.162,3.6,1.743,4.88a26.907,26.907,0,0,0,3.733,1.135,8.3,8.3,0,0,0,10.3-7.881l.212-10.031a8.292,8.292,0,0,0-7.388-8.427A15.8,15.8,0,0,0,2458.036,949.427Z" transform="translate(-2394.832 -876.54)" fill="#ffd024" stroke="#ffd024" stroke-miterlimit="10" stroke-width="2.037"/>
                  </g>
                </g>
                <g id="Grupo_10947" data-name="Grupo 10947" transform="translate(13.512 95.229)">
                  <g id="Grupo_10946" data-name="Grupo 10946">
                    <g id="Grupo_10945" data-name="Grupo 10945">
                      <path id="Trazado_21278" data-name="Trazado 21278" d="M2034.463,853.636a3.087,3.087,0,0,0,4.338.486c.979-.781,10.183-10.264,15-15.24a.541.541,0,0,0-.669-.839c-5.919,3.6-17.2,10.474-18.181,11.255A3.087,3.087,0,0,0,2034.463,853.636Z" transform="translate(-2026.107 -830.428)" fill="#fa4d70"/>
                      <path id="Trazado_21279" data-name="Trazado 21279" d="M2085.906,876.943a3.086,3.086,0,0,0,4-1.748c.457-1.166,3.687-13.98,5.369-20.7a.541.541,0,0,0-1-.392c-3.328,6.073-9.66,17.671-10.117,18.837A3.087,3.087,0,0,0,2085.906,876.943Z" transform="translate(-2060.825 -841.408)" fill="#fa4d70"/>
                      <path id="Trazado_21280" data-name="Trazado 21280" d="M2008.868,817.663a3.087,3.087,0,0,0,3.514,2.59c1.238-.187,13.95-3.8,20.609-5.7a.541.541,0,0,0-.161-1.061c-6.923.154-20.134.469-21.372.657A3.087,3.087,0,0,0,2008.868,817.663Z" transform="translate(-2008.833 -813.492)" fill="#fa4d70"/>
                    </g>
                  </g>
                </g>
                <g id="Grupo_10948" data-name="Grupo 10948" transform="translate(47.635 22.404)">
                  <path id="Trazado_21281" data-name="Trazado 21281" d="M2164.988,619.708a4.182,4.182,0,0,0,8.365,0c0-2.31-4.182-10.282-4.182-10.282S2164.988,617.4,2164.988,619.708Z" transform="translate(-2151.047 -599.412)" fill="#85dbff"/>
                  <path id="Trazado_21282" data-name="Trazado 21282" d="M2119.7,587.174a4.182,4.182,0,0,0,8.365,0c0-2.31-4.182-10.282-4.182-10.282S2119.7,584.864,2119.7,587.174Z" transform="translate(-2119.695 -576.892)" fill="#85dbff"/>
                  <path id="Trazado_21283" data-name="Trazado 21283" d="M2210.282,602.461a4.182,4.182,0,1,0,8.365,0c0-2.31-4.182-10.282-4.182-10.282S2210.282,600.151,2210.282,602.461Z" transform="translate(-2182.399 -587.474)" fill="#85dbff"/>
                </g>
              </g>
            </g>
          </g>
        </g>
      </g>
    </g>
  </g>
</svg>
