<?xml version="1.0" encoding="utf-8"?>
<!-- Generator: Adobe Illustrator 22.0.1, SVG Export Plug-In . SVG Version: 6.00 Build 0)  -->
<svg version="1.1" id="Capa_1" xmlns="http://www.w3.org/2000/svg" xmlns:xlink="http://www.w3.org/1999/xlink" x="0px" y="0px"
	 viewBox="0 0 901 475" style="enable-background:new 0 0 901 475;" xml:space="preserve">
<style type="text/css">
	.st0{fill:#2643A2;}
	.st1{fill:#FFFFFF;}
	.st2{fill:#73E3D2;}
	.st3{fill:none;}
	.st4{fill:#F56B6B;}
</style>
<g id="Grupo_19089" transform="translate(2792 -5468)">
	<rect id="Rectángulo_3150" x="-2792" y="5468" class="st0" width="901" height="475"/>
	<g id="Grupo_19085" transform="translate(53 13.25)">
		<path id="Trazado_35396" class="st1" d="M-2698.8,5567l-6.4-10.9h-1.5v10.9h-5.1v-24.7h9c1.2,0,2.4,0.2,3.6,0.6
			c0.9,0.3,1.8,0.9,2.5,1.6c0.6,0.7,1.1,1.5,1.4,2.3c0.3,0.9,0.5,1.9,0.5,2.9c0.1,1.5-0.4,2.9-1.4,4.1c-1,1.1-2.4,1.9-3.9,2.1
			l7.4,11.1H-2698.8z M-2706.7,5546.6v5.9h3c2.6,0,3.8-1,3.8-2.9c0-0.8-0.3-1.6-0.9-2.2c-0.8-0.6-1.9-0.9-2.9-0.8L-2706.7,5546.6z
			 M-2674.1,5558l-0.1,1.2h-13c0,1.2,0.5,2.4,1.4,3.2c0.9,0.7,2,1.1,3.1,1.1c0.8,0,1.6-0.2,2.3-0.6c0.7-0.4,1.2-1,1.5-1.8l4.5,0.7
			c-0.5,1.7-1.6,3.1-3.1,4.1c-1.5,1-3.4,1.5-5.2,1.5c-2.5,0.1-5-0.7-6.8-2.4c-1.8-1.8-2.7-4.2-2.5-6.7c-0.1-2.5,0.8-4.9,2.5-6.7
			c1.8-1.7,4.2-2.6,6.7-2.5c2.3-0.1,4.6,0.7,6.3,2.2C-2674.9,5552.8-2674.1,5555-2674.1,5558z M-2682.8,5552.5
			c-2.1-0.2-4,1.3-4.3,3.4h8.1c-0.1-1-0.5-1.9-1.2-2.5C-2680.9,5552.8-2681.8,5552.5-2682.8,5552.5L-2682.8,5552.5z M-2660.1,5549.1
			c1.1,0,2.2,0.2,3.3,0.6c1,0.4,1.9,1,2.7,1.8c0.8,0.8,1.4,1.8,1.8,2.9c0.5,1.2,0.7,2.5,0.7,3.9c0,1.3-0.2,2.6-0.7,3.9
			c-0.4,1.1-1,2.1-1.8,2.9c-0.8,0.8-1.7,1.4-2.7,1.8c-1,0.4-2.2,0.6-3.3,0.6c-1.1,0-2.2-0.2-3.2-0.6c-0.9-0.4-1.7-1-2.2-1.8v10.6
			h-4.9v-26.1h4.7l0.1,2.4c0.5-0.9,1.3-1.6,2.2-2C-2662.3,5549.3-2661.2,5549.1-2660.1,5549.1z M-2661.2,5563.3
			c1.3,0,2.5-0.5,3.3-1.4c0.9-1,1.4-2.3,1.3-3.7c0.1-1.4-0.4-2.7-1.3-3.7c-0.9-0.9-2.1-1.4-3.3-1.4c-1.3,0-2.5,0.5-3.4,1.4
			c-0.9,1-1.4,2.3-1.3,3.7c-0.1,1.4,0.4,2.7,1.3,3.7C-2663.7,5562.8-2662.4,5563.4-2661.2,5563.3z M-2639.7,5567.3
			c-1.7,0-3.4-0.3-5-1.1c-1.4-0.7-2.6-1.8-3.4-3.2c-0.9-1.5-1.3-3.2-1.2-4.9c-0.1-2.5,0.8-4.9,2.7-6.7c1.9-1.7,4.4-2.6,7-2.4
			c2.6-0.1,5.1,0.8,7,2.4c1.8,1.7,2.8,4.2,2.7,6.7c0.1,2.5-0.8,5-2.7,6.7C-2634.6,5566.6-2637.1,5567.5-2639.7,5567.3z
			 M-2639.8,5563.4c1.3,0.1,2.6-0.5,3.5-1.4c0.9-1,1.4-2.4,1.3-3.8c0.1-1.4-0.4-2.8-1.3-3.8c-0.9-1-2.2-1.5-3.5-1.4
			c-1.3,0-2.5,0.5-3.4,1.4c-0.9,1.1-1.4,2.4-1.3,3.8c-0.1,1.4,0.4,2.7,1.3,3.8C-2642.3,5562.9-2641,5563.5-2639.8,5563.4
			L-2639.8,5563.4z M-2621.7,5552.2c0.6-0.9,1.4-1.6,2.3-2.1c1.1-0.6,2.2-0.9,3.4-0.9v4.4c-1.5-0.1-3,0.2-4.2,1.1
			c-0.9,0.7-1.3,2-1.3,3.8v8.6h-5v-17.6h4.7V5552.2z M-2605.5,5567c-1.5,0.1-2.9-0.4-4-1.4c-1-1.1-1.5-2.6-1.4-4.1v-8.3h-3.5v-3.8
			h1.1c0.8,0.1,1.6-0.2,2.2-0.7c0.5-0.8,0.8-1.7,0.7-2.6v-2.3h4.4v5.7h3.6v3.8h-3.6v7.8c0,1.5,0.7,2.3,2,2.3h1.6v3.7H-2605.5z
			 M-2582,5558l-0.1,1.2h-13c0,1.2,0.5,2.4,1.4,3.2c0.9,0.7,2,1.1,3.1,1.1c0.8,0,1.6-0.2,2.3-0.6c0.7-0.4,1.2-1,1.5-1.8l4.5,0.7
			c-0.5,1.7-1.6,3.1-3.1,4.1c-1.5,1-3.4,1.5-5.2,1.5c-2.5,0.1-5-0.7-6.8-2.4c-1.8-1.8-2.7-4.2-2.5-6.7c-0.1-2.5,0.8-4.9,2.5-6.7
			c1.8-1.7,4.2-2.6,6.7-2.5c2.3-0.1,4.6,0.7,6.3,2.2C-2582.8,5552.8-2582,5555-2582,5558z M-2590.7,5552.5c-2.1-0.2-4,1.3-4.3,3.4
			h8.1c-0.1-1-0.5-1.9-1.2-2.5C-2588.8,5552.8-2589.7,5552.5-2590.7,5552.5L-2590.7,5552.5z M-2556.7,5540.8h4.9v26.2h-4.7l-0.1-2.3
			c-0.5,0.9-1.3,1.6-2.2,2c-1,0.5-2.2,0.7-3.3,0.7c-1.1,0-2.2-0.2-3.3-0.6c-1-0.4-1.9-1-2.7-1.8c-0.8-0.8-1.4-1.8-1.8-2.9
			c-0.5-1.2-0.7-2.5-0.7-3.8c0-1.7,0.4-3.4,1.2-4.9c0.7-1.3,1.8-2.4,3.1-3.2c1.3-0.7,2.8-1.1,4.2-1.1c1.1,0,2.2,0.2,3.2,0.6
			c0.9,0.4,1.7,1,2.2,1.8L-2556.7,5540.8z M-2561,5563.3c1.3,0,2.5-0.5,3.3-1.4c0.9-1,1.4-2.3,1.3-3.7c0.1-1.4-0.4-2.7-1.3-3.7
			c-0.9-0.9-2.1-1.4-3.3-1.4c-1.3,0-2.5,0.5-3.3,1.4c-0.9,1-1.4,2.3-1.3,3.7c-0.1,1.4,0.4,2.7,1.3,3.7
			C-2563.4,5562.9-2562.2,5563.4-2561,5563.3z M-2530.2,5558l-0.1,1.2h-13c0,1.2,0.5,2.4,1.4,3.2c0.9,0.7,2,1.1,3.1,1.1
			c0.8,0,1.6-0.2,2.3-0.6c0.7-0.4,1.2-1,1.5-1.8l4.5,0.7c-0.5,1.7-1.6,3.1-3.1,4.1c-1.5,1-3.4,1.5-5.2,1.5c-2.5,0.1-5-0.7-6.8-2.4
			c-1.8-1.8-2.7-4.2-2.5-6.7c-0.1-2.5,0.8-4.9,2.5-6.7c1.8-1.7,4.2-2.6,6.7-2.5c2.3-0.1,4.6,0.7,6.3,2.2
			C-2531,5552.8-2530.2,5555-2530.2,5558L-2530.2,5558z M-2538.8,5552.5c-2.1-0.2-4,1.3-4.3,3.4h8.1c-0.1-1-0.5-1.9-1.2-2.5
			C-2537,5552.8-2537.9,5552.5-2538.8,5552.5L-2538.8,5552.5z M-2509.4,5567.3c-2.5,0.1-5-0.8-6.8-2.5c-1.8-1.7-2.7-4.1-2.6-6.6
			c-0.1-2.5,0.9-4.9,2.6-6.6c1.8-1.7,4.3-2.6,6.8-2.5c2-0.1,4,0.5,5.7,1.7c1.6,1.2,2.6,2.9,2.9,4.8l-4.5,0.5
			c-0.2-0.9-0.7-1.7-1.5-2.3c-0.8-0.5-1.7-0.8-2.7-0.8c-1.2,0-2.4,0.5-3.2,1.4c-0.9,1.1-1.3,2.4-1.2,3.8c-0.1,1.4,0.4,2.7,1.2,3.8
			c0.8,1,2,1.5,3.2,1.4c0.9,0,1.9-0.2,2.7-0.8c0.7-0.6,1.3-1.4,1.5-2.3l4.5,0.5c-0.3,1.9-1.4,3.6-3,4.8
			C-2505.4,5566.8-2507.4,5567.4-2509.4,5567.3z M-2489.1,5567.3c-1.7,0-3.4-0.3-5-1.1c-1.4-0.7-2.6-1.8-3.4-3.2
			c-0.9-1.5-1.3-3.2-1.2-4.9c-0.1-2.5,0.8-4.9,2.7-6.7c1.9-1.7,4.4-2.6,7-2.4c2.6-0.1,5.1,0.8,7,2.4c1.8,1.7,2.8,4.2,2.7,6.7
			c0.1,2.5-0.8,5-2.7,6.7C-2484,5566.6-2486.5,5567.5-2489.1,5567.3z M-2489.1,5563.4c1.3,0.1,2.6-0.5,3.5-1.4
			c0.9-1,1.4-2.4,1.3-3.8c0.1-1.4-0.4-2.7-1.3-3.8c-0.9-1-2.2-1.5-3.5-1.4c-1.3,0-2.5,0.5-3.4,1.4c-0.9,1-1.4,2.4-1.3,3.8
			c-0.1,1.4,0.4,2.7,1.3,3.8C-2491.6,5562.9-2490.4,5563.5-2489.1,5563.4L-2489.1,5563.4z M-2465.4,5549.1c1.8-0.1,3.5,0.4,4.9,1.6
			c1.2,1.2,1.8,2.8,1.7,4.5v11.8h-4.9v-10.8c0.1-0.9-0.2-1.8-0.9-2.4c-0.6-0.5-1.4-0.8-2.3-0.8c-0.5,0-1,0.1-1.5,0.2
			c-0.4,0.2-0.9,0.4-1.2,0.7c-0.4,0.4-0.7,0.8-0.9,1.3c-0.2,0.7-0.3,1.3-0.3,2v9.7h-4.9v-17.6h4.9v1.9
			C-2469.5,5549.8-2467.5,5549-2465.4,5549.1z M-2441.6,5540.8h4.9v26.2h-4.7l-0.1-2.3c-0.5,0.9-1.3,1.6-2.2,2
			c-1,0.5-2.2,0.7-3.3,0.7c-1.1,0-2.2-0.2-3.3-0.6c-1-0.4-1.9-1-2.7-1.8c-0.8-0.8-1.4-1.8-1.8-2.9c-0.5-1.2-0.7-2.5-0.7-3.8
			c0-1.7,0.4-3.4,1.2-4.9c0.7-1.3,1.8-2.4,3.1-3.2c1.3-0.7,2.8-1.1,4.2-1.1c1.1,0,2.2,0.2,3.2,0.6c0.9,0.4,1.7,1,2.2,1.8
			L-2441.6,5540.8z M-2445.9,5563.3c1.3,0,2.5-0.5,3.3-1.4c0.9-1,1.4-2.3,1.3-3.7c0.1-1.4-0.4-2.7-1.3-3.7c-0.9-0.9-2.1-1.4-3.3-1.4
			c-1.3,0-2.5,0.5-3.3,1.4c-0.9,1-1.4,2.3-1.3,3.7c-0.1,1.4,0.4,2.7,1.3,3.7C-2448.3,5562.9-2447.1,5563.4-2445.9,5563.3z
			 M-2429.1,5546.8c-0.8,0-1.5-0.3-2-0.8c-0.5-0.5-0.8-1.3-0.8-2c0-0.8,0.3-1.5,0.8-2c0.5-0.5,1.3-0.8,2-0.8c0.7,0,1.5,0.3,2,0.8
			c0.5,0.5,0.8,1.2,0.8,2c0,0.8-0.3,1.5-0.8,2C-2427.6,5546.5-2428.3,5546.8-2429.1,5546.8z M-2431.6,5567v-17.6h5v17.6H-2431.6z
			 M-2413.6,5567.3c-2.5,0.1-5-0.8-6.8-2.5c-1.8-1.7-2.7-4.1-2.6-6.6c-0.1-2.5,0.9-4.9,2.6-6.6c1.8-1.7,4.3-2.6,6.8-2.5
			c2-0.1,4,0.5,5.7,1.7c1.6,1.2,2.6,2.9,2.9,4.8l-4.5,0.5c-0.2-0.9-0.7-1.7-1.5-2.3c-0.8-0.5-1.7-0.8-2.7-0.8
			c-1.2,0-2.4,0.5-3.2,1.4c-0.9,1.1-1.3,2.4-1.2,3.8c-0.1,1.4,0.4,2.7,1.2,3.8c0.8,1,2,1.5,3.2,1.4c0.9,0,1.9-0.2,2.7-0.8
			c0.7-0.6,1.3-1.4,1.5-2.3l4.5,0.5c-0.3,1.9-1.4,3.6-3,4.8C-2409.6,5566.8-2411.6,5567.4-2413.6,5567.3z M-2399,5546.8
			c-0.8,0-1.5-0.3-2-0.8c-0.5-0.5-0.8-1.3-0.8-2c0-0.8,0.3-1.5,0.8-2c0.5-0.5,1.3-0.8,2-0.8c0.7,0,1.5,0.3,2,0.8
			c0.5,0.5,0.8,1.2,0.8,2c0,0.8-0.3,1.5-0.8,2C-2397.5,5546.5-2398.2,5546.8-2399,5546.8z M-2401.5,5567v-17.6h5v17.6H-2401.5z
			 M-2383.2,5567.3c-1.7,0-3.4-0.3-5-1.1c-1.4-0.7-2.6-1.8-3.4-3.2c-0.9-1.5-1.3-3.2-1.2-4.9c-0.1-2.5,0.8-4.9,2.7-6.7
			c1.9-1.7,4.4-2.6,7-2.4c2.6-0.1,5.1,0.8,7,2.4c1.8,1.7,2.8,4.2,2.7,6.7c0.1,2.5-0.8,5-2.7,6.7
			C-2378.2,5566.6-2380.7,5567.5-2383.2,5567.3z M-2383.3,5563.4c1.3,0.1,2.6-0.5,3.5-1.4c0.9-1,1.4-2.4,1.3-3.8
			c0.1-1.4-0.4-2.7-1.3-3.8c-0.9-1-2.2-1.5-3.5-1.4c-1.3,0-2.5,0.5-3.4,1.4c-0.9,1-1.4,2.4-1.3,3.8c-0.1,1.4,0.4,2.7,1.3,3.8
			C-2385.8,5562.9-2384.6,5563.5-2383.3,5563.4L-2383.3,5563.4z M-2359.6,5549.1c1.8-0.1,3.5,0.4,4.9,1.6c1.2,1.2,1.8,2.8,1.7,4.5
			v11.8h-4.9v-10.8c0.1-0.9-0.2-1.8-0.9-2.4c-0.6-0.5-1.4-0.8-2.3-0.8c-0.5,0-1,0.1-1.5,0.2c-0.4,0.2-0.9,0.4-1.2,0.7
			c-0.4,0.4-0.7,0.8-0.9,1.3c-0.2,0.7-0.3,1.3-0.3,2v9.7h-4.9v-17.6h4.9v1.9C-2363.6,5549.8-2361.6,5549-2359.6,5549.1z
			 M-2331.7,5558l-0.1,1.2h-13c0,1.2,0.5,2.4,1.4,3.2c0.9,0.7,2,1.1,3.1,1.1c0.8,0,1.6-0.2,2.3-0.6c0.7-0.4,1.2-1,1.5-1.8l4.5,0.7
			c-0.5,1.7-1.6,3.1-3.1,4.1c-1.5,1-3.4,1.5-5.2,1.5c-2.5,0.1-5-0.7-6.8-2.4c-1.8-1.8-2.7-4.2-2.5-6.7c-0.1-2.5,0.8-4.9,2.5-6.7
			c1.8-1.7,4.2-2.6,6.7-2.5c2.3-0.1,4.6,0.7,6.3,2.2C-2332.5,5552.8-2331.7,5555-2331.7,5558L-2331.7,5558z M-2340.4,5552.5
			c-2.1-0.2-4,1.3-4.3,3.4h8.1c-0.1-1-0.5-1.9-1.2-2.5C-2338.5,5552.8-2339.5,5552.5-2340.4,5552.5L-2340.4,5552.5z M-2321.8,5567.3
			c-1.8,0.1-3.6-0.4-5.1-1.2c-1.3-0.8-2.3-2.1-2.5-3.7l4.1-1.2c0.3,1.6,1.9,2.8,3.5,2.6c0.6,0,1.2-0.1,1.8-0.4
			c0.5-0.3,0.8-0.8,0.7-1.4c0-0.3-0.1-0.6-0.3-0.9c-0.2-0.3-0.6-0.5-0.9-0.6c-0.4-0.2-0.8-0.3-1.2-0.5c-0.4-0.1-0.9-0.3-1.6-0.5
			c-0.6-0.2-1.2-0.3-1.6-0.5c-0.5-0.2-1-0.4-1.5-0.7c-0.5-0.2-0.9-0.6-1.3-0.9c-0.4-0.4-0.7-0.8-1-1.4c-0.2-0.6-0.3-1.2-0.3-1.9
			c-0.1-1.6,0.6-3,1.9-3.9c1.5-1,3.2-1.4,5-1.3c1.6-0.1,3.2,0.3,4.6,1.1c1.3,0.8,2.1,2.1,2.4,3.5l-3.8,0.9c-0.4-1.4-1.7-2.3-3.1-2.2
			c-0.6,0-1.2,0.1-1.7,0.4c-0.4,0.2-0.7,0.7-0.7,1.2c0,0.2,0,0.4,0.1,0.5c0.1,0.2,0.2,0.3,0.4,0.4c0.2,0.1,0.3,0.2,0.5,0.3
			c0.2,0.1,0.5,0.2,0.7,0.3c0.3,0.1,0.6,0.2,0.8,0.2s0.5,0.1,0.9,0.2l0.9,0.2c0.6,0.2,1.2,0.3,1.6,0.5c0.5,0.2,1,0.4,1.5,0.7
			c0.5,0.3,0.9,0.6,1.3,1c0.4,0.4,0.7,0.9,0.9,1.5c0.2,0.6,0.4,1.3,0.3,2c0,0.9-0.2,1.8-0.6,2.5c-0.4,0.7-0.9,1.3-1.6,1.7
			c-0.7,0.4-1.5,0.7-2.3,0.9C-2320,5567.2-2320.9,5567.4-2321.8,5567.3z M-2289.5,5540.8h4.9v26.2h-4.7l-0.1-2.3
			c-0.5,0.9-1.3,1.6-2.2,2c-1,0.5-2.2,0.7-3.3,0.7c-1.1,0-2.2-0.2-3.3-0.6c-1-0.4-1.9-1-2.7-1.8c-0.8-0.8-1.4-1.8-1.8-2.9
			c-0.5-1.2-0.7-2.5-0.7-3.8c0-1.7,0.4-3.4,1.2-4.9c0.7-1.3,1.8-2.4,3.1-3.2c1.3-0.7,2.8-1.1,4.2-1.1c1.1,0,2.2,0.2,3.2,0.6
			c0.9,0.4,1.7,1,2.2,1.8L-2289.5,5540.8z M-2293.7,5563.3c1.3,0,2.5-0.5,3.3-1.4c0.9-1,1.4-2.3,1.3-3.7c0.1-1.4-0.4-2.7-1.3-3.7
			c-0.9-0.9-2.1-1.4-3.3-1.4c-1.3,0-2.5,0.5-3.3,1.4c-0.9,1-1.4,2.3-1.3,3.7c-0.1,1.4,0.4,2.7,1.3,3.7
			C-2296.2,5562.9-2295,5563.4-2293.7,5563.3z M-2262.9,5558l-0.1,1.2h-13c0,1.2,0.5,2.4,1.4,3.2c0.9,0.7,2,1.1,3.1,1.1
			c0.8,0,1.6-0.2,2.3-0.6c0.7-0.4,1.2-1,1.5-1.8l4.5,0.7c-0.5,1.7-1.6,3.1-3.1,4.1c-1.5,1-3.4,1.5-5.2,1.5c-2.5,0.1-5-0.7-6.8-2.4
			c-1.8-1.8-2.7-4.2-2.5-6.7c-0.1-2.5,0.8-4.9,2.5-6.7c1.8-1.7,4.2-2.6,6.7-2.5c2.3-0.1,4.6,0.7,6.3,2.2
			C-2263.8,5552.8-2263,5555-2262.9,5558L-2262.9,5558z M-2271.6,5552.5c-2.1-0.2-4,1.3-4.3,3.4h8.1c-0.1-1-0.5-1.9-1.2-2.5
			C-2269.7,5552.8-2270.7,5552.5-2271.6,5552.5z M-2243.9,5567.3c-1.8,0.1-3.6-0.4-5.1-1.2c-1.3-0.8-2.3-2.1-2.5-3.7l4.1-1.2
			c0.3,1.6,1.9,2.8,3.5,2.6c0.6,0,1.2-0.1,1.8-0.4c0.5-0.3,0.8-0.8,0.7-1.4c0-0.3-0.1-0.6-0.3-0.9c-0.2-0.3-0.6-0.5-0.9-0.6
			c-0.4-0.2-0.8-0.3-1.2-0.5c-0.4-0.1-0.9-0.3-1.6-0.5c-0.6-0.2-1.2-0.3-1.6-0.5c-0.5-0.2-1-0.4-1.5-0.7c-0.5-0.2-0.9-0.6-1.3-0.9
			c-0.4-0.4-0.7-0.8-1-1.4c-0.2-0.6-0.3-1.2-0.3-1.9c-0.1-1.6,0.6-3,1.9-3.9c1.5-0.9,3.2-1.4,5-1.3c1.6-0.1,3.2,0.3,4.6,1.1
			c1.3,0.8,2.1,2.1,2.4,3.5l-3.8,0.9c-0.4-1.4-1.7-2.3-3.1-2.2c-0.6,0-1.2,0.1-1.7,0.4c-0.4,0.2-0.7,0.7-0.7,1.2
			c0,0.2,0,0.4,0.1,0.5c0.1,0.2,0.2,0.3,0.4,0.4c0.2,0.1,0.3,0.2,0.5,0.3c0.2,0.1,0.5,0.2,0.7,0.3c0.3,0.1,0.6,0.2,0.8,0.2
			c0.2,0.1,0.5,0.1,0.9,0.2l0.9,0.2c0.6,0.2,1.2,0.3,1.6,0.5c0.5,0.2,1,0.4,1.5,0.7c0.5,0.3,0.9,0.6,1.3,1c0.4,0.4,0.7,0.9,0.9,1.5
			c0.2,0.6,0.4,1.3,0.3,2c0,0.9-0.2,1.8-0.6,2.5c-0.4,0.7-0.9,1.3-1.6,1.7c-0.7,0.4-1.5,0.7-2.3,0.9
			C-2242.1,5567.2-2243,5567.3-2243.9,5567.3z M-2218.7,5562.2c0,1.4,0.1,2.9,0.4,4.3v0.5h-4.6l-0.4-1.9c-0.7,0.8-1.5,1.4-2.5,1.7
			c-1,0.4-2.1,0.6-3.2,0.6c-0.6,0-1.1,0-1.6-0.2c-0.5-0.1-1-0.3-1.5-0.5c-0.5-0.2-0.9-0.5-1.2-0.9c-0.4-0.4-0.6-0.9-0.8-1.4
			c-0.2-0.6-0.3-1.3-0.3-1.9c0-0.6,0.1-1.3,0.3-1.9c0.2-0.5,0.5-1,0.9-1.4c0.4-0.4,0.9-0.8,1.4-1c0.6-0.3,1.1-0.6,1.7-0.8
			c0.7-0.2,1.4-0.4,2.1-0.5l2.9-0.6c0.5-0.1,0.9-0.3,1.3-0.6c0.3-0.2,0.4-0.5,0.4-0.9c0.1-0.7-0.3-1.3-0.9-1.7
			c-0.6-0.4-1.4-0.5-2.1-0.5c-2,0-3.2,0.9-3.4,2.7l-4.4-0.8c0.2-1.6,1.2-3.1,2.5-4c1.7-0.9,3.6-1.4,5.5-1.3c4.9,0,7.4,2.1,7.4,6.3
			L-2218.7,5562.2z M-2227.4,5564c1.2,0,2.3-0.4,3-1.3c0.9-1.1,1.3-2.4,1.2-3.8l-4.2,1.2c-0.6,0.1-1.2,0.4-1.8,0.7
			c-0.4,0.3-0.6,0.8-0.6,1.3c0,0.5,0.2,1.1,0.6,1.4C-2228.6,5563.9-2228,5564-2227.4,5564z M-2214,5567v-26.2h5v26.2H-2214z
			 M-2192.3,5549.4h4.9v17.6h-4.7l-0.1-2.1c-1.4,1.7-3.4,2.6-5.6,2.5c-1.8,0.1-3.5-0.4-4.9-1.6c-1.2-1.2-1.8-2.8-1.7-4.5v-11.8h4.9
			v10.8c-0.1,0.9,0.2,1.8,0.9,2.4c0.6,0.5,1.5,0.8,2.3,0.8c1,0,2-0.3,2.8-1c0.8-0.9,1.2-2.1,1.1-3.3V5549.4z M-2169.8,5540.8h4.9
			v26.2h-4.7l-0.1-2.3c-0.5,0.9-1.3,1.6-2.2,2c-1,0.5-2.2,0.7-3.3,0.7c-1.1,0-2.2-0.2-3.3-0.6c-1-0.4-1.9-1-2.7-1.8
			c-0.8-0.8-1.4-1.8-1.8-2.9c-0.5-1.2-0.7-2.5-0.7-3.8c0-1.7,0.4-3.4,1.2-4.9c0.7-1.3,1.8-2.4,3.1-3.2c1.3-0.7,2.8-1.1,4.2-1.1
			c1.1,0,2.2,0.2,3.2,0.6c0.9,0.4,1.7,1,2.2,1.8L-2169.8,5540.8z M-2174,5563.3c1.3,0,2.5-0.5,3.3-1.4c0.9-1,1.4-2.3,1.3-3.7
			c0.1-1.4-0.4-2.7-1.3-3.7c-0.9-0.9-2.1-1.4-3.3-1.4c-1.3,0-2.5,0.5-3.3,1.4c-0.9,1-1.4,2.3-1.3,3.7c-0.1,1.4,0.4,2.7,1.3,3.7
			C-2176.5,5562.9-2175.3,5563.4-2174,5563.3z"/>
		<rect id="Rectángulo_3151" x="-2747" y="5780" class="st1" width="710" height="63"/>
		<path id="Trazado_35395" class="st2" d="M-2706.2,5638.2c-0.9,0-1.8-0.1-2.7-0.4c-0.8-0.2-1.5-0.6-2.2-1.2c-0.6-0.5-1.2-1.2-1.5-2
			c-0.4-0.9-0.6-1.9-0.5-2.9v-11.5h3.7v11c-0.1,1,0.2,2,0.9,2.8c0.6,0.6,1.5,0.9,2.3,0.9c0.9,0,1.7-0.3,2.4-0.9
			c0.7-0.8,1-1.8,0.9-2.8v-11h3.7v11.5c0,1-0.2,2-0.5,2.9c-0.3,0.8-0.8,1.5-1.5,2c-0.6,0.5-1.4,0.9-2.2,1.2
			C-2704.3,5638.1-2705.3,5638.3-2706.2,5638.2z M-2691.1,5638.2c-1.3,0-2.5-0.3-3.7-0.9c-1-0.6-1.6-1.5-1.8-2.6l2.9-0.8
			c0.2,1.2,1.3,2,2.5,1.9c0.4,0,0.9-0.1,1.3-0.3c0.3-0.2,0.5-0.6,0.5-1c0-0.2-0.1-0.5-0.2-0.6c-0.2-0.2-0.4-0.4-0.6-0.5
			c-0.3-0.1-0.6-0.2-0.9-0.3c-0.3-0.1-0.7-0.2-1.1-0.3c-0.5-0.1-0.9-0.2-1.2-0.4c-0.4-0.1-0.7-0.3-1.1-0.5c-0.3-0.2-0.6-0.4-0.9-0.6
			c-0.3-0.3-0.5-0.6-0.7-1c-0.2-0.4-0.2-0.9-0.2-1.3c-0.1-1.1,0.5-2.2,1.4-2.8c1.1-0.7,2.3-1,3.6-1c1.1,0,2.3,0.2,3.3,0.8
			c0.9,0.6,1.5,1.5,1.7,2.5l-2.7,0.6c-0.3-1-1.2-1.7-2.2-1.6c-0.4,0-0.9,0.1-1.2,0.3c-0.3,0.2-0.5,0.5-0.5,0.8c0,0.1,0,0.3,0.1,0.4
			c0.1,0.1,0.1,0.2,0.3,0.3c0.1,0.1,0.2,0.2,0.4,0.2c0.2,0.1,0.3,0.2,0.5,0.2c0.2,0.1,0.4,0.1,0.5,0.2c0.1,0,0.4,0.1,0.6,0.2
			l0.7,0.2c0.4,0.1,0.8,0.2,1.2,0.4c0.4,0.1,0.7,0.3,1.1,0.5c0.4,0.2,0.7,0.4,0.9,0.7c0.3,0.3,0.5,0.7,0.6,1
			c0.2,0.4,0.3,0.9,0.2,1.4c0,0.6-0.1,1.3-0.4,1.8c-0.3,0.5-0.7,0.9-1.2,1.2c-0.5,0.3-1.1,0.5-1.6,0.7
			C-2689.8,5638.2-2690.5,5638.3-2691.1,5638.2z M-2673.1,5634.6c0,1,0.1,2.1,0.3,3.1v0.3h-3.3l-0.3-1.4c-0.5,0.6-1.1,1-1.8,1.2
			c-0.7,0.3-1.5,0.4-2.3,0.4c-0.4,0-0.8,0-1.2-0.1c-0.4-0.1-0.7-0.2-1.1-0.4c-0.3-0.2-0.6-0.4-0.9-0.7c-0.3-0.3-0.5-0.6-0.6-1
			c-0.2-0.4-0.2-0.9-0.2-1.4c0-0.5,0.1-0.9,0.2-1.4c0.1-0.4,0.3-0.7,0.6-1c0.3-0.3,0.6-0.6,1-0.7c0.4-0.2,0.8-0.4,1.2-0.5
			c0.5-0.2,1-0.3,1.5-0.4l2.1-0.5c0.3-0.1,0.7-0.2,0.9-0.4c0.2-0.2,0.3-0.4,0.3-0.6c0-0.5-0.2-0.9-0.6-1.2c-0.5-0.3-1-0.4-1.5-0.4
			c-1.2-0.2-2.3,0.6-2.4,1.8c0,0,0,0.1,0,0.1l-3.1-0.6c0.2-1.2,0.8-2.2,1.8-2.9c1.2-0.7,2.6-1,3.9-0.9c3.5,0,5.3,1.5,5.3,4.5
			L-2673.1,5634.6z M-2679.3,5635.9c0.8,0,1.6-0.3,2.2-0.9c0.6-0.8,0.9-1.7,0.8-2.7l-3,0.8c-0.4,0.1-0.9,0.3-1.3,0.5
			c-0.3,0.2-0.4,0.5-0.4,0.9c0,0.4,0.2,0.8,0.5,1C-2680.2,5635.8-2679.7,5635.9-2679.3,5635.9z M-2666.3,5627.4
			c0.4-0.6,1-1.2,1.6-1.5c0.8-0.4,1.6-0.6,2.5-0.6v3.1c-1.1-0.1-2.1,0.2-3,0.8c-0.7,0.7-1,1.7-0.9,2.7v6.1h-3.5v-12.5h3.4
			L-2666.3,5627.4z M-2645.4,5638.2c-1.2,0-2.4-0.2-3.6-0.6c-1.1-0.4-2-1-2.9-1.8c-0.8-0.8-1.5-1.8-1.9-2.9
			c-0.5-1.2-0.7-2.5-0.7-3.7c0-1.7,0.4-3.3,1.2-4.8c0.7-1.3,1.9-2.4,3.2-3.2c1.4-0.7,3-1.1,4.6-1.1c1.8,0,3.6,0.5,5.2,1.4
			c1.5,0.9,2.6,2.3,3.2,3.9l-3.4,1.2c-0.4-1-1-1.8-1.9-2.4c-0.9-0.6-2-0.9-3-0.9c-1.4,0-2.8,0.5-3.9,1.5c-1,1.1-1.6,2.6-1.5,4.1
			c-0.1,1.5,0.5,3,1.5,4.2c1,1,2.4,1.6,3.9,1.5c1.1,0,2.1-0.3,3-0.9c0.9-0.6,1.5-1.4,1.9-2.4l3.4,1.2c-0.6,1.6-1.7,3-3.2,3.9
			C-2641.8,5637.8-2643.6,5638.3-2645.4,5638.2L-2645.4,5638.2z M-2628.7,5638.2c-1.2,0-2.4-0.2-3.6-0.8c-1-0.5-1.9-1.3-2.4-2.3
			c-0.6-1.1-0.9-2.3-0.9-3.5c-0.1-1.8,0.6-3.5,1.9-4.8c2.9-2.3,7-2.3,9.9,0c1.3,1.2,2,3,1.9,4.8c0.1,1.8-0.6,3.5-1.9,4.8
			C-2625.1,5637.7-2626.9,5638.3-2628.7,5638.2L-2628.7,5638.2z M-2628.7,5635.4c0.9,0,1.8-0.3,2.5-1c0.7-0.7,1-1.7,0.9-2.7
			c0-1-0.3-2-0.9-2.7c-0.6-0.7-1.5-1.1-2.5-1c-0.9,0-1.8,0.3-2.4,1c-0.6,0.7-1,1.7-0.9,2.7c0,1,0.3,2,0.9,2.7
			C-2630.5,5635.1-2629.6,5635.5-2628.7,5635.4L-2628.7,5635.4z M-2615.8,5627.4c0.4-0.6,1-1.2,1.6-1.5c0.8-0.4,1.6-0.6,2.5-0.6v3.1
			c-1.1-0.1-2.1,0.2-3,0.8c-0.7,0.7-1,1.7-0.9,2.7v6.1h-3.5v-12.5h3.4L-2615.8,5627.4z M-2603.9,5638.2c-1.2,0-2.4-0.2-3.6-0.8
			c-1-0.5-1.9-1.3-2.4-2.3c-0.6-1.1-0.9-2.3-0.9-3.5c-0.1-1.8,0.6-3.5,1.9-4.8c2.9-2.3,7-2.3,9.9,0c1.3,1.2,2,3,1.9,4.8
			c0.1,1.8-0.6,3.5-1.9,4.8C-2600.3,5637.7-2602.1,5638.3-2603.9,5638.2L-2603.9,5638.2z M-2603.9,5635.4c0.9,0,1.8-0.3,2.5-1
			c0.7-0.7,1-1.7,0.9-2.7c0-1-0.3-2-0.9-2.7c-0.6-0.7-1.5-1.1-2.5-1c-0.9,0-1.8,0.3-2.4,1c-0.6,0.7-1,1.7-0.9,2.7c0,1,0.3,2,0.9,2.7
			C-2605.7,5635.1-2604.8,5635.5-2603.9,5635.4L-2603.9,5635.4z M-2587,5625.2c1.3-0.1,2.5,0.3,3.5,1.1c0.8,0.9,1.3,2,1.2,3.2v8.5
			h-3.5v-7.7c0.1-0.6-0.2-1.3-0.6-1.7c-0.5-0.4-1-0.6-1.6-0.5c-0.4,0-0.7,0-1.1,0.2c-0.3,0.1-0.6,0.3-0.9,0.5
			c-0.3,0.3-0.5,0.6-0.6,0.9c-0.2,0.5-0.2,1-0.2,1.5v6.9h-3.5v-12.5h3.5v1.4C-2589.9,5625.7-2588.5,5625.1-2587,5625.2L-2587,5625.2
			z M-2566.6,5638l-1.3-3.6h-7.4l-1.3,3.6h-3.7l6.5-17.6h4.5l6.5,17.6H-2566.6z M-2574.2,5631.3h5.3l-2.6-7.5L-2574.2,5631.3z
			 M-2553.3,5625.2c0.8,0,1.6,0.1,2.3,0.5c0.7,0.3,1.4,0.7,1.9,1.3c0.6,0.6,1,1.3,1.3,2.1c0.3,0.9,0.5,1.8,0.5,2.8
			c0,0.9-0.2,1.9-0.5,2.8c-0.3,0.8-0.7,1.5-1.3,2.1c-0.6,0.5-1.2,1-1.9,1.3c-0.7,0.3-1.5,0.5-2.3,0.5c-0.8,0-1.6-0.1-2.3-0.5
			c-0.6-0.3-1.2-0.7-1.6-1.3v7.6h-3.5v-18.6h3.3l0.1,1.7c0.4-0.6,0.9-1.1,1.6-1.4C-2555,5625.4-2554.1,5625.2-2553.3,5625.2
			L-2553.3,5625.2z M-2554.1,5635.4c0.9,0,1.8-0.3,2.4-1c0.7-0.7,1-1.7,0.9-2.6c0-1-0.3-1.9-0.9-2.6c-1.3-1.3-3.4-1.3-4.8,0
			c0,0,0,0,0,0c-0.7,0.7-1,1.7-1,2.6c0,1,0.3,1.9,1,2.6C-2555.9,5635-2555,5635.4-2554.1,5635.4L-2554.1,5635.4z M-2537.3,5625.2
			c0.8,0,1.6,0.1,2.3,0.5c0.7,0.3,1.4,0.7,1.9,1.3c0.6,0.6,1,1.3,1.3,2.1c0.3,0.9,0.5,1.8,0.5,2.8c0,0.9-0.2,1.9-0.5,2.8
			c-0.3,0.8-0.7,1.5-1.3,2.1c-0.6,0.5-1.2,1-1.9,1.3c-0.7,0.3-1.5,0.5-2.3,0.5c-0.8,0-1.6-0.1-2.3-0.5c-0.6-0.3-1.2-0.7-1.6-1.3v7.6
			h-3.5v-18.6h3.3l0.1,1.7c0.4-0.6,0.9-1.1,1.6-1.4C-2538.9,5625.4-2538.1,5625.2-2537.3,5625.2L-2537.3,5625.2z M-2538.1,5635.4
			c0.9,0,1.8-0.3,2.4-1c0.7-0.7,1-1.7,0.9-2.6c0-1-0.3-1.9-0.9-2.6c-1.3-1.3-3.4-1.3-4.8,0c0,0,0,0,0,0c-0.7,0.7-1,1.7-1,2.6
			c0,1,0.3,1.9,1,2.6C-2539.8,5635-2539,5635.4-2538.1,5635.4L-2538.1,5635.4z"/>
		<g id="Grupo_19071" transform="translate(-3255 4213)">
			<rect id="rectangle" x="504" y="1466" class="st3" width="30" height="30"/>
			<path id="path" class="st1" d="M514.8,1475.2l1.8-1.8l7.5,7.5l-7.5,7.5l-1.8-1.8l5.8-5.8L514.8,1475.2z"/>
		</g>
		<g id="Grupo_19072" transform="translate(-3255 4242)">
			<rect id="rectangle-2" x="504" y="1466" class="st3" width="30" height="30"/>
			<path id="path-2" class="st1" d="M514.8,1475.2l1.8-1.8l7.5,7.5l-7.5,7.5l-1.8-1.8l5.8-5.8L514.8,1475.2z"/>
		</g>
		<g id="Grupo_19073" transform="translate(-3255 4272)">
			<rect id="rectangle-3" x="504" y="1466" class="st3" width="30" height="30"/>
			<path id="path-3" class="st1" d="M514.8,1475.2l1.8-1.8l7.5,7.5l-7.5,7.5l-1.8-1.8l5.8-5.8L514.8,1475.2z"/>
		</g>
		<path id="Trazado_35394" class="st1" d="M-2705.4,5698l-3.5-6.2h-2.2v6.2h-1.7v-13.8h4.6c1.1-0.1,2.2,0.3,3.1,1.1
			c0.7,0.8,1.1,1.8,1.1,2.8c0,0.9-0.3,1.7-0.8,2.4c-0.6,0.7-1.4,1.1-2.2,1.2l3.8,6.3H-2705.4z M-2711.1,5685.8v4.6h2.6
			c0.7,0.1,1.4-0.2,2-0.6c0.5-0.4,0.7-1.1,0.7-1.7c0-0.6-0.2-1.3-0.7-1.7c-0.6-0.5-1.3-0.7-2-0.6L-2711.1,5685.8z M-2693,5693l0,0.5
			h-7.5c0,0.9,0.3,1.8,0.9,2.5c0.6,0.6,1.4,0.9,2.2,0.9c0.6,0,1.1-0.2,1.6-0.5c0.5-0.3,0.9-0.8,1.1-1.3l1.5,0.3
			c-0.3,0.8-0.9,1.6-1.6,2.1c-0.8,0.5-1.6,0.8-2.5,0.8c-1.3,0.1-2.5-0.4-3.5-1.3c-0.9-1-1.4-2.3-1.3-3.6c-0.1-1.3,0.4-2.7,1.3-3.6
			c0.9-0.9,2.1-1.4,3.4-1.3c1.2-0.1,2.4,0.4,3.2,1.2C-2693.4,5690.4-2692.9,5691.7-2693,5693z M-2697.5,5689.5c-0.7,0-1.4,0.2-2,0.7
			c-0.6,0.5-0.9,1.2-1,2h5.8c0-0.7-0.3-1.5-0.8-2C-2696.1,5689.7-2696.8,5689.5-2697.5,5689.5L-2697.5,5689.5z M-2688.2,5698.2
			c-0.8,0-1.5-0.2-2.1-0.7c-0.6-0.5-0.9-1.2-0.8-2c0-0.4,0.1-0.9,0.3-1.3c0.2-0.4,0.4-0.7,0.8-0.9c0.4-0.2,0.7-0.4,1.1-0.5
			c0.5-0.2,1-0.3,1.5-0.3l1.6-0.3c0.6-0.1,0.8-0.4,0.8-0.9c0-0.5-0.2-1.1-0.6-1.4c-0.4-0.3-1-0.5-1.5-0.5c-0.5,0-1.1,0.1-1.5,0.4
			c-0.4,0.3-0.7,0.8-0.7,1.3l-1.5-0.3c0.1-0.8,0.5-1.6,1.2-2.1c0.8-0.5,1.7-0.7,2.6-0.7c0.5,0,0.9,0.1,1.4,0.2
			c0.4,0.1,0.8,0.3,1.2,0.5c0.4,0.3,0.7,0.6,0.8,1c0.2,0.5,0.3,1,0.3,1.6v4c0,0.3,0,0.7,0.2,1c0.2,0.2,0.5,0.3,0.8,0.3h0.2v1.2h-0.8
			c-0.9,0.1-1.7-0.4-1.8-1.3h-0.1C-2685.8,5697.7-2686.9,5698.3-2688.2,5698.2L-2688.2,5698.2z M-2687.8,5696.8
			c0.8,0,1.6-0.3,2.1-0.9c0.6-0.7,0.8-1.6,0.8-2.5l-2.5,0.5c-0.5,0.1-1,0.2-1.5,0.5c-0.3,0.2-0.5,0.6-0.5,1c0,0.4,0.1,0.8,0.5,1.1
			C-2688.6,5696.7-2688.2,5696.8-2687.8,5696.8L-2687.8,5696.8z M-2679.9,5698v-15h1.7v15H-2679.9z M-2673.9,5686.1
			c-0.6,0-1.1-0.5-1.1-1.1c0-0.3,0.1-0.6,0.3-0.8c0.2-0.2,0.5-0.3,0.8-0.3c0.3,0,0.6,0.1,0.8,0.3c0.2,0.2,0.3,0.5,0.3,0.8
			c0,0.3-0.1,0.6-0.3,0.8C-2673.3,5686-2673.6,5686.1-2673.9,5686.1z M-2674.8,5698v-9.6h1.7v9.6H-2674.8z M-2668.3,5696.6h5.1v1.4
			h-7.7l5.1-8.2h-4.8v-1.4h7.4L-2668.3,5696.6z M-2659,5698.2c-0.8,0-1.5-0.2-2.1-0.7c-0.6-0.5-0.9-1.2-0.8-2c0-0.4,0.1-0.9,0.3-1.3
			c0.2-0.4,0.4-0.7,0.8-0.9c0.4-0.2,0.7-0.4,1.1-0.5c0.5-0.2,1-0.3,1.5-0.3l1.6-0.3c0.6-0.1,0.9-0.4,0.9-0.9c0-0.5-0.2-1.1-0.6-1.4
			c-0.4-0.3-1-0.5-1.5-0.5c-0.5,0-1.1,0.1-1.5,0.4c-0.4,0.3-0.7,0.8-0.7,1.3l-1.5-0.3c0.1-0.8,0.5-1.6,1.2-2.1
			c0.8-0.5,1.7-0.7,2.6-0.7c0.5,0,0.9,0.1,1.4,0.2c0.4,0.1,0.8,0.3,1.2,0.5c0.4,0.3,0.7,0.6,0.8,1c0.2,0.5,0.3,1,0.3,1.6v4
			c0,0.3,0,0.7,0.2,1c0.2,0.2,0.5,0.3,0.8,0.3h0.2v1.2h-0.8c-0.9,0.1-1.7-0.4-1.8-1.3h-0.1
			C-2656.5,5697.7-2657.7,5698.3-2659,5698.2z M-2658.6,5696.8c0.8,0,1.6-0.3,2.1-0.9c0.6-0.7,0.8-1.6,0.8-2.5l-2.5,0.5
			c-0.5,0.1-1,0.2-1.5,0.5c-0.3,0.2-0.5,0.6-0.5,1c0,0.4,0.1,0.8,0.5,1.1C-2659.4,5696.7-2659,5696.8-2658.6,5696.8L-2658.6,5696.8z
			 M-2649,5690.1c0.3-0.5,0.7-1,1.2-1.3c0.6-0.3,1.2-0.5,1.8-0.5v1.6c-0.8-0.1-1.6,0.2-2.2,0.7c-0.6,0.6-0.8,1.4-0.8,2.3v5.1h-1.7
			v-9.6h1.7V5690.1z M-2636.6,5698.2c-0.8,0-1.5-0.2-2.1-0.7c-0.6-0.5-0.9-1.2-0.8-2c0-0.4,0.1-0.9,0.3-1.3c0.2-0.4,0.4-0.7,0.8-0.9
			c0.4-0.2,0.7-0.4,1.1-0.5c0.5-0.2,1-0.3,1.5-0.3l1.6-0.3c0.6-0.1,0.9-0.4,0.9-0.9c0-0.5-0.2-1.1-0.6-1.4c-0.4-0.3-1-0.5-1.5-0.5
			c-0.5,0-1.1,0.1-1.5,0.4c-0.4,0.3-0.7,0.8-0.7,1.3l-1.5-0.3c0.1-0.8,0.5-1.6,1.2-2.1c0.8-0.5,1.7-0.7,2.6-0.7
			c0.5,0,0.9,0.1,1.4,0.2c0.4,0.1,0.8,0.3,1.2,0.5c0.4,0.3,0.7,0.6,0.8,1c0.2,0.5,0.3,1,0.3,1.6v4c0,0.3,0,0.7,0.2,1
			c0.2,0.2,0.5,0.3,0.8,0.3h0.2v1.2h-0.8c-0.9,0.1-1.7-0.4-1.8-1.3h-0.1C-2634.2,5697.7-2635.4,5698.3-2636.6,5698.2L-2636.6,5698.2
			z M-2636.2,5696.8c0.8,0,1.6-0.3,2.1-0.9c0.6-0.7,0.8-1.6,0.8-2.5l-2.5,0.5c-0.5,0.1-1,0.2-1.5,0.5c-0.3,0.2-0.5,0.6-0.5,1
			c0,0.4,0.1,0.8,0.5,1.1C-2637.1,5696.7-2636.6,5696.8-2636.2,5696.8L-2636.2,5696.8z M-2623.8,5688.2c0.9,0,1.8,0.3,2.4,0.9
			c0.6,0.7,1,1.5,0.9,2.5v6.5h-1.7v-6.1c0.1-0.6-0.2-1.3-0.6-1.7c-0.4-0.4-0.9-0.6-1.5-0.6c-0.6,0-1.3,0.2-1.7,0.7
			c-0.5,0.5-0.7,1.2-0.7,2v5.7h-1.7v-9.6h1.7v1.2C-2626,5688.7-2624.9,5688.2-2623.8,5688.2L-2623.8,5688.2z M-2614.2,5698
			c-0.7,0-1.4-0.2-1.9-0.7c-0.5-0.5-0.7-1.2-0.7-1.9v-5.6h-2v-1.3h0.7c0.4,0,0.8-0.1,1.1-0.3c0.2-0.3,0.3-0.7,0.3-1.1v-1.7h1.6v3.2
			h2.2v1.3h-2.2v5.5c0,0.4,0.1,0.8,0.4,1.1c0.3,0.3,0.6,0.4,1,0.4h0.9v1.3H-2614.2z M-2602.1,5693l0,0.5h-7.5c0,0.9,0.3,1.8,0.9,2.5
			c0.6,0.6,1.4,0.9,2.2,0.9c0.6,0,1.1-0.2,1.6-0.5c0.5-0.3,0.9-0.8,1.1-1.3l1.5,0.3c-0.3,0.8-0.9,1.6-1.6,2.1
			c-0.8,0.5-1.6,0.8-2.5,0.8c-1.3,0.1-2.5-0.4-3.5-1.3c-0.9-1-1.4-2.3-1.3-3.6c-0.1-1.3,0.4-2.7,1.3-3.6c0.9-0.9,2.1-1.4,3.4-1.3
			c1.2-0.1,2.4,0.4,3.2,1.2C-2602.5,5690.4-2602,5691.7-2602.1,5693z M-2606.5,5689.5c-0.7,0-1.4,0.2-2,0.7c-0.6,0.5-0.9,1.2-1,2
			h5.8c0-0.7-0.3-1.5-0.8-2C-2605.2,5689.7-2605.8,5689.5-2606.5,5689.5L-2606.5,5689.5z M-2596.4,5698.2c-0.9,0-1.8-0.2-2.6-0.7
			c-0.7-0.4-1.1-1.2-1.3-2l1.5-0.4c0.1,0.5,0.4,1,0.8,1.3c0.5,0.3,1,0.5,1.6,0.5c0.3,0,0.6,0,0.9-0.1c0.3-0.1,0.5-0.2,0.7-0.5
			c0.3-0.4,0.4-0.8,0.2-1.3c0-0.1-0.1-0.2-0.2-0.3c-0.1-0.1-0.2-0.2-0.3-0.3c-0.1-0.1-0.2-0.1-0.3-0.2c-0.1-0.1-0.3-0.1-0.4-0.2
			c-0.2-0.1-0.3-0.1-0.5-0.2c-0.1,0-0.3-0.1-0.5-0.2c-0.2-0.1-0.4-0.1-0.6-0.2c-0.3-0.1-0.7-0.2-1-0.4c-0.3-0.1-0.6-0.3-0.8-0.5
			c-0.3-0.2-0.5-0.5-0.6-0.8c-0.1-0.3-0.2-0.7-0.2-1.1c0-0.5,0.1-1.1,0.5-1.5c0.3-0.4,0.7-0.7,1.2-0.9c0.5-0.2,1.1-0.3,1.7-0.3
			c0.8,0,1.6,0.2,2.3,0.6c0.6,0.4,1.1,1.1,1.2,1.9l-1.4,0.4c-0.1-0.5-0.3-0.9-0.7-1.2c-0.4-0.3-0.9-0.4-1.4-0.4
			c-0.5,0-0.9,0.1-1.3,0.3c-0.4,0.2-0.6,0.6-0.5,1c0,0.2,0,0.4,0.1,0.5c0.1,0.1,0.2,0.3,0.3,0.4c0.2,0.1,0.3,0.2,0.5,0.3
			c0.3,0.1,0.4,0.2,0.6,0.2c0.1,0,0.4,0.1,0.7,0.2c0.1,0,0.1,0,0.1,0c0.4,0.1,0.7,0.2,0.9,0.3c0.3,0.1,0.6,0.2,0.8,0.4
			c0.3,0.1,0.5,0.3,0.7,0.5c0.2,0.2,0.4,0.5,0.5,0.7c0.1,0.3,0.2,0.7,0.2,1c0,0.4-0.1,0.9-0.3,1.3c-0.2,0.4-0.4,0.7-0.8,0.9
			c-0.3,0.2-0.7,0.4-1.1,0.5C-2595.5,5698.1-2596,5698.2-2596.4,5698.2L-2596.4,5698.2z M-2577.9,5683h1.7v15h-1.6l0-1.9
			c-0.3,0.6-0.8,1.2-1.4,1.5c-0.6,0.4-1.3,0.6-2,0.6c-1.2,0-2.3-0.5-3.2-1.4c-0.4-0.5-0.8-1-1-1.6c-0.2-0.7-0.4-1.4-0.4-2.1
			c-0.1-1.3,0.4-2.6,1.3-3.6c0.8-0.9,2-1.4,3.2-1.4c0.7,0,1.4,0.2,2,0.5c0.6,0.3,1.1,0.9,1.4,1.5L-2577.9,5683z M-2581,5696.7
			c0.9,0,1.7-0.4,2.2-1c0.6-0.7,0.9-1.6,0.9-2.5c0-0.9-0.3-1.8-0.9-2.5c-0.6-0.7-1.4-1-2.2-1c-0.9,0-1.7,0.3-2.2,1
			c-0.6,0.7-0.9,1.6-0.9,2.6c0,0.9,0.3,1.9,0.9,2.6C-2582.6,5696.4-2581.8,5696.8-2581,5696.7L-2581,5696.7z M-2564.4,5693l0,0.5
			h-7.5c0,0.9,0.3,1.8,0.9,2.5c0.6,0.6,1.4,0.9,2.2,0.9c0.6,0,1.1-0.2,1.6-0.5c0.5-0.3,0.9-0.8,1.1-1.3l1.5,0.3
			c-0.3,0.8-0.9,1.6-1.6,2.1c-0.8,0.5-1.6,0.8-2.5,0.8c-1.3,0.1-2.5-0.4-3.5-1.3c-0.9-1-1.4-2.3-1.3-3.7c-0.1-1.3,0.4-2.7,1.3-3.6
			c0.9-0.9,2.1-1.4,3.4-1.3c1.2-0.1,2.4,0.4,3.2,1.2C-2564.8,5690.4-2564.3,5691.7-2564.4,5693L-2564.4,5693z M-2568.9,5689.5
			c-0.7,0-1.4,0.2-2,0.7c-0.6,0.5-0.9,1.2-1,2h5.8c0-0.7-0.3-1.5-0.8-2C-2567.5,5689.7-2568.2,5689.5-2568.9,5689.5L-2568.9,5689.5z
			 M-2553.5,5698.2c-0.9,0-1.8-0.2-2.6-0.7c-0.7-0.4-1.1-1.2-1.3-2l1.5-0.4c0.1,0.5,0.4,1,0.8,1.3c0.5,0.3,1,0.5,1.6,0.5
			c0.3,0,0.6,0,0.9-0.1c0.3-0.1,0.5-0.2,0.7-0.5c0.3-0.4,0.4-0.8,0.2-1.3c0-0.1-0.1-0.2-0.2-0.3c-0.1-0.1-0.2-0.2-0.3-0.3
			c-0.1-0.1-0.2-0.1-0.3-0.2c-0.1-0.1-0.3-0.1-0.4-0.2c-0.2-0.1-0.3-0.1-0.5-0.2c-0.1,0-0.3-0.1-0.5-0.2c-0.2-0.1-0.4-0.1-0.6-0.2
			c-0.3-0.1-0.7-0.2-1-0.4c-0.3-0.1-0.6-0.3-0.8-0.5c-0.3-0.2-0.5-0.5-0.6-0.8c-0.1-0.3-0.2-0.7-0.2-1.1c0-0.5,0.1-1.1,0.5-1.5
			c0.3-0.4,0.7-0.7,1.2-0.9c0.5-0.2,1.1-0.3,1.7-0.3c0.8,0,1.6,0.2,2.3,0.6c0.6,0.4,1.1,1.1,1.2,1.9l-1.4,0.4
			c-0.1-0.5-0.3-0.9-0.7-1.2c-0.4-0.3-0.9-0.4-1.4-0.4c-0.5,0-0.9,0.1-1.3,0.3c-0.4,0.2-0.6,0.6-0.5,1c0,0.2,0,0.4,0.1,0.5
			c0.1,0.1,0.2,0.3,0.3,0.4c0.2,0.1,0.3,0.2,0.5,0.3c0.3,0.1,0.4,0.2,0.6,0.2c0.1,0,0.4,0.1,0.7,0.2c0.1,0,0.1,0,0.1,0
			c0.4,0.1,0.7,0.2,0.9,0.3c0.3,0.1,0.6,0.2,0.8,0.4c0.3,0.1,0.5,0.3,0.7,0.5c0.2,0.2,0.4,0.5,0.5,0.7c0.1,0.3,0.2,0.7,0.2,1
			c0,0.4-0.1,0.9-0.3,1.3c-0.2,0.4-0.4,0.7-0.8,0.9c-0.3,0.2-0.7,0.4-1.1,0.5C-2552.6,5698.1-2553.1,5698.2-2553.5,5698.2
			L-2553.5,5698.2z M-2545.1,5698.2c-0.8,0-1.5-0.2-2.1-0.7c-0.6-0.5-0.9-1.2-0.8-2c0-0.4,0.1-0.9,0.3-1.3c0.2-0.4,0.4-0.7,0.8-0.9
			c0.4-0.2,0.7-0.4,1.1-0.5c0.5-0.2,1-0.3,1.5-0.3l1.6-0.3c0.6-0.1,0.9-0.4,0.9-0.9c0-0.5-0.2-1.1-0.6-1.4c-0.4-0.3-1-0.5-1.5-0.5
			c-0.5,0-1.1,0.1-1.5,0.4c-0.4,0.3-0.7,0.8-0.7,1.3l-1.5-0.3c0.1-0.8,0.5-1.6,1.2-2.1c0.8-0.5,1.7-0.7,2.6-0.7
			c0.5,0,0.9,0.1,1.4,0.2c0.4,0.1,0.8,0.3,1.2,0.5c0.4,0.3,0.7,0.6,0.8,1c0.2,0.5,0.3,1,0.3,1.6v4c0,0.3,0,0.7,0.2,1
			c0.2,0.2,0.5,0.3,0.8,0.3h0.2v1.2h-0.8c-0.9,0.1-1.7-0.4-1.8-1.3h-0.1C-2542.7,5697.7-2543.9,5698.3-2545.1,5698.2L-2545.1,5698.2
			z M-2544.7,5696.8c0.8,0,1.6-0.3,2.1-0.9c0.6-0.7,0.8-1.6,0.8-2.5l-2.5,0.5c-0.5,0.1-1,0.2-1.5,0.5c-0.3,0.2-0.5,0.6-0.5,1
			c0,0.4,0.1,0.8,0.5,1.1C-2545.6,5696.7-2545.2,5696.8-2544.7,5696.8L-2544.7,5696.8z M-2536.9,5698v-15h1.7v15H-2536.9z
			 M-2530.9,5686.1c-0.6,0-1.1-0.5-1.1-1.1c0-0.3,0.1-0.6,0.3-0.8c0.2-0.2,0.5-0.3,0.8-0.3c0.3,0,0.6,0.1,0.8,0.3
			c0.2,0.2,0.3,0.5,0.3,0.8c0,0.3-0.1,0.6-0.3,0.8C-2530.3,5686-2530.6,5686.1-2530.9,5686.1L-2530.9,5686.1z M-2531.7,5698v-9.6
			h1.7v9.6H-2531.7z M-2524.9,5690.1c0.3-0.5,0.7-1,1.2-1.3c0.6-0.3,1.2-0.5,1.8-0.5v1.6c-0.8-0.1-1.6,0.2-2.2,0.7
			c-0.6,0.6-0.8,1.4-0.8,2.3v5.1h-1.7v-9.6h1.7L-2524.9,5690.1z M-2507.6,5683h1.7v15h-1.6l0-1.9c-0.3,0.6-0.8,1.2-1.4,1.5
			c-0.6,0.4-1.3,0.6-2,0.6c-1.2,0-2.3-0.5-3.2-1.4c-0.4-0.5-0.8-1-1-1.6c-0.2-0.7-0.4-1.4-0.4-2.1c-0.1-1.3,0.4-2.6,1.3-3.6
			c0.8-0.9,2-1.4,3.2-1.4c0.7,0,1.4,0.2,2,0.5c0.6,0.3,1.1,0.9,1.4,1.5L-2507.6,5683z M-2510.7,5696.7c0.9,0,1.7-0.4,2.2-1
			c0.6-0.7,0.9-1.6,0.9-2.5c0-0.9-0.3-1.8-0.9-2.5c-0.6-0.7-1.4-1-2.2-1c-0.9,0-1.7,0.3-2.2,1c-0.6,0.7-0.9,1.6-0.9,2.6
			c0,0.9,0.3,1.9,0.9,2.6C-2512.3,5696.4-2511.5,5696.8-2510.7,5696.7L-2510.7,5696.7z M-2494.1,5693l0,0.5h-7.5
			c0,0.9,0.3,1.8,0.9,2.5c0.6,0.6,1.4,0.9,2.2,0.9c0.6,0,1.1-0.2,1.6-0.5c0.5-0.3,0.9-0.8,1.1-1.3l1.5,0.3c-0.3,0.8-0.9,1.6-1.6,2.1
			c-0.8,0.5-1.6,0.8-2.5,0.8c-1.3,0.1-2.5-0.4-3.5-1.3c-0.9-1-1.4-2.3-1.3-3.7c-0.1-1.3,0.4-2.7,1.3-3.6c0.9-0.9,2.1-1.4,3.4-1.3
			c1.2-0.1,2.4,0.4,3.2,1.2C-2494.4,5690.4-2494,5691.7-2494.1,5693z M-2498.5,5689.5c-0.7,0-1.4,0.2-2,0.7c-0.6,0.5-0.9,1.2-1,2
			h5.8c0-0.7-0.3-1.5-0.8-2C-2497.2,5689.7-2497.8,5689.5-2498.5,5689.5L-2498.5,5689.5z M-2482.3,5698.2c-1.3,0-2.5-0.5-3.4-1.4
			c-0.9-1-1.4-2.3-1.4-3.6c-0.1-1.3,0.4-2.6,1.4-3.6c1.7-1.6,4.3-1.8,6.2-0.5c0.8,0.6,1.4,1.4,1.6,2.3l-1.6,0.3
			c-0.2-0.6-0.6-1.1-1.1-1.5c-0.5-0.4-1.1-0.5-1.7-0.5c-0.9,0-1.7,0.3-2.2,1c-0.6,0.7-0.9,1.6-0.9,2.6c0,0.9,0.3,1.9,0.9,2.6
			c0.6,0.6,1.4,1,2.2,1c0.6,0,1.2-0.2,1.7-0.5c0.5-0.4,0.9-0.9,1.1-1.5l1.6,0.3c-0.3,0.9-0.8,1.8-1.6,2.3
			C-2480.3,5697.9-2481.3,5698.2-2482.3,5698.2L-2482.3,5698.2z M-2473.2,5698.2c-0.8,0-1.5-0.2-2.1-0.7c-0.6-0.5-0.9-1.2-0.8-2
			c0-0.4,0.1-0.9,0.3-1.3c0.2-0.4,0.4-0.7,0.8-0.9c0.4-0.2,0.7-0.4,1.1-0.5c0.5-0.2,1-0.3,1.5-0.3l1.6-0.3c0.6-0.1,0.8-0.4,0.8-0.9
			c0-0.5-0.2-1.1-0.6-1.4c-0.4-0.3-1-0.5-1.5-0.5c-0.5,0-1.1,0.1-1.5,0.4c-0.4,0.3-0.7,0.8-0.7,1.4l-1.5-0.3
			c0.1-0.8,0.5-1.6,1.2-2.1c0.8-0.5,1.7-0.7,2.6-0.7c0.5,0,0.9,0.1,1.4,0.2c0.4,0.1,0.8,0.3,1.2,0.5c0.4,0.3,0.7,0.6,0.8,1
			c0.2,0.5,0.3,1,0.3,1.6v4c0,0.3,0,0.7,0.2,1c0.2,0.2,0.5,0.3,0.8,0.3h0.2v1.2h-0.8c-0.9,0.1-1.7-0.4-1.8-1.3h-0.1
			C-2470.8,5697.7-2471.9,5698.3-2473.2,5698.2L-2473.2,5698.2z M-2472.8,5696.8c0.8,0,1.6-0.3,2.1-0.9c0.6-0.7,0.8-1.6,0.8-2.5
			l-2.5,0.5c-0.5,0.1-1,0.2-1.5,0.5c-0.3,0.2-0.5,0.6-0.5,1c0,0.4,0.1,0.8,0.5,1.1C-2473.6,5696.7-2473.2,5696.8-2472.8,5696.8
			L-2472.8,5696.8z M-2461.9,5698.2c-0.9,0-1.8-0.2-2.6-0.7c-0.7-0.4-1.1-1.2-1.3-2l1.5-0.4c0.1,0.5,0.4,1,0.8,1.3
			c0.5,0.3,1,0.5,1.6,0.5c0.3,0,0.6,0,0.9-0.1c0.3-0.1,0.5-0.2,0.7-0.5c0.3-0.4,0.4-0.8,0.2-1.3c0-0.1-0.1-0.2-0.2-0.3
			c-0.1-0.1-0.2-0.2-0.3-0.3c-0.1-0.1-0.2-0.1-0.3-0.2c-0.1-0.1-0.3-0.1-0.4-0.2c-0.2-0.1-0.3-0.1-0.5-0.2c-0.1,0-0.3-0.1-0.5-0.2
			c-0.2-0.1-0.4-0.1-0.6-0.2c-0.3-0.1-0.7-0.2-1-0.4c-0.3-0.1-0.6-0.3-0.8-0.5c-0.3-0.2-0.5-0.5-0.6-0.8c-0.1-0.3-0.2-0.7-0.2-1.1
			c0-0.5,0.1-1.1,0.5-1.5c0.3-0.4,0.7-0.7,1.2-0.9c0.5-0.2,1.1-0.3,1.7-0.3c0.8,0,1.6,0.2,2.3,0.6c0.6,0.4,1.1,1.1,1.2,1.9l-1.4,0.4
			c-0.1-0.5-0.3-0.9-0.7-1.2c-0.4-0.3-0.9-0.4-1.4-0.4c-0.5,0-0.9,0.1-1.3,0.3c-0.4,0.2-0.6,0.6-0.5,1c0,0.2,0,0.4,0.1,0.5
			c0.1,0.1,0.2,0.3,0.3,0.4c0.2,0.1,0.3,0.2,0.5,0.3c0.3,0.1,0.4,0.2,0.6,0.2s0.4,0.1,0.7,0.2c0.1,0,0.1,0,0.1,0
			c0.4,0.1,0.7,0.2,0.9,0.3c0.3,0.1,0.6,0.2,0.8,0.4c0.3,0.1,0.5,0.3,0.7,0.5c0.2,0.2,0.4,0.5,0.5,0.7c0.1,0.3,0.2,0.7,0.2,1
			c0,0.4-0.1,0.9-0.3,1.3c-0.2,0.4-0.4,0.7-0.8,0.9c-0.3,0.2-0.7,0.4-1.1,0.5C-2461,5698.1-2461.4,5698.2-2461.9,5698.2
			L-2461.9,5698.2z M-2453.5,5698.2c-0.8,0-1.5-0.2-2.1-0.7c-0.6-0.5-0.9-1.2-0.8-2c0-0.4,0.1-0.9,0.3-1.3c0.2-0.4,0.4-0.7,0.8-0.9
			c0.4-0.2,0.7-0.4,1.1-0.5c0.5-0.2,1-0.3,1.5-0.3l1.6-0.3c0.6-0.1,0.9-0.4,0.9-0.9c0-0.5-0.2-1.1-0.6-1.4c-0.4-0.3-1-0.5-1.5-0.5
			c-0.5,0-1.1,0.1-1.5,0.4c-0.4,0.3-0.7,0.8-0.7,1.4l-1.5-0.3c0.1-0.8,0.5-1.6,1.2-2.1c0.8-0.5,1.7-0.7,2.6-0.7
			c0.5,0,0.9,0.1,1.4,0.2c0.4,0.1,0.8,0.3,1.2,0.5c0.4,0.3,0.7,0.6,0.8,1c0.2,0.5,0.3,1,0.3,1.6v4c0,0.3,0,0.7,0.2,1
			c0.2,0.2,0.5,0.3,0.8,0.3h0.2v1.2h-0.8c-0.9,0.1-1.7-0.4-1.8-1.3h-0.1C-2451.1,5697.7-2452.2,5698.3-2453.5,5698.2L-2453.5,5698.2
			z M-2453.1,5696.8c0.8,0,1.6-0.3,2.1-0.9c0.6-0.7,0.8-1.6,0.8-2.5l-2.5,0.5c-0.5,0.1-1,0.2-1.5,0.5c-0.3,0.2-0.5,0.6-0.5,1
			c0,0.4,0.1,0.8,0.5,1.1C-2453.9,5696.7-2453.5,5696.8-2453.1,5696.8L-2453.1,5696.8z M-2705.5,5715.8h-5.6v4.5h4.9v1.6h-4.9v4.5
			h5.6v1.6h-7.4v-13.8h7.4V5715.8z M-2698,5718.2c0.9,0,1.8,0.3,2.4,0.9c0.6,0.7,1,1.5,0.9,2.5v6.5h-1.7v-6.1
			c0.1-0.6-0.2-1.3-0.6-1.7c-0.4-0.4-0.9-0.6-1.5-0.6c-0.6,0-1.3,0.2-1.7,0.7c-0.5,0.5-0.7,1.2-0.7,2v5.7h-1.7v-9.6h1.7v1.2
			C-2700.2,5718.7-2699.2,5718.2-2698,5718.2L-2698,5718.2z M-2686.2,5728v-15h1.7v15H-2686.2z M-2680.9,5716.7l2.5-3.2l0.9,0.7
			l-2.2,2.5H-2680.9z M-2681.1,5728v-9.6h1.7v9.6H-2681.1z M-2671.4,5718.2c0.9,0,1.8,0.3,2.4,0.9c0.6,0.7,1,1.5,0.9,2.5v6.5h-1.7
			v-6.1c0.1-0.6-0.2-1.3-0.6-1.7c-0.4-0.4-0.9-0.6-1.5-0.6c-0.6,0-1.3,0.2-1.7,0.7c-0.5,0.5-0.7,1.2-0.7,2v5.7h-1.7v-9.6h1.7v1.2
			C-2673.6,5718.7-2672.6,5718.2-2671.4,5718.2L-2671.4,5718.2z M-2656.5,5723l0,0.5h-7.5c0,0.9,0.3,1.8,0.9,2.5
			c0.6,0.6,1.4,0.9,2.2,0.9c0.6,0,1.1-0.2,1.6-0.5c0.5-0.3,0.9-0.8,1.1-1.3l1.5,0.3c-0.3,0.8-0.9,1.6-1.6,2.1
			c-0.8,0.5-1.6,0.8-2.5,0.8c-1.3,0.1-2.5-0.4-3.5-1.3c-0.9-1-1.4-2.3-1.3-3.6c-0.1-1.3,0.4-2.7,1.3-3.6c0.9-0.9,2.1-1.4,3.4-1.3
			c1.2-0.1,2.4,0.4,3.2,1.2C-2656.8,5720.4-2656.4,5721.7-2656.5,5723L-2656.5,5723z M-2660.9,5719.5c-0.7,0-1.4,0.2-2,0.7
			c-0.6,0.5-0.9,1.2-1,2h5.8c0-0.7-0.3-1.5-0.8-2C-2659.5,5719.7-2660.2,5719.5-2660.9,5719.5L-2660.9,5719.5z M-2651.6,5728.2
			c-0.8,0-1.5-0.2-2.1-0.7c-0.6-0.5-0.9-1.2-0.8-2c0-0.4,0.1-0.9,0.3-1.3c0.2-0.4,0.4-0.7,0.8-0.9c0.4-0.2,0.7-0.4,1.1-0.5
			c0.5-0.2,1-0.3,1.5-0.3l1.6-0.3c0.6-0.1,0.8-0.4,0.8-0.9c0-0.5-0.2-1.1-0.6-1.4c-0.4-0.3-1-0.5-1.5-0.5c-0.5,0-1.1,0.1-1.5,0.4
			c-0.4,0.3-0.7,0.8-0.7,1.3l-1.5-0.3c0.1-0.8,0.5-1.6,1.2-2.1c0.8-0.5,1.7-0.7,2.6-0.7c0.5,0,0.9,0.1,1.4,0.2
			c0.4,0.1,0.8,0.3,1.2,0.5c0.4,0.3,0.7,0.6,0.8,1c0.2,0.5,0.3,1,0.3,1.6v4c0,0.3,0,0.7,0.2,1c0.2,0.2,0.5,0.3,0.8,0.3h0.2v1.2h-0.8
			c-0.9,0.1-1.7-0.4-1.8-1.3h-0.1C-2649.2,5727.7-2650.4,5728.3-2651.6,5728.2L-2651.6,5728.2z M-2651.2,5726.8
			c0.8,0,1.6-0.3,2.1-0.9c0.6-0.7,0.8-1.6,0.8-2.5l-2.5,0.5c-0.5,0.1-1,0.2-1.5,0.5c-0.3,0.2-0.5,0.6-0.5,1c0,0.4,0.1,0.8,0.5,1.1
			C-2652.1,5726.7-2651.6,5726.8-2651.2,5726.8L-2651.2,5726.8z M-2705.5,5745.8h-5.6v4.5h4.9v1.6h-4.9v4.5h5.6v1.6h-7.4v-13.8h7.4
			V5745.8z M-2696.6,5748.4h1.8l-3.9,9.6h-1.4l-3.9-9.6h1.8l2.8,7.6L-2696.6,5748.4z M-2691.9,5746.1c-0.6,0-1.1-0.5-1.1-1.1
			c0-0.3,0.1-0.6,0.3-0.8c0.2-0.2,0.5-0.3,0.8-0.3c0.3,0,0.6,0.1,0.8,0.3c0.2,0.2,0.3,0.5,0.3,0.8c0,0.3-0.1,0.6-0.3,0.8
			C-2691.3,5746-2691.6,5746.1-2691.9,5746.1z M-2692.8,5758v-9.6h1.7v9.6H-2692.8z M-2684.6,5758c-0.7,0-1.4-0.2-1.9-0.7
			c-0.5-0.5-0.7-1.2-0.7-1.9v-5.6h-2v-1.3h0.7c0.4,0,0.8-0.1,1.1-0.3c0.2-0.3,0.3-0.7,0.3-1.1v-1.7h1.6v3.2h2.2v1.3h-2.2v5.5
			c0,0.4,0.1,0.8,0.4,1.1c0.3,0.3,0.6,0.4,1,0.4h0.9v1.3H-2684.6z M-2678.7,5758.2c-0.8,0-1.5-0.2-2.1-0.7c-0.6-0.5-0.9-1.2-0.8-2
			c0-0.4,0.1-0.9,0.3-1.3c0.2-0.4,0.4-0.7,0.8-0.9c0.4-0.2,0.7-0.4,1.1-0.5c0.5-0.2,1-0.3,1.5-0.3l1.6-0.3c0.6-0.1,0.9-0.4,0.9-0.9
			c0-0.5-0.2-1.1-0.6-1.4c-0.4-0.3-1-0.5-1.5-0.5c-0.5,0-1.1,0.1-1.5,0.4c-0.4,0.3-0.7,0.8-0.7,1.3l-1.5-0.3
			c0.1-0.8,0.5-1.6,1.2-2.1c0.8-0.5,1.7-0.7,2.6-0.7c0.5,0,0.9,0.1,1.4,0.2c0.4,0.1,0.8,0.3,1.2,0.5c0.4,0.3,0.7,0.6,0.8,1
			c0.2,0.5,0.3,1,0.3,1.6v4c0,0.3,0,0.7,0.2,1c0.2,0.2,0.5,0.3,0.8,0.3h0.2v1.2h-0.8c-0.9,0.1-1.7-0.4-1.8-1.3h-0.1
			C-2676.3,5757.7-2677.4,5758.3-2678.7,5758.2L-2678.7,5758.2z M-2678.3,5756.8c0.8,0,1.6-0.3,2.1-0.9c0.6-0.7,0.8-1.6,0.8-2.5
			l-2.5,0.5c-0.5,0.1-1,0.2-1.5,0.5c-0.3,0.2-0.5,0.6-0.5,1c0,0.4,0.1,0.8,0.5,1.1C-2679.1,5756.7-2678.7,5756.8-2678.3,5756.8
			L-2678.3,5756.8z M-2668.8,5750.1c0.3-0.5,0.7-1,1.2-1.3c0.6-0.3,1.2-0.5,1.8-0.5v1.6c-0.8-0.1-1.6,0.2-2.2,0.7
			c-0.6,0.6-0.8,1.4-0.8,2.3v5.1h-1.7v-9.6h1.6V5750.1z M-2650.1,5753l0,0.5h-7.5c0,0.9,0.3,1.8,0.9,2.5c0.6,0.6,1.4,0.9,2.2,0.9
			c0.6,0,1.1-0.2,1.6-0.5c0.5-0.3,0.9-0.8,1.1-1.3l1.5,0.3c-0.3,0.8-0.9,1.6-1.6,2.1c-0.8,0.5-1.6,0.8-2.5,0.8
			c-1.3,0.1-2.5-0.4-3.5-1.3c-1.8-2.1-1.8-5.2,0-7.3c0.9-0.9,2.1-1.4,3.4-1.3c1.2-0.1,2.4,0.4,3.2,1.2
			C-2650.5,5750.4-2650.1,5751.7-2650.1,5753L-2650.1,5753z M-2654.6,5749.5c-0.7,0-1.4,0.2-2,0.7c-0.6,0.5-0.9,1.2-1,2h5.8
			c0-0.7-0.3-1.5-0.8-2C-2653.2,5749.7-2653.9,5749.5-2654.6,5749.5L-2654.6,5749.5z M-2647.5,5758v-15h1.7v15H-2647.5z
			 M-2630.1,5743h1.7v15h-1.6l0-1.9c-0.3,0.6-0.8,1.2-1.4,1.5c-0.6,0.4-1.3,0.6-2,0.6c-1.2,0-2.3-0.5-3.2-1.4c-0.4-0.5-0.8-1-1-1.6
			c-0.2-0.7-0.4-1.4-0.4-2.1c-0.1-1.3,0.4-2.6,1.3-3.6c0.8-0.9,2-1.4,3.2-1.4c0.7,0,1.4,0.2,2,0.5c0.6,0.3,1.1,0.9,1.4,1.5
			L-2630.1,5743z M-2633.1,5756.7c0.9,0,1.7-0.4,2.2-1c1.2-1.5,1.2-3.6,0-5c-0.6-0.7-1.4-1-2.2-1c-0.9,0-1.7,0.3-2.2,1
			c-1.2,1.5-1.2,3.6,0,5.1C-2634.8,5756.4-2634,5756.8-2633.1,5756.7z M-2616.5,5753l0,0.5h-7.5c0,0.9,0.3,1.8,0.9,2.5
			c0.6,0.6,1.4,0.9,2.2,0.9c0.6,0,1.1-0.2,1.6-0.5c0.5-0.3,0.9-0.8,1.1-1.3l1.5,0.3c-0.3,0.8-0.9,1.6-1.6,2.1
			c-0.8,0.5-1.6,0.8-2.5,0.8c-1.3,0.1-2.5-0.4-3.5-1.3c-1.8-2.1-1.8-5.2,0-7.3c0.9-0.9,2.1-1.4,3.4-1.3c1.2-0.1,2.4,0.4,3.2,1.2
			C-2616.9,5750.4-2616.5,5751.7-2616.5,5753L-2616.5,5753z M-2621,5749.5c-0.7,0-1.4,0.2-2,0.7c-0.6,0.5-0.9,1.2-1,2h5.8
			c0-0.7-0.3-1.5-0.8-2C-2619.6,5749.7-2620.3,5749.5-2621,5749.5L-2621,5749.5z M-2610.9,5758.2c-0.9,0-1.8-0.2-2.6-0.7
			c-0.7-0.4-1.1-1.2-1.3-2l1.5-0.4c0.1,0.5,0.4,1,0.8,1.3c0.5,0.3,1,0.5,1.6,0.5c0.3,0,0.6,0,0.9-0.1c0.3-0.1,0.5-0.2,0.7-0.5
			c0.3-0.4,0.4-0.8,0.2-1.3c0-0.1-0.1-0.2-0.2-0.3c-0.1-0.1-0.2-0.2-0.3-0.3c-0.1-0.1-0.2-0.1-0.3-0.2c-0.1-0.1-0.3-0.1-0.4-0.2
			c-0.2-0.1-0.3-0.1-0.5-0.2c-0.1,0-0.3-0.1-0.5-0.2c-0.2-0.1-0.4-0.1-0.6-0.2c-0.3-0.1-0.7-0.2-1-0.4c-0.3-0.1-0.6-0.3-0.8-0.5
			c-0.3-0.2-0.5-0.5-0.6-0.8c-0.1-0.3-0.2-0.7-0.2-1.1c0-0.5,0.1-1.1,0.5-1.5c0.3-0.4,0.7-0.7,1.2-0.9c0.5-0.2,1.1-0.3,1.7-0.3
			c0.8,0,1.6,0.2,2.3,0.6c0.6,0.4,1.1,1.1,1.2,1.9l-1.4,0.4c-0.1-0.5-0.3-0.9-0.7-1.2c-0.4-0.3-0.9-0.4-1.4-0.4
			c-0.5,0-0.9,0.1-1.3,0.3c-0.4,0.2-0.6,0.6-0.5,1c0,0.2,0,0.4,0.1,0.5c0.1,0.1,0.2,0.3,0.3,0.4c0.2,0.1,0.3,0.2,0.5,0.3
			c0.3,0.1,0.4,0.2,0.6,0.2c0.1,0,0.4,0.1,0.7,0.2c0.1,0,0.1,0,0.1,0c0.4,0.1,0.7,0.2,0.9,0.3c0.3,0.1,0.6,0.2,0.8,0.4
			c0.3,0.1,0.5,0.3,0.7,0.5c0.2,0.2,0.4,0.5,0.5,0.7c0.1,0.3,0.2,0.7,0.2,1c0,0.4-0.1,0.9-0.3,1.3c-0.2,0.4-0.4,0.7-0.8,0.9
			c-0.3,0.2-0.7,0.4-1.1,0.5C-2610,5758.1-2610.4,5758.2-2610.9,5758.2L-2610.9,5758.2z M-2599.6,5748.2c0.6,0,1.2,0.1,1.7,0.4
			c0.5,0.2,1,0.6,1.4,1c0.4,0.5,0.8,1,1,1.6c0.2,0.7,0.4,1.4,0.4,2.1c0.1,1.3-0.4,2.6-1.3,3.6c-0.8,0.9-2,1.4-3.2,1.4
			c-0.7,0-1.4-0.2-2-0.5c-0.6-0.4-1.1-0.9-1.4-1.5v6.6h-1.7v-14.4h1.6l0,1.9c0.3-0.6,0.8-1.1,1.4-1.5
			C-2601,5748.4-2600.3,5748.2-2599.6,5748.2L-2599.6,5748.2z M-2599.9,5756.7c0.8,0,1.7-0.3,2.2-1c1.2-1.5,1.2-3.6,0-5.1
			c-1.1-1.2-3.1-1.3-4.3-0.2c-0.1,0.1-0.1,0.1-0.2,0.2c-1.2,1.5-1.2,3.6,0,5C-2601.6,5756.4-2600.8,5756.8-2599.9,5756.7
			L-2599.9,5756.7z M-2592.5,5758v-15h1.7v15L-2592.5,5758z M-2585.1,5758.2c-0.8,0-1.5-0.2-2.1-0.7c-0.6-0.5-0.9-1.2-0.8-2
			c0-0.4,0.1-0.9,0.3-1.3c0.2-0.4,0.4-0.7,0.8-0.9c0.4-0.2,0.7-0.4,1.1-0.5c0.5-0.2,1-0.3,1.5-0.3l1.6-0.3c0.6-0.1,0.9-0.4,0.9-0.9
			c0-0.5-0.2-1.1-0.6-1.4c-0.4-0.3-1-0.5-1.5-0.5c-0.5,0-1.1,0.1-1.5,0.4c-0.4,0.3-0.7,0.8-0.7,1.3l-1.5-0.3
			c0.1-0.8,0.5-1.6,1.2-2.1c0.8-0.5,1.7-0.7,2.6-0.7c0.5,0,0.9,0.1,1.4,0.2c0.4,0.1,0.8,0.3,1.2,0.5c0.4,0.3,0.7,0.6,0.8,1
			c0.2,0.5,0.3,1,0.3,1.6v4c0,0.3,0,0.7,0.2,1c0.2,0.2,0.5,0.3,0.8,0.3h0.2v1.2h-0.8c-0.9,0.1-1.7-0.4-1.8-1.3h-0.1
			C-2582.7,5757.7-2583.9,5758.3-2585.1,5758.2L-2585.1,5758.2z M-2584.7,5756.8c0.8,0,1.6-0.3,2.1-0.9c0.6-0.7,0.8-1.6,0.8-2.5
			l-2.5,0.5c-0.5,0.1-1,0.2-1.5,0.5c-0.3,0.2-0.5,0.6-0.5,1c0,0.4,0.1,0.8,0.5,1.1C-2585.6,5756.7-2585.1,5756.8-2584.7,5756.8
			L-2584.7,5756.8z M-2575.5,5756.6h5.1v1.4h-7.7l5.1-8.2h-4.8v-1.4h7.4L-2575.5,5756.6z M-2566.2,5758.2c-0.8,0-1.5-0.2-2.1-0.7
			c-0.6-0.5-0.9-1.2-0.8-2c0-0.4,0.1-0.9,0.3-1.3c0.2-0.4,0.4-0.7,0.8-0.9c0.4-0.2,0.7-0.4,1.1-0.5c0.5-0.2,1-0.3,1.5-0.3l1.6-0.3
			c0.6-0.1,0.9-0.4,0.9-0.9c0-0.5-0.2-1.1-0.6-1.4c-0.4-0.3-1-0.5-1.5-0.5c-0.5,0-1.1,0.1-1.5,0.4c-0.4,0.3-0.7,0.8-0.7,1.3
			l-1.5-0.3c0.1-0.8,0.5-1.6,1.2-2.1c0.8-0.5,1.7-0.7,2.6-0.7c0.5,0,0.9,0.1,1.4,0.2c0.4,0.1,0.8,0.3,1.2,0.5c0.4,0.3,0.7,0.6,0.8,1
			c0.2,0.5,0.3,1,0.3,1.6v4c0,0.3,0,0.7,0.2,1c0.2,0.2,0.5,0.3,0.8,0.3h0.2v1.2h-0.8c-0.9,0.1-1.7-0.4-1.8-1.3h-0.1
			C-2563.7,5757.7-2564.9,5758.3-2566.2,5758.2L-2566.2,5758.2z M-2565.8,5756.8c0.8,0,1.6-0.3,2.1-0.9c0.6-0.7,0.8-1.6,0.8-2.5
			l-2.5,0.5c-0.5,0.1-1,0.2-1.5,0.5c-0.3,0.2-0.5,0.6-0.5,1c0,0.4,0.1,0.8,0.5,1.1C-2566.6,5756.7-2566.2,5756.8-2565.8,5756.8
			L-2565.8,5756.8z M-2548.1,5748.2c0.8,0,1.6,0.3,2.2,0.8c0.6,0.6,0.9,1.4,0.9,2.3v6.7h-1.7v-6.2c0-0.6-0.1-1.1-0.5-1.6
			c-0.4-0.4-0.8-0.6-1.3-0.5c-0.6,0-1.1,0.2-1.5,0.6c-0.4,0.5-0.6,1.2-0.6,1.8v5.9h-1.7v-6.2c0-0.6-0.1-1.2-0.5-1.6
			c-0.4-0.4-0.9-0.6-1.4-0.6c-0.6,0-1.1,0.2-1.5,0.6c-0.4,0.5-0.6,1.2-0.6,1.9v5.9h-1.7v-9.6h1.7v1.2c0.3-0.4,0.6-0.8,1.1-1.1
			c0.5-0.3,1-0.4,1.5-0.4c0.6,0,1.1,0.1,1.6,0.4c0.5,0.3,0.8,0.7,1.1,1.2c0.3-0.5,0.7-0.9,1.2-1.2
			C-2549.2,5748.3-2548.7,5748.2-2548.1,5748.2L-2548.1,5748.2z M-2540.9,5746.1c-0.6,0-1.1-0.5-1.1-1.1c0-0.3,0.1-0.6,0.3-0.8
			c0.2-0.2,0.5-0.3,0.8-0.3c0.3,0,0.6,0.1,0.8,0.3c0.2,0.2,0.3,0.5,0.3,0.8c0,0.3-0.1,0.6-0.3,0.8
			C-2540.3,5746-2540.6,5746.1-2540.9,5746.1L-2540.9,5746.1z M-2541.7,5758v-9.6h1.7v9.6H-2541.7z M-2528.2,5753l0,0.5h-7.5
			c0,0.9,0.3,1.8,0.9,2.5c0.6,0.6,1.4,0.9,2.2,0.9c0.6,0,1.1-0.2,1.6-0.5c0.5-0.3,0.9-0.8,1.1-1.3l1.5,0.3c-0.3,0.8-0.9,1.6-1.6,2.1
			c-0.8,0.5-1.6,0.8-2.5,0.8c-1.3,0.1-2.5-0.4-3.5-1.3c-1.8-2.1-1.8-5.2,0-7.3c0.9-0.9,2.1-1.4,3.4-1.3c1.2-0.1,2.4,0.4,3.2,1.2
			C-2528.5,5750.4-2528.1,5751.7-2528.2,5753L-2528.2,5753z M-2532.6,5749.5c-0.7,0-1.4,0.2-2,0.7c-0.6,0.5-0.9,1.2-1,2h5.8
			c0-0.7-0.3-1.5-0.8-2C-2531.3,5749.7-2531.9,5749.5-2532.6,5749.5L-2532.6,5749.5z M-2521,5748.2c0.9,0,1.8,0.3,2.4,0.9
			c0.6,0.7,1,1.5,0.9,2.5v6.5h-1.7v-6.1c0.1-0.6-0.2-1.3-0.6-1.7c-0.4-0.4-0.9-0.6-1.5-0.6c-0.6,0-1.3,0.2-1.7,0.7
			c-0.5,0.5-0.7,1.2-0.7,2v5.7h-1.7v-9.6h1.7v1.2C-2523.2,5748.7-2522.1,5748.2-2521,5748.2L-2521,5748.2z M-2511.4,5758
			c-0.7,0-1.4-0.2-1.9-0.7c-0.5-0.5-0.7-1.2-0.7-1.9v-5.6h-2v-1.3h0.7c0.4,0,0.8-0.1,1.1-0.3c0.2-0.3,0.3-0.7,0.3-1.1v-1.7h1.6v3.2
			h2.2v1.3h-2.2v5.5c0,0.4,0.1,0.8,0.4,1.1c0.3,0.3,0.6,0.4,1,0.4h0.9v1.3H-2511.4z M-2503.7,5758.2c-0.9,0-1.7-0.2-2.5-0.6
			c-0.7-0.4-1.3-1-1.7-1.7c-0.4-0.8-0.7-1.7-0.6-2.7c-0.1-1.3,0.4-2.7,1.4-3.6c2-1.8,5-1.8,6.9,0c1.8,2.1,1.8,5.2,0,7.2
			C-2501.1,5757.7-2502.4,5758.2-2503.7,5758.2L-2503.7,5758.2z M-2503.7,5756.8c0.9,0,1.7-0.3,2.3-1c1.2-1.5,1.2-3.7,0-5.2
			c-0.6-0.6-1.4-1-2.3-1c-0.9,0-1.7,0.3-2.3,1c-1.2,1.5-1.2,3.7,0,5.2C-2505.3,5756.4-2504.5,5756.8-2503.7,5756.8L-2503.7,5756.8z
			 M-2485.1,5748.4h1.8l-5.6,14.1h-1.7l1.9-4.8l-3.7-9.4h1.9l2.7,7.5L-2485.1,5748.4z M-2471.6,5744.4h-0.4c-0.1,0-0.2,0-0.4,0
			c-0.1,0-0.2,0-0.4,0c-0.1,0-0.2,0.1-0.3,0.1c-0.1,0-0.2,0.1-0.3,0.2c-0.1,0.1-0.1,0.1-0.2,0.2c-0.1,0.1-0.2,0.2-0.2,0.4
			c0,0.2-0.1,0.3-0.1,0.5c0,0.2,0,0.4,0,0.6v2h2.2v1.3h-2.2v8.3h-1.7v-8.3h-1.9v-1.3h1.9v-2c0-0.4,0-0.8,0.1-1.1
			c0.1-0.3,0.1-0.6,0.3-0.8c0.1-0.2,0.3-0.4,0.5-0.6c0.2-0.2,0.4-0.3,0.6-0.4c0.2-0.1,0.5-0.2,0.7-0.2c0.3-0.1,0.5-0.1,0.8-0.1
			c0.3,0,0.6,0,0.9,0L-2471.6,5744.4z M-2465.8,5758.2c-0.9,0-1.7-0.2-2.5-0.6c-0.7-0.4-1.3-1-1.7-1.7c-0.4-0.8-0.7-1.7-0.6-2.7
			c-0.1-1.3,0.4-2.6,1.4-3.6c2-1.8,5-1.8,6.9,0c1.8,2.1,1.8,5.2,0,7.2C-2463.2,5757.7-2464.5,5758.2-2465.8,5758.2L-2465.8,5758.2z
			 M-2465.8,5756.8c0.9,0,1.7-0.3,2.3-1c1.2-1.5,1.2-3.7,0-5.2c-0.6-0.6-1.4-1-2.3-1c-0.9,0-1.7,0.3-2.3,1c-1.2,1.5-1.2,3.7,0,5.2
			C-2467.5,5756.4-2466.6,5756.8-2465.8,5756.8L-2465.8,5756.8z M-2454.3,5758.2c-1.3,0-2.5-0.5-3.4-1.4c-1.8-2.1-1.8-5.1,0-7.2
			c1.7-1.6,4.3-1.8,6.2-0.5c0.8,0.6,1.4,1.4,1.6,2.3l-1.6,0.3c-0.2-0.6-0.6-1.1-1.1-1.5c-0.5-0.4-1.1-0.5-1.7-0.5
			c-0.9,0-1.7,0.3-2.2,1c-1.2,1.5-1.2,3.6,0,5.2c0.6,0.6,1.4,1,2.2,1c0.6,0,1.2-0.2,1.7-0.5c0.5-0.4,0.9-0.9,1.1-1.5l1.6,0.3
			c-0.3,0.9-0.8,1.8-1.6,2.3C-2452.3,5757.9-2453.3,5758.2-2454.3,5758.2L-2454.3,5758.2z M-2443.4,5758.2c-0.9,0-1.7-0.2-2.5-0.6
			c-0.7-0.4-1.3-1-1.7-1.7c-0.4-0.8-0.7-1.7-0.6-2.7c-0.1-1.3,0.4-2.6,1.4-3.6c2-1.8,5-1.8,6.9,0c1.8,2.1,1.8,5.2,0,7.2
			C-2440.8,5757.7-2442.1,5758.2-2443.4,5758.2L-2443.4,5758.2z M-2443.4,5756.8c0.9,0,1.7-0.3,2.3-1c1.2-1.5,1.2-3.7,0-5.2
			c-0.6-0.6-1.4-1-2.3-1c-0.9,0-1.7,0.3-2.3,1c-1.2,1.5-1.2,3.7,0,5.2C-2445.1,5756.4-2444.2,5756.8-2443.4,5756.8L-2443.4,5756.8z
			 M-2423.6,5743h1.7v15h-1.6l0-1.9c-0.3,0.6-0.8,1.2-1.4,1.5c-0.6,0.4-1.3,0.6-2,0.6c-1.2,0-2.3-0.5-3.2-1.4c-0.4-0.5-0.8-1-1-1.6
			c-0.2-0.7-0.4-1.4-0.4-2.1c-0.1-1.3,0.4-2.6,1.3-3.6c0.8-0.9,2-1.4,3.2-1.4c0.7,0,1.4,0.2,2,0.5c0.6,0.3,1.1,0.9,1.4,1.5
			L-2423.6,5743z M-2426.6,5756.7c0.9,0,1.7-0.4,2.2-1c1.2-1.5,1.2-3.6,0-5c-0.6-0.7-1.4-1-2.2-1c-0.9,0-1.7,0.3-2.2,1
			c-1.2,1.5-1.2,3.6,0,5.1C-2428.3,5756.4-2427.5,5756.8-2426.6,5756.7L-2426.6,5756.7z M-2410.1,5753l0,0.5h-7.5
			c0,0.9,0.3,1.8,0.9,2.5c0.6,0.6,1.4,0.9,2.2,0.9c0.6,0,1.1-0.2,1.6-0.5c0.5-0.3,0.9-0.8,1.1-1.3l1.5,0.3c-0.3,0.8-0.9,1.6-1.6,2.1
			c-0.8,0.5-1.6,0.8-2.5,0.8c-1.3,0.1-2.5-0.4-3.5-1.3c-1.8-2.1-1.8-5.2,0-7.3c0.9-0.9,2.1-1.4,3.4-1.3c1.2-0.1,2.4,0.4,3.2,1.2
			C-2410.4,5750.4-2410,5751.7-2410.1,5753L-2410.1,5753z M-2414.5,5749.5c-0.7,0-1.4,0.2-2,0.7c-0.6,0.5-0.9,1.2-1,2h5.8
			c0-0.7-0.3-1.5-0.8-2C-2413.1,5749.7-2413.8,5749.5-2414.5,5749.5L-2414.5,5749.5z M-2398.2,5758.2c-1.3,0-2.5-0.5-3.4-1.4
			c-1.8-2.1-1.8-5.1,0-7.2c1.7-1.6,4.3-1.8,6.2-0.5c0.8,0.6,1.4,1.4,1.6,2.3l-1.6,0.3c-0.2-0.6-0.6-1.1-1.1-1.5
			c-0.5-0.4-1.1-0.5-1.7-0.5c-0.9,0-1.7,0.3-2.2,1c-1.2,1.5-1.2,3.6,0,5.2c0.6,0.6,1.4,1,2.2,1c0.6,0,1.2-0.2,1.7-0.5
			c0.5-0.4,0.9-0.9,1.1-1.5l1.6,0.3c-0.3,0.9-0.8,1.8-1.6,2.3C-2396.3,5757.9-2397.3,5758.2-2398.2,5758.2L-2398.2,5758.2z
			 M-2387.3,5758.2c-0.9,0-1.7-0.2-2.5-0.6c-0.7-0.4-1.3-1-1.7-1.7c-0.4-0.8-0.7-1.7-0.6-2.7c-0.1-1.3,0.4-2.7,1.4-3.6
			c2-1.8,5-1.8,6.9,0c1.8,2.1,1.8,5.2,0,7.2C-2384.8,5757.7-2386,5758.2-2387.3,5758.2L-2387.3,5758.2z M-2387.3,5756.8
			c0.9,0,1.7-0.3,2.3-1c1.2-1.5,1.2-3.7,0-5.2c-0.6-0.6-1.4-1-2.3-1c-0.9,0-1.7,0.3-2.3,1c-1.2,1.5-1.2,3.7,0,5.2
			C-2389,5756.4-2388.2,5756.8-2387.3,5756.8L-2387.3,5756.8z M-2375.3,5748.2c0.9,0,1.8,0.3,2.4,0.9c0.6,0.7,1,1.5,0.9,2.5v6.5
			h-1.7v-6.1c0.1-0.6-0.2-1.3-0.6-1.7c-0.4-0.4-0.9-0.6-1.5-0.6c-0.6,0-1.3,0.2-1.7,0.7c-0.5,0.5-0.7,1.2-0.7,2v5.7h-1.7v-9.6h1.7
			v1.2C-2377.5,5748.7-2376.4,5748.2-2375.3,5748.2L-2375.3,5748.2z M-2365.7,5758c-0.7,0-1.4-0.2-1.9-0.7c-0.5-0.5-0.7-1.2-0.7-1.9
			v-5.6h-2v-1.3h0.7c0.4,0,0.8-0.1,1.1-0.3c0.2-0.3,0.3-0.7,0.3-1.1v-1.7h1.6v3.2h2.2v1.3h-2.2v5.5c0,0.4,0.1,0.8,0.4,1.1
			c0.3,0.3,0.6,0.4,1,0.4h0.9v1.3H-2365.7z M-2359.8,5758.2c-0.8,0-1.5-0.2-2.1-0.7c-0.6-0.5-0.9-1.2-0.8-2c0-0.4,0.1-0.9,0.3-1.3
			c0.2-0.4,0.4-0.7,0.8-0.9c0.4-0.2,0.7-0.4,1.1-0.5c0.5-0.2,1-0.3,1.5-0.3l1.6-0.3c0.6-0.1,0.8-0.4,0.8-0.9c0-0.5-0.2-1.1-0.6-1.4
			c-0.4-0.3-1-0.5-1.5-0.5c-0.5,0-1.1,0.1-1.5,0.4c-0.4,0.3-0.7,0.8-0.7,1.3l-1.5-0.3c0.1-0.8,0.5-1.6,1.2-2.1
			c0.8-0.5,1.7-0.7,2.6-0.7c0.5,0,0.9,0.1,1.4,0.2c0.4,0.1,0.8,0.3,1.2,0.5c0.4,0.3,0.7,0.6,0.8,1c0.2,0.5,0.3,1,0.3,1.6v4
			c0,0.3,0,0.7,0.2,1c0.2,0.2,0.5,0.3,0.8,0.3h0.2v1.2h-0.8c-0.9,0.1-1.7-0.4-1.8-1.3h-0.1
			C-2357.4,5757.7-2358.5,5758.3-2359.8,5758.2z M-2359.4,5756.8c0.8,0,1.6-0.3,2.1-0.9c0.6-0.7,0.8-1.6,0.8-2.5l-2.5,0.5
			c-0.5,0.1-1,0.2-1.5,0.5c-0.3,0.2-0.5,0.6-0.5,1c0,0.4,0.1,0.8,0.5,1.1C-2360.2,5756.7-2359.8,5756.8-2359.4,5756.8
			L-2359.4,5756.8z M-2341.7,5748.2c0.8,0,1.6,0.3,2.2,0.8c0.6,0.6,0.9,1.4,0.8,2.3v6.7h-1.7v-6.2c0-0.6-0.1-1.1-0.5-1.6
			c-0.4-0.4-0.8-0.6-1.3-0.5c-0.6,0-1.1,0.2-1.5,0.6c-0.4,0.5-0.6,1.2-0.6,1.8v5.9h-1.7v-6.2c0-0.6-0.1-1.2-0.5-1.6
			c-0.4-0.4-0.9-0.6-1.4-0.6c-0.6,0-1.1,0.2-1.5,0.6c-0.4,0.5-0.6,1.2-0.6,1.9v5.9h-1.7v-9.6h1.7v1.2c0.3-0.4,0.6-0.8,1.1-1.1
			c0.5-0.3,1-0.4,1.5-0.4c0.6,0,1.1,0.1,1.6,0.4c0.5,0.3,0.8,0.7,1.1,1.2c0.3-0.5,0.7-0.9,1.2-1.2
			C-2342.8,5748.3-2342.3,5748.2-2341.7,5748.2L-2341.7,5748.2z M-2334.5,5746.1c-0.6,0-1.1-0.5-1.1-1.1c0-0.3,0.1-0.6,0.3-0.8
			c0.2-0.2,0.5-0.3,0.8-0.3c0.3,0,0.6,0.1,0.8,0.3c0.2,0.2,0.3,0.5,0.3,0.8c0,0.3-0.1,0.6-0.3,0.8
			C-2333.9,5746-2334.2,5746.1-2334.5,5746.1L-2334.5,5746.1z M-2335.3,5758v-9.6h1.7v9.6H-2335.3z M-2325.7,5748.2
			c0.9,0,1.8,0.3,2.4,0.9c0.6,0.7,1,1.5,0.9,2.5v6.5h-1.7v-6.1c0.1-0.6-0.2-1.3-0.6-1.7c-0.4-0.4-0.9-0.6-1.5-0.6
			c-0.6,0-1.3,0.2-1.7,0.7c-0.5,0.5-0.7,1.2-0.7,2v5.7h-1.7v-9.6h1.7v1.2C-2327.9,5748.7-2326.8,5748.2-2325.7,5748.2z
			 M-2316.9,5758.2c-0.8,0-1.5-0.2-2.1-0.7c-0.6-0.5-0.9-1.2-0.8-2c0-0.4,0.1-0.9,0.3-1.3c0.2-0.4,0.4-0.7,0.8-0.9
			c0.3-0.2,0.7-0.4,1.1-0.5c0.5-0.2,1-0.3,1.5-0.3l1.6-0.3c0.6-0.1,0.9-0.4,0.9-0.9c0-0.5-0.2-1.1-0.6-1.4c-0.4-0.3-1-0.5-1.5-0.5
			c-0.5,0-1.1,0.1-1.5,0.4c-0.4,0.3-0.7,0.8-0.7,1.3l-1.5-0.3c0.1-0.8,0.5-1.6,1.2-2.1c0.8-0.5,1.7-0.7,2.6-0.7
			c0.5,0,0.9,0.1,1.4,0.2c0.4,0.1,0.8,0.3,1.2,0.5c0.4,0.3,0.7,0.6,0.8,1c0.2,0.5,0.3,1,0.3,1.6v4c0,0.3,0,0.7,0.2,1
			c0.2,0.2,0.5,0.3,0.8,0.3h0.1v1.2h-0.8c-0.9,0.1-1.7-0.4-1.8-1.3h-0.1C-2314.5,5757.7-2315.6,5758.2-2316.9,5758.2L-2316.9,5758.2
			z M-2316.5,5756.8c0.8,0,1.6-0.3,2.1-0.9c0.6-0.7,0.8-1.6,0.8-2.5l-2.5,0.5c-0.5,0.1-1,0.2-1.5,0.5c-0.3,0.2-0.5,0.6-0.5,1
			c0,0.4,0.1,0.8,0.5,1.1C-2317.3,5756.7-2316.9,5756.8-2316.5,5756.8L-2316.5,5756.8z M-2304.8,5758.2c-1.3,0-2.5-0.5-3.4-1.4
			c-1.8-2.1-1.8-5.1,0-7.2c1.7-1.6,4.3-1.8,6.2-0.5c0.8,0.6,1.4,1.4,1.6,2.3l-1.6,0.3c-0.2-0.6-0.6-1.1-1.1-1.5
			c-0.5-0.4-1.1-0.5-1.7-0.5c-0.9,0-1.7,0.3-2.2,1c-1.2,1.5-1.2,3.6,0,5.2c0.6,0.6,1.4,1,2.2,1c0.6,0,1.2-0.2,1.7-0.5
			c0.5-0.4,0.9-0.9,1.1-1.5l1.6,0.3c-0.3,0.9-0.8,1.8-1.6,2.3C-2302.9,5757.9-2303.8,5758.2-2304.8,5758.2L-2304.8,5758.2z
			 M-2297.1,5746.1c-0.6,0-1.1-0.5-1.1-1.1c0-0.3,0.1-0.6,0.3-0.8c0.2-0.2,0.5-0.3,0.8-0.3c0.3,0,0.6,0.1,0.8,0.3
			c0.2,0.2,0.3,0.5,0.3,0.8c0,0.3-0.1,0.6-0.3,0.8C-2296.5,5746-2296.8,5746.1-2297.1,5746.1L-2297.1,5746.1z M-2297.9,5758v-9.6
			h1.7v9.6H-2297.9z M-2289.4,5746.8l2.5-3.2l0.9,0.7l-2.2,2.5L-2289.4,5746.8z M-2288.8,5758.2c-0.9,0-1.7-0.2-2.5-0.6
			c-0.7-0.4-1.3-1-1.7-1.7c-0.4-0.8-0.7-1.7-0.6-2.7c-0.1-1.3,0.4-2.7,1.4-3.6c2-1.8,5-1.8,6.9,0c1.8,2.1,1.8,5.2,0,7.2
			C-2286.2,5757.7-2287.5,5758.2-2288.8,5758.2L-2288.8,5758.2z M-2288.8,5756.8c0.9,0,1.7-0.3,2.3-1c1.2-1.5,1.2-3.7,0-5.2
			c-0.6-0.6-1.4-1-2.3-1c-0.9,0-1.7,0.3-2.3,1c-1.2,1.5-1.2,3.7,0,5.2C-2290.4,5756.4-2289.6,5756.8-2288.8,5756.8L-2288.8,5756.8z
			 M-2276.7,5748.2c0.9,0,1.8,0.3,2.4,0.9c0.6,0.7,1,1.5,0.9,2.5v6.5h-1.7v-6.1c0.1-0.6-0.2-1.2-0.6-1.7c-0.4-0.4-0.9-0.6-1.5-0.6
			c-0.6,0-1.3,0.2-1.7,0.7c-0.5,0.5-0.7,1.2-0.7,2v5.7h-1.7v-9.6h1.7v1.2C-2279,5748.7-2277.9,5748.2-2276.7,5748.2L-2276.7,5748.2z
			"/>
		<path id="Trazado_35393" class="st4" d="M-2705,5803.5h-5.2v3.2h4.6v2.5h-4.6v3.2h5.2v2.6h-8.2v-14.1h8.2V5803.5z M-2696.4,5804.8
			c1-0.1,2,0.3,2.8,0.9c0.7,0.7,1,1.6,1,2.6v6.8h-2.8v-6.2c0-0.5-0.1-1-0.5-1.4c-0.4-0.3-0.8-0.5-1.3-0.4c-0.3,0-0.6,0-0.8,0.1
			c-0.3,0.1-0.5,0.2-0.7,0.4c-0.2,0.2-0.4,0.5-0.5,0.8c-0.1,0.4-0.2,0.8-0.2,1.2v5.5h-2.8v-10h2.8v1.1
			C-2698.7,5805.2-2697.6,5804.7-2696.4,5804.8L-2696.4,5804.8z M-2680.2,5815.2c-1.4,0.1-2.8-0.5-3.9-1.4c-1-1-1.6-2.4-1.5-3.8
			c-0.1-1.4,0.5-2.8,1.5-3.8c1.1-1,2.4-1.5,3.9-1.4c1.2,0,2.3,0.3,3.3,1c0.9,0.7,1.5,1.6,1.7,2.7l-2.6,0.3c-0.1-0.5-0.4-1-0.8-1.3
			c-0.4-0.3-1-0.5-1.5-0.4c-0.7,0-1.4,0.3-1.8,0.8c-0.5,0.6-0.7,1.4-0.7,2.2c0,0.8,0.2,1.6,0.7,2.2c0.5,0.5,1.1,0.8,1.8,0.8
			c0.5,0,1.1-0.1,1.5-0.4c0.4-0.3,0.7-0.8,0.8-1.3l2.6,0.3c-0.2,1.1-0.8,2.1-1.7,2.7C-2677.9,5814.9-2679.1,5815.2-2680.2,5815.2
			L-2680.2,5815.2z M-2665.1,5812.3c0,0.8,0.1,1.6,0.2,2.5v0.3h-2.6l-0.2-1.1c-0.4,0.4-0.9,0.8-1.4,1c-0.6,0.2-1.2,0.3-1.8,0.3
			c-0.3,0-0.6,0-0.9-0.1c-0.3-0.1-0.6-0.2-0.8-0.3c-0.3-0.1-0.5-0.3-0.7-0.5c-0.2-0.2-0.4-0.5-0.5-0.8c-0.1-0.3-0.2-0.7-0.2-1.1
			c0-0.4,0.1-0.7,0.2-1.1c0.1-0.3,0.3-0.6,0.5-0.8c0.2-0.2,0.5-0.4,0.8-0.6c0.3-0.2,0.7-0.3,1-0.4c0.4-0.1,0.8-0.2,1.2-0.3l1.6-0.4
			c0.3,0,0.5-0.2,0.7-0.3c0.1-0.1,0.2-0.3,0.2-0.5c0-0.4-0.2-0.8-0.5-1c-0.4-0.2-0.8-0.3-1.2-0.3c-0.9-0.1-1.8,0.5-2,1.5
			c0,0,0,0.1,0,0.1l-2.5-0.4c0.1-0.9,0.7-1.8,1.5-2.3c1-0.5,2.1-0.8,3.2-0.7c2.8,0,4.2,1.2,4.2,3.6L-2665.1,5812.3z M-2670,5813.3
			c0.7,0,1.3-0.2,1.7-0.7c0.5-0.6,0.7-1.4,0.7-2.2l-2.4,0.7c-0.4,0.1-0.7,0.2-1,0.4c-0.2,0.2-0.4,0.4-0.3,0.7c0,0.3,0.1,0.6,0.4,0.8
			C-2670.7,5813.2-2670.3,5813.3-2670,5813.3z M-2658.8,5815.2c-1,0-2-0.2-2.9-0.7c-0.8-0.4-1.3-1.2-1.4-2.1l2.4-0.7
			c0.2,0.9,1.1,1.6,2,1.5c0.4,0,0.7-0.1,1-0.2c0.3-0.2,0.4-0.5,0.4-0.8c0-0.2-0.1-0.4-0.2-0.5c-0.1-0.2-0.3-0.3-0.5-0.4
			c-0.2-0.1-0.5-0.2-0.7-0.3c-0.2-0.1-0.5-0.2-0.9-0.3s-0.7-0.2-0.9-0.3c-0.3-0.1-0.6-0.2-0.9-0.4c-0.3-0.1-0.5-0.3-0.7-0.5
			c-0.2-0.2-0.4-0.5-0.5-0.8c-0.1-0.3-0.2-0.7-0.2-1.1c0-0.9,0.4-1.7,1.1-2.2c0.8-0.5,1.8-0.8,2.8-0.8c0.9,0,1.8,0.2,2.6,0.6
			c0.7,0.4,1.2,1.2,1.3,2l-2.2,0.5c-0.2-0.8-1-1.3-1.8-1.3c-0.3,0-0.7,0.1-1,0.2c-0.2,0.1-0.4,0.4-0.4,0.7c0,0.1,0,0.2,0.1,0.3
			c0,0.1,0.1,0.2,0.2,0.2c0.1,0.1,0.2,0.1,0.3,0.2c0.1,0.1,0.3,0.1,0.4,0.2c0.2,0.1,0.3,0.1,0.4,0.1l0.5,0.1l0.5,0.1
			c0.4,0.1,0.7,0.2,0.9,0.3c0.3,0.1,0.6,0.2,0.9,0.4c0.3,0.2,0.5,0.4,0.8,0.6c0.2,0.2,0.4,0.5,0.5,0.8c0.1,0.4,0.2,0.7,0.2,1.1
			c0,0.5-0.1,1-0.3,1.5c-0.2,0.4-0.5,0.7-0.9,1c-0.4,0.2-0.8,0.4-1.3,0.5C-2657.7,5815.1-2658.2,5815.2-2658.8,5815.2
			L-2658.8,5815.2z M-2647.9,5815.2c-1,0-2-0.2-2.8-0.6c-0.8-0.4-1.5-1-1.9-1.8c-0.5-0.9-0.7-1.8-0.7-2.8c-0.1-1.4,0.5-2.8,1.5-3.8
			c2.3-1.9,5.6-1.9,8,0c1,1,1.6,2.4,1.5,3.8c0.1,1.4-0.5,2.8-1.5,3.8C-2645.1,5814.8-2646.5,5815.3-2647.9,5815.2L-2647.9,5815.2z
			 M-2648,5813c0.8,0,1.5-0.3,2-0.8c0.5-0.6,0.8-1.4,0.8-2.2c0-0.8-0.2-1.6-0.8-2.2c-0.5-0.5-1.2-0.8-2-0.8c-0.7,0-1.4,0.3-1.9,0.8
			c-0.5,0.6-0.8,1.4-0.7,2.2c0,0.8,0.2,1.6,0.7,2.2C-2649.4,5812.7-2648.7,5813-2648,5813L-2648,5813z M-2628,5800h2.8v15h-2.7
			l-0.1-1.3c-0.3,0.5-0.7,0.9-1.3,1.1c-0.6,0.3-1.2,0.4-1.9,0.4c-0.6,0-1.3-0.1-1.9-0.4c-1.2-0.5-2.1-1.5-2.6-2.7
			c-0.3-0.7-0.4-1.4-0.4-2.2c0-1,0.2-1.9,0.7-2.8c0.4-0.8,1-1.4,1.8-1.8c0.7-0.4,1.6-0.6,2.4-0.6c0.6,0,1.2,0.1,1.8,0.4
			c0.5,0.2,0.9,0.6,1.3,1V5800z M-2630.5,5812.9c0.7,0,1.4-0.3,1.9-0.8c0.5-0.6,0.8-1.3,0.8-2.1c0-0.8-0.2-1.5-0.8-2.1
			c-0.5-0.5-1.2-0.8-1.9-0.8c-0.7,0-1.4,0.3-1.9,0.8c-0.5,0.6-0.8,1.3-0.8,2.1c0,0.8,0.2,1.5,0.8,2.1
			C-2631.9,5812.6-2631.2,5812.9-2630.5,5812.9z M-2612.9,5809.8l0,0.7h-7.4c0,0.7,0.3,1.4,0.8,1.8c0.5,0.4,1.1,0.7,1.8,0.6
			c0.5,0,0.9-0.1,1.3-0.3c0.4-0.2,0.7-0.6,0.8-1l2.6,0.4c-0.3,1-0.9,1.8-1.8,2.4c-0.9,0.6-1.9,0.9-3,0.8c-1.4,0.1-2.8-0.4-3.9-1.4
			c-1-1-1.5-2.4-1.4-3.8c-0.1-1.4,0.5-2.8,1.5-3.8c1-1,2.4-1.5,3.8-1.4c1.3-0.1,2.6,0.4,3.6,1.3
			C-2613.3,5807-2612.8,5808.4-2612.9,5809.8L-2612.9,5809.8z M-2617.8,5806.7c-1.2-0.1-2.3,0.7-2.4,1.9h4.6c0-0.6-0.3-1.1-0.7-1.4
			C-2616.8,5806.9-2617.3,5806.7-2617.8,5806.7L-2617.8,5806.7z M-2599.6,5804.8c0.6,0,1.3,0.1,1.9,0.4c0.6,0.2,1.1,0.6,1.5,1
			c0.5,0.5,0.8,1,1,1.7c0.3,0.7,0.4,1.4,0.4,2.2c0,0.8-0.1,1.5-0.4,2.2c-0.2,0.6-0.6,1.2-1,1.7c-0.4,0.4-1,0.8-1.5,1
			c-0.6,0.2-1.2,0.4-1.9,0.4c-0.6,0-1.2-0.1-1.8-0.4c-0.5-0.2-1-0.6-1.3-1.1v6.1h-2.8V5805h2.7l0.1,1.3c0.3-0.5,0.7-0.9,1.3-1.1
			C-2600.9,5804.9-2600.3,5804.8-2599.6,5804.8L-2599.6,5804.8z M-2600.3,5812.9c0.7,0,1.4-0.3,1.9-0.8c0.5-0.6,0.8-1.3,0.8-2.1
			c0-0.8-0.2-1.5-0.8-2.1c-1.1-1-2.8-1-3.8,0c0,0,0,0,0,0c-0.5,0.6-0.8,1.3-0.8,2.1c0,0.8,0.2,1.5,0.8,2.1
			C-2601.7,5812.6-2601,5812.9-2600.3,5812.9L-2600.3,5812.9z M-2590,5806.6c0.3-0.5,0.8-0.9,1.3-1.2c0.6-0.3,1.3-0.5,2-0.5v2.5
			c-0.8-0.1-1.7,0.1-2.4,0.6c-0.6,0.6-0.8,1.4-0.7,2.1v4.9h-2.8v-10h2.7V5806.6z M-2575.7,5809.8l0,0.7h-7.4c0,0.7,0.3,1.4,0.8,1.8
			c0.5,0.4,1.1,0.7,1.8,0.6c0.5,0,0.9-0.1,1.3-0.3c0.4-0.2,0.7-0.6,0.8-1l2.6,0.4c-0.3,1-0.9,1.8-1.8,2.4c-0.9,0.6-1.9,0.9-3,0.8
			c-1.4,0.1-2.8-0.4-3.9-1.4c-1-1-1.5-2.4-1.4-3.8c-0.1-1.4,0.5-2.8,1.5-3.8c1-1,2.4-1.5,3.8-1.4c1.3-0.1,2.6,0.4,3.6,1.3
			C-2576.1,5807-2575.6,5808.4-2575.7,5809.8z M-2580.6,5806.7c-1.2-0.1-2.3,0.7-2.4,1.9h4.6c0-0.6-0.3-1.1-0.7-1.4
			C-2579.6,5806.9-2580.1,5806.7-2580.6,5806.7L-2580.6,5806.7z M-2570,5815.2c-1,0-2-0.2-2.9-0.7c-0.8-0.4-1.3-1.2-1.4-2.1l2.4-0.7
			c0.2,0.9,1.1,1.6,2,1.5c0.4,0,0.7-0.1,1-0.2c0.3-0.2,0.4-0.5,0.4-0.8c0-0.2-0.1-0.4-0.2-0.5c-0.1-0.2-0.3-0.3-0.5-0.4
			c-0.2-0.1-0.5-0.2-0.7-0.3c-0.2-0.1-0.5-0.2-0.9-0.3s-0.7-0.2-0.9-0.3c-0.3-0.1-0.6-0.2-0.9-0.4c-0.3-0.1-0.5-0.3-0.7-0.5
			c-0.2-0.2-0.4-0.5-0.5-0.8c-0.1-0.3-0.2-0.7-0.2-1.1c-0.1-0.9,0.4-1.7,1.1-2.2c0.8-0.5,1.8-0.8,2.8-0.8c0.9,0,1.8,0.2,2.6,0.6
			c0.7,0.4,1.2,1.2,1.3,2l-2.2,0.5c-0.2-0.8-1-1.3-1.8-1.3c-0.3,0-0.7,0.1-1,0.2c-0.2,0.1-0.4,0.4-0.4,0.7c0,0.1,0,0.2,0.1,0.3
			c0,0.1,0.1,0.2,0.2,0.2c0.1,0.1,0.2,0.1,0.3,0.2c0.1,0.1,0.3,0.1,0.4,0.2c0.2,0.1,0.3,0.1,0.4,0.1l0.5,0.1l0.5,0.1
			c0.4,0.1,0.7,0.2,0.9,0.3c0.3,0.1,0.6,0.2,0.9,0.4c0.3,0.2,0.5,0.4,0.8,0.6c0.2,0.2,0.4,0.5,0.5,0.8c0.1,0.4,0.2,0.7,0.2,1.1
			c0,0.5-0.1,1-0.3,1.5c-0.2,0.4-0.5,0.7-0.9,1c-0.4,0.2-0.8,0.4-1.3,0.5C-2569,5815.1-2569.5,5815.2-2570,5815.2z M-2554.4,5809.8
			l0,0.7h-7.4c0,0.7,0.3,1.4,0.8,1.8c0.5,0.4,1.1,0.7,1.8,0.6c0.5,0,0.9-0.1,1.3-0.3c0.4-0.2,0.7-0.6,0.8-1l2.6,0.4
			c-0.3,1-0.9,1.8-1.8,2.4c-0.9,0.6-1.9,0.9-3,0.8c-1.4,0.1-2.8-0.4-3.9-1.4c-1-1-1.5-2.4-1.4-3.8c-0.1-1.4,0.5-2.8,1.5-3.8
			c1-1,2.4-1.5,3.8-1.4c1.3-0.1,2.6,0.4,3.6,1.3C-2554.8,5807-2554.3,5808.4-2554.4,5809.8L-2554.4,5809.8z M-2559.4,5806.7
			c-1.2-0.1-2.3,0.7-2.4,1.9h4.6c0-0.6-0.3-1.1-0.7-1.4C-2558.3,5806.9-2558.8,5806.7-2559.4,5806.7L-2559.4,5806.7z
			 M-2546.3,5804.8c1-0.1,2,0.3,2.8,0.9c0.7,0.7,1,1.6,1,2.6v6.8h-2.8v-6.2c0-0.5-0.1-1-0.5-1.4c-0.4-0.3-0.8-0.5-1.3-0.4
			c-0.3,0-0.6,0-0.8,0.1c-0.3,0.1-0.5,0.2-0.7,0.4c-0.2,0.2-0.4,0.5-0.5,0.8c-0.1,0.4-0.2,0.8-0.2,1.2v5.5h-2.8v-10h2.8v1.1
			C-2548.7,5805.2-2547.5,5804.7-2546.3,5804.8L-2546.3,5804.8z M-2536.1,5815c-0.8,0.1-1.7-0.2-2.3-0.8c-0.6-0.6-0.9-1.5-0.8-2.3
			v-4.7h-2v-2.2h0.6c0.5,0,0.9-0.1,1.2-0.4c0.3-0.4,0.5-1,0.4-1.5v-1.3h2.5v3.2h2.1v2.2h-2.1v4.4c0,0.9,0.4,1.3,1.2,1.3h0.9v2.1
			H-2536.1z M-2523.9,5812.3c0,0.8,0.1,1.6,0.2,2.5v0.3h-2.6l-0.2-1.1c-0.4,0.4-0.9,0.8-1.4,1c-0.6,0.2-1.2,0.3-1.8,0.3
			c-0.3,0-0.6,0-0.9-0.1c-0.3-0.1-0.6-0.2-0.8-0.3c-0.3-0.1-0.5-0.3-0.7-0.5c-0.2-0.2-0.4-0.5-0.5-0.8c-0.1-0.3-0.2-0.7-0.2-1.1
			c0-0.4,0.1-0.7,0.2-1.1c0.1-0.3,0.3-0.6,0.5-0.8c0.2-0.2,0.5-0.4,0.8-0.6c0.3-0.2,0.7-0.3,1-0.4c0.4-0.1,0.8-0.2,1.2-0.3l1.7-0.4
			c0.3,0,0.5-0.2,0.7-0.3c0.1-0.1,0.2-0.3,0.2-0.5c0-0.4-0.2-0.8-0.5-1c-0.4-0.2-0.8-0.3-1.2-0.3c-0.9-0.1-1.8,0.5-2,1.5
			c0,0,0,0.1,0,0.1l-2.5-0.4c0.1-0.9,0.7-1.8,1.5-2.3c1-0.5,2.1-0.8,3.2-0.7c2.8,0,4.2,1.2,4.2,3.6L-2523.9,5812.3z M-2528.9,5813.3
			c0.7,0,1.3-0.2,1.7-0.7c0.5-0.6,0.7-1.4,0.7-2.2l-2.4,0.7c-0.4,0.1-0.7,0.2-1,0.4c-0.2,0.2-0.4,0.4-0.3,0.7c0,0.3,0.1,0.6,0.4,0.8
			C-2529.5,5813.2-2529.2,5813.3-2528.9,5813.3z M-2518.5,5806.6c0.3-0.5,0.8-0.9,1.3-1.2c0.6-0.3,1.3-0.5,2-0.5v2.5
			c-0.8-0.1-1.7,0.1-2.4,0.6c-0.6,0.6-0.8,1.4-0.7,2.1v4.9h-2.8v-10h2.7L-2518.5,5806.6z M-2504.8,5815.2c-1,0-2-0.2-2.9-0.7
			c-0.8-0.4-1.3-1.2-1.4-2.1l2.4-0.7c0.2,0.9,1.1,1.6,2,1.5c0.4,0,0.7-0.1,1-0.2c0.3-0.2,0.4-0.5,0.4-0.8c0-0.2-0.1-0.4-0.2-0.5
			c-0.1-0.2-0.3-0.3-0.5-0.4c-0.2-0.1-0.5-0.2-0.7-0.3c-0.2-0.1-0.5-0.2-0.9-0.3s-0.7-0.2-0.9-0.3c-0.3-0.1-0.6-0.2-0.9-0.4
			c-0.3-0.1-0.5-0.3-0.7-0.5c-0.2-0.2-0.4-0.5-0.5-0.8c-0.1-0.3-0.2-0.7-0.2-1.1c-0.1-0.9,0.4-1.7,1.1-2.2c0.8-0.5,1.8-0.8,2.8-0.8
			c0.9,0,1.8,0.2,2.6,0.6c0.7,0.4,1.2,1.2,1.3,2l-2.2,0.5c-0.2-0.8-1-1.3-1.8-1.3c-0.3,0-0.7,0.1-1,0.2c-0.2,0.1-0.4,0.4-0.4,0.7
			c0,0.1,0,0.2,0.1,0.3c0,0.1,0.1,0.2,0.2,0.2c0.1,0.1,0.2,0.1,0.3,0.2c0.1,0.1,0.3,0.1,0.4,0.2c0.2,0.1,0.3,0.1,0.4,0.1l0.5,0.1
			l0.5,0.1c0.4,0.1,0.7,0.2,0.9,0.3c0.3,0.1,0.6,0.2,0.9,0.4c0.3,0.2,0.5,0.4,0.8,0.6c0.2,0.2,0.4,0.5,0.5,0.8
			c0.1,0.4,0.2,0.7,0.2,1.1c0,0.5-0.1,1-0.3,1.5c-0.2,0.4-0.5,0.7-0.9,1c-0.4,0.2-0.8,0.4-1.3,0.5
			C-2503.8,5815.1-2504.3,5815.2-2504.8,5815.2z M-2498.1,5803.6l2.6-3.6l1.4,1l-2.2,2.6H-2498.1z M-2498.7,5815v-10h2.8v10H-2498.7
			z M-2487,5804.8c1-0.1,2,0.3,2.8,0.9c0.7,0.7,1,1.6,1,2.6v6.8h-2.8v-6.2c0-0.5-0.1-1-0.5-1.4c-0.4-0.3-0.8-0.5-1.3-0.4
			c-0.3,0-0.6,0-0.8,0.1c-0.3,0.1-0.5,0.2-0.7,0.4c-0.2,0.2-0.4,0.5-0.5,0.8c-0.1,0.4-0.2,0.8-0.2,1.2v5.5h-2.8v-10h2.8v1.1
			C-2489.3,5805.2-2488.2,5804.7-2487,5804.8z M-2476.8,5815c-0.8,0.1-1.7-0.2-2.3-0.8c-0.6-0.6-0.9-1.5-0.8-2.3v-4.7h-2v-2.2h0.6
			c0.5,0,0.9-0.1,1.2-0.4c0.3-0.4,0.5-1,0.4-1.5v-1.3h2.5v3.2h2.1v2.2h-2.1v4.4c0,0.9,0.4,1.3,1.2,1.3h0.9v2.1H-2476.8z
			 M-2468.1,5815.2c-1,0-2-0.2-2.8-0.6c-0.8-0.4-1.5-1-1.9-1.8c-0.5-0.9-0.7-1.8-0.7-2.8c-0.1-1.4,0.5-2.8,1.5-3.8
			c2.3-1.9,5.6-1.9,8,0c1,1,1.6,2.4,1.5,3.8c0.1,1.4-0.5,2.8-1.5,3.8C-2465.2,5814.8-2466.7,5815.3-2468.1,5815.2L-2468.1,5815.2z
			 M-2468.2,5813c0.8,0,1.5-0.3,2-0.8c0.5-0.6,0.8-1.4,0.8-2.2c0-0.8-0.2-1.6-0.8-2.2c-0.5-0.5-1.2-0.8-2-0.8
			c-0.7,0-1.4,0.3-1.9,0.8c-0.5,0.6-0.8,1.4-0.7,2.2c0,0.8,0.2,1.6,0.7,2.2C-2469.6,5812.7-2468.9,5813-2468.2,5813L-2468.2,5813z
			 M-2448.6,5804.8c0.9-0.1,1.9,0.2,2.6,0.8c0.7,0.6,1,1.5,0.9,2.3v7.1h-2.8v-6.3c0-0.5-0.1-0.9-0.4-1.3c-0.3-0.3-0.7-0.4-1.1-0.4
			c-0.5,0-1,0.2-1.4,0.5c-0.4,0.5-0.6,1.1-0.5,1.8v5.7h-2.8v-6.2c0-0.5-0.1-0.9-0.4-1.3c-0.3-0.3-0.7-0.5-1.2-0.4
			c-0.5,0-1,0.2-1.4,0.6c-0.4,0.5-0.6,1.2-0.5,1.9v5.5h-2.8v-10h2.8v1.2c0.7-0.9,1.8-1.4,2.9-1.4c0.7,0,1.3,0.1,1.9,0.4
			c0.5,0.2,0.9,0.6,1.2,1.1C-2451,5805.3-2449.9,5804.7-2448.6,5804.8L-2448.6,5804.8z M-2434.1,5812.3c0,0.8,0.1,1.6,0.2,2.5v0.3
			h-2.6l-0.2-1.1c-0.4,0.4-0.9,0.8-1.4,1c-0.6,0.2-1.2,0.3-1.8,0.3c-0.3,0-0.6,0-0.9-0.1c-0.3-0.1-0.6-0.2-0.8-0.3
			c-0.3-0.1-0.5-0.3-0.7-0.5c-0.2-0.2-0.4-0.5-0.5-0.8c-0.1-0.3-0.2-0.7-0.2-1.1c0-0.4,0.1-0.7,0.2-1.1c0.1-0.3,0.3-0.6,0.5-0.8
			c0.2-0.2,0.5-0.4,0.8-0.6c0.3-0.2,0.7-0.3,1-0.4c0.4-0.1,0.8-0.2,1.2-0.3l1.6-0.4c0.3,0,0.5-0.2,0.7-0.3c0.1-0.1,0.2-0.3,0.2-0.5
			c0-0.4-0.2-0.8-0.5-1c-0.4-0.2-0.8-0.3-1.2-0.3c-0.9-0.1-1.8,0.5-2,1.5c0,0,0,0.1,0,0.1l-2.5-0.4c0.1-0.9,0.7-1.8,1.5-2.3
			c1-0.5,2.1-0.8,3.2-0.7c2.8,0,4.2,1.2,4.2,3.6L-2434.1,5812.3z M-2439.1,5813.3c0.7,0,1.3-0.2,1.7-0.7c0.5-0.6,0.7-1.4,0.7-2.2
			l-2.4,0.7c-0.4,0.1-0.7,0.2-1,0.4c-0.2,0.2-0.4,0.4-0.3,0.7c0,0.3,0.1,0.6,0.4,0.8C-2439.8,5813.2-2439.4,5813.3-2439.1,5813.3
			L-2439.1,5813.3z M-2427.9,5815.2c-1,0-2-0.2-2.9-0.7c-0.8-0.4-1.3-1.2-1.4-2.1l2.4-0.7c0.2,0.9,1.1,1.6,2,1.5
			c0.4,0,0.7-0.1,1-0.2c0.3-0.2,0.4-0.5,0.4-0.8c0-0.2-0.1-0.4-0.2-0.5c-0.1-0.2-0.3-0.3-0.5-0.4c-0.2-0.1-0.5-0.2-0.7-0.3
			c-0.2-0.1-0.5-0.2-0.9-0.3c-0.4-0.1-0.7-0.2-0.9-0.3c-0.3-0.1-0.6-0.2-0.9-0.4c-0.3-0.1-0.5-0.3-0.7-0.5c-0.2-0.2-0.4-0.5-0.5-0.8
			c-0.1-0.3-0.2-0.7-0.2-1.1c-0.1-0.9,0.4-1.7,1.1-2.2c0.8-0.5,1.8-0.8,2.8-0.8c0.9,0,1.8,0.2,2.6,0.6c0.7,0.4,1.2,1.2,1.3,2
			l-2.2,0.5c-0.2-0.8-1-1.3-1.8-1.3c-0.3,0-0.7,0.1-1,0.2c-0.2,0.1-0.4,0.4-0.4,0.7c0,0.1,0,0.2,0.1,0.3c0,0.1,0.1,0.2,0.2,0.2
			c0.1,0.1,0.2,0.1,0.3,0.2c0.1,0.1,0.3,0.1,0.4,0.2c0.2,0.1,0.3,0.1,0.4,0.1l0.5,0.1l0.5,0.1c0.4,0.1,0.7,0.2,0.9,0.3
			c0.3,0.1,0.6,0.2,0.9,0.4c0.3,0.2,0.5,0.4,0.8,0.6c0.2,0.2,0.4,0.5,0.5,0.8c0.1,0.4,0.2,0.7,0.2,1.1c0,0.5-0.1,1-0.3,1.5
			c-0.2,0.4-0.5,0.7-0.9,1c-0.4,0.2-0.8,0.4-1.3,0.5C-2426.8,5815.1-2427.3,5815.2-2427.9,5815.2L-2427.9,5815.2z M-2410.6,5804.8
			c1-0.1,2,0.3,2.8,0.9c0.7,0.7,1,1.6,1,2.6v6.8h-2.8v-6.2c0-0.5-0.1-1-0.5-1.4c-0.4-0.3-0.8-0.5-1.3-0.4c-0.3,0-0.6,0-0.8,0.1
			c-0.3,0.1-0.5,0.2-0.7,0.4c-0.2,0.2-0.4,0.5-0.5,0.8c-0.1,0.4-0.2,0.8-0.2,1.2v5.5h-2.8v-10h2.8v1.1
			C-2412.9,5805.2-2411.8,5804.7-2410.6,5804.8L-2410.6,5804.8z M-2399.4,5815.2c-1,0-2-0.2-2.8-0.6c-0.8-0.4-1.5-1-1.9-1.8
			c-0.5-0.9-0.7-1.8-0.7-2.8c-0.1-1.4,0.5-2.8,1.5-3.8c2.3-1.9,5.6-1.9,8,0c1,1,1.6,2.4,1.5,3.8c0.1,1.4-0.5,2.8-1.5,3.8
			C-2396.6,5814.8-2398,5815.3-2399.4,5815.2z M-2399.5,5813c0.8,0,1.5-0.3,2-0.8c0.5-0.6,0.8-1.4,0.8-2.2c0-0.8-0.2-1.6-0.8-2.2
			c-0.5-0.5-1.2-0.8-2-0.8c-0.7,0-1.4,0.3-1.9,0.8c-0.5,0.6-0.8,1.4-0.7,2.2c0,0.8,0.2,1.6,0.7,2.2
			C-2400.9,5812.7-2400.2,5813-2399.5,5813L-2399.5,5813z M-2383.1,5815.2c-1,0-2-0.2-2.9-0.7c-0.8-0.4-1.3-1.2-1.4-2.1l2.4-0.7
			c0.2,0.9,1.1,1.6,2,1.5c0.4,0,0.7-0.1,1-0.2c0.3-0.2,0.4-0.5,0.4-0.8c0-0.2-0.1-0.4-0.2-0.5c-0.1-0.2-0.3-0.3-0.5-0.4
			c-0.2-0.1-0.5-0.2-0.7-0.3c-0.2-0.1-0.5-0.2-0.9-0.3s-0.7-0.2-0.9-0.3c-0.3-0.1-0.6-0.2-0.9-0.4c-0.3-0.1-0.5-0.3-0.7-0.5
			c-0.2-0.2-0.4-0.5-0.5-0.8c-0.1-0.3-0.2-0.7-0.2-1.1c-0.1-0.9,0.4-1.7,1.1-2.2c0.8-0.5,1.8-0.8,2.8-0.8c0.9,0,1.8,0.2,2.6,0.6
			c0.7,0.4,1.2,1.2,1.3,2l-2.2,0.5c-0.2-0.8-1-1.3-1.8-1.3c-0.3,0-0.7,0.1-1,0.2c-0.2,0.1-0.4,0.4-0.4,0.7c0,0.1,0,0.2,0.1,0.3
			c0,0.1,0.1,0.2,0.2,0.2c0.1,0.1,0.2,0.1,0.3,0.2c0.1,0.1,0.3,0.1,0.4,0.2c0.2,0.1,0.3,0.1,0.4,0.1l0.5,0.1l0.5,0.1
			c0.4,0.1,0.7,0.2,0.9,0.3c0.3,0.1,0.6,0.2,0.9,0.4c0.3,0.2,0.5,0.4,0.8,0.6c0.2,0.2,0.4,0.5,0.5,0.8c0.1,0.4,0.2,0.7,0.2,1.1
			c0,0.5-0.1,1-0.3,1.5c-0.2,0.4-0.5,0.7-0.9,1c-0.4,0.2-0.8,0.4-1.3,0.5C-2382.1,5815.1-2382.6,5815.2-2383.1,5815.2z
			 M-2367.5,5809.8l0,0.7h-7.4c0,0.7,0.3,1.4,0.8,1.8c0.5,0.4,1.1,0.7,1.8,0.6c0.5,0,0.9-0.1,1.3-0.3c0.4-0.2,0.7-0.6,0.8-1l2.6,0.4
			c-0.3,1-0.9,1.8-1.8,2.4c-0.9,0.6-1.9,0.9-3,0.8c-1.4,0.1-2.8-0.4-3.9-1.4c-1-1-1.5-2.4-1.4-3.8c-0.1-1.4,0.5-2.8,1.5-3.8
			c1-1,2.4-1.5,3.8-1.4c1.3-0.1,2.6,0.4,3.6,1.3C-2367.9,5807.1-2367.4,5808.4-2367.5,5809.8L-2367.5,5809.8z M-2372.5,5806.7
			c-1.2-0.1-2.3,0.7-2.4,1.9h4.6c0-0.6-0.3-1.1-0.7-1.4C-2371.4,5806.9-2371.9,5806.7-2372.5,5806.7L-2372.5,5806.7z M-2353.1,5800
			h2.8v15h-2.7l-0.1-1.3c-0.3,0.5-0.7,0.9-1.3,1.1c-0.6,0.3-1.2,0.4-1.9,0.4c-0.6,0-1.3-0.1-1.9-0.4c-1.2-0.5-2.1-1.5-2.6-2.7
			c-0.3-0.7-0.4-1.4-0.4-2.2c0-1,0.2-1.9,0.7-2.8c0.4-0.8,1-1.4,1.8-1.8c0.7-0.4,1.6-0.6,2.4-0.6c0.6,0,1.2,0.1,1.8,0.4
			c0.5,0.2,0.9,0.6,1.3,1L-2353.1,5800z M-2355.5,5812.9c0.7,0,1.4-0.3,1.9-0.8c0.5-0.6,0.8-1.3,0.8-2.1c0-0.8-0.2-1.5-0.8-2.1
			c-0.5-0.5-1.2-0.8-1.9-0.8c-0.7,0-1.4,0.3-1.9,0.8c-0.5,0.6-0.8,1.3-0.8,2.1c0,0.8,0.2,1.5,0.8,2.1
			C-2356.9,5812.6-2356.2,5812.9-2355.5,5812.9z M-2337.9,5809.8l0,0.7h-7.4c0,0.7,0.3,1.4,0.8,1.8c0.5,0.4,1.1,0.7,1.8,0.6
			c0.5,0,0.9-0.1,1.3-0.3c0.4-0.2,0.7-0.6,0.8-1l2.6,0.4c-0.3,1-0.9,1.8-1.8,2.4c-0.9,0.6-1.9,0.9-3,0.8c-1.4,0.1-2.8-0.4-3.9-1.4
			c-1-1-1.5-2.4-1.4-3.8c-0.1-1.4,0.5-2.8,1.5-3.8c1-1,2.4-1.5,3.8-1.4c1.3-0.1,2.6,0.4,3.6,1.3
			C-2338.3,5807-2337.8,5808.4-2337.9,5809.8z M-2342.9,5806.7c-1.2-0.1-2.3,0.7-2.4,1.9h4.6c0-0.6-0.3-1.1-0.7-1.4
			C-2341.8,5806.9-2342.3,5806.7-2342.9,5806.7L-2342.9,5806.7z M-2329.9,5804.8c0.6,0,1.3,0.1,1.9,0.4c1.2,0.5,2.1,1.5,2.6,2.7
			c0.3,0.7,0.4,1.4,0.4,2.2c0,0.8-0.1,1.5-0.4,2.2c-0.4,1.2-1.4,2.2-2.6,2.7c-0.6,0.2-1.2,0.4-1.9,0.4c-0.7,0-1.3-0.1-1.9-0.4
			c-0.5-0.2-1-0.6-1.3-1.1l-0.1,1.3h-2.7v-15h2.8v6.2c0.3-0.5,0.7-0.8,1.3-1C-2331.1,5804.9-2330.5,5804.8-2329.9,5804.8
			L-2329.9,5804.8z M-2330.5,5812.9c0.7,0,1.4-0.3,1.9-0.8c0.5-0.6,0.8-1.3,0.8-2.1c0-0.8-0.2-1.5-0.8-2.1c-0.5-0.5-1.2-0.8-1.9-0.8
			c-0.7,0-1.4,0.3-1.9,0.8c-0.5,0.6-0.8,1.3-0.8,2.1c0,0.8,0.2,1.5,0.8,2.1C-2331.9,5812.6-2331.2,5812.9-2330.5,5812.9
			L-2330.5,5812.9z M-2313.5,5809.8l0,0.7h-7.4c0,0.7,0.3,1.4,0.8,1.8c0.5,0.4,1.1,0.7,1.8,0.6c0.5,0,0.9-0.1,1.3-0.3
			c0.4-0.2,0.7-0.6,0.8-1l2.6,0.4c-0.3,1-0.9,1.8-1.8,2.4c-0.9,0.6-1.9,0.9-3,0.8c-1.4,0.1-2.8-0.4-3.9-1.4c-1-1-1.5-2.4-1.4-3.8
			c-0.1-1.4,0.5-2.8,1.5-3.8c1-1,2.4-1.5,3.8-1.4c1.3-0.1,2.6,0.4,3.6,1.3C-2313.9,5807-2313.4,5808.4-2313.5,5809.8L-2313.5,5809.8
			z M-2318.4,5806.7c-1.2-0.1-2.3,0.7-2.4,1.9h4.6c0-0.6-0.3-1.1-0.7-1.4C-2317.4,5806.9-2317.9,5806.7-2318.4,5806.7
			L-2318.4,5806.7z M-2302.4,5815c-0.8,0.1-1.7-0.2-2.3-0.8c-0.6-0.6-0.9-1.5-0.8-2.3v-4.7h-2v-2.2h0.6c0.5,0,0.9-0.1,1.2-0.4
			c0.3-0.4,0.5-1,0.4-1.5v-1.3h2.5v3.2h2.1v2.2h-2.1v4.4c0,0.9,0.4,1.3,1.2,1.3h0.9v2.1H-2302.4z M-2295.7,5806.6
			c0.3-0.5,0.8-0.9,1.3-1.2c0.6-0.3,1.3-0.5,2-0.5v2.5c-0.8-0.1-1.7,0.1-2.4,0.6c-0.6,0.6-0.8,1.4-0.7,2.1v4.9h-2.8v-10h2.7
			L-2295.7,5806.6z M-2282.6,5812.3c0,0.8,0.1,1.6,0.2,2.5v0.3h-2.6l-0.2-1.1c-0.4,0.4-0.9,0.8-1.4,1c-0.6,0.2-1.2,0.3-1.8,0.3
			c-0.3,0-0.6,0-0.9-0.1c-0.3-0.1-0.6-0.2-0.8-0.3c-0.3-0.1-0.5-0.3-0.7-0.5c-0.2-0.2-0.4-0.5-0.5-0.8c-0.1-0.3-0.2-0.7-0.2-1.1
			c0-0.4,0.1-0.7,0.2-1.1c0.1-0.3,0.3-0.6,0.5-0.8c0.2-0.2,0.5-0.4,0.8-0.6c0.3-0.2,0.7-0.3,1-0.4c0.4-0.1,0.8-0.2,1.2-0.3l1.6-0.4
			c0.3,0,0.5-0.2,0.7-0.3c0.1-0.1,0.2-0.3,0.2-0.5c0-0.4-0.2-0.8-0.5-1c-0.4-0.2-0.8-0.3-1.2-0.3c-0.9-0.1-1.8,0.5-2,1.5
			c0,0,0,0.1,0,0.1l-2.5-0.4c0.1-0.9,0.7-1.8,1.5-2.3c1-0.5,2.1-0.8,3.2-0.7c2.8,0,4.2,1.2,4.2,3.6L-2282.6,5812.3z M-2287.5,5813.3
			c0.7,0,1.3-0.2,1.7-0.7c0.5-0.6,0.7-1.4,0.7-2.2l-2.4,0.7c-0.4,0.1-0.7,0.2-1,0.4c-0.2,0.2-0.4,0.4-0.3,0.7c0,0.3,0.1,0.6,0.4,0.8
			C-2288.2,5813.2-2287.9,5813.3-2287.5,5813.3L-2287.5,5813.3z M-2273.9,5804.8c0.6,0,1.3,0.1,1.9,0.4c1.2,0.5,2.1,1.5,2.6,2.7
			c0.3,0.7,0.4,1.4,0.4,2.2c0,0.8-0.1,1.5-0.4,2.2c-0.4,1.2-1.4,2.2-2.6,2.7c-0.6,0.2-1.2,0.4-1.9,0.4c-0.7,0-1.3-0.1-1.9-0.4
			c-0.5-0.2-1-0.6-1.3-1.1l-0.1,1.3h-2.7v-15h2.8v6.2c0.3-0.5,0.7-0.8,1.3-1C-2275.2,5804.9-2274.6,5804.8-2273.9,5804.8
			L-2273.9,5804.8z M-2274.6,5812.9c0.7,0,1.4-0.3,1.9-0.8c0.5-0.6,0.8-1.3,0.8-2.1c0-0.8-0.2-1.5-0.8-2.1c-0.5-0.5-1.2-0.8-1.9-0.8
			c-0.7,0-1.4,0.3-1.9,0.8c-0.5,0.6-0.8,1.3-0.8,2.1c0,0.8,0.2,1.5,0.8,2.1C-2276,5812.6-2275.3,5812.9-2274.6,5812.9z
			 M-2258.8,5812.3c0,0.8,0.1,1.6,0.2,2.5v0.3h-2.6l-0.2-1.1c-0.4,0.4-0.9,0.8-1.4,1c-0.6,0.2-1.2,0.3-1.8,0.3c-0.3,0-0.6,0-0.9-0.1
			c-0.3-0.1-0.6-0.2-0.8-0.3c-0.3-0.1-0.5-0.3-0.7-0.5c-0.2-0.2-0.4-0.5-0.5-0.8c-0.1-0.3-0.2-0.7-0.2-1.1c0-0.4,0.1-0.7,0.2-1.1
			c0.1-0.3,0.3-0.6,0.5-0.8c0.2-0.2,0.5-0.4,0.8-0.6c0.3-0.2,0.7-0.3,1-0.4c0.4-0.1,0.8-0.2,1.2-0.3l1.6-0.4c0.3,0,0.5-0.2,0.7-0.3
			c0.1-0.1,0.2-0.3,0.2-0.5c0-0.4-0.2-0.8-0.5-1c-0.4-0.2-0.8-0.3-1.2-0.3c-0.9-0.1-1.8,0.5-2,1.5c0,0,0,0.1,0,0.1l-2.5-0.4
			c0.1-0.9,0.7-1.8,1.5-2.3c1-0.5,2.1-0.8,3.2-0.7c2.8,0,4.2,1.2,4.2,3.6L-2258.8,5812.3z M-2263.7,5813.3c0.7,0,1.3-0.2,1.7-0.7
			c0.5-0.6,0.7-1.4,0.7-2.2l-2.4,0.7c-0.4,0.1-0.7,0.2-1,0.4c-0.2,0.2-0.4,0.4-0.3,0.7c0,0.3,0.1,0.6,0.4,0.8
			C-2264.4,5813.2-2264,5813.3-2263.7,5813.3z M-2254.6,5803.5c-0.4,0-0.8-0.2-1.2-0.5c-0.3-0.3-0.5-0.7-0.5-1.1
			c0-0.4,0.2-0.8,0.5-1.1c0.3-0.3,0.7-0.5,1.1-0.5c0.9,0,1.6,0.7,1.6,1.6C-2253,5802.7-2253.7,5803.4-2254.6,5803.5L-2254.6,5803.5z
			 M-2258.1,5819.7v-2.2c0.4,0,0.7,0,1.1-0.1c0.3-0.1,0.5-0.3,0.6-0.5c0.2-0.3,0.3-0.6,0.3-0.9c0.1-0.4,0.1-0.9,0.1-1.3v-9.7h2.9
			v9.7c0.1,1.4-0.3,2.7-1.1,3.8C-2255.4,5819.4-2256.7,5819.8-2258.1,5819.7L-2258.1,5819.7z M-2242,5812.3c0,0.8,0.1,1.6,0.2,2.5
			v0.3h-2.6l-0.2-1.1c-0.4,0.4-0.9,0.8-1.4,1c-0.6,0.2-1.2,0.3-1.8,0.3c-0.3,0-0.6,0-0.9-0.1c-0.3-0.1-0.6-0.2-0.8-0.3
			c-0.3-0.1-0.5-0.3-0.7-0.5c-0.2-0.2-0.4-0.5-0.5-0.8c-0.1-0.3-0.2-0.7-0.2-1.1c0-0.4,0.1-0.7,0.2-1.1c0.1-0.3,0.3-0.6,0.5-0.8
			c0.2-0.2,0.5-0.4,0.8-0.6c0.3-0.2,0.7-0.3,1-0.4c0.4-0.1,0.8-0.2,1.2-0.3l1.7-0.4c0.3,0,0.5-0.2,0.7-0.3c0.1-0.1,0.2-0.3,0.2-0.5
			c0-0.4-0.2-0.8-0.5-1c-0.4-0.2-0.8-0.3-1.2-0.3c-0.9-0.1-1.8,0.5-2,1.5c0,0,0,0.1,0,0.1l-2.5-0.4c0.1-0.9,0.7-1.8,1.5-2.3
			c1-0.5,2.1-0.8,3.2-0.7c2.8,0,4.2,1.2,4.2,3.6L-2242,5812.3z M-2247,5813.3c0.7,0,1.3-0.2,1.7-0.7c0.5-0.6,0.7-1.4,0.7-2.2
			l-2.4,0.7c-0.4,0.1-0.7,0.2-1,0.4c-0.2,0.2-0.4,0.4-0.3,0.7c0,0.3,0.1,0.6,0.4,0.8C-2247.6,5813.2-2247.3,5813.3-2247,5813.3
			L-2247,5813.3z M-2236.6,5806.6c0.3-0.5,0.8-0.9,1.3-1.2c0.6-0.3,1.3-0.5,2-0.5v2.5c-0.8-0.1-1.7,0.1-2.4,0.6
			c-0.6,0.6-0.8,1.4-0.7,2.1v4.9h-2.8v-10h2.7L-2236.6,5806.6z M-2220.6,5804.8c0.6,0,1.3,0.1,1.9,0.4c0.6,0.2,1.1,0.6,1.5,1
			c0.5,0.5,0.8,1,1,1.7c0.3,0.7,0.4,1.4,0.4,2.2c0,0.8-0.1,1.5-0.4,2.2c-0.2,0.6-0.6,1.2-1,1.7c-0.4,0.4-1,0.8-1.5,1
			c-0.6,0.2-1.2,0.4-1.9,0.4c-0.6,0-1.2-0.1-1.8-0.4c-0.5-0.2-1-0.6-1.3-1.1v6.1h-2.8V5805h2.7l0.1,1.3c0.3-0.5,0.7-0.9,1.3-1.1
			C-2221.9,5804.9-2221.2,5804.8-2220.6,5804.8L-2220.6,5804.8z M-2221.2,5812.9c0.7,0,1.4-0.3,1.9-0.8c0.5-0.6,0.8-1.3,0.8-2.1
			c0-0.8-0.2-1.5-0.8-2.1c-1.1-1-2.8-1-3.8,0c0,0,0,0,0,0c-0.5,0.6-0.8,1.3-0.8,2.1c0,0.8,0.2,1.5,0.8,2.1
			C-2222.6,5812.6-2221.9,5812.9-2221.2,5812.9L-2221.2,5812.9z M-2210.9,5806.6c0.3-0.5,0.8-0.9,1.3-1.2c0.6-0.3,1.3-0.5,2-0.5v2.5
			c-0.8-0.1-1.7,0.1-2.4,0.6c-0.6,0.6-0.8,1.4-0.7,2.1v4.9h-2.8v-10h2.7L-2210.9,5806.6z M-2196.6,5809.8l0,0.7h-7.4
			c0,0.7,0.3,1.4,0.8,1.8c0.5,0.4,1.1,0.7,1.8,0.6c0.5,0,0.9-0.1,1.3-0.3c0.4-0.2,0.7-0.6,0.8-1l2.6,0.4c-0.3,1-0.9,1.8-1.8,2.4
			c-0.9,0.6-1.9,0.9-3,0.8c-1.4,0.1-2.8-0.4-3.9-1.4c-1-1-1.5-2.4-1.4-3.8c-0.1-1.4,0.5-2.8,1.5-3.8c1-1,2.4-1.5,3.8-1.4
			c1.3-0.1,2.6,0.4,3.6,1.3C-2197,5807-2196.5,5808.4-2196.6,5809.8L-2196.6,5809.8z M-2201.6,5806.7c-1.2-0.1-2.3,0.7-2.4,1.9h4.6
			c0-0.6-0.3-1.1-0.7-1.4C-2200.5,5806.9-2201,5806.7-2201.6,5806.7L-2201.6,5806.7z M-2190.9,5815.2c-1,0-2-0.2-2.9-0.7
			c-0.8-0.5-1.3-1.2-1.4-2.1l2.4-0.7c0.2,0.9,1.1,1.6,2,1.5c0.4,0,0.7-0.1,1-0.2c0.3-0.2,0.4-0.5,0.4-0.8c0-0.2-0.1-0.4-0.2-0.5
			c-0.1-0.2-0.3-0.3-0.5-0.4c-0.2-0.1-0.5-0.2-0.7-0.3c-0.2-0.1-0.5-0.2-0.9-0.3s-0.7-0.2-0.9-0.3c-0.3-0.1-0.6-0.2-0.9-0.4
			c-0.3-0.1-0.5-0.3-0.7-0.5c-0.2-0.2-0.4-0.5-0.5-0.8c-0.1-0.3-0.2-0.7-0.2-1.1c-0.1-0.9,0.4-1.7,1.1-2.2c0.8-0.5,1.8-0.8,2.8-0.8
			c0.9,0,1.8,0.2,2.6,0.6c0.7,0.4,1.2,1.2,1.3,2l-2.2,0.5c-0.2-0.8-1-1.3-1.8-1.3c-0.3,0-0.7,0.1-1,0.2c-0.2,0.1-0.4,0.4-0.4,0.7
			c0,0.1,0,0.2,0.1,0.3c0,0.1,0.1,0.2,0.2,0.2c0.1,0.1,0.2,0.1,0.3,0.2c0.1,0.1,0.3,0.1,0.4,0.2c0.2,0.1,0.3,0.1,0.4,0.1l0.5,0.1
			l0.5,0.1c0.4,0.1,0.7,0.2,0.9,0.3c0.3,0.1,0.6,0.2,0.9,0.4c0.3,0.2,0.5,0.4,0.8,0.6c0.2,0.2,0.4,0.5,0.5,0.8
			c0.1,0.4,0.2,0.7,0.2,1.1c0,0.5-0.1,1-0.3,1.5c-0.2,0.4-0.5,0.7-0.9,1c-0.4,0.2-0.8,0.4-1.3,0.5
			C-2189.9,5815.1-2190.4,5815.2-2190.9,5815.2z M-2175.3,5809.8l0,0.7h-7.4c0,0.7,0.3,1.4,0.8,1.8c0.5,0.4,1.1,0.7,1.8,0.6
			c0.5,0,0.9-0.1,1.3-0.3c0.4-0.2,0.7-0.6,0.8-1l2.6,0.4c-0.3,1-0.9,1.8-1.8,2.4c-0.9,0.6-1.9,0.9-3,0.8c-1.4,0.1-2.8-0.4-3.9-1.4
			c-1-1-1.5-2.4-1.4-3.8c-0.1-1.4,0.5-2.8,1.5-3.8c1-1,2.4-1.5,3.8-1.4c1.3-0.1,2.6,0.4,3.6,1.3
			C-2175.7,5807-2175.2,5808.4-2175.3,5809.8L-2175.3,5809.8z M-2180.3,5806.7c-1.2-0.1-2.3,0.7-2.4,1.9h4.6c0-0.6-0.3-1.1-0.7-1.4
			C-2179.2,5806.9-2179.8,5806.7-2180.3,5806.7L-2180.3,5806.7z M-2167.3,5804.8c1-0.1,2,0.3,2.8,0.9c0.7,0.7,1,1.6,1,2.6v6.8h-2.8
			v-6.2c0-0.5-0.1-1-0.5-1.4c-0.4-0.3-0.8-0.5-1.3-0.4c-0.3,0-0.6,0-0.8,0.1c-0.3,0.1-0.5,0.2-0.7,0.4c-0.2,0.2-0.4,0.5-0.5,0.8
			c-0.1,0.4-0.2,0.8-0.2,1.2v5.5h-2.8v-10h2.8v1.1C-2169.6,5805.2-2168.5,5804.7-2167.3,5804.8L-2167.3,5804.8z M-2156.3,5815.2
			c-1.4,0.1-2.8-0.5-3.9-1.4c-1-1-1.6-2.4-1.5-3.8c-0.1-1.4,0.5-2.8,1.5-3.8c2-1.7,4.9-1.9,7.1-0.5c0.9,0.7,1.5,1.6,1.7,2.7
			l-2.6,0.3c-0.1-0.5-0.4-1-0.8-1.3c-0.4-0.3-1-0.5-1.5-0.4c-0.7,0-1.4,0.3-1.8,0.8c-0.5,0.6-0.7,1.4-0.7,2.2c0,0.8,0.2,1.6,0.7,2.2
			c0.5,0.5,1.1,0.8,1.8,0.8c0.5,0,1.1-0.1,1.5-0.4c0.4-0.3,0.7-0.8,0.8-1.3l2.6,0.3c-0.2,1.1-0.8,2.1-1.7,2.7
			C-2154,5814.9-2155.1,5815.2-2156.3,5815.2L-2156.3,5815.2z M-2147.9,5803.5c-0.4,0-0.8-0.2-1.2-0.5c-0.3-0.3-0.5-0.7-0.5-1.1
			c0-0.4,0.2-0.8,0.5-1.1c0.3-0.3,0.7-0.5,1.1-0.5c0.9,0,1.6,0.7,1.6,1.6C-2146.3,5802.7-2147,5803.4-2147.9,5803.5z M-2149.3,5815
			v-10h2.8v10H-2149.3z M-2135.4,5812.3c0,0.8,0.1,1.6,0.2,2.5v0.3h-2.6l-0.2-1.1c-0.4,0.4-0.9,0.8-1.4,1c-0.6,0.2-1.2,0.3-1.8,0.3
			c-0.3,0-0.6,0-0.9-0.1c-0.3-0.1-0.6-0.2-0.8-0.3c-0.3-0.1-0.5-0.3-0.7-0.5c-0.2-0.2-0.4-0.5-0.5-0.8c-0.1-0.3-0.2-0.7-0.2-1.1
			c0-0.4,0.1-0.7,0.2-1.1c0.1-0.3,0.3-0.6,0.5-0.8c0.2-0.2,0.5-0.4,0.8-0.6c0.3-0.2,0.7-0.3,1-0.4c0.4-0.1,0.8-0.2,1.2-0.3l1.7-0.4
			c0.3,0,0.5-0.2,0.7-0.3c0.1-0.1,0.2-0.3,0.2-0.5c0-0.4-0.2-0.8-0.5-1c-0.4-0.2-0.8-0.3-1.2-0.3c-0.9-0.1-1.8,0.5-2,1.5
			c0,0,0,0.1,0,0.1l-2.5-0.4c0.1-0.9,0.7-1.8,1.5-2.3c1-0.5,2.1-0.8,3.2-0.7c2.8,0,4.2,1.2,4.2,3.6L-2135.4,5812.3z M-2140.3,5813.3
			c0.7,0,1.3-0.2,1.7-0.7c0.5-0.6,0.7-1.4,0.7-2.2l-2.4,0.7c-0.4,0.1-0.7,0.2-1,0.4c-0.2,0.2-0.4,0.4-0.3,0.7c0,0.3,0.1,0.6,0.4,0.8
			C-2141,5813.2-2140.6,5813.3-2140.3,5813.3z M-2132.6,5815v-15h2.8v15H-2132.6z M-2115,5804.8c0.9-0.1,1.9,0.2,2.6,0.8
			c0.7,0.6,1,1.5,0.9,2.3v7.1h-2.8v-6.3c0-0.5-0.1-0.9-0.4-1.3c-0.3-0.3-0.7-0.4-1.1-0.4c-0.5,0-1,0.2-1.4,0.5
			c-0.4,0.5-0.6,1.1-0.5,1.8v5.7h-2.8v-6.2c0-0.5-0.1-0.9-0.4-1.3c-0.3-0.3-0.7-0.5-1.2-0.4c-0.5,0-1,0.2-1.4,0.6
			c-0.4,0.5-0.6,1.2-0.5,1.9v5.5h-2.8v-10h2.8v1.2c0.7-0.9,1.8-1.4,2.9-1.4c0.7,0,1.3,0.1,1.9,0.4c0.5,0.2,0.9,0.6,1.2,1.1
			C-2117.4,5805.3-2116.2,5804.7-2115,5804.8z M-2099.3,5809.8l0,0.7h-7.4c0,0.7,0.3,1.4,0.8,1.8c0.5,0.4,1.1,0.7,1.8,0.6
			c0.5,0,0.9-0.1,1.3-0.3c0.4-0.2,0.7-0.6,0.8-1l2.6,0.4c-0.3,1-0.9,1.8-1.8,2.4c-0.9,0.6-1.9,0.9-3,0.8c-1.4,0.1-2.8-0.4-3.9-1.4
			c-1-1-1.5-2.4-1.4-3.8c-0.1-1.4,0.5-2.8,1.5-3.8c1-1,2.4-1.5,3.8-1.4c1.3-0.1,2.6,0.4,3.6,1.3
			C-2099.7,5807-2099.2,5808.4-2099.3,5809.8L-2099.3,5809.8z M-2104.2,5806.7c-1.2-0.1-2.3,0.7-2.4,1.9h4.6c0-0.6-0.3-1.1-0.7-1.4
			C-2103.2,5806.9-2103.7,5806.7-2104.2,5806.7L-2104.2,5806.7z M-2091.2,5804.8c1-0.1,2,0.3,2.8,0.9c0.7,0.7,1,1.6,1,2.6v6.8h-2.8
			v-6.2c0-0.5-0.1-1-0.5-1.4c-0.4-0.3-0.8-0.5-1.3-0.4c-0.3,0-0.6,0-0.8,0.1c-0.3,0.1-0.5,0.2-0.7,0.4c-0.2,0.2-0.4,0.5-0.5,0.8
			c-0.1,0.4-0.2,0.8-0.2,1.2v5.5h-2.8v-10h2.8v1.1C-2093.5,5805.2-2092.4,5804.7-2091.2,5804.8z M-2081,5815
			c-0.8,0.1-1.7-0.2-2.3-0.8c-0.6-0.6-0.9-1.5-0.8-2.3v-4.7h-2v-2.2h0.6c0.5,0,0.9-0.1,1.2-0.4c0.3-0.4,0.5-1,0.4-1.5v-1.3h2.5v3.2
			h2.1v2.2h-2.1v4.4c0,0.9,0.4,1.3,1.2,1.3h0.9v2.1H-2081z M-2067.6,5809.8l0,0.7h-7.4c0,0.7,0.3,1.4,0.8,1.8
			c0.5,0.4,1.1,0.7,1.8,0.6c0.5,0,0.9-0.1,1.3-0.3c0.4-0.2,0.7-0.6,0.8-1l2.6,0.4c-0.3,1-0.9,1.8-1.8,2.4c-0.9,0.6-1.9,0.9-3,0.8
			c-1.4,0.1-2.8-0.4-3.9-1.4c-1-1-1.5-2.4-1.5-3.8c-0.1-1.4,0.5-2.8,1.5-3.8c1-1,2.4-1.5,3.8-1.4c1.3-0.1,2.6,0.4,3.6,1.3
			C-2068,5807-2067.5,5808.4-2067.6,5809.8L-2067.6,5809.8z M-2072.5,5806.7c-1.2-0.1-2.3,0.7-2.4,1.9h4.6c0-0.6-0.3-1.1-0.7-1.4
			C-2071.5,5806.9-2072,5806.7-2072.5,5806.7L-2072.5,5806.7z M-2065.6,5815.5c-0.4,0-0.8-0.2-1.2-0.5c-0.3-0.3-0.5-0.7-0.5-1.1
			c0-0.4,0.2-0.8,0.5-1.1c0.3-0.3,0.7-0.5,1.1-0.5c0.9,0,1.6,0.7,1.6,1.6C-2064,5814.7-2064.7,5815.4-2065.6,5815.5L-2065.6,5815.5z
			"/>
	</g>
</g>
</svg>
