<svg xmlns="http://www.w3.org/2000/svg" xmlns:xlink="http://www.w3.org/1999/xlink" width="901" height="567" viewBox="0 0 901 567">
  <defs>
    <linearGradient id="linear-gradient" x1="0.526" y1="1.422" x2="0.452" y2="-0.181" gradientUnits="objectBoundingBox">
      <stop offset="0" stop-color="#dbe5f9"/>
      <stop offset="0.108" stop-color="#e5ecfa"/>
      <stop offset="0.321" stop-color="#f3f7fd"/>
      <stop offset="0.579" stop-color="#fcfdfe"/>
      <stop offset="1" stop-color="#fff"/>
    </linearGradient>
    <linearGradient id="linear-gradient-2" x1="-3.373" y1="-0.002" x2="-3.202" y2="0.777" gradientUnits="objectBoundingBox">
      <stop offset="0" stop-color="#dbe5f9"/>
      <stop offset="1" stop-color="#fff"/>
    </linearGradient>
  </defs>
  <g id="Grupo_18709" data-name="Grupo 18709" transform="translate(-549 -6710)">
    <rect id="Rectángulo_2376" data-name="Rectángulo 2376" width="901" height="567" transform="translate(549 6710)" fill="#2643a2"/>
    <text id="Clases_de_termómetros_a_usar" data-name="Clases de termómetros a usar" transform="translate(626 6809)" fill="#fff" font-size="35" font-family="Helvetica-Bold, Helvetica" font-weight="700"><tspan x="0" y="0">Clases de termómetros a usar</tspan></text>
    <g id="Grupo_10965" data-name="Grupo 10965" transform="translate(549 6645.004)">
      <g id="Grupo_10957" data-name="Grupo 10957" transform="translate(0 274.713)">
        <g id="Grupo_10955" data-name="Grupo 10955">
          <path id="Trazado_21284" data-name="Trazado 21284" d="M832.358,533.135l-5.67,26.319s-.586,12.565-14.131,18.075a29.941,29.941,0,0,1-4.215,1.4.378.378,0,0,1-.041.011c-9.444,2.287-9.99-4.114-9.99-4.114s-1.6-3.576-1.2-10.536c.325-5.618,3.85-23.015,5.2-29.514a4.947,4.947,0,0,1,3.109-3.6,41.812,41.812,0,0,1,9.518-2.4l.01,0a31.049,31.049,0,0,1,16.159,1.994A2.1,2.1,0,0,1,832.358,533.135Z" transform="translate(-674.982 -527.977)" fill="#474449"/>
          <path id="Trazado_21285" data-name="Trazado 21285" d="M900.457,530.108a111.474,111.474,0,0,1-3.779,23.771c-3.249,11.641-4.735,21.873-25.771,22.245l-.081-.01a29.952,29.952,0,0,0,4.215-1.4c13.545-5.51,14.131-18.075,14.131-18.075l5.67-26.319a2.1,2.1,0,0,0-1.258-2.363,31.049,31.049,0,0,0-16.159-1.994,45.206,45.206,0,0,1,10.638-.754c.948.041,1.93.118,2.934.234a33.53,33.53,0,0,1,7.311,1.649A3.16,3.16,0,0,1,900.457,530.108Z" transform="translate(-737.465 -525.167)" fill="#3e3642"/>
          <path id="Trazado_21286" data-name="Trazado 21286" d="M870.678,857.86l-.122,0a.4.4,0,0,0,.041-.011Z" transform="translate(-737.237 -806.902)" fill="none" stroke="#000" stroke-miterlimit="10" stroke-width="1"/>
          <path id="Trazado_21287" data-name="Trazado 21287" d="M926.019,555.665a10.7,10.7,0,0,1-4.035,7.66c-.175.142-.358.282-.548.419-4.387,3.156-10.606,3.661-20.033,10.351-7.359,5.22-23.374,4.253-30.049,3.576,21.036-.372,22.522-10.6,25.771-22.245a111.475,111.475,0,0,0,3.779-23.771,3.16,3.16,0,0,0-2.15-3.013,33.533,33.533,0,0,0-7.311-1.649l29.193,2.333a7.749,7.749,0,0,1,3.3,1.006,5.857,5.857,0,0,1,.713.485,3.978,3.978,0,0,1,.519.485C926.346,532.629,925.955,555.475,926.019,555.665Z" transform="translate(-737.913 -526.713)" fill="#ffbf00"/>
          <path id="Trazado_21288" data-name="Trazado 21288" d="M1208.945,576.373s-.784,7.033-6.982,8.1a10.7,10.7,0,0,0,4.035-7.66c-.065-.189.327-23.036-.85-24.362a3.987,3.987,0,0,0-.519-.485,32.995,32.995,0,0,1,3.4,1.307C1209.338,553.9,1208.945,576.373,1208.945,576.373Z" transform="translate(-1017.891 -547.863)" fill="#3e3642"/>
          <path id="Trazado_21289" data-name="Trazado 21289" d="M823.3,568.99a43.233,43.233,0,0,1,23.551-.912,2.279,2.279,0,0,1,.846,1.488c0,.816-3.834,23.183-3.834,23.183a4.249,4.249,0,0,1-2.639,1.872c-1.593.192-20.414-.24-20.414-.24s-1.792-.336-1.792-1.776S823.3,568.99,823.3,568.99Z" transform="translate(-693.587 -560.486)" fill="#3e3642"/>
          <path id="Trazado_21290" data-name="Trazado 21290" d="M867.563,595.969l-3.391,18.042a2.069,2.069,0,0,1-2.054,1.654H845.86a.736.736,0,0,1-.74-.867l3.731-18.293a1.247,1.247,0,0,1,1.2-.982l16.652-.513A.826.826,0,0,1,867.563,595.969Z" transform="translate(-715.685 -584.313)" fill="#66dfa9"/>
          <ellipse id="Elipse_786" data-name="Elipse 786" cx="3.365" cy="2.443" rx="3.365" ry="2.443" transform="translate(124.434 36.198)" fill="#626f7c"/>
          <ellipse id="Elipse_787" data-name="Elipse 787" cx="4.14" cy="2.913" rx="4.14" ry="2.913" transform="translate(129.643 41.567)" fill="#d83a36"/>
          <ellipse id="Elipse_788" data-name="Elipse 788" cx="3.406" cy="2.25" rx="3.406" ry="2.25" transform="translate(138.873 36.585)" fill="#626f7c"/>
          <path id="Trazado_21291" data-name="Trazado 21291" d="M181.5,837.181c-4.707,3.068-15.227-2.936-15.227-2.936s-2.493-2.535-4.43,8.274a25.446,25.446,0,0,1-3.84,8.429h0c-6.738,10.625-19.844,24.11-21.772,33.607-.873,4.3-1.948,7.418-3.69,9.785-3.236,4.394-8.77,6.189-19.568,8.1C96.358,905.374,0,976.9,0,976.9V875.348s80.988-21.218,86.941-25.89S94.7,825.437,98.712,820.9s23.621-10.845,23.621-10.845,1.469,6.511,10.557,6.441c4.136-.032,13.86-4.27,23-5.859s22.011.52,21.736,7.289S186.205,834.111,181.5,837.181Z" transform="translate(-0.003 -766.427)" fill="#ffbc91"/>
          <path id="Trazado_21292" data-name="Trazado 21292" d="M22.092,1197.8c3.4,5.8,20.962,37.826,19.107,77.694C18.786,1291.323,0,1305.27,0,1305.27V1203.713S9.431,1201.243,22.092,1197.8Z" transform="translate(0 -1094.793)" fill="#ffbc91"/>
          <path id="Trazado_21293" data-name="Trazado 21293" d="M346.082,837.18c-4.707,3.068-15.228-2.937-15.228-2.937s-2.491-2.534-4.429,8.274a25.424,25.424,0,0,1-3.84,8.43v0c-6.738,10.623-19.843,24.11-21.772,33.607a36.137,36.137,0,0,1-1.731,6.166s0,0,0,0-.009.027-.014.039c-.055.135-.109.27-.166.4-.024.057-.05.114-.074.172-.057.13-.114.259-.173.385q-.1.22-.207.433l-.021.041c-.062.124-.123.245-.188.364-.019.039-.04.078-.062.115s-.028.055-.045.082c-.057.105-.114.208-.173.309-.069.119-.14.238-.211.355l-.15.234c-.05.08-.1.156-.154.234-.031.046-.062.092-.093.135-.074.108-.15.213-.226.318-3.235,4.393-8.768,6.188-19.568,8.1-.066.011-.135.025-.207.039-8.828,1.786-38.325,21.365-64.937,39.992,2.442-39.271-15.5-70.846-18.059-75.132,22.821-6.273,51.3-14.437,56.637-17.526.047-.03.093-.055.135-.08.081-.048.154-.094.221-.142s.131-.089.185-.133c5.952-4.67,7.752-24.021,11.768-28.558.126-.142.266-.286.42-.43.05-.046.1-.094.154-.14.275-.245.589-.495.936-.746.157-.112.318-.224.487-.339.394-.266.824-.536,1.282-.806.062-.034.126-.073.19-.11s.133-.078.2-.115l.366-.206q.62-.343,1.287-.687l.287-.147c.152-.076.306-.153.461-.229.076-.039.154-.076.233-.114.713-.35,1.453-.7,2.211-1.037.073-.032.147-.064.221-.1.249-.112.5-.222.753-.332l.508-.22c.254-.11.511-.217.765-.325.171-.073.342-.144.513-.215.257-.108.513-.213.767-.316.171-.069.34-.14.511-.208.527-.211,1.052-.419,1.567-.62l.385-.151c.147-.055.292-.112.437-.167.124-.048.247-.094.368-.142l.724-.272c.159-.062.318-.121.475-.179.078-.03.157-.057.233-.087l.463-.172.674-.247c.147-.053.294-.105.437-.158l.435-.158.4-.142.181-.064c.207-.076.411-.147.606-.215l1.021-.355c.071-.025.143-.05.211-.073.162-.055.316-.11.466-.16l.389-.133.164-.055c.085-.03.166-.057.245-.082l.413-.137c.494-.165.77-.254.77-.254s1.47,6.511,10.557,6.442c4.137-.032,13.86-4.272,23-5.859s22.012.52,21.736,7.287S350.79,834.11,346.082,837.18Z" transform="translate(-164.588 -766.425)" fill="#ffbc91"/>
          <path id="Trazado_21294" data-name="Trazado 21294" d="M344.415,837.18a4.922,4.922,0,0,1-1.491.641c-5.128,1.335-13.737-3.578-13.737-3.578a.991.991,0,0,0-.712-.257c-.881.046-2.425,1.312-3.717,8.531a21.758,21.758,0,0,1-2.812,6.742q-.484.831-1.028,1.687v0c-6.56,10.344-19.159,23.4-21.6,32.849-.066.256-.126.508-.176.758a36.137,36.137,0,0,1-1.731,6.166,15.983,15.983,0,0,1-1.959,3.619c-3.235,4.393-8.768,6.188-19.568,8.1-8.559,1.513-38.059,23.009-64.868,41.791l-.42.3c3.458-43.243-18.216-77.685-18.216-77.685,23.717-6.523,53.965-14.625,57.48-17.384,5.952-4.67,7.752-24.021,11.768-28.558,3.536-4,19.185-9.373,22.85-10.591.494-.165.77-.254.77-.254a7.287,7.287,0,0,0,1.116,2.312c1.3,1.864,4.011,4.171,9.441,4.13,4.137-.032,13.86-4.272,23-5.859s22.012.52,21.736,7.287S349.122,834.11,344.415,837.18Z" transform="translate(-162.92 -766.425)" fill="#3ec2c9"/>
          <path id="Trazado_21295" data-name="Trazado 21295" d="M169.99,1259.24q-3.349,2.342-6.624,4.659c1.855-39.868-15.708-71.9-19.107-77.694,2.451-.666,5.023-1.369,7.671-2.1C154.49,1188.394,172.431,1219.969,169.99,1259.24Z" transform="translate(-122.167 -1083.196)" fill="#efab84"/>
          <path id="Trazado_21296" data-name="Trazado 21296" d="M890.9,1077.085c-.328,8.73-.169,19.268-.4,28.174a109.117,109.117,0,0,1-.872,12.555c-.5,3.31-1.261,5.588-2.415,6.28-2.2,1.316-6.415.9-10.828-.149a91.725,91.725,0,0,1-10.946-3.466c1.741-2.367,2.817-5.488,3.688-9.785,1.256-6.182,7.249-14.055,13.136-21.729C885.424,1084.851,888.55,1080.794,890.9,1077.085Z" transform="translate(-732.905 -992.563)" fill="#ffba00"/>
          <ellipse id="Elipse_789" data-name="Elipse 789" cx="3.26" cy="2.644" rx="3.26" ry="2.644" transform="translate(129.626 41.567)" fill="#ff4f46"/>
          <ellipse id="Elipse_790" data-name="Elipse 790" cx="2.797" cy="2.04" rx="2.797" ry="2.04" transform="translate(124.393 36.198)" fill="#8190a1"/>
          <ellipse id="Elipse_791" data-name="Elipse 791" cx="2.853" cy="2.04" rx="2.853" ry="2.04" transform="translate(138.862 36.406)" fill="#8190a1"/>
          <path id="Trazado_21297" data-name="Trazado 21297" d="M951.435,1077.085c-.328,8.73-.169,19.268-.4,28.174a109.117,109.117,0,0,1-.872,12.555c-.5,3.31-1.261,5.588-2.415,6.28-2.2,1.316-6.415.9-10.828-.149,1.152-6.589,5.17-16.848,4.693-22.943-.192-2.461.354-7.006,1.185-12.038C945.956,1084.851,949.081,1080.794,951.435,1077.085Z" transform="translate(-793.437 -992.563)" fill="#3e3642"/>
          <path id="Trazado_21298" data-name="Trazado 21298" d="M1015.2,1053.614a16.694,16.694,0,0,1-3.9,2.015,4.573,4.573,0,0,1-2.394.284c-3.487-.865-3.475-8.895,1.408-14.845l3.332-6.516s7.111,1.87,8.5,8.111C1023.015,1046.5,1019.132,1050.951,1015.2,1053.614Z" transform="translate(-852.324 -956.543)" fill="#3ec2c9"/>
          <path id="Trazado_21299" data-name="Trazado 21299" d="M1007.121,1051a2.341,2.341,0,0,1-.641-.126,16.659,16.659,0,0,1,3.862-9.808l3.332-6.516a14.791,14.791,0,0,1,4.113,1.969C1019.089,1042.43,1010.52,1051.189,1007.121,1051Z" transform="translate(-852.345 -956.543)" fill="#3ababa"/>
          <path id="Trazado_21300" data-name="Trazado 21300" d="M1023.387,1266.59a109.111,109.111,0,0,0,.873-12.554c2.12-.407,6.143-.8,8.552,1.388C1035.951,1258.273,1031.3,1264.009,1023.387,1266.59Z" transform="translate(-866.663 -1142.147)" fill="#3ababa"/>
          <path id="Trazado_21301" data-name="Trazado 21301" d="M1008.179,1151.911s5.823,2.619,5.6,6.747-8.287,10.273-14.163,8.545-2.462-11.291.8-11.905A16.362,16.362,0,0,0,1008.179,1151.911Z" transform="translate(-843.827 -1055.93)" fill="#3ec2c9"/>
          <path id="Trazado_21302" data-name="Trazado 21302" d="M1019.689,1152.586c-3.23,3.315-7.78,5.715-9.787,5.218a2.564,2.564,0,0,1-1.375-.9,3.825,3.825,0,0,1,2.14-1.614,16.38,16.38,0,0,0,7.764-3.388A13.3,13.3,0,0,1,1019.689,1152.586Z" transform="translate(-854.079 -1055.926)" fill="#3ababa"/>
          <path id="Trazado_21303" data-name="Trazado 21303" d="M191.327,1180.869s-.055.038-.192.633l.494-.136Z" transform="translate(-161.864 -1080.453)" fill="#268787"/>
          <path id="Trazado_21304" data-name="Trazado 21304" d="M305.357,1676.76l-1.081-1.2,1.228-.86Z" transform="translate(-257.678 -1498.661)" fill="#268787"/>
          <path id="Trazado_21305" data-name="Trazado 21305" d="M423.493,1063.383q-.484.831-1.028,1.687v0c-6.56,10.344-19.159,23.4-21.6,32.849-.066.256-.126.508-.176.758a36.133,36.133,0,0,1-1.731,6.166,15.986,15.986,0,0,1-1.959,3.62c-3.235,4.393-8.768,6.188-19.568,8.1-8.559,1.513-38.059,23.009-64.868,41.791-.173-1.106-.273-1.763-.273-1.763s50.837-40.042,67.509-51.6,6.04-16.392,17.2-31.535C405.735,1061.611,418.4,1062.456,423.493,1063.383Z" transform="translate(-264.468 -980.548)" fill="#3ababa"/>
        </g>
        <g id="Grupo_10956" data-name="Grupo 10956" transform="translate(132.603 17.251)">
          <path id="Trazado_21306" data-name="Trazado 21306" d="M869.47,639.79c.184-.6-.013-.76-.405-.758a.818.818,0,0,0-.839.659l-.131.428-1.164,0,.111-.361a2.277,2.277,0,0,1,2.349-1.68c1.209,0,1.65.6,1.324,1.667l-.053.171a1.9,1.9,0,0,1-1.282,1.373c.546.226.641.719.434,1.395l-.16.523a2.277,2.277,0,0,1-2.349,1.681c-1.209,0-1.65-.6-1.324-1.667l.169-.551,1.164,0-.189.618c-.146.476.045.655.437.654s.688-.164.868-.754l.16-.523c.189-.618.013-.845-.547-.843l-.414,0,.291-.951.482,0a.891.891,0,0,0,.954-.706Z" transform="translate(-865.877 -638.04)" fill="#3e3642"/>
          <path id="Trazado_21307" data-name="Trazado 21307" d="M895.926,639.709a2.3,2.3,0,0,1,2.411-1.738c1.209,0,1.65.6,1.324,1.667l-.053.171-1.164,0,.073-.238c.146-.475-.045-.655-.437-.654-.437,0-.738.183-.934.82l-.373,1.217a1.69,1.69,0,0,1,1.323-.594c.907,0,1.2.537.9,1.516l-.373,1.217a2.317,2.317,0,0,1-2.383,1.681c-1.209,0-1.684-.6-1.357-1.667Zm.536,2.268-.367,1.2c-.146.475.048.646.44.644a.807.807,0,0,0,.836-.649l.367-1.2c.146-.475-.045-.655-.437-.654A.818.818,0,0,0,896.462,641.977Z" transform="translate(-890.356 -637.946)" fill="#3e3642"/>
          <path id="Trazado_21308" data-name="Trazado 21308" d="M923.2,675.258l-.309,1.008-1.187,0,.309-1.008Z" transform="translate(-913.159 -669.523)" fill="#3e3642"/>
          <path id="Trazado_21309" data-name="Trazado 21309" d="M938.48,639.55a2.3,2.3,0,0,1,2.411-1.738c1.209,0,1.65.6,1.324,1.667l-.052.171-1.164,0,.073-.238c.146-.476-.045-.655-.437-.654-.437,0-.738.183-.934.82l-.373,1.217a1.69,1.69,0,0,1,1.323-.594c.907,0,1.2.537.9,1.516l-.373,1.217a2.317,2.317,0,0,1-2.383,1.681c-1.209,0-1.683-.6-1.357-1.667Zm.536,2.268-.367,1.2c-.146.476.048.646.44.644a.807.807,0,0,0,.836-.649l.367-1.2c.146-.475-.045-.655-.437-.654A.819.819,0,0,0,939.016,641.818Z" transform="translate(-926.394 -637.812)" fill="#3e3642"/>
        </g>
      </g>
      <path id="Trazado_21310" data-name="Trazado 21310" d="M1409.008,803.71l.445,7.795.319,5.559.007.134.826,14.448.486,8.492.405-.091c4.258-.955,41.152-9.379,54.04-17.6.059-.043.123-.081.183-.119a12.4,12.4,0,0,0,3.622-3.236l.216-13.368.525-32.077s3.071,2.955,9.27-.177c5.018-2.536,5.808-19.757,3.1-25.849-1.856,2.763-4.046,4.543-6.754,4.594-6.488.124-8.218,18.7-10.609,15.036-.819-1.26-1.745-4.941-2.656-9.56-2.486,6.593-6.184,13.889-11.663,24.436C1441.891,799.241,1422.083,803.123,1409.008,803.71Z" transform="translate(-1193.229 -438.842)" fill="#ffbc91" fill-rule="evenodd"/>
      <path id="Trazado_21311" data-name="Trazado 21311" d="M1313.275,546.073c.638,13.079,4.794,15.77,4.794,15.77s9.067,6.919,16.387,6.594c13.075-.587,25.634-3.824,34.516-20.935,5.48-10.547,9.177-17.843,11.664-24.436-.241-1.211-.478-2.487-.715-3.8-.879-4.9-1.718-10.317-2.406-14.857-.465-3.065-.867-5.729-1.166-7.573-1.31-8.088,3.778-8.647,3.778-8.647s-.679-11.114-6.051-13.327-21.472,4.348-34.688,4.138-18.04-10.084-20.32-8.187c-2.17,1.807-4.634,13.207-4.854,14.257,0,.014,0,.032-.008.042s-.009.037-.009.037a204.274,204.274,0,0,0-1.771,26.355C1312.345,523.25,1312.773,535.76,1313.275,546.073Z" transform="translate(-1111.429 -204.214)" fill="#ffbc91" fill-rule="evenodd"/>
      <path id="Trazado_21312" data-name="Trazado 21312" d="M1409,803.709l.445,7.795c19.34,5.275,42.615,8.936,56.265,10.825a12.4,12.4,0,0,0,3.622-3.236l.741-45.445s3.07,2.955,9.27-.177c5.018-2.536,5.808-19.757,3.1-25.849-1.856,2.763-4.046,4.542-6.754,4.594-6.488.124-8.218,18.7-10.609,15.036-.819-1.26-1.745-4.941-2.656-9.56-2.486,6.593-6.184,13.889-11.663,24.436C1441.886,799.24,1422.078,803.122,1409,803.709Z" transform="translate(-1193.225 -438.841)" fill="#efab84" fill-rule="evenodd"/>
      <path id="Trazado_21313" data-name="Trazado 21313" d="M1351.49,1211.734s8.935,9.431,9.633,11.581c0,0,.841-10.181-1.374-12.871l-.071-.082c-2.251-2.666-7.29-5.819-7.233-7.683.057-1.883,7.946-7.021,7.946-7.021l-.007-.134-.061-1s-7.3,3.814-9.029,6.954S1352.166,1207.672,1351.49,1211.734Z" transform="translate(-1143.842 -817.302)" fill="#fff" fill-rule="evenodd"/>
      <path id="Trazado_21314" data-name="Trazado 21314" d="M1362.148,1208.961c-.057,1.864,4.982,5.017,7.233,7.683l1.539-.256-.826-14.448S1362.2,1207.078,1362.148,1208.961Z" transform="translate(-1153.545 -823.584)" fill="#d6d6d6" fill-rule="evenodd"/>
      <path id="Trazado_21315" data-name="Trazado 21315" d="M1220.128,1341.28H1033.76c1.018-34.9,2.456-68.729,4.306-76.136,4.106-16.414,45.028-30.005,45.028-30.005l8.188-1.371,1.539-.256,4.507-.758,50.424-8.44,12.844-2.152v0h.006s1.191.919,3.233,2.536c.21.168.426.34.654.519.112.09.228.182.348.276l.222.178.459.368.237.19c.192.153.386.311.587.47.133.107.27.218.407.326s.277.222.417.335c.211.17.429.345.648.519.073.061.147.118.22.179.149.12.3.242.449.365q.342.271.694.56.469.379.956.776c.164.132.326.267.493.4l1.009.827c.172.138.345.28.519.424q.781.643,1.6,1.317t1.663,1.38c.469.391.946.789,1.429,1.193s.971.815,1.464,1.23q.889.749,1.8,1.522.606.512,1.219,1.038l1.853,1.591q1.4,1.208,2.819,2.453.77.673,1.541,1.357.386.34.772.685.627.558,1.256,1.12c2.72,2.438,5.435,4.933,8.045,7.423q.3.287.6.574c9.264,8.895,17.089,17.654,18.942,23.331.1.314.2.661.3,1.041.075.286.149.588.221.91s.145.658.216,1.012c.025.118.048.239.071.362.012.061.023.121.035.184.035.185.069.375.1.57.046.257.09.524.136.8.067.41.133.838.2,1.279s.13.9.193,1.374.124.962.184,1.466.119,1.018.176,1.551c.038.355.075.715.113,1.083.018.184.037.368.055.556q.083.841.161,1.72A425.917,425.917,0,0,1,1220.128,1341.28Z" transform="translate(-875.447 -840.707)" fill-rule="evenodd" fill="url(#linear-gradient)"/>
      <path id="Trazado_21316" data-name="Trazado 21316" d="M1386.521,1451.83c-.072.593-5.143,41.791-10.043,83.948h-5.118C1374.069,1506.053,1378.68,1474.517,1386.521,1451.83Z" transform="translate(-1161.346 -1035.205)" fill="#d3dafa" fill-rule="evenodd" opacity="0.63" style="mix-blend-mode: multiply;isolation: isolate"/>
      <path id="Trazado_21317" data-name="Trazado 21317" d="M1649.561,1341.272h-20.487c1.587-26.613,2.619-49.571,2.369-53.836-.619-10.677-49.206-52.3-54.471-53.457-3.741-.824-24.474,4.962-36.122,8.369,18.771-6.316,48.6-19.93,49.18-20.193v0h.006s1.191.919,3.233,2.536c.21.166.426.339.654.519.112.09.228.182.348.276l.222.178.459.368.237.19c.192.153.386.308.587.47.133.107.27.214.407.326s.277.222.417.335l.648.519c.074.061.147.118.221.179.149.12.3.242.449.365q.342.271.694.56.469.379.956.776c.164.132.326.266.493.4.331.27.666.545,1.009.827.172.138.345.28.519.424q.781.643,1.6,1.317t1.663,1.38c.469.391.946.789,1.429,1.193s.971.813,1.464,1.23q.889.749,1.8,1.522.606.512,1.219,1.038l1.853,1.591q1.4,1.208,2.819,2.453.769.673,1.541,1.357.386.34.772.684.627.558,1.256,1.12c2.72,2.435,5.435,4.931,8.045,7.423l.6.574c9.264,8.895,17.089,17.654,18.942,23.331.1.314.2.662.3,1.041.075.286.149.588.22.91s.146.659.216,1.012c.025.118.047.239.071.361.012.061.023.121.035.184.035.185.069.375.1.57.046.257.09.524.136.8.068.41.133.838.2,1.279s.13.9.193,1.374.124.962.184,1.466.12,1.018.176,1.551c.038.355.075.715.113,1.083.018.184.037.368.055.556q.083.841.161,1.72A425.864,425.864,0,0,1,1649.561,1341.272Z" transform="translate(-1304.88 -840.699)" fill="#d3dafa" fill-rule="evenodd" opacity="0.63" style="mix-blend-mode: multiply;isolation: isolate"/>
      <path id="Trazado_21318" data-name="Trazado 21318" d="M1878.957,1881.47s-.031,7.27-.361,18.152h-3.706C1877.34,1888.868,1878.957,1881.47,1878.957,1881.47Z" transform="translate(-1587.765 -1399.049)" fill="#d3dafa" fill-rule="evenodd" opacity="0.63" style="mix-blend-mode: multiply;isolation: isolate"/>
      <path id="Trazado_21319" data-name="Trazado 21319" d="M1488.542,1123.769s3.458,10.556,2.546,13.222-65.223,25.453-65.223,25.453-5.333-11.642,2.069-14.913,51.242-22.644,54.325-25.111S1488.542,1123.769,1488.542,1123.769Z" transform="translate(-1205.93 -755.539)" fill-rule="evenodd" fill="url(#linear-gradient-2)"/>
      <g id="Grupo_10964" data-name="Grupo 10964" transform="translate(192.321 308.986)">
        <g id="Grupo_10958" data-name="Grupo 10958" transform="translate(53.227 4.264)">
          <path id="Trazado_21320" data-name="Trazado 21320" d="M1604.557,789.646a1.137,1.137,0,0,0,.836-.388c1.022-1.164,10.955-7.52,20.209-10.214a1.14,1.14,0,1,0-.638-2.19c-9.558,2.782-19.861,9.276-21.286,10.9a1.14,1.14,0,0,0,.879,1.893Z" transform="translate(-1603.395 -776.808)" fill="#fff"/>
        </g>
        <g id="Grupo_10959" data-name="Grupo 10959" transform="translate(53.064 25.697)">
          <path id="Trazado_21321" data-name="Trazado 21321" d="M1603.492,933.24a1.159,1.159,0,0,0,.175-.017c14.514-2.521,29.44-13.931,30.068-14.416a1.14,1.14,0,0,0-1.393-1.806c-.15.115-15.114,11.551-29.066,13.975a1.141,1.141,0,0,0,.215,2.264Z" transform="translate(-1602.331 -916.764)" fill="#fff"/>
        </g>
        <path id="Trazado_21322" data-name="Trazado 21322" d="M1256.529,787.3c2.579,8.8,8.722,8.283,12.666,16.8h0q.262.564.51,1.185s3.151,3.567,10.045,4.539a25.191,25.191,0,0,0,3.36.242c8.217.057,27.636-14.814,31.823-18.1a1.511,1.511,0,0,0,.525-1.586,60.188,60.188,0,0,1-.478-27.418,1.023,1.023,0,0,0-.674-1.183l-36.864-12.456a6.8,6.8,0,0,0-5.055.284l-9.252,4.335a3.1,3.1,0,0,0-1.707,2.121c-.193.855-.443,2.025-.691,3.362a46.4,46.4,0,0,0-.949,10.182S1253.835,778.118,1256.529,787.3Z" transform="translate(-1255.829 -748.967)" fill="#ceebf0"/>
        <path id="Trazado_21323" data-name="Trazado 21323" d="M1310.434,806.7c-8.793-.069-13.994-2.559-14.091-2.6q.261.564.51,1.185s4.168,4.718,13.4,4.782c8.217.057,27.636-14.814,31.823-18.1a1.512,1.512,0,0,0,.526-1.586,60.185,60.185,0,0,1-.478-27.418,1.023,1.023,0,0,0-.674-1.183l-36.864-12.456a6.8,6.8,0,0,0-5.055.284l-9.252,4.335a3.1,3.1,0,0,0-1.708,2.121c-.193.855-.443,2.025-.69,3.362,4.126-2.307,10.4-5.361,14.115-4.978,5.889.607,34.246,9.542,35.343,10.48s-.64,10.447.336,17.626,1.47,7.888,1.47,7.888S1319.312,806.772,1310.434,806.7Z" transform="translate(-1282.977 -748.965)" fill="#e4f2f4"/>
        <g id="Grupo_10963" data-name="Grupo 10963" transform="translate(5.182 2.255)">
          <g id="Grupo_10960" data-name="Grupo 10960" transform="translate(0 5.509)">
            <path id="Trazado_21324" data-name="Trazado 21324" d="M1289.86,800.224a.19.19,0,0,0,.087-.023l.335-.178a.191.191,0,0,0-.178-.337l-.338.18a.191.191,0,0,0,.094.359Z" transform="translate(-1289.666 -799.663)" fill="#c4d4d2"/>
          </g>
          <g id="Grupo_10961" data-name="Grupo 10961" transform="translate(1.013)">
            <path id="Trazado_21325" data-name="Trazado 21325" d="M1316.5,820.812a.191.191,0,0,1,.187-.195c.252-.005.506-.015.757-.029a.191.191,0,0,1,.021.381c-.255.014-.514.024-.771.029h0A.191.191,0,0,1,1316.5,820.812Zm-.576.19c-.255,0-.514-.011-.77-.023a.191.191,0,1,1,.018-.381c.252.012.507.019.758.023a.191.191,0,0,1,0,.381Zm2.1-.261a.191.191,0,0,1,.173-.208c.251-.023.5-.051.752-.083a.191.191,0,0,1,.049.378c-.252.033-.51.061-.767.085h-.014A.191.191,0,0,1,1318.028,820.74Zm-3.642.19c-.254-.02-.512-.044-.767-.072a.191.191,0,0,1,.042-.379c.251.027.505.051.755.071a.191.191,0,0,1-.011.381Zm5.159-.373a.191.191,0,0,1,.156-.22c.249-.042.5-.089.744-.141a.191.191,0,1,1,.078.373c-.25.052-.5.1-.758.143l-.029,0A.191.191,0,0,1,1319.545,820.557Zm-6.69.206c-.252-.035-.508-.075-.761-.118a.191.191,0,0,1,.064-.376c.25.042.5.081.75.116a.191.191,0,0,1-.022.38Zm8.189-.5a.191.191,0,0,1,.138-.232c.244-.061.489-.129.73-.2a.191.191,0,0,1,.108.366c-.245.072-.5.141-.745.2a.181.181,0,0,1-.043.006A.191.191,0,0,1,1321.044,820.258Zm-9.706.248c-.249-.049-.5-.1-.753-.16a.191.191,0,0,1,.084-.372c.247.056.5.109.743.158a.191.191,0,0,1-.033.378A.193.193,0,0,1,1311.338,820.506Zm11.176-.666a.191.191,0,0,1,.119-.242l.309-.108q.2-.072.4-.15a.191.191,0,1,1,.135.356q-.206.079-.41.152-.157.057-.315.111a.193.193,0,0,1-.058.01A.191.191,0,0,1,1322.514,819.84Zm-12.677.325c-.247-.063-.5-.13-.743-.2a.191.191,0,1,1,.1-.367c.243.069.489.135.733.2a.191.191,0,0,1-.043.375A.193.193,0,0,1,1309.837,820.165Zm-1.48-.419c-.243-.076-.49-.156-.732-.238a.191.191,0,1,1,.122-.361c.239.081.482.16.723.235a.191.191,0,0,1-.053.373A.187.187,0,0,1,1308.356,819.746Zm15.591-.437a.191.191,0,0,1,.1-.249c.228-.094.464-.194.7-.3a.191.191,0,1,1,.153.349c-.239.1-.477.206-.708.3a.188.188,0,0,1-.069.014A.191.191,0,0,1,1323.948,819.309Zm-17.048-.057c-.241-.089-.483-.181-.719-.275a.191.191,0,1,1,.141-.354c.233.093.471.184.709.272a.191.191,0,0,1-.062.37A.187.187,0,0,1,1306.9,819.252Zm18.453-.548a.191.191,0,0,1,.093-.253c.225-.1.456-.214.688-.326a.191.191,0,1,1,.166.343c-.234.113-.468.224-.694.329a.186.186,0,0,1-.076.018A.191.191,0,0,1,1325.353,818.7Zm-19.883-.021c-.241-.1-.478-.21-.7-.315a.191.191,0,0,1,.161-.346c.222.1.455.208.693.31a.191.191,0,1,1-.151.35Zm21.263-.639a.191.191,0,0,1,.084-.256c.222-.112.45-.229.678-.348a.191.191,0,0,1,.177.338c-.229.12-.459.238-.683.351a.188.188,0,0,1-.082.02A.191.191,0,0,1,1326.732,818.043Zm1.358-.7a.19.19,0,0,1,.077-.258c.217-.117.442-.24.669-.366a.191.191,0,0,1,.185.333c-.228.127-.454.251-.673.369a.187.187,0,0,1-.087.023A.191.191,0,0,1,1328.091,817.339Zm1.34-.738a.191.191,0,0,1,.071-.26q.33-.188.661-.381a.191.191,0,0,1,.192.329q-.333.194-.664.383a.191.191,0,0,1-.26-.071Zm1.324-.768a.19.19,0,0,1,.066-.261q.326-.195.654-.394a.191.191,0,1,1,.2.326q-.328.2-.657.4a.19.19,0,0,1-.261-.066Zm1.309-.792a.191.191,0,0,1,.062-.263q.324-.2.647-.4a.191.191,0,0,1,.2.323q-.325.2-.65.406a.191.191,0,0,1-.263-.062Zm1.3-.814a.19.19,0,0,1,.058-.263q.322-.206.642-.415a.191.191,0,1,1,.208.32q-.321.209-.644.416a.19.19,0,0,1-.263-.058Zm1.284-.832a.191.191,0,0,1,.054-.264l.635-.422a.191.191,0,1,1,.212.317l-.636.423a.191.191,0,0,1-.264-.054Zm1.271-.848a.191.191,0,0,1,.051-.265l.631-.43a.191.191,0,1,1,.216.315l-.633.432a.188.188,0,0,1-.1.033A.19.19,0,0,1,1335.915,812.547Zm1.263-.864a.191.191,0,0,1,.048-.265l.627-.437a.191.191,0,1,1,.219.312l-.628.438a.191.191,0,0,1-.266-.048Zm1.253-.877a.191.191,0,0,1,.045-.266l.622-.444a.191.191,0,0,1,.222.31l-.624.445a.191.191,0,0,1-.266-.045Zm1.245-.89a.191.191,0,0,1,.043-.266l.618-.45a.191.191,0,0,1,.225.308l-.619.451a.191.191,0,0,1-.266-.043Zm1.236-.9a.191.191,0,0,1,.04-.267l.614-.456a.191.191,0,0,1,.228.306l-.615.457a.191.191,0,0,1-.267-.04Zm1.228-.913a.191.191,0,0,1,.038-.267l.61-.461a.191.191,0,1,1,.231.3l-.611.462a.19.19,0,0,1-.267-.038Zm1.22-.925a.191.191,0,0,1,.035-.267l.606-.467a.191.191,0,1,1,.234.3l-.607.468a.191.191,0,0,1-.267-.035Zm1.212-.936a.191.191,0,0,1,.033-.268l.6-.473a.191.191,0,0,1,.236.3q-.288.227-.6.474a.191.191,0,0,1-.268-.033Zm1.2-.948a.191.191,0,0,1,.03-.268q.322-.257.6-.479a.191.191,0,0,1,.24.3q-.275.222-.6.481a.191.191,0,0,1-.268-.03Zm1.193-.963a.191.191,0,0,1,.026-.268c.307-.253.488-.406.585-.49a.191.191,0,0,1,.249.289c-.142.123-.347.294-.592.5a.19.19,0,0,1-.268-.026Zm1.11-1.05a.19.19,0,0,1-.139-.231,1.767,1.767,0,0,0,.042-.458c0-.074-.006-.155-.013-.24a.191.191,0,1,1,.38-.033c.008.093.013.183.015.266a2.14,2.14,0,0,1-.053.556.191.191,0,0,1-.181.145A.194.194,0,0,1,1348.077,803.279Zm-.22-1.664c-.039-.2-.089-.439-.157-.741a.191.191,0,0,1,.372-.084c.069.306.12.546.16.754a.191.191,0,0,1-.151.223l-.032,0A.191.191,0,0,1,1347.857,801.614Zm-.329-1.485q-.083-.353-.172-.746a.191.191,0,1,1,.372-.084q.089.391.172.743a.191.191,0,0,1-.142.229.18.18,0,0,1-.04.005A.19.19,0,0,1,1347.529,800.13Zm-.338-1.494c-.056-.26-.106-.505-.155-.751a.191.191,0,0,1,.374-.074c.048.244.1.488.154.745a.191.191,0,0,1-.146.226.2.2,0,0,1-.037,0A.191.191,0,0,1,1347.191,798.636Zm-.3-1.505c-.045-.252-.089-.506-.129-.757a.191.191,0,0,1,.377-.061c.04.248.083.5.127.75a.191.191,0,0,1-.154.221l-.03,0A.191.191,0,0,1,1346.894,797.13Zm-.335-2.282a.191.191,0,1,1,.38-.039c.027.27.058.522.09.75l-.189.028-.189.024C1346.617,795.38,1346.586,795.123,1346.558,794.848Zm-.068-.766c-.018-.24-.036-.5-.052-.766a.191.191,0,0,1,.381-.022c.016.266.033.521.051.759a.191.191,0,0,1-.176.2h-.011A.191.191,0,0,1,1346.49,794.082Zm-.091-1.532q-.017-.374-.031-.766a.191.191,0,0,1,.184-.2h0a.191.191,0,0,1,.194.184q.014.389.031.762a.191.191,0,0,1-.182.2h-.005A.191.191,0,0,1,1346.4,792.551Zm-.055-1.531q-.01-.377-.018-.765a.191.191,0,0,1,.187-.195h0a.191.191,0,0,1,.194.187q.008.386.018.763a.191.191,0,0,1-.185.2h0A.191.191,0,0,1,1346.344,791.02Zm.162-1.343a.19.19,0,0,1-.194-.188q-.006-.38-.01-.766a.191.191,0,0,1,.187-.193h0a.191.191,0,0,1,.193.189q0,.385.01.764a.19.19,0,0,1-.187.193Zm-.018-1.529a.191.191,0,0,1-.192-.19q0-.382,0-.766a.191.191,0,1,1,.381,0q0,.383,0,.765a.191.191,0,0,1-.187.192Zm-.006-1.53a.191.191,0,0,1-.191-.191q0-.383,0-.765a.193.193,0,0,1,.191-.19.191.191,0,0,1,.19.191q0,.381,0,.764a.191.191,0,0,1-.187.191Zm0-1.528a.191.191,0,0,1-.19-.192q0-.385,0-.765a.191.191,0,0,1,.381,0q0,.379,0,.764a.191.191,0,0,1-.187.19Zm.01-1.529a.191.191,0,0,1-.189-.192q0-.387.007-.765a.191.191,0,1,1,.381,0q0,.377-.007.764a.191.191,0,0,1-.187.189Zm.013-1.529a.191.191,0,0,1-.189-.193l.007-.765a.191.191,0,0,1,.381,0l-.007.765a.191.191,0,0,1-.187.189Zm.014-1.529a.191.191,0,0,1-.189-.193q0-.394.006-.764a.191.191,0,0,1,.382,0q0,.37-.006.765a.191.191,0,0,1-.187.189Zm.012-1.53a.19.19,0,0,1-.19-.191c0-.269,0-.525,0-.764a.191.191,0,0,1,.381,0c0,.24,0,.5,0,.766a.191.191,0,0,1-.187.19Zm0-1.53a.191.191,0,0,1-.193-.188q0-.14,0-.268c0-.187-.008-.353-.014-.491a.191.191,0,1,1,.381-.016c.006.141.011.309.014.5,0,.086,0,.176,0,.27a.191.191,0,0,1-.187.193Zm-.309-1.505a4.028,4.028,0,0,0-.642-.341.191.191,0,1,1,.157-.348,4.287,4.287,0,0,1,.711.381.191.191,0,1,1-.226.307Zm-1.343-.637c-.214-.086-.453-.18-.712-.278a.191.191,0,1,1,.135-.357c.261.1.5.193.719.28a.191.191,0,0,1-.143.354Zm-1.428-.544q-.343-.125-.72-.259a.191.191,0,0,1,.128-.359q.378.134.723.26a.191.191,0,0,1-.062.37A.2.2,0,0,1,1343.455,774.755Zm-1.442-.512-.723-.249a.191.191,0,1,1,.123-.361l.725.25a.191.191,0,0,1-.059.371A.194.194,0,0,1,1342.013,774.243Zm-1.448-.495-.725-.243a.191.191,0,0,1,.121-.362l.727.243a.191.191,0,0,1-.122.361Zm-1.452-.484-.727-.239a.191.191,0,1,1,.119-.363l.728.239a.191.191,0,0,1-.119.362Zm-1.455-.476-.728-.235a.191.191,0,0,1,.117-.363l.729.236a.191.191,0,0,1-.055.372A.186.186,0,0,1,1337.659,772.789Zm-1.456-.469-.729-.233a.191.191,0,0,1,.116-.364l.729.233a.191.191,0,0,1-.055.372A.186.186,0,0,1,1336.2,772.32Zm-1.458-.464-.729-.231a.191.191,0,1,1,.115-.364l.73.231a.191.191,0,1,1-.115.364Zm-1.459-.46-.73-.229a.191.191,0,1,1,.114-.364l.73.229a.191.191,0,1,1-.114.364Zm-1.46-.457-.731-.227a.191.191,0,0,1,.113-.364l.731.227a.191.191,0,1,1-.113.364Zm-1.461-.454-.731-.226a.191.191,0,0,1,.112-.365l.731.226a.191.191,0,0,1-.053.373A.187.187,0,0,1,1330.363,770.485Zm-1.462-.451-.731-.225a.191.191,0,1,1,.112-.365l.732.225a.191.191,0,0,1-.052.373A.186.186,0,0,1,1328.9,770.034Zm-1.463-.449-.733-.224a.191.191,0,0,1,.111-.365l.733.224a.191.191,0,0,1-.052.373A.194.194,0,0,1,1327.438,769.585Zm-1.464-.447-.73-.222a.191.191,0,1,1,.111-.365l.73.222a.191.191,0,0,1-.052.373A.188.188,0,0,1,1325.974,769.138Zm-1.462-.445-.732-.222a.191.191,0,0,1,.111-.365l.732.222a.191.191,0,0,1-.052.373A.194.194,0,0,1,1324.513,768.693Zm-28.212.432a.191.191,0,0,1,.081-.257l.681-.353a.191.191,0,0,1,.175.339l-.679.352a.191.191,0,0,1-.257-.081Zm26.747-.876-.732-.221a.191.191,0,0,1,.11-.365l.733.221a.191.191,0,0,1-.052.373A.2.2,0,0,1,1323.048,768.249Zm-25.387.173a.191.191,0,0,1,.083-.257l.684-.346a.191.191,0,1,1,.171.341l-.682.345a.19.19,0,0,1-.256-.083Zm23.922-.615-.733-.221a.191.191,0,0,1,.11-.365l.733.221a.191.191,0,0,1-.051.373A.184.184,0,0,1,1321.583,767.807Zm-22.555-.073a.19.19,0,0,1,.086-.255l.688-.338a.191.191,0,1,1,.167.343l-.686.337a.193.193,0,0,1-.081.02A.191.191,0,0,1,1299.029,767.734Zm21.089-.368-.733-.22a.191.191,0,0,1,.11-.365l.733.22a.191.191,0,0,1-.051.373A.2.2,0,0,1,1320.118,767.366Zm-1.466-.44-.733-.22a.191.191,0,0,1,.109-.365l.733.22a.191.191,0,0,1-.051.373A.187.187,0,0,1,1318.652,766.925Zm-18.249.135a.191.191,0,0,1,.089-.255q.342-.165.692-.33a.191.191,0,1,1,.163.345l-.689.329a.193.193,0,0,1-.079.019A.191.191,0,0,1,1300.4,767.06Zm16.782-.574-.733-.219a.191.191,0,0,1,.109-.365l.734.219a.191.191,0,1,1-.109.365Zm-15.4-.082a.191.191,0,0,1,.093-.253q.348-.161.7-.32a.191.191,0,0,1,.157.347q-.347.157-.694.318a.191.191,0,0,1-.253-.093Zm13.933-.357-.734-.219a.191.191,0,0,1,.109-.366l.734.219a.191.191,0,0,1-.051.373A.185.185,0,0,1,1315.718,766.047Zm-12.539-.278a.191.191,0,0,1,.1-.251c.242-.107.479-.209.7-.305a.191.191,0,0,1,.15.351c-.224.1-.459.2-.7.3a.19.19,0,0,1-.251-.1Zm11.072-.16-.734-.219a.191.191,0,0,1,.109-.365l.734.219a.191.191,0,0,1-.051.374A.2.2,0,0,1,1314.25,765.609Zm-1.469-.438-.735-.219a.191.191,0,0,1,.109-.366l.735.22a.191.191,0,0,1-.109.365Zm-8.2-.006a.191.191,0,0,1,.1-.249c.245-.1.486-.2.714-.285a.191.191,0,1,1,.138.355c-.226.088-.464.183-.708.283a.191.191,0,0,1-.249-.1Zm6.727-.434-.736-.221a.191.191,0,0,1,.11-.365l.735.221a.191.191,0,1,1-.109.365Zm-5.3-.127a.191.191,0,0,1,.115-.244c.257-.093.5-.177.73-.25a.191.191,0,0,1,.117.363c-.224.072-.465.155-.718.246a.2.2,0,0,1-.061.011A.191.191,0,0,1,1306.009,764.6Zm3.829-.318c-.3-.092-.5-.154-.607-.19a.694.694,0,0,0-.107-.026.191.191,0,0,1,.062-.376,1.092,1.092,0,0,1,.165.04c.1.035.3.1.6.187a.191.191,0,0,1-.052.373A.2.2,0,0,1,1309.838,764.287Zm-2.376-.164a.191.191,0,0,1,.136-.233,7.833,7.833,0,0,1,.766-.167.191.191,0,0,1,.06.377,7.447,7.447,0,0,0-.728.159.2.2,0,0,1-.045.006A.191.191,0,0,1,1307.462,764.123Z" transform="translate(-1296.279 -763.693)" fill="#c4d4d2"/>
          </g>
          <g id="Grupo_10962" data-name="Grupo 10962" transform="translate(8.504 53.87)">
            <path id="Trazado_21326" data-name="Trazado 21326" d="M1345.731,1116.011a.191.191,0,0,0,.082-.361c-.214-.108-.33-.172-.331-.173a.191.191,0,0,0-.185.333s.123.068.345.18A.19.19,0,0,0,1345.731,1116.011Z" transform="translate(-1345.199 -1115.454)" fill="#c4d4d2"/>
          </g>
        </g>
        <path id="Trazado_21327" data-name="Trazado 21327" d="M1402.888,878.311s-17.573-9.5-22.111-8.454-13.053,1.089-13.053,1.089,13.328.759,19.852,3.187A120.221,120.221,0,0,0,1402.888,878.311Z" transform="translate(-1350.587 -851.275)" fill="#97bac0"/>
        <path id="Trazado_21328" data-name="Trazado 21328" d="M1414.542,961.993s-14.83-4.035-17.576-3.383-15.672,2.13-15.672,2.13S1407.669,960.085,1414.542,961.993Z" transform="translate(-1362.08 -926.444)" fill="#97bac0"/>
        <path id="Trazado_21329" data-name="Trazado 21329" d="M1421.978,1017.109s-20.52,5.789-32.028,6.129C1389.95,1023.238,1409.242,1022.27,1421.978,1017.109Z" transform="translate(-1369.41 -976.045)" fill="#97bac0"/>
        <path id="Trazado_21330" data-name="Trazado 21330" d="M1294.406,873.474s-7.373.473-8.65,1.495l-1.277,1.022s-.594-3.052.554-3.371.944.572,2.938.534S1294.406,873.474,1294.406,873.474Z" transform="translate(-1279.962 -853.625)" fill="#97bac0"/>
        <path id="Trazado_21331" data-name="Trazado 21331" d="M1269.346,963.694l-4.565-1.8-8.658,2.053.5,3.114a36.759,36.759,0,0,1,5.152-2.6C1264.587,963.323,1269.346,963.694,1269.346,963.694Z" transform="translate(-1256.078 -929.285)" fill="#97bac0"/>
        <path id="Trazado_21332" data-name="Trazado 21332" d="M1311.021,1046.516s-6.715-.677-10.049-2A24.321,24.321,0,0,0,1311.021,1046.516Z" transform="translate(-1294.059 -999.255)" fill="#97bac0"/>
        <path id="Trazado_21333" data-name="Trazado 21333" d="M1321.214,848.83s-10.124-4.428-14.252-3.827-9.573,4.473-9.573,4.473l8.079.622,3.849-.073Z" transform="translate(-1291.024 -830.248)" fill="#bbdde6"/>
        <path id="Trazado_21334" data-name="Trazado 21334" d="M1256.529,787.3c2.579,8.8,8.722,8.283,12.666,16.8h0q.262.564.51,1.185s3.151,3.567,10.045,4.539c-2.109-5.9-7.973-22.757-9.112-31.065-1.377-10.048,4.681-29.328,4.826-29.787a6.79,6.79,0,0,0-3.077.638l-9.252,4.335a3.1,3.1,0,0,0-1.707,2.121c-.193.855-.443,2.025-.691,3.362a46.4,46.4,0,0,0-.949,10.182S1253.835,778.118,1256.529,787.3Z" transform="translate(-1255.829 -748.967)" fill="#b9d9e0" opacity="0.46"/>
      </g>
      <path id="Trazado_21335" data-name="Trazado 21335" d="M1312.938,280.929s0-.014.009-.037,0-.028.008-.042c.22-1.049,2.684-12.449,4.854-14.257,2.28-1.9,7.1,7.977,20.32,8.187s29.316-6.352,34.688-4.138,6.051,13.327,6.051,13.327-5.088.559-3.778,8.647c.3,1.843.7,4.508,1.166,7.573.688,4.54,1.81,20.154,2.05,21.365.911,4.619,2.906,5.6,3.726,6.857,2.39,3.662,4.121-14.913,10.609-15.036,2.708-.052,4.9-1.832,6.754-4.594a44.393,44.393,0,0,0,4.478-9.761c.64-1.829,1.242-3.717,1.83-5.6,3.058-9.794-10.241-41.755-16.3-48.129s-46.366-5.143-58.541-11.4-15.885-6.649-18.015,3.358S1309.858,279.929,1312.938,280.929Z" transform="translate(-1110.17 0)" fill="#00093f" fill-rule="evenodd"/>
      <path id="Trazado_21336" data-name="Trazado 21336" d="M1246.651,585.882c.785.2,45.677-3.189,45.677-3.189l-26.921-1.209-18.756,3.226Z" transform="translate(-1055.736 -298.147)" fill="#ed1200" fill-rule="evenodd" opacity="0.53"/>
    </g>
    <text id="Infrarojo" transform="translate(799 7194)" fill="#73e3d2" font-size="25" font-family="Helvetica-Bold, Helvetica" font-weight="700"><tspan x="-50.696" y="0">Infrarojo</tspan></text>
    <g id="Grupo_10971" data-name="Grupo 10971" transform="translate(1362.615 7169.181) rotate(180)">
      <path id="Trazado_21337" data-name="Trazado 21337" d="M208.237,47.691s0,90.832,0,121.109c0,.546.1,1.077.122,1.61.333,7.358.389,13,1.079,14.7,11.428,33.29,14.022,66.583,11.935,99.876-.442,5.295-.067,6.662,2.874,9.072.851.7,4.423.694,5.276,0,2.931-2.422,3.32-3.777,2.878-9.072-2.088-33.293.505-66.585,11.935-99.876.687-1.7.744-7.34,1.079-14.7.022-.533.118-1.066.118-1.61,0-30.279,0-121.109,0-121.109,0-7.108-6.681-12.871-14.92-12.871h-7.46C214.916,34.82,208.235,40.581,208.237,47.691Z" transform="translate(0.002)" fill="#ded3c9"/>
      <path id="Trazado_21338" data-name="Trazado 21338" d="M208.237,47.691l0,20.694h37.3l0-20.694c0-7.108-6.681-12.871-14.92-12.871h-7.46C214.916,34.82,208.235,40.581,208.237,47.691Z" transform="translate(0.002)" fill="#4dacd5"/>
      <path id="Trazado_21339" data-name="Trazado 21339" d="M212.821,184.648c-.688-1.84-.744-7.95-1.079-15.923-.026-.577-.12-1.155-.122-1.747,0-30.342,0-116.793,0-129.616a11.8,11.8,0,0,0-3.387,8.167s0,90.83,0,121.107c0,.546.1,1.079.122,1.612.331,7.358.389,13,1.077,14.7,11.43,33.291,14.022,66.585,11.937,99.878-.444,5.293-.068,6.662,2.874,9.072a1.69,1.69,0,0,0,.55.263C226.806,256.323,224.175,220.486,212.821,184.648Z" transform="translate(0 2.162)" fill="#ded3c9" opacity="0.67" style="mix-blend-mode: screen;isolation: isolate"/>
      <path id="Trazado_21340" data-name="Trazado 21340" d="M231.067,40.214V168.279c0,.577-.094,1.138-.12,1.7-.333,7.782-.389,13.745-1.079,15.54-11.428,35.205-14.021,70.41-11.931,105.617.078,1,.13,1.858.144,2.621,1.379.161,3.183.009,3.759-.459,2.93-2.422,3.318-3.779,2.876-9.072-2.088-33.293.507-66.585,11.935-99.876.688-1.7.744-7.34,1.079-14.7.022-.533.12-1.064.12-1.61V46.935c0-4.821-3.074-9.02-7.623-11.226A12.436,12.436,0,0,1,231.067,40.214Z" transform="translate(7.694 0.756)" fill="#ded3c9" style="mix-blend-mode: multiply;isolation: isolate"/>
      <path id="Trazado_21341" data-name="Trazado 21341" d="M234.983,46.934V168.041c0,.546-.1,1.079-.12,1.612-.335,7.358-.391,13-1.079,14.7-11.428,33.291-14.021,66.585-11.933,99.878.442,5.295.054,6.649-2.878,9.072a2.814,2.814,0,0,1-1.223.415l0,.044c1.379.161,3.183.009,3.759-.459,2.93-2.421,3.318-3.779,2.876-9.072-2.088-33.293.505-66.587,11.935-99.878.688-1.7.744-7.338,1.077-14.7.026-.533.122-1.064.12-1.612V46.934c0-4.823-3.074-9.022-7.621-11.224a12.541,12.541,0,0,1,.581,2.012A12.045,12.045,0,0,1,234.983,46.934Z" transform="translate(8.096 0.757)" fill="#ded3c9" opacity="0.6" style="mix-blend-mode: screen;isolation: isolate"/>
      <g id="Grupo_10966" data-name="Grupo 10966" transform="translate(221.22 281.539)">
        <path id="Trazado_21342" data-name="Trazado 21342" d="M215.605,168.134c-.061,1.147-.126,2.3-.2,3.446-.444,5.295-.067,6.661,2.874,9.072.851.7,4.423.7,5.276,0,2.931-2.421,3.32-3.777,2.878-9.072q-.108-1.721-.2-3.446Z" transform="translate(-215.249 -168.134)" fill="#9b958f"/>
        <path id="Trazado_21343" data-name="Trazado 21343" d="M217.892,170.78c.043-.883.08-1.764.118-2.646H215.6q-.089,1.724-.2,3.446c-.442,5.295-.067,6.662,2.876,9.072a3.2,3.2,0,0,0,1.488.455C217.744,178.657,217.505,176.6,217.892,170.78Z" transform="translate(-215.25 -168.134)" fill="#9b958f" style="mix-blend-mode: screen;isolation: isolate"/>
        <path id="Trazado_21344" data-name="Trazado 21344" d="M220.451,170.834c.394,5.865.124,7.843-2.017,10.334a4.7,4.7,0,0,0,2.417-.516c2.931-2.421,3.32-3.777,2.878-9.072q-.108-1.721-.2-3.446l-3.205,0C220.368,169.033,220.4,169.935,220.451,170.834Z" transform="translate(-212.542 -168.134)" fill="#9b958f" style="mix-blend-mode: multiply;isolation: isolate"/>
        <path id="Trazado_21345" data-name="Trazado 21345" d="M221.354,170.94c.392,5.682.128,7.61-1.989,10.019a1.917,1.917,0,0,0,.694-.307c2.931-2.421,3.32-3.777,2.878-9.072q-.108-1.721-.2-3.446h-1.518C221.262,169.069,221.3,170.005,221.354,170.94Z" transform="translate(-211.75 -168.134)" fill="#c2b9b1" opacity="0.91" style="mix-blend-mode: screen;isolation: isolate"/>
        <path id="Trazado_21346" data-name="Trazado 21346" d="M216.088,171.129c.2-.033.157,1.329.39,2.769s.651,2.415.453,2.447-.946-.888-1.177-2.328A4.31,4.31,0,0,1,216.088,171.129Z" transform="translate(-214.886 -165.587)" fill="#9b958f" style="mix-blend-mode: color-dodge;isolation: isolate"/>
      </g>
      <path id="Trazado_21347" data-name="Trazado 21347" d="M221.062,80.829a7.008,7.008,0,0,1,7.008,7.007v25.485a7.01,7.01,0,0,1-7.008,7.01h0a7.01,7.01,0,0,1-7.008-7.01V87.836a7.006,7.006,0,0,1,7.008-7.007Z" transform="translate(4.952 39.138)" fill="#bcb4ac"/>
      <path id="Trazado_21348" data-name="Trazado 21348" d="M219.149,84.458l0,32.048a10.68,10.68,0,0,1-.583,3.516,7.01,7.01,0,0,0,5.332-6.8l0-25.485a7,7,0,0,0-5.33-6.8A10.737,10.737,0,0,1,219.149,84.458Z" transform="translate(8.788 39.234)" fill="#bcb4ac" opacity="0.56" style="mix-blend-mode: screen;isolation: isolate"/>
      <path id="Trazado_21349" data-name="Trazado 21349" d="M218.349,115.025V86.057a8.6,8.6,0,0,1,1.693-5.184,7,7,0,0,0-5.989,6.925v25.485a7.006,7.006,0,0,0,5.989,6.927A8.59,8.59,0,0,1,218.349,115.025Z" transform="translate(4.952 39.175)" fill="#bcb4ac" opacity="0.22" style="mix-blend-mode: multiply;isolation: isolate"/>
      <path id="Trazado_21350" data-name="Trazado 21350" d="M229.06,88.148v25.485a7.686,7.686,0,0,1-15.372,0l0-25.485a7.687,7.687,0,0,1,15.373,0Zm-14.017,25.485a6.33,6.33,0,0,0,12.66,0V88.148a6.33,6.33,0,1,0-12.66,0Z" transform="translate(4.639 38.826)" fill="#807b77"/>
      <g id="Grupo_10967" data-name="Grupo 10967" transform="translate(222.324 134.704)">
        <path id="Trazado_21351" data-name="Trazado 21351" d="M222.693,96.025a1.909,1.909,0,0,1,1.168,1.762l0,.331a1.812,1.812,0,0,1-.15.748,1.906,1.906,0,0,1-1.018,1.023,1.885,1.885,0,0,1-.742.15l-.2,0-.109-.7.311,0a1.256,1.256,0,0,0,.487-.1,1.325,1.325,0,0,0,.4-.268,1.306,1.306,0,0,0,.27-.4,1.246,1.246,0,0,0,.1-.485V97.82a1.21,1.21,0,0,0-.1-.487,1.245,1.245,0,0,0-.27-.4,1.325,1.325,0,0,0-.4-.265,1.19,1.19,0,0,0-.487-.1H221.3a1.129,1.129,0,0,0-.487.1,1.207,1.207,0,0,0-.394.263,1.317,1.317,0,0,0-.268.394,1.231,1.231,0,0,0-.1.489v.52h-.668v-.52a1.21,1.21,0,0,0-.1-.487,1.246,1.246,0,0,0-.267-.394,1.267,1.267,0,0,0-.394-.266,1.182,1.182,0,0,0-.485-.1l-.383,0a1.262,1.262,0,0,0-.487.1,1.28,1.28,0,0,0-.392.266,1.249,1.249,0,0,0-.267.392,1.227,1.227,0,0,0-.1.489l0,.266a1.239,1.239,0,0,0,.1.485,1.345,1.345,0,0,0,.268.4,1.254,1.254,0,0,0,.392.268,1.222,1.222,0,0,0,.487.1h.315l-.111.705-.2,0a1.831,1.831,0,0,1-.744-.15A1.894,1.894,0,0,1,216,98.866a1.875,1.875,0,0,1-.152-.748v-.331a1.944,1.944,0,0,1,.15-.746,1.965,1.965,0,0,1,.411-.607,1.791,1.791,0,0,1,.611-.409,1.889,1.889,0,0,1,.744-.152l.266,0a1.865,1.865,0,0,1,.529.072,1.935,1.935,0,0,1,.468.205,1.878,1.878,0,0,1,.4.32,1.991,1.991,0,0,1,.3.411,1.758,1.758,0,0,1,.3-.411,1.907,1.907,0,0,1,.394-.318,1.818,1.818,0,0,1,.47-.207,1.847,1.847,0,0,1,.529-.072h.535A1.844,1.844,0,0,1,222.693,96.025Z" transform="translate(-215.847 -82.768)" fill="#231f20"/>
        <path id="Trazado_21352" data-name="Trazado 21352" d="M222.693,92.992a1.9,1.9,0,0,1,.609.411,1.926,1.926,0,0,1,.409.609,1.814,1.814,0,0,1,.148.742l0,.339a1.832,1.832,0,0,1-.152.744,1.857,1.857,0,0,1-.409.609,1.915,1.915,0,0,1-.609.409,1.857,1.857,0,0,1-.744.152l-4.186,0a1.837,1.837,0,0,1-.744-.15,1.96,1.96,0,0,1-.607-.409,1.881,1.881,0,0,1-.411-.609,1.831,1.831,0,0,1-.15-.744l0-.339a1.889,1.889,0,0,1,.152-.744,1.915,1.915,0,0,1,1.018-1.02,1.9,1.9,0,0,1,.746-.152l.2,0,.113.7h-.315a1.2,1.2,0,0,0-.487.1,1.272,1.272,0,0,0-.394.268,1.416,1.416,0,0,0-.267.4,1.186,1.186,0,0,0-.1.487l0,.265a1.249,1.249,0,0,0,.366.883,1.277,1.277,0,0,0,.394.266,1.209,1.209,0,0,0,.487.1l1.941,0a2.02,2.02,0,0,1-.472-.64,1.827,1.827,0,0,1-.178-.8v-.115a1.887,1.887,0,0,1,.15-.744,1.927,1.927,0,0,1,1.02-1.02,1.9,1.9,0,0,1,.744-.152l.981,0A1.837,1.837,0,0,1,222.693,92.992Zm-1.723.551a1.209,1.209,0,0,0-.487.1,1.251,1.251,0,0,0-.394.268,1.341,1.341,0,0,0-.267.4,1.186,1.186,0,0,0-.1.487v.267a1.192,1.192,0,0,0,.1.487,1.207,1.207,0,0,0,.267.394,1.277,1.277,0,0,0,.394.266,1.2,1.2,0,0,0,.485.1l.981,0a1.206,1.206,0,0,0,.483-.1,1.252,1.252,0,0,0,.4-.266,1.218,1.218,0,0,0,.27-.392,1.188,1.188,0,0,0,.1-.489l0-.265a1.2,1.2,0,0,0-.1-.489,1.3,1.3,0,0,0-.268-.4,1.318,1.318,0,0,0-.4-.27,1.292,1.292,0,0,0-.489-.1Z" transform="translate(-215.847 -85.35)" fill="#231f20"/>
        <path id="Trazado_21353" data-name="Trazado 21353" d="M222.063,92.269l0,.283h-2.395v-.838Z" transform="translate(-212.598 -86.306)" fill="#231f20"/>
        <path id="Trazado_21354" data-name="Trazado 21354" d="M222.691,88.942a1.92,1.92,0,0,1,.609.411,1.9,1.9,0,0,1,.561,1.355l0,.331a1.832,1.832,0,0,1-.148.746,1.983,1.983,0,0,1-.409.614,2.01,2.01,0,0,1-.611.409,1.826,1.826,0,0,1-.746.148H221.3a1.819,1.819,0,0,1-.9-.231,1.992,1.992,0,0,1-.67-.607,1.978,1.978,0,0,1-.676.607,1.831,1.831,0,0,1-.907.231h-.379a1.9,1.9,0,0,1-.746-.148,1.974,1.974,0,0,1-.609-.411,1.942,1.942,0,0,1-.561-1.358l0-.331a1.806,1.806,0,0,1,.15-.748,1.954,1.954,0,0,1,1.018-1.018,1.9,1.9,0,0,1,.746-.15h.379a1.857,1.857,0,0,1,.909.229,1.923,1.923,0,0,1,.674.6,1.952,1.952,0,0,1,.672-.6,1.832,1.832,0,0,1,.9-.229h.646A1.831,1.831,0,0,1,222.691,88.942Zm-1.392.55a1.224,1.224,0,0,0-.487.1,1.264,1.264,0,0,0-.659.659,1.225,1.225,0,0,0-.1.487l0,.268a1.239,1.239,0,0,0,.1.485,1.346,1.346,0,0,0,.268.4,1.234,1.234,0,0,0,.392.268,1.2,1.2,0,0,0,.487.1l.648,0a1.256,1.256,0,0,0,.487-.1,1.3,1.3,0,0,0,.4-.268,1.32,1.32,0,0,0,.27-.4,1.191,1.191,0,0,0,.1-.487v-.266a1.2,1.2,0,0,0-.1-.489,1.223,1.223,0,0,0-.268-.392,1.3,1.3,0,0,0-.4-.266,1.227,1.227,0,0,0-.489-.1Zm-3.537,0a1.174,1.174,0,0,0-.487.1,1.288,1.288,0,0,0-.394.266,1.323,1.323,0,0,0-.267.394,1.217,1.217,0,0,0-.1.487v.266a1.208,1.208,0,0,0,.1.485,1.3,1.3,0,0,0,.267.4,1.217,1.217,0,0,0,.879.365h.381a1.247,1.247,0,0,0,.487-.094,1.223,1.223,0,0,0,.392-.272,1.228,1.228,0,0,0,.366-.881v-.266a1.2,1.2,0,0,0-.1-.489,1.247,1.247,0,0,0-.659-.659,1.218,1.218,0,0,0-.487-.1Z" transform="translate(-215.847 -88.792)" fill="#231f20"/>
      </g>
      <g id="Grupo_10968" data-name="Grupo 10968" transform="translate(221.713 131.759)">
        <path id="Trazado_21355" data-name="Trazado 21355" d="M217.21,88.049a.847.847,0,1,1-.846-.848A.845.845,0,0,1,217.21,88.049Zm-1.482,0a.636.636,0,1,0,.637-.635A.636.636,0,0,0,215.728,88.049Z" transform="translate(-215.517 -87.201)" fill="#231f20"/>
      </g>
      <g id="Grupo_10969" data-name="Grupo 10969" transform="translate(219.213 77.744)">
        <path id="Trazado_21356" data-name="Trazado 21356" d="M221.822,58.014a7.657,7.657,0,1,1-7.656,7.658A7.661,7.661,0,0,1,221.822,58.014Z" transform="translate(-214.166 -58.014)" fill="#96999b"/>
        <path id="Trazado_21357" data-name="Trazado 21357" d="M218.247,68.252a8.535,8.535,0,0,1-3.49-7.682,7.647,7.647,0,0,0,11.837,8.9A8.535,8.535,0,0,1,218.247,68.252Z" transform="translate(-214.155 -55.84)" fill="#96999b" style="mix-blend-mode: multiply;isolation: isolate"/>
        <path id="Trazado_21358" data-name="Trazado 21358" d="M224.079,60.911a8.534,8.534,0,0,0-8.35-1.22,7.647,7.647,0,0,1,11.837,8.9A8.532,8.532,0,0,0,224.079,60.911Z" transform="translate(-212.836 -58.007)" fill="#d3d4d6" style="mix-blend-mode: screen;isolation: isolate"/>
      </g>
      <g id="Grupo_10970" data-name="Grupo 10970" transform="translate(220.056 78.59)">
        <path id="Trazado_21359" data-name="Trazado 21359" d="M218.252,59.261a6.809,6.809,0,1,1-2.841,9.2A6.81,6.81,0,0,1,218.252,59.261Z" transform="translate(-214.621 -58.469)" fill="#ef5034"/>
        <path id="Trazado_21360" data-name="Trazado 21360" d="M215.314,61.327a6.67,6.67,0,0,1,1.488-1.073,6.805,6.805,0,0,1,8.715,9.977,6.8,6.8,0,1,0-10.2-8.9Z" transform="translate(-214.032 -58.471)" fill="#d1462d" style="mix-blend-mode: multiply;isolation: isolate"/>
        <path id="Trazado_21361" data-name="Trazado 21361" d="M225.563,69.743a6.806,6.806,0,0,1-8.308-10.493,6.805,6.805,0,1,0,9.3,9.844A6.626,6.626,0,0,1,225.563,69.743Z" transform="translate(-214.62 -57.808)" fill="#f27458" style="mix-blend-mode: screen;isolation: isolate"/>
      </g>
    </g>
    <text id="Digital" transform="translate(1142 7194)" fill="#73e3d2" font-size="25" font-family="Helvetica-Bold, Helvetica" font-weight="700"><tspan x="-38.196" y="0">Digital</tspan></text>
  </g>
</svg>
