<svg xmlns="http://www.w3.org/2000/svg" width="245" height="245" viewBox="0 0 245 245">
  <g id="Grupo_19113" data-name="Grupo 19113" transform="translate(-541 -7951)">
    <g id="Grupo_18771" data-name="Grupo 18771">
      <g id="Elipse_635" data-name="Elipse 635" transform="translate(541 7951)" fill="#fff" stroke="#2643a2" stroke-width="3">
        <circle cx="122.5" cy="122.5" r="122.5" stroke="none"/>
        <circle cx="122.5" cy="122.5" r="121" fill="none"/>
      </g>
      <g id="Grupo_10220" data-name="Grupo 10220" transform="translate(538.926 7705.67)">
        <rect id="Rectángulo_2219" data-name="Rectángulo 2219" width="66.665" height="113.331" transform="translate(91.286 309)" fill="#e9e5d9"/>
        <rect id="Rectángulo_2220" data-name="Rectángulo 2220" width="106.664" height="59.999" transform="translate(154.618 312.333) rotate(90)" fill="#0c5b6d"/>
        <rect id="Rectángulo_2221" data-name="Rectángulo 2221" width="59.999" height="1.667" transform="translate(94.619 317.333)" fill="#e9e5d9"/>
        <rect id="Rectángulo_2222" data-name="Rectángulo 2222" width="59.999" height="1.667" transform="translate(94.619 324)" fill="#e9e5d9"/>
        <rect id="Rectángulo_2223" data-name="Rectángulo 2223" width="59.999" height="1.667" transform="translate(94.619 330.666)" fill="#e9e5d9"/>
        <rect id="Rectángulo_2224" data-name="Rectángulo 2224" width="59.999" height="1.667" transform="translate(94.619 337.333)" fill="#e9e5d9"/>
        <rect id="Rectángulo_2225" data-name="Rectángulo 2225" width="59.999" height="1.667" transform="translate(94.619 343.999)" fill="#e9e5d9"/>
        <rect id="Rectángulo_2226" data-name="Rectángulo 2226" width="59.999" height="1.667" transform="translate(94.619 350.666)" fill="#e9e5d9"/>
        <rect id="Rectángulo_2227" data-name="Rectángulo 2227" width="59.999" height="1.667" transform="translate(94.619 357.332)" fill="#e9e5d9"/>
        <rect id="Rectángulo_2228" data-name="Rectángulo 2228" width="59.999" height="1.667" transform="translate(94.619 363.999)" fill="#e9e5d9"/>
        <rect id="Rectángulo_2229" data-name="Rectángulo 2229" width="59.999" height="1.667" transform="translate(94.619 370.665)" fill="#e9e5d9"/>
        <rect id="Rectángulo_2230" data-name="Rectángulo 2230" width="59.999" height="1.667" transform="translate(94.619 377.332)" fill="#e9e5d9"/>
        <rect id="Rectángulo_2231" data-name="Rectángulo 2231" width="59.999" height="1.667" transform="translate(94.619 383.998)" fill="#e9e5d9"/>
        <rect id="Rectángulo_2232" data-name="Rectángulo 2232" width="59.999" height="1.667" transform="translate(94.619 390.665)" fill="#e9e5d9"/>
        <rect id="Rectángulo_2233" data-name="Rectángulo 2233" width="59.999" height="1.667" transform="translate(94.619 397.331)" fill="#e9e5d9"/>
        <rect id="Rectángulo_2234" data-name="Rectángulo 2234" width="106.664" height="1.667" transform="translate(107.952 312.333) rotate(90)" fill="#e9e5d9"/>
        <rect id="Rectángulo_2235" data-name="Rectángulo 2235" width="106.664" height="1.667" transform="translate(142.951 312.333) rotate(90)" fill="#e9e5d9"/>
        <rect id="Rectángulo_2236" data-name="Rectángulo 2236" width="33.333" height="73.332" transform="translate(157.951 348.999)" fill="#d8d0bc"/>
        <rect id="Rectángulo_2237" data-name="Rectángulo 2237" width="11.666" height="6.667" transform="translate(161.284 352.332)" fill="#0c5b6d"/>
        <rect id="Rectángulo_2238" data-name="Rectángulo 2238" width="11.666" height="6.667" transform="translate(176.284 352.332)" fill="#0c5b6d"/>
        <rect id="Rectángulo_2239" data-name="Rectángulo 2239" width="11.666" height="6.667" transform="translate(161.284 362.332)" fill="#0c5b6d"/>
        <rect id="Rectángulo_2240" data-name="Rectángulo 2240" width="11.666" height="6.667" transform="translate(176.284 362.332)" fill="#0c5b6d"/>
        <rect id="Rectángulo_2241" data-name="Rectángulo 2241" width="11.666" height="6.667" transform="translate(161.284 372.332)" fill="#0c5b6d"/>
        <rect id="Rectángulo_2242" data-name="Rectángulo 2242" width="11.666" height="6.667" transform="translate(176.284 372.332)" fill="#0c5b6d"/>
        <rect id="Rectángulo_2243" data-name="Rectángulo 2243" width="11.666" height="6.667" transform="translate(161.284 382.332)" fill="#0c5b6d"/>
        <rect id="Rectángulo_2244" data-name="Rectángulo 2244" width="11.666" height="6.667" transform="translate(176.284 382.332)" fill="#0c5b6d"/>
        <rect id="Rectángulo_2245" data-name="Rectángulo 2245" width="11.666" height="6.667" transform="translate(161.284 392.331)" fill="#0c5b6d"/>
        <rect id="Rectángulo_2246" data-name="Rectángulo 2246" width="11.666" height="6.667" transform="translate(176.284 392.331)" fill="#0c5b6d"/>
        <rect id="Rectángulo_2247" data-name="Rectángulo 2247" width="11.666" height="6.667" transform="translate(161.284 402.331)" fill="#0c5b6d"/>
        <rect id="Rectángulo_2248" data-name="Rectángulo 2248" width="11.666" height="6.667" transform="translate(176.284 402.331)" fill="#0c5b6d"/>
        <rect id="Rectángulo_2249" data-name="Rectángulo 2249" width="36.666" height="3.333" transform="translate(157.951 412.331)" fill="#e9e5d9"/>
        <rect id="Rectángulo_2250" data-name="Rectángulo 2250" width="36.666" height="3.333" transform="translate(157.951 345.666)" fill="#e9e5d9"/>
        <rect id="Rectángulo_2251" data-name="Rectángulo 2251" width="1.667" height="63.332" transform="translate(157.951 348.999)" fill="#e6e7e8" style="mix-blend-mode: multiply;isolation: isolate"/>
        <rect id="Rectángulo_2252" data-name="Rectángulo 2252" width="31.666" height="1.667" transform="translate(159.618 348.999)" fill="#e6e7e8" style="mix-blend-mode: multiply;isolation: isolate"/>
        <rect id="Rectángulo_2253" data-name="Rectángulo 2253" width="33.333" height="73.332" transform="translate(91.286 422.331) rotate(180)" fill="#d8d0bc"/>
        <rect id="Rectángulo_2254" data-name="Rectángulo 2254" width="11.666" height="6.667" transform="translate(87.953 358.999) rotate(180)" fill="#0c5b6d"/>
        <rect id="Rectángulo_2255" data-name="Rectángulo 2255" width="11.666" height="6.667" transform="translate(72.953 358.999) rotate(180)" fill="#0c5b6d"/>
        <rect id="Rectángulo_2256" data-name="Rectángulo 2256" width="11.666" height="6.667" transform="translate(87.953 368.999) rotate(180)" fill="#0c5b6d"/>
        <rect id="Rectángulo_2257" data-name="Rectángulo 2257" width="11.666" height="6.667" transform="translate(72.953 368.999) rotate(180)" fill="#0c5b6d"/>
        <rect id="Rectángulo_2258" data-name="Rectángulo 2258" width="11.666" height="6.667" transform="translate(87.953 378.998) rotate(180)" fill="#0c5b6d"/>
        <rect id="Rectángulo_2259" data-name="Rectángulo 2259" width="11.666" height="6.667" transform="translate(72.953 378.998) rotate(180)" fill="#0c5b6d"/>
        <rect id="Rectángulo_2260" data-name="Rectángulo 2260" width="11.666" height="6.667" transform="translate(87.953 388.998) rotate(180)" fill="#0c5b6d"/>
        <rect id="Rectángulo_2261" data-name="Rectángulo 2261" width="11.666" height="6.667" transform="translate(72.953 388.998) rotate(180)" fill="#0c5b6d"/>
        <rect id="Rectángulo_2262" data-name="Rectángulo 2262" width="11.666" height="6.667" transform="translate(87.953 398.998) rotate(180)" fill="#0c5b6d"/>
        <rect id="Rectángulo_2263" data-name="Rectángulo 2263" width="11.666" height="6.667" transform="translate(72.953 398.998) rotate(180)" fill="#0c5b6d"/>
        <rect id="Rectángulo_2264" data-name="Rectángulo 2264" width="11.666" height="6.667" transform="translate(87.953 408.998) rotate(180)" fill="#0c5b6d"/>
        <rect id="Rectángulo_2265" data-name="Rectángulo 2265" width="11.666" height="6.667" transform="translate(72.953 408.998) rotate(180)" fill="#0c5b6d"/>
        <rect id="Rectángulo_2266" data-name="Rectángulo 2266" width="36.666" height="3.333" transform="translate(91.286 415.664) rotate(180)" fill="#e9e5d9"/>
        <rect id="Rectángulo_2267" data-name="Rectángulo 2267" width="36.666" height="3.333" transform="translate(91.286 348.999) rotate(180)" fill="#e9e5d9"/>
        <rect id="Rectángulo_2268" data-name="Rectángulo 2268" width="1.667" height="63.332" transform="translate(91.286 412.331) rotate(180)" fill="#e6e7e8" style="mix-blend-mode: multiply;isolation: isolate"/>
        <rect id="Rectángulo_2269" data-name="Rectángulo 2269" width="31.666" height="1.667" transform="translate(89.619 350.666) rotate(180)" fill="#e6e7e8" style="mix-blend-mode: multiply;isolation: isolate"/>
        <rect id="Rectángulo_2270" data-name="Rectángulo 2270" width="73.332" height="5" transform="translate(87.953 304)" fill="#d8d0bc"/>
        <rect id="Rectángulo_2271" data-name="Rectángulo 2271" width="139.997" height="3.333" transform="translate(54.62 422.331)" fill="#e9e5d9"/>
        <rect id="Rectángulo_2272" data-name="Rectángulo 2272" width="146.663" height="3.333" transform="translate(51.287 425.664)" fill="#d8d0bc"/>
        <rect id="Rectángulo_2273" data-name="Rectángulo 2273" width="151.089" height="3.333" transform="translate(49.074 428.997)" fill="#0c5b6d"/>
      </g>
    </g>
  </g>
</svg>
