<svg xmlns="http://www.w3.org/2000/svg" width="77" height="77" viewBox="0 0 77 77">
  <g id="Grupo_18762" data-name="Grupo 18762" transform="translate(-669 -5119)">
    <g id="Grupo_18700" data-name="Grupo 18700" transform="translate(13 -49)">
      <g id="Elipse_1099" data-name="Elipse 1099" transform="translate(656 5168)" fill="#f56b6b" stroke="#2643a2" stroke-width="3">
        <circle cx="38.5" cy="38.5" r="38.5" stroke="none"/>
        <circle cx="38.5" cy="38.5" r="37" fill="none"/>
      </g>
      <g id="Grupo_18689" data-name="Grupo 18689" transform="translate(-1988.335 4098.111)">
        <g id="Grupo_18687" data-name="Grupo 18687" transform="translate(2663.95 1084.472)">
          <g id="Grupo_18686" data-name="Grupo 18686">
            <path id="Trazado_34821" data-name="Trazado 34821" d="M2689.064,1132.89l-25.115-10.6.123-.731c.1-.6,2.443-14.726,5.2-22.281,2.642-7.219,11.049-15.419,13.3-14.772.566.168,1.672.484,1.437,8.271,3.5-6.088,4.691-6.088,5.124-6.088a1.65,1.65,0,0,1,1.236.568c1.75,1.855,1.36,8.284,1.36,8.348a17.638,17.638,0,0,1-.915,4.592c1.587,1.23,5.149,4.258,5.149,6.775,0,.6-.031,1.185-.086,1.807l-.12,1.3-1.2-.537a.394.394,0,0,0-.469.1l5.58,7.808a2.94,2.94,0,0,1,2.764,3.2c0,1.883-1.016,3.789-3.276,3.886l-7.67,2.892Zm-23.02-11.752,22.054,9.309,2-4.493,5.69-2.151c-1.322-.619-2.375-1.595-2.375-2.828,0-1.717,2.06-2.946,4.05-3.384l-5.349-7.481.015-.334a2.278,2.278,0,0,1,1.947-2.117c.007-.229.015-.459.015-.683,0-1.455-2.9-4.2-4.956-5.7l-.621-.446.318-.7a14.563,14.563,0,0,0,1.02-4.643c.191-2.994-.235-6.044-.742-6.824-1.007.859-3.524,4.966-5.408,8.6l-2.063,3.973.293-4.464c.273-4.054.311-8.819-.056-10.3-1.97.971-8.437,6.906-10.841,13.449C2668.688,1106.356,2666.57,1118.108,2666.044,1121.138Zm32.935-1.847c-1.794,0-3.689,1.1-3.689,1.684s1.9,1.689,3.689,1.689c1.427,0,1.583-1.407,1.583-2.01C2700.562,1119.79,2700.307,1119.29,2698.98,1119.29Zm-13.22-6.635a3.315,3.315,0,1,1,3.315-3.315A3.32,3.32,0,0,1,2685.76,1112.655Zm0-4.752a1.438,1.438,0,1,0,1.44,1.437A1.444,1.444,0,0,0,2685.76,1107.9Z" transform="translate(-2663.95 -1084.472)" fill="#fff"/>
          </g>
        </g>
        <g id="Grupo_18688" data-name="Grupo 18688" transform="translate(2682.73 1095.534)">
          <path id="Trazado_34822" data-name="Trazado 34822" d="M2674.392,1092.2a13.989,13.989,0,0,0-3.072-1.621l.634-1.769a16.7,16.7,0,0,1,3.54,1.865Z" transform="translate(-2671.32 -1088.813)" fill="#fff"/>
        </g>
      </g>
    </g>
  </g>
</svg>
