<svg xmlns="http://www.w3.org/2000/svg" width="77" height="77" viewBox="0 0 77 77">
  <g id="Grupo_18692" data-name="Grupo 18692" transform="translate(-646 -3930)">
    <g id="Elipse_1094" data-name="Elipse 1094" transform="translate(646 3930)" fill="#f56b6b" stroke="#2643a2" stroke-width="3">
      <circle cx="38.5" cy="38.5" r="38.5" stroke="none"/>
      <circle cx="38.5" cy="38.5" r="37" fill="none"/>
    </g>
    <g id="Grupo_18678" data-name="Grupo 18678" transform="translate(-1375.656 2333.201)">
      <g id="Grupo_18674" data-name="Grupo 18674" transform="translate(2048.759 1634.551)">
        <path id="Trazado_34810" data-name="Trazado 34810" d="M2054.034,1645.878l-.967-2.24a23.033,23.033,0,0,0-2.75-5.061,10.938,10.938,0,1,1,7.493-.018,22.966,22.966,0,0,0-2.8,5.084Zm.005-26.408a8.82,8.82,0,0,0-2.94,17.137c.774.272,1.762,1.64,2.948,4.079,1.2-2.443,2.2-3.817,2.977-4.1a8.819,8.819,0,0,0-2.985-17.119Z" transform="translate(-2043.102 -1617.351)" fill="#fff"/>
      </g>
      <g id="Grupo_18675" data-name="Grupo 18675" transform="translate(2059.099 1612.652)">
        <path id="Trazado_34811" data-name="Trazado 34811" d="M2048.076,1630.619a1.058,1.058,0,0,1-.2-2.1c.1-.018,10.272-2.073,14.929-6.728,2.142-2.142,3.352-4.089,3.6-5.79a3.92,3.92,0,0,0-1.244-3.531c-2.312-2.311-5.449-1.516-9.322,2.359a12.811,12.811,0,0,0-1.072,1.226,1.058,1.058,0,0,1-1.669-1.3,14.952,14.952,0,0,1,1.244-1.421c6.384-6.387,10.457-4.221,12.317-2.361a6.067,6.067,0,0,1,1.84,5.343c-.319,2.158-1.732,4.509-4.2,6.973-5.135,5.135-15.915,7.288-16.025,7.312A1.035,1.035,0,0,1,2048.076,1630.619Z" transform="translate(-2047.017 -1609.06)" fill="#fff"/>
      </g>
      <g id="Grupo_18676" data-name="Grupo 18676" transform="translate(2039.656 1612.651)">
        <path id="Trazado_34812" data-name="Trazado 34812" d="M2060.148,1630.62a.85.85,0,0,1-.2-.021c-.108-.021-10.882-2.168-16.023-7.309-2.467-2.464-3.88-4.815-4.2-6.973a6.058,6.058,0,0,1,1.841-5.343c1.854-1.86,5.93-4.028,12.317,2.361a15.985,15.985,0,0,1,1.239,1.418,1.058,1.058,0,1,1-1.672,1.3,13.539,13.539,0,0,0-1.064-1.22c-3.875-3.873-7.016-4.667-9.324-2.356a3.921,3.921,0,0,0-1.242,3.531c.249,1.7,1.464,3.648,3.6,5.79,4.67,4.67,14.824,6.707,14.926,6.728a1.059,1.059,0,0,1-.2,2.1Z" transform="translate(-2039.656 -1609.06)" fill="#fff"/>
      </g>
      <g id="Grupo_18677" data-name="Grupo 18677" transform="translate(2053.114 1606.872)">
        <path id="Trazado_34813" data-name="Trazado 34813" d="M2051.79,1634.221a1.065,1.065,0,0,1-.88-.47c-.253-.377-6.16-9.295-6.16-16.5,0-9.028,4.411-10.378,7.04-10.378s7.042,1.35,7.042,10.378c0,7.206-5.909,16.123-6.163,16.5A1.063,1.063,0,0,1,2051.79,1634.221Zm0-25.228c-3.265,0-4.921,2.779-4.921,8.257,0,4.979,3.3,11.16,4.921,13.9,1.622-2.742,4.923-8.925,4.923-13.9C2056.714,1611.772,2055.058,1608.993,2051.79,1608.993Z" transform="translate(-2044.751 -1606.872)" fill="#fff"/>
      </g>
    </g>
  </g>
</svg>
