<svg xmlns="http://www.w3.org/2000/svg" width="77" height="77" viewBox="0 0 77 77">
  <g id="Grupo_18767" data-name="Grupo 18767" transform="translate(-669 -5751)">
    <g id="Grupo_18703" data-name="Grupo 18703" transform="translate(13 -118)">
      <g id="Elipse_1089" data-name="Elipse 1089" transform="translate(656 5869)" fill="#f56b6b" stroke="#2643a2" stroke-width="3">
        <circle cx="38.5" cy="38.5" r="38.5" stroke="none"/>
        <circle cx="38.5" cy="38.5" r="37" fill="none"/>
      </g>
      <path id="Trazado_34791" data-name="Trazado 34791" d="M128.763,441.866,116.81,429.912a.8.8,0,0,0-1.129,0l-1.619,1.623a.8.8,0,0,0,0,1.125l3.867,3.863-10.8,10.805a.876.876,0,0,0-.15.226.7.7,0,0,0-.222.15l-3.422,3.415-4.989-4.989a.8.8,0,0,0-1.129,0l-2.185,2.185a.8.8,0,0,0,0,1.125l.186.186-6.683,6.686a.813.813,0,0,0-.232.507c0,.01-.115,1.564-.115,3.562a34.373,34.373,0,0,0,.285,4.734,6.946,6.946,0,0,0,1.416,3.8,6.343,6.343,0,0,0,3.461,1.341,30.415,30.415,0,0,0,4.367.278c2.267,0,4.138-.167,4.151-.167a.811.811,0,0,0,.494-.232l6.683-6.683.19.19a.8.8,0,0,0,1.125,0l2.185-2.185a.8.8,0,0,0,0-1.125l-4.992-5,3.419-3.422a.752.752,0,0,0,.154-.222.723.723,0,0,0,.222-.151l10.8-10.8,3.863,3.867a.8.8,0,0,0,1.125,0l1.623-1.623a.792.792,0,0,0,.236-.563A.771.771,0,0,0,128.763,441.866Zm-30.986,5.954,4.426,4.429-1.057,1.057-4.433-4.426Zm3.664,20.988c-.6.043-2.051.141-3.726.141a28.238,28.238,0,0,1-4.128-.262,5.155,5.155,0,0,1-2.578-.893,5.883,5.883,0,0,1-.965-2.908,33.29,33.29,0,0,1-.268-4.5c0-1.433.065-2.63.1-3.157l6.464-6.471,3.68,3.68-2.83,2.826a.9.9,0,0,0-.193.314.888.888,0,0,0-.029.36l.19,1.351.183,1.273a.751.751,0,0,0,.173.379.764.764,0,0,0,.478.291l2.722.474a.94.94,0,0,0,.134.01l.02,0a.789.789,0,0,0,.262-.052l.046-.02a.709.709,0,0,0,.236-.157l2.83-2.83,3.677,3.677Zm8.355-6.85-4.433-4.433,1.063-1.06,4.429,4.433Zm-3.932-7.177h0l-2.188,2.185,0,0-3.1,3.1-1.744-.3-.232-1.652L101.706,455h0l0,0h0l2.185-2.185h0l3.422-3.422,1.966,1.969Zm20.714-11.858-3.867-3.863a.8.8,0,0,0-1.125,0l-11.178,11.175-1.969-1.969,11.175-11.178a.779.779,0,0,0,.236-.559.793.793,0,0,0-.236-.563L115.75,432.1l.5-.5,10.828,10.828Z" transform="translate(587.231 5455.565)" fill="#fff"/>
    </g>
  </g>
</svg>
