<svg xmlns="http://www.w3.org/2000/svg" width="245" height="245" viewBox="0 0 245 245">
  <g id="Grupo_19114" data-name="Grupo 19114" transform="translate(-1139 -7951)">
    <g id="Grupo_18772" data-name="Grupo 18772">
      <g id="Elipse_636" data-name="Elipse 636" transform="translate(1139 7951)" fill="#fff" stroke="#2643a2" stroke-width="3">
        <circle cx="122.5" cy="122.5" r="122.5" stroke="none"/>
        <circle cx="122.5" cy="122.5" r="121" fill="none"/>
      </g>
      <g id="Grupo_10231" data-name="Grupo 10231" transform="translate(1047.028 7899.584)">
        <g id="Grupo_10223" data-name="Grupo 10223" transform="translate(190.006 132.434)">
          <g id="Grupo_10221" data-name="Grupo 10221" transform="translate(0 82.307)">
            <path id="Trazado_19696" data-name="Trazado 19696" d="M169.2,196.367l.044-.017,12.231-4.171a1.441,1.441,0,0,0,.79-.82,1.467,1.467,0,0,0-.018-1.132l-.008-.027c-.325-.756-.374-1.433-1.131-1.108-1.982,1.013-10.368,3.687-12.749,4.443a1.458,1.458,0,0,0-1.123,2.027l.008.027A1.487,1.487,0,0,0,169.2,196.367Z" transform="translate(-167.002 -185.264)" fill="#ffd2a1"/>
            <path id="Trazado_19697" data-name="Trazado 19697" d="M167.209,198.936a1.486,1.486,0,0,0,1.993.666l10.811-5.4a1.488,1.488,0,0,0,.666-1.994l-.014-.027a1.487,1.487,0,0,0-1.994-.666l-10.809,5.4a1.486,1.486,0,0,0-.666,1.994Z" transform="translate(-167.038 -184.067)" fill="#ffd2a1"/>
            <path id="Rect치ngulo_2274" data-name="Rect치ngulo 2274" d="M.984,0h11.95a.985.985,0,0,1,.985.985V2.017A.986.986,0,0,1,12.933,3H.983A.983.983,0,0,1,0,2.02V.984A.984.984,0,0,1,.984,0Z" transform="matrix(0.878, -0.479, 0.479, 0.878, 1.987, 16.047)" fill="#ffd2a1"/>
            <path id="Trazado_19698" data-name="Trazado 19698" d="M180.754,195.4l-.015-.023a1.321,1.321,0,0,0-1.83-.371l-6.609,4.375a1.319,1.319,0,0,0-.371,1.83l.014.023a1.321,1.321,0,0,0,1.83.371l6.609-4.375A1.321,1.321,0,0,0,180.754,195.4Z" transform="translate(-164.658 -182.319)" fill="#ffd2a1"/>
            <path id="Trazado_19699" data-name="Trazado 19699" d="M187.013,196.675,193,194.559l-2.174-7.026-5.127,2.1c-.833-1.325-8.255-.328-8.255-.328-1.239.358-2.455,1.345-4.2,2.351a22.35,22.35,0,0,0,4.955,10.2s2.841-.906,3.773-1.25C185.367,199.354,186.439,197.882,187.013,196.675Z" transform="translate(-163.875 -186.017)" fill="#f2c799"/>
            <path id="Trazado_19700" data-name="Trazado 19700" d="M171.407,188.514v.032c0,.867.7,1.3,1.567,1.384a43.186,43.186,0,0,0,5.007-.128c-.024.045,2.162,5.714,6.193,5.26l.015,0,9.336-2.037-2.261-5.7-5.557,1.747c-1.407-2.151-5.161-2.524-5.8-2.538-1.261-.026-3.88.651-6.463.447C171.633,186.834,171.4,187.648,171.407,188.514Z" transform="translate(-164.811 -186.529)" fill="#ffd2a1"/>
          </g>
          <path id="Trazado_19701" data-name="Trazado 19701" d="M199.39,191.567c1.1-5.3,2.464-20.222,3.895-24.6,1.058-3.235,1.156-3.662,3.43-6.2a12.038,12.038,0,0,1,3.613-2.749.118.118,0,0,1,.047-.026,12.613,12.613,0,0,1,6.024-1.342c7.729,8.039,6.609,17.372,3.516,27.575-.139.483-.29.957-.445,1.436-.02.053-.03.106-.05.159-.1.309-.2.62-.3.936-1.335,4.135-2.914,8.4-4.272,12.776a7.212,7.212,0,0,1-4.521,4.991l-11.06-12.933Z" transform="translate(-150.613 -119.452)" fill="#575756"/>
          <path id="Trazado_19702" data-name="Trazado 19702" d="M190,197.738l-3.058-11.093-6.26,1.563L183.6,199.5Z" transform="translate(-160.084 -104.162)" fill="#ededed"/>
          <path id="Trazado_19703" data-name="Trazado 19703" d="M185.6,202.971a2.519,2.519,0,0,0,.539-.075c3.148-.682,18.92-5.433,25.927-7.745a31.278,31.278,0,0,0,3.291-1.2c.5-.312.968-.6,1.39-.9l-1.8-11.448-6.759-1.83c-4.466,1.679-21.042,9.535-26.2,10.882C183.253,195.782,184.52,199.546,185.6,202.971Z" transform="translate(-159.416 -107.662)" fill="#575756"/>
          <path id="Trazado_19704" data-name="Trazado 19704" d="M185.605,193.653a.93.93,0,1,0,.331-1.273A.929.929,0,0,0,185.605,193.653Z" transform="translate(-157.641 -101.305)" fill="#fff"/>
          <path id="Trazado_19705" data-name="Trazado 19705" d="M187.693,193.141a.93.93,0,1,0,.332-1.273A.931.931,0,0,0,187.693,193.141Z" transform="translate(-156.576 -101.565)" fill="#fff"/>
          <path id="Trazado_19706" data-name="Trazado 19706" d="M184.742,209.106c3.148-.682,18.92-5.433,25.927-7.745l2.882-33.769-5.411,28.763Z" transform="translate(-158.015 -113.872)" fill="#1d1d1b" opacity="0.2"/>
          <path id="Trazado_19707" data-name="Trazado 19707" d="M255.688,229.147H199.644c.74-8.613,14.63-69.9,14.63-69.9l6.094-.969,18.329-2.948S255.811,221.348,255.688,229.147Z" transform="translate(-150.42 -120.123)" fill="#fff"/>
          <path id="Trazado_19708" data-name="Trazado 19708" d="M229.167,158.678,227.659,143.4c-6.519.768-15.255,1.647-16.8,1.534,0,0,1.008,11.113,1.025,15.922C210.855,173.369,225.316,172.9,229.167,158.678Z" transform="translate(-144.707 -126.199)" fill="#f2c799"/>
          <path id="Trazado_19709" data-name="Trazado 19709" d="M228.862,155.328l15.48,7.354c.444,4.932.71,9.917,1.153,15.27,1.925,23.535,2.914,43.4,2.79,51.2H218.942c.325-30.622,1.335-59.714,9.106-73.688Z" transform="translate(-140.585 -120.123)" fill="#575756"/>
          <path id="Trazado_19710" data-name="Trazado 19710" d="M206.958,162.435l.941-.571,6.375-3.895.874-.139-1.827,70.04H199.644C200.384,219.259,206.854,166.812,206.958,162.435Z" transform="translate(-150.42 -118.847)" fill="#575756"/>
          <path id="Trazado_19711" data-name="Trazado 19711" d="M217.466,167.561l-3.946-.408-1.306-7.847,6.623.253Z" transform="translate(-144.014 -118.095)" fill="#e94e1b"/>
          <path id="Trazado_19712" data-name="Trazado 19712" d="M216.439,161.506,211,167.747c-.829-3.792-1.917-6.91-1.486-9.216l3.137-3.407A5.82,5.82,0,0,0,216.439,161.506Z" transform="translate(-145.44 -120.227)" fill="#dadada"/>
          <path id="Trazado_19713" data-name="Trazado 19713" d="M214.068,162.875l6.725,7.779c4.589-4.506,9.357-9.512,10.555-13.851l-3.981-4.366C227.373,156.345,219.266,163.086,214.068,162.875Z" transform="translate(-143.069 -121.596)" fill="#dadada"/>
          <path id="Trazado_19714" data-name="Trazado 19714" d="M217.706,164.912l-3.946-.408-2.018,36.218,4.024,6.324,4.306-5.1Z" transform="translate(-144.255 -115.446)" fill="#cf4518"/>
          <path id="Trazado_19715" data-name="Trazado 19715" d="M219.424,202.042c3.357-11.962,11.644-34.015,11.644-34.015s-5.275-2.74-4.9-3.158l5.794.205-1.048-7.538-5.318-4.419C221.4,166.968,219.072,186.747,219.424,202.042Z" transform="translate(-140.357 -121.249)" fill="#3c3c3b"/>
          <path id="Trazado_19716" data-name="Trazado 19716" d="M211.015,200.261c-3.357-11.962-5.491-34.369-5.491-34.369s4.982-1.837,4.61-2.255l-4.2-.51,3.228-5.518,4.413-1.723C212.151,169.708,211.366,184.966,211.015,200.261Z" transform="translate(-147.424 -119.838)" fill="#3c3c3b"/>
          <g id="Grupo_10222" data-name="Grupo 10222" transform="translate(57.867)">
            <path id="Trazado_19717" data-name="Trazado 19717" d="M233.119,153.74c1.507-2.874,1.618-4.185,2.041-7.443,1.011-14.933-7.728-13.7-13.247-14.253-6.476-.359-13.723,1.781-14.34,13.262a16.383,16.383,0,0,0,.54,1.842L205.6,151.28a2.66,2.66,0,0,0,1.479,3.578l-.124,4.372c0,4.1,2.34,7.828,5.731,7.856,8-.989,12.273-4.052,12.44-12.636C227.509,154.407,232.014,155.849,233.119,153.74Z" transform="translate(-205.369 -132.008)" fill="#ffd2a1"/>
            <path id="Trazado_19718" data-name="Trazado 19718" d="M228.992,138.076l-8.916-.4a3.8,3.8,0,0,0-3.955,3.474c-.162,1.88-.22,4.058-.377,6.193,1.467.263,6.306.313,6.306.313s-2.148,8.9,4.2,8.286c5.3-.74,4.733-12.855,4.438-16.26A1.769,1.769,0,0,0,228.992,138.076Z" transform="translate(-200.082 -129.12)" fill="#3c3c3b"/>
            <path id="Trazado_19719" data-name="Trazado 19719" d="M222.85,145.8c-.242,2.332-2.485,4.822-4.01,4.665s-1.451-2.13-1.233-4.464c.143-1.544.267-3.678,1.99-3.993C221.1,141.733,223.2,142.381,222.85,145.8Z" transform="translate(-199.192 -126.94)" fill="#ffd2a1"/>
          </g>
          <path id="Trazado_19720" data-name="Trazado 19720" d="M244.895,198.912l-3.35,18.133L205.3,221.372H255.24l-.831-47.892-13.76-2.9Z" transform="translate(-147.539 -112.348)" fill="#1d1d1b" opacity="0.2"/>
          <path id="Trazado_19721" data-name="Trazado 19721" d="M252.748,203.343c-1.736-9.956-4.283-23.869-6.522-34.058a15.131,15.131,0,0,0-4.852-7.914c-2.968-2.424-6.454-1.507-9.053,1.35a14.431,14.431,0,0,0-3.921,10.646c.137,1.81,8.225,30.422,8.225,30.422s-4.085,20.678-4.639,22.987l14.882.036C247.083,226.189,252.85,203.937,252.748,203.343Z" transform="translate(-135.783 -117.753)" fill="#575756"/>
        </g>
        <g id="Grupo_10230" data-name="Grupo 10230" transform="translate(121.972 131.172)">
          <g id="Grupo_10224" data-name="Grupo 10224" transform="translate(78.884 44.395)">
            <path id="Trazado_19722" data-name="Trazado 19722" d="M183.233,182.147l-3.439,2.862c-1.852-2.153-3.641-4.355-5.515-6.491l3.332-2.773-.22-.779a4.962,4.962,0,0,1,.777-3.921c.211-.291,3.214-3.7,3.351-3.866l0,0,1.353,1.715,3.78-3.146c3.111,3.444,5.041,6,7.627,9.373l-4,3.931C187.23,181.957,185.45,182.522,183.233,182.147Z" transform="translate(-174.197 -157.947)" fill="#f2c799"/>
            <path id="Trazado_19723" data-name="Trazado 19723" d="M182.141,173.5a1.884,1.884,0,0,1-2.56-.155l-.208-.24a1.723,1.723,0,0,1,.18-2.431l12.655-9.7a1.609,1.609,0,0,1,2.269.168l.154.166a1.5,1.5,0,0,1-.157,2.118Z" transform="translate(-171.815 -160.579)" fill="#f2c799"/>
            <path id="Trazado_19724" data-name="Trazado 19724" d="M184.72,171.747a1.835,1.835,0,0,1-1.233.465,1.506,1.506,0,0,1-1.12-.506l-.189-.216a1.633,1.633,0,0,1,.264-2.284l3.3-2.906a1.7,1.7,0,0,1,1.15-.435,1.411,1.411,0,0,1,1.046.473l.386.445a1.42,1.42,0,0,1-.229,1.99Z" transform="translate(-170.352 -157.886)" fill="#ffd2a1"/>
            <path id="Trazado_19725" data-name="Trazado 19725" d="M185.962,173.374a1.665,1.665,0,0,1-2.337-.06l-.189-.219a1.487,1.487,0,0,1-.343-1.164,1.793,1.793,0,0,1,.624-1.14l2.646-2.269a1.554,1.554,0,0,1,2.181.057l.389.448a1.3,1.3,0,0,1,.3,1.016,1.574,1.574,0,0,1-.543.993Z" transform="translate(-169.711 -156.744)" fill="#ffd2a1"/>
            <path id="Trazado_19726" data-name="Trazado 19726" d="M187.079,174.48a1.345,1.345,0,0,1-1.892-.163l-.163-.187a1.335,1.335,0,0,1,.115-1.889l2.03-1.747a1.259,1.259,0,0,1,1.766.152l.335.388a1.164,1.164,0,0,1-.1,1.647Z" transform="translate(-168.893 -155.675)" fill="#ffd2a1"/>
            <path id="Trazado_19727" data-name="Trazado 19727" d="M185.876,170.386l-1.784-.035a.983.983,0,0,0-.767.341l-.391.46a5.54,5.54,0,0,1-2.061,7.388l2.387,3.223-3.024,3.338c-2.029-2.332-3.969-4.739-6.011-7.061l2.011-1.546,1.4-1.134-.22-.779a4.962,4.962,0,0,1,.777-3.921c.211-.291,3.214-3.7,3.351-3.866l0,0a1.209,1.209,0,0,1,.826-.294l2.861.066,1.925.047a1.1,1.1,0,0,1,1.081,1.113l0,.362a2.322,2.322,0,0,1-2.364,2.3Z" transform="translate(-174.225 -157.563)" fill="#ffd2a1"/>
          </g>
          <path id="Trazado_19728" data-name="Trazado 19728" d="M174.893,191.591c-1.1-5.3-2.464-20.222-3.893-24.594-1.06-3.235-1.158-3.664-3.431-6.2a12.027,12.027,0,0,0-3.611-2.748.159.159,0,0,0-.047-.027,12.614,12.614,0,0,0-6.025-1.342c-7.728,8.04-6.608,17.372-3.516,27.575.139.485.29.957.445,1.437.021.053.03.1.05.157.1.311.2.62.3.936,1.335,4.136,2.914,8.406,4.271,12.776a7.214,7.214,0,0,0,4.521,4.992l11.06-12.935Z" transform="translate(-106.658 -118.178)" fill="#005b6b"/>
          <path id="Trazado_19729" data-name="Trazado 19729" d="M179.4,185.118l-6.817-9.27,5.1-3.948,7.062,9.284Z" transform="translate(-96.18 -110.415)" fill="#ededed"/>
          <path id="Trazado_19730" data-name="Trazado 19730" d="M188.772,182.958a2.561,2.561,0,0,1-.392.376c-2.485,2.049-15.981,11.493-22.136,15.563a30.945,30.945,0,0,1-2.976,1.845c-.557.2-1.072.386-1.57.534l-.2-11.33-.11-5.685c4.084-2.467,15.7-8.546,19.955-11.762C184.583,176.66,186.754,179.985,188.772,182.958Z" transform="translate(-101.886 -110.11)" fill="#005b6b"/>
          <path id="Trazado_19731" data-name="Trazado 19731" d="M177.863,179.336a.93.93,0,1,1-1.2-.527A.929.929,0,0,1,177.863,179.336Z" transform="translate(-94.402 -106.927)" fill="#fff"/>
          <path id="Trazado_19732" data-name="Trazado 19732" d="M176.17,180.66a.93.93,0,1,1-1.2-.528A.931.931,0,0,1,176.17,180.66Z" transform="translate(-95.266 -106.253)" fill="#fff"/>
          <path id="Trazado_19733" data-name="Trazado 19733" d="M188.342,185.109c-2.485,2.049-15.981,11.493-22.136,15.563l-4.749-8.951,1.143-22.705,6.439,25.4Z" transform="translate(-101.848 -111.885)" fill="#1d1d1b" opacity="0.2"/>
          <path id="Trazado_19734" data-name="Trazado 19734" d="M129.752,229.17H185.8c-.74-8.611-14.63-69.9-14.63-69.9l-6.094-.971-18.329-2.947S129.628,221.372,129.752,229.17Z" transform="translate(-118.007 -118.848)" fill="#fff"/>
          <path id="Trazado_19735" data-name="Trazado 19735" d="M143.534,158.7l1.508-15.275c6.519.77,15.255,1.649,16.8,1.534,0,0-1.007,11.114-1.025,15.924C161.846,173.394,147.385,172.925,143.534,158.7Z" transform="translate(-110.983 -124.925)" fill="#f2c799"/>
          <path id="Trazado_19736" data-name="Trazado 19736" d="M147.567,155.353l-15.48,7.352c-.444,4.932-.708,9.917-1.153,15.272-1.925,23.535-2.912,43.395-2.79,51.194h29.345c-.326-30.622-1.336-59.714-9.108-73.688Z" transform="translate(-118.832 -118.848)" fill="#005b6b"/>
          <path id="Trazado_19737" data-name="Trazado 19737" d="M164.8,162.461l-.941-.571L157.479,158l-.874-.14,1.827,70.04h13.677C171.369,219.284,164.9,166.837,164.8,162.461Z" transform="translate(-104.321 -117.573)" fill="#005b6b"/>
          <path id="Trazado_19738" data-name="Trazado 19738" d="M151.29,167.585l3.946-.408,1.306-7.847-6.623.253Z" transform="translate(-107.729 -116.821)" fill="#e94e1b"/>
          <path id="Trazado_19739" data-name="Trazado 19739" d="M152.451,161.531l5.441,6.241c.83-3.792,1.919-6.91,1.487-9.218l-3.137-3.406A5.823,5.823,0,0,1,152.451,161.531Z" transform="translate(-106.438 -118.953)" fill="#dadada"/>
          <path id="Trazado_19740" data-name="Trazado 19740" d="M158.285,162.9l-6.724,7.779c-4.591-4.508-9.358-9.512-10.557-13.853l3.981-4.366C144.98,156.37,153.087,163.11,158.285,162.9Z" transform="translate(-112.272 -120.322)" fill="#dadada"/>
          <path id="Trazado_19741" data-name="Trazado 19741" d="M151.625,164.936l3.946-.408,2.018,36.218-4.024,6.324-4.306-5.1Z" transform="translate(-108.065 -114.172)" fill="#cf4518"/>
          <path id="Trazado_19742" data-name="Trazado 19742" d="M151.338,202.067c-3.357-11.962-11.644-34.017-11.644-34.017s5.276-2.738,4.9-3.157l-5.794.2,1.046-7.536,5.318-4.42C149.362,166.994,151.69,186.771,151.338,202.067Z" transform="translate(-113.393 -119.976)" fill="#006f82"/>
          <path id="Trazado_19743" data-name="Trazado 19743" d="M158.221,200.286c3.357-11.962,5.492-34.37,5.492-34.37s-4.983-1.836-4.612-2.254l4.2-.51-3.228-5.519-4.413-1.721C157.085,169.733,157.87,184.991,158.221,200.286Z" transform="translate(-104.801 -118.564)" fill="#006f82"/>
          <g id="Grupo_10225" data-name="Grupo 10225" transform="translate(28.459)">
            <path id="Trazado_19744" data-name="Trazado 19744" d="M143.276,152.751c-1.178-3.025-1.143-4.339-1.2-7.624.657-14.953,9.2-12.76,14.749-12.69,6.476.364,12.551,4.816,12.776,14.776a16.5,16.5,0,0,1-.741,1.769l2.067,5.589a1.61,1.61,0,0,1-1.178,2.132l-1.436.373c-.041,1,.029,5.3.029,5.3-.122,2.533-1.268,6.466-4.641,6.117-9.712-1.016-13.354-5.6-12.563-14.151C148.777,154.037,144.14,154.97,143.276,152.751Z" transform="translate(-140.185 -130.604)" fill="#ffd2a1"/>
            <path id="Trazado_19745" data-name="Trazado 19745" d="M145.48,160.089c7.671,2.171,4.536-9.3,4.536-9.3s2.079,2.325,2.883,3.353c1.644,0,1.8.213,3.293.115.634-9.817-1.67-17.314,12.314-14.188,2.766-.444.314-9.416-12.5-8.869-7.483.32-13.738,4.1-14.8,11.513C140.53,147.369,140.162,153.56,145.48,160.089Z" transform="translate(-140.823 -131.172)" fill="#3c3c3b"/>
            <path id="Trazado_19746" data-name="Trazado 19746" d="M145.777,145.453c-.021,2.343,1.932,5.066,3.466,5.08s1.677-1.954,1.721-4.3c.03-1.55.143-3.685-1.534-4.189C147.963,141.605,145.806,142.014,145.777,145.453Z" transform="translate(-138.299 -125.704)" fill="#ffd2a1"/>
          </g>
          <path id="Trazado_19747" data-name="Trazado 19747" d="M139.688,191.691l20.554,15.289L178.083,221.4H128.14l.831-47.892,13.76-2.9Z" transform="translate(-118.828 -111.074)" fill="#1d1d1b" opacity="0.2"/>
          <g id="Grupo_10226" data-name="Grupo 10226" transform="translate(34.467 92.642)">
            <path id="Trazado_19748" data-name="Trazado 19748" d="M149.937,196.884l-.006-.036a1.7,1.7,0,0,1,1.629-1.89,53.168,53.168,0,0,0,11.164-2.337,1.812,1.812,0,0,1,2.236,1.091l.012.033a1.688,1.688,0,0,1-1.1,2.215,56.52,56.52,0,0,1-11.692,2.524A2.045,2.045,0,0,1,149.937,196.884Z" transform="translate(-142.199 -192.538)" fill="#f2c799"/>
            <rect id="Rect치ngulo_2275" data-name="Rect치ngulo 2275" width="9.452" height="8.629" transform="translate(0 11.461) rotate(-79.666)" fill="#ffd2a1"/>
            <path id="Trazado_19749" data-name="Trazado 19749" d="M153.172,195.9l.006-.032a1.614,1.614,0,0,1,1.876-1.3l12.838,2.341a1.613,1.613,0,0,1,1.3,1.876l-.006.032a1.611,1.611,0,0,1-1.876,1.3l-12.838-2.34A1.614,1.614,0,0,1,153.172,195.9Z" transform="translate(-140.552 -191.517)" fill="#f2c799"/>
            <path id="Trazado_19750" data-name="Trazado 19750" d="M155.819,198.567l.006-.032a1.613,1.613,0,0,1,1.877-1.3l5.913,1.078a1.613,1.613,0,0,1,1.3,1.876l0,.032a1.616,1.616,0,0,1-1.878,1.3l-5.912-1.078A1.614,1.614,0,0,1,155.819,198.567Z" transform="translate(-139.203 -190.156)" fill="#f2c799"/>
            <path id="Trazado_19751" data-name="Trazado 19751" d="M154.333,200.431l.006-.032a1.614,1.614,0,0,1,1.876-1.3l4.958.9a1.613,1.613,0,0,1,1.3,1.877l0,.032a1.614,1.614,0,0,1-1.876,1.3l-4.958-.9A1.615,1.615,0,0,1,154.333,200.431Z" transform="translate(-139.96 -189.207)" fill="#f2c799"/>
            <path id="Trazado_19752" data-name="Trazado 19752" d="M153.967,202.384l0-.029a1.435,1.435,0,0,1,1.667-1.153l4.4.8a1.434,1.434,0,0,1,1.152,1.667l0,.029a1.434,1.434,0,0,1-1.667,1.153l-4.4-.8A1.433,1.433,0,0,1,153.967,202.384Z" transform="translate(-140.145 -188.135)" fill="#f2c799"/>
            <path id="Trazado_19753" data-name="Trazado 19753" d="M148.241,201.069l.569-3.126a4.748,4.748,0,0,1,5.522-3.819l3.819.7-2.274,12.467-3.819-.7A4.746,4.746,0,0,1,148.241,201.069Z" transform="translate(-143.091 -191.77)" fill="#ffd2a1"/>
            <path id="Trazado_19754" data-name="Trazado 19754" d="M152.89,206.956l2.841.518a1.434,1.434,0,0,0,1.667-1.153l0-.029a1.434,1.434,0,0,0-1.152-1.667l.516.1a1.614,1.614,0,0,0,1.876-1.3l.006-.032a1.613,1.613,0,0,0-1.3-1.876l.479.088a1.614,1.614,0,0,0,1.876-1.3l.006-.032a1.613,1.613,0,0,0-1.3-1.876,1.613,1.613,0,0,0,1.876-1.3l.006-.032a1.613,1.613,0,0,0-1.3-1.877l-3.835-.7Z" transform="translate(-140.682 -191.544)" fill="#ffd2a1"/>
          </g>
          <g id="Grupo_10228" data-name="Grupo 10228" transform="translate(32.42 93.323)">
            <g id="Grupo_10227" data-name="Grupo 10227">
              <path id="Trazado_19755" data-name="Trazado 19755" d="M143.447,203.927l3.575-10.937,6.18,1.855-3.444,11.145Z" transform="translate(-143.447 -192.99)" fill="#ededed"/>
            </g>
          </g>
          <g id="Grupo_10229" data-name="Grupo 10229" transform="translate(0 43.522)">
            <path id="Trazado_19756" data-name="Trazado 19756" d="M139.22,198.221s10.786,6.328,22.518,12.713l-3.848,12.51c-15.521-3.779-37.073-13.179-35.869-20.077,1.735-9.956,4.283-23.868,6.52-34.056a15.128,15.128,0,0,1,4.854-7.914c2.968-2.424,6.452-1.508,9.052,1.348a14.428,14.428,0,0,1,3.921,10.648C146.068,177.342,139.22,198.221,139.22,198.221Z" transform="translate(-121.972 -160.002)" fill="#005b6b"/>
            <path id="Trazado_19757" data-name="Trazado 19757" d="M145.092,200.7a.93.93,0,1,1-.272-1.286A.931.931,0,0,1,145.092,200.7Z" transform="translate(-111.06 -139.995)" fill="#fff"/>
            <path id="Trazado_19758" data-name="Trazado 19758" d="M143.03,200.086a.931.931,0,1,1-.272-1.286A.931.931,0,0,1,143.03,200.086Z" transform="translate(-112.111 -140.305)" fill="#fff"/>
          </g>
        </g>
      </g>
    </g>
  </g>
</svg>
