<svg xmlns="http://www.w3.org/2000/svg" width="77" height="77" viewBox="0 0 77 77">
  <g id="Grupo_18759" data-name="Grupo 18759" transform="translate(-1203 -3673)">
    <g id="Grupo_18691" data-name="Grupo 18691" transform="translate(17 -9)">
      <g id="Elipse_1082" data-name="Elipse 1082" transform="translate(1186 3682)" fill="#f56b6b" stroke="#2643a2" stroke-width="3">
        <circle cx="38.5" cy="38.5" r="38.5" stroke="none"/>
        <circle cx="38.5" cy="38.5" r="37" fill="none"/>
      </g>
      <path id="Trazado_34786" data-name="Trazado 34786" d="M242.955,453.147V440.113a.847.847,0,0,0-.251-.6l-6.95-6.95a.844.844,0,0,0-.6-.247H186.592a.867.867,0,0,0-.6.247.855.855,0,0,0-.251.6v19.988H184.6v1.7h5.755a5.371,5.371,0,0,0,10.61,0H225.53a5.371,5.371,0,0,0,10.61,0h7.976v-1.7Zm-47.293,4.53A3.679,3.679,0,1,1,199.342,454,3.686,3.686,0,0,1,195.663,457.677Zm20.437-4.53h-5.241l0-5.7H216.1Zm14.735,4.53A3.679,3.679,0,1,1,234.518,454,3.682,3.682,0,0,1,230.835,457.677Zm6.946-4.53H236.14a5.371,5.371,0,0,0-3.608-4.252v-1.45h5.249Zm3.477,0h-1.78v-7.407h-8.643v2.877a5.386,5.386,0,0,0-5.305,4.53H217.8v-7.407h-8.643v7.407h-8.186a5.372,5.372,0,0,0-10.61,0h-2.915V434.014H234.8l6.455,6.448Zm-22.011-8.771h8.64v-8.643h-8.64Zm1.7-6.946h5.245v5.241h-5.245Zm8.392-1.7v8.639h10.142v-3.342l-5.32-5.3Zm8.445,6.938h-6.748v-5.238h2.424l4.323,4.3Zm-28.627,1.7H217.8V435.73h-8.651Zm1.7-6.942H216.1v5.238l-5.249,0Zm-11.779,6.942h8.64V435.73h-8.64Zm1.7-6.942h5.238v5.238h-5.238Zm-11.79,6.939h8.643v-8.639h-8.643Zm1.7-6.939,5.245,0v5.241H190.68Z" transform="translate(1010.768 3274.13)" fill="#fff"/>
    </g>
  </g>
</svg>
