<svg xmlns="http://www.w3.org/2000/svg" width="77" height="77" viewBox="0 0 77 77">
  <g id="Grupo_18764" data-name="Grupo 18764" transform="translate(-1208 -5359)">
    <g id="Elipse_1088" data-name="Elipse 1088" transform="translate(1208 5359)" fill="#f56b6b" stroke="#2643a2" stroke-width="3">
      <circle cx="38.5" cy="38.5" r="38.5" stroke="none"/>
      <circle cx="38.5" cy="38.5" r="37" fill="none"/>
    </g>
    <path id="Trazado_34825" data-name="Trazado 34825" d="M178.041,936.812a1.04,1.04,0,0,0,.45.864l2.691,1.806-3.128,5.447a1.022,1.022,0,0,0,1.435,1.371l10.686-6.813a1.017,1.017,0,0,0,0-1.722l-3.131-1.983,3.3-5.007a1.022,1.022,0,0,0-1.4-1.424l-10.427,6.614A1.006,1.006,0,0,0,178.041,936.812Zm7.972-3.188-1.254,1.9a1.066,1.066,0,0,0-.144.78,1.01,1.01,0,0,0,.453.646l2.651,1.677L181.9,942.34l1.534-2.667a1.025,1.025,0,0,0-.317-1.359l-2.183-1.463Zm8.493-5.167-4.978-8.752h1.856a1.023,1.023,0,1,0,0-2.047H177.177a1.023,1.023,0,0,0,0,2.047h1.856l-4.973,8.752a.966.966,0,0,0-.136.506v28.6a1.027,1.027,0,0,0,1.023,1.023h18.669a1.023,1.023,0,0,0,1.021-1.023v-28.6A1.046,1.046,0,0,0,194.507,928.457Zm-1.913,22.6h-7.3a1.019,1.019,0,1,0,0,2.039h7.3v3.45H175.968v-3.45h3.79a1.019,1.019,0,1,0,0-2.039h-3.79V929.227l5.413-9.522h5.8l5.415,9.522Zm-12.888-34.816h9.158a1.023,1.023,0,0,0,1.018-1.023v-6.224a1.018,1.018,0,0,0-1.018-1.02h-9.158a1.052,1.052,0,0,0-.725.3,1.039,1.039,0,0,0-.3.722v6.224a1.037,1.037,0,0,0,.3.722A1.021,1.021,0,0,0,179.705,916.237Zm1.016-6.224h7.116v4.18h-7.116Z" transform="translate(1062.076 4462.197)" fill="#fff"/>
  </g>
</svg>
