<svg xmlns="http://www.w3.org/2000/svg" width="77" height="77" viewBox="0 0 77 77">
  <g id="Grupo_18699" data-name="Grupo 18699" transform="translate(-1208 -4678)">
    <g id="Elipse_1098" data-name="Elipse 1098" transform="translate(1208 4678)" fill="#f56b6b" stroke="#2643a2" stroke-width="3">
      <circle cx="38.5" cy="38.5" r="38.5" stroke="none"/>
      <circle cx="38.5" cy="38.5" r="37" fill="none"/>
    </g>
    <path id="Trazado_34806" data-name="Trazado 34806" d="M400.044,395.752a9.748,9.748,0,1,0,9.748,9.749A9.745,9.745,0,0,0,400.044,395.752Zm0,17.421a7.674,7.674,0,1,1,7.676-7.672A7.688,7.688,0,0,1,400.044,413.173Zm0-22.838A15.161,15.161,0,0,0,384.886,405.5c.05,4.4,3.636,12.061,7.176,18.934,3.555,6.838,7.094,12.667,7.1,12.682a1.037,1.037,0,0,0,1.766,0c.008-.016,3.551-5.844,7.1-12.682,3.547-6.873,7.125-14.537,7.176-18.934A15.161,15.161,0,0,0,400.044,390.335Zm6.147,33.153c-2.441,4.692-4.882,8.922-6.147,11.064-1.265-2.142-3.7-6.372-6.139-11.064-3.524-6.718-7-14.592-6.95-17.987a13.09,13.09,0,1,1,26.18,0C413.188,408.9,409.715,416.771,406.191,423.488Z" transform="translate(846.114 4301.89)" fill="#fff"/>
  </g>
</svg>
