<svg xmlns="http://www.w3.org/2000/svg" width="77" height="77" viewBox="0 0 77 77">
  <g id="Grupo_18765" data-name="Grupo 18765" transform="translate(-656 -5359)">
    <g id="Grupo_18702" data-name="Grupo 18702" transform="translate(0 -97)">
      <g id="Elipse_1087" data-name="Elipse 1087" transform="translate(656 5456)" fill="#f56b6b" stroke="#2643a2" stroke-width="3">
        <circle cx="38.5" cy="38.5" r="38.5" stroke="none"/>
        <circle cx="38.5" cy="38.5" r="37" fill="none"/>
      </g>
      <path id="Trazado_34789" data-name="Trazado 34789" d="M445.905,432.905a14.6,14.6,0,1,0,14.6,14.6A14.6,14.6,0,0,0,445.905,432.905Zm0,27.454a12.852,12.852,0,1,1,12.857-12.85A12.87,12.87,0,0,1,445.905,460.359Zm-17.936-18.371a4.38,4.38,0,0,1-.835,2.637,2.758,2.758,0,0,1-.9.758V433.166h-1.753v12.217a2.737,2.737,0,0,1-.9-.758,4.339,4.339,0,0,1-.842-2.637v-8.822h-1.746v8.822c0,2.48,1.381,4.721,3.486,5.246v15.741h1.753V447.234c2.1-.525,3.486-2.766,3.493-5.246v-8.822h-1.753Zm38.067-9.323-1.454-1.28V462.1h1.753v-8.613c2.285-2.24,3.691-6.008,3.7-10.273C470.026,438.77,468.5,434.864,466.036,432.665Zm.3,3.058a15.348,15.348,0,0,1,0,14.979Z" transform="translate(248.187 5047.025)" fill="#fff"/>
    </g>
  </g>
</svg>
