<svg xmlns="http://www.w3.org/2000/svg" xmlns:xlink="http://www.w3.org/1999/xlink" width="304" height="336.044" viewBox="0 0 304 336.044">
  <defs>
    <clipPath id="clip-path">
      <rect id="Rectángulo_2360" data-name="Rectángulo 2360" width="215" height="196" transform="translate(883 1667)" fill="#fff" stroke="#707070" stroke-width="1"/>
    </clipPath>
  </defs>
  <g id="Grupo_19165" data-name="Grupo 19165" transform="translate(-808 -1186.956)">
    <path id="Trazado_34901" data-name="Trazado 34901" d="M0,0H304V94H0Z" transform="translate(808 1429)" fill="#f56b6b"/>
    <path id="Trazado_34905" data-name="Trazado 34905" d="M-109.149,0h-3.65l-1.16-13.293L-118.427,0h-2.368l-4.468-13.293L-126.434,0H-130.1l1.477-17.639h5.225l3.76,11.072,3.809-11.072h5.225Zm11.682-12.549h3.516V0h-3.333l-.085-1.514A4.792,4.792,0,0,1-101.361.244a4.892,4.892,0,0,1-3.467-1.129A4.187,4.187,0,0,1-106.036-4.1v-8.447h3.528v7.69a2.169,2.169,0,0,0,.629,1.721,2.387,2.387,0,0,0,1.63.549,2.83,2.83,0,0,0,2-.714,3.068,3.068,0,0,0,.787-2.325Zm8.96-1.88a1.974,1.974,0,0,1-1.44-.592,1.943,1.943,0,0,1-.6-1.434,1.92,1.92,0,0,1,.6-1.422,1.98,1.98,0,0,1,1.434-.592,1.945,1.945,0,0,1,1.416.592,1.929,1.929,0,0,1,.6,1.422,1.943,1.943,0,0,1-.6,1.434A1.945,1.945,0,0,1-88.507-14.429Zm-4.37,20.313V3.137a4.044,4.044,0,0,0,1.318-.177,1.473,1.473,0,0,0,.781-.629,2.784,2.784,0,0,0,.372-1.08,12.181,12.181,0,0,0,.092-1.678V-12.549h3.564V-.427q0,3.284-1.428,4.8T-92.877,5.884ZM-71.3-6.458l-.037.842h-9.3a3.249,3.249,0,0,0,1,2.295,3.2,3.2,0,0,0,2.209.793,3.085,3.085,0,0,0,1.654-.433,2.664,2.664,0,0,0,1.056-1.263l3.223.476a5.479,5.479,0,0,1-2.2,2.942A6.533,6.533,0,0,1-77.4.244a6.794,6.794,0,0,1-4.889-1.727A6.3,6.3,0,0,1-84.1-6.274a6.34,6.34,0,0,1,1.819-4.791,6.592,6.592,0,0,1,4.773-1.752,6.3,6.3,0,0,1,4.5,1.6A6.273,6.273,0,0,1-71.3-6.458Zm-6.189-3.87A2.778,2.778,0,0,0-80.536-7.91h5.762A2.643,2.643,0,0,0-75.641-9.7,2.747,2.747,0,0,0-77.484-10.327Zm12.231-.232A4.074,4.074,0,0,1-63.6-12.067a5.028,5.028,0,0,1,2.454-.629v3.137a4.754,4.754,0,0,0-3,.757,3.3,3.3,0,0,0-.928,2.686V0h-3.54V-12.549h3.369Zm17.9,4.1-.037.842h-9.3a3.249,3.249,0,0,0,1,2.295,3.2,3.2,0,0,0,2.209.793,3.085,3.085,0,0,0,1.654-.433,2.664,2.664,0,0,0,1.056-1.263l3.223.476a5.479,5.479,0,0,1-2.2,2.942A6.533,6.533,0,0,1-53.461.244,6.794,6.794,0,0,1-58.35-1.483a6.3,6.3,0,0,1-1.813-4.791,6.34,6.34,0,0,1,1.819-4.791,6.592,6.592,0,0,1,4.773-1.752,6.3,6.3,0,0,1,4.5,1.6A6.273,6.273,0,0,1-47.357-6.458Zm-6.189-3.87A2.778,2.778,0,0,0-56.6-7.91h5.762A2.643,2.643,0,0,0-51.7-9.7,2.747,2.747,0,0,0-53.546-10.327ZM-40.265.244a7.013,7.013,0,0,1-3.662-.879,3.715,3.715,0,0,1-1.794-2.612l2.942-.83a2.364,2.364,0,0,0,2.515,1.868A2.6,2.6,0,0,0-38.983-2.5a1,1,0,0,0,.5-.97,1.027,1.027,0,0,0-.208-.647,1.644,1.644,0,0,0-.641-.464,7.984,7.984,0,0,0-.854-.33q-.421-.134-1.117-.323t-1.16-.36a7.768,7.768,0,0,1-1.1-.47,4.712,4.712,0,0,1-.916-.647,2.608,2.608,0,0,1-.684-.983A3.545,3.545,0,0,1-45.4-9.033a3.206,3.206,0,0,1,1.361-2.808,6.081,6.081,0,0,1,3.558-.952,6.235,6.235,0,0,1,3.284.806,3.646,3.646,0,0,1,1.685,2.515l-2.722.61a2.132,2.132,0,0,0-2.234-1.587,2.446,2.446,0,0,0-1.233.281.9.9,0,0,0-.488.83.951.951,0,0,0,.073.378.749.749,0,0,0,.256.305,3.739,3.739,0,0,0,.354.232,2.671,2.671,0,0,0,.5.2q.33.1.549.159t.641.165l.653.171q.671.183,1.178.366a6.9,6.9,0,0,1,1.08.513,3.877,3.877,0,0,1,.946.739,3.294,3.294,0,0,1,.616,1.038,3.832,3.832,0,0,1,.244,1.4,3.775,3.775,0,0,1-.421,1.819A3.161,3.161,0,0,1-36.676-.629a5.615,5.615,0,0,1-1.63.659A8.454,8.454,0,0,1-40.265.244Zm25.989-6.7-.037.842h-9.3a3.249,3.249,0,0,0,1,2.295,3.2,3.2,0,0,0,2.209.793A3.085,3.085,0,0,0-18.75-2.96a2.664,2.664,0,0,0,1.056-1.263l3.223.476a5.479,5.479,0,0,1-2.2,2.942A6.533,6.533,0,0,1-20.38.244a6.794,6.794,0,0,1-4.889-1.727,6.3,6.3,0,0,1-1.813-4.791,6.34,6.34,0,0,1,1.819-4.791,6.592,6.592,0,0,1,4.773-1.752,6.3,6.3,0,0,1,4.5,1.6A6.273,6.273,0,0,1-14.276-6.458Zm-6.189-3.87A2.778,2.778,0,0,0-23.517-7.91h5.762A2.643,2.643,0,0,0-18.622-9.7,2.747,2.747,0,0,0-20.465-10.327Zm16.272-2.466A4.892,4.892,0,0,1-.726-11.664,4.187,4.187,0,0,1,.482-8.447V0H-3.046V-7.69a2.186,2.186,0,0,0-.629-1.733,2.369,2.369,0,0,0-1.617-.549,3.3,3.3,0,0,0-1.05.159,2.7,2.7,0,0,0-.879.494,2.185,2.185,0,0,0-.629.946,4.375,4.375,0,0,0-.238,1.453V0H-11.6V-12.549h3.516v1.392A4.835,4.835,0,0,1-4.193-12.793ZM22.186-6.458l-.037.842h-9.3a3.249,3.249,0,0,0,1,2.295,3.2,3.2,0,0,0,2.209.793,3.085,3.085,0,0,0,1.654-.433,2.664,2.664,0,0,0,1.056-1.263l3.223.476a5.479,5.479,0,0,1-2.2,2.942A6.533,6.533,0,0,1,16.083.244a6.794,6.794,0,0,1-4.889-1.727A6.3,6.3,0,0,1,9.381-6.274,6.34,6.34,0,0,1,11.2-11.066a6.592,6.592,0,0,1,4.773-1.752,6.3,6.3,0,0,1,4.5,1.6A6.273,6.273,0,0,1,22.186-6.458ZM16-10.327A2.778,2.778,0,0,0,12.946-7.91h5.762A2.643,2.643,0,0,0,17.841-9.7,2.747,2.747,0,0,0,16-10.327Zm23.73-2.466a4.8,4.8,0,0,1,3.235,1.019A3.647,3.647,0,0,1,44.147-8.85V0H40.631V-7.849a2.1,2.1,0,0,0-.562-1.587,1.967,1.967,0,0,0-1.416-.537,2.268,2.268,0,0,0-1.709.684,3.1,3.1,0,0,0-.659,2.209V0H32.733V-7.812a2.152,2.152,0,0,0-.562-1.617,2,2,0,0,0-1.453-.543,2.2,2.2,0,0,0-1.7.72A3.439,3.439,0,0,0,28.363-6.9V0h-3.5V-12.549h3.5v1.477A4.267,4.267,0,0,1,32-12.793a5.366,5.366,0,0,1,2.362.482,3.215,3.215,0,0,1,1.483,1.4A4.437,4.437,0,0,1,39.728-12.793Zm15.21,0a6.072,6.072,0,0,1,2.332.452,5.818,5.818,0,0,1,1.923,1.276A5.815,5.815,0,0,1,60.492-9a7.633,7.633,0,0,1,.476,2.747A7.633,7.633,0,0,1,60.492-3.5a5.815,5.815,0,0,1-1.3,2.069A5.818,5.818,0,0,1,57.269-.159a6.072,6.072,0,0,1-2.332.452,5.42,5.42,0,0,1-2.374-.507,3.509,3.509,0,0,1-1.581-1.422L50.9,0H47.565V-18.75H51.08v7.727a3.5,3.5,0,0,1,1.569-1.306A5.518,5.518,0,0,1,54.938-12.793ZM54.12-2.625a3.163,3.163,0,0,0,2.386-.989,3.655,3.655,0,0,0,.946-2.637A3.672,3.672,0,0,0,56.506-8.9a3.163,3.163,0,0,0-2.386-.989,3.126,3.126,0,0,0-2.368,1.007A3.672,3.672,0,0,0,50.8-6.25a3.664,3.664,0,0,0,.946,2.625A3.13,3.13,0,0,0,54.12-2.625Zm19.788-.781a11.74,11.74,0,0,0,.305,3.064V0H70.929l-.281-1.367A4.08,4.08,0,0,1,68.89-.159a6.478,6.478,0,0,1-2.271.4,5.97,5.97,0,0,1-1.172-.11,3.984,3.984,0,0,1-1.056-.372,3.2,3.2,0,0,1-.873-.653,2.864,2.864,0,0,1-.586-.995,3.963,3.963,0,0,1-.22-1.361,3.774,3.774,0,0,1,.232-1.361,3.19,3.19,0,0,1,.61-1.019,3.7,3.7,0,0,1,.989-.745,7.565,7.565,0,0,1,1.245-.537A14.877,14.877,0,0,1,67.279-7.3l2.063-.464a2.275,2.275,0,0,0,.934-.4.791.791,0,0,0,.275-.629A1.3,1.3,0,0,0,69.934-10a2.878,2.878,0,0,0-1.5-.366,2.152,2.152,0,0,0-2.454,1.917l-3.113-.562a4.214,4.214,0,0,1,1.819-2.863,7.229,7.229,0,0,1,3.943-.922q5.273,0,5.273,4.529Zm-6.189,1.27a2.827,2.827,0,0,0,2.173-.909,3.832,3.832,0,0,0,.842-2.692L67.755-4.9a3.52,3.52,0,0,0-1.251.513,1.053,1.053,0,0,0-.433.9,1.169,1.169,0,0,0,.464.995A1.92,1.92,0,0,0,67.719-2.136Zm12.976-8.423a4.074,4.074,0,0,1,1.648-1.508A5.028,5.028,0,0,1,84.8-12.7v3.137a4.754,4.754,0,0,0-3,.757,3.3,3.3,0,0,0-.928,2.686V0h-3.54V-12.549h3.369ZM97.076-3.406a11.74,11.74,0,0,0,.305,3.064V0H94.1l-.281-1.367A4.08,4.08,0,0,1,92.059-.159a6.478,6.478,0,0,1-2.271.4,5.97,5.97,0,0,1-1.172-.11,3.984,3.984,0,0,1-1.056-.372,3.2,3.2,0,0,1-.873-.653,2.864,2.864,0,0,1-.586-.995,3.963,3.963,0,0,1-.22-1.361,3.774,3.774,0,0,1,.232-1.361,3.19,3.19,0,0,1,.61-1.019,3.7,3.7,0,0,1,.989-.745,7.565,7.565,0,0,1,1.245-.537A14.877,14.877,0,0,1,90.448-7.3l2.063-.464a2.275,2.275,0,0,0,.934-.4.791.791,0,0,0,.275-.629A1.3,1.3,0,0,0,93.1-10a2.878,2.878,0,0,0-1.5-.366,2.152,2.152,0,0,0-2.454,1.917l-3.113-.562a4.214,4.214,0,0,1,1.819-2.863,7.229,7.229,0,0,1,3.943-.922q5.273,0,5.273,4.529Zm-6.189,1.27a2.827,2.827,0,0,0,2.173-.909A3.832,3.832,0,0,0,93.9-5.737L90.924-4.9a3.52,3.52,0,0,0-1.251.513,1.053,1.053,0,0,0-.433.9,1.169,1.169,0,0,0,.464.995A1.92,1.92,0,0,0,90.887-2.136ZM109.65-12.549,104.132-2.71h5.347V0H99.139l5.493-9.839H99.567v-2.71ZM117.474.244a7.891,7.891,0,0,1-3.552-.769,5.748,5.748,0,0,1-2.435-2.258,6.73,6.73,0,0,1-.885-3.5,6.138,6.138,0,0,1,1.9-4.761,7.065,7.065,0,0,1,4.968-1.746,7.082,7.082,0,0,1,4.98,1.746,6.138,6.138,0,0,1,1.9,4.761,6.173,6.173,0,0,1-1.9,4.779A7.067,7.067,0,0,1,117.474.244Zm-.037-2.8a3.221,3.221,0,0,0,2.484-1.025,3.838,3.838,0,0,0,.946-2.71A3.838,3.838,0,0,0,119.922-9a3.221,3.221,0,0,0-2.484-1.025,3.1,3.1,0,0,0-2.411,1.031,3.874,3.874,0,0,0-.934,2.7,3.874,3.874,0,0,0,.934,2.7A3.1,3.1,0,0,0,117.438-2.551Zm-175.732,33.8a7.891,7.891,0,0,1-3.552-.769,5.748,5.748,0,0,1-2.435-2.258,6.73,6.73,0,0,1-.885-3.5,6.138,6.138,0,0,1,1.9-4.761,7.065,7.065,0,0,1,4.968-1.746,7.082,7.082,0,0,1,4.98,1.746,6.138,6.138,0,0,1,1.9,4.761,6.173,6.173,0,0,1-1.9,4.779A7.067,7.067,0,0,1-58.295,31.244Zm-.037-2.8a3.221,3.221,0,0,0,2.484-1.025,3.838,3.838,0,0,0,.946-2.71A3.838,3.838,0,0,0-55.847,22a3.221,3.221,0,0,0-2.484-1.025,3.1,3.1,0,0,0-2.411,1.031,3.874,3.874,0,0,0-.934,2.7,3.874,3.874,0,0,0,.934,2.7A3.1,3.1,0,0,0-58.331,28.449ZM-42.3,31V12.25h3.552V31Zm17.48-3.406a11.74,11.74,0,0,0,.305,3.064V31H-27.8l-.281-1.367a4.08,4.08,0,0,1-1.758,1.208,6.478,6.478,0,0,1-2.271.4,5.97,5.97,0,0,1-1.172-.11,3.984,3.984,0,0,1-1.056-.372,3.2,3.2,0,0,1-.873-.653,2.864,2.864,0,0,1-.586-.995,3.963,3.963,0,0,1-.22-1.361,3.774,3.774,0,0,1,.232-1.361,3.19,3.19,0,0,1,.61-1.019,3.7,3.7,0,0,1,.989-.745,7.566,7.566,0,0,1,1.245-.537,14.878,14.878,0,0,1,1.489-.391l2.063-.464a2.275,2.275,0,0,0,.934-.4.791.791,0,0,0,.275-.629A1.3,1.3,0,0,0-28.8,21a2.878,2.878,0,0,0-1.5-.366,2.152,2.152,0,0,0-2.454,1.917l-3.113-.562a4.214,4.214,0,0,1,1.819-2.863,7.229,7.229,0,0,1,3.943-.922q5.273,0,5.273,4.529Zm-6.189,1.27a2.827,2.827,0,0,0,2.173-.909A3.832,3.832,0,0,0-28,25.263l-2.979.842a3.52,3.52,0,0,0-1.251.513,1.053,1.053,0,0,0-.433.9,1.169,1.169,0,0,0,.464.995A1.92,1.92,0,0,0-31.012,28.864Zm15,2.368a6.7,6.7,0,0,1-4.846-1.807,6.24,6.24,0,0,1-1.88-4.712A6.226,6.226,0,0,1-20.862,20a6.725,6.725,0,0,1,4.852-1.794,6.687,6.687,0,0,1,4.065,1.208,5.4,5.4,0,0,1,2.1,3.406l-3.247.354a2.782,2.782,0,0,0-1.05-1.648,3.192,3.192,0,0,0-1.9-.549A2.878,2.878,0,0,0-18.341,22a4.02,4.02,0,0,0-.879,2.71,4.025,4.025,0,0,0,.879,2.7,2.871,2.871,0,0,0,2.295,1.031,3.164,3.164,0,0,0,1.9-.549,2.847,2.847,0,0,0,1.056-1.648l3.247.354a5.41,5.41,0,0,1-2.118,3.406A6.659,6.659,0,0,1-16.01,31.232ZM-2.667,31A3.79,3.79,0,0,1-5.5,29.981a3.964,3.964,0,0,1-1-2.9V21.149H-8.966v-2.7h.793a2.07,2.07,0,0,0,1.563-.525,2.7,2.7,0,0,0,.5-1.868V14.4h3.174v4.053H-.348v2.7H-2.936V26.7q0,1.624,1.453,1.624H-.348V31Zm15.283-3.406a11.74,11.74,0,0,0,.305,3.064V31H9.637l-.281-1.367A4.08,4.08,0,0,1,7.6,30.841a6.478,6.478,0,0,1-2.271.4,5.97,5.97,0,0,1-1.172-.11A3.984,3.984,0,0,1,3.1,30.762a3.2,3.2,0,0,1-.873-.653,2.864,2.864,0,0,1-.586-.995,3.963,3.963,0,0,1-.22-1.361,3.774,3.774,0,0,1,.232-1.361,3.19,3.19,0,0,1,.61-1.019,3.7,3.7,0,0,1,.989-.745A7.566,7.566,0,0,1,4.5,24.091,14.878,14.878,0,0,1,5.988,23.7l2.063-.464a2.275,2.275,0,0,0,.934-.4.791.791,0,0,0,.275-.629A1.3,1.3,0,0,0,8.643,21a2.878,2.878,0,0,0-1.5-.366,2.152,2.152,0,0,0-2.454,1.917l-3.113-.562A4.214,4.214,0,0,1,3.4,19.129a7.229,7.229,0,0,1,3.943-.922q5.273,0,5.273,4.529Zm-6.189,1.27A2.827,2.827,0,0,0,8.6,27.954a3.832,3.832,0,0,0,.842-2.692L6.464,26.1a3.52,3.52,0,0,0-1.251.513,1.053,1.053,0,0,0-.433.9,1.169,1.169,0,0,0,.464.995A1.92,1.92,0,0,0,6.427,28.864ZM23.444,18.207a4.892,4.892,0,0,1,3.467,1.129,4.187,4.187,0,0,1,1.208,3.217V31H24.591V23.31a2.186,2.186,0,0,0-.629-1.733,2.369,2.369,0,0,0-1.617-.549,3.3,3.3,0,0,0-1.05.159,2.7,2.7,0,0,0-.879.494,2.185,2.185,0,0,0-.629.946,4.375,4.375,0,0,0-.238,1.453V31H16.034V18.451H19.55v1.392A4.835,4.835,0,0,1,23.444,18.207ZM36.2,31a3.79,3.79,0,0,1-2.832-1.019,3.964,3.964,0,0,1-1-2.9V21.149H29.9v-2.7h.793a2.07,2.07,0,0,0,1.563-.525,2.7,2.7,0,0,0,.5-1.868V14.4h3.174v4.053h2.588v2.7H35.931V26.7q0,1.624,1.453,1.624h1.135V31ZM53,24.542l-.037.842h-9.3a3.249,3.249,0,0,0,1,2.295,3.2,3.2,0,0,0,2.209.793,3.085,3.085,0,0,0,1.654-.433,2.664,2.664,0,0,0,1.056-1.263l3.223.476a5.479,5.479,0,0,1-2.2,2.942,6.533,6.533,0,0,1-3.711,1.05A6.794,6.794,0,0,1,42,29.517a6.3,6.3,0,0,1-1.813-4.791,6.34,6.34,0,0,1,1.819-4.791,6.592,6.592,0,0,1,4.773-1.752,6.3,6.3,0,0,1,4.5,1.6A6.273,6.273,0,0,1,53,24.542Zm-6.189-3.87a2.778,2.778,0,0,0-3.052,2.417h5.762a2.643,2.643,0,0,0-.867-1.794A2.747,2.747,0,0,0,46.808,20.673ZM60.089,31.244a7.013,7.013,0,0,1-3.662-.879,3.715,3.715,0,0,1-1.794-2.612l2.942-.83a2.364,2.364,0,0,0,2.515,1.868,2.6,2.6,0,0,0,1.282-.287,1,1,0,0,0,.5-.97,1.027,1.027,0,0,0-.208-.647,1.644,1.644,0,0,0-.641-.464,7.984,7.984,0,0,0-.854-.33q-.421-.134-1.117-.323t-1.16-.36a7.768,7.768,0,0,1-1.1-.47,4.712,4.712,0,0,1-.916-.647,2.608,2.608,0,0,1-.684-.983,3.545,3.545,0,0,1-.238-1.343,3.206,3.206,0,0,1,1.361-2.808,6.081,6.081,0,0,1,3.558-.952,6.235,6.235,0,0,1,3.284.806,3.646,3.646,0,0,1,1.685,2.515l-2.722.61a2.132,2.132,0,0,0-2.234-1.587,2.446,2.446,0,0,0-1.233.281.9.9,0,0,0-.488.83.951.951,0,0,0,.073.378.749.749,0,0,0,.256.305,3.739,3.739,0,0,0,.354.232,2.671,2.671,0,0,0,.5.2q.33.1.549.159t.641.165l.653.171q.671.183,1.178.366a6.9,6.9,0,0,1,1.08.513,3.877,3.877,0,0,1,.946.739,3.294,3.294,0,0,1,.616,1.038,3.832,3.832,0,0,1,.244,1.4,3.775,3.775,0,0,1-.421,1.819,3.161,3.161,0,0,1-1.154,1.227,5.615,5.615,0,0,1-1.63.659A8.454,8.454,0,0,1,60.089,31.244Z" transform="translate(966 1469)" fill="#fff"/>
    <g id="Enmascarar_grupo_11" data-name="Enmascarar grupo 11" transform="translate(-11 -434)" clip-path="url(#clip-path)">
      <g id="Grupo_10839" data-name="Grupo 10839" transform="translate(-422.963 968.734)">
        <g id="Grupo_10816" data-name="Grupo 10816" transform="translate(1357.78 703.964)">
          <g id="Grupo_10813" data-name="Grupo 10813" transform="translate(0 0)">
            <path id="Trazado_20877" data-name="Trazado 20877" d="M1496.5,796.624c-14.84-20.776,17.21-14.987,1.938-56.473l-17.183-3.353-11.316-8.382a82.235,82.235,0,0,0-8.564,14.535c-3.559,8.184,30.1,18.584,33.29,25.393,1.823,3.895-8.262,18.5-7.648,25.87-18.965,5.172-34.213,9.007-46.048-9.534,14.11,4.834,9.642-31.945,8.644-42.328.667-12.228,4.553-25.524,16.337-32.12,15.467-8.656,40.366-10.222,52.333,7.521,8.127,12.05,8.332,34.345,7.606,50.916C1525.01,788.746,1513.15,798.21,1496.5,796.624Z" transform="translate(-1438.935 -703.964)" fill="#898583" fill-rule="evenodd"/>
            <path id="Trazado_20878" data-name="Trazado 20878" d="M1426.374,1313.965c-.113,8.4.537,26.995-8.849,31.029a4.866,4.866,0,0,1-2.323.4l.022.007a.808.808,0,0,0-.388-.046c1.225,1.35,4.2-.205,5.3-1.06C1428.946,1337.449,1427.707,1324.094,1426.374,1313.965Z" transform="translate(-1414.837 -1266.478)" fill="#898583" fill-rule="evenodd"/>
          </g>
          <g id="Grupo_10814" data-name="Grupo 10814" transform="translate(15.291 33.217)">
            <path id="Trazado_20879" data-name="Trazado 20879" d="M1644.9,1283.977l-31.329-38.19c-2.283,8.684-4.483,29.159,1.761,35.782C1624.83,1291.641,1644.735,1283.722,1644.9,1283.977Z" transform="translate(-1611.254 -1236.824)" fill="#6a6a6a" fill-rule="evenodd"/>
            <path id="Trazado_20880" data-name="Trazado 20880" d="M2124.655,1135.074l4.71-4.419c14.238,4.673,33.777,39.712,3.88,47.48C2117.51,1182.223,2124.594,1144.881,2124.655,1135.074Z" transform="translate(-2083.173 -1130.655)" fill="#6a6a6a" fill-rule="evenodd"/>
          </g>
          <g id="Grupo_10815" data-name="Grupo 10815" transform="translate(17.322 7.74)">
            <path id="Trazado_20881" data-name="Trazado 20881" d="M1988.909,808.14c-2.006-2.617-14.87-6.925-10.138-3.457.381.279,5.054,5.026,1.778,3.308-.4-.209-7.334-3.938-4.616-1.248,6.328,6.262-.8.561.114,4.751.963,4.429-3.021-1.87-4.793,2.655-1.569,4.008-9.974-7.763-6.068-.937.624,1.09,4.414,11.368,6.286,5.319.956-3.087-1.163-3.635,2.26-1.057,3.392,2.555-1.166-3.721,3.179-2.209,2.96,1.03,1.792-1.555,2.7-2.933,1-1.521-.71-1.183,1.982-.263,2.645.9-1.374-4.191,2.017-3.5,2.009.409-4.334-4.381,2.323-1.44A23.346,23.346,0,0,1,1988.909,808.14Z" transform="translate(-1938.72 -803.388)" fill="#656565" fill-rule="evenodd"/>
            <path id="Trazado_20882" data-name="Trazado 20882" d="M1645.823,893.52c-1.1.528-6.22,9.77-6.259,6.12-.023-2.113,2.448-3.828.9-3.929-.464-.031-4.113-.994-2.85-2.211,2.675-2.579-2.567-.627,1.3-4.3,1.006-.955,3.959-3.1,1.931.358-1.764,3-2.949,3.342.831,3.018.479,1.383-.767,2.775,1.126,1.5C1644.046,893.231,1644.958,893.934,1645.823,893.52Z" transform="translate(-1637.349 -881.102)" fill="#656565" fill-rule="evenodd"/>
          </g>
        </g>
        <g id="Grupo_10817" data-name="Grupo 10817" transform="translate(1367.298 795.911)">
          <path id="Trazado_20883" data-name="Trazado 20883" d="M1563.246,1898.579l1.865-7.424c-10.019.182-11.167,12.521-13.422,19.818-2.631,8.515-5.275,19.191-7.584,28.278-.876,5.883.8,6.872,6.4,6.636,6.534-.275,5.532-4.979,6.341-10.2l3.614-23.306Z" transform="translate(-1543.357 -1890.681)" fill="#8691c8" fill-rule="evenodd"/>
          <path id="Trazado_20884" data-name="Trazado 20884" d="M1566.934,1929.535c-3.912,4.151-4.948,11.724-6.527,16.83-2.437,7.886-4.885,17.626-7.068,26.24C1556.828,1969.339,1563.536,1939.718,1566.934,1929.535Z" transform="translate(-1552.076 -1926.073)" fill="#97a0ce" fill-rule="evenodd"/>
          <path id="Trazado_20885" data-name="Trazado 20885" d="M1563.694,1898.579l1.865-7.424a9.471,9.471,0,0,0-5.093,1.473c-4.388,11.049-10.105,41.511-14.963,42.874-.653,2.565-.338,1.339-.951,3.749-.085.57-.145,1.094-.181,1.576,3.787-2.465,8.421-.512,12.372-.227.214-1.483.283-3.17.553-4.916l3.614-23.306Z" transform="translate(-1543.805 -1890.681)" fill="#737eb6" fill-rule="evenodd"/>
          <path id="Trazado_20886" data-name="Trazado 20886" d="M1557.513,1893.21l1.865-7.425a.724.724,0,0,0-.751-.714c-8.6.18-10.814,8.886-12.64,16.061-.364,1.43-.713,2.8-1.074,3.97-2.351,7.609-4.7,16.866-6.806,25.2l-.784,3.093a.289.289,0,0,0-.008.046c-.46,3.1-.2,4.951.981,6.066,1.2,1.135,3.175,1.367,6.158,1.242,5.652-.238,5.963-3.55,6.353-7.715.084-.892.171-1.825.314-2.748L1554.73,1907h0l2.782-13.786Zm.622-7.138-1.671,6.654h0l0,.013-2.784,13.8h0l0,.015-3.614,23.306c-.151.972-.238,1.9-.321,2.789-.362,3.867-.65,6.941-5.7,7.154-2.618.11-4.286-.034-5.1-.805-.835-.788-.979-2.361-.569-5.125l.781-3.081c2.117-8.361,4.47-17.648,6.794-25.17.389-1.259.73-2.6,1.086-4C1548.744,1894.908,1550.8,1886.817,1558.135,1886.072Z" transform="translate(-1537.099 -1885.07)" fill="#c7d6dd" fill-rule="evenodd"/>
        </g>
        <g id="Grupo_10818" data-name="Grupo 10818" transform="translate(1352.963 793.162)">
          <path id="Trazado_20887" data-name="Trazado 20887" d="M1394.229,1967.282c-13.955,0-32.486-10.4-35.315-23.921-4.839-23.133,10.514-38.219,22.036-43.731.306-.146.768-.35.677-.661-4.814-16.318,7.383-21.636,10.511-40.1,4.042-1.979,9.337-2.787,11.59-3.369,6.357,9.222,19.518.1,24.595.639,5.29.563,10.631.61,15.389,2.774-6.461,17.226-6.616,11.557-4.4,30.384.66,15.847,1.522,30.731,2.639,45.414C1443.627,1956.749,1419.341,1967.282,1394.229,1967.282Z" transform="translate(-1357.607 -1855.049)" fill="#8691c8" fill-rule="evenodd"/>
          <path id="Trazado_20888" data-name="Trazado 20888" d="M1362.337,1976.258c-.69-.381-.976-1.375-1.676-1.771-10.335-27.417,7.12-43.555,19.853-49.647.306-.146.768-.35.677-.661-4.814-16.318,7.383-21.636,10.511-40.1a25.181,25.181,0,0,1,3.084-1.241,33.855,33.855,0,0,1-.764,4.752c-2.693,8.771-9.486,21.074-9.962,29.507-.588,10.409,5.74,8.13,14.858,9.372.005,0-19.176-.874-30.114,11.937C1362.43,1945.867,1359.549,1957.441,1362.337,1976.258Z" transform="translate(-1357.17 -1880.259)" fill="#a2a9d3" fill-rule="evenodd"/>
          <path id="Trazado_20889" data-name="Trazado 20889" d="M1710.938,1986.495h-.089c15.939-2.208,36.032-10.184,40.052-23.534a16.792,16.792,0,0,0,.792-4.412c-2.417-2.952-5.9-5.793-10.956-5.873-4.017-.065-8.78-1.42-15.538-.713-.749.078-11,4.75-11.747,4.866-7.488,1.161-6.278-2.807-8.53-2.968-1.285-.092,14.139-4.237,13.142-4.247-.093,0,37.077-5.065,33.467-13.576-1.667-3.929-15.161-9.74-19.2-10.331h-.008a46.809,46.809,0,0,1-11.007-2.338c-7.334-2.368-11.811-3.339-19.871-3.387,10.6-2.311,19.511.863,27.636,2.407,18.41-3.846,17.875-16.692,19.27-27.74.766-6.065,6.061-14.472,5.88-18.315a62.19,62.19,0,0,1,6.191,1.791c-6.461,17.226-6.616,11.557-4.4,30.384l.053,1.26.01.25.018.425.014.329q.953,22.011,2.607,43.985c0,.059,0,.122,0,.188C1759.578,1976.287,1735.658,1986.495,1710.938,1986.495Z" transform="translate(-1674.315 -1874.262)" fill="#737eb6" fill-rule="evenodd"/>
          <path id="Trazado_20890" data-name="Trazado 20890" d="M1389.586,1962.375c-7.407,0-16.084-2.9-23.063-7.623-6.327-4.285-11.27-10.083-12.635-16.609a37.962,37.962,0,0,1,3.033-25.417,42.814,42.814,0,0,1,19.217-18.747h0l.042-.02a4.574,4.574,0,0,0,.427-.176c-2.874-9.744.207-15.6,3.875-22.571,2.531-4.809,5.346-10.158,6.625-17.708l.034-.2.181-.089a43.572,43.572,0,0,1,9.7-2.954c.787-.169,1.466-.315,1.96-.443l.265-.068.155.225c4.256,6.175,11.812,3.766,17.686,1.893,2.668-.85,5-1.594,6.629-1.421.982.1,2.024.2,3.064.286,4.3.375,8.546.746,12.444,2.52l.334.152-.128.342c-1.3,3.454-2.334,5.981-3.153,7.974-1.329,3.233-2.072,5.041-2.362,7.043-.369,2.546-.017,5.489.779,12.163.105.885.22,1.842.359,3.024v.029c.33,7.909.71,15.59,1.148,23.137.437,7.516.932,14.905,1.491,22.263q.084,1.1.083,2.161c0,9.495-4.915,16.737-12.588,21.813-7.623,5.043-17.973,7.939-28.91,8.77-2.219.168-4.458.252-6.7.252Zm-22.624-8.271c6.855,4.644,15.368,7.488,22.624,7.488h0c2.23,0,4.45-.083,6.641-.25,10.811-.822,21.029-3.675,28.535-8.641,7.458-4.933,12.235-11.96,12.235-21.159q0-1.039-.08-2.1c-.557-7.325-1.052-14.719-1.491-22.278-.437-7.518-.817-15.195-1.147-23.124-.117-.989-.242-2.039-.359-3.018-.8-6.742-1.16-9.715-.776-12.365.3-2.095,1.06-3.937,2.414-7.23.791-1.924,1.788-4.349,3.014-7.6-3.688-1.591-7.749-1.946-11.855-2.3-1.006-.088-2.014-.176-3.079-.289-1.466-.156-3.726.565-6.309,1.388-6.046,1.927-13.8,4.4-18.409-1.972-.49.119-1.072.244-1.732.386a43.875,43.875,0,0,0-9.342,2.8c-1.315,7.569-4.134,12.925-6.67,17.745-3.588,6.819-6.6,12.545-3.817,21.985.182.618-.411.9-.842,1.106l-.042.02h0a42.008,42.008,0,0,0-18.855,18.394,37.2,37.2,0,0,0-2.966,24.9C1355.975,1944.294,1360.792,1949.925,1366.962,1954.1Z" transform="translate(-1352.963 -1849.751)" fill="#c7d6dd" fill-rule="evenodd"/>
        </g>
        <path id="Trazado_20891" data-name="Trazado 20891" d="M1906.028,1855.873c.644-.139,1.2-.262,1.646-.376,6.357,9.222,19.518.1,24.6.639,1.29.137,2.583.244,3.869.358-2.716,3.707-6.172,7.83-6.556,8.251-7.073,7.753-15.456,8.22-20.118,5.459C1904.27,1867.126,1903.172,1862.127,1906.028,1855.873Z" transform="translate(-508.589 -1061.888)" fill="#737eb6" fill-rule="evenodd"/>
        <g id="Grupo_10819" data-name="Grupo 10819" transform="translate(1397.141 779.338)">
          <path id="Trazado_20892" data-name="Trazado 20892" d="M1934.322,1682.741c3.632-1.975,6.059-1.961,9.692-3.936-.156,3.519-.736,8.3,1.02,11.456,1.227,2.206,3.549,3.2,8.054,2.938-9.975,16.446-31.616,16.79-24.677-.647C1932.162,1692.969,1934.636,1688.453,1934.322,1682.741Z" transform="translate(-1926.549 -1678.289)" fill="#f0b276" fill-rule="evenodd"/>
          <path id="Trazado_20893" data-name="Trazado 20893" d="M1945.225,1863.387c-10.262,7.227-22.226,4.442-16.815-9.154a4.055,4.055,0,0,0,1.466-.1,15.071,15.071,0,0,0-.739,7.462C1930.7,1868.766,1940.219,1865.429,1945.225,1863.387Z" transform="translate(-1926.549 -1839.971)" fill="#f9dda0" fill-rule="evenodd"/>
          <path id="Trazado_20894" data-name="Trazado 20894" d="M2005.019,1682.741c3.632-1.975,6.059-1.961,9.692-3.936a55.415,55.415,0,0,0-.137,7.133,25.857,25.857,0,0,1-10.845,3.755A13.39,13.39,0,0,0,2005.019,1682.741Z" transform="translate(-1997.245 -1678.289)" fill="#ed8c3d" fill-rule="evenodd"/>
          <path id="Trazado_20895" data-name="Trazado 20895" d="M1928.758,1676.93a26.537,26.537,0,0,1,4.473-1.778,28.986,28.986,0,0,0,4.126-1.588l-.034.6c-.194,3.358-.426,7.38,1.165,10.239a5.632,5.632,0,0,0,3.067,2.625,12.113,12.113,0,0,0,4.481.615c-4.263,6.537-10.4,10.288-15.52,11.132a10.583,10.583,0,0,1-4.953-.232,5.623,5.623,0,0,1-3.2-2.45c-1.177-1.974-1.275-5,.291-9.108q.2.005.388-.005a5.018,5.018,0,0,0,3.828-2.313,11.241,11.241,0,0,0,1.8-5.222,16.984,16.984,0,0,0,.087-2.511Zm4.157-2.761a26.661,26.661,0,0,0-4.909,1.992.516.516,0,0,0-.3.5,16.21,16.21,0,0,1-.068,2.671,10.221,10.221,0,0,1-1.611,4.741,4.023,4.023,0,0,1-3.043,1.876,3.74,3.74,0,0,1-.617-.018h0a.516.516,0,0,0-.536.323c-1.84,4.623-1.722,8.076-.354,10.37a6.629,6.629,0,0,0,3.762,2.9,11.606,11.606,0,0,0,5.439.269c5.574-.919,12.291-5.1,16.732-12.4a.517.517,0,0,0-.449-.815,12.483,12.483,0,0,1-5.046-.513,4.642,4.642,0,0,1-2.529-2.16c-1.444-2.6-1.221-6.457-1.035-9.681.029-.507.058-1,.08-1.5h0a.516.516,0,0,0-.762-.475A25.777,25.777,0,0,1,1932.916,1674.169Z" transform="translate(-1920.455 -1672.177)" fill="#f17d43" fill-rule="evenodd"/>
        </g>
        <path id="Trazado_20896" data-name="Trazado 20896" d="M2327.218,1261.716a73.95,73.95,0,0,1,.238,16.409c-.387,5.2-.995,16.186-4.242,24.391-2.509,6.336-6.908,11.3-12.026,8.862,2.58,1.525,4.219,2.41,6.966.666C2332.569,1302.893,2331.158,1275.757,2327.218,1261.716Z" transform="translate(-883.629 -514.332)" fill="#4e4e4e" fill-rule="evenodd"/>
        <g id="Grupo_10829" data-name="Grupo 10829" transform="translate(1373.63 721.887)">
          <g id="Grupo_10826" data-name="Grupo 10826" transform="translate(0 0)">
            <g id="Grupo_10820" data-name="Grupo 10820" transform="translate(1.316)">
              <path id="Trazado_20897" data-name="Trazado 20897" d="M1640.643,965.809q.027.206.054.411.832,6.333,1.664,12.665c1.241,9.406,1.552,16.5,6.566,22.233,4.683,5.355,13.709,9.839,24.911,5.174a22.722,22.722,0,0,0,12.949-13.516c2.858-7.608,2.383-19-2.516-32.068-11.171,1.02-24.931-3.173-30.489-14.825a91.161,91.161,0,0,1-6.056,11.169A99.827,99.827,0,0,1,1640.643,965.809Z" transform="translate(-1640.23 -944.972)" fill="#f0b276" fill-rule="evenodd"/>
              <path id="Trazado_20898" data-name="Trazado 20898" d="M1640.643,1167.763q.027.206.054.411.832,6.333,1.664,12.665c1.241,9.406,1.552,16.5,6.566,22.233a20.928,20.928,0,0,0,13.685,7.033c-18.872-5.2-17-26.08-19.208-42.028-.136-.985-1.047-3.732.135-3a3.67,3.67,0,0,0-.381-.194C1641.7,1166.57,1640.632,1167.677,1640.643,1167.763Z" transform="translate(-1640.23 -1146.926)" fill="#f9dda0" fill-rule="evenodd"/>
              <path id="Trazado_20899" data-name="Trazado 20899" d="M1813.883,1008.231a24.289,24.289,0,0,0,8.516-1.939,22.721,22.721,0,0,0,12.949-13.516c2.859-7.608,2.384-19-2.516-32.068-11.171,1.02-24.931-3.173-30.489-14.825-.108.2-.311.628-.6,1.233,2.336,5.328,11.2,13.9,23.247,20.59,7.105,3.944,6.864,17.82,2.419,27.651-2.61,5.772-5.844,7.665-12.528,12.325Z" transform="translate(-1788.792 -944.972)" fill="#f29d54" fill-rule="evenodd"/>
              <path id="Trazado_20900" data-name="Trazado 20900" d="M1635.347,955.079l.054.411,1.664,12.665c.124.94.266,2.084.4,3.2.981,7.914,1.747,14.095,6.261,19.255a21.45,21.45,0,0,0,11.674,6.83,23.021,23.021,0,0,0,13.708-1.546,23.508,23.508,0,0,0,8.038-5.425,24.147,24.147,0,0,0,5.14-8.328,34.334,34.334,0,0,0,1.643-14.632,65.607,65.607,0,0,0-4.159-17.727l-.111-.3-.314.029a35.649,35.649,0,0,1-18.438-3.219,24.339,24.339,0,0,1-11.639-11.372l-.349-.732-.39.712c-.109.2-.288.578-.538,1.107a78.54,78.54,0,0,1-5.5,10.03,71.287,71.287,0,0,1-6.177,7.689c-.625.7-1,1.114-.971,1.353Zm.875.3-.054-.411c-.019-.142.3-.171.767-.69a71.928,71.928,0,0,0,6.249-7.784,79.21,79.21,0,0,0,5.561-10.138l.155-.326a25.3,25.3,0,0,0,11.651,11,36.458,36.458,0,0,0,18.557,3.325,64.533,64.533,0,0,1,4,17.207,33.516,33.516,0,0,1-1.591,14.275,23.322,23.322,0,0,1-4.962,8.046,22.683,22.683,0,0,1-7.758,5.233,22.208,22.208,0,0,1-13.221,1.5,20.613,20.613,0,0,1-11.219-6.564c-4.343-4.966-5.1-11.037-6.059-18.81-.119-.959-.242-1.948-.407-3.2Z" transform="translate(-1635.345 -934.188)" fill="#f17d43" fill-rule="evenodd"/>
            </g>
            <path id="Trazado_20901" data-name="Trazado 20901" d="M1951.287,1170.3c-5.926-4.648-6.964-5.262-13.764-4.6-1.578.154-1.691-.135-1.579-.584.213-.855,2.7-1.744,5.13-1.677C1944.8,1163.54,1947.907,1165.386,1951.287,1170.3Z" transform="translate(-1911.198 -1145.587)" fill="#611e00" fill-rule="evenodd"/>
            <g id="Grupo_10822" data-name="Grupo 10822" transform="translate(0 22.681)">
              <g id="Grupo_10821" data-name="Grupo 10821" transform="translate(4.922)">
                <path id="Trazado_20902" data-name="Trazado 20902" d="M1689.725,1234.875c-.047-3.492-.279-5.3-1.744-7.164-2.141-2.719-3.754-2.457-4.619-1.521-1.635,1.767-1.612,6.679-1.7,9.036C1684.586,1236.6,1687.412,1237.425,1689.725,1234.875Z" transform="translate(-1681.662 -1225.537)" fill="#f2823c" fill-rule="evenodd"/>
                <path id="Trazado_20903" data-name="Trazado 20903" d="M1696.046,1245.613c-.089,1.481-.278,3.767-.782,3.657-.459-.1-.706-2.463-.331-4.5a4.671,4.671,0,0,1,1.4-2.8c.534-.475.617.142.516.52C1696.436,1244.008,1696.144,1243.976,1696.046,1245.613Z" transform="translate(-1693.731 -1240.531)" fill="#f7cb91" fill-rule="evenodd"/>
              </g>
              <path id="Trazado_20904" data-name="Trazado 20904" d="M1631.282,1334.24c-4.7,1.583-5.411,1.17-9.816-1.643-1.087-.513-1.939-1.418-3.026-1.931,6.523-.857,6.316,3.5,13.11,1C1632.181,1331.43,1632.14,1333.951,1631.282,1334.24Z" transform="translate(-1618.44 -1322.377)" fill="#231f20" fill-rule="evenodd"/>
            </g>
            <path id="Trazado_20905" data-name="Trazado 20905" d="M1660.029,1153.29c-3.819-.523-4.916.477-8.421,2.705.406-1.13,3.683-5.979,7.85-5.294C1660.742,1150.913,1661.622,1153.508,1660.029,1153.29Z" transform="translate(-1649.026 -1133.786)" fill="#611e00" fill-rule="evenodd"/>
            <g id="Grupo_10824" data-name="Grupo 10824" transform="translate(23.082 22.869)">
              <g id="Grupo_10823" data-name="Grupo 10823" transform="translate(0.819)">
                <path id="Trazado_20906" data-name="Trazado 20906" d="M1938.6,1234.936c-2.4-4.938-4.558-7.9-8.388-6.721-4.231,1.307-4.779,5.054-4.747,8.887C1930.865,1240.628,1934.267,1239.145,1938.6,1234.936Z" transform="translate(-1925.463 -1227.956)" fill="#f2823c" fill-rule="evenodd"/>
                <path id="Trazado_20907" data-name="Trazado 20907" d="M1962.523,1246.959c-.088,1.482-.277,3.767-.782,3.657-.459-.1-.706-2.463-.331-4.5a4.67,4.67,0,0,1,1.4-2.8c.534-.475.617.142.516.52C1962.914,1245.353,1962.622,1245.321,1962.523,1246.959Z" transform="translate(-1958.444 -1241.959)" fill="#f7cb91" fill-rule="evenodd"/>
              </g>
              <path id="Trazado_20908" data-name="Trazado 20908" d="M1915.6,1288.477c8.142,5.356,12.243.153,17.267-6.8-7.086,4.906-9.782,7.854-16.516,4.508C1914.487,1285.261,1914.725,1287.9,1915.6,1288.477Z" transform="translate(-1914.939 -1277.496)" fill="#231f20" fill-rule="evenodd"/>
            </g>
            <g id="Grupo_10825" data-name="Grupo 10825" transform="translate(15.222 34.539)">
              <path id="Trazado_20909" data-name="Trazado 20909" d="M1817.6,1379.072c-3.082-1.005-3.052,2.577-.314,3.667C1810.738,1382.339,1815.586,1375.044,1817.6,1379.072Z" transform="translate(-1813.978 -1377.863)" fill="#f49745" fill-rule="evenodd"/>
              <path id="Trazado_20910" data-name="Trazado 20910" d="M1842.037,1401.595c-.512-.145-.959-2.676.372-2.1C1843.057,1399.771,1842.322,1401.675,1842.037,1401.595Z" transform="translate(-1839.387 -1397.731)" fill="#f9dda0" fill-rule="evenodd"/>
            </g>
          </g>
          <g id="Grupo_10828" data-name="Grupo 10828" transform="translate(48.583 28.684)">
            <g id="Grupo_10827" data-name="Grupo 10827">
              <path id="Trazado_20911" data-name="Trazado 20911" d="M2244.24,1324.8l.269-10.661c5.6-5.565,9.8-2.693,9.93,2.283C2254.588,1322.149,2248.112,1329.591,2244.24,1324.8Z" transform="translate(-2244.105 -1310.446)" fill="#f0b276" fill-rule="evenodd"/>
              <path id="Trazado_20912" data-name="Trazado 20912" d="M2244.24,1324.813l.269-10.661c2.836-2.817,5.312-3.471,7.082-2.787-.024.012-.048.024-.07.036a11.707,11.707,0,0,0-5.214,6.016c-1.366,3.393-1.436,4.524-.921,8.181a.425.425,0,0,1-.015.239A4.552,4.552,0,0,1,2244.24,1324.813Z" transform="translate(-2244.105 -1310.456)" fill="#f29d54" fill-rule="evenodd"/>
              <path id="Trazado_20913" data-name="Trazado 20913" d="M2242.559,1317.379a4.005,4.005,0,0,0,5.528.905,9.558,9.558,0,0,0,2.8-2.668,12.088,12.088,0,0,0,2.369-7,8.183,8.183,0,0,0-.928-3.76,3.987,3.987,0,0,0-5.028-1.956,10.881,10.881,0,0,0-4.125,2.778c-.138.129-.349.475-.263.665s.485.228.95-.159v-.02a9.919,9.919,0,0,1,3.69-2.476,3.164,3.164,0,0,1,4.052,1.573,7.36,7.36,0,0,1,.823,3.374,11.234,11.234,0,0,1-2.213,6.494,8.722,8.722,0,0,1-2.549,2.438,3.169,3.169,0,0,1-4.295-.519C2242.645,1316.556,2242.4,1316.724,2242.559,1317.379Z" transform="translate(-2242.511 -1302.65)" fill="#f17d43" fill-rule="evenodd"/>
              <path id="Trazado_20914" data-name="Trazado 20914" d="M2263.607,1356.05c-.194-2.271-6.387-.04-6.479,5.22a22.862,22.862,0,0,1,3.731-4.334c1.076,2.887.068,5.266-2.985,5.772-.424.07-.027.365.15.4,4.263.85,5.822-4.049,3.833-6.8A2.658,2.658,0,0,1,2263.607,1356.05Z" transform="translate(-2255.99 -1351.077)" fill="#f17d43" fill-rule="evenodd"/>
            </g>
            <path id="Trazado_20915" data-name="Trazado 20915" d="M2259.488,1462.167a1.113,1.113,0,1,0,1.113,1.113A1.113,1.113,0,0,0,2259.488,1462.167Z" transform="translate(-2257.14 -1449.749)" fill="#fff9ae" fill-rule="evenodd"/>
          </g>
        </g>
        <g id="Grupo_10833" data-name="Grupo 10833" transform="translate(1375.632 796.505)">
          <g id="Grupo_10831" data-name="Grupo 10831" transform="translate(56.985 0)">
            <g id="Grupo_10830" data-name="Grupo 10830" transform="translate(0.517 0.516)">
              <path id="Trazado_20916" data-name="Trazado 20916" d="M2388.73,1899.333c6.745,3.769,8.5,24.456,8.87,41.132.222,9.949.071,17.866-1.545,24.931-5.141,2.444-4,.846-8.753,1.9a2.684,2.684,0,0,1-.526.1,1.872,1.872,0,0,0-.278.019c-2.09-4.247-2.735-8.381-.553-6.9-.768-7.753-1.316-15.373-2.084-23.127-.488-7.642-.558-12.9-1.045-20.542C2382.5,1911.871,2386.06,1902.641,2388.73,1899.333Z" transform="translate(-2382.795 -1899.333)" fill="#f0b276" fill-rule="evenodd"/>
              <path id="Trazado_20917" data-name="Trazado 20917" d="M2385.555,2117.081c-.579-6.344-1.062-12.631-1.694-19.008-.488-7.642-.558-12.9-1.045-20.542a16.365,16.365,0,0,1,.332-3.94c1.254,2.923,1.661,13.367,2.242,22.114C2386.05,2105.648,2386.733,2113.984,2385.555,2117.081Z" transform="translate(-2382.796 -2060.025)" fill="#f9dda0" fill-rule="evenodd"/>
            </g>
            <path id="Trazado_20918" data-name="Trazado 20918" d="M2390.11,1899.333c6.745,3.769,8.5,24.456,8.87,41.132.219,9.8-.112,18.015-1.666,25.04-.348.419-.908-.312-1.231-.153a9.252,9.252,0,0,1-3.175,1.431l-.185.018c4.05-9.1.422-45.392-2.5-54.1-2.162-6.442-4.268.03-5.933,1.7C2384.906,1909.286,2387.831,1902.155,2390.11,1899.333Z" transform="translate(-2383.658 -1898.817)" fill="#f29d54" fill-rule="evenodd"/>
            <path id="Trazado_20919" data-name="Trazado 20919" d="M2382.736,1893.9c3,2.038,4.938,7.844,6.189,15.128a182.119,182.119,0,0,1,2.039,25.329,153.9,153.9,0,0,1-.542,19.118,56.853,56.853,0,0,1-.869,5.853c.093-.028.178-.062.274-.084.13-.032.258-.074.391-.1a2.038,2.038,0,0,1,.25-.056,1.912,1.912,0,0,1,.2-.052c.346-1.735.563-3.377.783-5.456a154.969,154.969,0,0,0,.546-19.248,183.214,183.214,0,0,0-2.051-25.483c-1.348-7.849-3.539-14.083-7.056-16.074a.516.516,0,0,0-.681.112,32.3,32.3,0,0,0-4.38,8.91,25.807,25.807,0,0,0-1.649,8.951c.245,3.84.384,7.047.522,10.254.14,3.243.28,6.486.523,10.288h0v.018c.719,7.261,1.256,14.539,1.955,21.8a2.867,2.867,0,0,1,.9-.19h.121c-.694-7.228-1.229-14.47-1.945-21.7h0c-.245-3.845-.384-7.056-.523-10.268-.14-3.239-.28-6.478-.522-10.274a24.813,24.813,0,0,1,1.6-8.559A33.213,33.213,0,0,1,2382.736,1893.9Z" transform="translate(-2376.159 -1892.701)" fill="#f17d43" fill-rule="evenodd"/>
          </g>
          <g id="Grupo_10832" data-name="Grupo 10832" transform="translate(0 55.715)">
            <path id="Trazado_20920" data-name="Trazado 20920" d="M1680.058,2622.219c-1.083-.972-2.553-2.243-3.74-3.249-1.254-1.063-2.093-1.815-3.467-1.856-1.728-.052-4.284.917-5.987,1.415a11.99,11.99,0,0,1-5.368-1.058c-1.927-.8-1,2.04-.488,2.58,1.748,1.843,5.013,1.279,7.207.858.254.25.762.452,1.016.7l-4.772,3.033-7.58,1.617c-1.45.295-5.036.723-4.034,2.948-.842-.208-2.6,1.125-1.3,1.646.722,2.43,5.724,1.571,7.964,1.7l5.815.219-3.259,1.927-1.706-.388c-1.266-.288-3.539.53-1.459,1.154,1.5.449,2.861.7,4.362,1.147l5.786-1.92,6.542-3.566,6.7-1.415c8.314-1.8,34.515-1.058,38.9-3.964.231-.153.364.262.468.084-1.512-4.815-5.844-9.077-12.513-10.518C1705.088,2616.994,1685.7,2622.9,1680.058,2622.219Z" transform="translate(-1650.542 -2614.778)" fill="#f0b276" fill-rule="evenodd"/>
            <path id="Trazado_20921" data-name="Trazado 20921" d="M1789.625,2622.219c-1.083-.972-2.553-2.243-3.74-3.249-1.254-1.063-2.093-1.815-3.467-1.856-1.727-.052-4.284.917-5.987,1.415a11.989,11.989,0,0,1-5.368-1.058c-1.217-.5-1.3.441-1.061,1.343,7.372,3.487,11.111-1.887,13.695,1.052,5.194,5.907,7.347,5.021,15.2,3.228a95.209,95.209,0,0,0,16.352-5.181c1.278-.515,4.973-1.813,6.914-1.52a19.927,19.927,0,0,0-3.459-1.076c-4.049,1.677-23.433,7.583-29.079,6.9Zm33.537-5.375-.027-.013C1823.152,2616.848,1823.161,2616.851,1823.163,2616.844Z" transform="translate(-1760.109 -2614.778)" fill="#f9dda0" fill-rule="evenodd"/>
            <path id="Trazado_20922" data-name="Trazado 20922" d="M2016.514,2685.76l2.758-.583c8.753-1.9,37.144-.775,39.214-4.326a9.474,9.474,0,0,0-3.438-5.39c.1,2.771-7.169,4.811-8.884,5.292C2040.832,2682.25,2025.461,2683.533,2016.514,2685.76Z" transform="translate(-1987.527 -2670.24)" fill="#f29d54" fill-rule="evenodd"/>
            <path id="Trazado_20923" data-name="Trazado 20923" d="M1673.9,2615.313c-.476-.425-1.024-.906-1.588-1.4h0c-.716-.622-1.436-1.243-2.163-1.852-1.269-1.077-2.157-1.83-3.671-1.876h0a17.21,17.21,0,0,0-5,1.08c-.388.123-.756.24-1.061.33l-.621-.035a10.3,10.3,0,0,1-4.479-.978,1.674,1.674,0,0,0-1.164-.124,1.025,1.025,0,0,0-.671.7h0a2.057,2.057,0,0,0-.058.845,4.324,4.324,0,0,0,.808,2.028c1.853,1.952,5.067,1.514,7.453,1.063.056.04.115.078.174.115l-3.992,2.538-7.48,1.6h0c-.136.027-.28.054-.434.083-1.489.278-4.532.836-4.2,2.917a2.455,2.455,0,0,0-1.452,1.07h0a1.075,1.075,0,0,0-.124.717h0a1.05,1.05,0,0,0,.547.721c1.066,2.616,6,1.717,8.37,1.854l3.991.15-1.5.885-1.5-.341a3.986,3.986,0,0,0-2.3.256c-.486.238-.87.708-.554,1.253a1.847,1.847,0,0,0,1.12.688c1.441.432,2.92.715,4.362,1.147a.543.543,0,0,0,.358-.016l5.754-1.91a.539.539,0,0,0,.093-.042l6.466-3.525,6.628-1.4v0c3.518-.762,10.325-.959,17.292-1.161,2.083-.061,17.634-.418,21.957-3.248a1.783,1.783,0,0,0,.623-1.731c-.049-.3-1.163-.068-1.08.173.089.257-.367.715-.529.816-2.35,1.466-11.787,2.644-21,2.911-7.023.2-13.887.4-17.49,1.183h0l-6.7,1.415h0a.541.541,0,0,0-.145.054l-6.5,3.544-5.577,1.851c-1.435-.419-2.9-.7-4.333-1.14a2.818,2.818,0,0,1,1.318-.069l1.675.381a.539.539,0,0,0,.425-.053l3.259-1.927v0a.539.539,0,0,0-.253-1l-5.8-.22c-.512-.03-1.164-.01-1.875.013-1.782.056-3.89.344-4.945-.377l4.131-.186h0c.017,0,.034,0,.052,0l8.8-.719a.571.571,0,1,0-.1-1.139l-8.763.716c-1.342.094-4.123.668-5.187-.04a1.521,1.521,0,0,1,.946-.56.566.566,0,0,0,.289.056l4.143-.28h0a.508.508,0,0,0,.089-.014l8.072-1.856a.571.571,0,1,0-.258-1.112l-8.018,1.844-3.679.249c-.041-.506.362-.851.9-1.094a13.422,13.422,0,0,1,2.85-.724h0l7.569-1.615a.531.531,0,0,0,.191-.075l4.747-3.017a.541.541,0,0,0,.116-.855,3.138,3.138,0,0,0-.611-.43,2.478,2.478,0,0,1-.4-.272h0a.538.538,0,0,0-.482-.146c-1.995.383-5.145.952-6.712-.7a2.843,2.843,0,0,1-.5-1.8h0c0-.009-.028,0-.016-.008a.76.76,0,0,1,.411.1,11.126,11.126,0,0,0,4.836,1.057l.709.041h0a.542.542,0,0,0,.182-.021c.391-.114.774-.235,1.176-.363a16.594,16.594,0,0,1,4.643-1.029h0a5.068,5.068,0,0,1,3.006,1.619c.718.616,1.438,1.227,2.152,1.848h0c.6.523,1.193,1.042,1.7,1.5h0a.534.534,0,0,0,.3.134c2.312.28,6.77-.49,11.562-1.628,7.1-1.685,16.221-4.185,18.859-5.246a41.352,41.352,0,0,0,5.031.671,20,20,0,0,0-4.964-1.76.54.54,0,0,0-.328.032c-2.43,1.005-11.646,3.542-18.849,5.251C1680.343,2614.771,1676.113,2615.519,1673.9,2615.313Z" transform="translate(-1644.155 -2608.39)" fill="#f17d43" fill-rule="evenodd"/>
          </g>
        </g>
        <g id="Grupo_10834" data-name="Grupo 10834" transform="translate(1412.697 795.862)">
          <path id="Trazado_20924" data-name="Trazado 20924" d="M2147.613,1945.368c-.507,2.394-21.268,5.775-20.646,7.613,4.376,12.939-10.639,11.429,22.979,7.223,6.916-.865,10.471-1.22,12.311-3.723,5.517-7.5,1.058-52.809-2.252-60.749-1.5-3.6-6.68-5.9-8.806-3.764-7.868,7.9-5.919,26.769-4.421,40.234C2146.954,1933.784,2147.826,1944.366,2147.613,1945.368Z" transform="translate(-2126.434 -1890.622)" fill="#8691c8" fill-rule="evenodd"/>
          <path id="Trazado_20925" data-name="Trazado 20925" d="M2147.613,1971.506c-.507,2.394-21.268,5.775-20.646,7.613a17.918,17.918,0,0,1,.607,2.249c3.457-1.054,7.967-2.128,9.946-2.909,5.741-2.266,10.391-3.909,12.119-5.552,2.318-2.2-4.223-32.67.385-53.149.043-.192.033-.275-.021-.269-6.46,8.554-4.642,26.116-3.225,38.849C2146.954,1959.923,2147.826,1970.5,2147.613,1971.506Z" transform="translate(-2126.434 -1916.761)" fill="#a2a9d3" fill-rule="evenodd"/>
          <path id="Trazado_20926" data-name="Trazado 20926" d="M2131.8,1958.6c.463,4.121-1.317,3.935-.4,4.457,1.1.631,5.881-.785,22.4-2.852,6.916-.865,10.471-1.22,12.311-3.723,5.517-7.5,1.058-52.809-2.252-60.749-1.5-3.6-6.68-5.9-8.806-3.764a14.62,14.62,0,0,0-2.464,3.362c3.353-1.6,7.438,5.5,7.976,9.05,1.022,6.735,3.326,43.5.334,45.845C2154.816,1955,2139.068,1957.969,2131.8,1958.6Z" transform="translate(-2130.288 -1890.622)" fill="#737eb6" fill-rule="evenodd"/>
          <path id="Trazado_20927" data-name="Trazado 20927" d="M2141.971,1939.3c-.328,1.547-6.123,3.085-11.592,4.536-2.548.676-5.022,1.333-6.789,1.93a12.469,12.469,0,0,0-2.282.871,14.652,14.652,0,0,1,.492,8.637c-.16.732-.246,1.128-.086,1.179.615.193,2.332-.078,6.069-.669,3.438-.543,8.538-1.349,15.945-2.276l.758-.094c6.273-.782,9.558-1.191,11.2-3.418,2.273-3.093,2.787-13.04,2.378-24.054-.553-14.905-2.811-31.674-4.692-36.186a6.52,6.52,0,0,0-1.436-2.084,7.973,7.973,0,0,0-3.02-1.888,4.1,4.1,0,0,0-2.81-.081,2.109,2.109,0,0,0-.687.457c-3.825,3.842-5.267,10.413-5.572,17.683-.307,7.345.553,15.409,1.3,22.125.109.983.485,5.416.706,8.893a33,33,0,0,1,.122,4.44Zm-11.858,3.526c5.167-1.371,10.641-2.823,10.835-3.743a36.232,36.232,0,0,0-.142-4.158c-.22-3.459-.594-7.868-.7-8.844-.75-6.748-1.614-14.851-1.3-22.281.314-7.505,1.832-14.319,5.874-18.379a3.138,3.138,0,0,1,1.027-.685,5.112,5.112,0,0,1,3.541.056,9.039,9.039,0,0,1,3.426,2.138,7.585,7.585,0,0,1,1.665,2.423c1.917,4.6,4.214,21.539,4.77,36.55.416,11.216-.149,21.4-2.579,24.708-1.906,2.593-5.345,3.021-11.911,3.84l-.758.094c-7.5.938-12.524,1.732-15.912,2.268-3.905.617-5.7.9-6.54.636-1.076-.338-.918-1.061-.626-2.4a13.709,13.709,0,0,0-.459-8.08c-.272-.8.934-1.52,2.937-2.2C2125.045,1944.166,2127.543,1943.5,2130.113,1942.821Z" transform="translate(-2120.28 -1884.442)" fill="#c7d6dd" fill-rule="evenodd"/>
        </g>
        <g id="Grupo_10838" data-name="Grupo 10838" transform="translate(1376.94 752.09)">
          <g id="Grupo_10837" data-name="Grupo 10837" transform="translate(0 6.392)">
            <path id="Trazado_20928" data-name="Trazado 20928" d="M1666.054,1412.128q-.035,4.344-.07,8.687l3.03,7.216,5.025,4.88,6.029,4.592c9.948.181,16.51-.238,22.794-8.442-1.3-1.8-2.682-4.014-3.986-5.818q-.383-4.6-.766-9.193l.959-3.037C1685.221,1409.38,1679.45,1407.785,1666.054,1412.128Z" transform="translate(-1665.593 -1408.933)" fill="#fff" fill-rule="evenodd"/>
            <g id="Grupo_10835" data-name="Grupo 10835" transform="translate(0.055 1.387)">
              <path id="Trazado_20929" data-name="Trazado 20929" d="M1662.853,1437.323l.192.458c4.879,1.186,18.483,1.317,22.861,1.772,1.984.206,1.7,1.03,1.247,3.1-.631,2.859-15.976,3.484-18.482,2.418a5.258,5.258,0,0,0-2.745-.6l1.354,1.315a21.8,21.8,0,0,0,6.564.837c.774,0,9.353-.65,12.437-.424,3.23.236.355,1.286-1.293,1.613-3.749.744-4.907,1.407-7.12,1.506-3.979.178-4.5-.795-7.983-1l.946.919.566.431a17.442,17.442,0,0,0,5.966,1.315c2.076.061,11.915-.709,11.868,1.749,0,.046,0,.092-.005.138,3.839-1.07,7.172-3.23,10.429-7.482-1.3-1.8-2.682-4.014-3.986-5.818q-.383-4.6-.766-9.193l.959-3.037c-.883-.1-1.732-.208-2.554-.311-.767,3.1-2.135,6.243-5.275,7.561-.055.023-12.494,1.553-12.863,1.563-4.6.127-9.423.176-12.391.512C1662.121,1436.739,1662.853,1437.323,1662.853,1437.323Z" transform="translate(-1662.439 -1426.645)" fill="#e6e7e8" fill-rule="evenodd"/>
              <path id="Trazado_20930" data-name="Trazado 20930" d="M1662.489,1432.751l.247.589c-.354-.074-.671-.152-.95-.234l-.126-.3c.224-.018.51-.036.828-.055Zm3.2,7.15,1.619,1.573a7.717,7.717,0,0,1-1.8-.653l-.646-.627c-.015-.209.273-.334.823-.292Zm4.161,4.042.461.448,1.566,1.193a13.309,13.309,0,0,1-2.649-1.152l-.632-.614c.06-.118.449-.1,1.253.125Zm18.57,3.982.325-.095a18.8,18.8,0,0,0,9.647-7c-.6-.845-1.216-1.763-1.829-2.681-.67-1-1.34-2.005-1.986-2.9l-.065-.09-.009-.107-.766-9.193-.007-.077.023-.074.817-2.585c-.706-.085-1.423-.173-2.136-.262.087-.321.155-.6.185-.766.779.1,1.607.2,2.514.3l.471.056-.143.452-.936,2.963.751,9.009c.637.886,1.287,1.859,1.936,2.831.669,1,1.339,2,1.984,2.9l.17.236-.177.23c-3.2,4.175-6.474,6.371-10.223,7.5q-.275.083-.553.158a5.441,5.441,0,0,0,.041-.555A.843.843,0,0,0,1688.416,1447.924Z" transform="translate(-1661.661 -1422.098)" fill="#e6e7e8" fill-rule="evenodd"/>
            </g>
            <path id="Trazado_20931" data-name="Trazado 20931" d="M1661.8,1407.757l-.067,8.32,2.97,7.073,4.948,4.8,5.911,4.5c4.879.086,8.934.02,12.523-1.064a18.8,18.8,0,0,0,9.647-7c-.6-.845-1.216-1.763-1.829-2.681-.67-1-1.34-2.005-1.986-2.9l-.065-.09-.009-.107-.766-9.193-.007-.077.023-.073.817-2.585c-1.453-.174-2.954-.365-4.374-.545-10.431-1.324-16.275-2.065-27.737,1.611Zm-.85,8.4.07-8.687,0-.282.269-.087c11.8-3.827,17.719-3.076,28.344-1.728,1.443.183,2.977.378,4.839.6l.471.055-.143.452-.936,2.963.751,9.009c.637.886,1.287,1.859,1.936,2.831.67,1,1.339,2,1.985,2.9l.17.236-.176.23c-3.2,4.175-6.474,6.371-10.223,7.5-3.718,1.122-7.879,1.183-12.889,1.092l-.13,0-.1-.077-6.029-4.592-.017-.013-.018-.018-5.025-4.88-.059-.057-.03-.072-3.03-7.216-.03-.071Z" transform="translate(-1660.952 -1404.275)" fill="#fff" fill-rule="evenodd"/>
            <g id="Grupo_10836" data-name="Grupo 10836" transform="translate(0.376 4.831)">
              <path id="Trazado_20932" data-name="Trazado 20932" d="M1665.818,1472.511l11.975.511,14.052-1.361,5.822-5.336.528.577-5.918,5.424-.1.089-.13.012-14.208,1.376-.027,0h-.025l-12-.512Z" transform="translate(-1665.788 -1466.326)" fill="#fff" fill-rule="evenodd"/>
              <path id="Trazado_20933" data-name="Trazado 20933" d="M1704.126,1588.408l7.844,1.47,12.361-1.246,9.4-4.972.365.693-9.47,5.007-.066.035-.078.008-12.494,1.259-.056.006-.054-.01-7.9-1.48Z" transform="translate(-1701.009 -1574.526)" fill="#fff" fill-rule="evenodd"/>
              <path id="Trazado_20934" data-name="Trazado 20934" d="M1752.283,1615.776l7.989,1.711,11.48-2.271,7.143-6.38.521.583-7.225,6.453-.082.073-.1.021-11.661,2.306-.078.015-.079-.017-8.068-1.728Z" transform="translate(-1745.399 -1597.743)" fill="#fff" fill-rule="evenodd"/>
            </g>
          </g>
          <path id="Trazado_20935" data-name="Trazado 20935" d="M2072.921,1332.272c-.254.152-.986-1.024-.39-1.38l14.506-8.655a.522.522,0,0,1,.716.18c.515.861-13.437,9.023-14.832,9.855Zm15.165,4.662-13.333,10.188c-.312.226-1.533-.7-.818-1.221l12.963-9.4A4.684,4.684,0,0,0,2088.087,1336.934Z" transform="translate(-2040.281 -1322.163)" fill="#fff" fill-rule="evenodd"/>
        </g>
      </g>
    </g>
    <path id="Trazado_20937" data-name="Trazado 20937" d="M178.7,35.432c107.1,0,133.921,22.453,133.921,87.541S301.112,272.392,194.01,272.392,36.852,173.616,36.852,108.528,71.6,35.432,178.7,35.432Z" transform="translate(1135.149 1459.348) rotate(180)" fill="rgba(152,152,152,0.12)"/>
  </g>
</svg>
