<svg xmlns="http://www.w3.org/2000/svg" xmlns:xlink="http://www.w3.org/1999/xlink" width="304" height="329.044" viewBox="0 0 304 329.044">
  <defs>
    <linearGradient id="linear-gradient" x1="0.547" y1="-0.546" x2="0.547" y2="1.007" gradientUnits="objectBoundingBox">
      <stop offset="0" stop-color="#b9533e"/>
      <stop offset="0.252" stop-color="#a04433"/>
      <stop offset="0.749" stop-color="#742a1f"/>
      <stop offset="1" stop-color="#632118"/>
    </linearGradient>
    <linearGradient id="linear-gradient-2" x1="0.589" y1="-0.231" x2="0.589" y2="0.854" xlink:href="#linear-gradient"/>
    <linearGradient id="linear-gradient-3" x1="1.598" y1="-4.698" x2="1.598" y2="7.232" xlink:href="#linear-gradient"/>
    <linearGradient id="linear-gradient-4" x1="0.695" y1="-0.294" x2="0.695" y2="1.753" xlink:href="#linear-gradient"/>
    <linearGradient id="linear-gradient-5" x1="-399.816" y1="32.792" x2="849.22" y2="-15.644" gradientUnits="objectBoundingBox">
      <stop offset="0" stop-color="#ffb283"/>
      <stop offset="0.325" stop-color="#feaf80"/>
      <stop offset="0.534" stop-color="#fca679"/>
      <stop offset="0.711" stop-color="#f8976c"/>
      <stop offset="0.868" stop-color="#f3835b"/>
      <stop offset="1" stop-color="#ed6b47"/>
    </linearGradient>
    <linearGradient id="linear-gradient-6" x1="-375.503" y1="31.434" x2="749.932" y2="-14.241" xlink:href="#linear-gradient-5"/>
    <linearGradient id="linear-gradient-7" x1="-523.044" y1="41.364" x2="1186.285" y2="-20.973" xlink:href="#linear-gradient-5"/>
    <linearGradient id="linear-gradient-8" x1="-714.251" y1="54.979" x2="1729.73" y2="-29.539" xlink:href="#linear-gradient-5"/>
    <linearGradient id="linear-gradient-9" x1="-1219.901" y1="90.278" x2="3151.727" y2="-51.337" xlink:href="#linear-gradient-5"/>
    <linearGradient id="linear-gradient-10" x1="-30.013" y1="8.213" x2="438.7" y2="-0.437" xlink:href="#linear-gradient-5"/>
    <linearGradient id="linear-gradient-11" x1="0.005" y1="1.68" x2="3.93" y2="0.085" xlink:href="#linear-gradient-5"/>
    <linearGradient id="linear-gradient-12" x1="-2355.984" y1="73.734" x2="2221.218" y2="-34.099" xlink:href="#linear-gradient-5"/>
    <linearGradient id="linear-gradient-13" x1="-12067.046" y1="154.138" x2="9423.474" y2="-60.724" xlink:href="#linear-gradient-5"/>
    <linearGradient id="linear-gradient-14" x1="-294.002" y1="13.97" x2="184.018" y2="-3.92" xlink:href="#linear-gradient-5"/>
    <linearGradient id="linear-gradient-15" x1="-4458.424" y1="83.267" x2="3814.922" y2="-35.363" xlink:href="#linear-gradient-5"/>
    <linearGradient id="linear-gradient-16" x1="-1046.008" y1="46.56" x2="703.097" y2="-15.743" xlink:href="#linear-gradient-5"/>
    <linearGradient id="linear-gradient-17" x1="-3309.128" y1="85.3" x2="2206.436" y2="-28.574" xlink:href="#linear-gradient-5"/>
    <linearGradient id="linear-gradient-18" x1="-2348.461" y1="86.392" x2="2325.869" y2="-41.868" xlink:href="#linear-gradient-5"/>
    <linearGradient id="linear-gradient-19" x1="-2830.206" y1="71.803" x2="2542.424" y2="-31.774" xlink:href="#linear-gradient-5"/>
    <linearGradient id="linear-gradient-20" x1="-1460.116" y1="41.098" x2="930.96" y2="-12.817" xlink:href="#linear-gradient-5"/>
    <linearGradient id="linear-gradient-21" x1="-4534.124" y1="109.027" x2="3144.406" y2="-38.152" xlink:href="#linear-gradient-5"/>
    <linearGradient id="linear-gradient-22" x1="-5946.126" y1="122.639" x2="4299.354" y2="-44.772" xlink:href="#linear-gradient-5"/>
    <linearGradient id="linear-gradient-23" x1="-41069.113" y1="780.279" x2="30858.34" y2="-299.259" xlink:href="#linear-gradient-5"/>
    <linearGradient id="linear-gradient-24" x1="-4.989" y1="4.189" x2="2.505" y2="-0.455" xlink:href="#linear-gradient-5"/>
    <linearGradient id="linear-gradient-25" x1="-1.421" y1="1.233" x2="1.94" y2="0.269" xlink:href="#linear-gradient-5"/>
  </defs>
  <g id="Grupo_19162" data-name="Grupo 19162" transform="translate(-2991 2578.044)">
    <path id="Trazado_35662" data-name="Trazado 35662" d="M0,0H304V94H0Z" transform="translate(2991 -2343)" fill="#f56b6b"/>
    <path id="Trazado_35663" data-name="Trazado 35663" d="M-47.809-17.639A5.308,5.308,0,0,1-43.744-16a5.711,5.711,0,0,1,1.538,4.059A5.571,5.571,0,0,1-43.732-7.9a5.4,5.4,0,0,1-4.077,1.581h-3.674V0h-3.662V-17.639Zm-.61,8.252a2.691,2.691,0,0,0,2.014-.69,2.623,2.623,0,0,0,.671-1.91,2.6,2.6,0,0,0-.677-1.886,2.667,2.667,0,0,0-2.008-.7h-3.064v5.188Zm20.2,2.93-.037.842h-9.3a3.249,3.249,0,0,0,1,2.295,3.2,3.2,0,0,0,2.209.793A3.085,3.085,0,0,0-32.69-2.96a2.664,2.664,0,0,0,1.056-1.263l3.223.476a5.479,5.479,0,0,1-2.2,2.942A6.533,6.533,0,0,1-34.32.244a6.794,6.794,0,0,1-4.889-1.727,6.3,6.3,0,0,1-1.813-4.791A6.34,6.34,0,0,1-39.2-11.066a6.592,6.592,0,0,1,4.773-1.752,6.3,6.3,0,0,1,4.5,1.6A6.273,6.273,0,0,1-28.217-6.458Zm-6.189-3.87A2.778,2.778,0,0,0-37.457-7.91H-31.7A2.643,2.643,0,0,0-32.562-9.7,2.747,2.747,0,0,0-34.406-10.327Zm12.231-.232a4.074,4.074,0,0,1,1.648-1.508,5.028,5.028,0,0,1,2.454-.629v3.137a4.754,4.754,0,0,0-3,.757A3.3,3.3,0,0,0-22-6.116V0h-3.54V-12.549h3.369ZM-11.591.244a7.013,7.013,0,0,1-3.662-.879,3.715,3.715,0,0,1-1.794-2.612l2.942-.83a2.364,2.364,0,0,0,2.515,1.868A2.6,2.6,0,0,0-10.309-2.5a1,1,0,0,0,.5-.97,1.027,1.027,0,0,0-.208-.647,1.644,1.644,0,0,0-.641-.464,7.984,7.984,0,0,0-.854-.33q-.421-.134-1.117-.323t-1.16-.36a7.768,7.768,0,0,1-1.1-.47,4.712,4.712,0,0,1-.916-.647,2.608,2.608,0,0,1-.684-.983,3.545,3.545,0,0,1-.238-1.343,3.206,3.206,0,0,1,1.361-2.808,6.081,6.081,0,0,1,3.558-.952,6.235,6.235,0,0,1,3.284.806A3.646,3.646,0,0,1-6.842-9.473l-2.722.61A2.132,2.132,0,0,0-11.8-10.449a2.446,2.446,0,0,0-1.233.281.9.9,0,0,0-.488.83.951.951,0,0,0,.073.378.749.749,0,0,0,.256.305,3.739,3.739,0,0,0,.354.232,2.671,2.671,0,0,0,.5.2q.33.1.549.159t.641.165l.653.171q.671.183,1.178.366a6.9,6.9,0,0,1,1.08.513,3.877,3.877,0,0,1,.946.739,3.294,3.294,0,0,1,.616,1.038,3.832,3.832,0,0,1,.244,1.4,3.775,3.775,0,0,1-.421,1.819A3.161,3.161,0,0,1-8-.629a5.615,5.615,0,0,1-1.63.659A8.454,8.454,0,0,1-11.591.244Zm13.538,0A7.891,7.891,0,0,1-1.605-.525,5.748,5.748,0,0,1-4.041-2.783a6.73,6.73,0,0,1-.885-3.5,6.138,6.138,0,0,1,1.9-4.761,7.065,7.065,0,0,1,4.968-1.746,7.082,7.082,0,0,1,4.98,1.746,6.138,6.138,0,0,1,1.9,4.761,6.173,6.173,0,0,1-1.9,4.779A7.067,7.067,0,0,1,1.947.244Zm-.037-2.8A3.221,3.221,0,0,0,4.395-3.577a3.838,3.838,0,0,0,.946-2.71A3.838,3.838,0,0,0,4.395-9,3.221,3.221,0,0,0,1.91-10.022,3.1,3.1,0,0,0-.5-8.99a3.874,3.874,0,0,0-.934,2.7A3.874,3.874,0,0,0-.5-3.583,3.1,3.1,0,0,0,1.91-2.551ZM18.854-12.793a4.892,4.892,0,0,1,3.467,1.129,4.187,4.187,0,0,1,1.208,3.217V0H20V-7.69a2.186,2.186,0,0,0-.629-1.733,2.369,2.369,0,0,0-1.617-.549,3.3,3.3,0,0,0-1.05.159,2.7,2.7,0,0,0-.879.494,2.185,2.185,0,0,0-.629.946,4.375,4.375,0,0,0-.238,1.453V0H11.444V-12.549H14.96v1.392A4.835,4.835,0,0,1,18.854-12.793ZM37.225-3.406a11.74,11.74,0,0,0,.305,3.064V0H34.247l-.281-1.367A4.08,4.08,0,0,1,32.208-.159a6.478,6.478,0,0,1-2.271.4,5.97,5.97,0,0,1-1.172-.11A3.984,3.984,0,0,1,27.71-.238a3.2,3.2,0,0,1-.873-.653,2.864,2.864,0,0,1-.586-.995,3.963,3.963,0,0,1-.22-1.361,3.774,3.774,0,0,1,.232-1.361,3.19,3.19,0,0,1,.61-1.019,3.7,3.7,0,0,1,.989-.745,7.566,7.566,0,0,1,1.245-.537A14.877,14.877,0,0,1,30.6-7.3l2.063-.464a2.275,2.275,0,0,0,.934-.4.791.791,0,0,0,.275-.629A1.3,1.3,0,0,0,33.252-10a2.878,2.878,0,0,0-1.5-.366A2.152,2.152,0,0,0,29.3-8.447L26.19-9.009a4.214,4.214,0,0,1,1.819-2.863,7.229,7.229,0,0,1,3.943-.922q5.273,0,5.273,4.529Zm-6.189,1.27a2.827,2.827,0,0,0,2.173-.909,3.832,3.832,0,0,0,.842-2.692L31.073-4.9a3.52,3.52,0,0,0-1.251.513,1.053,1.053,0,0,0-.433.9,1.169,1.169,0,0,0,.464.995A1.92,1.92,0,0,0,31.036-2.136ZM45.062.244A7.013,7.013,0,0,1,41.4-.635a3.715,3.715,0,0,1-1.794-2.612l2.942-.83a2.364,2.364,0,0,0,2.515,1.868A2.6,2.6,0,0,0,46.344-2.5a1,1,0,0,0,.5-.97,1.027,1.027,0,0,0-.208-.647A1.644,1.644,0,0,0,46-4.578a7.984,7.984,0,0,0-.854-.33q-.421-.134-1.117-.323t-1.16-.36a7.768,7.768,0,0,1-1.1-.47,4.712,4.712,0,0,1-.916-.647,2.608,2.608,0,0,1-.684-.983,3.545,3.545,0,0,1-.238-1.343,3.206,3.206,0,0,1,1.361-2.808,6.081,6.081,0,0,1,3.558-.952,6.235,6.235,0,0,1,3.284.806,3.646,3.646,0,0,1,1.685,2.515l-2.722.61a2.132,2.132,0,0,0-2.234-1.587,2.446,2.446,0,0,0-1.233.281.9.9,0,0,0-.488.83.951.951,0,0,0,.073.378.749.749,0,0,0,.256.305,3.739,3.739,0,0,0,.354.232,2.671,2.671,0,0,0,.5.2q.33.1.549.159t.641.165l.653.171q.671.183,1.178.366a6.9,6.9,0,0,1,1.08.513,3.877,3.877,0,0,1,.946.739,3.294,3.294,0,0,1,.616,1.038,3.832,3.832,0,0,1,.244,1.4A3.775,3.775,0,0,1,49.8-1.855,3.161,3.161,0,0,1,48.651-.629a5.615,5.615,0,0,1-1.63.659A8.454,8.454,0,0,1,45.062.244ZM-108.27,16.571a1.974,1.974,0,0,1-1.44-.592,1.943,1.943,0,0,1-.6-1.434,1.92,1.92,0,0,1,.6-1.422,1.98,1.98,0,0,1,1.434-.592,1.945,1.945,0,0,1,1.416.592,1.929,1.929,0,0,1,.6,1.422,1.943,1.943,0,0,1-.6,1.434A1.945,1.945,0,0,1-108.27,16.571ZM-110.065,31V18.451h3.54V31Zm14.587-12.793a4.892,4.892,0,0,1,3.467,1.129A4.187,4.187,0,0,1-90.8,22.553V31H-94.33V23.31a2.186,2.186,0,0,0-.629-1.733,2.369,2.369,0,0,0-1.617-.549,3.3,3.3,0,0,0-1.05.159,2.7,2.7,0,0,0-.879.494,2.185,2.185,0,0,0-.629.946,4.375,4.375,0,0,0-.238,1.453V31h-3.516V18.451h3.516v1.392A4.835,4.835,0,0,1-95.477,18.207Zm22.949,0a4.8,4.8,0,0,1,3.235,1.019,3.647,3.647,0,0,1,1.184,2.924V31h-3.516V23.151a2.1,2.1,0,0,0-.562-1.587,1.967,1.967,0,0,0-1.416-.537,2.268,2.268,0,0,0-1.709.684,3.1,3.1,0,0,0-.659,2.209V31h-3.552V23.188a2.152,2.152,0,0,0-.562-1.617,2,2,0,0,0-1.453-.543,2.2,2.2,0,0,0-1.7.72,3.439,3.439,0,0,0-.659,2.356V31h-3.5V18.451h3.5v1.477a4.267,4.267,0,0,1,3.638-1.721,5.366,5.366,0,0,1,2.362.482,3.215,3.215,0,0,1,1.483,1.4A4.437,4.437,0,0,1-72.528,18.207Zm16.15.244h3.516V31H-56.2l-.085-1.514a4.792,4.792,0,0,1-3.992,1.758,4.892,4.892,0,0,1-3.467-1.129A4.187,4.187,0,0,1-64.948,26.9V18.451h3.528v7.69a2.169,2.169,0,0,0,.629,1.721,2.387,2.387,0,0,0,1.63.549,2.83,2.83,0,0,0,2-.714,3.068,3.068,0,0,0,.787-2.325Zm14.563-.244a4.892,4.892,0,0,1,3.467,1.129,4.187,4.187,0,0,1,1.208,3.217V31h-3.528V23.31a2.186,2.186,0,0,0-.629-1.733,2.369,2.369,0,0,0-1.617-.549,3.3,3.3,0,0,0-1.05.159,2.7,2.7,0,0,0-.879.494,2.185,2.185,0,0,0-.629.946,4.375,4.375,0,0,0-.238,1.453V31h-3.516V18.451h3.516v1.392A4.835,4.835,0,0,1-41.815,18.207Zm13.928,13.037a7.891,7.891,0,0,1-3.552-.769,5.748,5.748,0,0,1-2.435-2.258,6.73,6.73,0,0,1-.885-3.5,6.138,6.138,0,0,1,1.9-4.761,7.065,7.065,0,0,1,4.968-1.746,7.082,7.082,0,0,1,4.98,1.746A6.138,6.138,0,0,1-21,24.713a6.173,6.173,0,0,1-1.9,4.779A7.067,7.067,0,0,1-27.887,31.244Zm-.037-2.8a3.221,3.221,0,0,0,2.484-1.025,3.838,3.838,0,0,0,.946-2.71A3.838,3.838,0,0,0-25.439,22a3.221,3.221,0,0,0-2.484-1.025,3.1,3.1,0,0,0-2.411,1.031,3.874,3.874,0,0,0-.934,2.7,3.874,3.874,0,0,0,.934,2.7A3.1,3.1,0,0,0-27.924,28.449Zm13.953,2.8a7.013,7.013,0,0,1-3.662-.879,3.715,3.715,0,0,1-1.794-2.612l2.942-.83a2.364,2.364,0,0,0,2.515,1.868,2.6,2.6,0,0,0,1.282-.287,1,1,0,0,0,.5-.97,1.027,1.027,0,0,0-.208-.647,1.644,1.644,0,0,0-.641-.464,7.984,7.984,0,0,0-.854-.33q-.421-.134-1.117-.323t-1.16-.36a7.768,7.768,0,0,1-1.1-.47,4.712,4.712,0,0,1-.916-.647,2.608,2.608,0,0,1-.684-.983,3.545,3.545,0,0,1-.238-1.343,3.206,3.206,0,0,1,1.361-2.808,6.081,6.081,0,0,1,3.558-.952,6.235,6.235,0,0,1,3.284.806,3.646,3.646,0,0,1,1.685,2.515l-2.722.61a2.132,2.132,0,0,0-2.234-1.587,2.446,2.446,0,0,0-1.233.281.9.9,0,0,0-.488.83.951.951,0,0,0,.073.378.749.749,0,0,0,.256.305,3.739,3.739,0,0,0,.354.232,2.671,2.671,0,0,0,.5.2q.33.1.549.159t.641.165l.653.171q.671.183,1.178.366a6.9,6.9,0,0,1,1.08.513,3.877,3.877,0,0,1,.946.739,3.294,3.294,0,0,1,.616,1.038,3.832,3.832,0,0,1,.244,1.4,3.775,3.775,0,0,1-.421,1.819,3.161,3.161,0,0,1-1.154,1.227,5.615,5.615,0,0,1-1.63.659A8.454,8.454,0,0,1-13.971,31.244Zm16-12.793H5.548V31H2.216L2.13,29.486a4.792,4.792,0,0,1-3.992,1.758,4.892,4.892,0,0,1-3.467-1.129A4.187,4.187,0,0,1-6.537,26.9V18.451h3.528v7.69a2.169,2.169,0,0,0,.629,1.721,2.387,2.387,0,0,0,1.63.549,2.83,2.83,0,0,0,2-.714,3.068,3.068,0,0,0,.787-2.325Zm14.514-.244a6.1,6.1,0,0,1,2.344.452,5.865,5.865,0,0,1,1.923,1.27A5.743,5.743,0,0,1,22.113,22a8.2,8.2,0,0,1,0,5.505,5.743,5.743,0,0,1-1.3,2.069,5.865,5.865,0,0,1-1.923,1.27,6.1,6.1,0,0,1-2.344.452,5.446,5.446,0,0,1-2.271-.464A3.558,3.558,0,0,1,12.7,29.511V37.1H9.186V18.451h3.333l.1,1.685a3.437,3.437,0,0,1,1.569-1.422A5.391,5.391,0,0,1,16.547,18.207Zm-.793,10.168a3.158,3.158,0,0,0,2.374-.983,3.65,3.65,0,0,0,.946-2.643,3.65,3.65,0,0,0-.946-2.643,3.158,3.158,0,0,0-2.374-.983,3.163,3.163,0,0,0-2.393,1,3.651,3.651,0,0,0-.952,2.625,3.651,3.651,0,0,0,.952,2.625A3.163,3.163,0,0,0,15.753,28.375Zm12.854-7.935a4.074,4.074,0,0,1,1.648-1.508,5.028,5.028,0,0,1,2.454-.629v3.137a4.754,4.754,0,0,0-3,.757,3.3,3.3,0,0,0-.928,2.686V31h-3.54V18.451h3.369Zm7.959-3.87a1.974,1.974,0,0,1-1.44-.592,1.943,1.943,0,0,1-.6-1.434,1.92,1.92,0,0,1,.6-1.422,1.98,1.98,0,0,1,1.434-.592,2.016,2.016,0,0,1,1.416,3.448A1.945,1.945,0,0,1,36.566,16.571ZM34.772,31V18.451h3.54V31ZM56.818,18.207a4.8,4.8,0,0,1,3.235,1.019,3.647,3.647,0,0,1,1.184,2.924V31H57.721V23.151a2.1,2.1,0,0,0-.562-1.587,1.967,1.967,0,0,0-1.416-.537,2.268,2.268,0,0,0-1.709.684,3.1,3.1,0,0,0-.659,2.209V31H49.823V23.188a2.152,2.152,0,0,0-.562-1.617,2,2,0,0,0-1.453-.543,2.2,2.2,0,0,0-1.7.72,3.439,3.439,0,0,0-.659,2.356V31h-3.5V18.451h3.5v1.477a4.267,4.267,0,0,1,3.638-1.721,5.366,5.366,0,0,1,2.362.482,3.215,3.215,0,0,1,1.483,1.4A4.437,4.437,0,0,1,56.818,18.207Zm9.631-1.636a1.974,1.974,0,0,1-1.44-.592,1.943,1.943,0,0,1-.6-1.434,1.92,1.92,0,0,1,.6-1.422,1.98,1.98,0,0,1,1.434-.592,2.016,2.016,0,0,1,1.416,3.448A1.945,1.945,0,0,1,66.449,16.571ZM64.655,31V18.451h3.54V31ZM80.731,12.25h3.516V31H80.914l-.085-1.636a3.584,3.584,0,0,1-1.593,1.422,5.362,5.362,0,0,1-2.35.507,6.1,6.1,0,0,1-2.344-.452A5.645,5.645,0,0,1,71.32,27.5a7.633,7.633,0,0,1-.476-2.747,7.134,7.134,0,0,1,.83-3.5,5.688,5.688,0,0,1,2.191-2.277,6.034,6.034,0,0,1,3.021-.769,5.5,5.5,0,0,1,2.277.458,3.554,3.554,0,0,1,1.569,1.3Zm-3.04,16.125a3.13,3.13,0,0,0,2.374-1,3.664,3.664,0,0,0,.946-2.625,3.672,3.672,0,0,0-.952-2.631,3.126,3.126,0,0,0-2.368-1.007,3.163,3.163,0,0,0-2.386.989,3.672,3.672,0,0,0-.946,2.649,3.655,3.655,0,0,0,.946,2.637A3.163,3.163,0,0,0,77.692,28.375Zm20.483-.781a11.74,11.74,0,0,0,.305,3.064V31H95.2l-.281-1.367a4.08,4.08,0,0,1-1.758,1.208,6.478,6.478,0,0,1-2.271.4,5.97,5.97,0,0,1-1.172-.11,3.984,3.984,0,0,1-1.056-.372,3.2,3.2,0,0,1-.873-.653,2.864,2.864,0,0,1-.586-.995,3.963,3.963,0,0,1-.22-1.361,3.774,3.774,0,0,1,.232-1.361,3.19,3.19,0,0,1,.61-1.019,3.7,3.7,0,0,1,.989-.745,7.565,7.565,0,0,1,1.245-.537,14.878,14.878,0,0,1,1.489-.391l2.063-.464a2.275,2.275,0,0,0,.934-.4.791.791,0,0,0,.275-.629A1.3,1.3,0,0,0,94.2,21a2.878,2.878,0,0,0-1.5-.366,2.152,2.152,0,0,0-2.454,1.917l-3.113-.562a4.214,4.214,0,0,1,1.819-2.863,7.229,7.229,0,0,1,3.943-.922q5.273,0,5.273,4.529Zm-6.189,1.27a2.827,2.827,0,0,0,2.173-.909A3.832,3.832,0,0,0,95,25.263l-2.979.842a3.52,3.52,0,0,0-1.251.513,1.053,1.053,0,0,0-.433.9,1.169,1.169,0,0,0,.464.995A1.92,1.92,0,0,0,91.986,28.864Zm14.026,2.38a7.013,7.013,0,0,1-3.662-.879,3.715,3.715,0,0,1-1.794-2.612l2.942-.83a2.364,2.364,0,0,0,2.515,1.868,2.6,2.6,0,0,0,1.282-.287,1,1,0,0,0,.5-.97,1.027,1.027,0,0,0-.208-.647,1.644,1.644,0,0,0-.641-.464,7.984,7.984,0,0,0-.854-.33q-.421-.134-1.117-.323t-1.16-.36a7.768,7.768,0,0,1-1.1-.47,4.712,4.712,0,0,1-.916-.647,2.608,2.608,0,0,1-.684-.983,3.545,3.545,0,0,1-.238-1.343,3.206,3.206,0,0,1,1.361-2.808,6.081,6.081,0,0,1,3.558-.952,6.235,6.235,0,0,1,3.284.806,3.646,3.646,0,0,1,1.685,2.515l-2.722.61a2.132,2.132,0,0,0-2.234-1.587,2.446,2.446,0,0,0-1.233.281.9.9,0,0,0-.488.83.951.951,0,0,0,.073.378.749.749,0,0,0,.256.305,3.739,3.739,0,0,0,.354.232,2.671,2.671,0,0,0,.5.2q.33.1.549.159t.641.165l.653.171q.671.183,1.178.366a6.9,6.9,0,0,1,1.08.513,3.877,3.877,0,0,1,.946.739,3.294,3.294,0,0,1,.616,1.038,3.832,3.832,0,0,1,.244,1.4,3.775,3.775,0,0,1-.421,1.819,3.161,3.161,0,0,1-1.154,1.227,5.615,5.615,0,0,1-1.63.659A8.454,8.454,0,0,1,106.012,31.244Z" transform="translate(3139 -2303)" fill="#fff"/>
    <path id="Trazado_35567" data-name="Trazado 35567" d="M178.7,35.432c107.1,0,133.921,22.453,133.921,87.541S301.112,272.392,194.01,272.392,36.852,173.616,36.852,108.528,71.6,35.432,178.7,35.432Z" transform="translate(3321.149 -2305.652) rotate(180)" fill="rgba(152,152,152,0.12)"/>
    <g id="Grupo_19154" data-name="Grupo 19154" transform="translate(2731.039 -2781.434)">
      <path id="Trazado_35422" data-name="Trazado 35422" d="M444.014,662.819l-30.505-3.878s3.387-47.806,19.424-57.032Z" transform="translate(-46.669 -254.954)" fill="#f5b5c0" opacity="0.6" style="mix-blend-mode: multiply;isolation: isolate"/>
      <path id="Trazado_35423" data-name="Trazado 35423" d="M591.9,396.289c-.892,15.09,12.066,22.913,14.446,37.1,3.483,20.767-7.839,27.518-6.886,36.092s7.458,9.748,7.458,9.748-25.174,27.352-43.382-5.988c-11.086-20.3,2.447-69.315,2.447-69.315Z" transform="translate(-146.474 -114.068)" fill="url(#linear-gradient)"/>
      <path id="Trazado_35424" data-name="Trazado 35424" d="M600.544,516.958s-6.5-1.174-7.458-9.748c-.674-6.069,4.8-11.225,6.822-21.082-1.538-20.759-24.9-13.411-33.81-34.778l-14.811,7.231c-3.06,16.142-1.194,39.445,5.876,52.39C575.369,544.309,600.544,516.958,600.544,516.958Z" transform="translate(-140.099 -151.794)" fill="#521711" opacity="0.2" style="mix-blend-mode: multiply;isolation: isolate"/>
      <g id="Grupo_19136" data-name="Grupo 19136" transform="translate(372.522 339.386)">
        <path id="Trazado_35425" data-name="Trazado 35425" d="M507.642,656.249c-.005.157-.01.315-.015.472q-.029.914-.056,1.813c0,.087-.005.173-.008.26q-.015.5-.028,1l-.016.59q-.006.237-.012.472-.009.376-.018.748c0,.122-.006.244-.009.365q-.01.457-.02.908l-.007.321q-.01.494-.019.981c0,.017,0,.033,0,.05-.006.345-.011.686-.016,1.026,0,.083,0,.167,0,.25q-.007.513-.012,1.019-.007.72-.019,1.444c0,.151-.006.3-.008.453q-.01.5-.02,1.006-.006.259-.013.519-.012.484-.026.968-.007.249-.015.5-.016.519-.034,1.04-.007.21-.015.419-.024.646-.05,1.292c0,.053,0,.105-.006.158q-.065,1.545-.147,3.094v.025c-.019.353-.037.706-.058,1.058q12.137-.3,22.709-.949c-1.2-5.908-2.419-11.919-3.452-18.435-.18-1.135-.379-2.351-.6-3.634-2.829-16.646-8.933-44.853-20.14-62.407-12.234-19.164-34.191-15.868-48.866-13-5.648,1.105-10.222,4.725-13.843,9.7a52.754,52.754,0,0,0-7.06,14.382c-4.582,13.847-5.163,29.582-2.9,35.688a30.236,30.236,0,0,1-1.24-9.023c1.738,7.161,6.831,15.225,20.951,16.01,12.8.712,25.827-4.225,35.77-13.633h0c-.2-4.083-.4-7.944-.58-11.565,1.633.222,4.921.672,9.036,1.245,3.473.483,7.534,1.053,11.692,1.648.017,10.041-.462,20.783-.787,30.474Q507.662,655.625,507.642,656.249Z" transform="translate(-431.555 -577.868)" fill="#f5b5c0"/>
        <path id="Trazado_35426" data-name="Trazado 35426" d="M435.633,774.71c.054.15.111.3.169.435C435.743,775.008,435.688,774.859,435.633,774.71Z" transform="translate(-434.349 -712.739)" fill="#f5b5c0"/>
      </g>
      <path id="Trazado_35427" data-name="Trazado 35427" d="M591.1,666.793l34.137-3.51s-5.8-58.924-23.027-56.371S591.1,666.793,591.1,666.793Z" transform="translate(-167.626 -258.326)" fill="#f5b5c0"/>
      <path id="Trazado_35428" data-name="Trazado 35428" d="M421.94,310.146c-5.3-12.135-15.591-21.74-27.479-27.682a11.4,11.4,0,0,0-5.326-1.564c-2.817.088-5.2,2.059-7.073,4.156-.6.669-1.056,1.431-1.6,2.138-1.535-9.478-3.738-25.586-2.329-19.484-.974-4.493-9.206-5.682-13.588-4.225-8.585,2.855-19.258,21.124-19.152,33.1.123,14.058,11.251,27.314,7.8,40.944-1.633,6.448-6.708,16.755-4.97,26.925,1.195,6.988,21.256,25.973,17.122,32.991,20.926,5.916,10.853-32.159,42.718-22.361C433.956,367.554,428.769,325.781,421.94,310.146Z" transform="translate(0 -22.672)" fill="url(#linear-gradient-2)"/>
      <g id="Grupo_19137" data-name="Grupo 19137" transform="translate(345.612 240.767)" opacity="0.2" style="mix-blend-mode: multiply;isolation: isolate">
        <path id="Trazado_35429" data-name="Trazado 35429" d="M384.016,284.726a20.146,20.146,0,0,0-1.486,1.509c-.6.669-1.056,1.431-1.6,2.138-.665-4.108-1.455-9.459-2.023-13.709l-4.993-9.843c-.207-.066-.4-.148-.611-.2-20.766,10.587-19.965,37.388-23.859,39.357-3.086,1.56-3.368-4.012-3.368-4.012,1.144,13.245,10.855,25.833,7.583,38.749-1.633,6.448-6.708,16.755-4.969,26.925,1.194,6.987,21.255,25.973,17.121,32.991,20.926,5.916,10.853-32.159,42.718-22.361,7.35-2.138,12.13-7.086,15.144-13.362Z" transform="translate(-346.08 -264.618)" fill="#521711"/>
      </g>
      <path id="Trazado_35430" data-name="Trazado 35430" d="M444.014,662.819l-30.505-3.878s3.387-47.806,19.424-57.032Z" transform="translate(-46.669 -254.954)" fill="#f5b5c0"/>
      <path id="Trazado_35431" data-name="Trazado 35431" d="M468.921,585.946s-9.8,15.7,6.706,15.647c18.883-.065,31.989-22.474,31.989-22.474l-3.955-.508-32.06,5.746Z" transform="translate(-82.657 -238.991)" fill="#d9794b"/>
      <path id="Trazado_35432" data-name="Trazado 35432" d="M502.089,448.854c-.1,8.328.9,15.093,2.206,24.53,2.271,16.352,8.093,16.4,8.093,16.4-7.847,4.067-22.911,8.371-32.871,5.9,0,0,5.7-3.078-.97-20.367C473.969,463.464,502.089,448.854,502.089,448.854Z" transform="translate(-90.885 -150.085)" fill="#d9794b"/>
      <path id="Trazado_35433" data-name="Trazado 35433" d="M438.822,358.075c-7.048,15.6-25.316,24.542-32.547,24.139-5.157-.288-22.486-11.1-25.236-36.237-.369-9.07.222-21.439,2.23-27.351,6.061-17.839,19.282-22.451,32.868-20.959,21.46,2.357,27.777,17.5,25.851,41.8C447.982,337.8,438.9,358.085,438.822,358.075Z" transform="translate(-24.351 -46.315)" fill="#efab79"/>
      <path id="Trazado_35434" data-name="Trazado 35434" d="M466.733,383.736c.674-2.3,4.734,1.27,10.189,3.623,4.522,1.951,9.155,2.46,9.353,3.26s-5.258,1.5-10.708-.218C470.542,388.814,466.255,385.366,466.733,383.736Z" transform="translate(-83.112 -104.959)" fill="#7a221a"/>
      <path id="Trazado_35435" data-name="Trazado 35435" d="M393.944,384.9c-1.5-1.98-3.8,2.288-6.806,4.1-2.866,1.727-5.758,2.2-5.929,2.928s3.079,1.612,7.126-.128C392.066,390.194,395.006,386.3,393.944,384.9Z" transform="translate(-24.533 -105.912)" fill="#7a221a"/>
      <path id="Trazado_35436" data-name="Trazado 35436" d="M420.209,398.3c1.155,4.143,1.973,8.258,1.568,12.08-.494,3.806-4.528,6.346-7.6,9l-.158.136a1.01,1.01,0,0,0-.242,1.227c1.686,3.314,6.763,5.983,9.949,6.517-2.692-1.622-6.8-4.89-7.546-7.3l-.4,1.359c3.633-2.564,8.685-5.961,8.741-10.689C424.81,405.961,422.736,401.751,420.209,398.3Z" transform="translate(-46.779 -115.445)" fill="#e48665" opacity="0.6" style="mix-blend-mode: multiply;isolation: isolate"/>
      <g id="Grupo_19139" data-name="Grupo 19139" transform="translate(413.605 292.65)">
        <g id="Grupo_19138" data-name="Grupo 19138" transform="translate(0)">
          <path id="Trazado_35437" data-name="Trazado 35437" d="M566.119,429.654c5.994-1.668,9.907,5.792,8.411,10.718a11.568,11.568,0,0,1-11.363,7.964C560.852,445.776,562.289,431.711,566.119,429.654Z" transform="translate(-562.052 -429.416)" fill="#efab79"/>
        </g>
      </g>
      <path id="Trazado_35438" data-name="Trazado 35438" d="M553.071,415.711S552.9,427.837,557.048,428s4.62-9.5,4.62-9.5Z" transform="translate(-142.293 -127.376)" fill="url(#linear-gradient-3)"/>
      <path id="Trazado_35439" data-name="Trazado 35439" d="M415.734,253.714c-.031,7.837,7.022,12.821,13.395,17.384s22.67,11.725,29.838,17.237c5.173,3.978,13.7,7.439,16.532,13.32,0,0,15.686-6.6,18.117-19.434,1.872-9.885,1.1-32.569-19.991-43.951C430.007,214.735,415.367,247.062,415.734,253.714Z" transform="translate(-48.189)" fill="url(#linear-gradient-4)"/>
      <g id="Grupo_19141" data-name="Grupo 19141" transform="translate(436.715 252.276)">
        <g id="Grupo_19140" data-name="Grupo 19140" transform="translate(0 0)">
          <path id="Trazado_35440" data-name="Trazado 35440" d="M644.17,331.119c1.257-6.642,1.324-19.058-5.164-29.945,7.947,17.285-5.278,24.26-3.354,32.6,2.371,10.278,9.987,10.128,17.949,21.85C649.125,347.995,643.576,341.168,644.17,331.119Z" transform="translate(-635.459 -301.174)" fill="#6b3222"/>
        </g>
      </g>
      <g id="Grupo_19143" data-name="Grupo 19143" transform="translate(356.553 252.386)">
        <g id="Grupo_19142" data-name="Grupo 19142" transform="translate(0)">
          <path id="Trazado_35441" data-name="Trazado 35441" d="M467.349,301.758c9.852,15.951,29.152,23.725,42.933,35.71a.373.373,0,0,0,.528-.528c-12.784-13.929-31.642-19.858-43.182-35.345-.121-.162-.391-.018-.279.163Z" transform="translate(-440.094 -301.524)" fill="#5b281c"/>
          <path id="Trazado_35442" data-name="Trazado 35442" d="M575.563,366.63c7.724,4.865,12.5,11.927,16.066,20.156.18.413.812.113.709-.3-2.2-8.817-8.778-15.894-16.484-20.353a.287.287,0,0,0-.29.5Z" transform="translate(-514.164 -345.765)" fill="#5b281c"/>
          <path id="Trazado_35443" data-name="Trazado 35443" d="M665.118,473.063c4.052,6.336,6.822,13.229,6.953,20.842.124,7.231-2.672,13.154-4.262,20.019a.4.4,0,0,0,.768.212c5.123-14.531,6.992-28.317-3.148-41.312-.138-.177-.43.053-.31.239Z" transform="translate(-575.599 -418.851)" fill="#5b281c"/>
          <path id="Trazado_35444" data-name="Trazado 35444" d="M643.389,519.357c1.551,4.718,1.028,8.8-.35,13.44a.418.418,0,0,0,.761.32c2.274-4.316,1.931-9.5.08-13.9-.123-.292-.6-.185-.491.136Z" transform="translate(-560.479 -450.568)" fill="#5b281c"/>
          <path id="Trazado_35445" data-name="Trazado 35445" d="M383.948,532.794c-2.186,5.062-4.609,11.968-1.943,17.272.285.567,1.094.154.978-.412-1.261-6.126.535-10.685,1.549-16.614.055-.325-.428-.605-.583-.246Z" transform="translate(-380.834 -459.87)" fill="#5b281c"/>
          <path id="Trazado_35446" data-name="Trazado 35446" d="M401.339,572.36a10.364,10.364,0,0,0-.231,10.486.5.5,0,0,0,.918-.387c-.94-3.561-1.242-6.255.035-9.794.153-.425-.5-.688-.722-.3Z" transform="translate(-393.822 -486.967)" fill="#5b281c"/>
        </g>
      </g>
      <path id="Trazado_35447" data-name="Trazado 35447" d="M465.493,309.516c-19.419-14.177-39.89-21.575-43.987-33.949-1.938-5.854-1.251-10.04.613-13.365-4.624,5.337-6.52,11.26-6.385,13.708-.031,7.837,7.022,12.821,13.394,17.383s22.671,11.725,29.839,17.237c0,0-.168,12.126,3.977,12.293,2.733.109,3.87-4.054,4.328-6.9a29.315,29.315,0,0,1,6.518,5.34l0,0c.136.161.267.324.4.489a11.825,11.825,0,0,1,1.312,2.1C475.4,319.9,474.04,315.756,465.493,309.516Z" transform="translate(-48.189 -22.195)" fill="#521711" opacity="0.2" style="mix-blend-mode: multiply;isolation: isolate"/>
      <g id="Grupo_19145" data-name="Grupo 19145" transform="translate(369.906 316.764)">
        <g id="Grupo_19144" data-name="Grupo 19144" transform="translate(0 0.004)">
          <path id="Trazado_35448" data-name="Trazado 35448" d="M442.71,510.023c-5.479-.742-8.7-4.179-12.258-3.993s-3.637,3.785-7.205,4.48c0,0,4.057,3.672,8.072,3.9C437.11,514.751,442.71,510.023,442.71,510.023Z" transform="translate(-423.247 -506.023)" fill="#bd4e3b"/>
        </g>
        <path id="Trazado_35449" data-name="Trazado 35449" d="M431.544,509.776c-3.293.127-8.273.773-8.273.773l-.025-.048c3.568-.694,3.308-4.26,7.205-4.48s6.779,3.252,12.258,3.994C442.71,510.015,434.655,509.656,431.544,509.776Z" transform="translate(-423.247 -506.011)" fill="#521711" opacity="0.3" style="mix-blend-mode: multiply;isolation: isolate"/>
      </g>
      <path id="Trazado_35450" data-name="Trazado 35450" d="M494.024,428.086c.206,1.839-.727,3.452-2.084,3.6s-2.624-1.215-2.83-3.054.727-3.452,2.084-3.6S493.818,426.248,494.024,428.086Z" transform="translate(-98.449 -133.755)" fill="#521711"/>
      <path id="Trazado_35451" data-name="Trazado 35451" d="M404.086,427.073c.206,1.839-.727,3.452-2.084,3.6s-2.624-1.215-2.831-3.054.727-3.452,2.084-3.6S403.88,425.234,404.086,427.073Z" transform="translate(-36.826 -133.06)" fill="#521711"/>
      <path id="Trazado_35452" data-name="Trazado 35452" d="M479.5,442.885s5.9,5.424,11.964-.16c0,0-.159,6.859-6.062,6.859S479.5,442.885,479.5,442.885Z" transform="translate(-91.882 -145.885)" fill="#e48665" opacity="0.5" style="mix-blend-mode: multiply;isolation: isolate"/>
      <path id="Trazado_35453" data-name="Trazado 35453" d="M391.693,445.569s4.688,4.961,9.5-.146c0,0,.017,5.691-4.671,5.691S391.693,445.569,391.693,445.569Z" transform="translate(-31.721 -147.734)" fill="#e48665" opacity="0.5" style="mix-blend-mode: multiply;isolation: isolate"/>
      <path id="Trazado_35454" data-name="Trazado 35454" d="M502.87,839.3c-.508-5.085-1.927-8.481-3.884-10.974a15.8,15.8,0,0,0-1.283-1.438q-.032.62-.064,1.242-.013.256-.026.512-.029.584-.057,1.172-.018.383-.036.766c-.014.3-.028.607-.042.911q-.022.488-.044.978l-.029.672c-.017.391-.034.782-.05,1.174-.006.133-.011.267-.016.4q-.064,1.559-.121,3.136c.054,3.829,0,7.568-.137,11.2q2.891.107,5.876.185A50.548,50.548,0,0,0,502.87,839.3Z" transform="translate(-103.93 -409.107)" fill="none"/>
      <path id="Trazado_35455" data-name="Trazado 35455" d="M498.594,833.636q.028-.587.057-1.172Q498.622,833.048,498.594,833.636Z" transform="translate(-104.967 -412.924)" fill="url(#linear-gradient-5)"/>
      <path id="Trazado_35456" data-name="Trazado 35456" d="M498.921,826.891q-.032.619-.064,1.243.032-.623.064-1.242Z" transform="translate(-105.147 -409.106)" fill="url(#linear-gradient-6)"/>
      <path id="Trazado_35457" data-name="Trazado 35457" d="M498.345,839.529c.014-.3.028-.608.042-.911Q498.366,839.073,498.345,839.529Z" transform="translate(-104.796 -417.142)" fill="url(#linear-gradient-7)"/>
      <path id="Trazado_35458" data-name="Trazado 35458" d="M498.111,845.289l.029-.672Z" transform="translate(-104.636 -421.252)" fill="url(#linear-gradient-8)"/>
      <path id="Trazado_35459" data-name="Trazado 35459" d="M497.9,850.882c.005-.134.011-.268.016-.4C497.911,850.614,497.905,850.748,497.9,850.882Z" transform="translate(-104.491 -425.269)" fill="url(#linear-gradient-9)"/>
      <path id="Trazado_35460" data-name="Trazado 35460" d="M450.567,818.435a11.28,11.28,0,0,0-9.112.9c.073,4.627.087,9.015-.042,12.961-.1,3.159-.16,6.365-.181,9.579q6.783.534,14.188.859C456.043,831.068,455.194,819.977,450.567,818.435Z" transform="translate(-65.664 -402.913)" fill="#efab79"/>
      <path id="Trazado_35461" data-name="Trazado 35461" d="M441.116,784.265c.051,2.208.1,4.4.153,6.562-.047-2.159-.1-4.349-.148-6.555Z" transform="translate(-65.585 -379.9)" fill="url(#linear-gradient-10)"/>
      <path id="Trazado_35462" data-name="Trazado 35462" d="M497.952,847.925c.016-.393.033-.783.05-1.174C497.985,847.142,497.968,847.533,497.952,847.925Z" transform="translate(-104.527 -422.713)" fill="#c4694d" opacity="0.4" style="mix-blend-mode: multiply;isolation: isolate"/>
      <path id="Trazado_35463" data-name="Trazado 35463" d="M498.478,836.952q.018-.384.036-.766Q498.5,836.568,498.478,836.952Z" transform="translate(-104.888 -415.475)" fill="#c4694d" opacity="0.4" style="mix-blend-mode: multiply;isolation: isolate"/>
      <path id="Trazado_35464" data-name="Trazado 35464" d="M498.2,842.489q.022-.49.044-.978Q498.226,842,498.2,842.489Z" transform="translate(-104.7 -419.123)" fill="#c4694d" opacity="0.4" style="mix-blend-mode: multiply;isolation: isolate"/>
      <path id="Trazado_35465" data-name="Trazado 35465" d="M498.776,831.35q.013-.256.026-.512Q498.789,831.094,498.776,831.35Z" transform="translate(-105.092 -411.81)" fill="#c4694d" opacity="0.4" style="mix-blend-mode: multiply;isolation: isolate"/>
      <path id="Trazado_35466" data-name="Trazado 35466" d="M497.216,854.89q.057-1.578.121-3.136-.064,1.559-.122,3.136c.054,3.828,0,7.567-.137,11.2h0C497.215,862.458,497.269,858.718,497.216,854.89Z" transform="translate(-103.928 -426.141)" fill="#c4694d" opacity="0.4" style="mix-blend-mode: multiply;isolation: isolate"/>
      <path id="Trazado_35467" data-name="Trazado 35467" d="M441.706,810.6h0c-.028-1.8-.065-3.632-.107-5.491C441.641,806.964,441.678,808.8,441.706,810.6Z" transform="translate(-65.917 -394.18)" fill="#c4694d" opacity="0.4" style="mix-blend-mode: multiply;isolation: isolate"/>
      <path id="Trazado_35468" data-name="Trazado 35468" d="M450.5,795.437c4.628,1.543,5.476,12.633,4.854,24.295q1.679.074,3.393.137c.137-3.638.191-7.377.137-11.2q.057-1.578.122-3.136c.005-.134.011-.268.016-.4.016-.393.033-.783.05-1.174l.029-.672q.022-.49.044-.978.021-.456.042-.91.018-.384.036-.766.028-.588.057-1.172l.026-.512q.031-.623.064-1.243c-5.146-5.123-12.9-6.066-18.237-13.413.049,2.205.1,4.4.148,6.555.041,1.859.078,3.693.107,5.491A11.279,11.279,0,0,1,450.5,795.437Z" transform="translate(-65.596 -379.915)" fill="url(#linear-gradient-11)"/>
      <path id="Trazado_35469" data-name="Trazado 35469" d="M450.5,795.437c4.628,1.543,5.476,12.633,4.854,24.295q1.679.074,3.393.137c.137-3.638.191-7.377.137-11.2q.057-1.578.122-3.136c.005-.134.011-.268.016-.4.016-.393.033-.783.05-1.174l.029-.672q.022-.49.044-.978.021-.456.042-.91.018-.384.036-.766.028-.588.057-1.172l.026-.512q.031-.623.064-1.243c-5.146-5.123-12.9-6.066-18.237-13.413.049,2.205.1,4.4.148,6.555.041,1.859.078,3.693.107,5.491A11.279,11.279,0,0,1,450.5,795.437Z" transform="translate(-65.596 -379.915)" fill="#d9794b"/>
      <path id="Trazado_35470" data-name="Trazado 35470" d="M436.456,776.727c-.049-.1-.1-.2-.142-.311C436.361,776.522,436.408,776.628,436.456,776.727Z" transform="translate(-62.294 -374.522)" fill="#f5b5c0"/>
      <path id="Trazado_35471" data-name="Trazado 35471" d="M456.789,793.752h0a15.778,15.778,0,0,1,1.283,1.438c-5.41-6.894-14.93-6.893-20.682-16.622-.008-.013-.015-.029-.023-.043.008.014.015.03.023.043q.556.94,1.157,1.764l.005.007C443.892,787.686,451.643,788.629,456.789,793.752Z" transform="translate(-63.016 -375.967)" fill="#f5b5c0"/>
      <path id="Trazado_35472" data-name="Trazado 35472" d="M436.215,776.193c-.015-.034-.031-.067-.046-.1C436.184,776.126,436.2,776.159,436.215,776.193Z" transform="translate(-62.195 -374.299)" fill="#f5b5c0" opacity="0.6" style="mix-blend-mode: multiply;isolation: isolate"/>
      <path id="Trazado_35473" data-name="Trazado 35473" d="M436.955,777.757q-.1-.167-.189-.353C436.827,777.528,436.891,777.645,436.955,777.757Z" transform="translate(-62.604 -375.199)" fill="#f5b5c0" opacity="0.6" style="mix-blend-mode: multiply;isolation: isolate"/>
      <path id="Trazado_35474" data-name="Trazado 35474" d="M507.017,842.433c-.508-5.085-1.927-8.481-3.884-10.974,1.957,2.494,3.376,5.89,3.884,10.974a50.552,50.552,0,0,1,.087,9.94h0A50.527,50.527,0,0,0,507.017,842.433Z" transform="translate(-108.077 -412.236)" fill="#f5b5c0" opacity="0.6" style="mix-blend-mode: multiply;isolation: isolate"/>
      <path id="Trazado_35475" data-name="Trazado 35475" d="M454.185,772.938c1.957,2.494,3.376,5.89,3.884,10.974a50.532,50.532,0,0,1,.087,9.94q8.146.212,17.007.212,7.027,0,13.635-.051c.066-4.094.21-8.318.453-12.653.032-5.279-.033-10.367-.156-15.243l0,0c-.118-4.667-.288-9.128-.476-13.372-.013-.288-.026-.576-.039-.862-.007-.154-.014-.306-.021-.459q-.07-1.52-.142-3c-9.943,9.409-22.967,14.345-35.77,13.633-14.12-.785-19.213-8.849-20.951-16.01.079,4.061.552,7.419,1.409,9.458.015.035.031.068.046.1.047.107.094.212.142.311q.092.186.189.353c.008.014.015.029.023.042C439.255,766.045,448.776,766.043,454.185,772.938Z" transform="translate(-59.13 -353.714)" fill="#f5b5c0"/>
      <path id="Trazado_35476" data-name="Trazado 35476" d="M454.185,772.938c1.957,2.494,3.376,5.89,3.884,10.974a50.532,50.532,0,0,1,.087,9.94q8.146.212,17.007.212,7.027,0,13.635-.051c.066-4.094.21-8.318.453-12.653.032-5.279-.033-10.367-.156-15.243l0,0c-.118-4.667-.288-9.128-.476-13.372-.013-.288-.026-.576-.039-.862-.007-.154-.014-.306-.021-.459q-.07-1.52-.142-3c-9.943,9.409-22.967,14.345-35.77,13.633-14.12-.785-19.213-8.849-20.951-16.01.079,4.061.552,7.419,1.409,9.458.015.035.031.068.046.1.047.107.094.212.142.311q.092.186.189.353c.008.014.015.029.023.042C439.255,766.045,448.776,766.043,454.185,772.938Z" transform="translate(-59.13 -353.714)" fill="#f5b5c0" opacity="0.6" style="mix-blend-mode: multiply;isolation: isolate"/>
      <path id="Trazado_35477" data-name="Trazado 35477" d="M672.169,873.4q-.007.249-.015.5Q672.162,873.649,672.169,873.4Z" transform="translate(-223.886 -440.973)" fill="#f5b5c0"/>
      <path id="Trazado_35478" data-name="Trazado 35478" d="M672.169,873.4q-.007.249-.015.5Q672.162,873.649,672.169,873.4Z" transform="translate(-223.886 -440.973)" fill="#f5b5c0" opacity="0.6" style="mix-blend-mode: multiply;isolation: isolate"/>
      <path id="Trazado_35479" data-name="Trazado 35479" d="M672.169,873.4q-.007.249-.015.5Q672.162,873.649,672.169,873.4Z" transform="translate(-223.886 -440.973)" fill="url(#linear-gradient-12)"/>
      <path id="Trazado_35480" data-name="Trazado 35480" d="M672.513,855.426c0,.083,0,.167,0,.25C672.511,855.593,672.512,855.509,672.513,855.426Z" transform="translate(-224.13 -428.657)" fill="#f5b5c0"/>
      <path id="Trazado_35481" data-name="Trazado 35481" d="M672.513,855.426c0,.083,0,.167,0,.25C672.511,855.593,672.512,855.509,672.513,855.426Z" transform="translate(-224.13 -428.657)" fill="#f5b5c0" opacity="0.6" style="mix-blend-mode: multiply;isolation: isolate"/>
      <path id="Trazado_35482" data-name="Trazado 35482" d="M672.513,855.426c0,.083,0,.167,0,.25C672.511,855.593,672.512,855.509,672.513,855.426Z" transform="translate(-224.13 -428.657)" fill="url(#linear-gradient-13)"/>
      <path id="Trazado_35483" data-name="Trazado 35483" d="M611.863,753.6q.072,1.481.142,3-.069-1.52-.141-3Z" transform="translate(-182.576 -358.885)" fill="#f5b5c0"/>
      <path id="Trazado_35484" data-name="Trazado 35484" d="M611.863,753.6q.072,1.481.142,3-.069-1.52-.141-3Z" transform="translate(-182.576 -358.885)" fill="#f5b5c0" opacity="0.6" style="mix-blend-mode: multiply;isolation: isolate"/>
      <path id="Trazado_35485" data-name="Trazado 35485" d="M611.863,753.6q.072,1.481.142,3-.069-1.52-.141-3Z" transform="translate(-182.576 -358.885)" fill="url(#linear-gradient-14)"/>
      <path id="Trazado_35486" data-name="Trazado 35486" d="M672.394,864.044c0,.151-.006.3-.008.453C672.388,864.346,672.392,864.195,672.394,864.044Z" transform="translate(-224.045 -434.562)" fill="#f5b5c0"/>
      <path id="Trazado_35487" data-name="Trazado 35487" d="M672.394,864.044c0,.151-.006.3-.008.453C672.388,864.346,672.392,864.195,672.394,864.044Z" transform="translate(-224.045 -434.562)" fill="#f5b5c0" opacity="0.6" style="mix-blend-mode: multiply;isolation: isolate"/>
      <path id="Trazado_35488" data-name="Trazado 35488" d="M672.394,864.044c0,.151-.006.3-.008.453C672.388,864.346,672.392,864.195,672.394,864.044Z" transform="translate(-224.045 -434.562)" fill="url(#linear-gradient-15)"/>
      <path id="Trazado_35489" data-name="Trazado 35489" d="M612.419,765.451l-.039-.862Z" transform="translate(-182.93 -366.418)" fill="#f5b5c0"/>
      <path id="Trazado_35490" data-name="Trazado 35490" d="M612.419,765.451l-.039-.862Z" transform="translate(-182.93 -366.418)" fill="#f5b5c0" opacity="0.6" style="mix-blend-mode: multiply;isolation: isolate"/>
      <path id="Trazado_35491" data-name="Trazado 35491" d="M612.419,765.451l-.039-.862Z" transform="translate(-182.93 -366.418)" fill="url(#linear-gradient-16)"/>
      <path id="Trazado_35492" data-name="Trazado 35492" d="M672.815,839.957q-.006.236-.012.472Q672.809,840.193,672.815,839.957Z" transform="translate(-224.331 -418.058)" fill="#f5b5c0"/>
      <path id="Trazado_35493" data-name="Trazado 35493" d="M672.815,839.957q-.006.236-.012.472Q672.809,840.193,672.815,839.957Z" transform="translate(-224.331 -418.058)" fill="#f5b5c0" opacity="0.6" style="mix-blend-mode: multiply;isolation: isolate"/>
      <path id="Trazado_35494" data-name="Trazado 35494" d="M672.815,839.957q-.006.236-.012.472Q672.809,840.193,672.815,839.957Z" transform="translate(-224.331 -418.058)" fill="url(#linear-gradient-17)"/>
      <path id="Trazado_35495" data-name="Trazado 35495" d="M672.014,878.285q-.007.21-.015.419Q672.008,878.495,672.014,878.285Z" transform="translate(-223.78 -444.32)" fill="#f5b5c0"/>
      <path id="Trazado_35496" data-name="Trazado 35496" d="M672.014,878.285q-.007.21-.015.419Q672.008,878.495,672.014,878.285Z" transform="translate(-223.78 -444.32)" fill="#f5b5c0" opacity="0.6" style="mix-blend-mode: multiply;isolation: isolate"/>
      <path id="Trazado_35497" data-name="Trazado 35497" d="M672.014,878.285q-.007.21-.015.419Q672.008,878.495,672.014,878.285Z" transform="translate(-223.78 -444.32)" fill="url(#linear-gradient-18)"/>
      <path id="Trazado_35498" data-name="Trazado 35498" d="M672.295,868.677q-.006.259-.013.518Q672.289,868.936,672.295,868.677Z" transform="translate(-223.974 -437.737)" fill="#f5b5c0"/>
      <path id="Trazado_35499" data-name="Trazado 35499" d="M672.295,868.677q-.006.259-.013.518Q672.289,868.936,672.295,868.677Z" transform="translate(-223.974 -437.737)" fill="#f5b5c0" opacity="0.6" style="mix-blend-mode: multiply;isolation: isolate"/>
      <path id="Trazado_35500" data-name="Trazado 35500" d="M672.295,868.677q-.006.259-.013.518Q672.289,868.936,672.295,868.677Z" transform="translate(-223.974 -437.737)" fill="url(#linear-gradient-19)"/>
      <path id="Trazado_35501" data-name="Trazado 35501" d="M672.921,834.919q-.014.5-.028,1Q672.907,835.42,672.921,834.919Z" transform="translate(-224.392 -414.606)" fill="#f5b5c0"/>
      <path id="Trazado_35502" data-name="Trazado 35502" d="M672.921,834.919q-.014.5-.028,1Q672.907,835.42,672.921,834.919Z" transform="translate(-224.392 -414.606)" fill="#f5b5c0" opacity="0.6" style="mix-blend-mode: multiply;isolation: isolate"/>
      <path id="Trazado_35503" data-name="Trazado 35503" d="M672.921,834.919q-.014.5-.028,1Q672.907,835.42,672.921,834.919Z" transform="translate(-224.392 -414.606)" fill="url(#linear-gradient-20)"/>
      <path id="Trazado_35504" data-name="Trazado 35504" d="M672.726,843.832q0,.183-.009.365Q672.721,844.015,672.726,843.832Z" transform="translate(-224.272 -420.713)" fill="#f5b5c0"/>
      <path id="Trazado_35505" data-name="Trazado 35505" d="M672.726,843.832q0,.183-.009.365Q672.721,844.015,672.726,843.832Z" transform="translate(-224.272 -420.713)" fill="#f5b5c0" opacity="0.6" style="mix-blend-mode: multiply;isolation: isolate"/>
      <path id="Trazado_35506" data-name="Trazado 35506" d="M672.726,843.832q0,.183-.009.365Q672.721,844.015,672.726,843.832Z" transform="translate(-224.272 -420.713)" fill="url(#linear-gradient-21)"/>
      <path id="Trazado_35507" data-name="Trazado 35507" d="M672.64,847.875l-.007.321Z" transform="translate(-224.214 -423.484)" fill="#f5b5c0"/>
      <path id="Trazado_35508" data-name="Trazado 35508" d="M672.64,847.875l-.007.321Z" transform="translate(-224.214 -423.484)" fill="#f5b5c0" opacity="0.6" style="mix-blend-mode: multiply;isolation: isolate"/>
      <path id="Trazado_35509" data-name="Trazado 35509" d="M672.64,847.875l-.007.321Z" transform="translate(-224.214 -423.484)" fill="url(#linear-gradient-22)"/>
      <path id="Trazado_35510" data-name="Trazado 35510" d="M672.572,852.01v.05C672.571,852.043,672.572,852.027,672.572,852.01Z" transform="translate(-224.172 -426.317)" fill="#f5b5c0"/>
      <path id="Trazado_35511" data-name="Trazado 35511" d="M672.572,852.01v.05C672.571,852.043,672.572,852.027,672.572,852.01Z" transform="translate(-224.172 -426.317)" fill="#f5b5c0" opacity="0.6" style="mix-blend-mode: multiply;isolation: isolate"/>
      <path id="Trazado_35512" data-name="Trazado 35512" d="M672.572,852.01v.05C672.571,852.043,672.572,852.027,672.572,852.01Z" transform="translate(-224.172 -426.317)" fill="url(#linear-gradient-23)"/>
      <path id="Trazado_35513" data-name="Trazado 35513" d="M622.387,800.437c-6.185-1.9-8.981,2.571-9.013,2.623.123,4.876.188,9.964.156,15.243-.243,4.335-.387,8.559-.453,12.653q7.825-.062,15.081-.214C628.993,817.506,629.267,802.553,622.387,800.437Z" transform="translate(-183.408 -390.657)" fill="#f5b5c0"/>
      <path id="Trazado_35514" data-name="Trazado 35514" d="M622.387,800.437c-6.185-1.9-8.981,2.571-9.013,2.623.123,4.876.188,9.964.156,15.243-.243,4.335-.387,8.559-.453,12.653q7.825-.062,15.081-.214C628.993,817.506,629.267,802.553,622.387,800.437Z" transform="translate(-183.408 -390.657)" fill="#f5b5c0" opacity="0.6" style="mix-blend-mode: multiply;isolation: isolate"/>
      <path id="Trazado_35515" data-name="Trazado 35515" d="M622.387,800.437c-6.185-1.9-8.981,2.571-9.013,2.623.123,4.876.188,9.964.156,15.243-.243,4.335-.387,8.559-.453,12.653q7.825-.062,15.081-.214C628.993,817.506,629.267,802.553,622.387,800.437Z" transform="translate(-183.408 -390.657)" fill="#efab79"/>
      <path id="Trazado_35516" data-name="Trazado 35516" d="M672.858,838.083q-.008.3-.016.59C672.847,838.477,672.853,838.28,672.858,838.083Z" transform="translate(-224.357 -416.774)" fill="#f5b5c0"/>
      <path id="Trazado_35517" data-name="Trazado 35517" d="M672.858,838.083q-.008.3-.016.59C672.847,838.477,672.853,838.28,672.858,838.083Z" transform="translate(-224.357 -416.774)" fill="#f5b5c0" opacity="0.6" style="mix-blend-mode: multiply;isolation: isolate"/>
      <path id="Trazado_35518" data-name="Trazado 35518" d="M672.858,838.083q-.008.3-.016.59C672.847,838.477,672.853,838.28,672.858,838.083Z" transform="translate(-224.357 -416.774)" fill="#c4694d" opacity="0.4" style="mix-blend-mode: multiply;isolation: isolate"/>
      <path id="Trazado_35519" data-name="Trazado 35519" d="M672.342,865.482q-.01.5-.02,1.006Q672.333,865.984,672.342,865.482Z" transform="translate(-224.001 -435.547)" fill="#f5b5c0"/>
      <path id="Trazado_35520" data-name="Trazado 35520" d="M672.342,865.482q-.01.5-.02,1.006Q672.333,865.984,672.342,865.482Z" transform="translate(-224.001 -435.547)" fill="#f5b5c0" opacity="0.6" style="mix-blend-mode: multiply;isolation: isolate"/>
      <path id="Trazado_35521" data-name="Trazado 35521" d="M672.342,865.482q-.01.5-.02,1.006Q672.333,865.984,672.342,865.482Z" transform="translate(-224.001 -435.547)" fill="#c4694d" opacity="0.4" style="mix-blend-mode: multiply;isolation: isolate"/>
      <path id="Trazado_35522" data-name="Trazado 35522" d="M672.763,841.455q-.009.376-.018.748Q672.754,841.831,672.763,841.455Z" transform="translate(-224.291 -419.085)" fill="#f5b5c0"/>
      <path id="Trazado_35523" data-name="Trazado 35523" d="M672.763,841.455q-.009.376-.018.748Q672.754,841.831,672.763,841.455Z" transform="translate(-224.291 -419.085)" fill="#f5b5c0" opacity="0.6" style="mix-blend-mode: multiply;isolation: isolate"/>
      <path id="Trazado_35524" data-name="Trazado 35524" d="M672.763,841.455q-.009.376-.018.748Q672.754,841.831,672.763,841.455Z" transform="translate(-224.291 -419.085)" fill="#c4694d" opacity="0.4" style="mix-blend-mode: multiply;isolation: isolate"/>
      <path id="Trazado_35525" data-name="Trazado 35525" d="M672.674,844.991q-.01.457-.02.908Q672.663,845.447,672.674,844.991Z" transform="translate(-224.228 -421.508)" fill="#f5b5c0"/>
      <path id="Trazado_35526" data-name="Trazado 35526" d="M672.674,844.991q-.01.457-.02.908Q672.663,845.447,672.674,844.991Z" transform="translate(-224.228 -421.508)" fill="#f5b5c0" opacity="0.6" style="mix-blend-mode: multiply;isolation: isolate"/>
      <path id="Trazado_35527" data-name="Trazado 35527" d="M672.674,844.991q-.01.457-.02.908Q672.663,845.447,672.674,844.991Z" transform="translate(-224.228 -421.508)" fill="#c4694d" opacity="0.4" style="mix-blend-mode: multiply;isolation: isolate"/>
      <path id="Trazado_35528" data-name="Trazado 35528" d="M672.431,859.458q-.007.72-.019,1.444Q672.423,860.179,672.431,859.458Z" transform="translate(-224.063 -431.42)" fill="#f5b5c0"/>
      <path id="Trazado_35529" data-name="Trazado 35529" d="M672.431,859.458q-.007.72-.019,1.444Q672.423,860.179,672.431,859.458Z" transform="translate(-224.063 -431.42)" fill="#f5b5c0" opacity="0.6" style="mix-blend-mode: multiply;isolation: isolate"/>
      <path id="Trazado_35530" data-name="Trazado 35530" d="M672.431,859.458q-.007.72-.019,1.444Q672.423,860.179,672.431,859.458Z" transform="translate(-224.063 -431.42)" fill="#c4694d" opacity="0.4" style="mix-blend-mode: multiply;isolation: isolate"/>
      <path id="Trazado_35531" data-name="Trazado 35531" d="M672.536,852.168c-.006.345-.011.686-.016,1.026C672.525,852.854,672.53,852.513,672.536,852.168Z" transform="translate(-224.137 -426.425)" fill="#f5b5c0"/>
      <path id="Trazado_35532" data-name="Trazado 35532" d="M672.536,852.168c-.006.345-.011.686-.016,1.026C672.525,852.854,672.53,852.513,672.536,852.168Z" transform="translate(-224.137 -426.425)" fill="#f5b5c0" opacity="0.6" style="mix-blend-mode: multiply;isolation: isolate"/>
      <path id="Trazado_35533" data-name="Trazado 35533" d="M672.536,852.168c-.006.345-.011.686-.016,1.026C672.525,852.854,672.53,852.513,672.536,852.168Z" transform="translate(-224.137 -426.425)" fill="#c4694d" opacity="0.4" style="mix-blend-mode: multiply;isolation: isolate"/>
      <path id="Trazado_35534" data-name="Trazado 35534" d="M672.592,848.894q-.01.494-.018.981Q672.582,849.388,672.592,848.894Z" transform="translate(-224.174 -424.182)" fill="#f5b5c0"/>
      <path id="Trazado_35535" data-name="Trazado 35535" d="M672.592,848.894q-.01.494-.018.981Q672.582,849.388,672.592,848.894Z" transform="translate(-224.174 -424.182)" fill="#f5b5c0" opacity="0.6" style="mix-blend-mode: multiply;isolation: isolate"/>
      <path id="Trazado_35536" data-name="Trazado 35536" d="M672.592,848.894q-.01.494-.018.981Q672.582,849.388,672.592,848.894Z" transform="translate(-224.174 -424.182)" fill="#c4694d" opacity="0.4" style="mix-blend-mode: multiply;isolation: isolate"/>
      <path id="Trazado_35537" data-name="Trazado 35537" d="M672.484,856.22q-.007.513-.012,1.019Q672.477,856.734,672.484,856.22Z" transform="translate(-224.104 -429.201)" fill="#f5b5c0"/>
      <path id="Trazado_35538" data-name="Trazado 35538" d="M672.484,856.22q-.007.513-.012,1.019Q672.477,856.734,672.484,856.22Z" transform="translate(-224.104 -429.201)" fill="#f5b5c0" opacity="0.6" style="mix-blend-mode: multiply;isolation: isolate"/>
      <path id="Trazado_35539" data-name="Trazado 35539" d="M672.484,856.22q-.007.513-.012,1.019Q672.477,856.734,672.484,856.22Z" transform="translate(-224.104 -429.201)" fill="#c4694d" opacity="0.4" style="mix-blend-mode: multiply;isolation: isolate"/>
      <path id="Trazado_35540" data-name="Trazado 35540" d="M671.891,879.615q-.024.646-.05,1.292Q671.867,880.26,671.891,879.615Z" transform="translate(-223.671 -445.231)" fill="#f5b5c0"/>
      <path id="Trazado_35541" data-name="Trazado 35541" d="M671.891,879.615q-.024.646-.05,1.292Q671.867,880.26,671.891,879.615Z" transform="translate(-223.671 -445.231)" fill="#f5b5c0" opacity="0.6" style="mix-blend-mode: multiply;isolation: isolate"/>
      <path id="Trazado_35542" data-name="Trazado 35542" d="M671.891,879.615q-.024.646-.05,1.292Q671.867,880.26,671.891,879.615Z" transform="translate(-223.671 -445.231)" fill="#c4694d" opacity="0.4" style="mix-blend-mode: multiply;isolation: isolate"/>
      <path id="Trazado_35543" data-name="Trazado 35543" d="M672.991,834.094c0,.087-.005.173-.008.26C672.985,834.267,672.988,834.181,672.991,834.094Z" transform="translate(-224.454 -414.041)" fill="#f5b5c0"/>
      <path id="Trazado_35544" data-name="Trazado 35544" d="M672.991,834.094c0,.087-.005.173-.008.26C672.985,834.267,672.988,834.181,672.991,834.094Z" transform="translate(-224.454 -414.041)" fill="#f5b5c0" opacity="0.6" style="mix-blend-mode: multiply;isolation: isolate"/>
      <path id="Trazado_35545" data-name="Trazado 35545" d="M672.991,834.094c0,.087-.005.173-.008.26C672.985,834.267,672.988,834.181,672.991,834.094Z" transform="translate(-224.454 -414.041)" fill="#c4694d" opacity="0.4" style="mix-blend-mode: multiply;isolation: isolate"/>
      <path id="Trazado_35546" data-name="Trazado 35546" d="M672.227,870.324q-.012.484-.026.968Q672.215,870.808,672.227,870.324Z" transform="translate(-223.918 -438.865)" fill="#f5b5c0"/>
      <path id="Trazado_35547" data-name="Trazado 35547" d="M672.227,870.324q-.012.484-.026.968Q672.215,870.808,672.227,870.324Z" transform="translate(-223.918 -438.865)" fill="#f5b5c0" opacity="0.6" style="mix-blend-mode: multiply;isolation: isolate"/>
      <path id="Trazado_35548" data-name="Trazado 35548" d="M672.227,870.324q-.012.484-.026.968Q672.215,870.808,672.227,870.324Z" transform="translate(-223.918 -438.865)" fill="#c4694d" opacity="0.4" style="mix-blend-mode: multiply;isolation: isolate"/>
      <path id="Trazado_35549" data-name="Trazado 35549" d="M612.334,763.589q-.01-.23-.021-.459C612.32,763.283,612.327,763.436,612.334,763.589Z" transform="translate(-182.884 -365.419)" fill="#f5b5c0"/>
      <path id="Trazado_35550" data-name="Trazado 35550" d="M612.334,763.589q-.01-.23-.021-.459C612.32,763.283,612.327,763.436,612.334,763.589Z" transform="translate(-182.884 -365.419)" fill="#f5b5c0" opacity="0.6" style="mix-blend-mode: multiply;isolation: isolate"/>
      <path id="Trazado_35551" data-name="Trazado 35551" d="M612.334,763.589q-.01-.23-.021-.459C612.32,763.283,612.327,763.436,612.334,763.589Z" transform="translate(-182.884 -365.419)" fill="#c4694d" opacity="0.4" style="mix-blend-mode: multiply;isolation: isolate"/>
      <path id="Trazado_35552" data-name="Trazado 35552" d="M612.979,780.7l0,0c-.118-4.66-.288-9.123-.478-13.37C612.691,771.571,612.861,776.032,612.979,780.7Z" transform="translate(-183.015 -368.294)" fill="#f5b5c0"/>
      <path id="Trazado_35553" data-name="Trazado 35553" d="M612.979,780.7l0,0c-.118-4.66-.288-9.123-.478-13.37C612.691,771.571,612.861,776.032,612.979,780.7Z" transform="translate(-183.015 -368.294)" fill="#f5b5c0" opacity="0.6" style="mix-blend-mode: multiply;isolation: isolate"/>
      <path id="Trazado_35554" data-name="Trazado 35554" d="M612.979,780.7l0,0c-.118-4.66-.288-9.123-.478-13.37C612.691,771.571,612.861,776.032,612.979,780.7Z" transform="translate(-183.015 -368.294)" fill="#c4694d" opacity="0.4" style="mix-blend-mode: multiply;isolation: isolate"/>
      <path id="Trazado_35555" data-name="Trazado 35555" d="M672.08,874.982q-.016.519-.034,1.04Q672.064,875.5,672.08,874.982Z" transform="translate(-223.812 -442.057)" fill="#f5b5c0"/>
      <path id="Trazado_35556" data-name="Trazado 35556" d="M672.08,874.982q-.016.519-.034,1.04Q672.064,875.5,672.08,874.982Z" transform="translate(-223.812 -442.057)" fill="#f5b5c0" opacity="0.6" style="mix-blend-mode: multiply;isolation: isolate"/>
      <path id="Trazado_35557" data-name="Trazado 35557" d="M672.08,874.982q-.016.519-.034,1.04Q672.064,875.5,672.08,874.982Z" transform="translate(-223.812 -442.057)" fill="#c4694d" opacity="0.4" style="mix-blend-mode: multiply;isolation: isolate"/>
      <path id="Trazado_35558" data-name="Trazado 35558" d="M610.6,728.426a53.239,53.239,0,0,0,8.456-10.32c-4.115-.572-7.4-1.023-9.036-1.245C610.2,720.482,610.406,724.344,610.6,728.426Z" transform="translate(-181.315 -333.717)" fill="#f5b5c0"/>
      <path id="Trazado_35559" data-name="Trazado 35559" d="M610.6,728.426a53.239,53.239,0,0,0,8.456-10.32c-4.115-.572-7.4-1.023-9.036-1.245C610.2,720.482,610.406,724.344,610.6,728.426Z" transform="translate(-181.315 -333.717)" fill="url(#linear-gradient-24)"/>
      <path id="Trazado_35560" data-name="Trazado 35560" d="M610.6,728.426a53.239,53.239,0,0,0,8.456-10.32c-4.115-.572-7.4-1.023-9.036-1.245C610.2,720.482,610.406,724.344,610.6,728.426Z" transform="translate(-181.315 -333.717)" fill="#c4694d" opacity="0.4" style="mix-blend-mode: multiply;isolation: isolate"/>
      <path id="Trazado_35561" data-name="Trazado 35561" d="M630.594,775.353q.082-1.548.147-3.093c0-.053,0-.105.006-.158q.026-.647.05-1.292.008-.209.014-.419.018-.52.034-1.04.008-.249.015-.5.014-.485.025-.968c0-.173.009-.346.013-.518q.011-.5.02-1.006c0-.151.006-.3.008-.453q.011-.723.019-1.444,0-.505.012-1.019c0-.083,0-.167,0-.25.005-.34.01-.681.016-1.026v-.05q.009-.487.019-.981,0-.16.007-.321.009-.452.02-.908c0-.121.006-.243.009-.365q.009-.373.018-.748.006-.235.012-.472.008-.294.016-.59.014-.5.028-1c0-.087,0-.173.008-.26.312-10.565.918-22.734.9-34.015-4.158-.6-8.219-1.165-11.692-1.648a53.235,53.235,0,0,1-8.456,10.32q.072,1.481.141,3,.011.229.021.459c.013.287.026.573.039.862.19,4.247.36,8.71.478,13.37.032-.052,2.828-4.526,9.013-2.623,6.88,2.117,6.606,17.07,5.771,30.305q1.616-.035,3.206-.074.03-.529.059-1.058Z" transform="translate(-182.577 -336.426)" fill="#f5b5c0"/>
      <path id="Trazado_35562" data-name="Trazado 35562" d="M630.594,775.353q.082-1.548.147-3.093c0-.053,0-.105.006-.158q.026-.647.05-1.292.008-.209.014-.419.018-.52.034-1.04.008-.249.015-.5.014-.485.025-.968c0-.173.009-.346.013-.518q.011-.5.02-1.006c0-.151.006-.3.008-.453q.011-.723.019-1.444,0-.505.012-1.019c0-.083,0-.167,0-.25.005-.34.01-.681.016-1.026v-.05q.009-.487.019-.981,0-.16.007-.321.009-.452.02-.908c0-.121.006-.243.009-.365q.009-.373.018-.748.006-.235.012-.472.008-.294.016-.59.014-.5.028-1c0-.087,0-.173.008-.26.312-10.565.918-22.734.9-34.015-4.158-.6-8.219-1.165-11.692-1.648a53.235,53.235,0,0,1-8.456,10.32q.072,1.481.141,3,.011.229.021.459c.013.287.026.573.039.862.19,4.247.36,8.71.478,13.37.032-.052,2.828-4.526,9.013-2.623,6.88,2.117,6.606,17.07,5.771,30.305q1.616-.035,3.206-.074.03-.529.059-1.058Z" transform="translate(-182.577 -336.426)" fill="#f5b5c0" opacity="0.6" style="mix-blend-mode: multiply;isolation: isolate"/>
      <path id="Trazado_35563" data-name="Trazado 35563" d="M630.594,775.353q.082-1.548.147-3.093c0-.053,0-.105.006-.158q.026-.647.05-1.292.008-.209.014-.419.018-.52.034-1.04.008-.249.015-.5.014-.485.025-.968c0-.173.009-.346.013-.518q.011-.5.02-1.006c0-.151.006-.3.008-.453q.011-.723.019-1.444,0-.505.012-1.019c0-.083,0-.167,0-.25.005-.34.01-.681.016-1.026v-.05q.009-.487.019-.981,0-.16.007-.321.009-.452.02-.908c0-.121.006-.243.009-.365q.009-.373.018-.748.006-.235.012-.472.008-.294.016-.59.014-.5.028-1c0-.087,0-.173.008-.26.312-10.565.918-22.734.9-34.015-4.158-.6-8.219-1.165-11.692-1.648a53.235,53.235,0,0,1-8.456,10.32q.072,1.481.141,3,.011.229.021.459c.013.287.026.573.039.862.19,4.247.36,8.71.478,13.37.032-.052,2.828-4.526,9.013-2.623,6.88,2.117,6.606,17.07,5.771,30.305q1.616-.035,3.206-.074.03-.529.059-1.058Z" transform="translate(-182.577 -336.426)" fill="url(#linear-gradient-25)"/>
      <path id="Trazado_35564" data-name="Trazado 35564" d="M630.594,775.353q.082-1.548.147-3.093c0-.053,0-.105.006-.158q.026-.647.05-1.292.008-.209.014-.419.018-.52.034-1.04.008-.249.015-.5.014-.485.025-.968c0-.173.009-.346.013-.518q.011-.5.02-1.006c0-.151.006-.3.008-.453q.011-.723.019-1.444,0-.505.012-1.019c0-.083,0-.167,0-.25.005-.34.01-.681.016-1.026v-.05q.009-.487.019-.981,0-.16.007-.321.009-.452.02-.908c0-.121.006-.243.009-.365q.009-.373.018-.748.006-.235.012-.472.008-.294.016-.59.014-.5.028-1c0-.087,0-.173.008-.26.312-10.565.918-22.734.9-34.015-4.158-.6-8.219-1.165-11.692-1.648a53.235,53.235,0,0,1-8.456,10.32q.072,1.481.141,3,.011.229.021.459c.013.287.026.573.039.862.19,4.247.36,8.71.478,13.37.032-.052,2.828-4.526,9.013-2.623,6.88,2.117,6.606,17.07,5.771,30.305q1.616-.035,3.206-.074.03-.529.059-1.058Z" transform="translate(-182.577 -336.426)" fill="#d9794b"/>
      <path id="Trazado_35565" data-name="Trazado 35565" d="M591.384,658.492l34.137-3.51s-5.8-58.924-23.027-56.371S591.384,658.492,591.384,658.492Z" transform="translate(-167.821 -252.639)" fill="#f5b5c0"/>
    </g>
  </g>
</svg>
