<svg xmlns="http://www.w3.org/2000/svg" xmlns:xlink="http://www.w3.org/1999/xlink" width="304" height="331.044" viewBox="0 0 304 331.044">
  <defs>
    <clipPath id="clip-path">
      <rect id="Rectángulo_3154" data-name="Rectángulo 3154" width="261" height="237" transform="translate(1186 1597.044)" fill="#fff" stroke="#707070" stroke-width="1"/>
    </clipPath>
    <linearGradient id="linear-gradient" x1="0.542" y1="0.955" x2="0.472" y2="0.34" gradientUnits="objectBoundingBox">
      <stop offset="0" stop-color="#303940"/>
      <stop offset="0.357" stop-color="#323d44"/>
      <stop offset="0.763" stop-color="#3b4952"/>
      <stop offset="1" stop-color="#43535e"/>
    </linearGradient>
    <linearGradient id="linear-gradient-2" x1="0.603" y1="0.967" x2="0.448" y2="0.274" xlink:href="#linear-gradient"/>
    <linearGradient id="linear-gradient-3" x1="0.564" y1="0.092" x2="0.524" y2="0.395" xlink:href="#linear-gradient"/>
    <linearGradient id="linear-gradient-4" x1="0.499" y1="0.511" x2="0.495" y2="0.058" gradientUnits="objectBoundingBox">
      <stop offset="0" stop-color="#ff9677"/>
      <stop offset="0.214" stop-color="#fd9072"/>
      <stop offset="0.496" stop-color="#f87f66"/>
      <stop offset="0.815" stop-color="#f16452"/>
      <stop offset="1" stop-color="#ec5145"/>
    </linearGradient>
    <linearGradient id="linear-gradient-5" x1="0.48" y1="0.105" x2="0.499" y2="0.554" gradientUnits="objectBoundingBox">
      <stop offset="0" stop-color="#75483b"/>
      <stop offset="0.35" stop-color="#704438"/>
      <stop offset="0.75" stop-color="#623c2f"/>
      <stop offset="1" stop-color="#563428"/>
    </linearGradient>
    <linearGradient id="linear-gradient-6" x1="0.486" y1="-0.179" x2="0.507" y2="1.1" xlink:href="#linear-gradient-5"/>
    <linearGradient id="linear-gradient-7" x1="0.483" y1="-0.386" x2="0.503" y2="0.885" xlink:href="#linear-gradient-5"/>
    <linearGradient id="linear-gradient-8" x1="0.541" y1="-0.562" x2="0.478" y2="0.251" gradientUnits="objectBoundingBox">
      <stop offset="0" stop-color="#ff9677"/>
      <stop offset="0.272" stop-color="#fd9072"/>
      <stop offset="0.63" stop-color="#f97f67"/>
      <stop offset="1" stop-color="#f36756"/>
    </linearGradient>
  </defs>
  <g id="Grupo_19163" data-name="Grupo 19163" transform="translate(-2551 2578.044)">
    <path id="Trazado_35568" data-name="Trazado 35568" d="M0,0H304V94H0Z" transform="translate(2551 -2341)" fill="#f56b6b"/>
    <path id="Trazado_35570" data-name="Trazado 35570" d="M178.7,35.432c107.1,0,133.921,22.453,133.921,87.541S301.112,272.392,194.01,272.392,36.852,173.616,36.852,108.528,71.6,35.432,178.7,35.432Z" transform="translate(2878.149 -2305.652) rotate(180)" fill="rgba(152,152,152,0.12)"/>
    <g id="Enmascarar_grupo_16" data-name="Enmascarar grupo 16" transform="translate(1365 -4175.044)" clip-path="url(#clip-path)">
      <g id="Grupo_19153" data-name="Grupo 19153" transform="translate(1229.038 1623.528)">
        <path id="Trazado_35571" data-name="Trazado 35571" d="M957.655,1389H934.431s6.717,29.931,2.866,32.683-46.855,14.967-46.855,14.967l-2.012,6.233s12.488,4.338,19.915,5.714,28.237.744,29.613-.082,31.11-.709,32.486-2.084-3.571-23.5-6.872-27.626S957.655,1389,957.655,1389Z" transform="translate(-851.671 -940.82)" fill="#acb2b9"/>
        <path id="Trazado_35572" data-name="Trazado 35572" d="M963.487,1458.995s-6.242,9.329-8.91,9.583-14.878-7.562-14.878-7.562-.156-7.487-1.681-7.233-10.663,10.014-10.663,10.014-26.046,11-28.206,10.8-8.069,2.72-8.45,3.736-2.268,4.892-2.268,4.892,31.046,9.086,34.731,8.578,40.791-6.262,42.824-6.689a25.59,25.59,0,0,0,5.591-2.587S966.753,1457.989,963.487,1458.995Z" transform="translate(-851.671 -982.988)" fill="url(#linear-gradient)"/>
        <path id="Trazado_35573" data-name="Trazado 35573" d="M908.617,1539.713c-7.243.826-27.266-5.806-27.266-5.806s-2.036,3.08-1.486,3.548c5.972,5.083,22.222,8.3,23.746,8.591s63.495-2.415,63.495-2.415V1533h-2.184S918.779,1538.555,908.617,1539.713Z" transform="translate(-846.034 -1034.56)" fill="#b4b4b4"/>
        <path id="Trazado_35574" data-name="Trazado 35574" d="M906.6,1539.1l-23.279-5.845-.932,1.7,24.583,5.8,61.839-6.1v-1.779L939,1535.292Z" transform="translate(-847.737 -1034.48)" fill="#e5e5e5"/>
        <path id="Trazado_35575" data-name="Trazado 35575" d="M976.426,1477.525a28.1,28.1,0,0,0-3.7-2.439,4.622,4.622,0,0,0-1.357-.562.694.694,0,0,0-.568.137,1.133,1.133,0,0,0-.188.387c-.346.856-1.468,1.02-2.392,1.036s-2.037.124-2.447.952c-.1.2-.142.416-.251.6a1.65,1.65,0,0,1-1.333.682,9.077,9.077,0,0,0-1.55.122,2.151,2.151,0,0,0-1.512,1.57c-.033.147-.064.318-.2.392a.487.487,0,0,1-.3.025,3.821,3.821,0,0,0-1.882.048,1.248,1.248,0,0,0-.826,1.5.914.914,0,0,0-1.057.37c-.4.65.317,1.827.573,2.415.425.98.519,1.955,1.425,2.683a2.349,2.349,0,0,0,2.079.483c1.146-.335,1.911-1.7,3.1-1.661.3.009.591.112.891.125a.763.763,0,0,0,.759-.373c.1-.224.023-.51.171-.7a.7.7,0,0,1,.458-.215,5.6,5.6,0,0,1,2.447.113,3.705,3.705,0,0,0,1.206.235.883.883,0,0,0,.867-.724,1.146,1.146,0,0,1,.023-.359.5.5,0,0,1,.26-.241,3.318,3.318,0,0,1,1.571-.225,3.141,3.141,0,0,0,1.566-.246,1.1,1.1,0,0,0,.572-1.337c1-.191,2.072.351,3.033.01a1.775,1.775,0,0,0,1.132-1.336C979.273,1479.469,977.448,1478.307,976.426,1477.525Z" transform="translate(-896.145 -996.49)" fill="#e5e5e5"/>
        <path id="Trazado_35576" data-name="Trazado 35576" d="M1147.228,1396.868H1124.26s1.867,15.458-.884,21.235c-1.479,3.105-9.375,11.339-14.546,19.556h40.257c-1.369-3.8-2.738-8.754-3.859-10.676C1143.3,1423.681,1146.953,1397.249,1147.228,1396.868Z" transform="translate(-995.146 -945.941)" fill="#acb2b9"/>
        <path id="Trazado_35577" data-name="Trazado 35577" d="M1127.916,1489.2c-.1-.773-.642-1.808-1.341-1.464-.477-3.14.368-6.319-1.105-9.133-3.171-6.056-4.36-5.23-4.347-5.145.672,4.542-2.8,5.178-4.145,4.846a5.011,5.011,0,0,1-2.3-1.711,62.794,62.794,0,0,0-5.514-5.308c-2.24-1.908-4.762-3.719-7.682-4.083-4.159-.518-8.132,2.045-10.913,5.181a40.944,40.944,0,0,0-6.267,8.462c-2.025,4.021-4.3,5.522-5.307,5.76a10.23,10.23,0,0,0-7.8,8.406c-.1.864,2.12,2.345,2.718,2.862a4.76,4.76,0,0,0,1.822.815c4.812,1.429,9.234,3.853,13.707,6.078,2.239,1.114,4.061-1.265,6.4-.383,2.535.954,5.432.236,8.133-.063,9.695-1.075,15.119-2.743,22.782-8.334a3.966,3.966,0,0,0,1.486-1.591,4.016,4.016,0,0,0,.08-2.006Q1128.124,1490.792,1127.916,1489.2Z" transform="translate(-970.649 -991.682)" fill="url(#linear-gradient-2)"/>
        <path id="Trazado_35578" data-name="Trazado 35578" d="M1129.627,1485.887a22.065,22.065,0,0,0-10.835-4.36c-2.257-.325-5.126-.733-7.367-.051a5.141,5.141,0,0,0-1.823,1.512,3.337,3.337,0,0,1-1.637.973,2.376,2.376,0,0,0-1.567,2.324,1.892,1.892,0,0,0-1.466,3.133,6.3,6.3,0,0,0-1.489,1.589.664.664,0,0,0,.25,1.129,14.834,14.834,0,0,0,4.285,1.274,36.957,36.957,0,0,1,8.445,2.887c1.5.724,2.947,1.551,4.49,2.171a5.58,5.58,0,0,0,2.371.513,2.368,2.368,0,0,0,2.009-1.187,1.528,1.528,0,0,0-.689-2.059,4.753,4.753,0,0,0,1.965-.071,1.621,1.621,0,0,0,1.19-1.42,2.4,2.4,0,0,0-.964-1.59,3.21,3.21,0,0,0,2.529-.444,1.427,1.427,0,0,0,.019-2.245c.909.443,1.977-.616,1.911-1.625a3.067,3.067,0,0,0-1.031-1.926A7.8,7.8,0,0,0,1129.627,1485.887Z" transform="translate(-991.501 -1000.778)" fill="#e5e5e5"/>
        <path id="Trazado_35579" data-name="Trazado 35579" d="M1122.365,1525.754s-18.321,13.027-24.44,13.5-30.8-5.547-30.8-5.547l-1.624-.534s-1.019,4.351-.427,5.018,13.2,7.234,34.046,6.3c12.767-.574,25.925-11.347,26.221-11.824S1124.685,1524.135,1122.365,1525.754Z" transform="translate(-966.542 -1029.703)" fill="#d8d8d8"/>
        <path id="Trazado_35580" data-name="Trazado 35580" d="M1123.5,1523.337s-16.222,12.492-25.009,13.256c-7.853.683-29.892-5.839-29.892-5.839a1.678,1.678,0,0,1,.113-1.029s-1.921,1.511-2.073,2.018c-.146.488,16.909,6.786,31.788,6.757,5.368-.01,20.747-8.375,22.2-9.909a14.4,14.4,0,0,1,2.757-2.161c.431-.29-.653-.582-.225-.876s1.136-.663,1.31-1.166C1124.718,1523.685,1124.021,1523.562,1123.5,1523.337Z" transform="translate(-967.682 -1028.27)" fill="#e5e5e5"/>
        <path id="Trazado_35581" data-name="Trazado 35581" d="M1043.869,977.289c-6.413-30.878,3.641-98.381,3.77-99.241l-2.3.365c.457-4.616.858-9.527,1.214-14.413H951.922c-.215,3.49-.425,7.084-.623,10.351a21.853,21.853,0,0,0-3.222-.787c-1.205,26.272,5.724,125.726,21.218,188.145,0,0,3.64,4.282,17.51,4.282,14.248,0,18.222-4.29,18.222-4.29-16.042-60.658-12.193-139.031-10.266-163.24q2.082.038,4.2.057c-1.4,21.4,2.454,62.159,8.473,89.069,5.763,25.765,6.038,67.281,6.144,76.76,0,0,2.577,4.413,16.59,4.035,11.253-.3,15.306-4.035,15.306-4.035a2.886,2.886,0,0,0,.273-.85C1047.124,1054.456,1050.249,1008.009,1043.869,977.289Z" transform="translate(-890.412 -599.057)" fill="url(#linear-gradient-3)"/>
        <path id="Trazado_35582" data-name="Trazado 35582" d="M1053.521,946.787c-28.6,1.055-5.888,5.347-3.171,5.374,4.824.111,8.028.126,8.028.126s-.032,1.257-.088,1.764C1058.377,954.015,1082.058,945.734,1053.521,946.787Z" transform="translate(-949.839 -652.889)" opacity="0.11"/>
        <path id="Trazado_35583" data-name="Trazado 35583" d="M1045.778,883.97c.055-1.116.1-2.256.139-3.414q.054-1.264.1-2.234l-.681.116c.378-3.82.718-7.85,1.025-11.886.041-.847.09-1.854.142-2.552H958.2l-6.284.119c-.213,3.46-.422,7.006-.618,10.244a22,22,0,0,0-3.222-.793c-.129,2.814-.164,6.472-.107,10.829l.738.179c1.9.46,41.391,8.979,97.062-.435C1045.774,884.086,1045.776,884.027,1045.778,883.97Z" transform="translate(-890.413 -599.057)" opacity="0.11"/>
        <path id="Trazado_35584" data-name="Trazado 35584" d="M1062.656,328.49h0c-8.1-.11-13.592,3.733-13.114,9.194l-.317,24.806c.478,5.462,8.74,6.279,16.845,6.389s14.631-.816,14.153-6.277l-2.447-23.475C1077.3,333.666,1070.761,328.6,1062.656,328.49Z" transform="translate(-956.344 -250.451)" fill="#ff8368"/>
        <g id="Grupo_19147" data-name="Grupo 19147" transform="translate(129.359 108.059)">
          <path id="Trazado_35585" data-name="Trazado 35585" d="M1183,480.228c8.66-1.393,17.4-4,26.136-4.9-6.953-54.76-37.031-58.5-55.4-60.819l9.975,36.641c2.4,4.543,9.637,20.019,13.11,29.081C1179.349,479.894,1180.5,480.631,1183,480.228Z" transform="translate(-1153.741 -414.506)" fill="#ffdbc3"/>
        </g>
        <path id="Trazado_35586" data-name="Trazado 35586" d="M1066.556,433.451l-.4-20.494c-16.7-4.91-39.4-4.865-55.344,1.858l.367,18.637Z" transform="translate(-931.336 -303.184)" fill="#ff8368"/>
        <path id="Trazado_35587" data-name="Trazado 35587" d="M1020.9,444.188c-.06-3.065,1.818-23.7-17.741-28.691l-.247-.063-.37-.089c-.264-.062-.53-.122-.8-.179l-.191-.054c-1.39-.394-2.821-.778-4.3-1.163l0,.016c-2.132-.562-4.347-1.14-5.156-1.351,2.525,14.494-14.056,21.091-22.355,20.893-9.558-.228-18.967-4.886-14.919-19.865-31.508,4.566-38.177-4.818-45.518,34,3.358.947,5.967,1.56,13.336,3.452-.08,5.561-2.327,66.988-3.082,135.3,0,0,15.641,4.205,47.881,4.766,33.52.583,54.818-6.755,54.818-6.755C1028.389,533.386,1021.456,477,1020.9,444.188Z" transform="translate(-865.255 -305.216)" fill="#ffdbc3"/>
        <path id="Trazado_35588" data-name="Trazado 35588" d="M1196.349,562.814l-2.728.467.965,12.685s2.947,42.472,4.057,45.148-4.234,55.858-4.616,57.952c-.247,1.357-3.467,4.68-5.7,6.851a116.169,116.169,0,0,0,15.567-3.729c3.854-32.039,2.555-66.192.915-95.295l-7.028-9.995Z" transform="translate(-1046.894 -402.992)" fill="#fac2a4"/>
        <path id="Trazado_35589" data-name="Trazado 35589" d="M1244.074,590.847a113.607,113.607,0,0,1-12.776,2.608,85.236,85.236,0,0,1-11.442.831c1.811,13.27,4.182,32.79,4.017,48.875-.137,13.313,28.118,12.1,29.249,4.16,2.593-18.205.891-41.817-1.937-58.56C1248.854,589.57,1246.474,590.227,1244.074,590.847Z" transform="translate(-1067.421 -419.883)" fill="#ff9677"/>
        <g id="Grupo_19148" data-name="Grupo 19148" transform="translate(150.122 166.671)">
          <path id="Trazado_35590" data-name="Trazado 35590" d="M1214.592,592.038a1.218,1.218,0,0,1-1.284-1.135l-.038-.7-.039-.736a1.155,1.155,0,0,1,1.107-1.21c4.253-.233,19.344-1.339,32.684-5.757a1.228,1.228,0,0,1,1.525.722l.516,1.355a1.147,1.147,0,0,1-.72,1.505C1234.37,590.714,1219,591.81,1214.592,592.038Z" transform="translate(-1213.229 -582.436)" fill="#ffeadd"/>
        </g>
        <path id="Trazado_35591" data-name="Trazado 35591" d="M1190.378,902.912s-13.38,13.76-14.659,18.622-.643,19.1-.306,20.132,1.88,6.614,1.325,8.439,2.948,1.237,3.755-.679a20.042,20.042,0,0,0,.614-7.959c-.331-.944.892-8.4.892-8.4s1.164,3.518,1.639,5.236.113,11.659-.319,12.358-3.794,4.308-3.837,6.036,2.459,1.42,4.368,1.037a21.014,21.014,0,0,0,4.65-1.906s3.947-.424,5.258-1.4a5.942,5.942,0,0,0,1.824-2.2s3.563-.934,4.209-1.552,6.678-13.607,6.922-16.117-1.209-17.271.119-26.291C1207.509,903.684,1190.378,902.912,1190.378,902.912Z" transform="translate(-1038.191 -624.388)" fill="#ff9677"/>
        <path id="Trazado_35592" data-name="Trazado 35592" d="M1195.583,965.415s3.563-.934,4.209-1.552,6.678-13.607,6.922-16.117c.026-.262.032-.663.026-1.171-.008,0-.013-.012-.021-.016l-.036-.017c-.452-.192-2.091.49-2.586.605q-1.652.384-3.305.758c-2.077.47-4.155.935-6.242,1.352-1,.2-2.492.752-3.523.539-1.142-.237-7.579-6.317-8.186-8.637-.465-1.778.552-12.892,1.055-18-3.612,4.141-7.514,9.04-8.176,11.556-1.279,4.863-.643,19.1-.306,20.132s1.88,6.614,1.325,8.439,2.948,1.237,3.755-.679a20.041,20.041,0,0,0,.614-7.959c-.331-.944.892-8.4.892-8.4s1.164,3.518,1.639,5.236.112,11.659-.319,12.358-3.794,4.308-3.837,6.036,2.459,1.42,4.368,1.037a21.018,21.018,0,0,0,4.65-1.906s3.947-.424,5.258-1.4A5.942,5.942,0,0,0,1195.583,965.415Z" transform="translate(-1038.191 -637.567)" fill="#ff8368" opacity="0.55"/>
        <path id="Trazado_35593" data-name="Trazado 35593" d="M1213.549,1006.42s-1.629,10.872-1.822,12c-.164.961-3.331,4.761-4.256,5.834,1.241-.536,2.282-1.091,2.282-1.091s.354-.022.878-.1c1.04-1.7,2.605-4.421,2.693-4.682.132-.392,1.692-11.988,1.692-11.988Z" transform="translate(-1059.359 -691.75)" fill="#ff8368"/>
        <path id="Trazado_35594" data-name="Trazado 35594" d="M1235.938,1018.092l3.235-13.092h-1.2l-3.628,13.5C1234.572,1018.441,1235.214,1018.319,1235.938,1018.092Z" transform="translate(-1076.851 -690.844)" fill="#ff8368"/>
        <path id="Trazado_35595" data-name="Trazado 35595" d="M1205.842,801.478s3.107-4.15,3.976-7.149c1.9-6.568,4.241-52.354,4.932-53.875s22.8-3.89,29.86-.512a129.947,129.947,0,0,1-4.445,22.515c-2.6,9.183-13.394,39.951-13.882,46.465S1205.842,801.478,1205.842,801.478Z" transform="translate(-1058.298 -517.177)" fill="#ff9677"/>
        <g id="Grupo_19149" data-name="Grupo 19149" transform="translate(85.021 107.196)">
          <path id="Trazado_35596" data-name="Trazado 35596" d="M1068.713,412.032a18.864,18.864,0,0,1-5.01,11.856c-3.894,4.014-9.8,6.085-17.557,6.157-7.135.07-11.865-1.6-14.086-4.961-2.875-4.347-.893-10.561-.245-12.3q-2.124.355-4.252.678c-.918,3.316-1.784,9.067,1.283,13.723,2.93,4.449,8.616,6.7,16.905,6.7l.431,0c8.85-.082,15.687-2.562,20.322-7.37a22.5,22.5,0,0,0,6.027-13.945C1071.262,412.377,1069.989,412.185,1068.713,412.032Z" transform="translate(-1026.706 -412.032)" fill="#ffeadd"/>
        </g>
        <path id="Trazado_35597" data-name="Trazado 35597" d="M855.106,249.486c2.975-3.462-9.4-15.653-9.4-15.653s-39.489,30.745-53.646,50.376-9.554,27.422.262,35.679c11.262,9.473,51.632,18.228,51.632,18.228l20.7-38.724-42.588-3.074S833.094,275.108,855.106,249.486Z" transform="translate(-783.109 -188.833)" fill="#ff9677"/>
        <path id="Trazado_35598" data-name="Trazado 35598" d="M906.374,411.208c1.309,1.967-.536,25.888-10.034,36.782,11.161,3.239,21.814,6.282,21.814,6.282l24.544-42.5a8.79,8.79,0,0,1-1.976-.031,6.9,6.9,0,0,1-2.076-.038c-.558-.235-.581-.685-.9-1.164-.366-.551-1.187-.46-1.829-.305a3.688,3.688,0,0,0-2.016.956c-.143.166-.292.376-.511.375-.423,0-.392-.644-.563-1.031-.288-.648-1.226-.549-1.9-.342l-2.1.64a.873.873,0,0,1-.667.021c-.263-.144-.3-.5-.434-.764-.4-.811-1.584-.755-2.423-.417-.983.4-1.687,1.345-2.606,1.72a7.936,7.936,0,0,1-2.742.026l-6.893-.107-4.933-.077A6.746,6.746,0,0,1,906.374,411.208Z" transform="translate(-856.82 -303.148)" fill="#ffdbc3"/>
        <path id="Trazado_35599" data-name="Trazado 35599" d="M847.74,267.914s-28.085,24.357-36.967,38.129S823.255,324.118,829.157,317s22.041-36.1,27.284-43.078S856.743,259.807,847.74,267.914Z" transform="translate(-799.729 -208.672)" fill="#fff" opacity="0.07"/>
        <path id="Trazado_35600" data-name="Trazado 35600" d="M1107.074,337.1a.157.157,0,0,0-.005-.028S1107.071,337.089,1107.074,337.1Z" transform="translate(-993.999 -256.042)" fill="#7c302a"/>
        <ellipse id="Elipse_1126" data-name="Elipse 1126" cx="6.742" cy="9.86" rx="6.742" ry="9.86" transform="translate(66.139 62.964) rotate(-15.3)" fill="#ff8368"/>
        <path id="Trazado_35601" data-name="Trazado 35601" d="M1044.565,142.582s0-.059-.017-.158C1044.557,142.526,1044.565,142.582,1044.565,142.582Z" transform="translate(-953.3 -129.328)" fill="#3e1208"/>
        <path id="Trazado_35602" data-name="Trazado 35602" d="M1051.047,205.43c.111-12.678-1.653-28.722-4.182-38.176-1.928-12.287-36.528-18.281-46.825-1.481-3.295,7.8-8.665,22.361-10.508,36.843,0-.155.007-.248.007-.248s-9.646,38.492,24.639,41.08,38.2-15.478,36.871-38.023Z" transform="translate(-916.676 -137.795)" fill="url(#linear-gradient-4)"/>
        <g id="Grupo_19150" data-name="Grupo 19150" transform="translate(72.338 59.685)" opacity="0.4">
          <path id="Trazado_35603" data-name="Trazado 35603" d="M1003.341,276.211c-6.808-.128-12.442,5.541-12.584,12.662s5.262,13,12.071,13.125,12.443-5.54,12.584-12.661S1010.149,276.339,1003.341,276.211Z" transform="translate(-990.62 -276.103)" fill="#ff9777"/>
          <path id="Trazado_35604" data-name="Trazado 35604" d="M1003.5,276.471c-6.76-.127-12.355,5.5-12.5,12.572s5.226,12.905,11.986,13.033,12.355-5.5,12.5-12.572S1010.261,276.6,1003.5,276.471Z" transform="translate(-990.781 -276.273)" fill="#ff9676"/>
          <path id="Trazado_35605" data-name="Trazado 35605" d="M1003.661,276.732c-6.712-.126-12.267,5.463-12.407,12.483a12.428,12.428,0,0,0,11.9,12.94c6.712.126,12.267-5.463,12.407-12.483A12.427,12.427,0,0,0,1003.661,276.732Z" transform="translate(-990.943 -276.443)" fill="#ff9576"/>
          <ellipse id="Elipse_1127" data-name="Elipse 1127" cx="12.623" cy="12.069" rx="12.623" ry="12.069" transform="matrix(0.032, -0.999, 0.999, 0.032, 0, 25.234)" fill="#fe9475"/>
          <ellipse id="Elipse_1128" data-name="Elipse 1128" cx="12.533" cy="11.982" rx="12.533" ry="11.982" transform="translate(0.09 25.146) rotate(-88.178)" fill="#fe9374"/>
          <path id="Trazado_35606" data-name="Trazado 35606" d="M1004.141,277.512a12.454,12.454,0,1,0,11.646,12.663A12.195,12.195,0,0,0,1004.141,277.512Z" transform="translate(-991.429 -276.95)" fill="#fe9273"/>
          <path id="Trazado_35607" data-name="Trazado 35607" d="M1004.3,277.772a12.363,12.363,0,1,0,11.561,12.57A12.105,12.105,0,0,0,1004.3,277.772Z" transform="translate(-991.591 -277.12)" fill="#fe9173"/>
          <ellipse id="Elipse_1129" data-name="Elipse 1129" cx="12.26" cy="11.722" rx="12.26" ry="11.722" transform="matrix(0.032, -0.999, 0.999, 0.032, 0.359, 24.882)" fill="#fd9072"/>
          <ellipse id="Elipse_1130" data-name="Elipse 1130" cx="12.169" cy="11.635" rx="12.169" ry="11.635" transform="matrix(0.032, -0.999, 0.999, 0.032, 0.448, 24.794)" fill="#fd8f71"/>
          <ellipse id="Elipse_1131" data-name="Elipse 1131" cx="12.078" cy="11.548" rx="12.078" ry="11.548" transform="matrix(0.032, -0.999, 0.999, 0.032, 0.538, 24.706)" fill="#fd8e71"/>
          <ellipse id="Elipse_1132" data-name="Elipse 1132" cx="11.988" cy="11.461" rx="11.988" ry="11.461" transform="translate(0.628 24.618) rotate(-88.178)" fill="#fd8d70"/>
          <ellipse id="Elipse_1133" data-name="Elipse 1133" cx="11.897" cy="11.374" rx="11.897" ry="11.374" transform="matrix(0.032, -0.999, 0.999, 0.032, 0.718, 24.53)" fill="#fc8c6f"/>
          <path id="Trazado_35608" data-name="Trazado 35608" d="M1005.262,279.333a11.818,11.818,0,1,0,11.051,12.016A11.571,11.571,0,0,0,1005.262,279.333Z" transform="translate(-992.563 -278.136)" fill="#fc8b6f"/>
          <ellipse id="Elipse_1134" data-name="Elipse 1134" cx="11.715" cy="11.201" rx="11.715" ry="11.201" transform="translate(0.897 24.354) rotate(-88.177)" fill="#fc8a6e"/>
          <ellipse id="Elipse_1135" data-name="Elipse 1135" cx="11.624" cy="11.114" rx="11.624" ry="11.114" transform="translate(0.986 24.266) rotate(-88.177)" fill="#fc896d"/>
          <ellipse id="Elipse_1136" data-name="Elipse 1136" cx="11.534" cy="11.027" rx="11.534" ry="11.027" transform="translate(1.076 24.178) rotate(-88.178)" fill="#fb886c"/>
          <ellipse id="Elipse_1137" data-name="Elipse 1137" cx="11.443" cy="10.94" rx="11.443" ry="10.94" transform="translate(1.166 24.09) rotate(-88.178)" fill="#fb876c"/>
          <ellipse id="Elipse_1138" data-name="Elipse 1138" cx="11.352" cy="10.853" rx="11.352" ry="10.853" transform="translate(1.256 24.002) rotate(-88.178)" fill="#fb866b"/>
          <ellipse id="Elipse_1139" data-name="Elipse 1139" cx="11.261" cy="10.767" rx="11.261" ry="10.767" transform="matrix(0.032, -0.999, 0.999, 0.032, 1.345, 23.914)" fill="#fb856a"/>
          <ellipse id="Elipse_1140" data-name="Elipse 1140" cx="11.17" cy="10.68" rx="11.17" ry="10.68" transform="translate(1.435 23.826) rotate(-88.177)" fill="#fa846a"/>
          <ellipse id="Elipse_1141" data-name="Elipse 1141" cx="11.079" cy="10.593" rx="11.079" ry="10.593" transform="translate(1.525 23.738) rotate(-88.178)" fill="#fa8369"/>
          <ellipse id="Elipse_1142" data-name="Elipse 1142" cx="10.989" cy="10.506" rx="10.989" ry="10.506" transform="translate(1.614 23.65) rotate(-88.176)" fill="#fa8268"/>
          <ellipse id="Elipse_1143" data-name="Elipse 1143" cx="10.898" cy="10.419" rx="10.898" ry="10.419" transform="matrix(0.032, -0.999, 0.999, 0.032, 1.704, 23.562)" fill="#fa8168"/>
          <ellipse id="Elipse_1144" data-name="Elipse 1144" cx="10.807" cy="10.332" rx="10.807" ry="10.332" transform="translate(1.793 23.474) rotate(-88.176)" fill="#f98067"/>
          <ellipse id="Elipse_1145" data-name="Elipse 1145" cx="10.716" cy="10.246" rx="10.716" ry="10.246" transform="matrix(0.032, -0.999, 0.999, 0.032, 1.883, 23.386)" fill="#f97f66"/>
          <ellipse id="Elipse_1146" data-name="Elipse 1146" cx="10.625" cy="10.159" rx="10.625" ry="10.159" transform="translate(1.973 23.298) rotate(-88.177)" fill="#f97e65"/>
          <ellipse id="Elipse_1147" data-name="Elipse 1147" cx="10.535" cy="10.072" rx="10.535" ry="10.072" transform="translate(2.063 23.21) rotate(-88.177)" fill="#f97d65"/>
          <ellipse id="Elipse_1148" data-name="Elipse 1148" cx="10.444" cy="9.985" rx="10.444" ry="9.985" transform="translate(2.152 23.122) rotate(-88.178)" fill="#f97c64"/>
          <ellipse id="Elipse_1149" data-name="Elipse 1149" cx="10.353" cy="9.898" rx="10.353" ry="9.898" transform="translate(2.241 23.033) rotate(-88.174)" fill="#f87b63"/>
          <ellipse id="Elipse_1150" data-name="Elipse 1150" cx="10.262" cy="9.812" rx="10.262" ry="9.812" transform="translate(2.331 22.946) rotate(-88.176)" fill="#f87a63"/>
          <ellipse id="Elipse_1151" data-name="Elipse 1151" cx="10.171" cy="9.725" rx="10.171" ry="9.725" transform="translate(2.421 22.858) rotate(-88.177)" fill="#f87962"/>
          <ellipse id="Elipse_1152" data-name="Elipse 1152" cx="10.08" cy="9.638" rx="10.08" ry="9.638" transform="translate(2.511 22.77) rotate(-88.177)" fill="#f87861"/>
          <ellipse id="Elipse_1153" data-name="Elipse 1153" cx="9.99" cy="9.551" rx="9.99" ry="9.551" transform="matrix(0.032, -0.999, 0.999, 0.032, 2.601, 22.682)" fill="#f77760"/>
          <ellipse id="Elipse_1154" data-name="Elipse 1154" cx="9.899" cy="9.464" rx="9.899" ry="9.464" transform="matrix(0.032, -0.999, 0.999, 0.032, 2.69, 22.593)" fill="#f77660"/>
          <ellipse id="Elipse_1155" data-name="Elipse 1155" cx="9.808" cy="9.377" rx="9.808" ry="9.377" transform="matrix(0.032, -0.999, 0.999, 0.032, 2.78, 22.506)" fill="#f7755f"/>
          <ellipse id="Elipse_1156" data-name="Elipse 1156" cx="9.717" cy="9.291" rx="9.717" ry="9.291" transform="translate(2.869 22.418) rotate(-88.176)" fill="#f7745e"/>
          <ellipse id="Elipse_1157" data-name="Elipse 1157" cx="9.626" cy="9.204" rx="9.626" ry="9.204" transform="matrix(0.032, -0.999, 0.999, 0.032, 2.959, 22.329)" fill="#f6745e"/>
          <ellipse id="Elipse_1158" data-name="Elipse 1158" cx="9.536" cy="9.117" rx="9.536" ry="9.117" transform="translate(3.049 22.242) rotate(-88.177)" fill="#f6735d"/>
          <ellipse id="Elipse_1159" data-name="Elipse 1159" cx="9.445" cy="9.03" rx="9.445" ry="9.03" transform="translate(3.138 22.153) rotate(-88.176)" fill="#f6725c"/>
          <ellipse id="Elipse_1160" data-name="Elipse 1160" cx="9.354" cy="8.943" rx="9.354" ry="8.943" transform="matrix(0.032, -0.999, 0.999, 0.032, 3.228, 22.065)" fill="#f6715c"/>
          <ellipse id="Elipse_1161" data-name="Elipse 1161" cx="9.263" cy="8.856" rx="9.263" ry="8.856" transform="matrix(0.032, -0.999, 0.999, 0.032, 3.318, 21.978)" fill="#f5705b"/>
          <ellipse id="Elipse_1162" data-name="Elipse 1162" cx="9.172" cy="8.77" rx="9.172" ry="8.77" transform="matrix(0.032, -0.999, 0.999, 0.032, 3.408, 21.89)" fill="#f56f5a"/>
          <ellipse id="Elipse_1163" data-name="Elipse 1163" cx="9.081" cy="8.683" rx="9.081" ry="8.683" transform="translate(3.497 21.802) rotate(-88.177)" fill="#f56e59"/>
          <ellipse id="Elipse_1164" data-name="Elipse 1164" cx="8.991" cy="8.596" rx="8.991" ry="8.596" transform="translate(3.587 21.713) rotate(-88.175)" fill="#f56d59"/>
          <ellipse id="Elipse_1165" data-name="Elipse 1165" cx="8.9" cy="8.509" rx="8.9" ry="8.509" transform="translate(3.676 21.625) rotate(-88.175)" fill="#f46c58"/>
          <ellipse id="Elipse_1166" data-name="Elipse 1166" cx="8.809" cy="8.422" rx="8.809" ry="8.422" transform="translate(3.766 21.538) rotate(-88.177)" fill="#f46b57"/>
          <path id="Trazado_35609" data-name="Trazado 35609" d="M1010.707,288.179a8.727,8.727,0,1,0,8.16,8.873A8.545,8.545,0,0,0,1010.707,288.179Z" transform="translate(-998.069 -283.895)" fill="#f46a57"/>
          <ellipse id="Elipse_1167" data-name="Elipse 1167" cx="8.627" cy="8.249" rx="8.627" ry="8.249" transform="translate(3.945 21.361) rotate(-88.176)" fill="#f46956"/>
          <ellipse id="Elipse_1168" data-name="Elipse 1168" cx="8.537" cy="8.162" rx="8.537" ry="8.162" transform="matrix(0.032, -0.999, 0.999, 0.032, 4.035, 21.273)" fill="#f46855"/>
          <ellipse id="Elipse_1169" data-name="Elipse 1169" cx="8.446" cy="8.075" rx="8.446" ry="8.075" transform="matrix(0.032, -0.999, 0.999, 0.032, 4.125, 21.185)" fill="#f36754"/>
          <path id="Trazado_35610" data-name="Trazado 35610" d="M1011.348,289.22a8.363,8.363,0,1,0,7.82,8.5A8.189,8.189,0,0,0,1011.348,289.22Z" transform="translate(-998.717 -284.573)" fill="#f36654"/>
          <ellipse id="Elipse_1170" data-name="Elipse 1170" cx="8.264" cy="7.901" rx="8.264" ry="7.901" transform="translate(4.304 21.009) rotate(-88.175)" fill="#f36553"/>
          <ellipse id="Elipse_1171" data-name="Elipse 1171" cx="8.173" cy="7.814" rx="8.173" ry="7.814" transform="translate(4.394 20.921) rotate(-88.176)" fill="#f36452"/>
          <path id="Trazado_35611" data-name="Trazado 35611" d="M1011.828,290a8.091,8.091,0,1,0,7.565,8.226A7.922,7.922,0,0,0,1011.828,290Z" transform="translate(-999.203 -285.08)" fill="#f26352"/>
          <path id="Trazado_35612" data-name="Trazado 35612" d="M1011.989,290.261a8,8,0,1,0,7.48,8.134A7.833,7.833,0,0,0,1011.989,290.261Z" transform="translate(-999.365 -285.25)" fill="#f26251"/>
          <ellipse id="Elipse_1172" data-name="Elipse 1172" cx="7.901" cy="7.554" rx="7.901" ry="7.554" transform="translate(4.663 20.657) rotate(-88.175)" fill="#f26150"/>
          <path id="Trazado_35613" data-name="Trazado 35613" d="M1012.309,290.781a7.818,7.818,0,1,0,7.31,7.949A7.655,7.655,0,0,0,1012.309,290.781Z" transform="translate(-999.689 -285.588)" fill="#f26050"/>
          <path id="Trazado_35614" data-name="Trazado 35614" d="M1012.47,291.042a7.727,7.727,0,1,0,7.226,7.856A7.565,7.565,0,0,0,1012.47,291.042Z" transform="translate(-999.851 -285.758)" fill="#f15f4f"/>
          <path id="Trazado_35615" data-name="Trazado 35615" d="M1012.629,291.3a7.636,7.636,0,1,0,7.14,7.764A7.477,7.477,0,0,0,1012.629,291.3Z" transform="translate(-1000.013 -285.928)" fill="#f15e4e"/>
          <path id="Trazado_35616" data-name="Trazado 35616" d="M1012.79,291.562a7.545,7.545,0,1,0,7.055,7.672A7.388,7.388,0,0,0,1012.79,291.562Z" transform="translate(-1000.175 -286.097)" fill="#f15d4d"/>
          <ellipse id="Elipse_1173" data-name="Elipse 1173" cx="7.447" cy="7.12" rx="7.447" ry="7.12" transform="translate(5.111 20.217) rotate(-88.176)" fill="#f15c4d"/>
          <path id="Trazado_35617" data-name="Trazado 35617" d="M1013.109,292.082a7.363,7.363,0,1,0,6.885,7.487A7.21,7.21,0,0,0,1013.109,292.082Z" transform="translate(-1000.499 -286.435)" fill="#f05b4c"/>
          <path id="Trazado_35618" data-name="Trazado 35618" d="M1013.27,292.342a7.272,7.272,0,1,0,6.8,7.394A7.121,7.121,0,0,0,1013.27,292.342Z" transform="translate(-1000.661 -286.605)" fill="#f05a4b"/>
          <path id="Trazado_35619" data-name="Trazado 35619" d="M1013.43,292.6a7.181,7.181,0,1,0,6.715,7.3A7.031,7.031,0,0,0,1013.43,292.6Z" transform="translate(-1000.823 -286.775)" fill="#f0594b"/>
          <path id="Trazado_35620" data-name="Trazado 35620" d="M1013.591,292.863a7.091,7.091,0,1,0,6.63,7.209A6.942,6.942,0,0,0,1013.591,292.863Z" transform="translate(-1000.985 -286.944)" fill="#f0584a"/>
          <ellipse id="Elipse_1174" data-name="Elipse 1174" cx="6.993" cy="6.686" rx="6.993" ry="6.686" transform="translate(5.559 19.777) rotate(-88.173)" fill="#ef5749"/>
          <path id="Trazado_35621" data-name="Trazado 35621" d="M1013.911,293.383a6.909,6.909,0,1,0,6.46,7.024A6.765,6.765,0,0,0,1013.911,293.383Z" transform="translate(-1001.308 -287.282)" fill="#ef5649"/>
          <path id="Trazado_35622" data-name="Trazado 35622" d="M1014.071,293.643a6.818,6.818,0,1,0,6.376,6.932A6.675,6.675,0,0,0,1014.071,293.643Z" transform="translate(-1001.471 -287.452)" fill="#ef5548"/>
          <path id="Trazado_35623" data-name="Trazado 35623" d="M1014.231,293.9a6.727,6.727,0,1,0,6.29,6.84A6.586,6.586,0,0,0,1014.231,293.9Z" transform="translate(-1001.633 -287.621)" fill="#ef5447"/>
          <path id="Trazado_35624" data-name="Trazado 35624" d="M1014.391,294.163a6.636,6.636,0,1,0,6.205,6.747A6.5,6.5,0,0,0,1014.391,294.163Z" transform="translate(-1001.794 -287.79)" fill="#ee5346"/>
          <path id="Trazado_35625" data-name="Trazado 35625" d="M1014.551,294.424a6.545,6.545,0,1,0,6.12,6.655A6.408,6.408,0,0,0,1014.551,294.424Z" transform="translate(-1001.956 -287.96)" fill="#ee5246"/>
          <path id="Trazado_35626" data-name="Trazado 35626" d="M1014.712,294.684a6.454,6.454,0,1,0,6.035,6.562A6.319,6.319,0,0,0,1014.712,294.684Z" transform="translate(-1002.119 -288.13)" fill="#ee5145"/>
        </g>
        <g id="Grupo_19151" data-name="Grupo 19151" transform="translate(104.658 60.343)" opacity="0.4">
          <ellipse id="Elipse_1175" data-name="Elipse 1175" cx="12.896" cy="13.43" rx="12.896" ry="13.43" transform="translate(0 25.791) rotate(-89.682)" fill="#ff9777"/>
          <ellipse id="Elipse_1176" data-name="Elipse 1176" cx="12.805" cy="13.335" rx="12.805" ry="13.335" transform="translate(0.095 25.7) rotate(-89.681)" fill="#ff9676"/>
          <ellipse id="Elipse_1177" data-name="Elipse 1177" cx="12.714" cy="13.241" rx="12.714" ry="13.241" transform="translate(0.19 25.61) rotate(-89.682)" fill="#ff9576"/>
          <ellipse id="Elipse_1178" data-name="Elipse 1178" cx="12.623" cy="13.146" rx="12.623" ry="13.146" transform="translate(0.285 25.519) rotate(-89.68)" fill="#fe9475"/>
          <ellipse id="Elipse_1179" data-name="Elipse 1179" cx="12.532" cy="13.052" rx="12.532" ry="13.052" transform="translate(0.38 25.429) rotate(-89.681)" fill="#fe9374"/>
          <ellipse id="Elipse_1180" data-name="Elipse 1180" cx="12.441" cy="12.957" rx="12.441" ry="12.957" transform="translate(0.475 25.339) rotate(-89.682)" fill="#fe9273"/>
          <ellipse id="Elipse_1181" data-name="Elipse 1181" cx="12.351" cy="12.862" rx="12.351" ry="12.862" transform="matrix(0.006, -1, 1, 0.006, 0.57, 25.249)" fill="#fe9173"/>
          <ellipse id="Elipse_1182" data-name="Elipse 1182" cx="12.26" cy="12.768" rx="12.26" ry="12.768" transform="translate(0.666 25.159) rotate(-89.682)" fill="#fd9072"/>
          <ellipse id="Elipse_1183" data-name="Elipse 1183" cx="12.169" cy="12.673" rx="12.169" ry="12.673" transform="translate(0.76 25.068) rotate(-89.681)" fill="#fd8f71"/>
          <ellipse id="Elipse_1184" data-name="Elipse 1184" cx="12.078" cy="12.579" rx="12.078" ry="12.579" transform="matrix(0.006, -1, 1, 0.006, 0.856, 24.978)" fill="#fd8e71"/>
          <ellipse id="Elipse_1185" data-name="Elipse 1185" cx="11.987" cy="12.484" rx="11.987" ry="12.484" transform="translate(0.95 24.887) rotate(-89.68)" fill="#fd8d70"/>
          <ellipse id="Elipse_1186" data-name="Elipse 1186" cx="11.897" cy="12.39" rx="11.897" ry="12.39" transform="translate(1.046 24.797) rotate(-89.681)" fill="#fc8c6f"/>
          <ellipse id="Elipse_1187" data-name="Elipse 1187" cx="11.806" cy="12.295" rx="11.806" ry="12.295" transform="translate(1.141 24.707) rotate(-89.684)" fill="#fc8b6f"/>
          <ellipse id="Elipse_1188" data-name="Elipse 1188" cx="11.715" cy="12.2" rx="11.715" ry="12.2" transform="translate(1.236 24.617) rotate(-89.68)" fill="#fc8a6e"/>
          <ellipse id="Elipse_1189" data-name="Elipse 1189" cx="11.624" cy="12.106" rx="11.624" ry="12.106" transform="translate(1.331 24.527) rotate(-89.682)" fill="#fc896d"/>
          <ellipse id="Elipse_1190" data-name="Elipse 1190" cx="11.533" cy="12.011" rx="11.533" ry="12.011" transform="translate(1.426 24.436) rotate(-89.682)" fill="#fb886c"/>
          <ellipse id="Elipse_1191" data-name="Elipse 1191" cx="11.443" cy="11.917" rx="11.443" ry="11.917" transform="translate(1.521 24.346) rotate(-89.681)" fill="#fb876c"/>
          <ellipse id="Elipse_1192" data-name="Elipse 1192" cx="11.352" cy="11.822" rx="11.352" ry="11.822" transform="matrix(0.006, -1, 1, 0.006, 1.616, 24.255)" fill="#fb866b"/>
          <ellipse id="Elipse_1193" data-name="Elipse 1193" cx="11.261" cy="11.728" rx="11.261" ry="11.728" transform="matrix(0.006, -1, 1, 0.006, 1.711, 24.165)" fill="#fb856a"/>
          <ellipse id="Elipse_1194" data-name="Elipse 1194" cx="11.17" cy="11.633" rx="11.17" ry="11.633" transform="matrix(0.006, -1, 1, 0.006, 1.806, 24.075)" fill="#fa846a"/>
          <ellipse id="Elipse_1195" data-name="Elipse 1195" cx="11.079" cy="11.538" rx="11.079" ry="11.538" transform="translate(1.901 23.985) rotate(-89.681)" fill="#fa8369"/>
          <ellipse id="Elipse_1196" data-name="Elipse 1196" cx="10.988" cy="11.444" rx="10.988" ry="11.444" transform="translate(1.997 23.895) rotate(-89.682)" fill="#fa8268"/>
          <ellipse id="Elipse_1197" data-name="Elipse 1197" cx="10.898" cy="11.349" rx="10.898" ry="11.349" transform="matrix(0.006, -1, 1, 0.006, 2.091, 23.804)" fill="#fa8168"/>
          <ellipse id="Elipse_1198" data-name="Elipse 1198" cx="10.807" cy="11.255" rx="10.807" ry="11.255" transform="matrix(0.006, -1, 1, 0.006, 2.187, 23.714)" fill="#f98067"/>
          <ellipse id="Elipse_1199" data-name="Elipse 1199" cx="10.716" cy="11.16" rx="10.716" ry="11.16" transform="translate(2.282 23.624) rotate(-89.681)" fill="#f97f66"/>
          <ellipse id="Elipse_1200" data-name="Elipse 1200" cx="10.625" cy="11.065" rx="10.625" ry="11.065" transform="translate(2.377 23.533) rotate(-89.682)" fill="#f97e65"/>
          <ellipse id="Elipse_1201" data-name="Elipse 1201" cx="10.534" cy="10.971" rx="10.534" ry="10.971" transform="translate(2.472 23.443) rotate(-89.681)" fill="#f97d65"/>
          <ellipse id="Elipse_1202" data-name="Elipse 1202" cx="10.444" cy="10.876" rx="10.444" ry="10.876" transform="translate(2.567 23.353) rotate(-89.681)" fill="#f97c64"/>
          <ellipse id="Elipse_1203" data-name="Elipse 1203" cx="10.353" cy="10.782" rx="10.353" ry="10.782" transform="translate(2.662 23.263) rotate(-89.682)" fill="#f87b63"/>
          <ellipse id="Elipse_1204" data-name="Elipse 1204" cx="10.262" cy="10.687" rx="10.262" ry="10.687" transform="matrix(0.006, -1, 1, 0.006, 2.757, 23.172)" fill="#f87a63"/>
          <ellipse id="Elipse_1205" data-name="Elipse 1205" cx="10.171" cy="10.593" rx="10.171" ry="10.593" transform="matrix(0.006, -1, 1, 0.006, 2.852, 23.082)" fill="#f87962"/>
          <ellipse id="Elipse_1206" data-name="Elipse 1206" cx="10.08" cy="10.498" rx="10.08" ry="10.498" transform="matrix(0.006, -1, 1, 0.006, 2.948, 22.992)" fill="#f87861"/>
          <ellipse id="Elipse_1207" data-name="Elipse 1207" cx="9.99" cy="10.403" rx="9.99" ry="10.403" transform="matrix(0.006, -1, 1, 0.006, 3.042, 22.901)" fill="#f77760"/>
          <ellipse id="Elipse_1208" data-name="Elipse 1208" cx="9.899" cy="10.309" rx="9.899" ry="10.309" transform="matrix(0.006, -1, 1, 0.006, 3.137, 22.811)" fill="#f77660"/>
          <ellipse id="Elipse_1209" data-name="Elipse 1209" cx="9.808" cy="10.214" rx="9.808" ry="10.214" transform="matrix(0.006, -1, 1, 0.006, 3.232, 22.721)" fill="#f7755f"/>
          <ellipse id="Elipse_1210" data-name="Elipse 1210" cx="9.717" cy="10.12" rx="9.717" ry="10.12" transform="translate(3.327 22.63) rotate(-89.68)" fill="#f7745e"/>
          <ellipse id="Elipse_1211" data-name="Elipse 1211" cx="9.626" cy="10.025" rx="9.626" ry="10.025" transform="translate(3.423 22.54) rotate(-89.68)" fill="#f6745e"/>
          <ellipse id="Elipse_1212" data-name="Elipse 1212" cx="9.535" cy="9.931" rx="9.535" ry="9.931" transform="matrix(0.006, -1, 1, 0.006, 3.518, 22.45)" fill="#f6735d"/>
          <ellipse id="Elipse_1213" data-name="Elipse 1213" cx="9.445" cy="9.836" rx="9.445" ry="9.836" transform="translate(3.613 22.359) rotate(-89.681)" fill="#f6725c"/>
          <ellipse id="Elipse_1214" data-name="Elipse 1214" cx="9.354" cy="9.741" rx="9.354" ry="9.741" transform="matrix(0.006, -1, 1, 0.006, 3.708, 22.269)" fill="#f6715c"/>
          <ellipse id="Elipse_1215" data-name="Elipse 1215" cx="9.263" cy="9.647" rx="9.263" ry="9.647" transform="matrix(0.006, -1, 1, 0.006, 3.803, 22.179)" fill="#f5705b"/>
          <ellipse id="Elipse_1216" data-name="Elipse 1216" cx="9.172" cy="9.552" rx="9.172" ry="9.552" transform="translate(3.898 22.088) rotate(-89.68)" fill="#f56f5a"/>
          <ellipse id="Elipse_1217" data-name="Elipse 1217" cx="9.081" cy="9.458" rx="9.081" ry="9.458" transform="translate(3.993 21.998) rotate(-89.679)" fill="#f56e59"/>
          <ellipse id="Elipse_1218" data-name="Elipse 1218" cx="8.991" cy="9.363" rx="8.991" ry="9.363" transform="translate(4.088 21.908) rotate(-89.681)" fill="#f56d59"/>
          <ellipse id="Elipse_1219" data-name="Elipse 1219" cx="8.9" cy="9.269" rx="8.9" ry="9.269" transform="matrix(0.006, -1, 1, 0.006, 4.183, 21.818)" fill="#f46c58"/>
          <ellipse id="Elipse_1220" data-name="Elipse 1220" cx="8.809" cy="9.174" rx="8.809" ry="9.174" transform="translate(4.278 21.727) rotate(-89.68)" fill="#f46b57"/>
          <ellipse id="Elipse_1221" data-name="Elipse 1221" cx="8.718" cy="9.079" rx="8.718" ry="9.079" transform="translate(4.373 21.637) rotate(-89.679)" fill="#f46a57"/>
          <ellipse id="Elipse_1222" data-name="Elipse 1222" cx="8.627" cy="8.985" rx="8.627" ry="8.985" transform="translate(4.469 21.547) rotate(-89.681)" fill="#f46956"/>
          <ellipse id="Elipse_1223" data-name="Elipse 1223" cx="8.536" cy="8.89" rx="8.536" ry="8.89" transform="translate(4.563 21.456) rotate(-89.68)" fill="#f46855"/>
          <ellipse id="Elipse_1224" data-name="Elipse 1224" cx="8.446" cy="8.796" rx="8.446" ry="8.796" transform="translate(4.658 21.366) rotate(-89.678)" fill="#f36754"/>
          <ellipse id="Elipse_1225" data-name="Elipse 1225" cx="8.355" cy="8.701" rx="8.355" ry="8.701" transform="matrix(0.006, -1, 1, 0.006, 4.754, 21.276)" fill="#f36654"/>
          <ellipse id="Elipse_1226" data-name="Elipse 1226" cx="8.264" cy="8.606" rx="8.264" ry="8.606" transform="translate(4.849 21.185) rotate(-89.679)" fill="#f36553"/>
          <ellipse id="Elipse_1227" data-name="Elipse 1227" cx="8.173" cy="8.512" rx="8.173" ry="8.512" transform="translate(4.944 21.095) rotate(-89.68)" fill="#f36452"/>
          <ellipse id="Elipse_1228" data-name="Elipse 1228" cx="8.082" cy="8.417" rx="8.082" ry="8.417" transform="translate(5.039 21.005) rotate(-89.679)" fill="#f26352"/>
          <ellipse id="Elipse_1229" data-name="Elipse 1229" cx="7.992" cy="8.323" rx="7.992" ry="8.323" transform="translate(5.134 20.914) rotate(-89.678)" fill="#f26251"/>
          <ellipse id="Elipse_1230" data-name="Elipse 1230" cx="7.901" cy="8.228" rx="7.901" ry="8.228" transform="matrix(0.006, -1, 1, 0.006, 5.229, 20.824)" fill="#f26150"/>
          <ellipse id="Elipse_1231" data-name="Elipse 1231" cx="7.81" cy="8.134" rx="7.81" ry="8.134" transform="translate(5.324 20.734) rotate(-89.68)" fill="#f26050"/>
          <ellipse id="Elipse_1232" data-name="Elipse 1232" cx="7.719" cy="8.039" rx="7.719" ry="8.039" transform="matrix(0.006, -1, 1, 0.006, 5.42, 20.644)" fill="#f15f4f"/>
          <ellipse id="Elipse_1233" data-name="Elipse 1233" cx="7.628" cy="7.944" rx="7.628" ry="7.944" transform="translate(5.514 20.553) rotate(-89.678)" fill="#f15e4e"/>
          <ellipse id="Elipse_1234" data-name="Elipse 1234" cx="7.538" cy="7.85" rx="7.538" ry="7.85" transform="matrix(0.006, -1, 1, 0.006, 5.609, 20.463)" fill="#f15d4d"/>
          <ellipse id="Elipse_1235" data-name="Elipse 1235" cx="7.447" cy="7.755" rx="7.447" ry="7.755" transform="matrix(0.006, -1, 1, 0.006, 5.704, 20.373)" fill="#f15c4d"/>
          <ellipse id="Elipse_1236" data-name="Elipse 1236" cx="7.356" cy="7.661" rx="7.356" ry="7.661" transform="translate(5.799 20.282) rotate(-89.677)" fill="#f05b4c"/>
          <ellipse id="Elipse_1237" data-name="Elipse 1237" cx="7.265" cy="7.566" rx="7.265" ry="7.566" transform="translate(5.895 20.193) rotate(-89.681)" fill="#f05a4b"/>
          <ellipse id="Elipse_1238" data-name="Elipse 1238" cx="7.174" cy="7.472" rx="7.174" ry="7.472" transform="translate(5.99 20.102) rotate(-89.681)" fill="#f0594b"/>
          <ellipse id="Elipse_1239" data-name="Elipse 1239" cx="7.083" cy="7.377" rx="7.083" ry="7.377" transform="translate(6.085 20.012) rotate(-89.679)" fill="#f0584a"/>
          <ellipse id="Elipse_1240" data-name="Elipse 1240" cx="6.993" cy="7.282" rx="6.993" ry="7.282" transform="translate(6.18 19.921) rotate(-89.678)" fill="#ef5749"/>
          <ellipse id="Elipse_1241" data-name="Elipse 1241" cx="6.902" cy="7.188" rx="6.902" ry="7.188" transform="translate(6.275 19.831) rotate(-89.679)" fill="#ef5649"/>
          <ellipse id="Elipse_1242" data-name="Elipse 1242" cx="6.811" cy="7.093" rx="6.811" ry="7.093" transform="translate(6.37 19.741) rotate(-89.678)" fill="#ef5548"/>
          <path id="Trazado_35627" data-name="Trazado 35627" d="M1108.732,295.7a6.726,6.726,0,1,0,6.864,6.851A6.873,6.873,0,0,0,1108.732,295.7Z" transform="translate(-1095.098 -289.449)" fill="#ef5447"/>
          <path id="Trazado_35628" data-name="Trazado 35628" d="M1108.906,295.96a6.635,6.635,0,1,0,6.771,6.758A6.78,6.78,0,0,0,1108.906,295.96Z" transform="translate(-1095.273 -289.618)" fill="#ee5346"/>
          <ellipse id="Elipse_1243" data-name="Elipse 1243" cx="6.539" cy="6.81" rx="6.539" ry="6.81" transform="matrix(0.006, -1, 1, 0.006, 6.655, 19.47)" fill="#ee5246"/>
          <ellipse id="Elipse_1244" data-name="Elipse 1244" cx="6.448" cy="6.715" rx="6.448" ry="6.715" transform="translate(6.75 19.38) rotate(-89.679)" fill="#ee5145"/>
        </g>
        <ellipse id="Elipse_1245" data-name="Elipse 1245" cx="9.86" cy="6.742" rx="9.86" ry="6.742" transform="translate(129.215 78.179) rotate(-72.483)" fill="#ff9677"/>
        <path id="Trazado_35629" data-name="Trazado 35629" d="M1061.73,307.632a7.961,7.961,0,0,1-9.641-.731,34.645,34.645,0,0,1-7.245,20.959c-5.054,6.719-15.893,8.875-23.93,8.523-19.174-.841-24.176-6.738-28.063-14.677,2.643,8.7,9.223,16.776,24.3,17.914,27.932,2.108,35.708-9.494,36.911-26.057a4.752,4.752,0,0,0,1.034.543c3.5,1.281,7.751-1.86,9.5-7.015a13.92,13.92,0,0,0,.736-3.928A8.67,8.67,0,0,1,1061.73,307.632Z" transform="translate(-919.646 -233.964)" fill="#ff8368"/>
        <path id="Trazado_35630" data-name="Trazado 35630" d="M1172.526,295.441l3.2.481a7.181,7.181,0,0,1,3.772-6.718C1173.422,286.961,1172.526,295.441,1172.526,295.441Z" transform="translate(-1036.61 -224.632)" fill="#ff8368"/>
        <path id="Trazado_35631" data-name="Trazado 35631" d="M1112.243,334.6a.151.151,0,0,0,0-.028Z" transform="translate(-997.364 -254.415)" fill="#7c302a"/>
        <path id="Trazado_35632" data-name="Trazado 35632" d="M1062.258,121.316c-2.1-3.725-5.785-3.9-8.847-3.207h0a3.512,3.512,0,0,0,.683-2.8c-2.023.3-2.5,1.253-2.5,1.253,1.469-2.647.487-6.271.487-6.271-3.958,2.238-3.584,5.389-3.584,5.389-1.91-4.061-7.856-5.351-7.856-5.351a6.268,6.268,0,0,0,.361,1.718c-9.764-6.54-24.162-7.146-24.162-7.146a7.483,7.483,0,0,0,1.014,3.134,93.505,93.505,0,0,0-14.278.49c-1.8,9.545.852,15.226,3.772,18.47-10.656,12.33-8.247,31.553-8.247,31.553,2.181-11.7,9.58-26.182,15.176-26.438a21.346,21.346,0,0,0,12.11,4.19c6.507.168,15.557-4.518,15.557-4.518,6.494-.115,13.807,20.024,14.585,36.226.178,3.707,3.42-.553,3.42-.553a85.811,85.811,0,0,0,.118-9.837C1060.078,157.573,1067.785,131.1,1062.258,121.316Z" transform="translate(-923.561 -104.901)" fill="url(#linear-gradient-5)"/>
        <path id="Trazado_35633" data-name="Trazado 35633" d="M999.955,154.968c-10.458,3.117-7.667,44.723-7.667,44.723,2.181-11.7,11.888-34.732,17.485-34.988A36.9,36.9,0,0,1,999.955,154.968Z" transform="translate(-919.059 -137.493)" fill="#59352c"/>
        <path id="Trazado_35634" data-name="Trazado 35634" d="M1131.323,147.668l.006,0C1131.345,147.669,1131.384,147.665,1131.323,147.668Z" transform="translate(-1009.788 -132.741)" fill="#fff" opacity="0.12"/>
        <path id="Trazado_35635" data-name="Trazado 35635" d="M1131.318,149h0Z" transform="translate(-1009.781 -133.608)" fill="#fff" opacity="0.12"/>
        <path id="Trazado_35636" data-name="Trazado 35636" d="M1065.995,126.864c-1.281.2-2.632.507-4.026.816a29.043,29.043,0,0,1-10.227.75c-3.953-.553-7.416-2.341-10.919-4.136-1.769-.906-3.532-1.828-5.355-2.622-3.9-1.7-8.512-3.372-12.828-3.254a18.108,18.108,0,0,0-6.2,1.493,13.361,13.361,0,0,0-4.44,2.931,12.454,12.454,0,0,0-1.208,1.4,22.022,22.022,0,0,0,.493,3.915c.136-.11.275-.222.426-.337a13.221,13.221,0,0,1,2.651-1.49,11.72,11.72,0,0,1,3.541-.877c5.137-.365,9.893,1.722,14.518,3.663,1.894.795,3.819,1.719,5.856,2.576a63.524,63.524,0,0,0,6.366,2.405,22.685,22.685,0,0,0,12.112.5c.515-.14,1.025-.257,1.52-.406a34.484,34.484,0,0,0,5.175-2.156c1.489-.756,2.763-1.446,3.887-1.965a14.039,14.039,0,0,1,2.106-.83A6.337,6.337,0,0,0,1065.995,126.864Z" transform="translate(-931.322 -113.698)" fill="#ffb980" opacity="0.11"/>
        <path id="Trazado_35637" data-name="Trazado 35637" d="M1131.1,147.681h.023Z" transform="translate(-1009.646 -132.748)" fill="#fff" opacity="0.12"/>
        <path id="Trazado_35638" data-name="Trazado 35638" d="M1047.831,283.438c-1.792,17.863-19.912,20.122-20.082,19.841,4.377,4.366,1.017,11.617-4.558,9.191-1.884-.82-3.772-2.73-7.832-2.827a12.689,12.689,0,0,0-7.635,2.382c-4.561,2.537-10.088-1.732-4.561-9.867,0,0-6.173-1.315-8.057-2.357-3.59-1.985-5.356-6.06-6.224-9.884a31.309,31.309,0,0,1-.691-4.8,7.262,7.262,0,0,1-.066-2.015c-4.39,17.424-7.516,45.64,29.192,45.258s32.4-28.328,32.4-28.328c-1.726-6.2,1.569-16.573,1.569-16.573Z" transform="translate(-914.897 -220.908)" fill="#59352c"/>
        <g id="Grupo_19152" data-name="Grupo 19152" transform="translate(88.905 81.84)">
          <path id="Trazado_35639" data-name="Trazado 35639" d="M1058.989,343.239c-2.031-1.47-5.525-3.908-10.211-3.854a16.766,16.766,0,0,0-10.342,4.3,1.766,1.766,0,0,0-.072,2.586l.149.146a1.757,1.757,0,0,0,2.285.162,14.255,14.255,0,0,1,8.074-2.921,14,14,0,0,1,8.006,2.514,1.777,1.777,0,0,0,2.3-.223l.058-.061A1.764,1.764,0,0,0,1058.989,343.239Z" transform="translate(-1037.835 -339.384)" fill="#fa7258"/>
        </g>
        <path id="Trazado_35640" data-name="Trazado 35640" d="M1033.944,317.6s-4.2-1.812-10.526,1.856c-4.842,2.806-6.685,8.93-6.685,8.93s6.7,1.4,17.961-2.545c11.209,5.345,20.053,2.987,20.053,2.987S1050.62,315.376,1033.944,317.6Z" transform="translate(-935.193 -243.072)" fill="#59352c"/>
        <path id="Trazado_35641" data-name="Trazado 35641" d="M1062.906,365.965c-2.388-.014-4.33,1.129-4.337,2.552s1.921,2.587,4.309,2.6,4.33-1.129,4.337-2.552S1065.294,365.978,1062.906,365.965Z" transform="translate(-962.427 -274.847)" opacity="0.16"/>
        <path id="Trazado_35642" data-name="Trazado 35642" d="M1072.3,229.464c-.842-.2-2.911,5.4-2.783,8.124,0,0-1.032-5.461-1.692-5.316s.249,7.337,1.479,7.889S1073.142,229.667,1072.3,229.464Z" transform="translate(-968.308 -185.985)" fill="#ff8468" opacity="0.69"/>
        <path id="Trazado_35643" data-name="Trazado 35643" d="M1012.062,253.913a14.936,14.936,0,0,0-1.49,7.717s4.588,4.075,6.488,4.241c1.8.157,7.749-1.719,7.749-1.719,4.6-7.859,3.139-13.652,3.139-13.652C1023.8,249.174,1012.062,253.913,1012.062,253.913Z" transform="translate(-931.145 -199.531)" fill="#ff8468" opacity="0.7"/>
        <path id="Trazado_35644" data-name="Trazado 35644" d="M1095.634,249.194l-2.416-4.486c-3.391,7.709,1.351,15.418,1.351,15.418l15.135-.006a7.029,7.029,0,0,0,.066-8.014C1107.452,248.461,1095.634,249.194,1095.634,249.194Z" transform="translate(-984.187 -195.912)" fill="#ff8468" opacity="0.7"/>
        <path id="Trazado_35645" data-name="Trazado 35645" d="M1017.583,247.533a5.2,5.2,0,0,0-2.87,2.234c8.564,1.661,13.861.722,15.4-1.177,1.791-2.214-.246-6.153-.246-6.153C1026.042,246.1,1022.022,245.868,1017.583,247.533Z" transform="translate(-933.878 -194.434)" fill="url(#linear-gradient-6)"/>
        <path id="Trazado_35646" data-name="Trazado 35646" d="M1107.284,249.685c-4.438-1.666-9.8-1.317-13.62-4.977,0,0-2.036,3.939-.246,6.153,1.536,1.9,8.235,2.906,16.8,1.245A5.346,5.346,0,0,0,1107.284,249.685Z" transform="translate(-984.633 -195.912)" fill="url(#linear-gradient-7)"/>
        <path id="Trazado_35647" data-name="Trazado 35647" d="M1027.688,151s0-.058-.018-.155C1027.68,150.949,1027.688,151,1027.688,151Z" transform="translate(-942.313 -134.812)" fill="#3e1208"/>
        <path id="Trazado_35648" data-name="Trazado 35648" d="M1112.821,153.1l.006,0C1112.842,153.1,1112.881,153.094,1112.821,153.1Z" transform="translate(-997.744 -136.275)" fill="#fff" opacity="0.12"/>
        <path id="Trazado_35649" data-name="Trazado 35649" d="M1112.838,155h0Z" transform="translate(-997.75 -137.514)" fill="#fff" opacity="0.12"/>
        <path id="Trazado_35650" data-name="Trazado 35650" d="M1112.606,153.119l.023,0h0Z" transform="translate(-997.604 -136.288)" fill="#fff" opacity="0.12"/>
        <path id="Trazado_35651" data-name="Trazado 35651" d="M1028.545,182.078s.406-.1.332-1.408-12.008-3.881-12.008-3.881l-28.082,16.173a137.5,137.5,0,0,0-4.989,19.78,4.664,4.664,0,0,0-.974.2c-2.651.857-4.226,3.959-4.2,7.653,9.894-8.579,20.822-12.824,25.52-19.437,2.125-2.991,18.986.6,22.475-.7s3.291-5.323,3.291-5.323a35.385,35.385,0,0,0,2.3-3.485,4.62,4.62,0,0,0,.062-2.441s2.127-1.859,1.782-2.913C1033.377,184.244,1028.545,182.078,1028.545,182.078Z" transform="translate(-910.383 -151.698)" fill="#5c0000" opacity="0.2"/>
        <path id="Trazado_35652" data-name="Trazado 35652" d="M1016.994,177.67a36.475,36.475,0,0,0-5.051-2.794s1.665-2.042.806-3.224-13.756-5.589-16.12-5.7-16.872,1.719-18.807,2.686-21.459,23.437-21.459,23.437l9.691,14.768s.806-.1,1.887-1.623,4.077-1.01,9.075-4.019,9.188-9.672,12.144-10.586,17.625,1.558,21.6,0,2.257-4.03,2.257-4.03c.913-.161,3.116-1.343,3.17-2.74a2.192,2.192,0,0,0-1.075-1.988C1017.531,181.324,1018.337,178.745,1016.994,177.67Z" transform="translate(-895.893 -144.644)" fill="#ff9677"/>
        <path id="Trazado_35653" data-name="Trazado 35653" d="M1048.229,177.67a36.468,36.468,0,0,0-5.051-2.794s1.666-2.042.806-3.224-13.756-5.589-16.12-5.7a129.708,129.708,0,0,0-16.786,2.119l16.535-1.76a34.862,34.862,0,0,1,15.046,5.23,1.154,1.154,0,0,1-.215,2.149c-.5.072-11.607-4.872-12.323-5.015s-14.4.788-14.4.788l.43.86s12.681-.573,13.613-.5,16.739,6.743,17.625,8.167a1.656,1.656,0,0,1-1.218,2.579c-.932.215-15.69-5.875-16.908-6.161s-11.391,0-11.391,0l.143,1.433s9.959-.072,10.6,0,16.837,5.23,17.7,6.806a2.04,2.04,0,0,1-1.719,2.937c-1.075.072-12.323-3.94-13.9-4.084s-13.756-.5-13.756-.5l-.405,1.146s25.553,3.8,26.126,4.252.716,1.05,0,2.125-24.933-3.152-24.933-3.152c-3.081,6.241-10.235,15.362-13.38,17.863a29.152,29.152,0,0,0,3.906-2.03c5-3.009,9.188-9.672,12.144-10.586s17.625,1.558,21.6,0,2.257-4.03,2.257-4.03c.913-.161,3.116-1.343,3.17-2.74a2.192,2.192,0,0,0-1.075-1.988C1048.767,181.324,1049.573,178.744,1048.229,177.67Z" transform="translate(-927.129 -144.643)" fill="#ff8368"/>
        <path id="Trazado_35654" data-name="Trazado 35654" d="M1017.377,284.839c-5.036-.348-6.726-3.7-6.726-3.7s-.374,6.5,6.066,6.776a9,9,0,0,0,9.581-6.561A12.287,12.287,0,0,1,1017.377,284.839Z" transform="translate(-931.231 -219.628)" fill="#3e1208"/>
        <path id="Trazado_35655" data-name="Trazado 35655" d="M1102.624,283.471c-6.3-1.01-7.917-5.2-7.917-5.2s-.579,7.345,7.012,8.221a9.616,9.616,0,0,0,10.092-5.163S1107.249,284.211,1102.624,283.471Z" transform="translate(-985.945 -217.758)" fill="#3e1208"/>
        <path id="Trazado_35656" data-name="Trazado 35656" d="M880.611,412.89c-2.041,3.957-5.542,10.7-7.777,14.773l2.447,1.344c2.465-4.49,6.451-12.194,8.358-15.9Z" transform="translate(-841.518 -305.395)" fill="#ff8368"/>
        <path id="Trazado_35657" data-name="Trazado 35657" d="M894.936,412.308l3.538.255a54.229,54.229,0,0,1-1.787,19.558,43.424,43.424,0,0,1-7.9,16.018l-4.048-1.216a28.463,28.463,0,0,0,1.246,2.911c.184.131,5.007,1.5,5.443,1.548,0,0,6.608-6.291,10.011-17.938a53.213,53.213,0,0,0,1.861-21.029l-1.338-.9-4.93-.247Z" transform="translate(-849.27 -304.338)" fill="#ffeadd"/>
        <path id="Trazado_35658" data-name="Trazado 35658" d="M940.535,524.867l2.326.668.461-4.668-2.463-.171Z" transform="translate(-885.59 -375.574)" fill="#fac2a4"/>
        <path id="Trazado_35659" data-name="Trazado 35659" d="M1051.841,275.684a37.741,37.741,0,0,1-.595,4.273,4.386,4.386,0,0,1-2.116,3.144c-2.554,1.255-5.976,2.62-5.871,6.062.1,3.349,3.94,4.692,6.758,4.9a8.933,8.933,0,0,0,7.615-2.988c3.687-4.729-.286-11.146-2.954-15.331C1053.732,275.717,1052.787,275.694,1051.841,275.684Z" transform="translate(-952.459 -216.077)" fill="url(#linear-gradient-8)"/>
        <path id="Trazado_35660" data-name="Trazado 35660" d="M1043.563,316.389c.623,2.782,4.064,3.936,6.653,4.132a8.933,8.933,0,0,0,7.615-2.988,7.1,7.1,0,0,0,.761-1.212C1056.353,317.939,1045.93,318.5,1043.563,316.389Z" transform="translate(-952.658 -242.531)" fill="#d13f33" opacity="0.35"/>
        <path id="Trazado_35661" data-name="Trazado 35661" d="M1058.588,289.778c-.2,1.048-.889,2.363-2.981,3.486-2.487,1.335-2.44,3.419.466,3.608s3.94-.982,4.347-6.494C1060.613,287.744,1058.721,289.062,1058.588,289.778Z" transform="translate(-959.331 -224.62)" fill="#fff" opacity="0.16"/>
      </g>
    </g>
    <path id="Trazado_35757" data-name="Trazado 35757" d="M47.6,6.361A5.308,5.308,0,0,1,51.667,8a5.711,5.711,0,0,1,1.538,4.059A5.571,5.571,0,0,1,51.679,16.1,5.4,5.4,0,0,1,47.6,17.677H43.928V24H40.266V6.361Zm-.61,8.252a2.691,2.691,0,0,0,2.014-.69,2.623,2.623,0,0,0,.671-1.91A2.6,2.6,0,0,0,49,10.127a2.667,2.667,0,0,0-2.008-.7H43.928v5.188Zm20.2,2.93-.037.842h-9.3a3.249,3.249,0,0,0,1,2.295,3.2,3.2,0,0,0,2.209.793,3.085,3.085,0,0,0,1.654-.433,2.664,2.664,0,0,0,1.056-1.263L67,20.252a5.479,5.479,0,0,1-2.2,2.942,6.533,6.533,0,0,1-3.711,1.05A6.794,6.794,0,0,1,56.2,22.517a6.3,6.3,0,0,1-1.813-4.791,6.34,6.34,0,0,1,1.819-4.791,6.592,6.592,0,0,1,4.773-1.752,6.3,6.3,0,0,1,4.5,1.6A6.273,6.273,0,0,1,67.194,17.542Zm-6.189-3.87a2.778,2.778,0,0,0-3.052,2.417h5.762a2.643,2.643,0,0,0-.867-1.794A2.747,2.747,0,0,0,61.005,13.673Zm12.231-.232a4.074,4.074,0,0,1,1.648-1.508,5.028,5.028,0,0,1,2.454-.629v3.137a4.754,4.754,0,0,0-3,.757,3.3,3.3,0,0,0-.928,2.686V24h-3.54V11.451h3.369Zm10.583,10.8a7.013,7.013,0,0,1-3.662-.879,3.715,3.715,0,0,1-1.794-2.612l2.942-.83a2.364,2.364,0,0,0,2.515,1.868A2.6,2.6,0,0,0,85.1,21.5a1,1,0,0,0,.5-.97,1.027,1.027,0,0,0-.208-.647,1.644,1.644,0,0,0-.641-.464,7.984,7.984,0,0,0-.854-.33q-.421-.134-1.117-.323t-1.16-.36a7.768,7.768,0,0,1-1.1-.47,4.712,4.712,0,0,1-.916-.647,2.608,2.608,0,0,1-.684-.983,3.545,3.545,0,0,1-.238-1.343,3.206,3.206,0,0,1,1.361-2.808,6.081,6.081,0,0,1,3.558-.952,6.235,6.235,0,0,1,3.284.806,3.646,3.646,0,0,1,1.685,2.515l-2.722.61a2.132,2.132,0,0,0-2.234-1.587,2.446,2.446,0,0,0-1.233.281.9.9,0,0,0-.488.83.951.951,0,0,0,.073.378.749.749,0,0,0,.256.305,3.739,3.739,0,0,0,.354.232,2.671,2.671,0,0,0,.5.2q.33.1.549.159t.641.165l.653.171q.671.183,1.178.366a6.9,6.9,0,0,1,1.08.513,3.877,3.877,0,0,1,.946.739,3.294,3.294,0,0,1,.616,1.038,3.832,3.832,0,0,1,.244,1.4,3.775,3.775,0,0,1-.421,1.819,3.161,3.161,0,0,1-1.154,1.227,5.615,5.615,0,0,1-1.63.659A8.454,8.454,0,0,1,83.82,24.244Zm13.538,0a7.891,7.891,0,0,1-3.552-.769,5.748,5.748,0,0,1-2.435-2.258,6.73,6.73,0,0,1-.885-3.5,6.138,6.138,0,0,1,1.9-4.761,7.96,7.96,0,0,1,9.949,0,6.138,6.138,0,0,1,1.9,4.761,6.173,6.173,0,0,1-1.9,4.779A7.067,7.067,0,0,1,97.358,24.244Zm-.037-2.8a3.221,3.221,0,0,0,2.484-1.025,3.838,3.838,0,0,0,.946-2.71A3.838,3.838,0,0,0,99.805,15a3.221,3.221,0,0,0-2.484-1.025A3.1,3.1,0,0,0,94.91,15.01a3.874,3.874,0,0,0-.934,2.7,3.874,3.874,0,0,0,.934,2.7A3.1,3.1,0,0,0,97.321,21.449Zm16.943-10.242a4.892,4.892,0,0,1,3.467,1.129,4.187,4.187,0,0,1,1.208,3.217V24h-3.528V16.31a2.186,2.186,0,0,0-.629-1.733,2.369,2.369,0,0,0-1.617-.549,3.3,3.3,0,0,0-1.05.159,2.7,2.7,0,0,0-.879.494,2.185,2.185,0,0,0-.629.946,4.375,4.375,0,0,0-.238,1.453V24h-3.516V11.451h3.516v1.392A4.835,4.835,0,0,1,114.265,11.207Zm18.372,9.387a11.74,11.74,0,0,0,.305,3.064V24h-3.284l-.281-1.367a4.08,4.08,0,0,1-1.758,1.208,6.478,6.478,0,0,1-2.271.4,5.97,5.97,0,0,1-1.172-.11,3.984,3.984,0,0,1-1.056-.372,3.2,3.2,0,0,1-.873-.653,2.864,2.864,0,0,1-.586-.995,3.963,3.963,0,0,1-.22-1.361,3.774,3.774,0,0,1,.232-1.361,3.19,3.19,0,0,1,.61-1.019,3.7,3.7,0,0,1,.989-.745,7.565,7.565,0,0,1,1.245-.537,14.878,14.878,0,0,1,1.489-.391l2.063-.464a2.275,2.275,0,0,0,.934-.4.791.791,0,0,0,.275-.629A1.3,1.3,0,0,0,128.663,14a2.878,2.878,0,0,0-1.5-.366,2.152,2.152,0,0,0-2.454,1.917l-3.113-.562a4.214,4.214,0,0,1,1.819-2.863,7.229,7.229,0,0,1,3.943-.922q5.273,0,5.273,4.529Zm-6.189,1.27a2.827,2.827,0,0,0,2.173-.909,3.832,3.832,0,0,0,.842-2.692l-2.979.842a3.52,3.52,0,0,0-1.251.513,1.053,1.053,0,0,0-.433.9,1.169,1.169,0,0,0,.464.995A1.92,1.92,0,0,0,126.447,21.864Zm14.026,2.38a7.013,7.013,0,0,1-3.662-.879,3.715,3.715,0,0,1-1.794-2.612l2.942-.83a2.364,2.364,0,0,0,2.515,1.868,2.6,2.6,0,0,0,1.282-.287,1,1,0,0,0,.5-.97,1.027,1.027,0,0,0-.208-.647,1.644,1.644,0,0,0-.641-.464,7.984,7.984,0,0,0-.854-.33q-.421-.134-1.117-.323t-1.16-.36a7.768,7.768,0,0,1-1.1-.47,4.712,4.712,0,0,1-.916-.647,2.608,2.608,0,0,1-.684-.983,3.545,3.545,0,0,1-.238-1.343,3.206,3.206,0,0,1,1.361-2.808,6.081,6.081,0,0,1,3.558-.952,6.235,6.235,0,0,1,3.284.806,3.646,3.646,0,0,1,1.685,2.515l-2.722.61a2.132,2.132,0,0,0-2.234-1.587,2.446,2.446,0,0,0-1.233.281.9.9,0,0,0-.488.83.951.951,0,0,0,.073.378.749.749,0,0,0,.256.305,3.738,3.738,0,0,0,.354.232,2.671,2.671,0,0,0,.5.2q.33.1.549.159t.641.165l.653.171q.671.183,1.178.366a6.9,6.9,0,0,1,1.08.513,3.877,3.877,0,0,1,.946.739,3.294,3.294,0,0,1,.616,1.038,3.832,3.832,0,0,1,.244,1.4,3.775,3.775,0,0,1-.421,1.819,3.161,3.161,0,0,1-1.154,1.227,5.615,5.615,0,0,1-1.63.659A8.454,8.454,0,0,1,140.473,24.244Zm19.861-.012a6.7,6.7,0,0,1-4.846-1.807,6.24,6.24,0,0,1-1.88-4.712A6.226,6.226,0,0,1,155.482,13a7.45,7.45,0,0,1,8.917-.586,5.4,5.4,0,0,1,2.1,3.406l-3.247.354a2.782,2.782,0,0,0-1.05-1.648,3.192,3.192,0,0,0-1.9-.549A2.878,2.878,0,0,0,158,15a4.02,4.02,0,0,0-.879,2.71,4.025,4.025,0,0,0,.879,2.7,2.871,2.871,0,0,0,2.295,1.031,3.164,3.164,0,0,0,1.9-.549,2.847,2.847,0,0,0,1.056-1.648l3.247.354a5.41,5.41,0,0,1-2.118,3.406A6.659,6.659,0,0,1,160.334,24.232Zm14.514.012a7.891,7.891,0,0,1-3.552-.769,5.748,5.748,0,0,1-2.435-2.258,6.73,6.73,0,0,1-.885-3.5,6.138,6.138,0,0,1,1.9-4.761,7.96,7.96,0,0,1,9.949,0,6.138,6.138,0,0,1,1.9,4.761,6.173,6.173,0,0,1-1.9,4.779A7.067,7.067,0,0,1,174.848,24.244Zm-.037-2.8a3.221,3.221,0,0,0,2.484-1.025,3.838,3.838,0,0,0,.946-2.71A3.838,3.838,0,0,0,177.3,15a3.221,3.221,0,0,0-2.484-1.025A3.1,3.1,0,0,0,172.4,15.01a3.874,3.874,0,0,0-.934,2.7,3.874,3.874,0,0,0,.934,2.7A3.1,3.1,0,0,0,174.812,21.449Zm16.943-10.242a4.892,4.892,0,0,1,3.467,1.129,4.187,4.187,0,0,1,1.208,3.217V24H192.9V16.31a2.186,2.186,0,0,0-.629-1.733,2.369,2.369,0,0,0-1.617-.549,3.3,3.3,0,0,0-1.05.159,2.7,2.7,0,0,0-.879.494,2.185,2.185,0,0,0-.629.946,4.375,4.375,0,0,0-.238,1.453V24h-3.516V11.451h3.516v1.392A4.835,4.835,0,0,1,191.755,11.207ZM32,54.232a6.7,6.7,0,0,1-4.846-1.807,6.24,6.24,0,0,1-1.88-4.712A6.226,6.226,0,0,1,27.149,43,6.725,6.725,0,0,1,32,41.207a6.687,6.687,0,0,1,4.065,1.208,5.4,5.4,0,0,1,2.1,3.406l-3.247.354a2.782,2.782,0,0,0-1.05-1.648,3.192,3.192,0,0,0-1.9-.549A2.878,2.878,0,0,0,29.67,45a4.608,4.608,0,0,0,0,5.414,2.871,2.871,0,0,0,2.295,1.031,3.164,3.164,0,0,0,1.9-.549,2.847,2.847,0,0,0,1.056-1.648l3.247.354a5.41,5.41,0,0,1-2.118,3.406A6.659,6.659,0,0,1,32,54.232Zm14.514.012a7.891,7.891,0,0,1-3.552-.769,5.748,5.748,0,0,1-2.435-2.258,6.73,6.73,0,0,1-.885-3.5,6.138,6.138,0,0,1,1.9-4.761,7.065,7.065,0,0,1,4.968-1.746,7.082,7.082,0,0,1,4.98,1.746,6.138,6.138,0,0,1,1.9,4.761,6.173,6.173,0,0,1-1.9,4.779A7.067,7.067,0,0,1,46.516,54.244Zm-.037-2.8a3.221,3.221,0,0,0,2.484-1.025,4.354,4.354,0,0,0,0-5.42,3.221,3.221,0,0,0-2.484-1.025,3.1,3.1,0,0,0-2.411,1.031,4.381,4.381,0,0,0,0,5.408A3.1,3.1,0,0,0,46.479,51.449Zm24.4-10.242a4.8,4.8,0,0,1,3.235,1.019A3.647,3.647,0,0,1,75.3,45.15V54H71.784V46.151a2.1,2.1,0,0,0-.562-1.587,1.967,1.967,0,0,0-1.416-.537,2.268,2.268,0,0,0-1.709.684,3.1,3.1,0,0,0-.659,2.209V54H63.886V46.188a2.152,2.152,0,0,0-.562-1.617,2,2,0,0,0-1.453-.543,2.2,2.2,0,0,0-1.7.72,3.439,3.439,0,0,0-.659,2.356V54h-3.5V41.451h3.5v1.477a4.267,4.267,0,0,1,3.638-1.721,5.366,5.366,0,0,1,2.362.482A3.215,3.215,0,0,1,67,43.087,4.437,4.437,0,0,1,70.881,41.207ZM84.565,54.244a7.891,7.891,0,0,1-3.552-.769,5.748,5.748,0,0,1-2.435-2.258,6.73,6.73,0,0,1-.885-3.5,6.138,6.138,0,0,1,1.9-4.761,7.96,7.96,0,0,1,9.949,0,6.138,6.138,0,0,1,1.9,4.761,6.173,6.173,0,0,1-1.9,4.779A7.067,7.067,0,0,1,84.565,54.244Zm-.037-2.8a3.221,3.221,0,0,0,2.484-1.025,4.354,4.354,0,0,0,0-5.42,3.221,3.221,0,0,0-2.484-1.025,3.1,3.1,0,0,0-2.411,1.031,4.381,4.381,0,0,0,0,5.408A3.1,3.1,0,0,0,84.528,51.449Zm12.9-8.008a4.074,4.074,0,0,1,1.648-1.508,5.028,5.028,0,0,1,2.454-.629v3.137a4.754,4.754,0,0,0-3,.757,3.3,3.3,0,0,0-.928,2.686V54h-3.54V41.451h3.369Zm13.538-2.234a6.072,6.072,0,0,1,2.332.452A5.645,5.645,0,0,1,116.523,45a8.161,8.161,0,0,1,0,5.493,5.645,5.645,0,0,1-3.223,3.345,6.072,6.072,0,0,1-2.332.452,5.42,5.42,0,0,1-2.374-.507,3.509,3.509,0,0,1-1.581-1.422L106.928,54H103.6V35.25h3.516v7.727a3.5,3.5,0,0,1,1.569-1.306A5.518,5.518,0,0,1,110.969,41.207Zm-.818,10.168a3.163,3.163,0,0,0,2.386-.989,4.164,4.164,0,0,0,0-5.286,3.163,3.163,0,0,0-2.386-.989,3.126,3.126,0,0,0-2.368,1.007,4.112,4.112,0,0,0-.006,5.255A3.13,3.13,0,0,0,110.151,51.375Zm11.292-11.8a1.974,1.974,0,0,1-1.44-.592,1.943,1.943,0,0,1-.6-1.434,1.92,1.92,0,0,1,.6-1.422,1.98,1.98,0,0,1,1.434-.592,2.02,2.02,0,0,1,0,4.041ZM119.648,54V41.451h3.54V54Zm7.178,0V35.25h3.552V54Zm8.984-14.429a1.974,1.974,0,0,1-1.44-.592,1.943,1.943,0,0,1-.6-1.434,1.92,1.92,0,0,1,.6-1.422,1.98,1.98,0,0,1,1.434-.592,2.02,2.02,0,0,1,0,4.041ZM134.016,54V41.451h3.54V54Zm16.077-18.75h3.516V54h-3.333l-.085-1.636a3.584,3.584,0,0,1-1.593,1.422,5.362,5.362,0,0,1-2.35.507,6.1,6.1,0,0,1-2.344-.452,5.645,5.645,0,0,1-3.223-3.345,7.633,7.633,0,0,1-.476-2.747,7.134,7.134,0,0,1,.83-3.5,5.688,5.688,0,0,1,2.191-2.277,6.034,6.034,0,0,1,3.021-.769,5.5,5.5,0,0,1,2.277.458,3.554,3.554,0,0,1,1.569,1.3Zm-3.04,16.125a3.13,3.13,0,0,0,2.374-1,4.112,4.112,0,0,0-.006-5.255,3.126,3.126,0,0,0-2.368-1.007,3.163,3.163,0,0,0-2.386.989,4.164,4.164,0,0,0,0,5.286A3.163,3.163,0,0,0,147.053,51.375Zm20.483-.781a11.74,11.74,0,0,0,.305,3.064V54h-3.284l-.281-1.367a4.08,4.08,0,0,1-1.758,1.208,6.478,6.478,0,0,1-2.271.4,5.97,5.97,0,0,1-1.172-.11,3.984,3.984,0,0,1-1.056-.372,3.2,3.2,0,0,1-.873-.653,2.864,2.864,0,0,1-.586-.995,3.963,3.963,0,0,1-.22-1.361,3.775,3.775,0,0,1,.232-1.361,3.19,3.19,0,0,1,.61-1.019,3.7,3.7,0,0,1,.989-.745,7.566,7.566,0,0,1,1.245-.537,14.877,14.877,0,0,1,1.489-.391l2.063-.464a2.275,2.275,0,0,0,.934-.4.791.791,0,0,0,.275-.629A1.3,1.3,0,0,0,163.563,44a2.878,2.878,0,0,0-1.5-.366,2.152,2.152,0,0,0-2.454,1.917l-3.113-.562a4.214,4.214,0,0,1,1.819-2.863,7.229,7.229,0,0,1,3.943-.922q5.273,0,5.273,4.529Zm-6.189,1.27a2.827,2.827,0,0,0,2.173-.909,3.832,3.832,0,0,0,.842-2.692l-2.979.842a3.52,3.52,0,0,0-1.251.513,1.053,1.053,0,0,0-.433.9,1.169,1.169,0,0,0,.464.995A1.92,1.92,0,0,0,161.347,51.864ZM179.572,35.25h3.516V54h-3.333l-.085-1.636a3.584,3.584,0,0,1-1.593,1.422,5.362,5.362,0,0,1-2.35.507,6.1,6.1,0,0,1-2.344-.452,5.645,5.645,0,0,1-3.223-3.345,7.633,7.633,0,0,1-.476-2.747,7.134,7.134,0,0,1,.83-3.5,5.688,5.688,0,0,1,2.191-2.277,6.034,6.034,0,0,1,3.021-.769,5.5,5.5,0,0,1,2.277.458,3.554,3.554,0,0,1,1.569,1.3Zm-3.04,16.125a3.13,3.13,0,0,0,2.374-1,4.112,4.112,0,0,0-.006-5.255,3.126,3.126,0,0,0-2.368-1.007,3.163,3.163,0,0,0-2.386.989,4.164,4.164,0,0,0,0,5.286A3.163,3.163,0,0,0,176.533,51.375Zm22-3.833-.037.842h-9.3a3.249,3.249,0,0,0,1,2.295,3.2,3.2,0,0,0,2.209.793,3.085,3.085,0,0,0,1.654-.433,2.664,2.664,0,0,0,1.056-1.263l3.223.476a5.479,5.479,0,0,1-2.2,2.942,6.533,6.533,0,0,1-3.711,1.05,6.794,6.794,0,0,1-4.889-1.727,6.3,6.3,0,0,1-1.813-4.791,6.34,6.34,0,0,1,1.819-4.791,6.592,6.592,0,0,1,4.773-1.752,5.744,5.744,0,0,1,6.213,6.36Zm-6.189-3.87a2.778,2.778,0,0,0-3.052,2.417h5.762a2.643,2.643,0,0,0-.867-1.794A2.747,2.747,0,0,0,192.341,43.673Zm13.281,10.571a7.013,7.013,0,0,1-3.662-.879,3.715,3.715,0,0,1-1.794-2.612l2.942-.83a2.364,2.364,0,0,0,2.515,1.868A2.6,2.6,0,0,0,206.9,51.5a1,1,0,0,0,.5-.97,1.027,1.027,0,0,0-.208-.647,1.644,1.644,0,0,0-.641-.464,7.984,7.984,0,0,0-.854-.33q-.421-.134-1.117-.323t-1.16-.36a7.768,7.768,0,0,1-1.1-.47,4.712,4.712,0,0,1-.916-.647,2.608,2.608,0,0,1-.684-.983,3.545,3.545,0,0,1-.238-1.343,3.206,3.206,0,0,1,1.361-2.808,6.081,6.081,0,0,1,3.558-.952,6.235,6.235,0,0,1,3.284.806,3.646,3.646,0,0,1,1.685,2.515l-2.722.61a2.132,2.132,0,0,0-2.234-1.587,2.446,2.446,0,0,0-1.233.281.9.9,0,0,0-.488.83.951.951,0,0,0,.073.378.749.749,0,0,0,.256.305,3.738,3.738,0,0,0,.354.232,2.671,2.671,0,0,0,.5.2q.33.1.549.159t.641.165l.653.171q.671.183,1.178.366a6.9,6.9,0,0,1,1.08.513,3.877,3.877,0,0,1,.946.739,3.294,3.294,0,0,1,.616,1.038,3.832,3.832,0,0,1,.244,1.4,3.775,3.775,0,0,1-.421,1.819,3.161,3.161,0,0,1-1.154,1.227,5.615,5.615,0,0,1-1.63.659A8.454,8.454,0,0,1,205.622,54.244Z" transform="translate(2585 -2324)" fill="#fff"/>
  </g>
</svg>
