<svg xmlns="http://www.w3.org/2000/svg" width="371.605" height="319.312" viewBox="0 0 371.605 319.312">
  <g id="Grupo_17410" data-name="Grupo 17410" transform="translate(-774 -12224.604)">
    <g id="Grupo_10603" data-name="Grupo 10603" transform="translate(766.5 12173.052)">
      <path id="Trazado_20520" data-name="Trazado 20520" d="M247.667,420.83l29.187-.386,114.782-58.3-10.188-13.429L277.625,395.758Z" transform="translate(-51.46 -66.452)" fill="#a30d11"/>
      <path id="Trazado_20521" data-name="Trazado 20521" d="M234.344,87.2h-2.729a33.54,33.54,0,0,0-33.441,33.441V157.8A13.368,13.368,0,0,0,211.5,171.131h41.05A15.277,15.277,0,0,0,267.785,155.9V120.641A33.539,33.539,0,0,0,234.344,87.2Z" transform="translate(-40.149 -6.685)" fill="#ec1c24"/>
      <path id="Trazado_20522" data-name="Trazado 20522" d="M248.077,135.832A34.679,34.679,0,0,1,213.5,101.255V94.172a33.479,33.479,0,0,0-15.327,28.063V159.4A13.368,13.368,0,0,0,211.5,172.724h41.05a15.277,15.277,0,0,0,15.232-15.232V135.832Z" transform="translate(-40.149 -8.279)" fill="#be151b"/>
      <path id="Trazado_20523" data-name="Trazado 20523" d="M44.11,302.738,53.834,312l291.28,16.671,24.08-111.6-12.5-14.819Z" transform="translate(-4.939 -32.979)" fill="#a30d11"/>
      <path id="Trazado_20524" data-name="Trazado 20524" d="M22.5,221.7l16.671,81.04,290.817,12.5,21.765-112.992Z" transform="translate(0 -32.979)" fill="#ec1c24"/>
      <g id="Grupo_10601" data-name="Grupo 10601" transform="translate(42.819 190.602)">
        <path id="Trazado_20525" data-name="Trazado 20525" d="M93.93,241.361l-.113,0-.008.076-.113,0-.009.076-.113,0-.008.076-.113,0-.009.076-.113,0-.008.076-.114,0-.008.076-.113,0-.008.076-.114,0-.008.076-.113,0-.008.076-.114,0-.008.076-.113,0-.008.076-.114,0-.008.076-.113,0-.009.076-.113,0-.008.076-.113,0-.009.076-.113,0-.008.076-.113,0-.009.076-.113,0-.008.076-.113,0-.009.076-.113,0-.008.076-.114,0-.008.076-.113,0-.008.076-.114,0-.008.076-.113,0L91,243.28l-.114,0-.008.076-.113,0-.009.076-.113,0-.008.076-.113,0-.009.076-.113,0-.008.076-.113,0-.009.076-.113,0-.008.076-.113,0-.009.076-.113,0-.008.076-.114,0-.008.076-.113,0-.008.076-.114,0-.008.076-.113,0-.008.076-.114,0-.008.076-.113,0-.008.076-.114,0-.008.076-.113,0-2.053,17.883-2.569-20.8-9.22.342v.076l-.122,0v.076l-.123,0v.076l-.123,0v.076l-.122,0v.076l-.123,0v.076l-.122,0v.075l-.123,0v.076l-.122,0v.076l-.123,0v.075l-.122,0v.076l-.123,0v.076l-.122,0v.076l-.123,0v.076l-.122,0v.076l-.123,0v.076l-.122,0v.076l-.123,0v.075l-.123,0v.076l-.122,0v.076l-.123,0v.075l-.122,0v.076l-.123,0v.076l-.122,0v.075l-.123,0v.076l-.122,0v.076l-.123,0v.075l-.122,0v.076l-.123,0v.076l-.122,0v.076l-.123,0v.076l-.123,0v.076l-.122,0v.076l-.053,0v-2.489l-17.264.642v.075l-.123,0v.076l-.122,0v.076l-.123,0v.075l-.122,0v.076l-.123,0v.076l-.122,0v.075l-.123,0v.076l-.123,0v.076l-.122,0v.075l-.123,0v.076l-.122,0v.076l-.123,0v.076l-.122,0v.076l-.123,0v.076l-.122,0v.075l-.123,0v.076l-.122,0v.076l-.123,0v.075l-.122,0v.076l-.123,0v.076l-.123,0v.076l-.122,0v.076l-.123,0v.076l-.122,0v.076l-.123,0v.076l-.122,0v.075l-.123,0v.076l-.122,0v.076l-.123,0v.075l-.122,0v.076l-.123,0v.076l-.122,0v.075l-.123,0v.076l-.122,0v.076l-.123,0v.075l-.123,0v.076l-.122,0v.076l-.123,0v.075l-.122,0v.076l-.123,0v.076l-.122,0V300.4l17.264.641v-.085l.122,0v-.085l.123,0V300.8l.122,0v-.085l.123,0v-.085l.122,0v-.084l.123,0v-.085l.122,0V300.4l.123,0v-.084l.122,0v-.085l.123,0v-.085l.123,0v-.084l.122,0V300l.123,0v-.085l.122,0v-.084l.123,0v-.085l.122,0v-.085l.123,0V299.6l.122,0v-.085l.123,0v-.084l.122,0v-.084l.123,0v-.085l.122,0V299.2l.123,0v-.084l.122,0v-.085l.123,0v-.084l.123,0v-.084l.122,0V298.8l.123,0v-.084l.122,0v-.084l.123,0v-.085l.122,0v-.084l.123,0V298.4l.053,0v2.789l5.759.214v-.085l.122,0v-.084l.123,0v-.084l.122,0v-.085l.123,0V301l.123,0v-.084l.122,0v-.085l.123,0v-.084l.122,0v-.085l.123,0V300.6l.122,0v-.084l.123,0v-.085l.122,0v-.085l.123,0v-.084l.122,0V300.2l.123,0v-.085l.122,0v-.084l.123,0v-.084l.122,0v-.085l.123,0V299.8l.123,0v-.085l.122,0v-.085l.123,0v-.084l.122,0v-.085l.123,0V299.4l.122,0v-.084l.123,0v-.085l.122,0v-.084l.123,0v-.084l.122,0V299l.123,0v-.085l.122,0v-.084l.123,0v-.085l.123,0v-.085l.122,0V298.6l.123,0v-.085l.122,0v-.084l.123,0v-.084l.062,0,.4,3.226,6.423.238.009-.084.113,0,.01-.084.113,0,.009-.084.113,0,.01-.084.113,0,.009-.085.113,0,.01-.084.113,0,.009-.084.113,0,.01-.085.113,0,.01-.084.112,0,.01-.084.113,0,.01-.084.112,0,.01-.084.113,0,.01-.084.113,0,.009-.084.113,0,.01-.084.113,0,.009-.084.113,0,.01-.085.113,0,.009-.084.113,0,.01-.084.113,0,.009-.085.113,0,.01-.084.113,0,.009-.084.113,0,.01-.085.113,0,.01-.084.112,0,.01-.084.113,0,.01-.084.113,0,.009-.084.113,0,.01-.084.113,0,.009-.084.113,0,.01-.084.113,0,.009-.084.113,0,.01-.084.113,0,.009-.084.113,0,.01-.084.113,0,.009-.084.113,0,.01-.084.113,0,.01-.084.112,0,.01-.084.113,0,.01-.084.1,0v3.3l6.613.246v-.085l.122,0v-.084l.123,0v-.084l.122,0v-.085l.123,0v-.084l.122,0v-.084l.123,0v-.085l.122,0v-.085l.123,0v-.084l.123,0v-.085l.122,0v-.084l.123,0v-.084l.122,0v-.085l.123,0v-.084l.122,0v-.084l.123,0v-.085l.122,0v-.084l.123,0v-.084l.122,0v-.085l.123,0v-.084l.122,0v-.084l.123,0v-.085l.122,0v-.084l.123,0v-.084l.123,0v-.085l.122,0v-.084l.123,0v-.085l.122,0v-.085l.123,0v-.084l.122,0v-.085l.123,0v-.085l.122,0v-.084l.123,0v-.085l.122,0v-.085l.123,0v-.084l.122,0v-.085l.123,0v-.085l.123,0v-.084l.122,0v-.085l.123,0v-.085l.122,0v-.084l.123,0V240.925l-9.69.36ZM60.089,289.525v-12.75l3.723.018v-.08h.122v-.081h.123v-.08h.122v-.08H64.3v-.081h.122v-.08h.123v-.08h.122v-.081h.123v-.08h.123v-.08h.122v-.081h.123v-.08h.122v-.08H65.4v-.081h.122v-.08h.123v-.08h.122v-.081h.123v-.08h.122v-.081h.123v-.081h.122v-.08h.123v-.081H66.5v-.081h.122v-.08h.123v-.081h.122v-.08h.123v-.08h.122v-.081h.123v-.08h.122v-.08h.123v-.08H67.6v-.081h.123v-.08h.122v-.081h.123v-.08h.123v-.08h.122v-.081h.123v-.08h.122v-.08h.123v-.081H68.7v-.08h.123v-7.924l-8.738.051V253.519l6.014-.16v-.076l.122,0V253.2l.123,0v-.077l.122,0v-.076l.123,0v-.076l.122,0v-.077l.123,0V252.8l.122,0v-.076l.123,0v-.077l.122,0v-.076l.123,0v-.076l.123,0V252.4l.122,0v-.076l.123,0v-.076l.122,0v-.077l.123,0v-.076l.122,0V252l.123,0v-.077l.122,0v-.076l.123,0v-.077l.122,0v-.077l.123,0V251.6l.122,0v-.077l.123,0v-.077l.122,0v-.076l.123,0v-.077l.123,0V251.2l.122,0v-.076l.123,0v-.077l.122,0v-.076l.123,0v-.076l.122,0V250.8l.123,0v-.076l.053,0V289.79Z" transform="translate(-48.838 -232.42)" fill="#a30d11"/>
        <path id="Trazado_20526" data-name="Trazado 20526" d="M190.146,236.6a12.564,12.564,0,0,0-6.531,1.919l-.123.08-.122.08-.123.08c-.041.025-.081.053-.122.079l-.123.08-.122.079-.123.08-.122.08-.123.079-.123.08-.122.08-.122.08c-.042.025-.082.053-.123.079l-.122.08-.123.079-.123.08-.122.08-.123.079-.122.08c-.042.026-.082.053-.122.08l-.123.079c-.042.026-.082.053-.123.08l-.122.08-.123.079-.122.08c-.042.026-.082.053-.123.08l-.123.08c-.041.025-.081.053-.122.079l-.122.08c-.042.026-.082.053-.123.08s-.082.052-.123.079l-.122.08-.123.08c-.041.025-.081.052-.122.079l-.122.08-.123.079-.122.08-.122.08-.123.079-.122.08c-3.057,1.945-4.93,5.386-5.607,10.078-.106-9.273-3.683-13.7-11.747-13.406l-11.639.433v.075l-.122,0v.076l-.123,0v.076l-.122,0v.075l-.123,0v.076l-.123,0v.076l-.122,0v.075l-.123,0v.076l-.122,0v.076l-.123,0v.075l-.122,0v.076l-.123,0v.076l-.122,0v.075l-.123,0v.076l-.122,0v.076l-.123,0v.075l-.122,0v.076l-.123,0v.076l-.122,0v.075l-.123,0v.076l-.123,0v.076l-.122,0v.076l-.123,0v.076l-.122,0v.076l-.123,0v.076l-.122,0v.076l-.123,0v.076l-.122,0v.075l-.123,0v.076l-.122,0v.076l-.123,0v.075l-.122,0v.076l-.123,0v.076l-.123,0v.076l-.122,0v.076l-.123,0v.076l-.122,0v.076l-.123,0v.076l-.122,0v.075l-.025,0V239l-19.99.742v.076l-.123,0v.075l-.122,0v.076l-.123,0v.076l-.122,0v.075l-.123,0v.076l-.122,0v.076l-.123,0v.075l-.122,0v.076l-.123,0v.076l-.122,0v.076l-.123,0v.076l-.122,0v.076l-.123,0v.076l-.123,0v.076l-.122,0v.076l-.123,0v.076l-.122,0v.076l-.123,0v.075l-.122,0v.076l-.123,0v.076l-.122,0v.075l-.123,0v.076l-.122,0v.076l-.123,0v.075l-.122,0v.076l-.123,0v.076l-.123,0v.076l-.122,0v.076l-.123,0v.076l-.122,0v.075l-.123,0v.076l-.122,0v.076l-.123,0v.075l-.122,0v.076l-.123,0v.076l-.122,0v.075l-.123,0v.076l-.122,0v.076l-.123,0v.075l-.122,0v.076l-.123,0v58.43l19.99.742v-.084l.122,0v-.085l.123,0v-.084l.122,0v-.084l.123,0v-.085l.122,0v-.084l.123,0v-.084l.122,0v-.085l.123,0v-.084l.123,0v-.085l.122,0v-.085l.123,0v-.084l.122,0v-.085l.123,0v-.085l.122,0v-.084l.123,0v-.085l.122,0v-.085l.123,0v-.084l.122,0v-.085l.123,0v-.085l.122,0v-.084l.123,0v-.085l.122,0v-.085l.123,0v-.084l.123,0v-.085l.122,0v-.085l.123,0v-.084l.122,0v-.085l.123,0v-.084l.122,0v-.084l.123,0v-.085l.122,0v-.084l.123,0v-.084l.122,0v-.085l.123,0v-.085l.122,0v-.084l.123,0v-.085l.123,0v-.085l.122,0v-.084h.025v3.3l7.675.285v-.085l.123,0v-.084l.122,0v-.084l.123,0v-.085l.122,0v-.084l.123,0v-.085l.122,0v-.085l.123,0v-.084l.122,0v-.085l.123,0v-.085l.122,0v-.084l.123,0v-.084l.122,0v-.085l.123,0v-.084l.122,0v-.085l.123,0v-.085l.123,0v-.084l.122,0v-.085l.123,0v-.085l.122,0v-.084l.123,0v-.085l.122,0v-.085l.123,0v-.084l.122,0v-.085l.123,0v-.085l.122,0v-.084l.123,0v-.085l.122,0v-.085l.123,0v-.084l.123,0v-.085l.122,0v-.085l.123,0v-.084l.122,0v-.085l.123,0v-.085l.122,0v-.084l.123,0v-.085l.122,0v-.085l.123,0v-.084l.122,0v-.085l.123,0v-.084l.122,0v-.084l.123,0V278.353c1.927.881,2.807,3.138,2.807,7.4v9.65c0,5,.287,5.976.718,7.572l8.133.3c-.01-.029-.017-.056-.027-.086l.149.006c-.01-.029-.017-.057-.026-.086l.149.005c-.01-.029-.017-.057-.027-.086l.149.005c-.01-.029-.017-.056-.026-.085l.149.005c-.01-.029-.017-.057-.027-.086l.149.005c-.01-.029-.017-.057-.026-.086l.149.005c-.01-.029-.017-.056-.027-.085l.149.005c-.01-.029-.016-.057-.026-.086l.149.005c-.01-.029-.017-.057-.026-.086l.148.005c-.009-.029-.016-.056-.026-.085l.149.005c-.01-.029-.017-.057-.026-.086l.148.005c-.009-.029-.016-.057-.026-.086l.149.005c-.01-.029-.017-.056-.026-.085l.149.005c-.01-.029-.017-.057-.027-.086l.149.005c-.01-.029-.017-.057-.026-.086l.149.005c-.01-.029-.017-.056-.027-.085l.149.005c-.01-.029-.017-.057-.026-.086l.149.005c-.01-.029-.017-.057-.027-.086l.149.005c-.01-.029-.017-.056-.026-.085l.149.005c-.01-.029-.017-.057-.027-.086l.149.005c-.01-.029-.016-.057-.026-.086l.149.006c-.01-.029-.017-.057-.026-.086l.148.005c-.009-.029-.016-.057-.026-.086l.149.005c-.01-.029-.017-.057-.026-.086l.148.006c-.009-.029-.016-.057-.026-.086l.149.005c-.01-.029-.017-.057-.026-.086l.149.005c-.01-.029-.017-.057-.027-.086l.149.006c-.01-.029-.017-.057-.026-.086l.149.005c-.01-.029-.017-.057-.027-.086l.149.005c-.01-.029-.017-.056-.026-.086l.149.006c-.01-.029-.017-.057-.027-.086l.149.005c-.01-.029-.017-.057-.026-.086l.149.005c-.01-.029-.017-.056-.027-.085l.149.005c-.01-.029-.016-.057-.026-.086l.149.005c-.01-.029-.017-.057-.026-.086l.148.005c-.009-.029-.016-.056-.026-.085l.149.005c-.01-.029-.017-.057-.026-.086l.148.005c-.009-.029-.016-.057-.026-.086l.149.005c-.01-.029-.017-.056-.026-.086l.148.006c-.009-.029-.016-.057-.026-.086l.149.005c-.01-.029-.017-.057-.026-.086l.149.005a20.125,20.125,0,0,1-.876-6.742c1.19,7.029,5.194,11.085,11.929,11.34a12.139,12.139,0,0,0,6.742-1.5c.042-.024.079-.055.122-.079s.08-.056.122-.08.08-.056.123-.08.08-.055.122-.079.08-.056.123-.08.08-.056.123-.08.079-.055.122-.079.08-.056.123-.08.08-.056.122-.08.08-.055.123-.079.08-.056.122-.08.08-.055.123-.08.08-.055.122-.079.08-.056.123-.08.08-.055.122-.08.08-.055.123-.079.08-.056.123-.08.079-.055.122-.079.08-.056.122-.08.08-.056.123-.08.08-.055.123-.08.079-.055.122-.079.08-.056.123-.08.079-.055.122-.079.08-.056.123-.08.08-.056.122-.08.08-.055.123-.079.08-.056.122-.08.08-.056.123-.08.08-.055.122-.079.08-.056.123-.08.08-.056.123-.08.079-.055.122-.079.08-.056.122-.08.08-.056.123-.08.08-.055.123-.079.079-.056.122-.08.08-.056.123-.08.08-.055.122-.079.08-.056.123-.08c3.992-2.271,6.06-7.175,6.06-14.24V265.289l-11.916.051v.079h-.123v.079h-.122v.079h-.123v.079h-.123v.079H190.3v.079h-.123v.079h-.122v.079h-.123v.079h-.122v.079h-.123v.079h-.122v.079h-.123v.079h-.122v.079H189.2v.079h-.122v.079h-.123v.079h-.123v.079h-.122v.079h-.123v.079h-.122v.079h-.123v.079h-.122v.079H188.1v.079h-.122v.079h-.123v.079h-.122v.079h-.123v.079h-.122v.079h-.123v.079h-.123v.079h-.122v.079h-.123v.079h-.122v.079h-.123v.08h-.122v.079h-.123v.079h-.122v.079h-.123v.079h-.122v.079h-.086V251.959a11.806,11.806,0,0,1,.33-2.975c2.076.363,3.344,2.147,3.344,6.079v6.814l8.083-.1V261.7l.123,0v-.079l.122,0v-.079h.123v-.079l.122,0v-.079l.123,0V261.3h.122v-.079l.123,0v-.079l.122,0v-.078l.123,0v-.079l.123,0V260.9l.122,0v-.078l.123,0v-.079l.122,0v-.079l.123,0v-.078l.122,0V260.5l.123,0v-.079l.122,0v-.078l.123,0v-.079l.122,0v-.079h.123V260.1l.122,0v-.079l.123,0v-.079h.123v-.079l.122,0v-.079l.123,0V259.7l.122,0v-.078l.123,0v-.079l.122,0v-.079l.123,0v-.078l.122,0V259.3l.123,0v-.079h.122v-.079l.123,0v-.079l.122,0v-.079l.123,0V258.9l.123,0v-.079l.122,0v-.078l.123,0v-.079l.122,0v-.079l.123,0V258.5h.122v-6.237C202.825,241.993,198.453,236.289,190.146,236.6Zm-32.741,13.945c1.887.5,2.736,2.422,2.736,6.073v6.054a12.244,12.244,0,0,1-.369,3.232l-2.367.009Zm10.5,19.121.044-.031c.04-.027.083-.052.122-.08s.083-.052.123-.079.083-.052.123-.08.082-.052.122-.08c2.357-1.583,3.8-4.221,4.382-7.939v16.268C172.191,273.877,170.715,271.11,167.9,269.67Zm21.823,19.741a12.091,12.091,0,0,1-.265,2.683c-2.121-.417-3.409-2.179-3.409-6.136v-8.292l3.674.024Zm-57.446.608V276.052l5.106.025V276h.122v-.08h.123v-.081h.123v-.08h.122v-.08H138V275.6h.122v-.08h.123v-.08h.122v-.081h.123v-.08h.122v-.08h.123v-.081h.122v-.08h.123v-.08h.122v-.081h.123v-.08h.123v-.08h.122v-.081h.123v-.08h.122v-.081h.123V274.4h.122v-.08h.123v-.08h.122v-.081h.123v-.08h.122V274h.123v-.08h.122v-.08h.123v-.081h.122v-.08h.123v-.08h.123v-.081h.122v-.081h.123v-.08h.122v-.08h.123V273.2h.122v-.08h.123v-.081h.122v-.08h.123v-.08h.122V272.8h.123v-8.532l-10.121.059v-13.28l7.762-.206v-.076l.122,0v-.077l.123,0V250.6l.122,0v-.076l.123,0v-.077l.122,0v-.076l.123,0v-.076l.122,0V250.2l.123,0v-.076l.123,0v-.076l.122,0v-.077l.123,0v-.076l.122,0V249.8l.123,0v-.077l.122,0v-.076l.123,0v-.076l.122,0v-.077l.123,0V249.4l.122,0v-.076l.123,0v-.077l.122,0v-.076l.123,0v-.076l.122,0V249l.123,0v-.076l.123,0v-.077l.122,0v-.077l.123,0v-.076l.122,0V248.6l.123,0v-.077l.122,0v-.076l.123,0v-.076l.122,0v-.077l.123,0V248.2l.122,0v-.077l.123,0v-.077l.122,0v-.076l.123,0v-.077l.123,0V247.8l.122,0v-.076h.025v42.625Z" transform="translate(-65.114 -231.429)" fill="#a30d11"/>
        <path id="Trazado_20527" data-name="Trazado 20527" d="M233.128,236.47l-.122,0v.075l-.122,0v.075l-.122,0v.075l-.122,0v.076l-.122,0v.075l-.122,0v.075l-.122,0v.075l-.122,0v.075l-.122,0v.075l-.122,0v.075l-.122,0v.075l-.122,0v.075l-.122,0v.076l-.122,0v.075l-.122,0v.075l-.122,0v.075l-.122,0v.075l-.122,0v.075l-.122,0v.075l-.122,0v.075l-.122,0v.076l-.122,0v.075l-.122,0v.075l-.122,0v.075l-.122,0v.075l-.122,0v.075l-.122,0v.075l-.122,0v.075l-.122,0v.075l-.122,0v.075l-.122,0v.075l-.122,0v.075l-.122,0v.076l-.122,0v.075l-.122,0v.075l-.122,0v.075l-.122,0v.075l-.122,0v.075l-.122,0v.075l-.122,0v.075l-.122,0v64.622l24.517.91v-.084l.122,0v-.085l.122,0v-.084l.122,0v-.084l.122,0V304.8l.122,0v-.084l.122,0v-.085l.122,0v-.084l.122,0v-.085l.122,0V304.4l.122,0v-.084l.122,0v-.085l.122,0v-.084l.122,0v-.085l.122,0V304l.122,0v-.084l.122,0v-.085l.122,0v-.084l.122,0v-.085l.122,0V303.6l.122,0v-.084l.122,0v-.084l.122,0v-.084l.122,0v-.085l.122,0V303.2l.122,0v-.085l.122,0v-.084l.122,0v-.084l.122,0v-.085l.122,0V302.8l.122,0v-.085l.122,0v-.084l.122,0v-.084l.122,0v-.084l.122,0V302.4l.122,0v-.085l.122,0v-.084l.122,0v-.085l.122,0v-.084l.122,0V302l.122,0v-.084l.122,0v-9.491l-15.685-.416V276.2l7.405.035v-.081h.122v-.081h.122V276h.122v-.081h.122v-.081h.122v-.081h.122v-.081h.122v-.08h.122v-.081h.122v-.081h.122v-.081h.122v-.08h.122V275.2h.122v-.081h.122v-.081h.122v-.081h.122v-.081h.122V274.8h.122v-.081h.122v-.08h.122v-.081h.122v-.081h.122V274.4h.122v-.081h.122v-.08h.122v-.081h.122v-.081h.122V274h.122v-.081h.122v-.081h.122v-.081h.122v-.08h.122V273.6h.122v-.081h.122v-.081h.122v-.081h.122v-.08h.122V273.2h.122v-.081h.122v-.081h.122v-.081h.122V263.5l-12.42.072V248.538l10.67-.283v-.077l.122,0V248.1l.122,0v-.077l.122,0v-.077l.122,0v-.077l.122,0v-.077l.122,0V247.7l.122,0v-.077l.122,0v-.077l.122,0v-.077l.122,0v-.077l.122,0V247.3l.122,0v-.077l.122,0v-.077l.122,0v-.077l.122,0v-.077l.122,0V246.9l.122,0v-.077l.122,0v-.077l.122,0v-.077l.122,0v-.077l.122,0V246.5l.122,0v-.077l.122,0v-.077l.122,0v-.077l.122,0v-.077l.122,0V246.1l.122,0v-.077l.122,0v-.077l.122,0v-.077l.122,0v-.077l.122,0V245.7l.122,0v-.077l.122,0v-.077l.122,0v-.077l.122,0v-.077l.122,0V245.3l.122,0v-.077l.122,0v-.077l.122,0v-.077l.122,0v-.077l.122,0v-9.492l-24.517.91Z" transform="translate(-89.81 -231.176)" fill="#a30d11"/>
        <path id="Trazado_20528" data-name="Trazado 20528" d="M294.127,234.136l-.122,0v.075l-.122,0v.075l-.122,0v.075l-.122,0v.075l-.122,0v.076l-.122,0v.075l-.122,0v.075l-.122,0v.076l-.122,0v.075l-.122,0v.075l-.122,0v.075l-.122,0v.075l-.122,0v.075l-.122,0v.075l-.122,0v.075l-.122,0v.075l-.122,0v.076l-.122,0v.075l-.122,0v.075l-.122,0v.076l-.122,0v.075l-.122,0v.075l-.122,0v.075l-.122,0v.075l-.122,0v.075l-.122,0v.075l-.122,0v.075l-.122,0v.075l-.122,0v.076l-.122,0v.075l-.122,0v.075l-.122,0v.075l-.122,0v.075l-.122,0v.075l-.122,0v.075l-.122,0v.075l-.122,0v.076l-.122,0v.075l-.122,0v.075l-.122,0v.075l-.122,0v17.3l-4.964-20.21-11.9.442v.075l-.122,0v.075l-.122,0v.075l-.122,0v.075l-.122,0v.075l-.122,0v.076l-.122,0v.075l-.122,0v.075l-.122,0v.076l-.122,0v.075l-.122,0v.075l-.122,0v.075l-.122,0v.075l-.122,0v.075l-.122,0v.075l-.122,0v.075l-.122,0v.075l-.122,0v.076l-.122,0v.075l-.122,0v.075l-.122,0v.076l-.122,0v.075l-.122,0v.075l-.122,0v.075l-.122,0v.075l-.122,0v.075l-.122,0v.075l-.122,0v.075l-.122,0v.075l-.122,0v.076l-.122,0v.075l-.122,0v.075l-.122,0v.075l-.122,0v.075l-.122,0v.075l-.122,0v.075l-.122,0v.075l-.122,0v.075l-.122,0v.075l-.122,0v.075l-.122,0v.075l-.122,0v66.864l8.5.316v-.085l.122,0v-.084l.122,0v-.084l.122,0v-.085l.122,0v-.084l.122,0v-.085l.122,0v-.084l.122,0v-.084l.122,0v-.084l.122,0v-.084l.122,0v-.085l.122,0v-.084l.122,0v-.085l.122,0v-.084l.122,0v-.084l.122,0v-.085l.122,0v-.084l.122,0v-.085l.122,0v-.084l.122,0v-.084l.122,0v-.084l.122,0v-.084l.122,0v-.085l.122,0v-.084l.122,0v-.085l.122,0v-.085l.122,0v-.084l.122,0v-.085l.122,0v-.084l.122,0v-.085l.122,0v-.084l.122,0v-.084l.122,0v-.084l.122,0v-.084l.122,0v-.085l.122,0v-.084l.122,0v-.085l.122,0v-.084l.122,0v-.084l.122,0v-.085l.122,0v-.084l.122,0V277l7.021,28.78,10.17.378v-.085l.122,0v-.084l.122,0v-.085l.122,0v-.084l.122,0v-.085l.122,0v-.085l.122,0v-.084l.122,0v-.084l.122,0v-.084l.122,0v-.085l.122,0v-.084l.122,0v-.085l.122,0v-.084l.122,0v-.084l.122,0v-.085l.122,0v-.084l.122,0v-.085l.122,0v-.084l.122,0v-.084l.122,0v-.085l.122,0v-.084l.122,0v-.085l.122,0v-.084l.122,0v-.084l.122,0v-.084l.122,0v-.084l.122,0v-.085l.122,0v-.084l.122,0v-.085l.122,0v-.084l.122,0v-.084l.122,0v-.085l.122,0v-.084l.122,0v-.085l.122,0v-.084l.122,0v-.084l.122,0v-.084l.122,0v-.084l.122,0v-.085l.122,0v-.084l.122,0v-.085l.122,0V233.733l-8.833.328Z" transform="translate(-98.751 -230.776)" fill="#a30d11"/>
        <path id="Trazado_20529" data-name="Trazado 20529" d="M382.435,230.313l-.019.076-.1,0-.019.076-.1,0-.019.076-.1,0-.019.076-.1,0-.02.076-.1,0-.019.076-.1,0-.02.076-.1,0-.019.076-.1,0-.02.076-.1,0-.019.076-.1,0-.02.076-.1,0-.019.076-.1,0-.02.076-.1,0-.019.076-.1,0-.02.076-.1,0-.019.076-.1,0-.019.076-.1,0-.02.076-.1,0-.019.076-.1,0-.02.076-.1,0-.019.076-.1,0-.02.076-.1,0-.019.076-.1,0-.02.076-.1,0-.019.076-.1,0-.02.076-.1,0-.019.076-.1,0-.02.076-.1,0-.019.076-.1,0-.019.076-.1,0-.019.076-.1,0-.019.076-.1,0-.02.076-.1,0-.019.076-.1,0-.02.076-.1,0-.019.076-.1,0-.02.076-.1,0-.019.076-.1,0-.02.076-.1,0-.019.076-.1,0-.02.076-.1,0-5.8,22.5-6.495-25.139-11.51.427.022.075-.143,0,.021.075-.143.005.022.075-.144.005.022.075-.143,0,.022.075-.144.005.022.075-.143.005.022.075-.144,0,.022.075-.143.005.022.075-.144.005.022.074-.143.005.022.075-.144.005.022.075-.143.005.022.074-.144.005.022.075-.143.005.021.075-.143.005.022.075-.143,0,.021.075-.143.005.022.075-.144.005.022.075-.143,0,.022.075-.144.005.022.075-.143.005.022.074-.144.005.022.075-.143.005.022.075-.144.005.022.074-.143.005.022.075-.144.005.022.075-.143.005.022.074-.144.005.022.075-.143.005.021.075-.143.005.022.074-.144.005.022.075-.143.005.022.075-.144.005.022.074-.143.005.022.075-.144.005.022.075-.143.005.022.074-.144.005.022.075-.143.005.022.075-.144.005.022.074-.143.005.022.075-.144.005,1.3,4.509c-2.37-5.382-7.138-8.2-14.15-7.932a17.079,17.079,0,0,0-8.2,2.2c-.042.025-.08.055-.123.08s-.079.055-.122.079-.08.055-.122.08-.081.055-.123.08-.08.055-.122.079-.08.055-.123.08-.08.055-.123.08-.08.055-.122.079-.08.055-.123.08-.08.055-.122.08-.08.055-.123.079-.079.055-.122.08-.08.055-.123.08-.08.055-.122.079-.08.055-.123.08-.08.055-.123.08-.079.055-.122.079-.08.055-.122.08-.081.055-.123.08-.079.055-.121.079-.08.055-.123.08-.08.055-.123.08-.079.055-.122.079-.08.055-.123.08-.08.055-.123.08-.079.055-.122.079-.08.055-.122.08-.08.055-.123.08-.08.055-.122.079-.081.055-.123.08-.08.055-.122.079-.08.055-.123.08-.08.055-.123.08-.08.055-.122.079-.08.055-.122.08-.081.055-.123.08-.079.055-.122.079-.079.055-.122.08-.08.055-.123.08-.08.055-.122.079c-4.847,2.811-7.3,8.307-7.3,15.968v36.2c0,11.139,5.2,17.7,15.378,18.089a15.778,15.778,0,0,0,9.648-2.36l.122-.079c.041-.027.083-.053.123-.081l.122-.079c.041-.027.083-.052.123-.079l.123-.08.122-.08c.041-.027.082-.052.123-.08l.122-.079.123-.08.122-.079.123-.08c.04-.027.082-.052.122-.08s.082-.052.123-.08l.122-.079.123-.08c.04-.027.082-.052.122-.08s.083-.052.123-.079.082-.052.122-.08.083-.052.123-.079l.123-.08.122-.08.123-.079.122-.08c.041-.027.083-.052.123-.08l.122-.079.123-.08c.041-.027.082-.052.122-.08s.083-.052.123-.08l.122-.079c.041-.027.083-.052.123-.08l.122-.079.123-.08c.041-.027.082-.052.122-.08s.083-.052.123-.079l.123-.08c.04-.027.082-.052.122-.08s.083-.052.123-.08l.122-.079c.041-.027.082-.052.123-.08l.122-.079c4.2-2.77,6.366-7.97,6.366-15.206v-9.558l-10.138-.1v.081h-.123v.081l-.122,0v.082l-.123,0v.081h-.122v.081l-.123,0v.082l-.122,0v.081h-.123v.081h-.122v.081l-.123,0v.081h-.122v.081l-.123,0v.082l-.122,0v.081h-.123v.081l-.123,0v.082l-.122,0v.081h-.123v.081l-.122,0v.082l-.123,0V278h-.122v.081l-.123,0v.081h-.122v.081h-.123v.081l-.122,0v.082l-.123,0v.081h-.122v.081l-.123,0v.082l-.123,0v.081h-.122v.081l-.123,0v.081h-.122v.081h-.123v.081l-.122,0v.081h-.123v.081h-.122v.081l-.123,0v.081H337.1v.081h-.123v.081l-.122,0v.081h-.123v.081l-.122,0v.082l-.123,0v10.169a11.2,11.2,0,0,1-.474,3.488c-3.313-.1-5.382-1.969-5.382-6.984V248.426a11.047,11.047,0,0,1,.568-3.8c3.245-.019,5.289,1.873,5.289,6.865v7.627l10.138-.123v-.079l.122,0v-.078l.123,0v-.079l.122,0v-.079l.123,0v-.078l.122,0v-.079l.123,0v-.079l.122,0v-.078l.123,0v-.079l.122,0v-.079h.123v-.079l.122,0v-.079l.123,0v-.079l.123,0v-.078l.122,0v-.079l.123,0v-.079l.122,0v-.078l.123,0v-.079l.122,0v-.079h.123v-.079l.122,0v-.079l.123,0v-.078l.122,0v-.079l.123,0v-.079l.122,0v-.078l.123,0v-.079l.122,0v-.079l.123,0v-.079h.123v-.079l.122,0v-.079l.123,0v-.078l.122,0v-.079l.123,0v-.079l.122,0v-.078l.123,0v-.079l.122,0v-.079l.123,0v-.078l.122,0v-.079l.123,0v-.079l.122,0v-.078l.123,0v-.079l.123,0v-6.988a29.473,29.473,0,0,0-.4-4.895l11.3,39.2V307.27l11.324.42v-.084l.122,0v-.085l.123,0v-.085l.122,0v-.084l.123,0v-.085l.122,0v-.084l.123,0v-.084l.122,0v-.085l.123,0v-.084l.123,0v-.084l.122,0v-.085l.123,0v-.085l.122,0v-.084l.123,0v-.085l.122,0v-.085l.123,0v-.084l.122,0v-.085l.123,0v-.084l.122,0v-.084l.123,0v-.085l.122,0v-.084l.123,0v-.084l.123,0v-.085l.122,0v-.084l.123,0v-.084l.122,0v-.085l.123,0v-.084l.122,0v-.085l.123,0v-.085l.122,0v-.084l.123,0v-.085l.122,0v-.085l.123,0v-.084l.122,0v-.085l.123,0v-.085l.122,0v-.084l.123,0v-.085l.123,0v-.085l.122,0v-.084l.123,0v-.085l.122,0v-.085l.123,0V279.9l14.688-50Z" transform="translate(-109.748 -229.9)" fill="#a30d11"/>
      </g>
      <g id="Grupo_10602" data-name="Grupo 10602" transform="translate(47.833 190.602)">
        <path id="Trazado_20530" data-name="Trazado 20530" d="M61.574,266l8.738-.051v7.924l-8.738-.042v16.053l11.028.292v7.948l-17.264-.641v-54.35L72.6,242.49v7.948l-11.028.292Z" transform="translate(-55.338 -232.777)" fill="#fff"/>
        <path id="Trazado_20531" data-name="Trazado 20531" d="M97.052,281.915l4.663-40.63,9.69-.36v58.048l-6.613-.246V257.451l-4.762,41.1-6.423-.238-4.989-40.036v39.851l-5.759-.214V241.986l9.22-.343Z" transform="translate(-61.628 -232.42)" fill="#fff"/>
        <path id="Trazado_20532" data-name="Trazado 20532" d="M133.768,265.039l10.12-.059v8.532l-10.12-.049v17.269l12.776.339v8.559l-19.99-.742v-58.43l19.99-.742v8.559l-12.776.339Z" transform="translate(-71.614 -232.143)" fill="#fff"/>
        <path id="Trazado_20533" data-name="Trazado 20533" d="M174.737,300.222c-.431-1.6-.718-2.57-.718-7.573V283c0-5.7-1.576-7.819-5.136-7.843l-2.685-.019V299.9l-7.675-.285V239.358l11.639-.433c8.187-.3,11.757,4.258,11.757,13.824v4.872c0,6.377-1.679,10.542-5.234,12.572,3.992,2.038,5.308,6.738,5.308,13.2v9.566a22.066,22.066,0,0,0,.879,7.562Zm-8.54-52.458v18.683l3.04-.011c2.919-.011,4.71-1.6,4.71-6.509v-6.054c0-4.387-1.219-6.284-4-6.209Z" transform="translate(-78.92 -231.959)" fill="#fff"/>
        <path id="Trazado_20534" data-name="Trazado 20534" d="M208.026,265.34l11.916-.05v20.362c0,10.273-4.372,15.977-12.679,15.661-8.148-.309-12.312-6.168-12.312-16.144V252.748c0-9.976,4.164-15.834,12.312-16.144,8.307-.316,12.679,5.389,12.679,15.661V258.5l-8.083.1v-6.814c0-4.543-1.691-6.223-4.367-6.15-2.659.073-4.322,1.828-4.322,6.324v34c0,4.5,1.662,6.162,4.322,6.235,2.676.073,4.367-1.517,4.367-6.061V274.41l-3.833-.025Z" transform="translate(-87.245 -231.429)" fill="#fff"/>
        <path id="Trazado_20535" data-name="Trazado 20535" d="M243.446,263.576l12.42-.072v9.457l-12.42-.059V292.02l15.685.416v9.491l-24.516-.91V236.394l24.516-.91v9.492l-15.685.417Z" transform="translate(-96.31 -231.176)" fill="#fff"/>
        <path id="Trazado_20536" data-name="Trazado 20536" d="M282.239,253.167v48.886l-8.5-.316V234.873l11.9-.442,9.979,40.625v-41l8.833-.328v69.144l-10.17-.378Z" transform="translate(-105.251 -230.776)" fill="#fff"/>
        <path id="Trazado_20537" data-name="Trazado 20537" d="M353.124,276.968v9.558c0,11.512-5.486,17.881-15.891,17.486-10.182-.387-15.377-6.95-15.377-18.089v-36.2c0-11.138,5.195-17.7,15.377-18.088,10.405-.4,15.891,5.973,15.891,17.484V256.1l-10.138.123V248.6c0-5.085-2.118-6.959-5.467-6.867-3.327.091-5.4,2.058-5.4,7.085v38.007c0,5.027,2.078,6.895,5.4,6.985,3.349.092,5.467-1.682,5.467-6.767V276.872Z" transform="translate(-116.248 -230.292)" fill="#fff"/>
        <path id="Trazado_20538" data-name="Trazado 20538" d="M378.891,279.755l-13.946-48.371,11.51-.427,8.581,33.214,8.732-33.858L404.9,229.9l-14.688,50v24.515l-11.324-.42Z" transform="translate(-126.096 -229.9)" fill="#fff"/>
      </g>
      <rect id="Rectángulo_2344" data-name="Rectángulo 2344" width="82.829" height="26.435" rx="13.217" transform="translate(151.416 143.298)" fill="#39848d"/>
      <path id="Trazado_20539" data-name="Trazado 20539" d="M267.378,188.875H206.446A10.982,10.982,0,0,1,195.5,177.926v-4.538a10.816,10.816,0,0,1,.612-3.563,10.98,10.98,0,0,0-6.5,9.99v4.537A10.982,10.982,0,0,0,200.555,195.3h60.932a10.983,10.983,0,0,0,10.338-7.385A10.833,10.833,0,0,1,267.378,188.875Z" transform="translate(-38.191 -25.569)" fill="#20727b"/>
      <path id="Trazado_20540" data-name="Trazado 20540" d="M248.151,93.847c-1.76.307-1.623,2.59-.447,3.425,3.17,2.253,6.436,3.969,9.354,6.6,3.247,2.928,4.808,6.77,8.913,8.651a3.634,3.634,0,0,0,5.389-3.092C271.892,99.557,256.74,92.347,248.151,93.847Z" transform="translate(-51.267 -8.159)" fill="#ee462f"/>
      <path id="Trazado_20541" data-name="Trazado 20541" d="M281.2,124.214c-.705-1.573-3.077-1.011-3.487.455-.812,2.909-1.406,6.123.6,8.66.991,1.254,3.12.754,3.838-.495C283.731,130.089,282.381,126.841,281.2,124.214Z" transform="translate(-58.155 -14.929)" fill="#ee462f"/>
      <path id="Trazado_20542" data-name="Trazado 20542" d="M167.9,154.035c-2.136-1.524-4.893-1.658-7.428-1.976a27.891,27.891,0,0,0-8.6.379c-2.824.5-2.824,5.179,0,5.68a27.866,27.866,0,0,0,8.6.379c2.535-.319,5.291-.451,7.428-1.976A1.464,1.464,0,0,0,167.9,154.035Z" transform="translate(-29.082 -21.467)" fill="#d62222"/>
      <path id="Trazado_20543" data-name="Trazado 20543" d="M170.79,109.235c-1.215-2.326-3.612-3.691-5.729-5.123a27.871,27.871,0,0,0-7.842-3.554c-2.744-.83-4.861,3.341-2.57,5.065a27.9,27.9,0,0,0,7.5,4.23c2.405.863,4.923,1.991,7.518,1.6A1.463,1.463,0,0,0,170.79,109.235Z" transform="translate(-29.979 -9.713)" fill="#d62222"/>
      <path id="Trazado_20544" data-name="Trazado 20544" d="M196.269,71.932c-.178-2.618-1.825-4.832-3.188-6.994a27.868,27.868,0,0,0-5.753-6.405c-2.179-1.863-5.794,1.105-4.389,3.606a27.867,27.867,0,0,0,5.166,6.886c1.856,1.757,3.708,3.8,6.242,4.485A1.464,1.464,0,0,0,196.269,71.932Z" transform="translate(-36.595)" fill="#d62222"/>
      <path id="Trazado_20545" data-name="Trazado 20545" d="M312.034,154.035c2.135-1.524,4.892-1.658,7.427-1.976a27.89,27.89,0,0,1,8.6.379c2.824.5,2.824,5.179,0,5.68a27.865,27.865,0,0,1-8.6.379c-2.535-.319-5.291-.451-7.427-1.976A1.463,1.463,0,0,1,312.034,154.035Z" transform="translate(-66.013 -21.467)" fill="#d62222"/>
      <path id="Trazado_20546" data-name="Trazado 20546" d="M309.589,109.235c1.215-2.326,3.612-3.691,5.729-5.123a27.872,27.872,0,0,1,7.842-3.554c2.744-.83,4.861,3.341,2.57,5.065a27.9,27.9,0,0,1-7.5,4.23c-2.405.863-4.923,1.991-7.518,1.6A1.463,1.463,0,0,1,309.589,109.235Z" transform="translate(-65.566 -9.713)" fill="#d62222"/>
      <path id="Trazado_20547" data-name="Trazado 20547" d="M285.2,71.932c.177-2.618,1.824-4.832,3.188-6.994a27.847,27.847,0,0,1,5.752-6.405c2.179-1.863,5.794,1.105,4.39,3.606a27.869,27.869,0,0,1-5.167,6.886c-1.856,1.757-3.708,3.8-6.242,4.485A1.464,1.464,0,0,1,285.2,71.932Z" transform="translate(-60.037)" fill="#d62222"/>
      <path id="Trazado_20548" data-name="Trazado 20548" d="M381.448,345.968,247.667,418.083l63.517-81.389Z" transform="translate(-51.46 -63.705)" fill="#ec1c24"/>
      <rect id="Rectángulo_2345" data-name="Rectángulo 2345" width="6.351" height="19.254" rx="3.175" transform="translate(158.336 146.888)" fill="#22585c"/>
      <rect id="Rectángulo_2346" data-name="Rectángulo 2346" width="6.351" height="19.254" rx="3.176" transform="translate(170.555 146.888)" fill="#22585c"/>
      <rect id="Rectángulo_2347" data-name="Rectángulo 2347" width="6.351" height="19.254" rx="3.176" transform="translate(182.774 146.888)" fill="#22585c"/>
      <rect id="Rectángulo_2348" data-name="Rectángulo 2348" width="6.351" height="19.254" rx="3.175" transform="translate(194.993 146.888)" fill="#22585c"/>
      <rect id="Rectángulo_2349" data-name="Rectángulo 2349" width="6.351" height="19.254" rx="3.175" transform="translate(207.212 146.888)" fill="#22585c"/>
      <rect id="Rectángulo_2350" data-name="Rectángulo 2350" width="6.351" height="19.254" rx="3.175" transform="translate(219.431 146.888)" fill="#22585c"/>
    </g>
    <path id="Trazado_32421" data-name="Trazado 32421" d="M227.993,35.432c144.323,0,180.463,30.257,180.463,117.964S392.951,354.744,248.628,354.744,36.852,221.639,36.852,133.931,83.67,35.432,227.993,35.432Z" transform="translate(1182.456 12579.348) rotate(180)" fill="rgba(152,152,152,0.12)"/>
  </g>
</svg>
