<svg xmlns="http://www.w3.org/2000/svg" xmlns:xlink="http://www.w3.org/1999/xlink" width="394.002" height="340.259" viewBox="0 0 394.002 340.259">
  <defs>
    <clipPath id="clip-path">
      <rect id="Rectángulo_2369" data-name="Rectángulo 2369" width="62.014" height="124.402" rx="10" fill="none"/>
    </clipPath>
    <clipPath id="clip-path-2">
      <path id="Trazado_21156" data-name="Trazado 21156" d="M3806.37,794.034c-.067-.584-.37-1.028-.678-.993-.255.029-.433.382-.447.836l-.827.095c0-.026-.007-.051-.012-.077-.1-.546-.394-.959-.684-.991-.039-.088-.079-.175-.122-.26l.448-.254c.226.316.482.5.621.418.167-.095.1-.527-.147-.967s-.586-.719-.752-.624c-.139.079-.116.392.039.748l-.449.254a4.953,4.953,0,0,0-.879-1.037l.748-.942c.393.229.787.265.947.063.192-.242-.024-.735-.484-1.1s-.99-.466-1.182-.223c-.16.2-.036.577.275.908l-.748.941a4.914,4.914,0,0,0-.981-.537l.17-.486c.378.089.691.056.744-.094.063-.181-.271-.464-.748-.63s-.915-.155-.978.026c-.053.151.17.372.521.538l-.17.486a4.9,4.9,0,0,0-.839-.169.537.537,0,0,0-.272-.254v-.972c.45-.065.781-.282.781-.54,0-.309-.477-.56-1.064-.56s-1.063.251-1.063.56c0,.257.33.474.78.54v.845a2.036,2.036,0,0,0-.308.012c-.551.062-.985.326-1.037.614q-.144.05-.283.109l-.223-.463c.33-.2.528-.448.459-.592-.083-.173-.52-.136-.975.083s-.756.536-.673.709c.069.144.384.142.749.011l.223.464a4.958,4.958,0,0,0-1.109.825l-.893-.805c.252-.378.313-.768.122-.941-.23-.207-.735-.021-1.128.415s-.527.958-.3,1.165c.191.172.574.072.923-.218l.76.685a1.508,1.508,0,0,0-.7.707,1.708,1.708,0,0,0-.219.789l-.25-.074c.071-.382.022-.692-.131-.738-.184-.055-.45.294-.593.778s-.11.921.073.975c.153.046.363-.188.512-.547l.493.146a4.928,4.928,0,0,0-.134.952.7.7,0,0,0-.3.523l-.892.1c-.116-.439-.37-.743-.625-.714-.307.035-.5.537-.435,1.121s.37,1.029.678.994c.255-.029.433-.382.447-.837l.826-.094c0,.025.007.051.013.076.1.546.395.96.685.992.038.088.078.175.122.26l-.449.254c-.226-.316-.482-.5-.621-.418-.167.095-.1.528.147.967s.586.719.753.624c.139-.078.116-.392-.04-.748l.449-.254a4.944,4.944,0,0,0,.879,1.036l-.748.942c-.394-.228-.787-.265-.947-.063-.192.242.025.735.485,1.1s.988.466,1.181.223c.16-.2.037-.577-.275-.908l.748-.941a4.921,4.921,0,0,0,.981.537l-.17.486c-.378-.089-.691-.057-.744.094-.063.181.271.463.748.63s.915.155.978-.026c.053-.151-.17-.372-.521-.538l.17-.486a4.876,4.876,0,0,0,.838.169.534.534,0,0,0,.273.255v.971c-.45.065-.78.282-.78.54,0,.309.476.56,1.063.56s1.064-.251,1.064-.56c0-.258-.331-.474-.781-.54v-.845a2.086,2.086,0,0,0,.307-.012c.552-.062.985-.326,1.037-.613.1-.034.191-.07.284-.109l.223.464c-.33.2-.528.448-.459.592.083.173.52.136.975-.083s.756-.536.674-.709c-.07-.144-.384-.142-.75-.011l-.223-.464a4.944,4.944,0,0,0,1.109-.825l.894.805c-.252.378-.313.768-.122.941.23.207.735.021,1.128-.415s.526-.958.3-1.165c-.191-.173-.574-.072-.923.218l-.761-.686a1.507,1.507,0,0,0,.7-.707,1.714,1.714,0,0,0,.219-.789l.251.074c-.071.382-.023.692.13.738.184.055.45-.293.594-.777s.11-.921-.074-.975c-.153-.045-.363.188-.512.547l-.494-.146a4.859,4.859,0,0,0,.134-.953.7.7,0,0,0,.3-.522l.893-.1c.116.439.37.743.625.714C3806.241,795.12,3806.437,794.618,3806.37,794.034Z" transform="translate(-3792.016 -787.637)" fill="#ff3b00"/>
    </clipPath>
    <clipPath id="clip-path-3">
      <path id="Trazado_21173" data-name="Trazado 21173" d="M3502.52,1777.443s10.167,8.965,33,8.965,25.314-8.024,25.314-8.024l14.564,180.833c-26.914,0-60.7-10.937-86.763-23.645Z" transform="translate(-3488.631 -1777.443)" fill="#519a98"/>
    </clipPath>
    <clipPath id="clip-path-4">
      <path id="Trazado_21180" data-name="Trazado 21180" d="M4273.737,2273.018s-11.314,17.319-27.085,25.489c-9.562,4.953-24.733,9.117-24.733,9.117l13.406,84.165c24.308,0,55.126-7.321,84.193-23.74Z" transform="translate(-4221.919 -2273.018)" fill="#519a98"/>
    </clipPath>
  </defs>
  <g id="Grupo_10887" data-name="Grupo 10887" transform="translate(-739.467 -2683.527)">
    <g id="Grupo_10880" data-name="Grupo 10880" transform="translate(-65.531 4)">
      <g id="Grupo_10879" data-name="Grupo 10879" transform="translate(-2439.248 2155.741)">
        <path id="Trazado_21142" data-name="Trazado 21142" d="M4065.354,626.327c4.088,2.956,4.168,9.822.182,15.333s-10.532,7.585-14.62,4.628-4.169-9.822-.182-15.334S4061.267,623.37,4065.354,626.327Z" transform="translate(-611.126 -88.401)" fill="#feb28b"/>
        <path id="Trazado_21143" data-name="Trazado 21143" d="M3446.321,838s12.749,19.611,6.1,60.065c-2.067,12.585-14.24,42.058-20.955,42.058s-34.1.3-44.564-7.477c-9.84-7.308-21.716-18.073-21.716-31.305s-3.134-39.324-6.678-51.093c-3.761-12.47-8.152-22.773-10.15-28.406-1.583-4.464,12.084-9.831,23.873,11.94,4.843,8.944,11.714,17.013,26.793,16.128S3446.321,838,3446.321,838Z" transform="translate(0 -256.856)" fill="#feb28b"/>
        <rect id="Rectángulo_2367" data-name="Rectángulo 2367" width="54.265" height="35.268" transform="translate(3383.05 667.934)" fill="#feb28b"/>
        <path id="Trazado_21144" data-name="Trazado 21144" d="M3560.694,1371.306s15.319,37.244,22.281,43.226,19.856,9.964,19.856,9.964l17.811,5.616,6.758-79.156Z" transform="translate(-185.603 -722.601)" fill="#f58d6f"/>
        <path id="Trazado_21145" data-name="Trazado 21145" d="M3465.118,849.88l5.887,47.633s9.241-18.041,6.418-30.012C3474.944,856.986,3465.118,849.88,3465.118,849.88Z" transform="translate(-102.109 -284.87)" fill="#feb28b"/>
        <g id="Grupo_10869" data-name="Grupo 10869" transform="translate(3374.866 523.786)">
          <path id="Trazado_21146" data-name="Trazado 21146" d="M3558.912,1042.581c0,3.326,4.463,15.22,9.95,15.22H3618.3c5.484,0,9.949-2.708,9.949-6.033V983.541c0-3.326-4.465-6.034-9.949-6.034h-49.441c-5.487,0-9.95,2.708-9.95,6.034Z" transform="translate(-3558.912 -920.149)" fill="#f58d6f"/>
          <path id="Trazado_21147" data-name="Trazado 21147" d="M3635.043,656.168a9.957,9.957,0,0,0,9.947-9.949V533.735a9.957,9.957,0,0,0-9.947-9.949H3585.6a9.959,9.959,0,0,0-9.951,9.949V646.219a9.959,9.959,0,0,0,9.951,9.949Z" transform="translate(-3573.536 -523.786)" fill="#333"/>
          <g id="Grupo_10858" data-name="Grupo 10858" transform="translate(5.778 3.902)">
            <g id="Grupo_10857" data-name="Grupo 10857" clip-path="url(#clip-path)">
              <g id="Grupo_10856" data-name="Grupo 10856" transform="translate(-8.376 -0.641)">
                <rect id="Rectángulo_2368" data-name="Rectángulo 2368" width="78.392" height="126.112" transform="translate(0.274 0.143)" fill="#e6e7e8"/>
                <g id="Grupo_10855" data-name="Grupo 10855">
                  <path id="Trazado_21148" data-name="Trazado 21148" d="M3538.361,611.9l49.8,49.8a8.369,8.369,0,0,1,0,11.836l-17.106,17.106a34.857,34.857,0,0,0-10.209,24.647v15.214" transform="translate(-3538.361 -604.023)" fill="none" stroke="#fff" stroke-miterlimit="10" stroke-width="3"/>
                  <line id="Línea_119" data-name="Línea 119" x2="50.708" y2="50.708" transform="translate(27.789 0.43)" fill="none" stroke="#fff" stroke-miterlimit="10" stroke-width="3"/>
                  <path id="Trazado_21149" data-name="Trazado 21149" d="M3540.627,920.1l53.574,53.573,25.354-25.354" transform="translate(-3540.341 -873.263)" fill="none" stroke="#fff" stroke-miterlimit="10" stroke-width="3"/>
                  <line id="Línea_120" data-name="Línea 120" y1="54.862" x2="54.862" transform="translate(8.595)" fill="none" stroke="#fff" stroke-miterlimit="10" stroke-width="3"/>
                  <line id="Línea_121" data-name="Línea 121" y1="16.903" x2="16.903" transform="translate(46.125 36.241)" fill="none" stroke="#fff" stroke-miterlimit="10" stroke-width="3"/>
                  <path id="Trazado_21150" data-name="Trazado 21150" d="M3877.3,1343.882l-12.605,12.605,12.892,12.892" transform="translate(-3823.439 -1243.468)" fill="none" stroke="#fff" stroke-miterlimit="10" stroke-width="3"/>
                </g>
              </g>
            </g>
          </g>
          <circle id="Elipse_779" data-name="Elipse 779" cx="4.663" cy="4.663" r="4.663" transform="translate(30.19 62.022) rotate(-45)" fill="#a6a8ab"/>
          <g id="Grupo_10860" data-name="Grupo 10860" transform="translate(26.098 75.367)">
            <path id="Trazado_21151" data-name="Trazado 21151" d="M3773.209,1121.512l-7.436,12.879a3.114,3.114,0,0,0,2.7,4.671h14.871a3.114,3.114,0,0,0,2.7-4.671l-7.436-12.879A3.114,3.114,0,0,0,3773.209,1121.512Z" transform="translate(-3765.351 -1119.955)" fill="#ff3b00"/>
            <g id="Grupo_10859" data-name="Grupo 10859" transform="translate(9.074 4.93)">
              <path id="Trazado_21152" data-name="Trazado 21152" d="M3838.576,1170.415a1.481,1.481,0,1,1,.033,0Zm-.929-4.524-.31-6.38a.536.536,0,0,1,.536-.562h1.474a.537.537,0,0,1,.536.562l-.31,6.38a.536.536,0,0,1-.536.51h-.854A.536.536,0,0,1,3837.646,1165.891Z" transform="translate(-3837.128 -1158.949)" fill="#fff"/>
            </g>
          </g>
          <g id="Grupo_10868" data-name="Grupo 10868" transform="translate(24.132 28.053)">
            <path id="Trazado_21153" data-name="Trazado 21153" d="M3749.8,758.211c0,6.914,12.52,21.573,12.52,21.573s12.52-14.659,12.52-21.573a12.52,12.52,0,0,0-25.04,0Z" transform="translate(-3749.804 -745.691)" fill="#ff3b00"/>
            <path id="Trazado_21154" data-name="Trazado 21154" d="M3848.84,745.691v34.093s12.52-14.659,12.52-21.573A12.52,12.52,0,0,0,3848.84,745.691Z" transform="translate(-3836.32 -745.691)" fill="#e4111c"/>
            <circle id="Elipse_780" data-name="Elipse 780" cx="8.83" cy="8.83" r="8.83" transform="translate(0.032 12.52) rotate(-45)" fill="#fff"/>
            <g id="Grupo_10867" data-name="Grupo 10867" transform="translate(5.336 5.303)">
              <g id="Grupo_10862" data-name="Grupo 10862">
                <path id="Trazado_21155" data-name="Trazado 21155" d="M3806.37,794.034c-.067-.584-.37-1.028-.678-.993-.255.029-.433.382-.447.836l-.827.095c0-.026-.007-.051-.012-.077-.1-.546-.394-.959-.684-.991-.039-.088-.079-.175-.122-.26l.448-.254c.226.316.482.5.621.418.167-.095.1-.527-.147-.967s-.586-.719-.752-.624c-.139.079-.116.392.039.748l-.449.254a4.953,4.953,0,0,0-.879-1.037l.748-.942c.393.229.787.265.947.063.192-.242-.024-.735-.484-1.1s-.99-.466-1.182-.223c-.16.2-.036.577.275.908l-.748.941a4.914,4.914,0,0,0-.981-.537l.17-.486c.378.089.691.056.744-.094.063-.181-.271-.464-.748-.63s-.915-.155-.978.026c-.053.151.17.372.521.538l-.17.486a4.9,4.9,0,0,0-.839-.169.537.537,0,0,0-.272-.254v-.972c.45-.065.781-.282.781-.54,0-.309-.477-.56-1.064-.56s-1.063.251-1.063.56c0,.257.33.474.78.54v.845a2.036,2.036,0,0,0-.308.012c-.551.062-.985.326-1.037.614q-.144.05-.283.109l-.223-.463c.33-.2.528-.448.459-.592-.083-.173-.52-.136-.975.083s-.756.536-.673.709c.069.144.384.142.749.011l.223.464a4.958,4.958,0,0,0-1.109.825l-.893-.805c.252-.378.313-.768.122-.941-.23-.207-.735-.021-1.128.415s-.527.958-.3,1.165c.191.172.574.072.923-.218l.76.685a1.508,1.508,0,0,0-.7.707,1.708,1.708,0,0,0-.219.789l-.25-.074c.071-.382.022-.692-.131-.738-.184-.055-.45.294-.593.778s-.11.921.073.975c.153.046.363-.188.512-.547l.493.146a4.928,4.928,0,0,0-.134.952.7.7,0,0,0-.3.523l-.892.1c-.116-.439-.37-.743-.625-.714-.307.035-.5.537-.435,1.121s.37,1.029.678.994c.255-.029.433-.382.447-.837l.826-.094c0,.025.007.051.013.076.1.546.395.96.685.992.038.088.078.175.122.26l-.449.254c-.226-.316-.482-.5-.621-.418-.167.095-.1.528.147.967s.586.719.753.624c.139-.078.116-.392-.04-.748l.449-.254a4.944,4.944,0,0,0,.879,1.036l-.748.942c-.394-.228-.787-.265-.947-.063-.192.242.025.735.485,1.1s.988.466,1.181.223c.16-.2.037-.577-.275-.908l.748-.941a4.921,4.921,0,0,0,.981.537l-.17.486c-.378-.089-.691-.057-.744.094-.063.181.271.463.748.63s.915.155.978-.026c.053-.151-.17-.372-.521-.538l.17-.486a4.876,4.876,0,0,0,.838.169.534.534,0,0,0,.273.255v.971c-.45.065-.78.282-.78.54,0,.309.476.56,1.063.56s1.064-.251,1.064-.56c0-.258-.331-.474-.781-.54v-.845a2.086,2.086,0,0,0,.307-.012c.552-.062.985-.326,1.037-.613.1-.034.191-.07.284-.109l.223.464c-.33.2-.528.448-.459.592.083.173.52.136.975-.083s.756-.536.674-.709c-.07-.144-.384-.142-.75-.011l-.223-.464a4.944,4.944,0,0,0,1.109-.825l.894.805c-.252.378-.313.768-.122.941.23.207.735.021,1.128-.415s.526-.958.3-1.165c-.191-.173-.574-.072-.923.218l-.761-.686a1.507,1.507,0,0,0,.7-.707,1.714,1.714,0,0,0,.219-.789l.251.074c-.071.382-.023.692.13.738.184.055.45-.293.594-.777s.11-.921-.074-.975c-.153-.045-.363.188-.512.547l-.494-.146a4.859,4.859,0,0,0,.134-.953.7.7,0,0,0,.3-.522l.893-.1c.116.439.37.743.625.714C3806.241,795.12,3806.437,794.618,3806.37,794.034Z" transform="translate(-3792.016 -787.637)" fill="#ff3b00"/>
                <g id="Grupo_10861" data-name="Grupo 10861" clip-path="url(#clip-path-2)">
                  <rect id="Rectángulo_2370" data-name="Rectángulo 2370" width="7.357" height="15.057" transform="translate(7.184 -0.311)" fill="#e4111c"/>
                </g>
              </g>
              <g id="Grupo_10866" data-name="Grupo 10866" transform="translate(3.489 3.156)">
                <circle id="Elipse_781" data-name="Elipse 781" cx="1.238" cy="1.238" r="1.238" transform="translate(1.944 4.061) rotate(-45)" fill="#fff"/>
                <g id="Grupo_10863" data-name="Grupo 10863" transform="translate(2.626)">
                  <path id="Trazado_21157" data-name="Trazado 21157" d="M3842.524,813.168c0,.311-.479.563-1.069.563s-1.07-.252-1.07-.563.479-.563,1.07-.563S3842.524,812.857,3842.524,813.168Z" transform="translate(-3840.385 -812.605)" fill="#fff"/>
                  <ellipse id="Elipse_782" data-name="Elipse 782" cx="1.069" cy="0.563" rx="1.069" ry="0.563" transform="translate(0 6.677)" fill="#fff"/>
                </g>
                <g id="Grupo_10864" data-name="Grupo 10864" transform="translate(0.155 1.117)">
                  <path id="Trazado_21158" data-name="Trazado 21158" d="M3822.186,821.5c.259.171.206.709-.12,1.2s-.8.754-1.059.582-.206-.709.119-1.2S3821.927,821.326,3822.186,821.5Z" transform="translate(-3820.844 -821.444)" fill="#fff"/>
                  <path id="Trazado_21159" data-name="Trazado 21159" d="M3866.263,850.585c.259.171.206.709-.12,1.2s-.8.754-1.059.583-.206-.709.12-1.2S3866,850.413,3866.263,850.585Z" transform="translate(-3859.348 -846.855)" fill="#fff"/>
                </g>
                <g id="Grupo_10865" data-name="Grupo 10865" transform="translate(0 1.46)">
                  <path id="Trazado_21160" data-name="Trazado 21160" d="M3819.838,847.076c.28-.135.715.187.971.72s.237,1.073-.044,1.207-.714-.187-.97-.72S3819.558,847.211,3819.838,847.076Z" transform="translate(-3819.615 -844.152)" fill="#fff"/>
                  <path id="Trazado_21161" data-name="Trazado 21161" d="M3867.428,824.184c.28-.135.714.187.971.719s.236,1.073-.044,1.208-.715-.187-.971-.72S3867.148,824.319,3867.428,824.184Z" transform="translate(-3861.188 -824.154)" fill="#fff"/>
                </g>
              </g>
            </g>
          </g>
        </g>
        <g id="Grupo_10873" data-name="Grupo 10873" transform="translate(3422.172 582.839)">
          <g id="Grupo_10870" data-name="Grupo 10870" transform="translate(5.688 44.093)">
            <path id="Trazado_21162" data-name="Trazado 21162" d="M4010.58,1352.138a8.268,8.268,0,0,1-9.56,6.745l-16.042-2.766a8.268,8.268,0,0,1-6.752-9.558h0a8.267,8.267,0,0,1,9.556-6.744l16.042,2.765a8.284,8.284,0,0,1,6.756,9.557Z" transform="translate(-3978.104 -1339.694)" fill="#feb28b"/>
            <path id="Trazado_21163" data-name="Trazado 21163" d="M3984.978,1403.563l16.042,2.766a8.269,8.269,0,0,0,9.56-6.746l-32.354-5.578A8.268,8.268,0,0,0,3984.978,1403.563Z" transform="translate(-3978.104 -1387.139)" fill="#f58d6f"/>
            <path id="Trazado_21164" data-name="Trazado 21164" d="M4003.09,1369.748l-2.147-.37a6.041,6.041,0,0,1-4.934-6.981h0a6.038,6.038,0,0,1,6.981-4.923l2.146.37c3.288.567,3.865,2.3,3.114,6.663S4006.377,1370.316,4003.09,1369.748Z" transform="translate(-3993.668 -1355.149)" fill="#fff" opacity="0.3"/>
          </g>
          <g id="Grupo_10871" data-name="Grupo 10871" transform="translate(1.866 24.895)">
            <path id="Trazado_21165" data-name="Trazado 21165" d="M3988.207,1197.2a9.366,9.366,0,0,1-9.365,9.371h-21.6a9.365,9.365,0,0,1-9.367-9.371h0a9.367,9.367,0,0,1,9.367-9.365h21.6a9.368,9.368,0,0,1,9.365,9.365Z" transform="translate(-3947.874 -1187.831)" fill="#feb28b"/>
            <path id="Trazado_21166" data-name="Trazado 21166" d="M3957.241,1271.279h21.6a9.366,9.366,0,0,0,9.365-9.371h-40.333A9.365,9.365,0,0,0,3957.241,1271.279Z" transform="translate(-3947.874 -1252.543)" fill="#f58d6f"/>
            <path id="Trazado_21167" data-name="Trazado 21167" d="M3978.524,1221.483h-3.617a6.835,6.835,0,0,1-6.841-6.845h0a6.842,6.842,0,0,1,6.841-6.841h3.617c3.779,0,4.752,1.829,4.752,6.841S3982.3,1221.483,3978.524,1221.483Z" transform="translate(-3965.513 -1205.274)" fill="#fff" opacity="0.3"/>
          </g>
          <g id="Grupo_10872" data-name="Grupo 10872" transform="translate(0 0)">
            <path id="Trazado_21168" data-name="Trazado 21168" d="M3977,998.982a9.979,9.979,0,0,1-7.885,11.707l-24.108,4.7a9.975,9.975,0,0,1-11.7-7.89h0a9.979,9.979,0,0,1,7.886-11.7l24.108-4.7a9.98,9.98,0,0,1,11.7,7.889Z" transform="translate(-3933.114 -990.907)" fill="#feb28b"/>
            <path id="Trazado_21169" data-name="Trazado 21169" d="M3946.289,1071.179l24.108-4.7a9.979,9.979,0,0,0,7.884-11.707l-43.7,8.513A9.975,9.975,0,0,0,3946.289,1071.179Z" transform="translate(-3934.4 -1046.702)" fill="#f58d6f"/>
            <path id="Trazado_21170" data-name="Trazado 21170" d="M3967.644,1056.809l-4.336.846a7.275,7.275,0,0,1-8.546-5.757h0a7.287,7.287,0,0,1,5.76-8.547l4.336-.845c3.948-.769,5.34.949,6.36,6.185S3971.592,1056.04,3967.644,1056.809Z" transform="translate(-3951.907 -1035.83)" fill="#fff" opacity="0.3"/>
          </g>
        </g>
        <g id="Grupo_10875" data-name="Grupo 10875" transform="translate(3365.981 682.271)">
          <path id="Trazado_21171" data-name="Trazado 21171" d="M3502.52,1777.443s10.167,8.965,33,8.965,25.314-8.024,25.314-8.024l14.564,180.833c-26.914,0-60.7-10.937-86.763-23.645Z" transform="translate(-3488.631 -1777.443)" fill="#519a98"/>
          <g id="Grupo_10874" data-name="Grupo 10874" transform="translate(0)" clip-path="url(#clip-path-3)">
            <path id="Trazado_21172" data-name="Trazado 21172" d="M3566.7,1683.712s18.827,56.725,35.8,87.971c22.974,42.289,45.49,80.689,45.49,80.689l.206-35.747-6.037-132.913Z" transform="translate(-3556.829 -1695.561)" fill="#090070" opacity="0.15"/>
          </g>
        </g>
        <g id="Grupo_10878" data-name="Grupo 10878" transform="translate(3385.709 627.989)">
          <path id="Trazado_21174" data-name="Trazado 21174" d="M3733.372,1399.62a11.083,11.083,0,0,0-3.739,2.563,11.262,11.262,0,0,0-12.4-2.569,11.109,11.109,0,0,0-4.1,2.949,11.244,11.244,0,0,0-11.563-1.788,21.145,21.145,0,0,0-4.418,2.509l-17.537-36.243c-2.409-5.761-8.771-22.165-17.7-18.433s-.854,19.42,1.554,25.181l28,67-11.686-2.643c-.078-.038-.157-.075-.234-.1-2.787-1.143-9.285-5.388-18.419-7.841-7.363-1.977-22.129,1.381-14.158,8.328,7.154,6.235,16.194,10.705,21.578,14.863,6.971,5.376,16.331,12.392,22.633,16.651,4.611,3.117,8.964,6.059,12.311,8.6.907.687,2.535,2.063,4.347,3.63a19.175,19.175,0,0,0,19.938,3.188l23.371-9.767c7.938-3.318,11.445-11.464,11.624-20.065.151-7.269.161-11.244-2.917-21.818s-11.734-28.076-11.734-28.076a11.308,11.308,0,0,0-14.755-6.116Z" transform="translate(-3644.681 -1348.061)" fill="#feb28b"/>
          <path id="Trazado_21175" data-name="Trazado 21175" d="M4218.276,2270.635l44.168-18.461-12-28.706-44.168,18.459Z" transform="translate(-4135.281 -2112.801)" fill="#feb28b"/>
          <path id="Trazado_21176" data-name="Trazado 21176" d="M3769.017,1363.878l-1.3-3.106a6.175,6.175,0,0,0-8.089-3.319h0a6.178,6.178,0,0,0-3.315,8.084l1.3,3.107c1.316,3.149,3.178,3.325,7.355,1.58S3770.334,1367.028,3769.017,1363.878Z" transform="translate(-3741.781 -1355.845)" fill="#fff" opacity="0.3"/>
          <path id="Trazado_21177" data-name="Trazado 21177" d="M3657.375,2042.683s.626-4.758-2.811-6.993c-2.738-1.783-6.667-4.09-7.9-4.645s-1.886,2.856-1.886,2.856Z" transform="translate(-3644.768 -1944.651)" fill="#fff" opacity="0.3"/>
          <g id="Grupo_10877" data-name="Grupo 10877" transform="translate(72.973 116.932)">
            <path id="Trazado_21178" data-name="Trazado 21178" d="M4273.737,2273.018s-11.314,17.319-27.085,25.489c-9.562,4.953-24.733,9.117-24.733,9.117l13.406,84.165c24.308,0,55.126-7.321,84.193-23.74Z" transform="translate(-4221.919 -2273.018)" fill="#519a98"/>
            <g id="Grupo_10876" data-name="Grupo 10876" clip-path="url(#clip-path-4)">
              <path id="Trazado_21179" data-name="Trazado 21179" d="M4285.343,2191.862s10.837,76.838,6.693,95.142c-7.907,34.926-56.808-45.262-54.874-11a457.393,457.393,0,0,1-1.216,65.03l121.654-13.175,14.18-40.882Z" transform="translate(-4234.173 -2202.122)" fill="#090070" opacity="0.15"/>
            </g>
          </g>
        </g>
      </g>
      <path id="Trazado_21181" data-name="Trazado 21181" d="M215.064,35.432c134.561,0,168.257,28.21,168.257,109.985S368.864,333.145,234.3,333.145,36.852,209.044,36.852,127.269,80.5,35.432,215.064,35.432Z" transform="translate(1235.852 3050.101) rotate(180)" fill="rgba(152,152,152,0.12)"/>
    </g>
    <path id="Trazado_21182" data-name="Trazado 21182" d="M32.568.977q-11.621,0-19.58-5.4A21.639,21.639,0,0,1,3.467-19.531L18.6-23a12.853,12.853,0,0,0,4.663,8.911,15.473,15.473,0,0,0,9.888,3.1,12.772,12.772,0,0,0,7.715-2.173A7.328,7.328,0,0,0,43.8-19.58a6.848,6.848,0,0,0-2.49-5.225A16.272,16.272,0,0,0,36.353-28q-2.466-.952-7.935-2.612-.732-.244-1.074-.342-2.783-.879-4.492-1.465t-4.224-1.636a28.127,28.127,0,0,1-4.1-2.051,30.03,30.03,0,0,1-3.394-2.539A13.3,13.3,0,0,1,8.3-41.895a17.249,17.249,0,0,1-1.709-4.053,17.886,17.886,0,0,1-.684-5.029A18.888,18.888,0,0,1,9.2-62.085a20.186,20.186,0,0,1,8.887-7.08,32.344,32.344,0,0,1,12.72-2.368,40.181,40.181,0,0,1,9.2,1.025,32.239,32.239,0,0,1,8.228,3.149,20.154,20.154,0,0,1,6.567,5.811,21.848,21.848,0,0,1,3.735,8.569l-14.16,3.516q-1.9-10.107-12.7-10.107a13.9,13.9,0,0,0-7.861,2.051,6.948,6.948,0,0,0-3.076,6.2q0,3.857,5.127,6.25A76.4,76.4,0,0,0,35.693-41.7q2.881.879,4.688,1.465t4.541,1.709a31.554,31.554,0,0,1,4.443,2.173,32.88,32.88,0,0,1,3.711,2.71,14.594,14.594,0,0,1,3.149,3.516,19.01,19.01,0,0,1,1.929,4.37,18.264,18.264,0,0,1,.781,5.444,21.391,21.391,0,0,1-1.416,7.959,17.321,17.321,0,0,1-3.882,6.006A22.542,22.542,0,0,1,47.8-2.222,28.307,28.307,0,0,1,40.625.22,41.282,41.282,0,0,1,32.568.977ZM72.461,0V-70.557H87.109V0Z" transform="translate(736 2795)" fill="#f56b6b"/>
    <path id="Trazado_21183" data-name="Trazado 21183" d="M57.324-70.557h14.6V0H54.98L23.73-50.439V0H9.131V-70.557H25.879L57.324-20.41ZM121.436.977a38.353,38.353,0,0,1-18.53-4.419,32.034,32.034,0,0,1-12.866-12.72A38.254,38.254,0,0,1,85.352-35.3a38.218,38.218,0,0,1,4.688-19.165,31.912,31.912,0,0,1,12.866-12.671,38.525,38.525,0,0,1,18.53-4.395,38.383,38.383,0,0,1,18.506,4.395,31.954,31.954,0,0,1,12.842,12.671A38.218,38.218,0,0,1,157.471-35.3a38.254,38.254,0,0,1-4.687,19.141,32.034,32.034,0,0,1-12.866,12.72A38.25,38.25,0,0,1,121.436.977ZM106.006-18.6a20.724,20.724,0,0,0,15.43,6.152,20.681,20.681,0,0,0,15.43-6.177Q142.92-24.8,142.92-35.3q0-10.449-6.055-16.6a20.724,20.724,0,0,0-15.43-6.152,20.724,20.724,0,0,0-15.43,6.152q-6.055,6.152-6.055,16.6Q99.951-24.8,106.006-18.6Z" transform="translate(965 2795)" fill="#2643a2"/>
  </g>
</svg>
