<svg xmlns="http://www.w3.org/2000/svg" width="77" height="77" viewBox="0 0 77 77">
  <g id="Grupo_18758" data-name="Grupo 18758" transform="translate(-669 -3673)">
    <g id="Grupo_18690" data-name="Grupo 18690" transform="translate(23 -3)">
      <g id="Elipse_1093" data-name="Elipse 1093" transform="translate(646 3676)" fill="#f56b6b" stroke="#2643a2" stroke-width="3">
        <circle cx="38.5" cy="38.5" r="38.5" stroke="none"/>
        <circle cx="38.5" cy="38.5" r="37" fill="none"/>
      </g>
      <g id="Grupo_18625" data-name="Grupo 18625" transform="translate(222.706 3403.007)">
        <path id="Trazado_34795" data-name="Trazado 34795" d="M443.954,323.183a2.648,2.648,0,0,1-1.877-.78h0a2.662,2.662,0,0,1-.783-1.887h0v-2.188a2.663,2.663,0,0,1,1.444-2.371h0l14.13-7.245.8,1.549-14.134,7.249a.917.917,0,0,0-.491.819h0v2.188a.911.911,0,0,0,.269.655h0a.918.918,0,0,0,.645.265H480.38a.917.917,0,0,0,.655-.275h0a.931.931,0,0,0,.259-.635h0V320.5h0l-.085-2.2a.9.9,0,0,0-.465-.776h0L464.3,308.358l.02-4.055.606-.193a4.75,4.75,0,0,0,3.3-4.527h0a4.762,4.762,0,0,0-4.756-4.756h0a4.761,4.761,0,0,0-4.753,4.756h-1.743a6.5,6.5,0,0,1,6.5-6.5h0a6.5,6.5,0,0,1,6.5,6.5h0a6.494,6.494,0,0,1-3.908,5.961h0l0,1.795L481.592,316a2.646,2.646,0,0,1,1.363,2.247h0l.082,2.2a.568.568,0,0,1,0,.075h0a2.645,2.645,0,0,1-.75,1.847h0a2.651,2.651,0,0,1-1.906.809H443.954Z" fill="#fff"/>
      </g>
    </g>
  </g>
</svg>
