<svg xmlns="http://www.w3.org/2000/svg" width="77" height="77" viewBox="0 0 77 77">
  <g id="Grupo_18766" data-name="Grupo 18766" transform="translate(-1203 -5751)">
    <g id="Grupo_18704" data-name="Grupo 18704" transform="translate(-18 -118)">
      <g id="Elipse_1090" data-name="Elipse 1090" transform="translate(1221 5869)" fill="#f56b6b" stroke="#2643a2" stroke-width="3">
        <circle cx="38.5" cy="38.5" r="38.5" stroke="none"/>
        <circle cx="38.5" cy="38.5" r="37" fill="none"/>
      </g>
      <g id="Grupo_18685" data-name="Grupo 18685" transform="translate(-1501.419 3878.183)">
        <g id="Grupo_18679" data-name="Grupo 18679" transform="translate(2770.328 2022.315)">
          <path id="Trazado_34814" data-name="Trazado 34814" d="M2753.613,2041.046h-4.453a.887.887,0,0,1,0-1.773h2.313l-2.555-2.558a.875.875,0,0,1-.26-.627v-8.03c0-.464.2-.825.646-.869.2-.119,1.081-.784,2.267-3.457,1.461-3.283,1.435-4.478,1.435-4.486a.971.971,0,0,1,.159-.59l2.873-3.959a.886.886,0,1,1,1.434,1.04l-2.7,3.737a16.155,16.155,0,0,1-1.578,4.98c-1.126,2.533-2.115,3.633-2.766,4.114v7.153l3.814,3.807a.907.907,0,0,1,.191.972A.885.885,0,0,1,2753.613,2041.046Z" transform="translate(-2748.275 -2014.329)" fill="#fff"/>
        </g>
        <g id="Grupo_18680" data-name="Grupo 18680" transform="translate(2741.732 2034.261)">
          <path id="Trazado_34815" data-name="Trazado 34815" d="M2767.038,2033.5h-3.826a.874.874,0,0,1-.657-.293l-1.92-2.138a.914.914,0,0,1-.223-.589v-5.969l-1.167-2.751c-1.179.117-3.376.185-6.412.185a13.765,13.765,0,0,1-6.37-1.265l-.071-.033c-.583,1.61-2.563,3.218-3.432,3.864v4.095l3.028,3.422a.884.884,0,0,1-.665,1.472h-3.481a.89.89,0,0,1-.684-.315l-2.251-2.68a.894.894,0,0,1-.211-.573v-4.749l-.89-2.3a.886.886,0,0,1,1.65-.649l.959,2.463a1.006,1.006,0,0,1,.063.323v4.592l1.776,2.118h1.1l-1.937-2.2a.873.873,0,0,1-.223-.589v-4.882a.9.9,0,0,1,.378-.731c1.053-.725,2.845-2.276,3.177-3.354a1.672,1.672,0,0,1,.833-1.138,1.9,1.9,0,0,1,1.621.228,12.16,12.16,0,0,0,5.632,1.1,45.158,45.158,0,0,0,6.707-.236.89.89,0,0,1,1.075.5l1.5,3.554a.886.886,0,0,1,.071.345v5.808l1.422,1.586H2765l-1.55-1.667a.868.868,0,0,1-.233-.6v-5.805a.885.885,0,1,1,1.77,0v5.458l2.7,2.9a.89.89,0,0,1,.16.961A.879.879,0,0,1,2767.038,2033.5Z" transform="translate(-2737.744 -2018.728)" fill="#fff"/>
        </g>
        <g id="Grupo_18681" data-name="Grupo 18681" transform="translate(2736.989 2012.208)">
          <path id="Trazado_34816" data-name="Trazado 34816" d="M2744.5,2047.431h-4.369a.894.894,0,0,1-.73-.377l-1.774-2.545a.9.9,0,0,1-.159-.486c-.006-.242-.141-5.938,0-7.866.024-.369.073-.739.127-1.127a9.671,9.671,0,0,0-1-6.349c-1.075-2.224-.676-5.4,1.013-8.086a8.366,8.366,0,0,1,6.888-4.247h21.032c2.851,0,4.428-1.653,5.949-3.253,1.219-1.276,2.366-2.487,4.021-2.487,3.031,0,4.951,1.076,5.871,3.277a4.971,4.971,0,0,0,1.132,1.445,4.8,4.8,0,0,1,1.8,3.408c0,1.464-.913,3.207-5.252,3.207a4.975,4.975,0,0,1-3.853-1.806.887.887,0,0,1,1.42-1.064,3.161,3.161,0,0,0,2.433,1.1c2.305,0,3.479-.483,3.479-1.434,0-.814-.489-1.352-1.287-2.161a6.351,6.351,0,0,1-1.513-2c-.448-1.081-1.3-2.191-4.234-2.191-.893,0-1.707.858-2.737,1.939-1.613,1.694-3.625,3.8-7.233,3.8H2744.5a6.607,6.607,0,0,0-5.384,3.419c-1.353,2.151-1.722,4.711-.921,6.371a11.259,11.259,0,0,1,1.157,7.353c-.043.353-.09.687-.116,1.019-.114,1.615-.025,6.261,0,7.432l1.357,1.944h3.907a.887.887,0,0,1,0,1.773Z" transform="translate(-2735.997 -2010.607)" fill="#fff"/>
        </g>
        <g id="Grupo_18682" data-name="Grupo 18682" transform="translate(2775.602 2009.674)">
          <path id="Trazado_34817" data-name="Trazado 34817" d="M2753.418,2014.274a.892.892,0,0,1-.774-.456l-.54-.975-.15.5a.887.887,0,1,1-1.7-.5l.743-2.536a.868.868,0,0,1,.755-.63.883.883,0,0,1,.872.445l1.575,2.832a.88.88,0,0,1-.343,1.206A.919.919,0,0,1,2753.418,2014.274Z" transform="translate(-2750.217 -2009.674)" fill="#fff"/>
        </g>
        <g id="Grupo_18683" data-name="Grupo 18683" transform="translate(2770.685 2011.085)">
          <path id="Trazado_34818" data-name="Trazado 34818" d="M2751.012,2015.11a.887.887,0,0,1-.776-.459l-1.722-3.142a.893.893,0,0,1,.133-1.037.881.881,0,0,1,1.021-.193l3.44,1.6a.887.887,0,0,1-.752,1.608l-.985-.459.421.768a.886.886,0,0,1-.356,1.209A.845.845,0,0,1,2751.012,2015.11Z" transform="translate(-2748.406 -2010.193)" fill="#fff"/>
        </g>
        <g id="Grupo_18684" data-name="Grupo 18684" transform="translate(2735.419 2017.916)">
          <path id="Trazado_34819" data-name="Trazado 34819" d="M2738.56,2019.4a3.35,3.35,0,0,1,0-6.688,3.174,3.174,0,0,1,3.034,2.476.888.888,0,1,1-1.722.432,1.411,1.411,0,0,0-1.312-1.138,1.588,1.588,0,0,0,0,3.145.887.887,0,0,1,0,1.773Z" transform="translate(-2735.419 -2012.709)" fill="#fff"/>
        </g>
      </g>
    </g>
  </g>
</svg>
