<svg xmlns="http://www.w3.org/2000/svg" width="77" height="77" viewBox="0 0 77 77">
  <g id="Grupo_18695" data-name="Grupo 18695" transform="translate(-1186 -4198)">
    <g id="Elipse_1097" data-name="Elipse 1097" transform="translate(1186 4198)" fill="#f56b6b" stroke="#2643a2" stroke-width="3">
      <circle cx="38.5" cy="38.5" r="38.5" stroke="none"/>
      <circle cx="38.5" cy="38.5" r="37" fill="none"/>
    </g>
    <g id="Grupo_18673" data-name="Grupo 18673" transform="translate(1061.253 2183.829)">
      <path id="Trazado_34809" data-name="Trazado 34809" d="M164.886,2028.138a1.745,1.745,0,0,0-2.593,0c-2.96,3.232-17.79,19.487-19.092,21.586a10.771,10.771,0,0,0-1.852,6.4,11.949,11.949,0,0,0,17.145,10.771c-1.568,3.148-3.468,5.421-5.188,5.421a1.756,1.756,0,1,0,0,3.513h20.464a1.756,1.756,0,0,0,0-3.513c-1.584,0-3.525-2.172-5.168-5.409a11.953,11.953,0,0,0,17.124-10.783,10.55,10.55,0,0,0-1.849-6.386C182.461,2047.413,166.681,2030.1,164.886,2028.138Zm8.883,38.185a10.2,10.2,0,0,1-9.645-6.9c1.38,6.273,5.173,14.642,9.645,14.642H153.306c4.54,0,8.259-8.369,9.639-14.642a10.192,10.192,0,0,1-19.836-3.306,9.079,9.079,0,0,1,1.589-5.469c1.279-2.067,18.89-21.33,18.89-21.33s17.423,19.084,18.788,21.33a8.825,8.825,0,0,1,1.595,5.469A10.207,10.207,0,0,1,173.769,2066.323Z" fill="#fff"/>
    </g>
  </g>
</svg>
