<svg xmlns="http://www.w3.org/2000/svg" width="77" height="77" viewBox="0 0 77 77">
  <g id="Grupo_18694" data-name="Grupo 18694" transform="translate(-656 -4198)">
    <g id="Elipse_1096" data-name="Elipse 1096" transform="translate(656 4198)" fill="#f56b6b" stroke="#2643a2" stroke-width="3">
      <circle cx="38.5" cy="38.5" r="38.5" stroke="none"/>
      <circle cx="38.5" cy="38.5" r="37" fill="none"/>
    </g>
    <path id="Trazado_34804" data-name="Trazado 34804" d="M508.147,424.828v1.014h-6.838V428.1h15.7v-2.255h-6.6v-1.014h0a13.837,13.837,0,0,0-27.675,0v32.621h2.251V424.828a11.582,11.582,0,0,1,23.164,0Zm-.489,11.842c-1.121-2-2.242-3.578-2.251-3.6a1.135,1.135,0,0,0-1.856.023c-.009.018-1.076,1.578-2.161,3.578-1.072,2.027-2.2,4.385-2.237,6.466a5.2,5.2,0,0,0,1.919,4.237,5.6,5.6,0,0,0,3.408,1.144,5.95,5.95,0,0,0,3.484-1.157,5.074,5.074,0,0,0,2.031-4.233C509.963,441.055,508.77,438.71,507.658,436.67Zm-1.04,8.887a3.864,3.864,0,0,1-2.139.7,3.442,3.442,0,0,1-2.022-.664,2.892,2.892,0,0,1-1.045-2.462c-.023-1.188.937-3.529,1.973-5.394.386-.722.78-1.4,1.112-1.946.359.551.78,1.242,1.2,1.986,1.081,1.865,2.085,4.215,2.049,5.345A2.813,2.813,0,0,1,506.618,445.557Zm11.286.054c-1.13-2.013-2.242-3.583-2.251-3.605a1.129,1.129,0,0,0-1.856.022,40.485,40.485,0,0,0-2.152,3.583c-1.072,2.018-2.21,4.376-2.242,6.452a5.216,5.216,0,0,0,1.906,4.246,5.706,5.706,0,0,0,3.417,1.134,5.99,5.99,0,0,0,3.484-1.143,5.1,5.1,0,0,0,2.036-4.242C520.217,449.982,519.016,447.633,517.9,445.611Zm-1.04,8.878a3.818,3.818,0,0,1-2.139.708,3.456,3.456,0,0,1-2.022-.673,2.867,2.867,0,0,1-1.04-2.462c-.027-1.179.937-3.524,1.959-5.39.395-.726.789-1.4,1.13-1.946.35.556.772,1.238,1.193,1.986,1.067,1.861,2.08,4.21,2.049,5.345A2.82,2.82,0,0,1,516.863,454.489Z" transform="translate(193.755 3800.912)" fill="#fff"/>
  </g>
</svg>
