<svg xmlns="http://www.w3.org/2000/svg" width="554.481" height="323.992" viewBox="0 0 554.481 323.992">
  <g id="Grupo_11970" data-name="Grupo 11970" transform="translate(-683 -6438.668)">
    <g id="Grupo_11968" data-name="Grupo 11968" transform="translate(375.556 6153.919)">
      <g id="Grupo_11890" data-name="Grupo 11890" transform="translate(307.444 284.749)" opacity="0.6">
        <g id="Grupo_11883" data-name="Grupo 11883" transform="translate(0 0)">
          <g id="Grupo_11881" data-name="Grupo 11881">
            <circle id="Elipse_793" data-name="Elipse 793" cx="31.276" cy="31.276" r="31.276" transform="translate(0 44.231) rotate(-45)" fill="#e2eef7"/>
            <path id="Trazado_23659" data-name="Trazado 23659" d="M395.416,412.2A33.482,33.482,0,1,0,428.9,445.682,33.52,33.52,0,0,0,395.416,412.2Zm0,62.553a29.071,29.071,0,1,1,29.071-29.071A29.1,29.1,0,0,1,395.416,474.753Z" transform="translate(-351.184 -401.45)" fill="#006394"/>
          </g>
          <g id="Grupo_11882" data-name="Grupo 11882" transform="translate(31.174 30.688)">
            <path id="Trazado_23660" data-name="Trazado 23660" d="M486.745,519.09l-8.009,6.145-9.59-11.215a2.082,2.082,0,0,0-3.2,2.659l10.777,12.646a2.081,2.081,0,0,0,2.742.412l9.563-7.163a2.082,2.082,0,0,0-2.28-3.484Z" transform="translate(-465.463 -513.267)" fill="#74b6e2"/>
          </g>
        </g>
        <g id="Grupo_11886" data-name="Grupo 11886" transform="translate(41.719 11.153)">
          <g id="Grupo_11884" data-name="Grupo 11884">
            <line id="Línea_128" data-name="Línea 128" y2="9.105" transform="translate(2.512 0)" fill="#fff"/>
            <rect id="Rectángulo_2406" data-name="Rectángulo 2406" width="5.025" height="9.105" fill="#006394"/>
          </g>
          <g id="Grupo_11885" data-name="Grupo 11885" transform="translate(0 57.052)">
            <line id="Línea_129" data-name="Línea 129" y2="9.105" transform="translate(2.512 0)" fill="#fff"/>
            <rect id="Rectángulo_2407" data-name="Rectángulo 2407" width="5.025" height="9.105" fill="#006394"/>
          </g>
        </g>
        <g id="Grupo_11889" data-name="Grupo 11889" transform="translate(11.153 41.719)">
          <g id="Grupo_11887" data-name="Grupo 11887" transform="translate(57.052)">
            <line id="Línea_130" data-name="Línea 130" x1="9.105" transform="translate(0 2.512)" fill="#fff"/>
            <rect id="Rectángulo_2408" data-name="Rectángulo 2408" width="9.105" height="5.024" transform="translate(0)" fill="#006394"/>
          </g>
          <g id="Grupo_11888" data-name="Grupo 11888">
            <line id="Línea_131" data-name="Línea 131" x1="9.105" transform="translate(0 2.512)" fill="#fff"/>
            <rect id="Rectángulo_2409" data-name="Rectángulo 2409" width="9.105" height="5.024" fill="#006394"/>
          </g>
        </g>
      </g>
      <g id="Grupo_11910" data-name="Grupo 11910" transform="translate(318.194 321.113)">
        <g id="Grupo_11909" data-name="Grupo 11909" transform="translate(0 0)">
          <g id="Grupo_11906" data-name="Grupo 11906">
            <g id="Grupo_11905" data-name="Grupo 11905">
              <path id="Trazado_23661" data-name="Trazado 23661" d="M1302.761,1524.6h-71.573a4.95,4.95,0,0,0-4.949,4.949h81.472A4.95,4.95,0,0,0,1302.761,1524.6Z" transform="translate(-1055.728 -1330.762)" fill="#082640"/>
              <g id="Grupo_11904" data-name="Grupo 11904">
                <g id="Grupo_11895" data-name="Grupo 11895" transform="translate(0 31.606)">
                  <g id="Grupo_11892" data-name="Grupo 11892" transform="translate(198.686)">
                    <rect id="Rectángulo_2410" data-name="Rectángulo 2410" width="31.174" height="51.598" transform="translate(85.46 111.629)" fill="#051829"/>
                    <rect id="Rectángulo_2411" data-name="Rectángulo 2411" width="202.093" height="128.996" rx="12.984" fill="#082640"/>
                    <rect id="Rectángulo_2412" data-name="Rectángulo 2412" width="188.118" height="79.059" transform="translate(6.987 10.239)" fill="#0c8cd6"/>
                    <rect id="Rectángulo_2413" data-name="Rectángulo 2413" width="188.118" height="19.477" transform="translate(6.987 86.944)" fill="#104363"/>
                    <rect id="Rectángulo_2414" data-name="Rectángulo 2414" width="188.118" height="6.694" transform="translate(6.987 5.375)" fill="#0e426e"/>
                    <path id="Trazado_23662" data-name="Trazado 23662" d="M1785.176,1518.737h-52.782a3.708,3.708,0,0,0-3.708,3.708v2.461h60.2v-2.461A3.708,3.708,0,0,0,1785.176,1518.737Z" transform="translate(-1657.739 -1357.66)" fill="#082640"/>
                    <g id="Grupo_11891" data-name="Grupo 11891" transform="translate(85.49 92.458)">
                      <circle id="Elipse_794" data-name="Elipse 794" cx="3.512" cy="3.512" r="3.512" transform="matrix(0.973, -0.23, 0.23, 0.973, 0, 1.614)" fill="#fff"/>
                      <circle id="Elipse_795" data-name="Elipse 795" cx="3.512" cy="3.512" r="3.512" transform="matrix(0.973, -0.23, 0.23, 0.973, 11.332, 1.614)" fill="#fff"/>
                      <circle id="Elipse_796" data-name="Elipse 796" cx="3.512" cy="3.512" r="3.512" transform="matrix(0.973, -0.23, 0.23, 0.973, 22.663, 1.614)" fill="#ea5a2a"/>
                    </g>
                  </g>
                  <g id="Grupo_11894" data-name="Grupo 11894" transform="translate(0 167.061)">
                    <g id="Grupo_11893" data-name="Grupo 11893" transform="translate(16.23)">
                      <path id="Trazado_23663" data-name="Trazado 23663" d="M2910,1638.016l-7.642-88.948h-24.792l12.781,88.948Z" transform="translate(-2397.511 -1549.068)" fill="#595858"/>
                      <path id="Trazado_23664" data-name="Trazado 23664" d="M2874.1,1638.016l-7.642-88.948h-24.792l12.781,88.948Z" transform="translate(-2368.698 -1549.068)" fill="#707070"/>
                      <path id="Trazado_23665" data-name="Trazado 23665" d="M503.249,1638.016l12.781-88.948H494.06a9.708,9.708,0,0,1-2.747,0l-8.409,88.948Z" transform="translate(-475.269 -1549.068)" fill="#595858"/>
                      <rect id="Rectángulo_2415" data-name="Rectángulo 2415" width="487.018" height="61.791" transform="translate(22.977)" fill="#595858"/>
                      <path id="Trazado_23666" data-name="Trazado 23666" d="M831.284,1638.016l12.781-88.948-29.7,2.515a9.717,9.717,0,0,1-2.747,0l-7.578,86.433Z" transform="translate(-733.053 -1549.068)" fill="#595858"/>
                      <path id="Trazado_23667" data-name="Trazado 23667" d="M2566.9,1638.016l-7.642-88.948h-24.792l12.781,88.948Z" transform="translate(-2122.095 -1549.068)" fill="#595858"/>
                      <path id="Trazado_23668" data-name="Trazado 23668" d="M2531,1638.016l-7.642-88.948h-24.792l12.781,88.948Z" transform="translate(-2093.282 -1549.068)" fill="#707070"/>
                      <path id="Trazado_23669" data-name="Trazado 23669" d="M463.821,1638.016l12.781-88.948h-21.97a9.706,9.706,0,0,1-2.746,0l-7.682,88.948Z" transform="translate(-444.204 -1549.068)" fill="#707070"/>
                    </g>
                    <rect id="Rectángulo_2416" data-name="Rectángulo 2416" width="433.229" height="61.791" transform="translate(18.581)" fill="#707070"/>
                    <rect id="Rectángulo_2417" data-name="Rectángulo 2417" width="507.163" height="20.957" transform="translate(18.581)" opacity="0.1"/>
                    <rect id="Rectángulo_2418" data-name="Rectángulo 2418" width="539.418" height="15.882" transform="translate(4.313)" fill="#dbdbdb"/>
                    <rect id="Rectángulo_2419" data-name="Rectángulo 2419" width="470.743" height="15.882" fill="#fff"/>
                  </g>
                </g>
                <g id="Grupo_11899" data-name="Grupo 11899" transform="translate(27.755)">
                  <g id="Grupo_11896" data-name="Grupo 11896" transform="translate(41.132 81.265)">
                    <path id="Trazado_23670" data-name="Trazado 23670" d="M1745.226,1502.3c-3.013-1.445-15.346,1.239-19.488,3.51a4.244,4.244,0,0,0-2.494,3.648,1.641,1.641,0,0,0,1.556,1.771h25.413a1.722,1.722,0,0,0,1.26-2.709C1749.86,1506.073,1747.092,1503.2,1745.226,1502.3Z" transform="translate(-1523.571 -1393.8)" fill="#ebf0f5"/>
                    <path id="Trazado_23671" data-name="Trazado 23671" d="M1719.384,1457.041c-1.333-.933-9.174-3.239-14.515-3.512-4.5-.23-10.3,3.746-10.3,3.746-3.043,3.746-3.884,7.477.208,11.486,1.9,1.866,8.779,1.938,13.6.688,5.541-1.434,9.033-4.391,10.126-4.7,2.046-.573,8.033,6.443,10.36,3.436C1729.433,1467.455,1721.839,1458.759,1719.384,1457.041Z" transform="translate(-1498.484 -1354.967)" fill="#d68b61"/>
                    <path id="Trazado_23672" data-name="Trazado 23672" d="M772.525,953.965c-27.834,0-54.133.012-57.764,31.839-2.62,22.968-4.364,78.525-3.346,98.483.8,15.7,20.869,56.184,20.869,56.184l72.143-1.5s5.2-65.674,9.833-87.148c5.151-23.88,15.6-60.821,15.6-60.821C823.77,971.337,816.539,953.965,772.525,953.965Z" transform="translate(-711.12 -953.965)" fill="#ea5b13"/>
                    <path id="Trazado_23673" data-name="Trazado 23673" d="M1246.484,1116.419l-.056-.013-.394-.1c-.262-.065-.652-.158-1.161-.273-1.019-.235-2.514-.581-4.418-.994s-4.218-.9-6.872-1.433c-1.326-.271-2.738-.55-4.225-.839s-3.052-.588-4.681-.9-3.328-.618-5.082-.95l-5.425-.991-5.7-1.028c-1.94-.345-3.914-.7-5.9-1.069s-3.989-.73-5.927-1.131c-.609-.126-1.211-.249-1.793-.375-.289-.329-.623-.735-.96-1.156-.909-1.154-1.9-2.554-2.9-4.081s-1.986-3.168-2.953-4.866-1.935-3.441-2.865-5.214-1.847-3.564-2.734-5.359-1.748-3.593-2.6-5.37c-1.68-3.565-3.276-7.063-4.758-10.41q-1.121-2.507-2.152-4.892t-1.988-4.6c-1.27-2.953-2.417-5.675-3.434-8.086l-2.616-6.245-2.23-5.335-.094-.226a16,16,0,0,0-29.767,11.717l.594,1.618c.388,1.019.945,2.5,1.682,4.359,1.478,3.721,3.66,8.978,6.509,15.213.716,1.557,1.465,3.179,2.261,4.852s1.637,3.4,2.511,5.167c1.768,3.535,3.684,7.253,5.795,11.076q1.572,2.873,3.3,5.812c1.151,1.959,2.343,3.945,3.614,5.934s2.588,4,3.994,6.019,2.911,4.038,4.541,6.078a72.183,72.183,0,0,0,5.5,6.178c1.067,1.049,2.171,2.094,3.494,3.17.164.134.313.263.49.4l.526.406c.354.27.689.532,1.092.808l.583.405.292.2.733.487.045.024.308.183q.365.214.742.408c.206.109.606.3.659.32q.319.142.644.272l.26.1.237.087.238.084.188.062.367.116.306.089.291.081.249.063c.651.162,1.127.252,1.572.332s.821.135,1.2.188c.733.1,1.394.176,2.031.241,1.267.126,2.442.222,3.595.293,2.3.137,4.49.23,6.635.3s4.233.1,6.272.125,4.027.023,5.959.015c3.865-.023,7.507-.088,10.869-.191,1.681-.054,3.29-.1,4.822-.172s2.982-.128,4.347-.2c2.729-.138,5.109-.3,7.069-.437s3.5-.282,4.555-.378c.526-.045.93-.086,1.2-.115l.417-.043a8.044,8.044,0,0,0,1.091-15.818Z" transform="translate(-1048.822 -1015.555)" fill="#ea5b13"/>
                    <path id="Trazado_23674" data-name="Trazado 23674" d="M896.984,1058.6a164.309,164.309,0,0,1-27.684-2.881,57.122,57.122,0,0,1-11.006-3.037,49.722,49.722,0,0,1-5.058-2.221,30.677,30.677,0,0,1-4.257-3.115,22.449,22.449,0,0,1-3.6-3.676,62.8,62.8,0,0,1-7.469-11.867c-1.573-3.266-3.017-6.592-4.581-9.862-3.574-7.473-6.334-15.358-9.494-23.021-3.26-7.57-9.385-35.026-33.6-39.532a129.683,129.683,0,0,0-16.717-4.846,10.246,10.246,0,0,1-1.7-.574c-27.566,0-53.445.286-57.044,31.839-2.62,22.968-4.365,78.525-3.346,98.483.8,15.7,20.869,56.184,20.869,56.184l72.143-1.5s1.647-20.789,3.911-42.8c.712-16.16,1.155-32.331,1.913-48.491.328-7,.644-14,.871-21.01q1.583,3.054,3.327,6.228,1.572,2.873,3.3,5.812c1.152,1.959,2.344,3.945,3.614,5.934s2.588,4,3.994,6.02,2.911,4.038,4.541,6.078a72.228,72.228,0,0,0,5.5,6.178c1.067,1.049,2.171,2.094,3.494,3.17.164.134.313.263.49.4l.526.406c.354.27.689.531,1.092.808l.583.405.293.2.733.487.045.024.308.183q.365.214.742.408c.206.109.606.3.659.32q.319.142.644.272l.26.1.237.087.238.084.188.063.367.116.306.089.291.081.249.063c.651.162,1.126.252,1.572.332s.821.135,1.2.188c.733.1,1.394.176,2.031.241,1.267.126,2.442.222,3.6.293,2.3.137,4.489.23,6.635.3s4.233.1,6.271.125,4.027.023,5.959.016c3.865-.024,7.507-.088,10.869-.191,1.681-.054,3.29-.1,4.822-.172s2.983-.128,4.347-.2c2.729-.138,5.108-.3,7.068-.437s3.5-.282,4.555-.378c.526-.045.93-.086,1.2-.115l.417-.042a8.043,8.043,0,0,0,5.876-12.47C908.047,1058.52,902.516,1058.678,896.984,1058.6Z" transform="translate(-711.12 -953.965)" fill="#db5512"/>
                  </g>
                  <path id="Trazado_23675" data-name="Trazado 23675" d="M695.214,1894.076H853.076c-7.143-13.4-21.607-16.718-21.607-16.718s-71.173-17.325-136.257-4.682c-5.221,1.014,0,21.4,0,21.4C695.212,1894.118,695.214,1894.034,695.214,1894.076Z" transform="translate(-655.356 -1606.46)" fill="#006394"/>
                  <path id="Trazado_23676" data-name="Trazado 23676" d="M695.214,1894.076h94.927a16.829,16.829,0,0,1-3.322-2.916,22.64,22.64,0,0,1-4.5-7.622,22.229,22.229,0,0,1-1.079-6.133,11.456,11.456,0,0,1,2.541-7.529c-25.381-2.449-57.663-3.2-88.574,2.8-5.221,1.014,0,21.4,0,21.4C695.212,1894.118,695.214,1894.034,695.214,1894.076Z" transform="translate(-655.356 -1606.461)" fill="#005a87"/>
                  <g id="Grupo_11897" data-name="Grupo 11897" transform="translate(79.573)">
                    <path id="Trazado_23677" data-name="Trazado 23677" d="M948.019,822.494h31.127l2.7-22.442-29.19-2.6Z" transform="translate(-939.724 -747.066)" fill="#d68b61"/>
                    <path id="Trazado_23678" data-name="Trazado 23678" d="M938.128,569.614a29.7,29.7,0,0,0,4.709,59.2l.036,0a3.5,3.5,0,0,1,3.8,3.2l.246,3.1a3.488,3.488,0,0,0,3.393,3.215c3.705.083,9.6-.2,11.538-2.655,7.141-9.03,10.389-34.039,10.513-36.307C973.92,570.978,954.246,568.332,938.128,569.614Z" transform="translate(-910.171 -563.97)" fill="#d68b61"/>
                    <path id="Trazado_23679" data-name="Trazado 23679" d="M1103.378,905.294a26.518,26.518,0,0,1-6.63-1.267c.292,1.612,1.7,3.022,2.5,2.946,3.63-.346,9.407-.194,11.439-2.54a34.282,34.282,0,0,1-5.34.815A13.792,13.792,0,0,1,1103.378,905.294Z" transform="translate(-1059.112 -832.614)" fill="#c4835e"/>
                    <path id="Trazado_23680" data-name="Trazado 23680" d="M1115.019,730.8q-.344-.362-.708-.7a21.469,21.469,0,0,0-1.876-1.059c-.77-.28-1.555-.536-2.348-.763-.423.431-.846.863-1.281,1.282-1.292,1.242-2.621,2.445-3.934,3.664-.169.157-.334.317-.5.479,1.439,1.25,1.362,3.86,4.868,5.9a.326.326,0,0,0,.033.012c4.808,2.169,3.812-3.126,4.716-4.215a25.464,25.464,0,0,0,1.6-2.569q.064-.21.121-.423v-.029q-.1-.375-.218-.745Q1115.271,731.213,1115.019,730.8Z" transform="translate(-1065.234 -691.538)" fill="#c4835e"/>
                    <path id="Trazado_23681" data-name="Trazado 23681" d="M941.117,579.077a12.723,12.723,0,0,1,0-6.718l1.21-2.867c-1.415.038-2.82.118-4.2.228A29.488,29.488,0,0,0,911.3,601.643a29.844,29.844,0,0,0,7.1,17.123,61.591,61.591,0,0,0,9.314-.144,35.84,35.84,0,0,0,5.815-1.506,25.638,25.638,0,0,0,2.729-1.57A23.05,23.05,0,0,0,938,613.805a24.71,24.71,0,0,0,1.517-2.68,50.241,50.241,0,0,0,2.356-9.271,86.627,86.627,0,0,0-.136-19.238C941.554,581.432,941.349,580.252,941.117,579.077Z" transform="translate(-910.171 -564.076)" fill="#e89f77"/>
                    <path id="Trazado_23682" data-name="Trazado 23682" d="M924.523,542.37c-14.877,2.142-19.581,18.332-18.371,33.552,1.109,13.943,8.667,31.127,8.667,31.127,5.015,3.855,19.081,1.346,21.052-1s13.581-19.689,18.415-26.024c1.39-1.822,3.718-4.9,5.785-5.862,16.534-7.7,11.74-25.013,11.74-25.013S939.415,540.226,924.523,542.37Z" transform="translate(-905.971 -542.037)" fill="#082640"/>
                    <path id="Trazado_23683" data-name="Trazado 23683" d="M1126.774,706.4c-5.374,2.306-3.874,15.339.728,14.973,4.086-.325,4.9-9.647,5.031-11.733a3.408,3.408,0,0,0-.085-1.022C1132.137,707.328,1130.967,704.6,1126.774,706.4Z" transform="translate(-1080.466 -673.494)" fill="#d68b61"/>
                  </g>
                  <path id="Trazado_23684" data-name="Trazado 23684" d="M912.153,898.688l-6.943,10.689c17.325-1.4,43.311.937,43.311.937l-3.746-7.96C930.47,894.429,912.153,898.688,912.153,898.688Z" transform="translate(-825.787 -827.411)" fill="#fff"/>
                  <path id="Trazado_23685" data-name="Trazado 23685" d="M912.153,898.694l-6.943,10.689c13.051-1.058,31.016.01,39.086.6-1.651-3.236-3.225-6.535-4.609-9.907C926.479,895.365,912.153,898.694,912.153,898.694Z" transform="translate(-825.787 -827.416)" fill="#f0f0f0"/>
                  <g id="Grupo_11898" data-name="Grupo 11898" transform="translate(81.933 122.072)">
                    <path id="Trazado_23686" data-name="Trazado 23686" d="M936.007,1176.618c8.725,49.44,11.633,100.005,5.649,149.74h14.657c5.983-49.734,3.076-100.3-5.649-149.74-1.54-8.752-9.783-15.8-18.072-15.8H917.935C926.224,1160.815,934.467,1167.866,936.007,1176.618Z" transform="translate(-917.935 -1160.814)" fill="#0e426e"/>
                  </g>
                  <path id="Trazado_23687" data-name="Trazado 23687" d="M503.538,1326.357h119.4c5.983-49.734,3.077-100.3-5.648-149.74-1.54-8.752-9.783-15.8-18.072-15.8h-84.36c-8.3,0-13.5,7.052-11.96,15.8C512.355,1230.231,512.017,1273.884,503.538,1326.357Z" transform="translate(-502.624 -1038.741)" fill="#0e426e"/>
                  <path id="Trazado_23688" data-name="Trazado 23688" d="M1017.39,1165.664a31.791,31.791,0,0,1,3.409,2.255,19.219,19.219,0,0,0-7.587-4.188A35.16,35.16,0,0,1,1017.39,1165.664Z" transform="translate(-912.482 -1041.083)" fill="#0c375c"/>
                  <path id="Trazado_23689" data-name="Trazado 23689" d="M503.538,1326.357h92.379c.205-1.316.421-2.561.622-3.706,2.3-20.813,11.657-109.474-8.644-143.187a12.635,12.635,0,0,1,4.533-17.288,9.472,9.472,0,0,1,3.455-1.362h-81.03c-8.3,0-13.5,7.052-11.96,15.8C512.355,1230.231,512.017,1273.884,503.538,1326.357Z" transform="translate(-502.624 -1038.741)" fill="#0c375c"/>
                </g>
                <g id="Grupo_11901" data-name="Grupo 11901" transform="translate(419.664 117.368)">
                  <g id="Grupo_11900" data-name="Grupo 11900" transform="translate(1.802)">
                    <path id="Trazado_23690" data-name="Trazado 23690" d="M2528.439,1137.011c-8.133.531-12,9.289-11.411,14.178.8,6.644,6.862,9.354,9.63,11.918,1.641,1.519,5.053,12.586-.016,17.511,0,0,12.594-7.818,8.1-18.333-2.31-5.4-4.323-11.951,1.1-10.411C2542.239,1153.693,2544.037,1135.992,2528.439,1137.011Z" transform="translate(-2513.29 -1136.968)" fill="#fff" opacity="0.3"/>
                    <path id="Trazado_23691" data-name="Trazado 23691" d="M2507.985,1199.2c-12.479-.815-11.041,13.347-5.918,11.892,4.335-1.232,2.724,4.008.877,8.329-3.6,8.413,6.479,14.668,6.479,14.668-4.055-3.941-1.325-12.795-.013-14.01,2.215-2.051,7.064-4.219,7.7-9.535C2517.586,1206.632,2514.492,1199.625,2507.985,1199.2Z" transform="translate(-2498.315 -1186.896)" fill="#fff" opacity="0.6"/>
                  </g>
                  <path id="Trazado_23692" data-name="Trazado 23692" d="M2516.248,1358.08c-.06,0-.118,0-.177,0l.623-6.993a2.387,2.387,0,0,0-2.382-2.6h-22.74a2.387,2.387,0,0,0-2.381,2.6l3.294,37H2513.4l.942-10.576a9.81,9.81,0,1,0,1.907-19.433Zm0,15.335a5.515,5.515,0,0,1-1.523-.215l.962-10.807a5.525,5.525,0,1,1,.561,11.022Z" transform="translate(-2489.181 -1306.765)" fill="#104363"/>
                  <path id="Trazado_23693" data-name="Trazado 23693" d="M2529.029,1358.08c-.06,0-.118,0-.177,0l.623-6.993a2.387,2.387,0,0,0-2.382-2.6h-1.63c-.308,2.65-.655,5.3-1.069,7.931a58.58,58.58,0,0,1-3.288,12.889,36.271,36.271,0,0,1-3.94,7.922,25.832,25.832,0,0,1-7.825,7.589,10.808,10.808,0,0,1-4.237,1.436l.163,1.826h20.914l.942-10.576a9.81,9.81,0,1,0,1.907-19.433Zm0,15.335a5.515,5.515,0,0,1-1.523-.215l.962-10.807a5.525,5.525,0,1,1,.561,11.022Z" transform="translate(-2501.962 -1306.765)" fill="#0e3954"/>
                </g>
                <g id="Grupo_11903" data-name="Grupo 11903" transform="translate(332.226 189.033)">
                  <rect id="Rectángulo_2420" data-name="Rectángulo 2420" width="44.935" height="4.993" transform="translate(0 4.662)" fill="#ebf0f5"/>
                  <g id="Grupo_11902" data-name="Grupo 11902" transform="translate(28.291 0)">
                    <path id="Trazado_23694" data-name="Trazado 23694" d="M2239.121,1506.573l-43.762-6.339-5.991.813,5.514,2.48,43.761,6.339a.353.353,0,0,0,.4-.3l.375-2.593A.353.353,0,0,0,2239.121,1506.573Z" transform="translate(-2189.368 -1500.234)" fill="#db5512"/>
                    <path id="Trazado_23695" data-name="Trazado 23695" d="M2192.487,1503.887l.27-1.863-3.389.46Z" transform="translate(-2189.368 -1501.671)" fill="#082640"/>
                    <path id="Trazado_23696" data-name="Trazado 23696" d="M2200.963,1502.076l3.227,1.451.477-3.293-3.506.476Z" transform="translate(-2198.676 -1500.234)" fill="#d68b61"/>
                  </g>
                </g>
              </g>
            </g>
          </g>
          <g id="Grupo_11908" data-name="Grupo 11908" transform="translate(448.572 79.197)">
            <circle id="Elipse_797" data-name="Elipse 797" cx="5.882" cy="5.882" r="5.882" transform="translate(65.804 47.236)" fill="#082640"/>
            <g id="Grupo_11907" data-name="Grupo 11907" transform="translate(28.669 5.327)">
              <path id="Trazado_23697" data-name="Trazado 23697" d="M2781.032,974.779,2822.064,1019l-22.393,61.233,5.937,2.171,23.72-64.868-43.663-47.059Z" transform="translate(-2781.032 -970.48)" fill="#082640"/>
            </g>
            <path id="Trazado_23698" data-name="Trazado 23698" d="M2672.566,945.157h0a5.823,5.823,0,0,0-8.234.056l-4.087,4.143c-7.475-3.352-17.311-1.295-24.251,5.741-.1.1-.187.2-.281.3l27.119,26.752c.1-.1.2-.187.293-.285,6.941-7.036,8.863-16.9,5.41-24.327l4.087-4.143A5.822,5.822,0,0,0,2672.566,945.157Z" transform="translate(-2635.713 -943.48)" fill="#008c82"/>
            <path id="Trazado_23699" data-name="Trazado 23699" d="M2740.874,953.057a12.066,12.066,0,0,1-2.741,4.459,14.664,14.664,0,0,1-3.812,2.895c.118,1.363-.395,9.469-5.538,14.208-2.427,2.236-5.065,4.226-8.228,4.975l10.381,10.241c.1-.1.2-.187.293-.285,6.941-7.036,8.864-16.9,5.41-24.327l4.087-4.143A5.823,5.823,0,0,0,2740.874,953.057Z" transform="translate(-2703.817 -951.168)" fill="#007d74"/>
            <rect id="Rectángulo_2421" data-name="Rectángulo 2421" width="25.408" height="6.585" transform="translate(38.513 112.876)" fill="#008c82"/>
            <path id="Trazado_23700" data-name="Trazado 23700" d="M2923.875,1515.64q.38,3.288.667,6.585h6.406v-6.585Z" transform="translate(-2867.026 -1402.764)" fill="#007d74"/>
          </g>
        </g>
      </g>
      <g id="Grupo_11931" data-name="Grupo 11931" transform="translate(528.883 374.645)">
        <g id="Grupo_11911" data-name="Grupo 11911" transform="translate(0)">
          <rect id="Rectángulo_2422" data-name="Rectángulo 2422" width="53.934" height="53.934" fill="#c7e4ed"/>
          <rect id="Rectángulo_2423" data-name="Rectángulo 2423" width="53.934" height="53.934" transform="translate(62.075)" fill="#c7e4ed"/>
          <rect id="Rectángulo_2424" data-name="Rectángulo 2424" width="53.934" height="53.934" transform="translate(124.151)" fill="#c7e4ed"/>
        </g>
        <g id="Grupo_11918" data-name="Grupo 11918" transform="translate(1.219 7.065)">
          <g id="Grupo_11917" data-name="Grupo 11917">
            <g id="Grupo_11916" data-name="Grupo 11916">
              <g id="Grupo_11913" data-name="Grupo 11913">
                <path id="Trazado_23701" data-name="Trazado 23701" d="M1547.466,961.288c.014-.018-10.858.682-10.858.682-.086.9-.139,2.373-.164,2.62a7.746,7.746,0,0,1-.4,1.794l.088-.127s2.661,4.163,5.942,4.479c3.228-.311,5.974-4.34,6.061-4.467a7.773,7.773,0,0,1-.358-1.679C1547.759,964.361,1547.545,962.108,1547.466,961.288Z" transform="translate(-1516.327 -939.174)" fill="#eba588"/>
                <g id="Grupo_11912" data-name="Grupo 11912" transform="translate(16.262)">
                  <path id="Trazado_23702" data-name="Trazado 23702" d="M1536.592,886.778c-.22,1.684-1.228,2.089-1.207,1.029.023-1.167.008-2.422-.062-3.959-.151-3.328-.87-4.167-2.1-3.991-1.006.143-9.513.143-10.518,0-1.226-.176-1.945.664-2.1,3.991-.069,1.536-.085,2.791-.062,3.959.021,1.059-.472.111-1.207-1.029-.47-.2-.937-.09-.807,1.3.291,3.144,1.222,4.664,2.329,4.628.094,1.344-.013,1.8,1.449,3.946,1.726,2.2,2.891,3.948,5.653,3.948s3.926-1.752,5.652-3.948c1.462-2.143,1.356-2.6,1.45-3.946,1.106.036,2.037-1.484,2.329-4.628C1537.529,886.688,1537.062,886.576,1536.592,886.778Z" transform="translate(-1518.516 -873.791)" fill="#f5b293"/>
                  <path id="Trazado_23703" data-name="Trazado 23703" d="M1528.834,849.219c-5.846-.334-6.681,3.34-6.681,3.34s-3.174,1.337-2.339,5.846a20.913,20.913,0,0,0,.461,3.78c.6,1.779,1.185,1.811,1.19,1.618.03-1.167.009-3.011.078-4.548.15-3.328.869-3.2,2.1-3.022a20.885,20.885,0,0,0,5.346.668,25.2,25.2,0,0,0,5.178-.834c1.227-.176,1.945.38,2.111,3.707.069,1.364.007,4.249-.062,4.969a2.8,2.8,0,0,0,1.194-1.978,42.944,42.944,0,0,0,.944-5.486C1538.518,855.61,1537.68,849.724,1528.834,849.219Z" transform="translate(-1519.445 -849.197)" fill="#52362b"/>
                </g>
                <path id="Trazado_23704" data-name="Trazado 23704" d="M1481.066,996.4c-3.737-1.287-10.614-3.924-11.3-4.344-.307.412-8.066,2.058-8.066,2.058s-7.493-1.647-7.8-2.058c-.688.42-7.565,3.057-11.3,4.344a6.972,6.972,0,0,0-4.409,4.593l-2.1,9.749h51.5l-2.1-9.749A6.973,6.973,0,0,0,1481.066,996.4Z" transform="translate(-1436.083 -963.874)" fill="#fff"/>
              </g>
              <g id="Grupo_11914" data-name="Grupo 11914" transform="translate(17.825 24.795)">
                <path id="Trazado_23705" data-name="Trazado 23705" d="M1528.755,974.9l-2.318,3.354a5.438,5.438,0,0,0,1.32,3.41,26.433,26.433,0,0,0,2.688,2.905l2.648-3.106,1.267-1.116C1530.908,980.008,1528.755,974.9,1528.755,974.9Z" transform="translate(-1526.435 -974.892)" fill="#f0f0f0"/>
                <path id="Trazado_23706" data-name="Trazado 23706" d="M1566.611,980.331l1.658,1.343,2.391,2.88s1.453-1.583,2.633-2.905a5.531,5.531,0,0,0,1.375-3.41s-2-2.685-2.407-3.354C1572.177,974.744,1570.008,980,1566.611,980.331Z" transform="translate(-1558.685 -974.881)" fill="#f0f0f0"/>
              </g>
              <path id="Trazado_23707" data-name="Trazado 23707" d="M1554.528,1002.521v-.016l-.009.008-.009-.008v.016l-2.972,1.707,1.3,3.4-1.3,11.5h5.962l-1.3-11.5,1.52-2.953Z" transform="translate(-1528.761 -972.26)" fill="#002135"/>
              <g id="Grupo_11915" data-name="Grupo 11915" transform="translate(17.827 24.795)">
                <path id="Trazado_23708" data-name="Trazado 23708" d="M1528.764,974.9l-2.318,3.354a11.5,11.5,0,0,0,1.783,2.882c1.205,1.554,2.225,2.66,2.225,2.66l2.648-2.332,1.267-1.116C1530.917,980.008,1528.764,974.9,1528.764,974.9Z" transform="translate(-1526.446 -974.892)" fill="#fff"/>
                <path id="Trazado_23709" data-name="Trazado 23709" d="M1566.611,980.331l1.658,1.343,2.391,2.106s1.453-1.412,2.633-2.734a4.6,4.6,0,0,0,1.375-2.807s-2-2.685-2.407-3.354C1572.177,974.744,1570.008,980,1566.611,980.331Z" transform="translate(-1558.687 -974.881)" fill="#fff"/>
              </g>
              <path id="Trazado_23710" data-name="Trazado 23710" d="M1442.6,987.506a6.972,6.972,0,0,0-4.409,4.593l-2.1,10.421h24.073c-1.224-2.159-4.66-11.858-4.909-20.707C1453.838,982.479,1446.069,986.311,1442.6,987.506Z" transform="translate(-1436.083 -955.651)" fill="#002135"/>
              <path id="Trazado_23711" data-name="Trazado 23711" d="M1592.651,987.506c-3.472-1.2-11.241-5.027-12.651-5.692-.248,8.848-3.685,18.548-4.909,20.707h24.073l-2.1-10.421A6.973,6.973,0,0,0,1592.651,987.506Z" transform="translate(-1547.668 -955.651)" fill="#002135"/>
            </g>
          </g>
        </g>
        <g id="Grupo_11924" data-name="Grupo 11924" transform="translate(129.944 8.196)">
          <g id="Grupo_11923" data-name="Grupo 11923">
            <g id="Grupo_11922" data-name="Grupo 11922">
              <path id="Trazado_23712" data-name="Trazado 23712" d="M2145.815,857.136c-3.467,2.994-8.282,19.181,2.032,19.542h9.578s10.56-1.281,3.386-17.63C2158.78,854.416,2149.946,853.569,2145.815,857.136Z" transform="translate(-2131.151 -854.93)" fill="#9c6753"/>
              <g id="Grupo_11919" data-name="Grupo 11919" transform="translate(11.637 20.98)">
                <path id="Trazado_23713" data-name="Trazado 23713" d="M2161.584,961.275c-.729.424-3.089,1.922-3.924,1.983h-.465c-.029,0-.059-.007-.088-.01s-.059.008-.088.01h-.465a14.91,14.91,0,0,1-3.924-1.215c-.006.359-.154,3.8-1.08,4.526a15.309,15.309,0,0,1-3.98,2.66,16.171,16.171,0,0,0,9.266,3.7s.1,0,.271-.012c.175.013.27.012.27.012a16.171,16.171,0,0,0,9.267-3.7,15.309,15.309,0,0,1-3.98-2.66C2161.738,965.842,2161.59,961.634,2161.584,961.275Z" transform="translate(-2147.57 -961.275)" fill="#eba588"/>
              </g>
              <path id="Trazado_23714" data-name="Trazado 23714" d="M2125.563,995.648,2117,992.077s-.141,3.184-7.022,3.184c-6.156,0-6.626-3.314-6.626-3.314l-8.6,2.884a6.344,6.344,0,0,0-3.723,3.163c-1.977,3.881-1.654,10.978-2.443,12.64,8.048.054,13.75-.016,20.957-.016h21.391c-.458-1.031-.518-7.547-1.944-11.367A6.342,6.342,0,0,0,2125.563,995.648Z" transform="translate(-2088.583 -964.916)" fill="#ea5b13"/>
              <g id="Grupo_11920" data-name="Grupo 11920" transform="translate(12.305 0.022)">
                <path id="Trazado_23715" data-name="Trazado 23715" d="M2167.741,885.319l-11.134,2.034s-1.156,8.239,1.813,12.588a12.372,12.372,0,0,0,3.36,3.127,5.309,5.309,0,0,0,2.261.763h.444a5.975,5.975,0,0,0,3.015-1.259,7.819,7.819,0,0,0,2.605-2.631c2.918-5.5,1.73-12.961,1.73-12.961Z" transform="translate(-2155.315 -879.345)" fill="#f5b293"/>
                <path id="Trazado_23716" data-name="Trazado 23716" d="M2151.085,913.4c-.466.568.372,7.01,2.232,5.652l-1.087-5.158S2151.546,912.837,2151.085,913.4Z" transform="translate(-2150.959 -901.753)" fill="#f5b293"/>
                <path id="Trazado_23717" data-name="Trazado 23717" d="M2229.332,913.968l-.425,5.106c1.861,1.358,2.7-5.084,2.232-5.652S2229.332,913.968,2229.332,913.968Z" transform="translate(-2213.53 -901.776)" fill="#f5b293"/>
                <path id="Trazado_23718" data-name="Trazado 23718" d="M2164.353,855.047c-12.98.4-8.379,14.436-8.371,14.307.1-1.641,1.006-5.147,3.648-5.271,3.729-.175,6.788-.994,8.037-2.113,0,0,1.147,1.785,2.061,3.6a7.4,7.4,0,0,1,1,4.05C2170.714,869.678,2176.692,854.663,2164.353,855.047Z" transform="translate(-2154.35 -855.039)" fill="#9c6753"/>
              </g>
              <g id="Grupo_11921" data-name="Grupo 11921" transform="translate(13.536 24.889)">
                <path id="Trazado_23719" data-name="Trazado 23719" d="M2159.879,981.09l-2.684,2.457a28.971,28.971,0,0,0,5.683,6.054l1.9-3.056A30.286,30.286,0,0,1,2159.879,981.09Z" transform="translate(-2157.195 -981.09)" fill="#f5f5f5"/>
                <path id="Trazado_23720" data-name="Trazado 23720" d="M2196.173,986.546l1.9,3.056a28.974,28.974,0,0,0,5.682-6.054l-2.684-2.457A30.289,30.289,0,0,1,2196.173,986.546Z" transform="translate(-2188.484 -981.09)" fill="#f5f5f5"/>
              </g>
              <path id="Trazado_23721" data-name="Trazado 23721" d="M2171.748,910.485l-.009-.005.011-.01a10.291,10.291,0,0,0-2.743-.447l.026.009c-.213-.012-.443-.018-.691-.018l-.337,0a7.136,7.136,0,0,0-2.276.3c-.073.024-.16.056-.256.094a5.589,5.589,0,0,1-1.239.3,5.935,5.935,0,0,1-1.287-.3c-.105-.043-.2-.076-.278-.1a7.231,7.231,0,0,0-2.258-.3l-.336,0c-.225,0-.434,0-.63.015l.016-.005a10.288,10.288,0,0,0-2.743.447.143.143,0,0,0-.1.041h0l-.434.355.079.5.455-.167h.064a.381.381,0,0,1,.225.366.861.861,0,0,0,.025.17,3.638,3.638,0,0,0,.108.782c.387,1.634.99,2.721,2.675,2.721h0a5.048,5.048,0,0,0,.816-.073,3.412,3.412,0,0,0,2.928-3.072l.009.025c0-.046,0-.088,0-.128s0-.06.005-.091a.622.622,0,0,1,.634-.6v0l.023,0,.025,0V911.3a.583.583,0,0,1,.577.511c0,.078.008.154.015.229,0,.024,0,.05,0,.076l.006-.017a3.411,3.411,0,0,0,2.927,3.064,5.048,5.048,0,0,0,.816.073c1.685,0,2.288-1.088,2.675-2.721a3.542,3.542,0,0,0,.108-.83,1.148,1.148,0,0,0,.015-.123.38.38,0,0,1,.224-.366h.064a.145.145,0,0,0,.023,0l.459.652.153-.509-.573-.865Zm-11.187,4.233a4.527,4.527,0,0,1-.73.066h0c-1.4,0-1.876-.862-2.229-2.35a1.6,1.6,0,0,1,.108-1.391c.314-.4,1.046-.574,2.372-.574.1,0,.21,0,.319,0,2.5.046,2.7.544,2.709,1.141A2.961,2.961,0,0,1,2160.562,914.718Zm10.253-2.284c-.353,1.488-.83,2.35-2.229,2.35a4.527,4.527,0,0,1-.73-.066,2.962,2.962,0,0,1-2.55-3.106c.006-.6.214-1.1,2.709-1.141.109,0,.216,0,.319,0,1.327,0,2.059.177,2.373.574A1.6,1.6,0,0,1,2170.815,912.433Z" transform="translate(-2142.848 -899.147)" fill="#025e75"/>
            </g>
          </g>
        </g>
        <g id="Grupo_11930" data-name="Grupo 11930" transform="translate(63.824 6.965)">
          <g id="Grupo_11929" data-name="Grupo 11929">
            <g id="Grupo_11928" data-name="Grupo 11928">
              <g id="Grupo_11926" data-name="Grupo 11926">
                <path id="Trazado_23722" data-name="Trazado 23722" d="M1862.515,963.87c.014-.018-10.634.668-10.634.668-.085.882-.136,2.325-.161,2.566a7.562,7.562,0,0,1-.388,1.757l.087-.124s2.606,4.077,5.82,4.387c3.161-.3,5.851-4.25,5.936-4.375a7.631,7.631,0,0,1-.351-1.644C1862.8,966.879,1862.593,964.673,1862.515,963.87Z" transform="translate(-1832.016 -941.146)" fill="#996551"/>
                <g id="Grupo_11925" data-name="Grupo 11925" transform="translate(15.928)">
                  <path id="Trazado_23723" data-name="Trazado 23723" d="M1851.865,890.892c-.215,1.649-1.2,2.046-1.182,1.008.023-1.143.007-2.373-.06-3.878-.147-3.259-.852-4.081-2.052-3.909-.985.14-9.317.14-10.3,0-1.2-.172-1.9.65-2.052,3.909-.068,1.505-.083,2.734-.061,3.878.021,1.037-.462.108-1.182-1.008-.461-.2-.918-.088-.791,1.278.286,3.08,1.2,4.569,2.281,4.533.092,1.317-.012,1.765,1.42,3.865,1.691,2.15,2.831,3.866,5.536,3.866s3.846-1.716,5.536-3.866c1.432-2.1,1.328-2.548,1.42-3.865,1.083.035,2-1.454,2.281-4.533C1852.783,890.8,1852.326,890.694,1851.865,890.892Z" transform="translate(-1834.161 -877.107)" fill="#ad725c"/>
                  <path id="Trazado_23724" data-name="Trazado 23724" d="M1844.782,848.727c-3.886-.308-5.427,1.278-5.675,1.609s-2.044.17-3.414,2.171c-.855,1.248-1.021,3.271-.6,6.773.11.917.675,3.288.807,3.753.5,1.769.806,1.212.811,1.024.029-1.143.064-2.948.077-4.454.019-2.114,1.237-2.678,2.438-2.506a37.256,37.256,0,0,0,6.431.574,5.235,5.235,0,0,0,3.491-1.191c1.179-.291,1.905.373,2.068,3.631.067,1.336.007,4.162-.06,4.867.433-.2.714-.793,1-1.937a43.969,43.969,0,0,0,.83-7.578C1852.825,851.931,1850.258,849.16,1844.782,848.727Z" transform="translate(-1834.73 -848.688)" fill="#002135"/>
                </g>
                <path id="Trazado_23725" data-name="Trazado 23725" d="M1797.481,998.261c-3.66-1.26-10.4-3.844-11.069-4.255-.3.4-7.9,2.016-7.9,2.016s-7.339-1.613-7.639-2.016c-.674.411-7.409,2.994-11.07,4.255a6.828,6.828,0,0,0-4.319,4.5l-2.061,9.548h50.438l-2.061-9.548A6.828,6.828,0,0,0,1797.481,998.261Z" transform="translate(-1753.423 -965.338)" fill="#008c82"/>
                <path id="Trazado_23726" data-name="Trazado 23726" d="M1853.333,928.554c-.447.348-1.2-.432-2.023-.71a14.925,14.925,0,0,0-2.042-.38,20.29,20.29,0,0,0-2.113.38c-.822.278-1.576,1.058-2.023.71-.767-.6-2.485-1.483-3.128-5.683l-.557-.2s.6,6.108,1.193,7.24a19.216,19.216,0,0,0,3.493,4.77,6.91,6.91,0,0,0,3.064.974v.005l.036,0,.036,0v-.005a6.912,6.912,0,0,0,3.064-.974c1.107-.895,2.472-3.146,3.492-4.77.68-1.082,1.193-7.24,1.193-7.24l-.557.2C1855.819,927.071,1854.1,927.957,1853.333,928.554Z" transform="translate(-1824.083 -908.078)" fill="#002135"/>
                <path id="Trazado_23727" data-name="Trazado 23727" d="M1873.849,961.534h-4.983C1871.294,964.9,1873.849,961.534,1873.849,961.534Z" transform="translate(-1846.091 -939.272)" fill="#ad725c"/>
              </g>
              <g id="Grupo_11927" data-name="Grupo 11927" transform="translate(17.46 25.35)">
                <path id="Trazado_23728" data-name="Trazado 23728" d="M1844.2,977.2l-2.27,3.285a11.271,11.271,0,0,0,1.747,2.822c1.18,1.522,2.179,2.605,2.179,2.605l2.594-2.284,1.241-1.093C1846.307,982.2,1844.2,977.2,1844.2,977.2Z" transform="translate(-1841.928 -977.194)" fill="#fff"/>
                <path id="Trazado_23729" data-name="Trazado 23729" d="M1881.267,982.521l1.624,1.315,2.342,2.063s1.423-1.383,2.578-2.678a4.509,4.509,0,0,0,1.347-2.749s-1.963-2.63-2.357-3.285C1886.719,977.049,1884.594,982.2,1881.267,982.521Z" transform="translate(-1873.506 -977.184)" fill="#fff"/>
              </g>
            </g>
          </g>
        </g>
      </g>
      <g id="Grupo_11932" data-name="Grupo 11932" transform="translate(559.796 326.09)">
        <circle id="Elipse_798" data-name="Elipse 798" cx="2.316" cy="2.316" r="2.316" transform="translate(0 4.279) rotate(-67.5)" fill="#fff" opacity="0.4"/>
        <path id="Trazado_23730" data-name="Trazado 23730" d="M1592.513,611.171a2.316,2.316,0,1,0,2.316,2.316A2.316,2.316,0,0,0,1592.513,611.171Z" transform="translate(-1589.487 -602.508)" fill="#fff" opacity="0.7"/>
        <circle id="Elipse_799" data-name="Elipse 799" cx="2.316" cy="2.316" r="2.316" transform="translate(0.24 17.209) rotate(-13.282)" fill="#fff"/>
      </g>
      <g id="Grupo_11939" data-name="Grupo 11939" transform="translate(630.842 327.003)">
        <path id="Trazado_23741" data-name="Trazado 23741" d="M2002.859,571.891h-49.143c-3.859,0-6.988,3.532-6.988,7.89v47.851l10.951-14.4h45.18c3.86,0,6.988-3.532,6.988-7.89V579.781C2009.847,575.423,2006.718,571.891,2002.859,571.891Z" transform="translate(-1946.727 -571.891)" fill="#fff"/>
        <g id="Grupo_11938" data-name="Grupo 11938" transform="translate(8.35 11.154)">
          <rect id="Rectángulo_2425" data-name="Rectángulo 2425" width="46.272" height="3.087" fill="#cbe2e8"/>
          <rect id="Rectángulo_2426" data-name="Rectángulo 2426" width="46.272" height="3.087" transform="translate(0 8.232)" fill="#cbe2e8"/>
          <rect id="Rectángulo_2427" data-name="Rectángulo 2427" width="33.086" height="3.087" transform="translate(0 16.465)" fill="#cbe2e8"/>
        </g>
      </g>
      <g id="Grupo_11947" data-name="Grupo 11947" transform="translate(553.261 295.499)" opacity="0.8">
        <g id="Grupo_11942" data-name="Grupo 11942" transform="translate(28.155 0)">
          <path id="Trazado_23743" data-name="Trazado 23743" d="M1697.373,412.2a1.184,1.184,0,0,0,0,2.367h.009a1.184,1.184,0,0,0-.009-2.367Z" transform="translate(-1696.189 -412.2)" fill="#fff"/>
        </g>
        <g id="Grupo_11943" data-name="Grupo 11943" transform="translate(4.686 0)">
          <path id="Trazado_23744" data-name="Trazado 23744" d="M1602.2,412.2a1.184,1.184,0,0,0,0,2.367h.017a1.176,1.176,0,0,0,1.175-1.184A1.191,1.191,0,0,0,1602.2,412.2Z" transform="translate(-1596.322 -412.2)" fill="#fff"/>
          <path id="Trazado_23745" data-name="Trazado 23745" d="M1578.407,412.2a1.184,1.184,0,1,0,0,2.367h.017a1.176,1.176,0,0,0,1.175-1.184A1.191,1.191,0,0,0,1578.407,412.2Z" transform="translate(-1577.223 -412.2)" fill="#fff"/>
          <path id="Trazado_23746" data-name="Trazado 23746" d="M1649.787,412.2a1.184,1.184,0,1,0,0,2.367h.017a1.176,1.176,0,0,0,1.175-1.184A1.191,1.191,0,0,0,1649.787,412.2Z" transform="translate(-1634.521 -412.2)" fill="#fff"/>
          <path id="Trazado_23747" data-name="Trazado 23747" d="M1673.579,412.2a1.184,1.184,0,1,0,0,2.367h.017a1.176,1.176,0,0,0,1.175-1.184A1.191,1.191,0,0,0,1673.579,412.2Z" transform="translate(-1653.62 -412.2)" fill="#fff"/>
          <path id="Trazado_23748" data-name="Trazado 23748" d="M1625.994,412.2a1.184,1.184,0,0,0,0,2.367h.017a1.176,1.176,0,0,0,1.175-1.184A1.191,1.191,0,0,0,1625.994,412.2Z" transform="translate(-1615.422 -412.2)" fill="#fff"/>
        </g>
        <g id="Grupo_11944" data-name="Grupo 11944" transform="translate(0 0)">
          <path id="Trazado_23749" data-name="Trazado 23749" d="M1554.656,412.2a1.186,1.186,0,0,0,0,2.372,1.191,1.191,0,0,0,1.188-1.188A1.188,1.188,0,0,0,1554.656,412.2Z" transform="translate(-1553.472 -412.2)" fill="#fff"/>
        </g>
        <g id="Grupo_11945" data-name="Grupo 11945" transform="translate(0 5.145)">
          <path id="Trazado_23750" data-name="Trazado 23750" d="M1554.656,568.682a1.188,1.188,0,1,0,1.184,1.193v-.019A1.176,1.176,0,0,0,1554.656,568.682Z" transform="translate(-1553.472 -542.956)" fill="#fff"/>
          <path id="Trazado_23751" data-name="Trazado 23751" d="M1554.656,542.6a1.188,1.188,0,1,0,1.184,1.193v-.019A1.176,1.176,0,0,0,1554.656,542.6Z" transform="translate(-1553.472 -522.021)" fill="#fff"/>
          <path id="Trazado_23752" data-name="Trazado 23752" d="M1554.656,620.843a1.188,1.188,0,1,0,1.184,1.193v-.019A1.176,1.176,0,0,0,1554.656,620.843Z" transform="translate(-1553.472 -584.827)" fill="#fff"/>
          <path id="Trazado_23753" data-name="Trazado 23753" d="M1554.656,646.923a1.188,1.188,0,1,0,1.184,1.193V648.1A1.176,1.176,0,0,0,1554.656,646.923Z" transform="translate(-1553.472 -605.762)" fill="#fff"/>
          <path id="Trazado_23754" data-name="Trazado 23754" d="M1554.656,594.762a1.188,1.188,0,1,0,1.184,1.193v-.019A1.176,1.176,0,0,0,1554.656,594.762Z" transform="translate(-1553.472 -563.891)" fill="#fff"/>
          <path id="Trazado_23755" data-name="Trazado 23755" d="M1554.656,464.359a1.189,1.189,0,1,0,1.184,1.193v-.019A1.176,1.176,0,0,0,1554.656,464.359Z" transform="translate(-1553.472 -459.214)" fill="#fff"/>
          <path id="Trazado_23756" data-name="Trazado 23756" d="M1554.656,516.521a1.188,1.188,0,1,0,1.184,1.193V517.7A1.176,1.176,0,0,0,1554.656,516.521Z" transform="translate(-1553.472 -501.085)" fill="#fff"/>
          <path id="Trazado_23757" data-name="Trazado 23757" d="M1554.656,438.279a1.188,1.188,0,1,0,1.184,1.193v-.019A1.176,1.176,0,0,0,1554.656,438.279Z" transform="translate(-1553.472 -438.279)" fill="#fff"/>
          <path id="Trazado_23758" data-name="Trazado 23758" d="M1554.656,490.44a1.188,1.188,0,1,0,1.184,1.193v-.019A1.176,1.176,0,0,0,1554.656,490.44Z" transform="translate(-1553.472 -480.15)" fill="#fff"/>
        </g>
        <g id="Grupo_11946" data-name="Grupo 11946" transform="translate(0 51.447)">
          <path id="Trazado_23759" data-name="Trazado 23759" d="M1554.656,672.979a1.186,1.186,0,1,0,1.184,1.188v-.009A1.18,1.18,0,0,0,1554.656,672.979Z" transform="translate(-1553.472 -672.979)" fill="#fff"/>
        </g>
      </g>
      <g id="Grupo_11953" data-name="Grupo 11953" transform="translate(640.996 295.499)" opacity="0.8">
        <g id="Grupo_11948" data-name="Grupo 11948" transform="translate(0 0)">
          <path id="Trazado_23760" data-name="Trazado 23760" d="M1999.384,412.2h-.009a1.188,1.188,0,1,0,.009,0Z" transform="translate(-1998.196 -412.2)" fill="#fff"/>
        </g>
        <g id="Grupo_11949" data-name="Grupo 11949" transform="translate(4.531 0)">
          <path id="Trazado_23761" data-name="Trazado 23761" d="M2045.341,412.2h-.017a1.177,1.177,0,0,0-1.175,1.184,1.188,1.188,0,1,0,1.192-1.184Z" transform="translate(-2039.615 -412.2)" fill="#fff"/>
          <path id="Trazado_23762" data-name="Trazado 23762" d="M2068.329,412.2h-.017a1.177,1.177,0,0,0-1.175,1.184,1.188,1.188,0,1,0,1.192-1.184Z" transform="translate(-2058.067 -412.2)" fill="#fff"/>
          <path id="Trazado_23763" data-name="Trazado 23763" d="M2022.355,412.2h-.017a1.177,1.177,0,0,0-1.175,1.184,1.188,1.188,0,1,0,1.192-1.184Z" transform="translate(-2021.163 -412.2)" fill="#fff"/>
          <path id="Trazado_23764" data-name="Trazado 23764" d="M2114.3,412.2h-.017a1.177,1.177,0,0,0-1.176,1.184,1.188,1.188,0,1,0,1.192-1.184Z" transform="translate(-2094.971 -412.2)" fill="#fff"/>
          <path id="Trazado_23765" data-name="Trazado 23765" d="M2091.315,412.2h-.017a1.177,1.177,0,0,0-1.175,1.184,1.188,1.188,0,1,0,1.192-1.184Z" transform="translate(-2076.519 -412.2)" fill="#fff"/>
        </g>
        <g id="Grupo_11950" data-name="Grupo 11950" transform="translate(27.201 0)">
          <path id="Trazado_23766" data-name="Trazado 23766" d="M2137.267,412.2h-.009a1.188,1.188,0,1,0,.009,0Z" transform="translate(-2136.078 -412.2)" fill="#fff"/>
        </g>
        <g id="Grupo_11951" data-name="Grupo 11951" transform="translate(27.206 5.328)">
          <path id="Trazado_23767" data-name="Trazado 23767" d="M2137.285,520.24a1.189,1.189,0,1,0,1.184,1.194v-.02A1.175,1.175,0,0,0,2137.285,520.24Z" transform="translate(-2136.101 -504.254)" fill="#fff"/>
          <path id="Trazado_23768" data-name="Trazado 23768" d="M2137.285,493.229a1.189,1.189,0,1,0,1.184,1.194v-.02A1.175,1.175,0,0,0,2137.285,493.229Z" transform="translate(-2136.101 -482.572)" fill="#fff"/>
          <path id="Trazado_23769" data-name="Trazado 23769" d="M2137.285,439.208a1.189,1.189,0,1,0,1.184,1.193v-.019A1.175,1.175,0,0,0,2137.285,439.208Z" transform="translate(-2136.101 -439.208)" fill="#fff"/>
          <path id="Trazado_23770" data-name="Trazado 23770" d="M2137.285,466.218a1.189,1.189,0,1,0,1.184,1.194v-.02A1.175,1.175,0,0,0,2137.285,466.218Z" transform="translate(-2136.101 -460.889)" fill="#fff"/>
        </g>
        <g id="Grupo_11952" data-name="Grupo 11952" transform="translate(27.206 26.638)">
          <path id="Trazado_23771" data-name="Trazado 23771" d="M2137.285,547.224a1.186,1.186,0,1,0,1.184,1.188V548.4A1.18,1.18,0,0,0,2137.285,547.224Z" transform="translate(-2136.101 -547.224)" fill="#fff"/>
        </g>
      </g>
      <g id="Grupo_11959" data-name="Grupo 11959" transform="translate(696.201 337.365)" opacity="0.8">
        <g id="Grupo_11954" data-name="Grupo 11954" transform="translate(0 0)">
          <path id="Trazado_23772" data-name="Trazado 23772" d="M2279.216,624.416h-.009a1.188,1.188,0,1,0,.009,0Z" transform="translate(-2278.028 -624.416)" fill="#fff"/>
        </g>
        <g id="Grupo_11955" data-name="Grupo 11955" transform="translate(5.173 0)">
          <path id="Trazado_23773" data-name="Trazado 23773" d="M2384.187,624.416h-.019a1.176,1.176,0,0,0-1.174,1.184,1.188,1.188,0,1,0,1.193-1.184Z" transform="translate(-2367.459 -624.416)" fill="#fff"/>
          <path id="Trazado_23774" data-name="Trazado 23774" d="M2357.938,624.416h-.019a1.176,1.176,0,0,0-1.174,1.184,1.188,1.188,0,1,0,1.193-1.184Z" transform="translate(-2346.388 -624.416)" fill="#fff"/>
          <path id="Trazado_23775" data-name="Trazado 23775" d="M2331.69,624.416h-.019a1.176,1.176,0,0,0-1.174,1.184,1.188,1.188,0,1,0,1.193-1.184Z" transform="translate(-2325.319 -624.416)" fill="#fff"/>
          <path id="Trazado_23776" data-name="Trazado 23776" d="M2305.442,624.416h-.019a1.176,1.176,0,0,0-1.174,1.184,1.189,1.189,0,1,0,1.194-1.184Z" transform="translate(-2304.248 -624.416)" fill="#fff"/>
          <path id="Trazado_23777" data-name="Trazado 23777" d="M2489.178,624.416h-.019a1.175,1.175,0,0,0-1.174,1.184,1.188,1.188,0,1,0,1.193-1.184Z" transform="translate(-2451.738 -624.416)" fill="#fff"/>
          <path id="Trazado_23778" data-name="Trazado 23778" d="M2462.93,624.416h-.019a1.176,1.176,0,0,0-1.174,1.184,1.189,1.189,0,1,0,1.194-1.184Z" transform="translate(-2430.667 -624.416)" fill="#fff"/>
          <path id="Trazado_23779" data-name="Trazado 23779" d="M2410.435,624.416h-.02a1.175,1.175,0,0,0-1.174,1.184,1.188,1.188,0,1,0,1.193-1.184Z" transform="translate(-2388.528 -624.416)" fill="#fff"/>
          <path id="Trazado_23780" data-name="Trazado 23780" d="M2436.683,624.416h-.019a1.175,1.175,0,0,0-1.174,1.184,1.188,1.188,0,1,0,1.193-1.184Z" transform="translate(-2409.598 -624.416)" fill="#fff"/>
        </g>
        <g id="Grupo_11956" data-name="Grupo 11956" transform="translate(46.594 0)">
          <path id="Trazado_23781" data-name="Trazado 23781" d="M2515.4,624.416h-.01a1.188,1.188,0,1,0,.01,0Z" transform="translate(-2514.208 -624.416)" fill="#fff"/>
        </g>
        <g id="Grupo_11957" data-name="Grupo 11957" transform="translate(46.598 4.948)">
          <path id="Trazado_23782" data-name="Trazado 23782" d="M2515.415,774.9a1.188,1.188,0,1,0,1.184,1.193v-.018A1.176,1.176,0,0,0,2515.415,774.9Z" transform="translate(-2514.231 -750.157)" fill="#fff"/>
          <path id="Trazado_23783" data-name="Trazado 23783" d="M2515.415,749.816a1.188,1.188,0,1,0,1.184,1.193v-.018A1.176,1.176,0,0,0,2515.415,749.816Z" transform="translate(-2514.231 -730.025)" fill="#fff"/>
          <path id="Trazado_23784" data-name="Trazado 23784" d="M2515.415,799.977a1.188,1.188,0,1,0,1.184,1.193v-.018A1.176,1.176,0,0,0,2515.415,799.977Z" transform="translate(-2514.231 -770.29)" fill="#fff"/>
          <path id="Trazado_23785" data-name="Trazado 23785" d="M2515.415,699.656a1.188,1.188,0,1,0,1.184,1.193v-.018A1.176,1.176,0,0,0,2515.415,699.656Z" transform="translate(-2514.231 -689.76)" fill="#fff"/>
          <path id="Trazado_23786" data-name="Trazado 23786" d="M2515.415,674.576a1.188,1.188,0,1,0,1.184,1.193v-.018A1.176,1.176,0,0,0,2515.415,674.576Z" transform="translate(-2514.231 -669.628)" fill="#fff"/>
          <path id="Trazado_23787" data-name="Trazado 23787" d="M2515.415,724.736a1.188,1.188,0,1,0,1.184,1.193v-.018A1.176,1.176,0,0,0,2515.415,724.736Z" transform="translate(-2514.231 -709.893)" fill="#fff"/>
          <path id="Trazado_23788" data-name="Trazado 23788" d="M2515.415,649.5a1.188,1.188,0,1,0,1.184,1.193v-.018A1.176,1.176,0,0,0,2515.415,649.5Z" transform="translate(-2514.231 -649.496)" fill="#fff"/>
        </g>
        <g id="Grupo_11958" data-name="Grupo 11958" transform="translate(46.598 39.578)">
          <path id="Trazado_23789" data-name="Trazado 23789" d="M2515.415,825.033a1.186,1.186,0,1,0,1.184,1.188v-.009A1.18,1.18,0,0,0,2515.415,825.033Z" transform="translate(-2514.231 -825.033)" fill="#fff"/>
        </g>
      </g>
      <g id="Grupo_11965" data-name="Grupo 11965" transform="translate(742.804 340.001)">
        <g id="Grupo_11960" data-name="Grupo 11960" transform="translate(0 36.946)">
          <path id="Trazado_23790" data-name="Trazado 23790" d="M2515.442,825.057h-.009a1.188,1.188,0,1,0,.009,0Z" transform="translate(-2514.254 -825.057)" fill="#fff"/>
        </g>
        <g id="Grupo_11961" data-name="Grupo 11961" transform="translate(5.228 36.946)">
          <path id="Trazado_23791" data-name="Trazado 23791" d="M2541.949,825.057h-.019a1.176,1.176,0,0,0-1.174,1.184,1.189,1.189,0,1,0,1.194-1.184Z" transform="translate(-2540.755 -825.057)" fill="#fff"/>
          <path id="Trazado_23792" data-name="Trazado 23792" d="M2595,825.057h-.02a1.176,1.176,0,0,0-1.174,1.184,1.189,1.189,0,1,0,1.194-1.184Z" transform="translate(-2583.344 -825.057)" fill="#fff"/>
          <path id="Trazado_23793" data-name="Trazado 23793" d="M2621.531,825.057h-.019a1.176,1.176,0,0,0-1.174,1.184,1.188,1.188,0,1,0,1.193-1.184Z" transform="translate(-2604.638 -825.057)" fill="#fff"/>
          <path id="Trazado_23794" data-name="Trazado 23794" d="M2568.477,825.057h-.019a1.175,1.175,0,0,0-1.174,1.184,1.188,1.188,0,1,0,1.193-1.184Z" transform="translate(-2562.05 -825.057)" fill="#fff"/>
          <path id="Trazado_23795" data-name="Trazado 23795" d="M2701.115,825.057h-.019a1.176,1.176,0,0,0-1.174,1.184,1.189,1.189,0,1,0,1.193-1.184Z" transform="translate(-2668.521 -825.057)" fill="#fff"/>
          <path id="Trazado_23796" data-name="Trazado 23796" d="M2674.588,825.057h-.019a1.176,1.176,0,0,0-1.174,1.184,1.189,1.189,0,1,0,1.193-1.184Z" transform="translate(-2647.227 -825.057)" fill="#fff"/>
          <path id="Trazado_23797" data-name="Trazado 23797" d="M2648.059,825.057h-.019a1.175,1.175,0,0,0-1.174,1.184,1.189,1.189,0,1,0,1.193-1.184Z" transform="translate(-2625.932 -825.057)" fill="#fff"/>
        </g>
        <g id="Grupo_11962" data-name="Grupo 11962" transform="translate(41.857 36.942)">
          <path id="Trazado_23798" data-name="Trazado 23798" d="M2727.612,825.033a1.191,1.191,0,0,0-1.188,1.188,1.186,1.186,0,1,0,1.188-1.188Z" transform="translate(-2726.423 -825.033)" fill="#fff"/>
        </g>
        <g id="Grupo_11963" data-name="Grupo 11963" transform="translate(41.862 5.268)">
          <path id="Trazado_23799" data-name="Trazado 23799" d="M2727.631,771.5a1.184,1.184,0,0,0-1.184,1.184v.019a1.175,1.175,0,0,0,1.184,1.174,1.189,1.189,0,0,0,0-2.377Z" transform="translate(-2726.447 -750.388)" fill="#fff"/>
          <path id="Trazado_23800" data-name="Trazado 23800" d="M2727.631,798.255a1.184,1.184,0,0,0-1.184,1.184v.02a1.175,1.175,0,0,0,1.184,1.174,1.189,1.189,0,0,0,0-2.377Z" transform="translate(-2726.447 -771.864)" fill="#fff"/>
          <path id="Trazado_23801" data-name="Trazado 23801" d="M2727.631,744.746a1.184,1.184,0,0,0-1.184,1.184v.019a1.175,1.175,0,0,0,1.184,1.174,1.189,1.189,0,0,0,0-2.377Z" transform="translate(-2726.447 -728.911)" fill="#fff"/>
          <path id="Trazado_23802" data-name="Trazado 23802" d="M2727.631,717.99a1.184,1.184,0,0,0-1.184,1.184v.02a1.175,1.175,0,0,0,1.184,1.174,1.189,1.189,0,0,0,0-2.377Z" transform="translate(-2726.447 -707.434)" fill="#fff"/>
          <path id="Trazado_23803" data-name="Trazado 23803" d="M2727.631,691.235a1.184,1.184,0,0,0-1.184,1.184v.02a1.175,1.175,0,0,0,1.184,1.174,1.189,1.189,0,0,0,0-2.377Z" transform="translate(-2726.447 -685.957)" fill="#fff"/>
          <path id="Trazado_23804" data-name="Trazado 23804" d="M2727.631,664.48a1.184,1.184,0,0,0-1.184,1.184v.02a1.175,1.175,0,0,0,1.184,1.174,1.189,1.189,0,0,0,0-2.377Z" transform="translate(-2726.447 -664.48)" fill="#fff"/>
        </g>
        <g id="Grupo_11964" data-name="Grupo 11964" transform="translate(41.862)">
          <path id="Trazado_23805" data-name="Trazado 23805" d="M2727.631,637.778a1.184,1.184,0,0,0-1.184,1.184v.009a1.184,1.184,0,1,0,1.184-1.193Z" transform="translate(-2726.447 -637.778)" fill="#fff"/>
        </g>
      </g>
      <g id="Grupo_11967" data-name="Grupo 11967" transform="translate(694.269 361.906)">
        <path id="Trazado_23806" data-name="Trazado 23806" d="M2329.761,748.813h-45.107c-3.542,0-6.414,3.242-6.414,7.242V777.41l-10.009,9.362,20.061-.012h41.469c3.543,0,6.414-3.242,6.414-7.242V756.055C2336.176,752.055,2333.3,748.813,2329.761,748.813Z" transform="translate(-2268.231 -748.813)" fill="#fff"/>
        <g id="Grupo_11966" data-name="Grupo 11966" transform="translate(17.432 10.051)">
          <rect id="Rectángulo_2432" data-name="Rectángulo 2432" width="42.71" height="2.85" fill="#cbe2e8"/>
          <rect id="Rectángulo_2433" data-name="Rectángulo 2433" width="42.71" height="2.85" transform="translate(0 7.599)" fill="#cbe2e8"/>
          <rect id="Rectángulo_2434" data-name="Rectángulo 2434" width="21.828" height="2.85" transform="translate(0 15.197)" fill="#cbe2e8"/>
        </g>
      </g>
    </g>
  </g>
</svg>
