<svg xmlns="http://www.w3.org/2000/svg" width="901" height="475" viewBox="0 0 901 475">
  <g id="Grupo_19089" data-name="Grupo 19089" transform="translate(2792 -5468)">
    <rect id="Rect치ngulo_3150" data-name="Rect치ngulo 3150" width="901" height="475" transform="translate(-2792 5468)" fill="#2643a2"/>
    <g id="Grupo_19085" data-name="Grupo 19085" transform="translate(53 13.25)">
      <path id="Trazado_35396" data-name="Trazado 35396" d="M16.235,0,9.81-10.869H8.323V0H3.2V-24.695h8.955a10.359,10.359,0,0,1,3.589.573,6.205,6.205,0,0,1,2.487,1.589,6.807,6.807,0,0,1,1.4,2.333,8.533,8.533,0,0,1,.47,2.888,6.03,6.03,0,0,1-1.35,4.059,6.8,6.8,0,0,1-3.879,2.128L22.3,0ZM8.323-20.439v5.9h3.025q3.845,0,3.845-2.939a2.677,2.677,0,0,0-.94-2.17,4.469,4.469,0,0,0-2.905-.786ZM40.9-9.041l-.051,1.179H27.822a4.548,4.548,0,0,0,1.4,3.213,4.482,4.482,0,0,0,3.093,1.111,4.319,4.319,0,0,0,2.316-.607,3.729,3.729,0,0,0,1.478-1.769l4.512.667a7.67,7.67,0,0,1-3.076,4.119,9.146,9.146,0,0,1-5.2,1.47,9.511,9.511,0,0,1-6.844-2.418,8.823,8.823,0,0,1-2.538-6.708,8.876,8.876,0,0,1,2.546-6.708A9.228,9.228,0,0,1,32.2-17.944,8.819,8.819,0,0,1,38.5-15.706Q40.879-13.467,40.9-9.041Zm-8.665-5.417a3.889,3.889,0,0,0-4.272,3.384h8.066a3.7,3.7,0,0,0-1.213-2.512A3.846,3.846,0,0,0,32.231-14.458ZM54.944-17.91a8.544,8.544,0,0,1,3.281.632A8.211,8.211,0,0,1,60.917-15.5a8.041,8.041,0,0,1,1.82,2.9A10.755,10.755,0,0,1,63.4-8.75,10.755,10.755,0,0,1,62.737-4.9,8.041,8.041,0,0,1,60.917-2,8.211,8.211,0,0,1,58.225-.222,8.544,8.544,0,0,1,54.944.41a7.624,7.624,0,0,1-3.179-.649,4.981,4.981,0,0,1-2.2-1.846V8.545H44.639V-17.568H49.3l.137,2.358a4.812,4.812,0,0,1,2.2-1.991A7.547,7.547,0,0,1,54.944-17.91ZM53.833-3.674A4.422,4.422,0,0,0,57.157-5.05a5.11,5.11,0,0,0,1.324-3.7,5.11,5.11,0,0,0-1.324-3.7,4.422,4.422,0,0,0-3.324-1.376,4.429,4.429,0,0,0-3.35,1.4A5.111,5.111,0,0,0,49.15-8.75a5.111,5.111,0,0,0,1.333,3.674A4.429,4.429,0,0,0,53.833-3.674ZM75.3.342A11.047,11.047,0,0,1,70.325-.735,8.047,8.047,0,0,1,66.915-3.9a9.422,9.422,0,0,1-1.239-4.9,8.594,8.594,0,0,1,2.666-6.665A9.89,9.89,0,0,1,75.3-17.91a9.915,9.915,0,0,1,6.973,2.444A8.594,8.594,0,0,1,84.937-8.8a8.642,8.642,0,0,1-2.666,6.691A9.894,9.894,0,0,1,75.3.342Zm-.051-3.914a4.509,4.509,0,0,0,3.478-1.436A5.374,5.374,0,0,0,80.049-8.8,5.374,5.374,0,0,0,78.724-12.6a4.509,4.509,0,0,0-3.478-1.436,4.344,4.344,0,0,0-3.375,1.444A5.424,5.424,0,0,0,70.564-8.8a5.424,5.424,0,0,0,1.307,3.785A4.344,4.344,0,0,0,75.247-3.572ZM93.311-14.783a5.7,5.7,0,0,1,2.307-2.111,7.04,7.04,0,0,1,3.435-.88v4.392a6.655,6.655,0,0,0-4.2,1.06q-1.3,1.06-1.3,3.76V0H88.594V-17.568h4.717ZM109.495,0a5.306,5.306,0,0,1-3.965-1.427,5.55,5.55,0,0,1-1.4-4.059v-8.306h-3.452v-3.777h1.111a2.9,2.9,0,0,0,2.188-.735,3.784,3.784,0,0,0,.7-2.615v-2.324h4.443v5.674h3.623v3.777h-3.623v7.776q0,2.273,2.034,2.273h1.589V0ZM133.01-9.041l-.051,1.179H119.937a4.548,4.548,0,0,0,1.4,3.213,4.482,4.482,0,0,0,3.093,1.111,4.319,4.319,0,0,0,2.316-.607,3.729,3.729,0,0,0,1.478-1.769l4.512.667a7.67,7.67,0,0,1-3.076,4.119,9.146,9.146,0,0,1-5.2,1.47,9.511,9.511,0,0,1-6.844-2.418,8.823,8.823,0,0,1-2.538-6.708,8.876,8.876,0,0,1,2.546-6.708,9.228,9.228,0,0,1,6.682-2.452,8.819,8.819,0,0,1,6.306,2.239Q132.993-13.467,133.01-9.041Zm-8.665-5.417a3.889,3.889,0,0,0-4.272,3.384h8.066a3.7,3.7,0,0,0-1.213-2.512A3.846,3.846,0,0,0,124.346-14.458ZM158.3-26.25h4.922V0H158.56l-.12-2.29A5.017,5.017,0,0,1,156.21-.3a7.507,7.507,0,0,1-3.29.709,8.544,8.544,0,0,1-3.281-.632,8.145,8.145,0,0,1-2.692-1.786,8.14,8.14,0,0,1-1.82-2.9,10.686,10.686,0,0,1-.667-3.845,9.988,9.988,0,0,1,1.162-4.9,7.963,7.963,0,0,1,3.068-3.187,8.448,8.448,0,0,1,4.23-1.077,7.7,7.7,0,0,1,3.187.641,4.976,4.976,0,0,1,2.2,1.82ZM154.048-3.674a4.382,4.382,0,0,0,3.324-1.4A5.13,5.13,0,0,0,158.7-8.75a5.141,5.141,0,0,0-1.333-3.683,4.377,4.377,0,0,0-3.315-1.41,4.428,4.428,0,0,0-3.341,1.384,5.14,5.14,0,0,0-1.324,3.708,5.117,5.117,0,0,0,1.324,3.691A4.428,4.428,0,0,0,154.048-3.674Zm30.8-5.366-.051,1.179H171.77a4.548,4.548,0,0,0,1.4,3.213,4.482,4.482,0,0,0,3.093,1.111,4.319,4.319,0,0,0,2.316-.607,3.729,3.729,0,0,0,1.478-1.769l4.512.667a7.67,7.67,0,0,1-3.076,4.119,9.146,9.146,0,0,1-5.2,1.47,9.511,9.511,0,0,1-6.844-2.418,8.823,8.823,0,0,1-2.538-6.708,8.876,8.876,0,0,1,2.546-6.708,9.228,9.228,0,0,1,6.682-2.452,8.819,8.819,0,0,1,6.306,2.239Q184.827-13.467,184.844-9.041Zm-8.665-5.417a3.889,3.889,0,0,0-4.272,3.384h8.066a3.7,3.7,0,0,0-1.213-2.512A3.846,3.846,0,0,0,176.179-14.458ZM205.625.325A9.387,9.387,0,0,1,198.84-2.2a8.736,8.736,0,0,1-2.632-6.6,8.716,8.716,0,0,1,2.623-6.6,9.416,9.416,0,0,1,6.793-2.512,9.361,9.361,0,0,1,5.691,1.692,7.554,7.554,0,0,1,2.939,4.768l-4.546.5a3.9,3.9,0,0,0-1.47-2.307,4.469,4.469,0,0,0-2.666-.769,4.03,4.03,0,0,0-3.213,1.436A5.628,5.628,0,0,0,201.13-8.8a5.635,5.635,0,0,0,1.23,3.785,4.019,4.019,0,0,0,3.213,1.444,4.43,4.43,0,0,0,2.657-.769,3.985,3.985,0,0,0,1.478-2.307l4.546.5a7.574,7.574,0,0,1-2.965,4.768A9.323,9.323,0,0,1,205.625.325Zm20.32.017a11.047,11.047,0,0,1-4.973-1.077A8.047,8.047,0,0,1,217.562-3.9a9.422,9.422,0,0,1-1.239-4.9,8.594,8.594,0,0,1,2.666-6.665,9.89,9.89,0,0,1,6.956-2.444,9.915,9.915,0,0,1,6.973,2.444A8.594,8.594,0,0,1,235.583-8.8a8.642,8.642,0,0,1-2.666,6.691A9.894,9.894,0,0,1,225.945.342Zm-.051-3.914a4.509,4.509,0,0,0,3.478-1.436A5.374,5.374,0,0,0,230.7-8.8a5.374,5.374,0,0,0-1.324-3.794,4.509,4.509,0,0,0-3.478-1.436,4.344,4.344,0,0,0-3.375,1.444A5.424,5.424,0,0,0,221.211-8.8a5.424,5.424,0,0,0,1.307,3.785A4.344,4.344,0,0,0,225.894-3.572ZM249.614-17.91a6.849,6.849,0,0,1,4.854,1.581,5.861,5.861,0,0,1,1.692,4.5V0h-4.939V-10.767a3.06,3.06,0,0,0-.88-2.427,3.316,3.316,0,0,0-2.264-.769,4.626,4.626,0,0,0-1.47.222,3.776,3.776,0,0,0-1.23.692,3.059,3.059,0,0,0-.88,1.324,6.126,6.126,0,0,0-.333,2.034V0h-4.922V-17.568h4.922v1.948A6.769,6.769,0,0,1,249.614-17.91Zm23.772-8.34h4.922V0h-4.666l-.12-2.29A5.017,5.017,0,0,1,271.293-.3,7.507,7.507,0,0,1,268,.41a8.544,8.544,0,0,1-3.281-.632,8.145,8.145,0,0,1-2.692-1.786,8.14,8.14,0,0,1-1.82-2.9,10.686,10.686,0,0,1-.667-3.845,9.988,9.988,0,0,1,1.162-4.9,7.963,7.963,0,0,1,3.068-3.187A8.448,8.448,0,0,1,268-17.91a7.7,7.7,0,0,1,3.187.641,4.976,4.976,0,0,1,2.2,1.82ZM269.131-3.674a4.382,4.382,0,0,0,3.324-1.4,5.13,5.13,0,0,0,1.324-3.674,5.141,5.141,0,0,0-1.333-3.683,4.377,4.377,0,0,0-3.315-1.41,4.428,4.428,0,0,0-3.341,1.384,5.14,5.14,0,0,0-1.324,3.708,5.117,5.117,0,0,0,1.324,3.691A4.428,4.428,0,0,0,269.131-3.674ZM285.913-20.2a2.763,2.763,0,0,1-2.017-.829,2.721,2.721,0,0,1-.837-2.008,2.688,2.688,0,0,1,.846-1.991,2.772,2.772,0,0,1,2.008-.829,2.724,2.724,0,0,1,1.982.829,2.7,2.7,0,0,1,.837,1.991,2.721,2.721,0,0,1-.837,2.008A2.724,2.724,0,0,1,285.913-20.2ZM283.4,0V-17.568h4.956V0Zm18,.325A9.387,9.387,0,0,1,294.612-2.2a8.736,8.736,0,0,1-2.632-6.6,8.716,8.716,0,0,1,2.623-6.6A9.416,9.416,0,0,1,301.4-17.91a9.361,9.361,0,0,1,5.691,1.692,7.553,7.553,0,0,1,2.939,4.768l-4.546.5a3.9,3.9,0,0,0-1.47-2.307,4.469,4.469,0,0,0-2.666-.769,4.03,4.03,0,0,0-3.213,1.436A5.628,5.628,0,0,0,296.9-8.8a5.635,5.635,0,0,0,1.23,3.785,4.019,4.019,0,0,0,3.213,1.444A4.43,4.43,0,0,0,304-4.341a3.985,3.985,0,0,0,1.478-2.307l4.546.5a7.574,7.574,0,0,1-2.965,4.768A9.323,9.323,0,0,1,301.4.325ZM316.042-20.2a2.763,2.763,0,0,1-2.017-.829,2.721,2.721,0,0,1-.837-2.008,2.688,2.688,0,0,1,.846-1.991,2.772,2.772,0,0,1,2.008-.829,2.724,2.724,0,0,1,1.982.829,2.7,2.7,0,0,1,.837,1.991,2.721,2.721,0,0,1-.837,2.008A2.724,2.724,0,0,1,316.042-20.2ZM313.53,0V-17.568h4.956V0Zm18.235.342a11.047,11.047,0,0,1-4.973-1.077A8.047,8.047,0,0,1,323.383-3.9a9.422,9.422,0,0,1-1.239-4.9,8.594,8.594,0,0,1,2.666-6.665,9.89,9.89,0,0,1,6.956-2.444,9.915,9.915,0,0,1,6.973,2.444A8.594,8.594,0,0,1,341.4-8.8a8.642,8.642,0,0,1-2.666,6.691A9.894,9.894,0,0,1,331.765.342Zm-.051-3.914a4.509,4.509,0,0,0,3.478-1.436A5.374,5.374,0,0,0,336.516-8.8a5.374,5.374,0,0,0-1.324-3.794,4.509,4.509,0,0,0-3.478-1.436,4.344,4.344,0,0,0-3.375,1.444A5.424,5.424,0,0,0,327.031-8.8a5.424,5.424,0,0,0,1.307,3.785A4.344,4.344,0,0,0,331.714-3.572ZM355.435-17.91a6.849,6.849,0,0,1,4.854,1.581,5.861,5.861,0,0,1,1.692,4.5V0h-4.939V-10.767a3.06,3.06,0,0,0-.88-2.427,3.316,3.316,0,0,0-2.264-.769,4.626,4.626,0,0,0-1.47.222,3.776,3.776,0,0,0-1.23.692,3.059,3.059,0,0,0-.88,1.324,6.125,6.125,0,0,0-.333,2.034V0h-4.922V-17.568h4.922v1.948A6.769,6.769,0,0,1,355.435-17.91Zm27.839,8.87-.051,1.179H370.2a4.548,4.548,0,0,0,1.4,3.213,4.482,4.482,0,0,0,3.093,1.111,4.319,4.319,0,0,0,2.316-.607,3.729,3.729,0,0,0,1.478-1.769L383-5.247a7.67,7.67,0,0,1-3.076,4.119,9.146,9.146,0,0,1-5.2,1.47,9.511,9.511,0,0,1-6.844-2.418,8.823,8.823,0,0,1-2.538-6.708,8.876,8.876,0,0,1,2.546-6.708,9.228,9.228,0,0,1,6.682-2.452,8.819,8.819,0,0,1,6.306,2.239Q383.257-13.467,383.274-9.041Zm-8.665-5.417a3.889,3.889,0,0,0-4.272,3.384H378.4a3.7,3.7,0,0,0-1.213-2.512A3.846,3.846,0,0,0,374.609-14.458ZM393.2.342a9.818,9.818,0,0,1-5.127-1.23,5.2,5.2,0,0,1-2.512-3.657l4.119-1.162A3.31,3.31,0,0,0,393.2-3.093a3.636,3.636,0,0,0,1.794-.4,1.4,1.4,0,0,0,.7-1.359,1.437,1.437,0,0,0-.291-.906,2.3,2.3,0,0,0-.9-.649,11.177,11.177,0,0,0-1.2-.461q-.59-.188-1.564-.453t-1.624-.5a10.876,10.876,0,0,1-1.547-.658,6.6,6.6,0,0,1-1.282-.906,3.651,3.651,0,0,1-.957-1.376,4.963,4.963,0,0,1-.333-1.88,4.488,4.488,0,0,1,1.906-3.931A8.514,8.514,0,0,1,392.9-17.91a8.729,8.729,0,0,1,4.6,1.128,5.1,5.1,0,0,1,2.358,3.521l-3.811.854a2.985,2.985,0,0,0-3.127-2.222,3.425,3.425,0,0,0-1.726.393,1.263,1.263,0,0,0-.684,1.162,1.331,1.331,0,0,0,.1.53,1.049,1.049,0,0,0,.359.427,5.233,5.233,0,0,0,.5.325,3.739,3.739,0,0,0,.7.282q.461.145.769.222t.9.231l.914.239q.94.256,1.649.513a9.66,9.66,0,0,1,1.512.718,5.428,5.428,0,0,1,1.324,1.034A4.611,4.611,0,0,1,400.09-7.1a5.365,5.365,0,0,1,.342,1.957,5.285,5.285,0,0,1-.59,2.546A4.426,4.426,0,0,1,398.228-.88a7.861,7.861,0,0,1-2.281.923A11.835,11.835,0,0,1,393.2.342ZM425.52-26.25h4.922V0h-4.666l-.12-2.29A5.017,5.017,0,0,1,423.427-.3a7.507,7.507,0,0,1-3.29.709,8.544,8.544,0,0,1-3.281-.632,8.145,8.145,0,0,1-2.692-1.786,8.14,8.14,0,0,1-1.82-2.9,10.686,10.686,0,0,1-.667-3.845,9.988,9.988,0,0,1,1.162-4.9,7.963,7.963,0,0,1,3.068-3.187,8.448,8.448,0,0,1,4.23-1.077,7.7,7.7,0,0,1,3.187.641,4.976,4.976,0,0,1,2.2,1.82ZM421.265-3.674a4.382,4.382,0,0,0,3.324-1.4,5.13,5.13,0,0,0,1.324-3.674,5.141,5.141,0,0,0-1.333-3.683,4.377,4.377,0,0,0-3.315-1.41,4.428,4.428,0,0,0-3.341,1.384A5.14,5.14,0,0,0,416.6-8.75a5.117,5.117,0,0,0,1.324,3.691A4.428,4.428,0,0,0,421.265-3.674Zm30.8-5.366-.051,1.179H438.987a4.548,4.548,0,0,0,1.4,3.213,4.482,4.482,0,0,0,3.093,1.111,4.319,4.319,0,0,0,2.316-.607,3.729,3.729,0,0,0,1.478-1.769l4.512.667a7.67,7.67,0,0,1-3.076,4.119,9.146,9.146,0,0,1-5.2,1.47,9.511,9.511,0,0,1-6.844-2.418,8.823,8.823,0,0,1-2.538-6.708,8.876,8.876,0,0,1,2.546-6.708,9.228,9.228,0,0,1,6.682-2.452,8.819,8.819,0,0,1,6.306,2.239Q452.043-13.467,452.061-9.041ZM443.4-14.458a3.889,3.889,0,0,0-4.272,3.384h8.066a3.7,3.7,0,0,0-1.213-2.512A3.846,3.846,0,0,0,443.4-14.458ZM471.082.342a9.818,9.818,0,0,1-5.127-1.23,5.2,5.2,0,0,1-2.512-3.657l4.119-1.162a3.31,3.31,0,0,0,3.521,2.615,3.636,3.636,0,0,0,1.794-.4,1.4,1.4,0,0,0,.7-1.359,1.437,1.437,0,0,0-.291-.906,2.3,2.3,0,0,0-.9-.649,11.177,11.177,0,0,0-1.2-.461q-.59-.188-1.564-.453t-1.624-.5a10.876,10.876,0,0,1-1.547-.658,6.6,6.6,0,0,1-1.282-.906,3.651,3.651,0,0,1-.957-1.376,4.963,4.963,0,0,1-.333-1.88,4.488,4.488,0,0,1,1.906-3.931,8.514,8.514,0,0,1,4.982-1.333,8.729,8.729,0,0,1,4.6,1.128,5.1,5.1,0,0,1,2.358,3.521l-3.811.854a2.985,2.985,0,0,0-3.127-2.222,3.425,3.425,0,0,0-1.726.393,1.263,1.263,0,0,0-.684,1.162,1.331,1.331,0,0,0,.1.53,1.049,1.049,0,0,0,.359.427,5.233,5.233,0,0,0,.5.325,3.739,3.739,0,0,0,.7.282q.461.145.769.222t.9.231l.914.239q.94.256,1.649.513a9.66,9.66,0,0,1,1.512.718,5.428,5.428,0,0,1,1.324,1.034,4.611,4.611,0,0,1,.863,1.453,5.365,5.365,0,0,1,.342,1.957,5.285,5.285,0,0,1-.59,2.546A4.426,4.426,0,0,1,476.106-.88a7.861,7.861,0,0,1-2.281.923A11.835,11.835,0,0,1,471.082.342Zm25.173-5.11a16.436,16.436,0,0,0,.427,4.29V0h-4.6l-.393-1.914a5.712,5.712,0,0,1-2.461,1.692,9.07,9.07,0,0,1-3.179.564,8.359,8.359,0,0,1-1.641-.154,5.577,5.577,0,0,1-1.478-.521,4.486,4.486,0,0,1-1.222-.914,4.009,4.009,0,0,1-.82-1.393,5.548,5.548,0,0,1-.308-1.906,5.284,5.284,0,0,1,.325-1.906,4.466,4.466,0,0,1,.854-1.427,5.183,5.183,0,0,1,1.384-1.042,10.593,10.593,0,0,1,1.743-.752,20.828,20.828,0,0,1,2.085-.547l2.888-.649a3.185,3.185,0,0,0,1.307-.555,1.108,1.108,0,0,0,.385-.88A1.813,1.813,0,0,0,490.692-14a4.03,4.03,0,0,0-2.094-.513q-3.025,0-3.435,2.683l-4.358-.786a5.9,5.9,0,0,1,2.546-4.008,10.121,10.121,0,0,1,5.52-1.29q7.383,0,7.383,6.34ZM487.59-2.991a3.958,3.958,0,0,0,3.042-1.273,5.365,5.365,0,0,0,1.179-3.768l-4.17,1.179a4.928,4.928,0,0,0-1.752.718,1.474,1.474,0,0,0-.607,1.265,1.637,1.637,0,0,0,.649,1.393A2.688,2.688,0,0,0,487.59-2.991ZM501.04,0V-26.25h4.973V0Zm21.7-17.568h4.922V0H523l-.12-2.119A6.709,6.709,0,0,1,517.292.342a6.849,6.849,0,0,1-4.854-1.581,5.861,5.861,0,0,1-1.692-4.5V-17.568h4.939V-6.8a3.037,3.037,0,0,0,.88,2.41,3.341,3.341,0,0,0,2.281.769,3.962,3.962,0,0,0,2.794-1,4.3,4.3,0,0,0,1.1-3.256Zm22.473-8.682h4.922V0h-4.666l-.12-2.29A5.017,5.017,0,0,1,543.124-.3a7.507,7.507,0,0,1-3.29.709,8.544,8.544,0,0,1-3.281-.632,8.145,8.145,0,0,1-2.692-1.786,8.14,8.14,0,0,1-1.82-2.9,10.686,10.686,0,0,1-.667-3.845,9.988,9.988,0,0,1,1.162-4.9,7.963,7.963,0,0,1,3.068-3.187,8.448,8.448,0,0,1,4.23-1.077,7.7,7.7,0,0,1,3.187.641,4.976,4.976,0,0,1,2.2,1.82ZM540.962-3.674a4.382,4.382,0,0,0,3.324-1.4A5.13,5.13,0,0,0,545.61-8.75a5.141,5.141,0,0,0-1.333-3.683,4.377,4.377,0,0,0-3.315-1.41,4.428,4.428,0,0,0-3.341,1.384A5.14,5.14,0,0,0,536.3-8.75a5.117,5.117,0,0,0,1.324,3.691A4.428,4.428,0,0,0,540.962-3.674Z" transform="translate(-2715 5567)" fill="#fff"/>
      <rect id="Rect치ngulo_3151" data-name="Rect치ngulo 3151" width="710" height="63" transform="translate(-2747 5780)" fill="#fff"/>
      <path id="Trazado_35395" data-name="Trazado 35395" d="M8.813,24.244A9.128,9.128,0,0,1,6.1,23.86a6.393,6.393,0,0,1-2.179-1.154,5.163,5.163,0,0,1-1.471-2.014,7.259,7.259,0,0,1-.531-2.869V6.361H5.579V17.323a3.834,3.834,0,0,0,.885,2.8,3.164,3.164,0,0,0,2.35.891,3.194,3.194,0,0,0,2.362-.9,3.8,3.8,0,0,0,.9-2.789V6.361h3.662V17.823a7.259,7.259,0,0,1-.531,2.869,5.135,5.135,0,0,1-1.477,2.014,6.46,6.46,0,0,1-2.185,1.154A9.172,9.172,0,0,1,8.813,24.244Zm15.076,0a7.013,7.013,0,0,1-3.662-.879,3.715,3.715,0,0,1-1.794-2.612l2.942-.83a2.364,2.364,0,0,0,2.515,1.868,2.6,2.6,0,0,0,1.282-.287,1,1,0,0,0,.5-.97,1.027,1.027,0,0,0-.208-.647,1.644,1.644,0,0,0-.641-.464,7.984,7.984,0,0,0-.854-.33q-.421-.134-1.117-.323t-1.16-.36a7.768,7.768,0,0,1-1.1-.47,4.712,4.712,0,0,1-.916-.647,2.608,2.608,0,0,1-.684-.983,3.545,3.545,0,0,1-.238-1.343,3.206,3.206,0,0,1,1.361-2.808,6.081,6.081,0,0,1,3.558-.952,6.235,6.235,0,0,1,3.284.806,3.646,3.646,0,0,1,1.685,2.515l-2.722.61a2.132,2.132,0,0,0-2.234-1.587,2.446,2.446,0,0,0-1.233.281.9.9,0,0,0-.488.83.951.951,0,0,0,.073.378.749.749,0,0,0,.256.305,3.739,3.739,0,0,0,.354.232,2.671,2.671,0,0,0,.5.2q.33.1.549.159t.641.165l.653.171q.671.183,1.178.366a6.9,6.9,0,0,1,1.08.513,3.877,3.877,0,0,1,.946.739,3.294,3.294,0,0,1,.616,1.038,3.832,3.832,0,0,1,.244,1.4,3.775,3.775,0,0,1-.421,1.819,3.161,3.161,0,0,1-1.154,1.227,5.615,5.615,0,0,1-1.63.659A8.454,8.454,0,0,1,23.889,24.244Zm17.981-3.65a11.74,11.74,0,0,0,.305,3.064V24H38.892l-.281-1.367a4.08,4.08,0,0,1-1.758,1.208,6.478,6.478,0,0,1-2.271.4,5.97,5.97,0,0,1-1.172-.11,3.984,3.984,0,0,1-1.056-.372,3.2,3.2,0,0,1-.873-.653,2.864,2.864,0,0,1-.586-.995,3.963,3.963,0,0,1-.22-1.361,3.774,3.774,0,0,1,.232-1.361,3.19,3.19,0,0,1,.61-1.019,3.7,3.7,0,0,1,.989-.745,7.566,7.566,0,0,1,1.245-.537,14.878,14.878,0,0,1,1.489-.391l2.063-.464a2.275,2.275,0,0,0,.934-.4.791.791,0,0,0,.275-.629A1.3,1.3,0,0,0,37.9,14a2.878,2.878,0,0,0-1.5-.366,2.152,2.152,0,0,0-2.454,1.917l-3.113-.562a4.214,4.214,0,0,1,1.819-2.863,7.229,7.229,0,0,1,3.943-.922q5.273,0,5.273,4.529Zm-6.189,1.27a2.827,2.827,0,0,0,2.173-.909,3.832,3.832,0,0,0,.842-2.692l-2.979.842a3.52,3.52,0,0,0-1.251.513,1.053,1.053,0,0,0-.433.9,1.169,1.169,0,0,0,.464.995A1.92,1.92,0,0,0,35.681,21.864Zm12.976-8.423a4.074,4.074,0,0,1,1.648-1.508,5.028,5.028,0,0,1,2.454-.629v3.137a4.754,4.754,0,0,0-3,.757,3.3,3.3,0,0,0-.928,2.686V24h-3.54V11.451h3.369Zm20.935,10.8A9.846,9.846,0,0,1,66,23.6a8.454,8.454,0,0,1-2.863-1.807,8.144,8.144,0,0,1-1.88-2.869,10,10,0,0,1-.684-3.748,9.555,9.555,0,0,1,1.172-4.791A7.978,7.978,0,0,1,64.96,7.215a9.631,9.631,0,0,1,4.633-1.1,9.36,9.36,0,0,1,5.176,1.428,7.818,7.818,0,0,1,3.162,3.931l-3.418,1.245a4.832,4.832,0,0,0-1.892-2.38,5.4,5.4,0,0,0-3.027-.854,5.181,5.181,0,0,0-3.857,1.538,5.66,5.66,0,0,0-1.514,4.15,5.668,5.668,0,0,0,1.52,4.156,5.175,5.175,0,0,0,3.851,1.544,5.384,5.384,0,0,0,3.021-.861,4.854,4.854,0,0,0,1.9-2.386l3.418,1.245a7.85,7.85,0,0,1-3.162,3.937A9.33,9.33,0,0,1,69.592,24.244Zm16.724,0a7.891,7.891,0,0,1-3.552-.769,5.748,5.748,0,0,1-2.435-2.258,6.73,6.73,0,0,1-.885-3.5,6.138,6.138,0,0,1,1.9-4.761,7.96,7.96,0,0,1,9.949,0,6.138,6.138,0,0,1,1.9,4.761,6.173,6.173,0,0,1-1.9,4.779A7.067,7.067,0,0,1,86.316,24.244Zm-.037-2.8a3.221,3.221,0,0,0,2.484-1.025,3.838,3.838,0,0,0,.946-2.71A3.838,3.838,0,0,0,88.763,15a3.221,3.221,0,0,0-2.484-1.025,3.1,3.1,0,0,0-2.411,1.031,3.874,3.874,0,0,0-.934,2.7,3.874,3.874,0,0,0,.934,2.7A3.1,3.1,0,0,0,86.279,21.449Zm12.9-8.008a4.074,4.074,0,0,1,1.648-1.508,5.028,5.028,0,0,1,2.454-.629v3.137a4.754,4.754,0,0,0-3,.757,3.3,3.3,0,0,0-.928,2.686V24h-3.54V11.451h3.369Zm11.938,10.8a7.891,7.891,0,0,1-3.552-.769,5.748,5.748,0,0,1-2.435-2.258,6.73,6.73,0,0,1-.885-3.5,6.138,6.138,0,0,1,1.9-4.761,7.96,7.96,0,0,1,9.949,0,6.138,6.138,0,0,1,1.9,4.761,6.173,6.173,0,0,1-1.9,4.779A7.067,7.067,0,0,1,111.121,24.244Zm-.037-2.8a3.221,3.221,0,0,0,2.484-1.025,3.838,3.838,0,0,0,.946-2.71,3.838,3.838,0,0,0-.946-2.71,3.221,3.221,0,0,0-2.484-1.025,3.1,3.1,0,0,0-2.411,1.031,3.874,3.874,0,0,0-.934,2.7,3.874,3.874,0,0,0,.934,2.7A3.1,3.1,0,0,0,111.084,21.449Zm16.943-10.242a4.892,4.892,0,0,1,3.467,1.129,4.187,4.187,0,0,1,1.208,3.217V24h-3.528V16.31a2.186,2.186,0,0,0-.629-1.733,2.369,2.369,0,0,0-1.617-.549,3.3,3.3,0,0,0-1.05.159,2.7,2.7,0,0,0-.879.494,2.185,2.185,0,0,0-.629.946,4.375,4.375,0,0,0-.238,1.453V24h-3.516V11.451h3.516v1.392A4.835,4.835,0,0,1,128.027,11.207ZM148.376,24l-1.282-3.638h-7.41L138.4,24h-3.748L141.15,6.361h4.48L152.124,24Zm-7.617-6.7h5.261L143.4,9.815Zm20.911-6.091a6.1,6.1,0,0,1,2.344.452,5.865,5.865,0,0,1,1.923,1.27,5.744,5.744,0,0,1,1.3,2.069,7.682,7.682,0,0,1,.476,2.753,7.682,7.682,0,0,1-.476,2.753,5.743,5.743,0,0,1-1.3,2.069,5.865,5.865,0,0,1-1.923,1.27,6.1,6.1,0,0,1-2.344.452,5.446,5.446,0,0,1-2.271-.464,3.558,3.558,0,0,1-1.575-1.318V30.1h-3.516V11.451h3.333l.1,1.685a3.437,3.437,0,0,1,1.569-1.422A5.391,5.391,0,0,1,161.67,11.207Zm-.793,10.168a3.158,3.158,0,0,0,2.374-.983,3.65,3.65,0,0,0,.946-2.643,3.65,3.65,0,0,0-.946-2.643,3.36,3.36,0,0,0-4.767.018,3.651,3.651,0,0,0-.952,2.625,3.651,3.651,0,0,0,.952,2.625A3.163,3.163,0,0,0,160.876,21.375Zm16.846-10.168a6.1,6.1,0,0,1,2.344.452,5.865,5.865,0,0,1,1.923,1.27,5.744,5.744,0,0,1,1.3,2.069,7.682,7.682,0,0,1,.476,2.753,7.682,7.682,0,0,1-.476,2.753,5.743,5.743,0,0,1-1.3,2.069,5.865,5.865,0,0,1-1.923,1.27,6.1,6.1,0,0,1-2.344.452,5.446,5.446,0,0,1-2.271-.464,3.558,3.558,0,0,1-1.575-1.318V30.1h-3.516V11.451h3.333l.1,1.685a3.437,3.437,0,0,1,1.569-1.422A5.391,5.391,0,0,1,177.722,11.207Zm-.793,10.168a3.158,3.158,0,0,0,2.374-.983,3.65,3.65,0,0,0,.946-2.643,3.65,3.65,0,0,0-.946-2.643,3.36,3.36,0,0,0-4.767.018,3.651,3.651,0,0,0-.952,2.625,3.651,3.651,0,0,0,.952,2.625A3.163,3.163,0,0,0,176.929,21.375Z" transform="translate(-2715 5614)" fill="#73e3d2"/>
      <g id="Grupo_19071" data-name="Grupo 19071" transform="translate(-3255 4213)">
        <rect id="rectangle" width="30" height="30" transform="translate(504 1466)" fill="none"/>
        <path id="path" d="M8.6,7.75,10.35,6l7.5,7.5L10.35,21,8.6,19.25l5.75-5.75Z" transform="translate(506.15 1467.5)" fill="#fff" fill-rule="evenodd"/>
      </g>
      <g id="Grupo_19072" data-name="Grupo 19072" transform="translate(-3255 4242)">
        <rect id="rectangle-2" data-name="rectangle" width="30" height="30" transform="translate(504 1466)" fill="none"/>
        <path id="path-2" data-name="path" d="M8.6,7.75,10.35,6l7.5,7.5L10.35,21,8.6,19.25l5.75-5.75Z" transform="translate(506.15 1467.5)" fill="#fff" fill-rule="evenodd"/>
      </g>
      <g id="Grupo_19073" data-name="Grupo 19073" transform="translate(-3255 4272)">
        <rect id="rectangle-3" data-name="rectangle" width="30" height="30" transform="translate(504 1466)" fill="none"/>
        <path id="path-3" data-name="path" d="M8.6,7.75,10.35,6l7.5,7.5L10.35,21,8.6,19.25l5.75-5.75Z" transform="translate(506.15 1467.5)" fill="#fff" fill-rule="evenodd"/>
      </g>
      <path id="Trazado_35394" data-name="Trazado 35394" d="M9.6,19,6.064,12.8H3.906V19H2.158V5.25H6.719A4.107,4.107,0,0,1,9.8,6.339a3.844,3.844,0,0,1,1.06,2.8,3.588,3.588,0,0,1-.806,2.393,3.6,3.6,0,0,1-2.241,1.2L11.641,19ZM3.906,6.783v4.639H6.484A2.879,2.879,0,0,0,8.5,10.8,2.177,2.177,0,0,0,9.17,9.117a2.215,2.215,0,0,0-.679-1.7,2.839,2.839,0,0,0-2.007-.635ZM21.973,14.01l-.02.459h-7.5a3.392,3.392,0,0,0,.918,2.456,3.014,3.014,0,0,0,2.188.854,2.878,2.878,0,0,0,1.592-.459,2.978,2.978,0,0,0,1.094-1.27l1.523.322a4.33,4.33,0,0,1-1.641,2.061,4.476,4.476,0,0,1-2.549.752,4.638,4.638,0,0,1-3.457-1.338A4.977,4.977,0,0,1,12.8,14.2a4.953,4.953,0,0,1,1.323-3.643,4.58,4.58,0,0,1,3.4-1.338,4.334,4.334,0,0,1,3.228,1.23A4.862,4.862,0,0,1,21.973,14.01Zm-4.443-3.5a2.994,2.994,0,0,0-2,.679,3.11,3.11,0,0,0-1.011,1.978h5.752a2.852,2.852,0,0,0-.84-1.978A2.712,2.712,0,0,0,17.529,10.514Zm9.307,8.672a3.267,3.267,0,0,1-2.1-.659,2.367,2.367,0,0,1-.825-1.968A2.8,2.8,0,0,1,24.17,15.3a2.212,2.212,0,0,1,.781-.874,4.687,4.687,0,0,1,1.128-.542,10.427,10.427,0,0,1,1.46-.347l1.553-.254q.85-.156.85-.889a1.678,1.678,0,0,0-.6-1.431,2.447,2.447,0,0,0-1.519-.454,2.493,2.493,0,0,0-1.5.439,1.839,1.839,0,0,0-.713,1.348l-1.523-.322a2.932,2.932,0,0,1,1.2-2.056A4.488,4.488,0,0,1,27.9,9.234a5.308,5.308,0,0,1,1.392.171,3.782,3.782,0,0,1,1.162.537,2.409,2.409,0,0,1,.83,1.035,3.852,3.852,0,0,1,.3,1.577V16.52a1.622,1.622,0,0,0,.22,1,.949.949,0,0,0,.757.259h.156V19h-.84a1.6,1.6,0,0,1-1.816-1.3H29.98A3.668,3.668,0,0,1,26.836,19.186Zm.391-1.367a2.561,2.561,0,0,0,2.061-.928,3.819,3.819,0,0,0,.781-2.539l-2.539.488a3.418,3.418,0,0,0-1.489.532,1.238,1.238,0,0,0-.483,1.05,1.224,1.224,0,0,0,.464,1.055A1.983,1.983,0,0,0,27.227,17.818ZM35.1,19V4h1.709V19ZM41.1,7.145A1.15,1.15,0,0,1,39.961,6a1.083,1.083,0,0,1,.337-.8,1.107,1.107,0,0,1,.806-.332,1.1,1.1,0,0,1,.8.332,1.083,1.083,0,0,1,.337.8,1.1,1.1,0,0,1-.337.806A1.088,1.088,0,0,1,41.1,7.145ZM40.244,19V9.4h1.7V19Zm6.465-1.367h5.117V19H44.17l5.059-8.223H44.463V9.4h7.354Zm9.336,1.553a3.267,3.267,0,0,1-2.1-.659,2.367,2.367,0,0,1-.825-1.968,2.8,2.8,0,0,1,.264-1.255,2.212,2.212,0,0,1,.781-.874,4.686,4.686,0,0,1,1.128-.542,10.427,10.427,0,0,1,1.46-.347l1.553-.254q.85-.156.85-.889a1.678,1.678,0,0,0-.6-1.431,2.447,2.447,0,0,0-1.519-.454,2.493,2.493,0,0,0-1.5.439,1.839,1.839,0,0,0-.713,1.348l-1.523-.322a2.932,2.932,0,0,1,1.2-2.056,4.488,4.488,0,0,1,2.617-.688,5.308,5.308,0,0,1,1.392.171,3.782,3.782,0,0,1,1.162.537,2.409,2.409,0,0,1,.83,1.035,3.852,3.852,0,0,1,.3,1.577V16.52a1.622,1.622,0,0,0,.22,1,.949.949,0,0,0,.757.259h.156V19h-.84a1.6,1.6,0,0,1-1.816-1.3h-.078A3.668,3.668,0,0,1,56.045,19.186Zm.391-1.367a2.561,2.561,0,0,0,2.061-.928,3.819,3.819,0,0,0,.781-2.539l-2.539.488a3.418,3.418,0,0,0-1.489.532,1.238,1.238,0,0,0-.483,1.05,1.224,1.224,0,0,0,.464,1.055A1.983,1.983,0,0,0,56.436,17.818Zm9.521-6.729A2.9,2.9,0,0,1,67.148,9.8a3.588,3.588,0,0,1,1.846-.508v1.592a3.163,3.163,0,0,0-2.231.713A2.978,2.978,0,0,0,66,13.873V19H64.307V9.4h1.65Zm12.432,8.1a3.267,3.267,0,0,1-2.1-.659,2.367,2.367,0,0,1-.825-1.968,2.8,2.8,0,0,1,.264-1.255,2.212,2.212,0,0,1,.781-.874,4.687,4.687,0,0,1,1.128-.542,10.427,10.427,0,0,1,1.46-.347l1.553-.254q.85-.156.85-.889a1.678,1.678,0,0,0-.6-1.431,2.447,2.447,0,0,0-1.519-.454,2.493,2.493,0,0,0-1.5.439,1.839,1.839,0,0,0-.713,1.348l-1.523-.322a2.932,2.932,0,0,1,1.2-2.056,4.488,4.488,0,0,1,2.617-.688,5.308,5.308,0,0,1,1.392.171,3.782,3.782,0,0,1,1.162.537,2.409,2.409,0,0,1,.83,1.035,3.852,3.852,0,0,1,.3,1.577V16.52a1.622,1.622,0,0,0,.22,1,.949.949,0,0,0,.757.259h.156V19h-.84a1.6,1.6,0,0,1-1.816-1.3h-.078A3.668,3.668,0,0,1,78.389,19.186Zm.391-1.367a2.561,2.561,0,0,0,2.061-.928,3.819,3.819,0,0,0,.781-2.539l-2.539.488a3.418,3.418,0,0,0-1.489.532,1.238,1.238,0,0,0-.483,1.05,1.224,1.224,0,0,0,.464,1.055A1.983,1.983,0,0,0,78.779,17.818Zm12.4-8.6a3.339,3.339,0,0,1,2.417.869,3.242,3.242,0,0,1,.9,2.451V19H92.813V12.916a2.27,2.27,0,0,0-.586-1.719,2.1,2.1,0,0,0-1.5-.557,2.322,2.322,0,0,0-1.709.659,2.675,2.675,0,0,0-.674,1.958V19H86.65V9.4H88.34v1.23A3.206,3.206,0,0,1,91.182,9.215ZM100.83,19a2.523,2.523,0,0,1-1.875-.688,2.6,2.6,0,0,1-.684-1.919V10.748H96.309V9.4h.723a1.387,1.387,0,0,0,1.06-.337A1.658,1.658,0,0,0,98.4,7.936V6.2h1.572V9.4h2.207v1.348H99.971v5.469a1.455,1.455,0,0,0,.366,1.06,1.282,1.282,0,0,0,.962.376h.879V19Zm12.07-4.99-.02.459h-7.5a3.392,3.392,0,0,0,.918,2.456,3.014,3.014,0,0,0,2.188.854,2.878,2.878,0,0,0,1.592-.459,2.978,2.978,0,0,0,1.094-1.27l1.523.322a4.33,4.33,0,0,1-1.641,2.061,4.476,4.476,0,0,1-2.549.752,4.638,4.638,0,0,1-3.457-1.338A4.977,4.977,0,0,1,103.73,14.2a4.953,4.953,0,0,1,1.323-3.643,4.58,4.58,0,0,1,3.4-1.338,4.334,4.334,0,0,1,3.228,1.23A4.862,4.862,0,0,1,112.9,14.01Zm-4.443-3.5a2.994,2.994,0,0,0-2,.679,3.11,3.11,0,0,0-1.011,1.978H111.2a2.852,2.852,0,0,0-.84-1.978A2.712,2.712,0,0,0,108.457,10.514Zm10.127,8.672A4.551,4.551,0,0,1,116,18.492a2.868,2.868,0,0,1-1.26-1.973l1.475-.42A2.057,2.057,0,0,0,117,17.433a2.55,2.55,0,0,0,1.577.474,3.147,3.147,0,0,0,.923-.127,1.479,1.479,0,0,0,.708-.474,1.321,1.321,0,0,0,.205-1.27,1.7,1.7,0,0,0-.156-.317.967.967,0,0,0-.273-.264,3.605,3.605,0,0,0-.332-.205,3.408,3.408,0,0,0-.435-.181q-.288-.1-.464-.156t-.537-.156q-.361-.1-.557-.161a10.413,10.413,0,0,1-1-.352,4.369,4.369,0,0,1-.811-.464,1.866,1.866,0,0,1-.63-.757,2.561,2.561,0,0,1-.21-1.074,2.482,2.482,0,0,1,.469-1.533,2.637,2.637,0,0,1,1.216-.9,4.86,4.86,0,0,1,1.7-.278,4.171,4.171,0,0,1,2.339.625,2.668,2.668,0,0,1,1.167,1.875l-1.387.352a1.839,1.839,0,0,0-.732-1.216,2.332,2.332,0,0,0-1.377-.405,2.377,2.377,0,0,0-1.289.337,1.132,1.132,0,0,0-.537,1.03,1.025,1.025,0,0,0,.142.532,1.69,1.69,0,0,0,.288.376,1.771,1.771,0,0,0,.527.288q.381.151.566.205t.7.181q.1.029.146.039.566.146.923.259a5.672,5.672,0,0,1,.83.352,2.76,2.76,0,0,1,.747.522,2.421,2.421,0,0,1,.469.742,2.62,2.62,0,0,1,.2,1.035,2.8,2.8,0,0,1-.288,1.294,2.253,2.253,0,0,1-.786.884,3.8,3.8,0,0,1-1.118.483A5.327,5.327,0,0,1,118.584,19.186ZM137.061,4h1.689V19h-1.631l-.039-1.865a3.532,3.532,0,0,1-1.367,1.514,3.81,3.81,0,0,1-2.031.557,4.363,4.363,0,0,1-3.169-1.353,4.622,4.622,0,0,1-.967-1.587,5.805,5.805,0,0,1-.356-2.061,5.048,5.048,0,0,1,1.3-3.6,4.209,4.209,0,0,1,3.188-1.387,3.826,3.826,0,0,1,2.007.542,3.552,3.552,0,0,1,1.372,1.47Zm-3.027,13.74a2.875,2.875,0,0,0,2.231-1.011,3.648,3.648,0,0,0,.9-2.524,3.641,3.641,0,0,0-.908-2.52,2.873,2.873,0,0,0-2.227-1.016,2.938,2.938,0,0,0-2.246.981,3.611,3.611,0,0,0-.908,2.554,3.611,3.611,0,0,0,.908,2.554A2.938,2.938,0,0,0,134.033,17.74Zm16.553-3.73-.02.459h-7.5a3.392,3.392,0,0,0,.918,2.456,3.014,3.014,0,0,0,2.188.854,2.878,2.878,0,0,0,1.592-.459,2.978,2.978,0,0,0,1.094-1.27l1.523.322a4.33,4.33,0,0,1-1.641,2.061,4.476,4.476,0,0,1-2.549.752,4.638,4.638,0,0,1-3.457-1.338,4.977,4.977,0,0,1-1.318-3.652,4.953,4.953,0,0,1,1.323-3.643,4.58,4.58,0,0,1,3.4-1.338,4.334,4.334,0,0,1,3.228,1.23A4.862,4.862,0,0,1,150.586,14.01Zm-4.443-3.5a2.994,2.994,0,0,0-2,.679,3.11,3.11,0,0,0-1.011,1.978h5.752a2.852,2.852,0,0,0-.84-1.978A2.712,2.712,0,0,0,146.143,10.514Zm15.322,8.672a4.551,4.551,0,0,1-2.588-.693,2.868,2.868,0,0,1-1.26-1.973l1.475-.42a2.057,2.057,0,0,0,.786,1.333,2.55,2.55,0,0,0,1.577.474,3.147,3.147,0,0,0,.923-.127,1.479,1.479,0,0,0,.708-.474,1.321,1.321,0,0,0,.205-1.27,1.7,1.7,0,0,0-.156-.317.967.967,0,0,0-.273-.264,3.606,3.606,0,0,0-.332-.205,3.408,3.408,0,0,0-.435-.181q-.288-.1-.464-.156t-.537-.156q-.361-.1-.557-.161a10.414,10.414,0,0,1-1-.352,4.369,4.369,0,0,1-.811-.464,1.866,1.866,0,0,1-.63-.757,2.561,2.561,0,0,1-.21-1.074,2.482,2.482,0,0,1,.469-1.533,2.637,2.637,0,0,1,1.216-.9,4.86,4.86,0,0,1,1.7-.278,4.171,4.171,0,0,1,2.339.625,2.668,2.668,0,0,1,1.167,1.875l-1.387.352a1.839,1.839,0,0,0-.732-1.216,2.332,2.332,0,0,0-1.377-.405A2.377,2.377,0,0,0,160,10.8a1.132,1.132,0,0,0-.537,1.03,1.025,1.025,0,0,0,.142.532,1.69,1.69,0,0,0,.288.376,1.771,1.771,0,0,0,.527.288q.381.151.566.205t.7.181q.1.029.146.039.566.146.923.259a5.672,5.672,0,0,1,.83.352,2.76,2.76,0,0,1,.747.522,2.42,2.42,0,0,1,.469.742,2.62,2.62,0,0,1,.2,1.035,2.8,2.8,0,0,1-.288,1.294,2.253,2.253,0,0,1-.786.884,3.8,3.8,0,0,1-1.118.483A5.327,5.327,0,0,1,161.465,19.186Zm8.408,0a3.267,3.267,0,0,1-2.1-.659,2.367,2.367,0,0,1-.825-1.968,2.8,2.8,0,0,1,.264-1.255,2.212,2.212,0,0,1,.781-.874,4.686,4.686,0,0,1,1.128-.542,10.427,10.427,0,0,1,1.46-.347l1.553-.254q.85-.156.85-.889a1.678,1.678,0,0,0-.6-1.431,2.447,2.447,0,0,0-1.519-.454,2.493,2.493,0,0,0-1.5.439,1.839,1.839,0,0,0-.713,1.348l-1.523-.322a2.932,2.932,0,0,1,1.2-2.056,4.488,4.488,0,0,1,2.617-.688,5.308,5.308,0,0,1,1.392.171,3.782,3.782,0,0,1,1.162.537,2.409,2.409,0,0,1,.83,1.035,3.852,3.852,0,0,1,.3,1.577V16.52a1.622,1.622,0,0,0,.22,1,.949.949,0,0,0,.757.259h.156V19h-.84a1.6,1.6,0,0,1-1.816-1.3h-.078A3.668,3.668,0,0,1,169.873,19.186Zm.391-1.367a2.561,2.561,0,0,0,2.061-.928,3.819,3.819,0,0,0,.781-2.539l-2.539.488a3.418,3.418,0,0,0-1.489.532,1.238,1.238,0,0,0-.483,1.05,1.224,1.224,0,0,0,.464,1.055A1.983,1.983,0,0,0,170.264,17.818ZM178.135,19V4h1.709V19Zm6.006-11.855A1.15,1.15,0,0,1,183,6a1.083,1.083,0,0,1,.337-.8,1.107,1.107,0,0,1,.806-.332,1.1,1.1,0,0,1,.8.332,1.083,1.083,0,0,1,.337.8,1.1,1.1,0,0,1-.337.806A1.088,1.088,0,0,1,184.141,7.145ZM183.281,19V9.4h1.7V19Zm6.787-7.91A2.9,2.9,0,0,1,191.26,9.8a3.588,3.588,0,0,1,1.846-.508v1.592a3.163,3.163,0,0,0-2.231.713,2.978,2.978,0,0,0-.767,2.275V19h-1.689V9.4h1.65ZM207.373,4h1.689V19h-1.631l-.039-1.865a3.532,3.532,0,0,1-1.367,1.514,3.81,3.81,0,0,1-2.031.557,4.363,4.363,0,0,1-3.169-1.353,4.622,4.622,0,0,1-.967-1.587,5.805,5.805,0,0,1-.356-2.061,5.048,5.048,0,0,1,1.3-3.6,4.209,4.209,0,0,1,3.188-1.387A3.826,3.826,0,0,1,206,9.757a3.552,3.552,0,0,1,1.372,1.47Zm-3.027,13.74a2.875,2.875,0,0,0,2.231-1.011,3.648,3.648,0,0,0,.9-2.524,3.641,3.641,0,0,0-.908-2.52,2.873,2.873,0,0,0-2.227-1.016,2.938,2.938,0,0,0-2.246.981,3.611,3.611,0,0,0-.908,2.554,3.611,3.611,0,0,0,.908,2.554A2.938,2.938,0,0,0,204.346,17.74ZM220.9,14.01l-.02.459h-7.5a3.392,3.392,0,0,0,.918,2.456,3.014,3.014,0,0,0,2.188.854,2.878,2.878,0,0,0,1.592-.459,2.978,2.978,0,0,0,1.094-1.27l1.523.322a4.33,4.33,0,0,1-1.641,2.061,4.476,4.476,0,0,1-2.549.752,4.638,4.638,0,0,1-3.457-1.338,4.977,4.977,0,0,1-1.318-3.652,4.953,4.953,0,0,1,1.323-3.643,4.58,4.58,0,0,1,3.4-1.338,4.334,4.334,0,0,1,3.228,1.23A4.862,4.862,0,0,1,220.9,14.01Zm-4.443-3.5a2.994,2.994,0,0,0-2,.679,3.11,3.11,0,0,0-1.011,1.978H219.2a2.852,2.852,0,0,0-.84-1.978A2.712,2.712,0,0,0,216.455,10.514Zm16.27,8.662a4.624,4.624,0,0,1-3.437-1.377,4.912,4.912,0,0,1-1.357-3.6,4.922,4.922,0,0,1,1.353-3.6,5,5,0,0,1,6.221-.537,4.238,4.238,0,0,1,1.616,2.334l-1.582.254a2.922,2.922,0,0,0-1.084-1.494,2.952,2.952,0,0,0-1.738-.527,2.838,2.838,0,0,0-2.222.986,3.757,3.757,0,0,0-.874,2.588,3.739,3.739,0,0,0,.874,2.583,2.844,2.844,0,0,0,2.222.981,2.952,2.952,0,0,0,1.738-.527,2.922,2.922,0,0,0,1.084-1.494l1.582.264a4.243,4.243,0,0,1-1.626,2.329A4.65,4.65,0,0,1,232.725,19.176Zm9.1.01a3.267,3.267,0,0,1-2.1-.659,2.367,2.367,0,0,1-.825-1.968,2.8,2.8,0,0,1,.264-1.255,2.212,2.212,0,0,1,.781-.874,4.686,4.686,0,0,1,1.128-.542,10.427,10.427,0,0,1,1.46-.347l1.553-.254q.85-.156.85-.889a1.678,1.678,0,0,0-.6-1.431,2.447,2.447,0,0,0-1.519-.454,2.493,2.493,0,0,0-1.5.439A1.839,1.839,0,0,0,240.6,12.3l-1.523-.322a2.932,2.932,0,0,1,1.2-2.056,4.488,4.488,0,0,1,2.617-.688,5.308,5.308,0,0,1,1.392.171,3.782,3.782,0,0,1,1.162.537,2.409,2.409,0,0,1,.83,1.035,3.852,3.852,0,0,1,.3,1.577V16.52a1.622,1.622,0,0,0,.22,1,.949.949,0,0,0,.757.259h.156V19h-.84a1.6,1.6,0,0,1-1.816-1.3h-.078A3.668,3.668,0,0,1,241.826,19.186Zm.391-1.367a2.561,2.561,0,0,0,2.061-.928,3.819,3.819,0,0,0,.781-2.539l-2.539.488a3.418,3.418,0,0,0-1.489.532,1.238,1.238,0,0,0-.483,1.05,1.224,1.224,0,0,0,.464,1.055A1.983,1.983,0,0,0,242.217,17.818Zm10.908,1.367a4.551,4.551,0,0,1-2.588-.693,2.868,2.868,0,0,1-1.26-1.973l1.475-.42a2.057,2.057,0,0,0,.786,1.333,2.55,2.55,0,0,0,1.577.474,3.147,3.147,0,0,0,.923-.127,1.479,1.479,0,0,0,.708-.474,1.321,1.321,0,0,0,.205-1.27,1.7,1.7,0,0,0-.156-.317.967.967,0,0,0-.273-.264,3.606,3.606,0,0,0-.332-.205,3.408,3.408,0,0,0-.435-.181q-.288-.1-.464-.156t-.537-.156q-.361-.1-.557-.161a10.414,10.414,0,0,1-1-.352,4.369,4.369,0,0,1-.811-.464,1.866,1.866,0,0,1-.63-.757,2.561,2.561,0,0,1-.21-1.074,2.482,2.482,0,0,1,.469-1.533,2.637,2.637,0,0,1,1.216-.9,4.86,4.86,0,0,1,1.7-.278,4.171,4.171,0,0,1,2.339.625,2.668,2.668,0,0,1,1.167,1.875l-1.387.352a1.839,1.839,0,0,0-.732-1.216,2.332,2.332,0,0,0-1.377-.405,2.377,2.377,0,0,0-1.289.337,1.132,1.132,0,0,0-.537,1.03,1.025,1.025,0,0,0,.142.532,1.69,1.69,0,0,0,.288.376,1.771,1.771,0,0,0,.527.288q.381.151.566.205t.7.181q.1.029.146.039.566.146.923.259a5.672,5.672,0,0,1,.83.352,2.76,2.76,0,0,1,.747.522,2.421,2.421,0,0,1,.469.742,2.62,2.62,0,0,1,.2,1.035,2.8,2.8,0,0,1-.288,1.294,2.253,2.253,0,0,1-.786.884,3.8,3.8,0,0,1-1.118.483A5.327,5.327,0,0,1,253.125,19.186Zm8.408,0a3.267,3.267,0,0,1-2.1-.659,2.367,2.367,0,0,1-.825-1.968,2.8,2.8,0,0,1,.264-1.255,2.212,2.212,0,0,1,.781-.874,4.687,4.687,0,0,1,1.128-.542,10.426,10.426,0,0,1,1.46-.347l1.553-.254q.85-.156.85-.889a1.678,1.678,0,0,0-.6-1.431,2.447,2.447,0,0,0-1.519-.454,2.493,2.493,0,0,0-1.5.439A1.839,1.839,0,0,0,260.3,12.3l-1.523-.322a2.932,2.932,0,0,1,1.2-2.056,4.488,4.488,0,0,1,2.617-.688,5.308,5.308,0,0,1,1.392.171,3.782,3.782,0,0,1,1.162.537,2.409,2.409,0,0,1,.83,1.035,3.851,3.851,0,0,1,.3,1.577V16.52a1.622,1.622,0,0,0,.22,1,.949.949,0,0,0,.757.259h.156V19h-.84a1.6,1.6,0,0,1-1.816-1.3h-.078A3.668,3.668,0,0,1,261.533,19.186Zm.391-1.367a2.561,2.561,0,0,0,2.061-.928,3.819,3.819,0,0,0,.781-2.539l-2.539.488a3.418,3.418,0,0,0-1.489.532,1.238,1.238,0,0,0-.483,1.05,1.224,1.224,0,0,0,.464,1.055A1.983,1.983,0,0,0,261.924,17.818ZM9.531,36.842H3.945v4.5H8.867v1.572H3.945v4.492H9.531V49H2.158V35.25H9.531Zm7.441,2.373a3.339,3.339,0,0,1,2.417.869,3.242,3.242,0,0,1,.9,2.451V49H18.6V42.916a2.27,2.27,0,0,0-.586-1.719,2.1,2.1,0,0,0-1.5-.557A2.322,2.322,0,0,0,14.8,41.3a2.675,2.675,0,0,0-.674,1.958V49H12.441V39.4h1.689v1.23A3.206,3.206,0,0,1,16.973,39.215ZM28.75,49V34h1.709V49Zm5.361-11.26,2.451-3.184.9.654L35.273,37.74ZM33.9,49V39.4h1.7V49Zm9.668-9.785a3.339,3.339,0,0,1,2.417.869,3.242,3.242,0,0,1,.9,2.451V49H45.2V42.916a2.27,2.27,0,0,0-.586-1.719,2.1,2.1,0,0,0-1.5-.557A2.322,2.322,0,0,0,41.4,41.3a2.675,2.675,0,0,0-.674,1.958V49H39.033V39.4h1.689v1.23A3.206,3.206,0,0,1,43.564,39.215Zm14.98,4.795-.02.459h-7.5a3.392,3.392,0,0,0,.918,2.456,3.014,3.014,0,0,0,2.188.854,2.878,2.878,0,0,0,1.592-.459,2.978,2.978,0,0,0,1.094-1.27l1.523.322A4.33,4.33,0,0,1,56.7,48.434a4.476,4.476,0,0,1-2.549.752,4.638,4.638,0,0,1-3.457-1.338A4.977,4.977,0,0,1,49.375,44.2,4.953,4.953,0,0,1,50.7,40.553a4.58,4.58,0,0,1,3.4-1.338,4.334,4.334,0,0,1,3.228,1.23A4.862,4.862,0,0,1,58.545,44.01Zm-4.443-3.5a2.994,2.994,0,0,0-2,.679,3.11,3.11,0,0,0-1.011,1.978h5.752a2.852,2.852,0,0,0-.84-1.978A2.712,2.712,0,0,0,54.1,40.514Zm9.307,8.672a3.267,3.267,0,0,1-2.1-.659,2.367,2.367,0,0,1-.825-1.968,2.8,2.8,0,0,1,.264-1.255,2.212,2.212,0,0,1,.781-.874,4.687,4.687,0,0,1,1.128-.542,10.427,10.427,0,0,1,1.46-.347l1.553-.254q.85-.156.85-.889a1.678,1.678,0,0,0-.6-1.431,2.447,2.447,0,0,0-1.519-.454,2.493,2.493,0,0,0-1.5.439,1.839,1.839,0,0,0-.713,1.348l-1.523-.322a2.932,2.932,0,0,1,1.2-2.056,4.488,4.488,0,0,1,2.617-.688,5.308,5.308,0,0,1,1.392.171,3.782,3.782,0,0,1,1.162.537,2.409,2.409,0,0,1,.83,1.035,3.852,3.852,0,0,1,.3,1.577V46.52a1.622,1.622,0,0,0,.22,1,.949.949,0,0,0,.757.259h.156V49h-.84a1.6,1.6,0,0,1-1.816-1.3h-.078A3.668,3.668,0,0,1,63.408,49.186Zm.391-1.367a2.561,2.561,0,0,0,2.061-.928,3.819,3.819,0,0,0,.781-2.539L64.1,44.84a3.418,3.418,0,0,0-1.489.532,1.238,1.238,0,0,0-.483,1.05,1.224,1.224,0,0,0,.464,1.055A1.983,1.983,0,0,0,63.8,47.818ZM9.531,66.842H3.945v4.5H8.867v1.572H3.945v4.492H9.531V79H2.158V65.25H9.531Zm8.9,2.559h1.807L16.328,79H14.893l-3.887-9.6h1.8l2.813,7.637ZM23.1,67.145A1.15,1.15,0,0,1,21.953,66a1.083,1.083,0,0,1,.337-.8,1.108,1.108,0,0,1,.806-.332,1.1,1.1,0,0,1,.8.332,1.083,1.083,0,0,1,.337.8,1.1,1.1,0,0,1-.337.806A1.088,1.088,0,0,1,23.1,67.145ZM22.236,79V69.4h1.7V79Zm8.2,0a2.523,2.523,0,0,1-1.875-.688,2.6,2.6,0,0,1-.684-1.919V70.748H25.918V69.4h.723a1.387,1.387,0,0,0,1.06-.337,1.658,1.658,0,0,0,.308-1.128V66.2H29.58v3.2h2.207v1.348H29.58v5.469a1.455,1.455,0,0,0,.366,1.06,1.282,1.282,0,0,0,.962.376h.879V79Zm5.889.186a3.267,3.267,0,0,1-2.1-.659,2.367,2.367,0,0,1-.825-1.968,2.8,2.8,0,0,1,.264-1.255,2.212,2.212,0,0,1,.781-.874,4.686,4.686,0,0,1,1.128-.542,10.427,10.427,0,0,1,1.46-.347l1.553-.254q.85-.156.85-.889a1.678,1.678,0,0,0-.6-1.431,2.447,2.447,0,0,0-1.519-.454,2.493,2.493,0,0,0-1.5.439A1.839,1.839,0,0,0,35.1,72.3l-1.523-.322a2.932,2.932,0,0,1,1.2-2.056,4.488,4.488,0,0,1,2.617-.688,5.308,5.308,0,0,1,1.392.171,3.782,3.782,0,0,1,1.162.537,2.409,2.409,0,0,1,.83,1.035,3.852,3.852,0,0,1,.3,1.577V76.52a1.622,1.622,0,0,0,.22,1,.949.949,0,0,0,.757.259h.156V79h-.84a1.6,1.6,0,0,1-1.816-1.3h-.078A3.668,3.668,0,0,1,36.328,79.186Zm.391-1.367a2.561,2.561,0,0,0,2.061-.928,3.819,3.819,0,0,0,.781-2.539l-2.539.488a3.418,3.418,0,0,0-1.489.532,1.238,1.238,0,0,0-.483,1.05,1.224,1.224,0,0,0,.464,1.055A1.983,1.983,0,0,0,36.719,77.818ZM46.24,71.09A2.9,2.9,0,0,1,47.432,69.8a3.588,3.588,0,0,1,1.846-.508v1.592a3.163,3.163,0,0,0-2.231.713,2.978,2.978,0,0,0-.767,2.275V79H44.59V69.4h1.65Zm18.613,2.92-.02.459h-7.5a3.392,3.392,0,0,0,.918,2.456,3.014,3.014,0,0,0,2.188.854,2.878,2.878,0,0,0,1.592-.459,2.978,2.978,0,0,0,1.094-1.27l1.523.322a4.33,4.33,0,0,1-1.641,2.061,4.476,4.476,0,0,1-2.549.752A4.637,4.637,0,0,1,57,77.848a5.7,5.7,0,0,1,0-7.295,4.58,4.58,0,0,1,3.4-1.338,4.334,4.334,0,0,1,3.228,1.23A4.862,4.862,0,0,1,64.854,74.01Zm-4.443-3.5a2.994,2.994,0,0,0-2,.679A3.11,3.11,0,0,0,57.4,73.17h5.752a2.852,2.852,0,0,0-.84-1.978A2.712,2.712,0,0,0,60.41,70.514ZM67.5,79V64h1.709V79ZM84.932,64h1.689V79H84.99l-.039-1.865a3.532,3.532,0,0,1-1.367,1.514,3.81,3.81,0,0,1-2.031.557,4.363,4.363,0,0,1-3.169-1.353,4.623,4.623,0,0,1-.967-1.587,5.8,5.8,0,0,1-.356-2.061,5.048,5.048,0,0,1,1.3-3.6,4.209,4.209,0,0,1,3.188-1.387,3.826,3.826,0,0,1,2.007.542,3.552,3.552,0,0,1,1.372,1.47ZM81.9,77.74a2.875,2.875,0,0,0,2.231-1.011,3.964,3.964,0,0,0,0-5.044A2.873,2.873,0,0,0,81.9,70.67a2.938,2.938,0,0,0-2.246.981,4.044,4.044,0,0,0,0,5.107A2.938,2.938,0,0,0,81.9,77.74Zm16.553-3.73-.02.459h-7.5a3.392,3.392,0,0,0,.918,2.456,3.014,3.014,0,0,0,2.188.854,2.878,2.878,0,0,0,1.592-.459,2.978,2.978,0,0,0,1.094-1.27l1.523.322a4.33,4.33,0,0,1-1.641,2.061,4.476,4.476,0,0,1-2.549.752,4.637,4.637,0,0,1-3.457-1.338,5.7,5.7,0,0,1,0-7.295,4.58,4.58,0,0,1,3.4-1.338,4.334,4.334,0,0,1,3.228,1.23A4.862,4.862,0,0,1,98.457,74.01Zm-4.443-3.5a2.994,2.994,0,0,0-2,.679,3.11,3.11,0,0,0-1.011,1.978h5.752a2.852,2.852,0,0,0-.84-1.978A2.712,2.712,0,0,0,94.014,70.514Zm10.127,8.672a4.551,4.551,0,0,1-2.588-.693,2.868,2.868,0,0,1-1.26-1.973l1.475-.42a2.057,2.057,0,0,0,.786,1.333,2.55,2.55,0,0,0,1.577.474,3.147,3.147,0,0,0,.923-.127,1.479,1.479,0,0,0,.708-.474,1.321,1.321,0,0,0,.205-1.27,1.7,1.7,0,0,0-.156-.317.967.967,0,0,0-.273-.264,3.606,3.606,0,0,0-.332-.205,3.408,3.408,0,0,0-.435-.181q-.288-.1-.464-.156t-.537-.156q-.361-.1-.557-.161a10.411,10.411,0,0,1-1-.352,4.369,4.369,0,0,1-.811-.464,1.866,1.866,0,0,1-.63-.757,2.561,2.561,0,0,1-.21-1.074,2.482,2.482,0,0,1,.469-1.533,2.637,2.637,0,0,1,1.216-.9,4.86,4.86,0,0,1,1.7-.278,4.171,4.171,0,0,1,2.339.625,2.668,2.668,0,0,1,1.167,1.875l-1.387.352a1.839,1.839,0,0,0-.732-1.216,2.332,2.332,0,0,0-1.377-.405,2.377,2.377,0,0,0-1.289.337,1.132,1.132,0,0,0-.537,1.03,1.025,1.025,0,0,0,.142.532,1.69,1.69,0,0,0,.288.376,1.771,1.771,0,0,0,.527.288q.381.151.566.205t.7.181q.1.029.146.039.566.146.923.259a5.672,5.672,0,0,1,.83.352,2.76,2.76,0,0,1,.747.522,2.421,2.421,0,0,1,.469.742,2.62,2.62,0,0,1,.2,1.035,2.8,2.8,0,0,1-.288,1.294,2.253,2.253,0,0,1-.786.884,3.8,3.8,0,0,1-1.118.483A5.327,5.327,0,0,1,104.141,79.186Zm11.26-9.971a4.366,4.366,0,0,1,1.738.352,4.276,4.276,0,0,1,1.426.986,4.61,4.61,0,0,1,.962,1.582,5.834,5.834,0,0,1,.356,2.07,5.076,5.076,0,0,1-1.294,3.623,4.2,4.2,0,0,1-3.188,1.377,3.8,3.8,0,0,1-2.007-.547,3.584,3.584,0,0,1-1.372-1.475v6.65h-1.689V69.4h1.631L112,71.266a3.514,3.514,0,0,1,1.367-1.5A3.835,3.835,0,0,1,115.4,69.215Zm-.332,8.525a2.915,2.915,0,0,0,2.222-.972,4.082,4.082,0,0,0,0-5.122,3.029,3.029,0,0,0-4.478.044,3.917,3.917,0,0,0,0,5.039A2.929,2.929,0,0,0,115.068,77.74Zm7.48,1.26V64h1.709V79Zm7.363.186a3.267,3.267,0,0,1-2.1-.659,2.367,2.367,0,0,1-.825-1.968,2.8,2.8,0,0,1,.264-1.255,2.212,2.212,0,0,1,.781-.874,4.686,4.686,0,0,1,1.128-.542,10.427,10.427,0,0,1,1.46-.347l1.553-.254q.85-.156.85-.889a1.678,1.678,0,0,0-.6-1.431,2.447,2.447,0,0,0-1.519-.454,2.493,2.493,0,0,0-1.5.439,1.839,1.839,0,0,0-.713,1.348l-1.523-.322a2.932,2.932,0,0,1,1.2-2.056,4.488,4.488,0,0,1,2.617-.688,5.308,5.308,0,0,1,1.392.171,3.782,3.782,0,0,1,1.162.537,2.409,2.409,0,0,1,.83,1.035,3.852,3.852,0,0,1,.3,1.577V76.52a1.622,1.622,0,0,0,.22,1,.949.949,0,0,0,.757.259h.156V79h-.84a1.6,1.6,0,0,1-1.816-1.3h-.078A3.668,3.668,0,0,1,129.912,79.186Zm.391-1.367a2.561,2.561,0,0,0,2.061-.928,3.819,3.819,0,0,0,.781-2.539l-2.539.488a3.418,3.418,0,0,0-1.489.532,1.238,1.238,0,0,0-.483,1.05,1.224,1.224,0,0,0,.464,1.055A1.983,1.983,0,0,0,130.3,77.818Zm9.2-.186h5.117V79h-7.656l5.059-8.223h-4.766V69.4h7.354Zm9.336,1.553a3.267,3.267,0,0,1-2.1-.659,2.367,2.367,0,0,1-.825-1.968,2.8,2.8,0,0,1,.264-1.255,2.212,2.212,0,0,1,.781-.874,4.686,4.686,0,0,1,1.128-.542,10.427,10.427,0,0,1,1.46-.347l1.553-.254q.85-.156.85-.889a1.678,1.678,0,0,0-.6-1.431,2.447,2.447,0,0,0-1.519-.454,2.493,2.493,0,0,0-1.5.439,1.839,1.839,0,0,0-.713,1.348l-1.523-.322a2.932,2.932,0,0,1,1.2-2.056,4.488,4.488,0,0,1,2.617-.688,5.308,5.308,0,0,1,1.392.171,3.782,3.782,0,0,1,1.162.537,2.409,2.409,0,0,1,.83,1.035,3.852,3.852,0,0,1,.3,1.577V76.52a1.622,1.622,0,0,0,.22,1,.949.949,0,0,0,.757.259h.156V79h-.84a1.6,1.6,0,0,1-1.816-1.3h-.078A3.668,3.668,0,0,1,148.838,79.186Zm.391-1.367a2.561,2.561,0,0,0,2.061-.928,3.819,3.819,0,0,0,.781-2.539l-2.539.488a3.418,3.418,0,0,0-1.489.532,1.238,1.238,0,0,0-.483,1.05,1.224,1.224,0,0,0,.464,1.055A1.983,1.983,0,0,0,149.229,77.818Zm17.686-8.6a3.094,3.094,0,0,1,2.236.815,3.025,3.025,0,0,1,.85,2.29V79h-1.689V72.76a2.169,2.169,0,0,0-.527-1.582,1.8,1.8,0,0,0-1.338-.537,1.9,1.9,0,0,0-1.465.605,2.6,2.6,0,0,0-.557,1.816V79h-1.719V72.828a2.269,2.269,0,0,0-.532-1.636,1.81,1.81,0,0,0-1.362-.552,1.878,1.878,0,0,0-1.46.62,2.694,2.694,0,0,0-.562,1.86V79H157.1V69.4h1.689v1.24a2.916,2.916,0,0,1,1.1-1.055,3.133,3.133,0,0,1,1.528-.371,3.261,3.261,0,0,1,1.641.405,2.523,2.523,0,0,1,1.064,1.167,2.987,2.987,0,0,1,1.152-1.167A3.3,3.3,0,0,1,166.914,69.215Zm7.217-2.07A1.15,1.15,0,0,1,172.988,66a1.083,1.083,0,0,1,.337-.8,1.108,1.108,0,0,1,.806-.332,1.1,1.1,0,0,1,.8.332,1.083,1.083,0,0,1,.337.8,1.1,1.1,0,0,1-.337.806A1.088,1.088,0,0,1,174.131,67.145ZM173.271,79V69.4h1.7V79Zm13.535-4.99-.02.459h-7.5a3.392,3.392,0,0,0,.918,2.456,3.014,3.014,0,0,0,2.188.854,2.878,2.878,0,0,0,1.592-.459,2.978,2.978,0,0,0,1.094-1.27l1.523.322a4.33,4.33,0,0,1-1.641,2.061,4.476,4.476,0,0,1-2.549.752,4.637,4.637,0,0,1-3.457-1.338,5.7,5.7,0,0,1,0-7.295,4.58,4.58,0,0,1,3.4-1.338,4.334,4.334,0,0,1,3.228,1.23A4.862,4.862,0,0,1,186.807,74.01Zm-4.443-3.5a2.994,2.994,0,0,0-2,.679,3.11,3.11,0,0,0-1.011,1.978h5.752a2.852,2.852,0,0,0-.84-1.978A2.712,2.712,0,0,0,182.363,70.514Zm11.621-1.3a3.339,3.339,0,0,1,2.417.869,3.242,3.242,0,0,1,.9,2.451V79h-1.689V72.916a2.27,2.27,0,0,0-.586-1.719,2.1,2.1,0,0,0-1.5-.557,2.322,2.322,0,0,0-1.709.659,2.675,2.675,0,0,0-.674,1.958V79h-1.689V69.4h1.689v1.23A3.206,3.206,0,0,1,193.984,69.215ZM203.633,79a2.523,2.523,0,0,1-1.875-.688,2.6,2.6,0,0,1-.684-1.919V70.748h-1.963V69.4h.723a1.387,1.387,0,0,0,1.06-.337,1.658,1.658,0,0,0,.308-1.128V66.2h1.572v3.2h2.207v1.348h-2.207v5.469a1.455,1.455,0,0,0,.366,1.06,1.282,1.282,0,0,0,.962.376h.879V79Zm7.715.186a5.06,5.06,0,0,1-2.461-.6,4.338,4.338,0,0,1-1.733-1.743,5.354,5.354,0,0,1-.64-2.651,4.89,4.89,0,0,1,1.362-3.618,5.111,5.111,0,0,1,6.948,0,5.506,5.506,0,0,1,0,7.246A4.7,4.7,0,0,1,211.348,79.186Zm-.01-1.406a2.948,2.948,0,0,0,2.271-.986,4.173,4.173,0,0,0,0-5.186,2.948,2.948,0,0,0-2.271-.986,2.908,2.908,0,0,0-2.251.986,4.208,4.208,0,0,0,0,5.186A2.908,2.908,0,0,0,211.338,77.779Zm18.6-8.379h1.787l-5.557,14.121h-1.748l1.924-4.756-3.73-9.365h1.875l2.705,7.471Zm13.418-3.984h-.366q-.112,0-.352.02a2.254,2.254,0,0,0-.352.049q-.112.029-.3.1a.773.773,0,0,0-.288.166q-.1.1-.225.249a1.02,1.02,0,0,0-.19.352,3.361,3.361,0,0,0-.107.469,3.738,3.738,0,0,0-.044.6V69.4h2.227v1.348h-2.227V79h-1.68V70.748H237.6V69.4h1.855V67.389a5.521,5.521,0,0,1,.1-1.118,3.627,3.627,0,0,1,.273-.845,2.007,2.007,0,0,1,.454-.61,2.672,2.672,0,0,1,.591-.415,2.933,2.933,0,0,1,.728-.244,6.829,6.829,0,0,1,.825-.122q.405-.034.933-.034Zm5.879,13.77a5.06,5.06,0,0,1-2.461-.6,4.338,4.338,0,0,1-1.733-1.743,5.354,5.354,0,0,1-.64-2.651,4.89,4.89,0,0,1,1.362-3.618,5.111,5.111,0,0,1,6.948,0,5.506,5.506,0,0,1,0,7.246A4.7,4.7,0,0,1,249.238,79.186Zm-.01-1.406a2.948,2.948,0,0,0,2.271-.986,4.173,4.173,0,0,0,0-5.186,2.948,2.948,0,0,0-2.271-.986,2.908,2.908,0,0,0-2.251.986,4.208,4.208,0,0,0,0,5.186A2.908,2.908,0,0,0,249.229,77.779Zm11.475,1.4a4.624,4.624,0,0,1-3.437-1.377,5.469,5.469,0,0,1,0-7.207,5,5,0,0,1,6.221-.537,4.238,4.238,0,0,1,1.616,2.334l-1.582.254a2.922,2.922,0,0,0-1.084-1.494,2.952,2.952,0,0,0-1.738-.527,2.838,2.838,0,0,0-2.222.986,4.261,4.261,0,0,0,0,5.171,2.844,2.844,0,0,0,2.222.981,2.952,2.952,0,0,0,1.738-.527,2.922,2.922,0,0,0,1.084-1.494L265.1,76a4.243,4.243,0,0,1-1.626,2.329A4.65,4.65,0,0,1,260.7,79.176Zm10.928.01a5.06,5.06,0,0,1-2.461-.6,4.338,4.338,0,0,1-1.733-1.743,5.354,5.354,0,0,1-.64-2.651,4.89,4.89,0,0,1,1.362-3.618,5.111,5.111,0,0,1,6.948,0,5.506,5.506,0,0,1,0,7.246A4.7,4.7,0,0,1,271.631,79.186Zm-.01-1.406a2.948,2.948,0,0,0,2.271-.986,4.173,4.173,0,0,0,0-5.186,2.948,2.948,0,0,0-2.271-.986,2.908,2.908,0,0,0-2.251.986,4.208,4.208,0,0,0,0,5.186A2.908,2.908,0,0,0,271.621,77.779ZM291.4,64h1.689V79h-1.631l-.039-1.865a3.532,3.532,0,0,1-1.367,1.514,3.81,3.81,0,0,1-2.031.557,4.363,4.363,0,0,1-3.169-1.353,4.623,4.623,0,0,1-.967-1.587,5.8,5.8,0,0,1-.356-2.061,5.048,5.048,0,0,1,1.3-3.6,4.209,4.209,0,0,1,3.188-1.387,3.826,3.826,0,0,1,2.007.542,3.552,3.552,0,0,1,1.372,1.47Zm-3.027,13.74a2.875,2.875,0,0,0,2.231-1.011,3.964,3.964,0,0,0,0-5.044,2.873,2.873,0,0,0-2.227-1.016,2.938,2.938,0,0,0-2.246.981,4.044,4.044,0,0,0,0,5.107A2.938,2.938,0,0,0,288.369,77.74Zm16.553-3.73-.02.459h-7.5a3.392,3.392,0,0,0,.918,2.456,3.014,3.014,0,0,0,2.188.854,2.878,2.878,0,0,0,1.592-.459,2.978,2.978,0,0,0,1.094-1.27l1.523.322a4.33,4.33,0,0,1-1.641,2.061,4.476,4.476,0,0,1-2.549.752,4.637,4.637,0,0,1-3.457-1.338,5.7,5.7,0,0,1,0-7.295,4.58,4.58,0,0,1,3.4-1.338,4.334,4.334,0,0,1,3.228,1.23A4.862,4.862,0,0,1,304.922,74.01Zm-4.443-3.5a2.994,2.994,0,0,0-2,.679,3.11,3.11,0,0,0-1.011,1.978h5.752a2.852,2.852,0,0,0-.84-1.978A2.712,2.712,0,0,0,300.479,70.514Zm16.27,8.662a4.624,4.624,0,0,1-3.437-1.377,5.469,5.469,0,0,1,0-7.207,5,5,0,0,1,6.221-.537,4.238,4.238,0,0,1,1.616,2.334l-1.582.254a2.922,2.922,0,0,0-1.084-1.494,2.952,2.952,0,0,0-1.738-.527,2.838,2.838,0,0,0-2.222.986,4.261,4.261,0,0,0,0,5.171,2.844,2.844,0,0,0,2.222.981,2.952,2.952,0,0,0,1.738-.527,2.922,2.922,0,0,0,1.084-1.494l1.582.264a4.243,4.243,0,0,1-1.626,2.329A4.65,4.65,0,0,1,316.748,79.176Zm10.928.01a5.06,5.06,0,0,1-2.461-.6,4.338,4.338,0,0,1-1.733-1.743,5.354,5.354,0,0,1-.64-2.651,4.89,4.89,0,0,1,1.362-3.618,5.111,5.111,0,0,1,6.948,0,5.506,5.506,0,0,1,0,7.246A4.7,4.7,0,0,1,327.676,79.186Zm-.01-1.406a2.948,2.948,0,0,0,2.271-.986,4.173,4.173,0,0,0,0-5.186,2.948,2.948,0,0,0-2.271-.986,2.908,2.908,0,0,0-2.251.986,4.208,4.208,0,0,0,0,5.186A2.908,2.908,0,0,0,327.666,77.779Zm12.021-8.564a3.339,3.339,0,0,1,2.417.869,3.242,3.242,0,0,1,.9,2.451V79h-1.689V72.916a2.27,2.27,0,0,0-.586-1.719,2.1,2.1,0,0,0-1.5-.557,2.322,2.322,0,0,0-1.709.659,2.675,2.675,0,0,0-.674,1.958V79h-1.689V69.4h1.689v1.23A3.206,3.206,0,0,1,339.688,69.215ZM349.336,79a2.523,2.523,0,0,1-1.875-.688,2.6,2.6,0,0,1-.684-1.919V70.748h-1.963V69.4h.723a1.387,1.387,0,0,0,1.06-.337,1.658,1.658,0,0,0,.308-1.128V66.2h1.572v3.2h2.207v1.348h-2.207v5.469a1.455,1.455,0,0,0,.366,1.06,1.282,1.282,0,0,0,.962.376h.879V79Zm5.889.186a3.267,3.267,0,0,1-2.1-.659,2.367,2.367,0,0,1-.825-1.968,2.8,2.8,0,0,1,.264-1.255,2.212,2.212,0,0,1,.781-.874,4.687,4.687,0,0,1,1.128-.542,10.427,10.427,0,0,1,1.46-.347l1.553-.254q.85-.156.85-.889a1.678,1.678,0,0,0-.6-1.431,2.447,2.447,0,0,0-1.519-.454,2.493,2.493,0,0,0-1.5.439,1.839,1.839,0,0,0-.713,1.348l-1.523-.322a2.932,2.932,0,0,1,1.2-2.056,4.488,4.488,0,0,1,2.617-.688,5.308,5.308,0,0,1,1.392.171,3.782,3.782,0,0,1,1.162.537,2.409,2.409,0,0,1,.83,1.035,3.851,3.851,0,0,1,.3,1.577V76.52a1.622,1.622,0,0,0,.22,1,.949.949,0,0,0,.757.259h.156V79h-.84a1.6,1.6,0,0,1-1.816-1.3h-.078A3.668,3.668,0,0,1,355.225,79.186Zm.391-1.367a2.561,2.561,0,0,0,2.061-.928,3.819,3.819,0,0,0,.781-2.539l-2.539.488a3.418,3.418,0,0,0-1.489.532,1.238,1.238,0,0,0-.483,1.05,1.224,1.224,0,0,0,.464,1.055A1.983,1.983,0,0,0,355.615,77.818Zm17.686-8.6a3.1,3.1,0,0,1,2.236.815,3.025,3.025,0,0,1,.85,2.29V79H374.7V72.76a2.169,2.169,0,0,0-.527-1.582,1.8,1.8,0,0,0-1.338-.537,1.9,1.9,0,0,0-1.465.605,2.6,2.6,0,0,0-.557,1.816V79h-1.719V72.828a2.269,2.269,0,0,0-.532-1.636,1.81,1.81,0,0,0-1.362-.552,1.878,1.878,0,0,0-1.46.62,2.693,2.693,0,0,0-.562,1.86V79h-1.689V69.4h1.689v1.24a2.916,2.916,0,0,1,1.1-1.055,3.133,3.133,0,0,1,1.528-.371,3.261,3.261,0,0,1,1.641.405,2.523,2.523,0,0,1,1.064,1.167,2.987,2.987,0,0,1,1.152-1.167A3.3,3.3,0,0,1,373.3,69.215Zm7.217-2.07A1.15,1.15,0,0,1,379.375,66a1.083,1.083,0,0,1,.337-.8,1.108,1.108,0,0,1,.806-.332,1.1,1.1,0,0,1,.8.332,1.083,1.083,0,0,1,.337.8,1.1,1.1,0,0,1-.337.806A1.088,1.088,0,0,1,380.518,67.145ZM379.658,79V69.4h1.7V79Zm9.668-9.785a3.339,3.339,0,0,1,2.417.869,3.242,3.242,0,0,1,.9,2.451V79h-1.689V72.916a2.27,2.27,0,0,0-.586-1.719,2.1,2.1,0,0,0-1.5-.557,2.322,2.322,0,0,0-1.709.659,2.675,2.675,0,0,0-.674,1.958V79h-1.689V69.4h1.689v1.23A3.206,3.206,0,0,1,389.326,69.215Zm8.8,9.971a3.267,3.267,0,0,1-2.1-.659,2.367,2.367,0,0,1-.825-1.968,2.8,2.8,0,0,1,.264-1.255,2.212,2.212,0,0,1,.781-.874,4.687,4.687,0,0,1,1.128-.542,10.427,10.427,0,0,1,1.46-.347l1.553-.254q.85-.156.85-.889a1.678,1.678,0,0,0-.6-1.431,2.447,2.447,0,0,0-1.519-.454,2.493,2.493,0,0,0-1.5.439,1.839,1.839,0,0,0-.713,1.348l-1.523-.322a2.932,2.932,0,0,1,1.2-2.056,4.488,4.488,0,0,1,2.617-.688,5.308,5.308,0,0,1,1.392.171,3.782,3.782,0,0,1,1.162.537,2.409,2.409,0,0,1,.83,1.035,3.851,3.851,0,0,1,.3,1.577V76.52a1.622,1.622,0,0,0,.22,1,.949.949,0,0,0,.757.259H404V79h-.84a1.6,1.6,0,0,1-1.816-1.3h-.078A3.668,3.668,0,0,1,398.125,79.186Zm.391-1.367a2.561,2.561,0,0,0,2.061-.928,3.819,3.819,0,0,0,.781-2.539l-2.539.488a3.418,3.418,0,0,0-1.489.532,1.238,1.238,0,0,0-.483,1.05,1.224,1.224,0,0,0,.464,1.055A1.983,1.983,0,0,0,398.516,77.818Zm11.66,1.357a4.624,4.624,0,0,1-3.437-1.377,5.469,5.469,0,0,1,0-7.207,5,5,0,0,1,6.221-.537,4.238,4.238,0,0,1,1.616,2.334l-1.582.254a2.922,2.922,0,0,0-1.084-1.494,2.952,2.952,0,0,0-1.738-.527,2.838,2.838,0,0,0-2.222.986,4.261,4.261,0,0,0,0,5.171,2.844,2.844,0,0,0,2.222.981,2.952,2.952,0,0,0,1.738-.527,2.922,2.922,0,0,0,1.084-1.494L414.57,76a4.243,4.243,0,0,1-1.626,2.329A4.65,4.65,0,0,1,410.176,79.176Zm7.744-12.031A1.15,1.15,0,0,1,416.777,66a1.083,1.083,0,0,1,.337-.8,1.108,1.108,0,0,1,.806-.332,1.1,1.1,0,0,1,.8.332,1.083,1.083,0,0,1,.337.8,1.1,1.1,0,0,1-.337.806A1.088,1.088,0,0,1,417.92,67.145ZM417.061,79V69.4h1.7V79ZM425.6,67.75l2.451-3.184.9.654-2.187,2.529Zm.645,11.436a5.06,5.06,0,0,1-2.461-.6,4.338,4.338,0,0,1-1.733-1.743,5.354,5.354,0,0,1-.64-2.651,4.89,4.89,0,0,1,1.362-3.618,5.111,5.111,0,0,1,6.948,0,5.506,5.506,0,0,1,0,7.246A4.7,4.7,0,0,1,426.24,79.186Zm-.01-1.406a2.948,2.948,0,0,0,2.271-.986,4.173,4.173,0,0,0,0-5.186,2.948,2.948,0,0,0-2.271-.986,2.908,2.908,0,0,0-2.251.986,4.208,4.208,0,0,0,0,5.186A2.908,2.908,0,0,0,426.23,77.779Zm12.021-8.564a3.339,3.339,0,0,1,2.417.869,3.242,3.242,0,0,1,.9,2.451V79h-1.689V72.916A2.27,2.27,0,0,0,439.3,71.2a2.1,2.1,0,0,0-1.5-.557,2.322,2.322,0,0,0-1.709.659,2.675,2.675,0,0,0-.674,1.958V79h-1.689V69.4h1.689v1.23A3.206,3.206,0,0,1,438.252,69.215Z" transform="translate(-2715 5679)" fill="#fff"/>
      <path id="Trazado_35393" data-name="Trazado 35393" d="M10.01,7.467H4.775v3.2H9.414v2.549H4.775v3.193H10.01V19H1.826V4.889H10.01Zm8.574,1.3a3.914,3.914,0,0,1,2.773.9,3.349,3.349,0,0,1,.967,2.573V19H19.5V12.848a1.749,1.749,0,0,0-.5-1.387,1.9,1.9,0,0,0-1.294-.439,2.643,2.643,0,0,0-.84.127,2.158,2.158,0,0,0-.7.4,1.748,1.748,0,0,0-.5.757,3.5,3.5,0,0,0-.19,1.162V19H12.656V8.961h2.813v1.113A3.868,3.868,0,0,1,18.584,8.766Zm16.2,10.42a5.364,5.364,0,0,1-3.877-1.445,4.992,4.992,0,0,1-1.5-3.77,4.981,4.981,0,0,1,1.5-3.77,5.38,5.38,0,0,1,3.882-1.436,5.349,5.349,0,0,1,3.252.967,4.316,4.316,0,0,1,1.68,2.725l-2.6.283a2.225,2.225,0,0,0-.84-1.318,2.554,2.554,0,0,0-1.523-.439,2.3,2.3,0,0,0-1.836.82,3.216,3.216,0,0,0-.7,2.168,3.22,3.22,0,0,0,.7,2.163,2.3,2.3,0,0,0,1.836.825,2.532,2.532,0,0,0,1.519-.439,2.277,2.277,0,0,0,.845-1.318l2.6.283a4.328,4.328,0,0,1-1.694,2.725A5.327,5.327,0,0,1,34.785,19.186Zm15.166-2.91a9.392,9.392,0,0,0,.244,2.451V19H47.568l-.225-1.094a3.264,3.264,0,0,1-1.406.967,5.183,5.183,0,0,1-1.816.322,4.776,4.776,0,0,1-.937-.088,3.187,3.187,0,0,1-.845-.3,2.563,2.563,0,0,1-.7-.522,2.291,2.291,0,0,1-.469-.8A3.17,3.17,0,0,1,41,16.4a3.02,3.02,0,0,1,.186-1.089,2.552,2.552,0,0,1,.488-.815,2.962,2.962,0,0,1,.791-.6,6.052,6.052,0,0,1,1-.43,11.9,11.9,0,0,1,1.191-.312l1.65-.371a1.82,1.82,0,0,0,.747-.317.633.633,0,0,0,.22-.5A1.036,1.036,0,0,0,46.772,11a2.3,2.3,0,0,0-1.2-.293,1.721,1.721,0,0,0-1.963,1.533l-2.49-.449A3.371,3.371,0,0,1,42.578,9.5a5.783,5.783,0,0,1,3.154-.737q4.219,0,4.219,3.623ZM45,17.291a2.262,2.262,0,0,0,1.738-.728,3.066,3.066,0,0,0,.674-2.153l-2.383.674a2.816,2.816,0,0,0-1,.41.842.842,0,0,0-.347.723.935.935,0,0,0,.371.8A1.536,1.536,0,0,0,45,17.291Zm11.221,1.9a5.61,5.61,0,0,1-2.93-.7,2.972,2.972,0,0,1-1.436-2.09l2.354-.664a1.891,1.891,0,0,0,2.012,1.494A2.078,2.078,0,0,0,57.246,17a.8.8,0,0,0,.4-.776.821.821,0,0,0-.166-.518,1.315,1.315,0,0,0-.513-.371,6.387,6.387,0,0,0-.684-.264q-.337-.107-.894-.259t-.928-.288a6.215,6.215,0,0,1-.884-.376,3.77,3.77,0,0,1-.732-.518,2.086,2.086,0,0,1-.547-.786,2.836,2.836,0,0,1-.19-1.074A2.565,2.565,0,0,1,53.2,9.527a4.865,4.865,0,0,1,2.847-.762,4.988,4.988,0,0,1,2.627.645,2.917,2.917,0,0,1,1.348,2.012l-2.178.488a1.706,1.706,0,0,0-1.787-1.27,1.957,1.957,0,0,0-.986.225.722.722,0,0,0-.391.664.761.761,0,0,0,.059.3.6.6,0,0,0,.205.244,2.991,2.991,0,0,0,.283.186,2.137,2.137,0,0,0,.4.161q.264.083.439.127l.513.132.522.137q.537.146.942.293a5.519,5.519,0,0,1,.864.41,3.1,3.1,0,0,1,.757.591,2.635,2.635,0,0,1,.493.83,3.066,3.066,0,0,1,.2,1.118,3.02,3.02,0,0,1-.337,1.455,2.529,2.529,0,0,1-.923.981,4.492,4.492,0,0,1-1.3.527A6.763,6.763,0,0,1,56.221,19.2Zm10.83,0a6.313,6.313,0,0,1-2.842-.615,4.6,4.6,0,0,1-1.948-1.807,5.384,5.384,0,0,1-.708-2.8,4.911,4.911,0,0,1,1.523-3.809,6.368,6.368,0,0,1,7.959,0,4.911,4.911,0,0,1,1.523,3.809,4.938,4.938,0,0,1-1.523,3.823A5.654,5.654,0,0,1,67.051,19.2Zm-.029-2.236a2.577,2.577,0,0,0,1.987-.82,3.071,3.071,0,0,0,.757-2.168,3.071,3.071,0,0,0-.757-2.168,2.577,2.577,0,0,0-1.987-.82,2.483,2.483,0,0,0-1.929.825,3.1,3.1,0,0,0-.747,2.163,3.1,3.1,0,0,0,.747,2.163A2.483,2.483,0,0,0,67.021,16.959ZM86.963,4h2.813V19H87.109l-.068-1.309a2.867,2.867,0,0,1-1.274,1.138,4.29,4.29,0,0,1-1.88.405,4.883,4.883,0,0,1-1.875-.361A4.516,4.516,0,0,1,79.434,16.2a6.106,6.106,0,0,1-.381-2.2,5.707,5.707,0,0,1,.664-2.8A4.55,4.55,0,0,1,81.47,9.381a4.827,4.827,0,0,1,2.417-.615,4.4,4.4,0,0,1,1.821.366,2.843,2.843,0,0,1,1.255,1.04ZM84.531,16.9a2.5,2.5,0,0,0,1.9-.8,2.932,2.932,0,0,0,.757-2.1,2.938,2.938,0,0,0-.762-2.1,2.5,2.5,0,0,0-1.895-.806,2.53,2.53,0,0,0-1.909.791A2.937,2.937,0,0,0,81.865,14a2.924,2.924,0,0,0,.757,2.109A2.53,2.53,0,0,0,84.531,16.9Zm17.6-3.066-.029.674H94.658a2.6,2.6,0,0,0,.8,1.836,2.561,2.561,0,0,0,1.768.635,2.468,2.468,0,0,0,1.323-.347,2.131,2.131,0,0,0,.845-1.011l2.578.381a4.383,4.383,0,0,1-1.758,2.354,5.226,5.226,0,0,1-2.969.84,5.435,5.435,0,0,1-3.911-1.382,5.042,5.042,0,0,1-1.45-3.833,5.072,5.072,0,0,1,1.455-3.833,5.273,5.273,0,0,1,3.818-1.4,5.04,5.04,0,0,1,3.6,1.279A5.019,5.019,0,0,1,102.129,13.834Zm-4.951-3.1a2.222,2.222,0,0,0-2.441,1.934h4.609a2.114,2.114,0,0,0-.693-1.436A2.2,2.2,0,0,0,97.178,10.738Zm18.174-1.973a4.883,4.883,0,0,1,1.875.361,4.692,4.692,0,0,1,1.538,1.016A4.6,4.6,0,0,1,119.8,11.8a6.146,6.146,0,0,1,.381,2.2,6.146,6.146,0,0,1-.381,2.2,4.6,4.6,0,0,1-1.04,1.655,4.692,4.692,0,0,1-1.538,1.016,4.883,4.883,0,0,1-1.875.361,4.356,4.356,0,0,1-1.816-.371,2.846,2.846,0,0,1-1.26-1.055v6.074h-2.812V8.961h2.666l.078,1.348a2.75,2.75,0,0,1,1.255-1.138A4.313,4.313,0,0,1,115.352,8.766Zm-.635,8.135a2.527,2.527,0,0,0,1.9-.786A2.92,2.92,0,0,0,117.373,14a2.92,2.92,0,0,0-.757-2.114,2.688,2.688,0,0,0-3.813.015,2.921,2.921,0,0,0-.762,2.1,2.921,2.921,0,0,0,.762,2.1A2.531,2.531,0,0,0,114.717,16.9ZM125,10.553a3.259,3.259,0,0,1,1.318-1.206,4.023,4.023,0,0,1,1.963-.5v2.51a3.8,3.8,0,0,0-2.4.605,2.643,2.643,0,0,0-.742,2.148V19H122.3V8.961H125Zm14.316,3.281-.029.674h-7.441a2.6,2.6,0,0,0,.8,1.836,2.561,2.561,0,0,0,1.768.635,2.468,2.468,0,0,0,1.323-.347,2.131,2.131,0,0,0,.845-1.011L139.16,16a4.383,4.383,0,0,1-1.758,2.354,5.226,5.226,0,0,1-2.969.84,5.435,5.435,0,0,1-3.911-1.382,5.042,5.042,0,0,1-1.45-3.833,5.072,5.072,0,0,1,1.455-3.833,5.273,5.273,0,0,1,3.818-1.4,5.04,5.04,0,0,1,3.6,1.279A5.019,5.019,0,0,1,139.316,13.834Zm-4.951-3.1a2.222,2.222,0,0,0-2.441,1.934h4.609a2.114,2.114,0,0,0-.693-1.436A2.2,2.2,0,0,0,134.365,10.738ZM144.99,19.2a5.61,5.61,0,0,1-2.93-.7,2.972,2.972,0,0,1-1.436-2.09l2.354-.664a1.891,1.891,0,0,0,2.012,1.494A2.078,2.078,0,0,0,146.016,17a.8.8,0,0,0,.4-.776.821.821,0,0,0-.166-.518,1.315,1.315,0,0,0-.513-.371,6.388,6.388,0,0,0-.684-.264q-.337-.107-.894-.259t-.928-.288a6.215,6.215,0,0,1-.884-.376,3.769,3.769,0,0,1-.732-.518,2.086,2.086,0,0,1-.547-.786,2.836,2.836,0,0,1-.19-1.074,2.565,2.565,0,0,1,1.089-2.246,4.865,4.865,0,0,1,2.847-.762,4.988,4.988,0,0,1,2.627.645,2.917,2.917,0,0,1,1.348,2.012l-2.178.488a1.706,1.706,0,0,0-1.787-1.27,1.957,1.957,0,0,0-.986.225.722.722,0,0,0-.391.664.761.761,0,0,0,.059.3.6.6,0,0,0,.205.244,2.992,2.992,0,0,0,.283.186,2.136,2.136,0,0,0,.4.161q.264.083.439.127l.513.132.522.137q.537.146.942.293a5.519,5.519,0,0,1,.864.41,3.1,3.1,0,0,1,.757.591,2.635,2.635,0,0,1,.493.83,3.066,3.066,0,0,1,.2,1.118,3.02,3.02,0,0,1-.337,1.455,2.529,2.529,0,0,1-.923.981,4.492,4.492,0,0,1-1.3.527A6.763,6.763,0,0,1,144.99,19.2Zm15.6-5.361-.029.674h-7.441a2.6,2.6,0,0,0,.8,1.836,2.561,2.561,0,0,0,1.768.635,2.468,2.468,0,0,0,1.323-.347,2.131,2.131,0,0,0,.845-1.011L160.43,16a4.383,4.383,0,0,1-1.758,2.354,5.226,5.226,0,0,1-2.969.84,5.435,5.435,0,0,1-3.911-1.382,5.042,5.042,0,0,1-1.45-3.833,5.072,5.072,0,0,1,1.455-3.833,5.273,5.273,0,0,1,3.818-1.4,5.04,5.04,0,0,1,3.6,1.279A5.019,5.019,0,0,1,160.586,13.834Zm-4.951-3.1a2.222,2.222,0,0,0-2.441,1.934H157.8a2.114,2.114,0,0,0-.693-1.436A2.2,2.2,0,0,0,155.635,10.738Zm13.018-1.973a3.914,3.914,0,0,1,2.773.9,3.349,3.349,0,0,1,.967,2.573V19H169.57V12.848a1.749,1.749,0,0,0-.5-1.387,1.9,1.9,0,0,0-1.294-.439,2.643,2.643,0,0,0-.84.127,2.158,2.158,0,0,0-.7.4,1.748,1.748,0,0,0-.5.757,3.5,3.5,0,0,0-.19,1.162V19h-2.812V8.961h2.813v1.113A3.868,3.868,0,0,1,168.652,8.766ZM178.857,19a3.032,3.032,0,0,1-2.266-.815,3.171,3.171,0,0,1-.8-2.319V11.119h-1.973V8.961h.635a1.656,1.656,0,0,0,1.25-.42,2.162,2.162,0,0,0,.4-1.494V5.719h2.539V8.961h2.07v2.158h-2.07v4.443q0,1.3,1.162,1.3h.908V19Zm12.227-2.725a9.391,9.391,0,0,0,.244,2.451V19H188.7l-.225-1.094a3.264,3.264,0,0,1-1.406.967,5.183,5.183,0,0,1-1.816.322,4.776,4.776,0,0,1-.937-.088,3.187,3.187,0,0,1-.845-.3,2.563,2.563,0,0,1-.7-.522,2.291,2.291,0,0,1-.469-.8,3.17,3.17,0,0,1-.176-1.089,3.019,3.019,0,0,1,.186-1.089,2.552,2.552,0,0,1,.488-.815,2.962,2.962,0,0,1,.791-.6,6.052,6.052,0,0,1,1-.43,11.9,11.9,0,0,1,1.191-.312l1.65-.371a1.82,1.82,0,0,0,.747-.317.633.633,0,0,0,.22-.5,1.036,1.036,0,0,0-.493-.967,2.3,2.3,0,0,0-1.2-.293,1.721,1.721,0,0,0-1.963,1.533l-2.49-.449a3.371,3.371,0,0,1,1.455-2.29,5.783,5.783,0,0,1,3.154-.737q4.219,0,4.219,3.623Zm-4.951,1.016a2.262,2.262,0,0,0,1.738-.728,3.066,3.066,0,0,0,.674-2.153l-2.383.674a2.816,2.816,0,0,0-1,.41.842.842,0,0,0-.347.723.935.935,0,0,0,.371.8A1.536,1.536,0,0,0,186.133,17.291Zm10.381-6.738a3.259,3.259,0,0,1,1.318-1.206,4.023,4.023,0,0,1,1.963-.5v2.51a3.8,3.8,0,0,0-2.4.605,2.643,2.643,0,0,0-.742,2.148V19h-2.832V8.961h2.7ZM210.176,19.2a5.61,5.61,0,0,1-2.93-.7,2.972,2.972,0,0,1-1.436-2.09l2.354-.664a1.891,1.891,0,0,0,2.012,1.494A2.078,2.078,0,0,0,211.2,17a.8.8,0,0,0,.4-.776.821.821,0,0,0-.166-.518,1.315,1.315,0,0,0-.513-.371,6.388,6.388,0,0,0-.684-.264q-.337-.107-.894-.259t-.928-.288a6.215,6.215,0,0,1-.884-.376,3.769,3.769,0,0,1-.732-.518,2.086,2.086,0,0,1-.547-.786,2.836,2.836,0,0,1-.19-1.074,2.565,2.565,0,0,1,1.089-2.246A4.865,4.865,0,0,1,210,8.766a4.988,4.988,0,0,1,2.627.645,2.917,2.917,0,0,1,1.348,2.012l-2.178.488a1.706,1.706,0,0,0-1.787-1.27,1.957,1.957,0,0,0-.986.225.722.722,0,0,0-.391.664.761.761,0,0,0,.059.3.6.6,0,0,0,.205.244,2.992,2.992,0,0,0,.283.186,2.136,2.136,0,0,0,.4.161q.264.083.439.127l.513.132.522.137q.537.146.942.293a5.519,5.519,0,0,1,.864.41,3.1,3.1,0,0,1,.757.591,2.635,2.635,0,0,1,.493.83,3.066,3.066,0,0,1,.2,1.118,3.02,3.02,0,0,1-.337,1.455,2.529,2.529,0,0,1-.923.981,4.492,4.492,0,0,1-1.3.527A6.763,6.763,0,0,1,210.176,19.2Zm6.709-11.611,2.559-3.594,1.387.977-2.217,2.617ZM216.328,19V8.961h2.832V19ZM228,8.766a3.914,3.914,0,0,1,2.773.9,3.349,3.349,0,0,1,.967,2.573V19h-2.822V12.848a1.749,1.749,0,0,0-.5-1.387,1.9,1.9,0,0,0-1.294-.439,2.643,2.643,0,0,0-.84.127,2.158,2.158,0,0,0-.7.4,1.748,1.748,0,0,0-.5.757,3.5,3.5,0,0,0-.19,1.162V19H222.07V8.961h2.813v1.113A3.868,3.868,0,0,1,228,8.766ZM238.2,19a3.032,3.032,0,0,1-2.266-.815,3.171,3.171,0,0,1-.8-2.319V11.119h-1.973V8.961h.635a1.656,1.656,0,0,0,1.25-.42,2.162,2.162,0,0,0,.4-1.494V5.719h2.539V8.961h2.07v2.158h-2.07v4.443q0,1.3,1.162,1.3h.908V19Zm8.672.2a6.313,6.313,0,0,1-2.842-.615,4.6,4.6,0,0,1-1.948-1.807,5.384,5.384,0,0,1-.708-2.8,4.911,4.911,0,0,1,1.523-3.809,6.368,6.368,0,0,1,7.959,0,4.911,4.911,0,0,1,1.523,3.809,4.938,4.938,0,0,1-1.523,3.823A5.654,5.654,0,0,1,246.875,19.2Zm-.029-2.236a2.577,2.577,0,0,0,1.987-.82,3.071,3.071,0,0,0,.757-2.168,3.071,3.071,0,0,0-.757-2.168,2.577,2.577,0,0,0-1.987-.82,2.483,2.483,0,0,0-1.929.825,3.1,3.1,0,0,0-.747,2.163,3.1,3.1,0,0,0,.747,2.163A2.483,2.483,0,0,0,246.846,16.959Zm19.521-8.193a3.836,3.836,0,0,1,2.588.815,2.918,2.918,0,0,1,.947,2.339V19H267.09V12.721a1.677,1.677,0,0,0-.449-1.27,1.573,1.573,0,0,0-1.133-.43,1.814,1.814,0,0,0-1.367.547,2.484,2.484,0,0,0-.527,1.768V19h-2.842V12.75a1.721,1.721,0,0,0-.449-1.294,1.6,1.6,0,0,0-1.162-.435,1.757,1.757,0,0,0-1.357.576,2.751,2.751,0,0,0-.527,1.885V19h-2.8V8.961h2.8v1.182a3.414,3.414,0,0,1,2.91-1.377,4.293,4.293,0,0,1,1.89.386,2.572,2.572,0,0,1,1.187,1.118A3.55,3.55,0,0,1,266.367,8.766Zm14.5,7.51a9.392,9.392,0,0,0,.244,2.451V19h-2.627l-.225-1.094a3.264,3.264,0,0,1-1.406.967,5.183,5.183,0,0,1-1.816.322,4.776,4.776,0,0,1-.937-.088,3.187,3.187,0,0,1-.845-.3,2.564,2.564,0,0,1-.7-.522,2.291,2.291,0,0,1-.469-.8,3.17,3.17,0,0,1-.176-1.089,3.02,3.02,0,0,1,.186-1.089,2.552,2.552,0,0,1,.488-.815,2.961,2.961,0,0,1,.791-.6,6.053,6.053,0,0,1,1-.43,11.9,11.9,0,0,1,1.191-.312l1.65-.371a1.82,1.82,0,0,0,.747-.317.633.633,0,0,0,.22-.5A1.036,1.036,0,0,0,277.69,11a2.3,2.3,0,0,0-1.2-.293,1.721,1.721,0,0,0-1.963,1.533l-2.49-.449A3.371,3.371,0,0,1,273.5,9.5a5.783,5.783,0,0,1,3.154-.737q4.219,0,4.219,3.623Zm-4.951,1.016a2.262,2.262,0,0,0,1.738-.728,3.066,3.066,0,0,0,.674-2.153l-2.383.674a2.816,2.816,0,0,0-1,.41.842.842,0,0,0-.347.723.935.935,0,0,0,.371.8A1.536,1.536,0,0,0,275.918,17.291Zm11.221,1.9a5.61,5.61,0,0,1-2.93-.7,2.972,2.972,0,0,1-1.436-2.09l2.354-.664a1.891,1.891,0,0,0,2.012,1.494A2.078,2.078,0,0,0,288.164,17a.8.8,0,0,0,.4-.776.821.821,0,0,0-.166-.518,1.315,1.315,0,0,0-.513-.371,6.386,6.386,0,0,0-.684-.264q-.337-.107-.894-.259t-.928-.288a6.215,6.215,0,0,1-.884-.376,3.77,3.77,0,0,1-.732-.518,2.086,2.086,0,0,1-.547-.786,2.836,2.836,0,0,1-.19-1.074,2.565,2.565,0,0,1,1.089-2.246,4.865,4.865,0,0,1,2.847-.762,4.988,4.988,0,0,1,2.627.645,2.917,2.917,0,0,1,1.348,2.012l-2.178.488a1.706,1.706,0,0,0-1.787-1.27,1.957,1.957,0,0,0-.986.225.722.722,0,0,0-.391.664.761.761,0,0,0,.059.3.6.6,0,0,0,.205.244,2.99,2.99,0,0,0,.283.186,2.137,2.137,0,0,0,.4.161q.264.083.439.127l.513.132.522.137q.537.146.942.293a5.52,5.52,0,0,1,.864.41,3.1,3.1,0,0,1,.757.591,2.635,2.635,0,0,1,.493.83,3.066,3.066,0,0,1,.2,1.118,3.02,3.02,0,0,1-.337,1.455,2.529,2.529,0,0,1-.923.981,4.492,4.492,0,0,1-1.3.527A6.763,6.763,0,0,1,287.139,19.2Zm17.275-10.43a3.914,3.914,0,0,1,2.773.9,3.349,3.349,0,0,1,.967,2.573V19h-2.822V12.848a1.749,1.749,0,0,0-.5-1.387,1.9,1.9,0,0,0-1.294-.439,2.643,2.643,0,0,0-.84.127,2.158,2.158,0,0,0-.7.4,1.748,1.748,0,0,0-.5.757,3.5,3.5,0,0,0-.19,1.162V19h-2.812V8.961H301.3v1.113A3.868,3.868,0,0,1,304.414,8.766ZM315.557,19.2a6.313,6.313,0,0,1-2.842-.615,4.6,4.6,0,0,1-1.948-1.807,5.384,5.384,0,0,1-.708-2.8,4.911,4.911,0,0,1,1.523-3.809,6.368,6.368,0,0,1,7.959,0,4.911,4.911,0,0,1,1.523,3.809,4.938,4.938,0,0,1-1.523,3.823A5.654,5.654,0,0,1,315.557,19.2Zm-.029-2.236a2.577,2.577,0,0,0,1.987-.82,3.071,3.071,0,0,0,.757-2.168,3.071,3.071,0,0,0-.757-2.168,2.577,2.577,0,0,0-1.987-.82,2.483,2.483,0,0,0-1.929.825,3.1,3.1,0,0,0-.747,2.163,3.1,3.1,0,0,0,.747,2.163A2.483,2.483,0,0,0,315.527,16.959ZM331.885,19.2a5.61,5.61,0,0,1-2.93-.7,2.972,2.972,0,0,1-1.436-2.09l2.354-.664a1.891,1.891,0,0,0,2.012,1.494A2.078,2.078,0,0,0,332.91,17a.8.8,0,0,0,.4-.776.821.821,0,0,0-.166-.518,1.315,1.315,0,0,0-.513-.371,6.386,6.386,0,0,0-.684-.264q-.337-.107-.894-.259t-.928-.288a6.215,6.215,0,0,1-.884-.376,3.77,3.77,0,0,1-.732-.518,2.086,2.086,0,0,1-.547-.786,2.836,2.836,0,0,1-.19-1.074,2.565,2.565,0,0,1,1.089-2.246,4.865,4.865,0,0,1,2.847-.762,4.988,4.988,0,0,1,2.627.645,2.917,2.917,0,0,1,1.348,2.012l-2.178.488a1.706,1.706,0,0,0-1.787-1.27,1.957,1.957,0,0,0-.986.225.722.722,0,0,0-.391.664.761.761,0,0,0,.059.3.6.6,0,0,0,.205.244,2.99,2.99,0,0,0,.283.186,2.137,2.137,0,0,0,.4.161q.264.083.439.127l.513.132.522.137q.537.146.942.293a5.52,5.52,0,0,1,.864.41,3.1,3.1,0,0,1,.757.591,2.635,2.635,0,0,1,.493.83,3.066,3.066,0,0,1,.2,1.118,3.02,3.02,0,0,1-.337,1.455,2.529,2.529,0,0,1-.923.981,4.492,4.492,0,0,1-1.3.527A6.763,6.763,0,0,1,331.885,19.2Zm15.6-5.361-.029.674H340.01a2.6,2.6,0,0,0,.8,1.836,2.561,2.561,0,0,0,1.768.635,2.468,2.468,0,0,0,1.323-.347,2.131,2.131,0,0,0,.845-1.011l2.578.381a4.383,4.383,0,0,1-1.758,2.354,5.226,5.226,0,0,1-2.969.84,5.435,5.435,0,0,1-3.911-1.382,5.042,5.042,0,0,1-1.45-3.833,5.072,5.072,0,0,1,1.455-3.833,5.273,5.273,0,0,1,3.818-1.4,5.04,5.04,0,0,1,3.6,1.279A5.019,5.019,0,0,1,347.48,13.834Zm-4.951-3.1a2.222,2.222,0,0,0-2.441,1.934H344.7A2.114,2.114,0,0,0,344,11.236,2.2,2.2,0,0,0,342.529,10.738ZM361.934,4h2.813V19H362.08l-.068-1.309a2.867,2.867,0,0,1-1.274,1.138,4.29,4.29,0,0,1-1.88.405,4.883,4.883,0,0,1-1.875-.361A4.516,4.516,0,0,1,354.4,16.2a6.106,6.106,0,0,1-.381-2.2,5.707,5.707,0,0,1,.664-2.8,4.55,4.55,0,0,1,1.753-1.821,4.827,4.827,0,0,1,2.417-.615,4.4,4.4,0,0,1,1.821.366,2.843,2.843,0,0,1,1.255,1.04ZM359.5,16.9a2.5,2.5,0,0,0,1.9-.8,2.932,2.932,0,0,0,.757-2.1,2.938,2.938,0,0,0-.762-2.1,2.5,2.5,0,0,0-1.895-.806,2.53,2.53,0,0,0-1.909.791A2.937,2.937,0,0,0,356.836,14a2.924,2.924,0,0,0,.757,2.109A2.53,2.53,0,0,0,359.5,16.9Zm17.6-3.066-.029.674h-7.441a2.6,2.6,0,0,0,.8,1.836,2.561,2.561,0,0,0,1.768.635,2.468,2.468,0,0,0,1.323-.347,2.131,2.131,0,0,0,.845-1.011l2.578.381a4.383,4.383,0,0,1-1.758,2.354,5.226,5.226,0,0,1-2.969.84,5.435,5.435,0,0,1-3.911-1.382,5.042,5.042,0,0,1-1.45-3.833,5.072,5.072,0,0,1,1.455-3.833,5.273,5.273,0,0,1,3.818-1.4,5.04,5.04,0,0,1,3.6,1.279A5.019,5.019,0,0,1,377.1,13.834Zm-4.951-3.1a2.222,2.222,0,0,0-2.441,1.934h4.609a2.114,2.114,0,0,0-.693-1.436A2.2,2.2,0,0,0,372.148,10.738Zm12.988-1.973A4.857,4.857,0,0,1,387,9.127,4.516,4.516,0,0,1,389.58,11.8a6.106,6.106,0,0,1,.381,2.2,6.106,6.106,0,0,1-.381,2.2A4.516,4.516,0,0,1,387,18.873a4.857,4.857,0,0,1-1.865.361,4.336,4.336,0,0,1-1.9-.405,2.808,2.808,0,0,1-1.265-1.138L381.9,19h-2.666V4h2.813v6.182a2.8,2.8,0,0,1,1.255-1.045A4.414,4.414,0,0,1,385.137,8.766Zm-.654,8.135a2.53,2.53,0,0,0,1.909-.791A2.924,2.924,0,0,0,387.148,14a2.937,2.937,0,0,0-.757-2.119,2.53,2.53,0,0,0-1.909-.791,2.5,2.5,0,0,0-1.895.806,2.938,2.938,0,0,0-.762,2.1,2.932,2.932,0,0,0,.757,2.1A2.5,2.5,0,0,0,384.482,16.9Zm17.041-3.066-.029.674h-7.441a2.6,2.6,0,0,0,.8,1.836,2.561,2.561,0,0,0,1.768.635,2.468,2.468,0,0,0,1.323-.347,2.131,2.131,0,0,0,.845-1.011l2.578.381a4.383,4.383,0,0,1-1.758,2.354,5.226,5.226,0,0,1-2.969.84,5.435,5.435,0,0,1-3.911-1.382,5.042,5.042,0,0,1-1.45-3.833,5.072,5.072,0,0,1,1.455-3.833,5.273,5.273,0,0,1,3.818-1.4,5.04,5.04,0,0,1,3.6,1.279A5.019,5.019,0,0,1,401.523,13.834Zm-4.951-3.1a2.222,2.222,0,0,0-2.441,1.934h4.609a2.114,2.114,0,0,0-.693-1.436A2.2,2.2,0,0,0,396.572,10.738ZM412.6,19a3.032,3.032,0,0,1-2.266-.815,3.172,3.172,0,0,1-.8-2.319V11.119h-1.973V8.961h.635a1.656,1.656,0,0,0,1.25-.42,2.162,2.162,0,0,0,.4-1.494V5.719h2.539V8.961h2.07v2.158h-2.07v4.443q0,1.3,1.162,1.3h.908V19Zm6.729-8.447a3.259,3.259,0,0,1,1.318-1.206,4.023,4.023,0,0,1,1.963-.5v2.51a3.8,3.8,0,0,0-2.4.605,2.643,2.643,0,0,0-.742,2.148V19h-2.832V8.961h2.7Zm13.105,5.723a9.392,9.392,0,0,0,.244,2.451V19h-2.627l-.225-1.094a3.264,3.264,0,0,1-1.406.967,5.183,5.183,0,0,1-1.816.322,4.776,4.776,0,0,1-.937-.088,3.187,3.187,0,0,1-.845-.3,2.564,2.564,0,0,1-.7-.522,2.291,2.291,0,0,1-.469-.8,3.17,3.17,0,0,1-.176-1.089,3.02,3.02,0,0,1,.186-1.089,2.552,2.552,0,0,1,.488-.815,2.961,2.961,0,0,1,.791-.6,6.053,6.053,0,0,1,1-.43,11.9,11.9,0,0,1,1.191-.312l1.65-.371a1.82,1.82,0,0,0,.747-.317.633.633,0,0,0,.22-.5,1.036,1.036,0,0,0-.493-.967,2.3,2.3,0,0,0-1.2-.293,1.721,1.721,0,0,0-1.963,1.533l-2.49-.449a3.371,3.371,0,0,1,1.455-2.29,5.783,5.783,0,0,1,3.154-.737q4.219,0,4.219,3.623Zm-4.951,1.016a2.262,2.262,0,0,0,1.738-.728,3.066,3.066,0,0,0,.674-2.153l-2.383.674a2.816,2.816,0,0,0-1,.41.842.842,0,0,0-.347.723.935.935,0,0,0,.371.8A1.536,1.536,0,0,0,427.48,17.291Zm13.584-8.525a4.857,4.857,0,0,1,1.865.361,4.516,4.516,0,0,1,2.578,2.676,6.106,6.106,0,0,1,.381,2.2,6.106,6.106,0,0,1-.381,2.2,4.516,4.516,0,0,1-2.578,2.676,4.857,4.857,0,0,1-1.865.361,4.336,4.336,0,0,1-1.9-.405,2.808,2.808,0,0,1-1.265-1.138L437.832,19h-2.666V4h2.813v6.182a2.8,2.8,0,0,1,1.255-1.045A4.414,4.414,0,0,1,441.064,8.766ZM440.41,16.9a2.53,2.53,0,0,0,1.909-.791A2.924,2.924,0,0,0,443.076,14a2.937,2.937,0,0,0-.757-2.119,2.53,2.53,0,0,0-1.909-.791,2.5,2.5,0,0,0-1.895.806,2.938,2.938,0,0,0-.762,2.1,2.932,2.932,0,0,0,.757,2.1A2.5,2.5,0,0,0,440.41,16.9Zm15.83-.625a9.392,9.392,0,0,0,.244,2.451V19h-2.627l-.225-1.094a3.264,3.264,0,0,1-1.406.967,5.183,5.183,0,0,1-1.816.322,4.776,4.776,0,0,1-.937-.088,3.187,3.187,0,0,1-.845-.3,2.564,2.564,0,0,1-.7-.522,2.291,2.291,0,0,1-.469-.8,3.17,3.17,0,0,1-.176-1.089,3.02,3.02,0,0,1,.186-1.089,2.552,2.552,0,0,1,.488-.815,2.961,2.961,0,0,1,.791-.6,6.053,6.053,0,0,1,1-.43,11.9,11.9,0,0,1,1.191-.312l1.65-.371a1.82,1.82,0,0,0,.747-.317.633.633,0,0,0,.22-.5,1.036,1.036,0,0,0-.493-.967,2.3,2.3,0,0,0-1.2-.293,1.721,1.721,0,0,0-1.963,1.533l-2.49-.449a3.371,3.371,0,0,1,1.455-2.29,5.783,5.783,0,0,1,3.154-.737q4.219,0,4.219,3.623Zm-4.951,1.016a2.262,2.262,0,0,0,1.738-.728,3.066,3.066,0,0,0,.674-2.153l-2.383.674a2.816,2.816,0,0,0-1,.41.842.842,0,0,0-.347.723.935.935,0,0,0,.371.8A1.536,1.536,0,0,0,451.289,17.291Zm9.131-9.834a1.579,1.579,0,0,1-1.152-.474,1.555,1.555,0,0,1-.479-1.147,1.536,1.536,0,0,1,.483-1.138,1.584,1.584,0,0,1,1.147-.474,1.626,1.626,0,0,1,1.611,1.611,1.626,1.626,0,0,1-1.611,1.621Zm-3.5,16.25v-2.2a3.235,3.235,0,0,0,1.055-.142,1.179,1.179,0,0,0,.625-.5,2.227,2.227,0,0,0,.3-.864,9.745,9.745,0,0,0,.073-1.343v-9.7h2.852v9.7a5.453,5.453,0,0,1-1.143,3.838A4.986,4.986,0,0,1,456.924,23.707Zm16.055-7.432a9.392,9.392,0,0,0,.244,2.451V19H470.6l-.225-1.094a3.264,3.264,0,0,1-1.406.967,5.183,5.183,0,0,1-1.816.322,4.776,4.776,0,0,1-.937-.088,3.187,3.187,0,0,1-.845-.3,2.564,2.564,0,0,1-.7-.522,2.291,2.291,0,0,1-.469-.8,3.17,3.17,0,0,1-.176-1.089,3.02,3.02,0,0,1,.186-1.089,2.552,2.552,0,0,1,.488-.815,2.961,2.961,0,0,1,.791-.6,6.053,6.053,0,0,1,1-.43,11.9,11.9,0,0,1,1.191-.312l1.65-.371a1.82,1.82,0,0,0,.747-.317.633.633,0,0,0,.22-.5A1.036,1.036,0,0,0,469.8,11a2.3,2.3,0,0,0-1.2-.293,1.721,1.721,0,0,0-1.963,1.533l-2.49-.449a3.371,3.371,0,0,1,1.455-2.29,5.783,5.783,0,0,1,3.154-.737q4.219,0,4.219,3.623Zm-4.951,1.016a2.262,2.262,0,0,0,1.738-.728,3.066,3.066,0,0,0,.674-2.153l-2.383.674a2.816,2.816,0,0,0-1,.41.842.842,0,0,0-.347.723.935.935,0,0,0,.371.8A1.536,1.536,0,0,0,468.027,17.291Zm10.381-6.738a3.259,3.259,0,0,1,1.318-1.206,4.023,4.023,0,0,1,1.963-.5v2.51a3.8,3.8,0,0,0-2.4.605,2.643,2.643,0,0,0-.742,2.148V19h-2.832V8.961h2.7Zm16.016-1.787a4.883,4.883,0,0,1,1.875.361,4.692,4.692,0,0,1,1.538,1.016,4.6,4.6,0,0,1,1.04,1.655,6.146,6.146,0,0,1,.381,2.2,6.146,6.146,0,0,1-.381,2.2,4.6,4.6,0,0,1-1.04,1.655,4.692,4.692,0,0,1-1.538,1.016,4.883,4.883,0,0,1-1.875.361,4.356,4.356,0,0,1-1.816-.371,2.846,2.846,0,0,1-1.26-1.055v6.074h-2.812V8.961H491.2l.078,1.348a2.75,2.75,0,0,1,1.255-1.138A4.313,4.313,0,0,1,494.424,8.766Zm-.635,8.135a2.527,2.527,0,0,0,1.9-.786A2.92,2.92,0,0,0,496.445,14a2.92,2.92,0,0,0-.757-2.114,2.688,2.688,0,0,0-3.813.015,2.921,2.921,0,0,0-.762,2.1,2.921,2.921,0,0,0,.762,2.1A2.531,2.531,0,0,0,493.789,16.9Zm10.283-6.348a3.259,3.259,0,0,1,1.318-1.206,4.023,4.023,0,0,1,1.963-.5v2.51a3.8,3.8,0,0,0-2.4.605,2.643,2.643,0,0,0-.742,2.148V19h-2.832V8.961h2.7Zm14.316,3.281-.029.674h-7.441a2.6,2.6,0,0,0,.8,1.836,2.561,2.561,0,0,0,1.768.635,2.468,2.468,0,0,0,1.323-.347,2.131,2.131,0,0,0,.845-1.011l2.578.381a4.383,4.383,0,0,1-1.758,2.354,5.226,5.226,0,0,1-2.969.84,5.435,5.435,0,0,1-3.911-1.382,5.042,5.042,0,0,1-1.45-3.833,5.072,5.072,0,0,1,1.455-3.833,5.273,5.273,0,0,1,3.818-1.4,5.04,5.04,0,0,1,3.6,1.279A5.019,5.019,0,0,1,518.389,13.834Zm-4.951-3.1A2.222,2.222,0,0,0,511,12.672h4.609a2.114,2.114,0,0,0-.693-1.436A2.2,2.2,0,0,0,513.438,10.738ZM524.063,19.2a5.61,5.61,0,0,1-2.93-.7A2.972,2.972,0,0,1,519.7,16.4l2.354-.664a1.891,1.891,0,0,0,2.012,1.494A2.078,2.078,0,0,0,525.088,17a.8.8,0,0,0,.4-.776.821.821,0,0,0-.166-.518,1.315,1.315,0,0,0-.513-.371,6.389,6.389,0,0,0-.684-.264q-.337-.107-.894-.259t-.928-.288a6.215,6.215,0,0,1-.884-.376,3.768,3.768,0,0,1-.732-.518,2.086,2.086,0,0,1-.547-.786,2.836,2.836,0,0,1-.19-1.074,2.565,2.565,0,0,1,1.089-2.246,4.865,4.865,0,0,1,2.847-.762,4.988,4.988,0,0,1,2.627.645,2.917,2.917,0,0,1,1.348,2.012l-2.178.488a1.706,1.706,0,0,0-1.787-1.27,1.957,1.957,0,0,0-.986.225.722.722,0,0,0-.391.664.761.761,0,0,0,.059.3.6.6,0,0,0,.205.244,2.994,2.994,0,0,0,.283.186,2.136,2.136,0,0,0,.4.161q.264.083.439.127l.513.132.522.137q.537.146.942.293a5.518,5.518,0,0,1,.864.41,3.1,3.1,0,0,1,.757.591,2.635,2.635,0,0,1,.493.83,3.066,3.066,0,0,1,.2,1.118,3.02,3.02,0,0,1-.337,1.455,2.529,2.529,0,0,1-.923.981,4.492,4.492,0,0,1-1.3.527A6.763,6.763,0,0,1,524.063,19.2Zm15.6-5.361-.029.674h-7.441a2.6,2.6,0,0,0,.8,1.836,2.561,2.561,0,0,0,1.768.635,2.468,2.468,0,0,0,1.323-.347,2.131,2.131,0,0,0,.845-1.011L539.5,16a4.383,4.383,0,0,1-1.758,2.354,5.226,5.226,0,0,1-2.969.84,5.435,5.435,0,0,1-3.911-1.382,5.042,5.042,0,0,1-1.45-3.833,5.072,5.072,0,0,1,1.455-3.833,5.273,5.273,0,0,1,3.818-1.4,5.04,5.04,0,0,1,3.6,1.279A5.019,5.019,0,0,1,539.658,13.834Zm-4.951-3.1a2.222,2.222,0,0,0-2.441,1.934h4.609a2.114,2.114,0,0,0-.693-1.436A2.2,2.2,0,0,0,534.707,10.738Zm13.018-1.973a3.914,3.914,0,0,1,2.773.9,3.349,3.349,0,0,1,.967,2.573V19h-2.822V12.848a1.749,1.749,0,0,0-.5-1.387,1.9,1.9,0,0,0-1.294-.439,2.643,2.643,0,0,0-.84.127,2.158,2.158,0,0,0-.7.4,1.748,1.748,0,0,0-.5.757,3.5,3.5,0,0,0-.19,1.162V19H541.8V8.961h2.813v1.113A3.868,3.868,0,0,1,547.725,8.766Zm11.006,10.42a5.364,5.364,0,0,1-3.877-1.445,4.992,4.992,0,0,1-1.5-3.77,4.981,4.981,0,0,1,1.5-3.77,5.96,5.96,0,0,1,7.134-.469,4.316,4.316,0,0,1,1.68,2.725l-2.6.283a2.225,2.225,0,0,0-.84-1.318,2.554,2.554,0,0,0-1.523-.439,2.3,2.3,0,0,0-1.836.82,3.216,3.216,0,0,0-.7,2.168,3.22,3.22,0,0,0,.7,2.163,2.3,2.3,0,0,0,1.836.825,2.532,2.532,0,0,0,1.519-.439,2.277,2.277,0,0,0,.845-1.318l2.6.283a4.328,4.328,0,0,1-1.694,2.725A5.327,5.327,0,0,1,558.73,19.186ZM567.1,7.457a1.579,1.579,0,0,1-1.152-.474,1.555,1.555,0,0,1-.479-1.147,1.536,1.536,0,0,1,.483-1.138,1.584,1.584,0,0,1,1.147-.474,1.626,1.626,0,0,1,1.611,1.611A1.626,1.626,0,0,1,567.1,7.457ZM565.664,19V8.961H568.5V19Zm13.975-2.725a9.391,9.391,0,0,0,.244,2.451V19h-2.627l-.225-1.094a3.264,3.264,0,0,1-1.406.967,5.182,5.182,0,0,1-1.816.322,4.776,4.776,0,0,1-.937-.088,3.187,3.187,0,0,1-.845-.3,2.563,2.563,0,0,1-.7-.522,2.291,2.291,0,0,1-.469-.8,3.17,3.17,0,0,1-.176-1.089,3.019,3.019,0,0,1,.186-1.089,2.552,2.552,0,0,1,.488-.815,2.962,2.962,0,0,1,.791-.6,6.051,6.051,0,0,1,1-.43,11.9,11.9,0,0,1,1.191-.312l1.65-.371a1.82,1.82,0,0,0,.747-.317.633.633,0,0,0,.22-.5A1.036,1.036,0,0,0,576.46,11a2.3,2.3,0,0,0-1.2-.293,1.721,1.721,0,0,0-1.963,1.533l-2.49-.449a3.371,3.371,0,0,1,1.455-2.29,5.783,5.783,0,0,1,3.154-.737q4.219,0,4.219,3.623Zm-4.951,1.016a2.262,2.262,0,0,0,1.738-.728,3.066,3.066,0,0,0,.674-2.153l-2.383.674a2.816,2.816,0,0,0-1,.41.842.842,0,0,0-.347.723.935.935,0,0,0,.371.8A1.536,1.536,0,0,0,574.688,17.291ZM582.373,19V4h2.842V19ZM600.02,8.766a3.836,3.836,0,0,1,2.588.815,2.918,2.918,0,0,1,.947,2.339V19h-2.812V12.721a1.677,1.677,0,0,0-.449-1.27,1.573,1.573,0,0,0-1.133-.43,1.815,1.815,0,0,0-1.367.547,2.484,2.484,0,0,0-.527,1.768V19h-2.842V12.75a1.721,1.721,0,0,0-.449-1.294,1.6,1.6,0,0,0-1.162-.435,1.757,1.757,0,0,0-1.357.576,2.751,2.751,0,0,0-.527,1.885V19h-2.8V8.961h2.8v1.182a3.414,3.414,0,0,1,2.91-1.377,4.292,4.292,0,0,1,1.89.386,2.572,2.572,0,0,1,1.187,1.118A3.55,3.55,0,0,1,600.02,8.766Zm15.713,5.068-.029.674h-7.441a2.6,2.6,0,0,0,.8,1.836,2.561,2.561,0,0,0,1.768.635,2.468,2.468,0,0,0,1.323-.347A2.131,2.131,0,0,0,613,15.621l2.578.381a4.383,4.383,0,0,1-1.758,2.354,5.226,5.226,0,0,1-2.969.84,5.435,5.435,0,0,1-3.911-1.382,5.042,5.042,0,0,1-1.45-3.833,5.072,5.072,0,0,1,1.455-3.833,5.273,5.273,0,0,1,3.818-1.4,5.04,5.04,0,0,1,3.6,1.279A5.019,5.019,0,0,1,615.732,13.834Zm-4.951-3.1a2.222,2.222,0,0,0-2.441,1.934h4.609a2.114,2.114,0,0,0-.693-1.436A2.2,2.2,0,0,0,610.781,10.738ZM623.8,8.766a3.914,3.914,0,0,1,2.773.9,3.349,3.349,0,0,1,.967,2.573V19h-2.822V12.848a1.749,1.749,0,0,0-.5-1.387,1.9,1.9,0,0,0-1.294-.439,2.643,2.643,0,0,0-.84.127,2.158,2.158,0,0,0-.7.4,1.748,1.748,0,0,0-.5.757,3.5,3.5,0,0,0-.19,1.162V19h-2.812V8.961h2.813v1.113A3.868,3.868,0,0,1,623.8,8.766ZM634,19a3.032,3.032,0,0,1-2.266-.815,3.171,3.171,0,0,1-.8-2.319V11.119h-1.973V8.961h.635a1.656,1.656,0,0,0,1.25-.42,2.162,2.162,0,0,0,.4-1.494V5.719h2.539V8.961h2.07v2.158h-2.07v4.443q0,1.3,1.162,1.3h.908V19Zm13.438-5.166-.029.674h-7.441a2.6,2.6,0,0,0,.8,1.836,2.561,2.561,0,0,0,1.768.635,2.468,2.468,0,0,0,1.323-.347,2.131,2.131,0,0,0,.845-1.011l2.578.381a4.383,4.383,0,0,1-1.758,2.354,5.226,5.226,0,0,1-2.969.84,5.435,5.435,0,0,1-3.911-1.382,5.042,5.042,0,0,1-1.45-3.833,5.072,5.072,0,0,1,1.455-3.833,5.273,5.273,0,0,1,3.818-1.4,5.04,5.04,0,0,1,3.6,1.279A5.019,5.019,0,0,1,647.441,13.834Zm-4.951-3.1a2.222,2.222,0,0,0-2.441,1.934h4.609a2.114,2.114,0,0,0-.693-1.436A2.2,2.2,0,0,0,642.49,10.738Z" transform="translate(-2715 5796)" fill="#f56b6b"/>
    </g>
  </g>
</svg>
