<?xml version="1.0" encoding="utf-8"?>
<!-- Generator: Adobe Illustrator 24.2.3, SVG Export Plug-In . SVG Version: 6.00 Build 0)  -->
<svg version="1.1" id="Layer_1" xmlns="http://www.w3.org/2000/svg" xmlns:xlink="http://www.w3.org/1999/xlink" x="0px" y="0px"
	 viewBox="0 0 2400 1847.5" style="enable-background:new 0 0 2400 1847.5;" xml:space="preserve">
<style type="text/css">
	.st0{opacity:5.000000e-02;}
	.st1{fill:#FFFFFF;}
</style>
<g class="st0">
	<g id="XMLID_1024_">
		<g id="XMLID_855_">
			<path id="XMLID_1274_" class="st1" d="M360.9,1063.3h-9.8V930.4c0-3.2-2.6-5.8-5.8-5.8h-41.4c-3.2,0-5.8,2.6-5.8,5.8v132.9H281
				v-80.7c0-3.2-2.6-5.8-5.8-5.8h-41.4c-3.2,0-5.8,2.6-5.8,5.8v80.7h-17.2v-37.7c0-3.2-2.6-5.8-5.8-5.8s-5.8,2.6-5.8,5.8v37.7h-29.9
				V936.1h29.9v37.7c0,3.2,2.6,5.8,5.8,5.8s5.8-2.6,5.8-5.8v-43.4c0-3.2-2.6-5.8-5.8-5.8h-41.4c-3.2,0-5.8,2.6-5.8,5.8v132.9h-17.2
				v-80.7c0-3.2-2.6-5.8-5.8-5.8H93.5c-3.2,0-5.8,2.6-5.8,5.8v80.7h-9.8c-3.2,0-5.8,2.6-5.8,5.8s2.6,5.8,5.8,5.8h283
				c3.2,0,5.8-2.6,5.8-5.8S364.1,1063.3,360.9,1063.3z M99.2,1063.3v-75h29.9v75H99.2z M239.5,1063.3v-75h29.9v75H239.5z
				 M309.7,1063.3V936.1h29.9v127.2L309.7,1063.3L309.7,1063.3z"/>
			<path id="XMLID_1363_" class="st1" d="M114.2,926.3c14.6,0,26.5-11.9,26.5-26.5c0-5.2-1.5-10.1-4.1-14.2l33.6-33.6
				c4.1,2.6,9,4.1,14.2,4.1s10.1-1.5,14.2-4.1l33.7,33.7c-2.6,4.1-4.1,9-4.1,14.2c0,14.6,11.9,26.5,26.5,26.5
				c14.6,0,26.5-11.9,26.5-26.5c0-5.2-1.5-10.1-4.1-14.2l33.7-33.7c4.1,2.6,9,4.1,14.2,4.1c14.6,0,26.5-11.9,26.5-26.5
				s-11.9-26.5-26.5-26.5s-26.5,11.9-26.5,26.5c0,5.2,1.5,10.1,4.1,14.2L269,877.4c-4.1-2.6-9-4.1-14.2-4.1s-10.1,1.5-14.2,4.1
				L207,843.8c2.6-4.1,4.1-9,4.1-14.2c0-14.6-11.9-26.5-26.5-26.5s-26.5,11.9-26.5,26.5c0,5.2,1.5,10.1,4.1,14.2l-33.6,33.6
				c-4.1-2.6-9-4.1-14.2-4.1c-14.6,0-26.5,11.9-26.5,26.5S99.6,926.3,114.2,926.3z M324.6,814.8c8.2,0,15,6.7,15,15s-6.7,15-15,15
				c-8.2,0-15-6.7-15-15S316.4,814.8,324.6,814.8z M269.4,899.9c0,8.2-6.7,15-15,15s-15-6.7-15-15s6.7-15,15-15
				C262.7,884.9,269.4,891.6,269.4,899.9z M184.3,814.8c8.2,0,15,6.7,15,15s-6.7,15-15,15s-15-6.7-15-15S176.1,814.8,184.3,814.8z
				 M114.2,884.9c8.2,0,15,6.7,15,15s-6.7,15-15,15s-15-6.7-15-15S105.9,884.9,114.2,884.9z"/>
			<path id="XMLID_1403_" class="st1" d="M205.1,993.9c-1.5,0-3,0.6-4.1,1.7s-1.7,2.5-1.7,4.1c0,1.5,0.6,3,1.7,4.1
				c1.1,1.1,2.6,1.7,4.1,1.7s3-0.6,4.1-1.7s1.7-2.6,1.7-4.1s-0.6-3-1.7-4.1C208.1,994.6,206.6,993.9,205.1,993.9z"/>
		</g>
	</g>
	<g>
		<g>
			<g>
				<path class="st1" d="M281.3,1462.7c-24-24-55.8-37.2-89.7-37.2s-65.7,13.2-89.7,37.2c-1.8,1.8-1.8,4.7,0,6.5s4.7,1.8,6.5,0
					c22.2-22.2,51.7-34.4,83.2-34.4c31.4,0,61,12.2,83.2,34.4c22.2,22.2,34.4,51.7,34.4,83.2s-12.2,61-34.4,83.2
					c-45.9,45.9-120.5,45.9-166.3,0c-19.4-19.4-31.4-45-33.9-72.2c-2.5-26.9,4.3-53.9,19.2-76.2c1.4-2.1,0.8-5-1.3-6.4
					c-2.1-1.4-5-0.8-6.4,1.3c-16.1,24-23.4,53.2-20.7,82.2c2.7,29.3,15.7,57,36.6,77.9c24.7,24.7,57.2,37.1,89.7,37.1
					s65-12.4,89.7-37.1c24-24,37.2-55.8,37.2-89.7C318.5,1518.5,305.3,1486.6,281.3,1462.7z"/>
			</g>
		</g>
		<g>
			<g>
				<path class="st1" d="M264.4,1479.6c-40.1-40.1-105.4-40.1-145.5,0s-40.1,105.4,0,145.5c20.1,20.1,46.4,30.1,72.7,30.1
					s52.7-10,72.7-30.1C304.5,1585,304.5,1519.7,264.4,1479.6z M257.8,1618.6c-36.5,36.5-95.9,36.5-132.4,0s-36.5-95.9,0-132.4
					c18.3-18.3,42.2-27.4,66.2-27.4s48,9.1,66.2,27.4C294.3,1522.7,294.3,1582.1,257.8,1618.6z"/>
			</g>
		</g>
		<g>
			<g>
				<path class="st1" d="M337,1407c-49.5-49.5-129.9-49.5-179.4,0c-3,3-5.9,6.2-8.5,9.4c-1.6,2-1.3,4.9,0.6,6.5
					c2,1.6,4.9,1.3,6.5-0.6c2.5-3,5.1-6,7.9-8.8c45.9-45.9,120.5-45.9,166.3,0c45.9,45.9,45.9,120.5,0,166.3
					c-2.8,2.8-5.7,5.5-8.8,7.9c-2,1.6-2.3,4.5-0.6,6.5c0.9,1.1,2.2,1.7,3.6,1.7c1,0,2.1-0.3,2.9-1c3.3-2.7,6.4-5.5,9.4-8.5
					C386.4,1537,386.4,1456.5,337,1407z"/>
			</g>
		</g>
		<g>
			<g>
				<path class="st1" d="M346.2,1468.3c-0.7-2.5-3.3-3.9-5.7-3.2c-2.5,0.7-3.9,3.3-3.2,5.7c7.4,25.9,3.4,53.7-11,76.2
					c-1.4,2.2-0.7,5,1.4,6.4c0.8,0.5,1.6,0.7,2.5,0.7c1.5,0,3-0.8,3.9-2.1C349.9,1527.2,354.3,1496.7,346.2,1468.3z"/>
			</g>
		</g>
		<g>
			<g>
				<path class="st1" d="M338.7,1449.6c-4.9-9.4-11.2-18-18.7-25.6c-16.7-16.7-38.7-27.2-62.1-29.6c-23.1-2.4-46.5,3.1-65.9,15.6
					c-2.2,1.4-2.8,4.2-1.4,6.4c1.4,2.2,4.2,2.8,6.4,1.4c17.7-11.3,39-16.3,60-14.2c21.3,2.2,41.4,11.8,56.6,26.9
					c6.9,6.9,12.6,14.7,17,23.3c0.8,1.6,2.4,2.5,4.1,2.5c0.7,0,1.4-0.2,2.1-0.5C339,1454.6,339.9,1451.8,338.7,1449.6z"/>
			</g>
		</g>
		<g>
			<g>
				<path class="st1" d="M196.2,1548v-38.2c11,1.7,19.3,9.5,19.3,18.8c0,2.6,2.1,4.6,4.6,4.6c2.6,0,4.6-2.1,4.6-4.6
					c0-14.3-12.4-26.2-28.5-28.1v-5.2c0-2.6-2.1-4.6-4.6-4.6c-2.6,0-4.6,2.1-4.6,4.6v5.2c-16.1,1.9-28.5,13.8-28.5,28.1
					s12.4,26.2,28.5,28.1v38.2c-11-1.7-19.3-9.5-19.3-18.8c0-2.6-2.1-4.6-4.6-4.6c-2.6,0-4.6,2.1-4.6,4.6
					c0,14.3,12.4,26.2,28.5,28.1v5.2c0,2.6,2.1,4.6,4.6,4.6c2.6,0,4.6-2.1,4.6-4.6v-5.2c16.1-1.9,28.5-13.8,28.5-28.1
					C224.8,1561.8,212.3,1550,196.2,1548z M187,1547.4c-11-1.7-19.3-9.5-19.3-18.8s8.3-17.1,19.3-18.8V1547.4z M196.2,1595v-37.6
					c11,1.7,19.3,9.5,19.3,18.8C215.5,1585.5,207.2,1593.2,196.2,1595z"/>
			</g>
		</g>
	</g>
	<g>
		<path class="st1" d="M130,440.3c-3.9,0-7.6,1-10.9,2.8c-17.4-22.2-26.9-49.9-26.9-78.2c0-70.1,57.1-127.2,127.2-127.2
			c8.5,0,17,0.8,25.3,2.5c2.9,0.6,5.8-1.3,6.3-4.2c0.6-2.9-1.3-5.8-4.2-6.4c-9-1.8-18.2-2.7-27.5-2.7c-36.9,0-71.5,14.4-97.6,40.4
			c-26.1,26.1-40.4,60.7-40.4,97.6c0,31,10.5,61.3,29.7,85.5c-2.5,3.7-3.8,8-3.8,12.6c0,6,2.4,11.7,6.6,16c4.3,4.3,10,6.6,16,6.6
			c6,0,11.7-2.4,16-6.6c4.3-4.3,6.6-10,6.6-16s-2.4-11.7-6.6-16C141.7,442.6,136,440.3,130,440.3z M138.4,471.3
			c-2.2,2.2-5.2,3.5-8.4,3.5s-6.1-1.2-8.4-3.5c-2.2-2.2-3.5-5.2-3.5-8.4c0-3.2,1.2-6.1,3.5-8.4c2.2-2.2,5.2-3.5,8.4-3.5
			c3.2,0,6.1,1.2,8.4,3.5c2.2,2.2,3.5,5.2,3.5,8.4C141.8,466.1,140.6,469,138.4,471.3z"/>
		<path class="st1" d="M327.7,279.3c5.9-8.8,4.9-20.8-2.8-28.6c-4.3-4.3-10-6.6-16-6.6s-11.7,2.4-16,6.6c-4.3,4.3-6.6,10-6.6,16
			s2.4,11.7,6.6,16s10,6.6,16,6.6c3.9,0,7.6-1,10.9-2.8c17.4,22.3,26.9,49.9,26.9,78.2c0,70.1-57.1,127.2-127.2,127.2
			c-8.4,0-16.9-0.8-25.1-2.5c-2.9-0.6-5.8,1.3-6.3,4.2c-0.6,2.9,1.3,5.8,4.2,6.3c8.9,1.8,18.1,2.7,27.2,2.7
			c36.9,0,71.5-14.4,97.6-40.4c26.1-26.1,40.4-60.7,40.4-97.6C357.4,333.8,346.9,303.6,327.7,279.3z M300.5,275.2
			c-2.2-2.2-3.5-5.2-3.5-8.4c0-3.2,1.2-6.1,3.5-8.4c2.2-2.2,5.2-3.5,8.4-3.5s6.1,1.2,8.4,3.5c4.6,4.6,4.6,12.1,0,16.8
			c-2.2,2.2-5.2,3.5-8.4,3.5C305.7,278.6,302.7,277.4,300.5,275.2z"/>
		<path class="st1" d="M197.2,457.5c0,3,2.4,5.4,5.4,5.4h33.7c3,0,5.4-2.4,5.4-5.4v-10.4c7.1-1.9,13.9-4.7,20.2-8.4l7.4,7.4
			c1,1,2.4,1.6,3.8,1.6s2.8-0.6,3.8-1.6l23.8-23.8c2.1-2.1,2.1-5.5,0-7.6l-7.4-7.4c3.7-6.4,6.5-13.1,8.4-20.2h10.4
			c3,0,5.4-2.4,5.4-5.4V348c0-3-2.4-5.4-5.4-5.4h-10.4c-1.9-7.1-4.7-13.9-8.4-20.2l7.3-7.3c1-1,1.6-2.4,1.6-3.8s-0.6-2.8-1.6-3.8
			l-23.8-23.8c-2.1-2.1-5.5-2.1-7.6,0l-7.3,7.3c-6.4-3.7-13.1-6.5-20.2-8.4v-10.4c0-3-2.4-5.4-5.4-5.4h-33.7c-3,0-5.4,2.4-5.4,5.4
			v10.4c-7.1,1.9-13.9,4.7-20.2,8.4l-7.3-7.3c-2.1-2.1-5.5-2.1-7.6,0l-23.8,23.8c-1,1-1.6,2.4-1.6,3.8s0.6,2.8,1.6,3.8l7.3,7.3
			c-3.7,6.4-6.5,13.1-8.4,20.2h-10.4c-3,0-5.4,2.4-5.4,5.4v33.7c0,1.4,0.6,2.8,1.6,3.8s2.4,1.6,3.8,1.6h10.4
			c1.9,7.1,4.7,13.9,8.4,20.2l-7.4,7.4c-2.1,2.1-2.1,5.5,0,7.6l23.8,23.8c1,1,2.4,1.6,3.8,1.6l0,0c1.4,0,2.8-0.6,3.8-1.6l7.4-7.4
			c6.4,3.7,13.1,6.5,20.2,8.4L197.2,457.5L197.2,457.5z M179.1,427.4c-2.1-1.4-4.9-1.1-6.7,0.7l-6.6,6.6l-16.2-16.2l6.6-6.6
			c1.8-1.8,2.1-4.6,0.7-6.7c-4.9-7.6-8.3-15.9-10.2-24.6c-0.5-2.5-2.7-4.3-5.3-4.3h-9.3v-22.9h9.2c2.5,0,4.7-1.8,5.3-4.3
			c1.9-8.8,5.3-17.1,10.2-24.6c1.4-2.1,1.1-4.9-0.7-6.7l-6.5-6.5l16.2-16.2l6.5,6.5c1.8,1.8,4.6,2.1,6.7,0.7
			c7.6-4.9,15.8-8.3,24.6-10.2c2.5-0.5,4.3-2.7,4.3-5.3v-9.2h22.9v9.2c0,2.5,1.8,4.7,4.3,5.3c8.8,1.9,17.1,5.3,24.6,10.2
			c2.1,1.4,4.9,1.1,6.7-0.7l6.5-6.5l16.2,16.2l-6.5,6.5c-1.8,1.8-2.1,4.6-0.7,6.7c4.9,7.6,8.3,15.9,10.2,24.6
			c0.5,2.5,2.7,4.3,5.3,4.3h9.3v22.9h-9.3c-2.5,0-4.7,1.8-5.3,4.3c-1.9,8.8-5.3,17.1-10.2,24.6c-1.4,2.1-1.1,4.9,0.7,6.7l6.6,6.6
			L273,434.7l-6.6-6.6c-1.8-1.8-4.6-2.1-6.7-0.7c-7.6,4.9-15.9,8.3-24.6,10.2c-2.5,0.5-4.3,2.7-4.3,5.3v9.3H208v-9.3
			c0-2.5-1.8-4.7-4.3-5.3C194.9,435.7,186.6,432.3,179.1,427.4z"/>
		<path class="st1" d="M264,364.8c0-24.6-20-44.5-44.5-44.5s-44.5,20-44.5,44.5c0,24.6,20,44.5,44.5,44.5S264,389.4,264,364.8z
			 M185.7,364.8c0-18.6,15.1-33.8,33.8-33.8s33.8,15.1,33.8,33.8c0,18.6-15.1,33.8-33.8,33.8S185.7,383.5,185.7,364.8z"/>
		<path class="st1" d="M269,247.3c1.4,0,2.8-0.6,3.8-1.6s1.6-2.4,1.6-3.8c0-1.4-0.6-2.8-1.6-3.8s-2.4-1.6-3.8-1.6s-2.8,0.6-3.8,1.6
			s-1.6,2.4-1.6,3.8c0,1.4,0.6,2.8,1.6,3.8S267.6,247.3,269,247.3z"/>
		<path class="st1" d="M170,482.5c-1.4,0-2.8,0.6-3.8,1.6s-1.6,2.4-1.6,3.8s0.6,2.8,1.6,3.8s2.4,1.6,3.8,1.6c1.4,0,2.8-0.6,3.8-1.6
			s1.6-2.4,1.6-3.8s-0.6-2.8-1.6-3.8S171.4,482.5,170,482.5z"/>
	</g>
	<g id="XMLID_1_">
		<g id="XMLID_2_">
			<path id="XMLID_5_" class="st1" d="M1197.9,1648.8h-9.8v-132.9c0-3.2-2.6-5.8-5.8-5.8h-41.4c-3.2,0-5.8,2.6-5.8,5.8v132.9h-17.2
				v-80.7c0-3.2-2.6-5.8-5.8-5.8h-41.4c-3.2,0-5.8,2.6-5.8,5.8v80.7h-17.2v-37.7c0-3.2-2.6-5.8-5.8-5.8s-5.8,2.6-5.8,5.8v37.7h-29.9
				v-127.2h29.9v37.7c0,3.2,2.6,5.8,5.8,5.8s5.8-2.6,5.8-5.8v-43.4c0-3.2-2.6-5.8-5.8-5.8h-41.4c-3.2,0-5.8,2.6-5.8,5.8v132.9h-17.2
				v-80.7c0-3.2-2.6-5.8-5.8-5.8h-41.4c-3.2,0-5.8,2.6-5.8,5.8v80.7h-9.8c-3.2,0-5.8,2.6-5.8,5.8s2.6,5.8,5.8,5.8h283
				c3.2,0,5.8-2.6,5.8-5.8S1201.1,1648.8,1197.9,1648.8z M936.2,1648.8v-75h29.9v75H936.2z M1076.5,1648.8v-75h29.9v75H1076.5z
				 M1146.6,1648.8v-127.2h29.9v127.2H1146.6z"/>
			<path id="XMLID_4_" class="st1" d="M951.1,1511.9c14.6,0,26.5-11.9,26.5-26.5c0-5.2-1.5-10.1-4.1-14.2l33.6-33.6
				c4.1,2.6,9,4.1,14.2,4.1s10.1-1.5,14.2-4.1l33.7,33.7c-2.6,4.1-4.1,9-4.1,14.2c0,14.6,11.9,26.5,26.5,26.5s26.5-11.9,26.5-26.5
				c0-5.2-1.5-10.1-4.1-14.2l33.7-33.7c4.1,2.6,9,4.1,14.2,4.1c14.6,0,26.5-11.9,26.5-26.5s-11.9-26.5-26.5-26.5
				s-26.5,11.9-26.5,26.5c0,5.2,1.5,10.1,4.1,14.2l-33.6,33.6c-4.1-2.6-9-4.1-14.2-4.1s-10.1,1.5-14.2,4.1l-33.6-33.6
				c2.6-4.1,4.1-9,4.1-14.2c0-14.6-11.9-26.5-26.5-26.5s-26.5,11.9-26.5,26.5c0,5.2,1.5,10.1,4.1,14.2l-33.6,33.6
				c-4.1-2.6-9-4.1-14.2-4.1c-14.6,0-26.5,11.9-26.5,26.5S936.6,1511.9,951.1,1511.9z M1161.6,1400.3c8.2,0,15,6.7,15,15
				c0,8.2-6.7,15-15,15c-8.2,0-15-6.7-15-15S1153.3,1400.3,1161.6,1400.3z M1106.4,1485.4c0,8.2-6.7,15-15,15c-8.2,0-15-6.7-15-15
				c0-8.2,6.7-15,15-15C1099.7,1470.5,1106.4,1477.2,1106.4,1485.4z M1021.3,1400.3c8.2,0,15,6.7,15,15c0,8.2-6.7,15-15,15
				c-8.2,0-15-6.7-15-15C1006.3,1407,1013,1400.3,1021.3,1400.3z M951.1,1470.4c8.2,0,15,6.7,15,15c0,8.2-6.7,15-15,15
				s-15-6.7-15-15C936.2,1477.2,942.9,1470.4,951.1,1470.4z"/>
			<path id="XMLID_3_" class="st1" d="M1042,1579.5c-1.5,0-3,0.6-4.1,1.7s-1.7,2.5-1.7,4.1c0,1.5,0.6,3,1.7,4.1s2.6,1.7,4.1,1.7
				s3-0.6,4.1-1.7s1.7-2.6,1.7-4.1s-0.6-3-1.7-4.1S1043.5,1579.5,1042,1579.5z"/>
		</g>
	</g>
	<g>
		<g>
			<g>
				<path class="st1" d="M1118.3,303c-24-24-55.8-37.2-89.7-37.2c-33.9,0-65.7,13.2-89.7,37.2c-1.8,1.8-1.8,4.7,0,6.5s4.7,1.8,6.5,0
					c22.2-22.2,51.7-34.4,83.2-34.4c31.4,0,61,12.2,83.2,34.4c22.2,22.2,34.4,51.7,34.4,83.2s-12.2,61-34.4,83.2
					c-45.9,45.9-120.5,45.9-166.3,0c-19.4-19.4-31.4-45-33.9-72.2c-2.5-26.9,4.3-53.9,19.2-76.2c1.4-2.1,0.8-5-1.3-6.4
					s-5-0.8-6.4,1.3c-16.1,24-23.4,53.2-20.7,82.2c2.7,29.3,15.7,57,36.6,77.9c24.7,24.7,57.2,37.1,89.7,37.1
					c32.5,0,65-12.4,89.7-37.1c24-24,37.2-55.8,37.2-89.7C1155.4,358.8,1142.2,326.9,1118.3,303z"/>
			</g>
		</g>
		<g>
			<g>
				<path class="st1" d="M1101.3,319.9c-40.1-40.1-105.4-40.1-145.5,0s-40.1,105.4,0,145.5c20.1,20.1,46.4,30.1,72.7,30.1
					c26.3,0,52.7-10,72.7-30.1C1141.4,425.3,1141.4,360,1101.3,319.9z M1094.8,458.9c-36.5,36.5-95.9,36.5-132.4,0
					s-36.5-95.9,0-132.4c18.3-18.3,42.2-27.4,66.2-27.4c24,0,48,9.1,66.2,27.4C1131.3,363,1131.3,422.4,1094.8,458.9z"/>
			</g>
		</g>
		<g>
			<g>
				<path class="st1" d="M1173.9,247.3c-49.5-49.5-129.9-49.5-179.4,0c-3,3-5.9,6.2-8.5,9.4c-1.6,2-1.3,4.9,0.6,6.5
					c2,1.6,4.9,1.3,6.5-0.6c2.5-3,5.1-6,7.9-8.8c45.9-45.9,120.5-45.9,166.3,0c45.9,45.9,45.9,120.5,0,166.3
					c-2.8,2.8-5.7,5.5-8.8,7.9c-2,1.6-2.3,4.5-0.6,6.5c0.9,1.1,2.2,1.7,3.6,1.7c1,0,2.1-0.3,2.9-1c3.3-2.7,6.4-5.5,9.4-8.5
					C1223.4,377.2,1223.4,296.8,1173.9,247.3z"/>
			</g>
		</g>
		<g>
			<g>
				<path class="st1" d="M1183.1,308.6c-0.7-2.5-3.3-3.9-5.7-3.2c-2.5,0.7-3.9,3.3-3.2,5.7c7.4,25.9,3.4,53.7-11,76.2
					c-1.4,2.2-0.7,5,1.4,6.4c0.8,0.5,1.6,0.7,2.5,0.7c1.5,0,3-0.8,3.9-2.1C1186.9,367.5,1191.3,337,1183.1,308.6z"/>
			</g>
		</g>
		<g>
			<g>
				<path class="st1" d="M1175.7,289.8c-4.9-9.4-11.2-18-18.7-25.6c-16.7-16.7-38.7-27.2-62.1-29.6c-23.1-2.4-46.5,3.1-65.9,15.6
					c-2.2,1.4-2.8,4.2-1.4,6.4c1.4,2.2,4.2,2.8,6.4,1.4c17.7-11.3,39-16.3,60-14.2c21.3,2.2,41.4,11.8,56.6,26.9
					c6.9,6.9,12.6,14.7,17,23.3c0.8,1.6,2.4,2.5,4.1,2.5c0.7,0,1.4-0.2,2.1-0.5C1176,294.9,1176.9,292.1,1175.7,289.8z"/>
			</g>
		</g>
		<g>
			<g>
				<path class="st1" d="M1033.2,388.3v-38.2c11,1.7,19.3,9.5,19.3,18.8c0,2.6,2.1,4.6,4.6,4.6c2.6,0,4.6-2.1,4.6-4.6
					c0-14.3-12.4-26.2-28.5-28.1v-5.2c0-2.6-2.1-4.6-4.6-4.6c-2.6,0-4.6,2.1-4.6,4.6v5.2c-16.1,1.9-28.5,13.8-28.5,28.1
					c0,14.3,12.4,26.2,28.5,28.1v38.2c-11-1.7-19.3-9.5-19.3-18.8c0-2.6-2.1-4.6-4.6-4.6c-2.6,0-4.6,2.1-4.6,4.6
					c0,14.3,12.4,26.2,28.5,28.1v5.2c0,2.6,2.1,4.6,4.6,4.6c2.6,0,4.6-2.1,4.6-4.6v-5.2c16.1-1.9,28.5-13.8,28.5-28.1
					C1061.7,402.1,1049.3,390.3,1033.2,388.3z M1023.9,387.7c-11-1.7-19.3-9.5-19.3-18.8s8.3-17.1,19.3-18.8V387.7z M1033.2,435.3
					v-37.6c11,1.7,19.3,9.5,19.3,18.8C1052.5,425.8,1044.2,433.5,1033.2,435.3z"/>
			</g>
		</g>
	</g>
	<g>
		<path class="st1" d="M966.9,1014.4c-3.9,0-7.6,1-10.9,2.8c-17.4-22.2-26.9-49.9-26.9-78.2c0-70.1,57.1-127.2,127.2-127.2
			c8.5,0,17,0.8,25.3,2.5c2.9,0.6,5.8-1.3,6.3-4.2c0.6-2.9-1.3-5.8-4.2-6.4c-9-1.8-18.2-2.7-27.5-2.7c-36.9,0-71.5,14.4-97.6,40.4
			c-26.1,26.1-40.4,60.7-40.4,97.6c0,31,10.5,61.3,29.7,85.5c-2.5,3.7-3.8,8-3.8,12.6c0,6,2.4,11.7,6.6,16c4.3,4.3,10,6.6,16,6.6
			s11.7-2.4,16-6.6c4.3-4.3,6.6-10,6.6-16s-2.4-11.7-6.6-16C978.7,1016.8,973,1014.4,966.9,1014.4z M975.3,1045.5
			c-2.2,2.2-5.2,3.5-8.4,3.5s-6.1-1.2-8.4-3.5c-2.2-2.2-3.5-5.2-3.5-8.4c0-3.2,1.2-6.1,3.5-8.4c2.2-2.2,5.2-3.5,8.4-3.5
			s6.1,1.2,8.4,3.5c2.2,2.2,3.5,5.2,3.5,8.4C978.8,1040.2,977.6,1043.2,975.3,1045.5z"/>
		<path class="st1" d="M1164.6,853.5c5.9-8.8,4.9-20.8-2.8-28.6c-4.3-4.3-10-6.6-16-6.6s-11.7,2.4-16,6.6c-4.3,4.3-6.6,10-6.6,16
			s2.4,11.7,6.6,16c4.3,4.3,10,6.6,16,6.6c3.9,0,7.6-1,10.9-2.8c17.4,22.3,26.9,49.9,26.9,78.2c0,70.1-57.1,127.2-127.2,127.2
			c-8.4,0-16.9-0.8-25.1-2.5c-2.9-0.6-5.8,1.3-6.3,4.2c-0.6,2.9,1.3,5.8,4.2,6.3c8.9,1.8,18.1,2.7,27.2,2.7
			c36.9,0,71.5-14.4,97.6-40.4c26.1-26.1,40.4-60.7,40.4-97.6C1194.3,908,1183.8,877.8,1164.6,853.5z M1137.4,849.3
			c-2.2-2.2-3.5-5.2-3.5-8.4s1.2-6.1,3.5-8.4c2.2-2.2,5.2-3.5,8.4-3.5c3.2,0,6.1,1.2,8.4,3.5c4.6,4.6,4.6,12.1,0,16.8
			c-2.2,2.2-5.2,3.5-8.4,3.5C1142.6,852.8,1139.7,851.6,1137.4,849.3z"/>
		<path class="st1" d="M1034.1,1031.7c0,3,2.4,5.4,5.4,5.4h33.7c3,0,5.4-2.4,5.4-5.4v-10.4c7.1-1.9,13.9-4.7,20.2-8.4l7.4,7.4
			c1,1,2.4,1.6,3.8,1.6s2.8-0.6,3.8-1.6l23.8-23.8c2.1-2.1,2.1-5.5,0-7.6l-7.4-7.4c3.7-6.4,6.5-13.1,8.4-20.2h10.4
			c3,0,5.4-2.4,5.4-5.4v-33.7c0-3-2.4-5.4-5.4-5.4h-10.4c-1.9-7.1-4.7-13.9-8.4-20.2l7.3-7.3c1-1,1.6-2.4,1.6-3.8
			c0-1.4-0.6-2.8-1.6-3.8l-23.8-23.8c-2.1-2.1-5.5-2.1-7.6,0l-7.3,7.3c-6.4-3.7-13.1-6.5-20.2-8.4v-10.4c0-3-2.4-5.4-5.4-5.4h-33.7
			c-3,0-5.4,2.4-5.4,5.4v10.4c-7.1,1.9-13.9,4.7-20.2,8.4l-7.3-7.3c-2.1-2.1-5.5-2.1-7.6,0l-23.8,23.8c-1,1-1.6,2.4-1.6,3.8
			s0.6,2.8,1.6,3.8l7.3,7.3c-3.7,6.4-6.5,13.1-8.4,20.2h-10.4c-3,0-5.4,2.4-5.4,5.4v33.7c0,1.4,0.6,2.8,1.6,3.8s2.4,1.6,3.8,1.6
			h10.4c1.9,7.1,4.7,13.9,8.4,20.2l-7.4,7.4c-2.1,2.1-2.1,5.5,0,7.6l23.8,23.8c1,1,2.4,1.6,3.8,1.6l0,0c1.4,0,2.8-0.6,3.8-1.6
			l7.4-7.4c6.4,3.7,13.1,6.5,20.2,8.4V1031.7z M1016,1001.6c-2.1-1.4-4.9-1.1-6.7,0.7l-6.6,6.6l-16.2-16.2l6.6-6.6
			c1.8-1.8,2.1-4.6,0.7-6.7c-4.9-7.6-8.3-15.9-10.2-24.6c-0.5-2.5-2.7-4.3-5.3-4.3H969v-22.9h9.2c2.5,0,4.7-1.8,5.3-4.3
			c1.9-8.8,5.3-17.1,10.2-24.6c1.4-2.1,1.1-4.9-0.7-6.7l-6.5-6.5l16.2-16.2l6.5,6.5c1.8,1.8,4.6,2.1,6.7,0.7
			c7.6-4.9,15.8-8.3,24.6-10.2c2.5-0.5,4.3-2.7,4.3-5.3v-9.2h22.9v9.2c0,2.5,1.8,4.7,4.3,5.3c8.8,1.9,17.1,5.3,24.6,10.2
			c2.1,1.4,4.9,1.1,6.7-0.7l6.5-6.5l16.2,16.2l-6.5,6.5c-1.8,1.8-2.1,4.6-0.7,6.7c4.9,7.6,8.3,15.9,10.2,24.6
			c0.5,2.5,2.7,4.3,5.3,4.3h9.3v22.9h-9.3c-2.5,0-4.7,1.8-5.3,4.3c-1.9,8.8-5.3,17.1-10.2,24.6c-1.4,2.1-1.1,4.9,0.7,6.7l6.6,6.6
			l-16.2,16.2l-6.6-6.6c-1.8-1.8-4.6-2.1-6.7-0.7c-7.6,4.9-15.9,8.3-24.6,10.2c-2.5,0.5-4.3,2.7-4.3,5.3v9.3h-22.9v-9.3
			c0-2.5-1.8-4.7-4.3-5.3C1031.9,1009.9,1023.6,1006.4,1016,1001.6z"/>
		<path class="st1" d="M1100.9,939c0-24.6-20-44.5-44.5-44.5c-24.6,0-44.5,20-44.5,44.5c0,24.6,20,44.5,44.5,44.5
			C1080.9,983.6,1100.9,963.6,1100.9,939z M1022.6,939c0-18.6,15.1-33.8,33.8-33.8c18.6,0,33.8,15.1,33.8,33.8
			c0,18.6-15.1,33.8-33.8,33.8C1037.8,972.8,1022.6,957.6,1022.6,939z"/>
		<path class="st1" d="M1106,821.4c1.4,0,2.8-0.6,3.8-1.6s1.6-2.4,1.6-3.8c0-1.4-0.6-2.8-1.6-3.8s-2.4-1.6-3.8-1.6s-2.8,0.6-3.8,1.6
			s-1.6,2.4-1.6,3.8c0,1.4,0.6,2.8,1.6,3.8C1103.2,820.9,1104.6,821.4,1106,821.4z"/>
		<path class="st1" d="M1007,1056.7c-1.4,0-2.8,0.6-3.8,1.6s-1.6,2.4-1.6,3.8s0.6,2.8,1.6,3.8s2.4,1.6,3.8,1.6
			c1.4,0,2.8-0.6,3.8-1.6s1.6-2.4,1.6-3.8s-0.6-2.8-1.6-3.8C1009.8,1057.3,1008.4,1056.7,1007,1056.7z"/>
	</g>
	<g id="XMLID_6_">
		<g id="XMLID_7_">
			<path id="XMLID_10_" class="st1" d="M1955.4,489.1h-9.8V356.2c0-3.2-2.6-5.8-5.8-5.8h-41.4c-3.2,0-5.8,2.6-5.8,5.8v132.9h-17.2
				v-80.7c0-3.2-2.6-5.8-5.8-5.8h-41.4c-3.2,0-5.8,2.6-5.8,5.8v80.7h-17.2v-37.7c0-3.2-2.6-5.8-5.8-5.8c-3.2,0-5.8,2.6-5.8,5.8v37.7
				h-29.9V361.9h29.9v37.7c0,3.2,2.6,5.8,5.8,5.8c3.2,0,5.8-2.6,5.8-5.8v-43.4c0-3.2-2.6-5.8-5.8-5.8H1758c-3.2,0-5.8,2.6-5.8,5.8
				v132.9H1735v-80.7c0-3.2-2.6-5.8-5.8-5.8H1688c-3.2,0-5.8,2.6-5.8,5.8v80.7h-9.8c-3.2,0-5.8,2.6-5.8,5.8s2.6,5.8,5.8,5.8h283
				c3.2,0,5.8-2.6,5.8-5.8S1958.6,489.1,1955.4,489.1z M1693.8,489.1v-75h29.9v75H1693.8z M1834.1,489.1v-75h29.9v75H1834.1z
				 M1904.2,489.1V361.9h29.9v127.2L1904.2,489.1L1904.2,489.1z"/>
			<path id="XMLID_9_" class="st1" d="M1708.7,352.2c14.6,0,26.5-11.9,26.5-26.5c0-5.2-1.5-10.1-4.1-14.2l33.6-33.6
				c4.1,2.6,9,4.1,14.2,4.1s10.1-1.5,14.2-4.1l33.7,33.7c-2.6,4.1-4.1,9-4.1,14.2c0,14.6,11.9,26.5,26.5,26.5s26.5-11.9,26.5-26.5
				c0-5.2-1.5-10.1-4.1-14.2l33.7-33.7c4.1,2.6,9,4.1,14.2,4.1c14.6,0,26.5-11.9,26.5-26.5s-11.9-26.5-26.5-26.5
				s-26.5,11.9-26.5,26.5c0,5.2,1.5,10.1,4.1,14.2l-33.6,33.6c-4.1-2.6-9-4.1-14.2-4.1s-10.1,1.5-14.2,4.1l-33.6-33.6
				c2.6-4.1,4.1-9,4.1-14.2c0-14.6-11.9-26.5-26.5-26.5s-26.5,11.9-26.5,26.5c0,5.2,1.5,10.1,4.1,14.2l-33.6,33.6
				c-4.1-2.6-9-4.1-14.2-4.1c-14.6,0-26.5,11.9-26.5,26.5C1682.3,340.3,1694.1,352.2,1708.7,352.2z M1919.2,240.6
				c8.2,0,15,6.7,15,15c0,8.3-6.7,15-15,15c-8.2,0-15-6.7-15-15S1910.9,240.6,1919.2,240.6z M1864,325.7c0,8.2-6.7,15-15,15
				c-8.2,0-15-6.7-15-15s6.7-15,15-15C1857.3,310.8,1864,317.5,1864,325.7z M1778.9,240.6c8.2,0,15,6.7,15,15c0,8.3-6.7,15-15,15
				c-8.2,0-15-6.7-15-15S1770.6,240.6,1778.9,240.6z M1708.7,310.7c8.2,0,15,6.7,15,15s-6.7,15-15,15c-8.2,0-15-6.7-15-15
				S1700.5,310.7,1708.7,310.7z"/>
			<path id="XMLID_8_" class="st1" d="M1799.6,419.8c-1.5,0-3,0.6-4.1,1.7s-1.7,2.5-1.7,4.1c0,1.5,0.6,3,1.7,4.1s2.6,1.7,4.1,1.7
				s3-0.6,4.1-1.7s1.7-2.6,1.7-4.1s-0.6-3-1.7-4.1S1801.1,419.8,1799.6,419.8z"/>
		</g>
	</g>
	<g>
		<g>
			<g>
				<path class="st1" d="M1875.8,877.2c-24-24-55.8-37.2-89.7-37.2c-33.9,0-65.7,13.2-89.7,37.2c-1.8,1.8-1.8,4.7,0,6.5
					s4.7,1.8,6.5,0c22.2-22.2,51.7-34.4,83.2-34.4c31.4,0,61,12.2,83.2,34.4s34.4,51.7,34.4,83.2c0,31.4-12.2,61-34.4,83.2
					c-45.9,45.9-120.5,45.9-166.3,0c-19.4-19.4-31.4-45-33.9-72.2c-2.5-26.9,4.3-53.9,19.2-76.2c1.4-2.1,0.8-5-1.3-6.4
					c-2.1-1.4-5-0.8-6.4,1.3c-16.1,24-23.4,53.2-20.7,82.2c2.7,29.3,15.7,57,36.6,77.9c24.7,24.7,57.2,37.1,89.7,37.1
					s65-12.4,89.7-37.1c24-24,37.2-55.8,37.2-89.7C1913,933,1899.8,901.1,1875.8,877.2z"/>
			</g>
		</g>
		<g>
			<g>
				<path class="st1" d="M1858.9,894.1c-40.1-40.1-105.4-40.1-145.5,0s-40.1,105.4,0,145.5c20.1,20.1,46.4,30.1,72.7,30.1
					c26.3,0,52.7-10,72.7-30.1C1899,999.5,1899,934.2,1858.9,894.1z M1852.3,1033.1c-36.5,36.5-95.9,36.5-132.4,0
					s-36.5-95.9,0-132.4c18.3-18.3,42.2-27.4,66.2-27.4s48,9.1,66.2,27.4C1888.9,937.2,1888.9,996.6,1852.3,1033.1z"/>
			</g>
		</g>
		<g>
			<g>
				<path class="st1" d="M1931.5,821.5c-49.5-49.5-129.9-49.5-179.4,0c-3,3-5.9,6.2-8.5,9.4c-1.6,2-1.3,4.9,0.6,6.5s4.9,1.3,6.5-0.6
					c2.5-3,5.1-6,7.9-8.8c45.9-45.9,120.5-45.9,166.3,0c45.9,45.9,45.9,120.5,0,166.3c-2.8,2.8-5.7,5.5-8.8,7.9
					c-2,1.6-2.3,4.5-0.6,6.5c0.9,1.1,2.2,1.7,3.6,1.7c1,0,2.1-0.3,2.9-1c3.3-2.7,6.4-5.5,9.4-8.5
					C1981,951.4,1981,870.9,1931.5,821.5z"/>
			</g>
		</g>
		<g>
			<g>
				<path class="st1" d="M1940.7,882.7c-0.7-2.5-3.3-3.9-5.7-3.2c-2.5,0.7-3.9,3.3-3.2,5.7c7.4,25.9,3.4,53.7-11,76.2
					c-1.4,2.2-0.7,5,1.4,6.4c0.8,0.5,1.6,0.7,2.5,0.7c1.5,0,3-0.8,3.9-2.1C1944.4,941.7,1948.8,911.2,1940.7,882.7z"/>
			</g>
		</g>
		<g>
			<g>
				<path class="st1" d="M1933.3,864c-4.9-9.4-11.2-18-18.7-25.6c-16.7-16.7-38.7-27.2-62.1-29.6c-23.1-2.4-46.5,3.1-65.9,15.6
					c-2.2,1.4-2.8,4.2-1.4,6.4s4.2,2.8,6.4,1.4c17.7-11.3,39-16.3,60-14.2c21.3,2.2,41.4,11.8,56.6,26.9c6.9,6.9,12.6,14.7,17,23.3
					c0.8,1.6,2.4,2.5,4.1,2.5c0.7,0,1.4-0.2,2.1-0.5C1933.5,869.1,1934.4,866.3,1933.3,864z"/>
			</g>
		</g>
		<g>
			<g>
				<path class="st1" d="M1790.7,962.5v-38.2c11,1.7,19.3,9.5,19.3,18.8c0,2.6,2.1,4.6,4.6,4.6c2.6,0,4.6-2.1,4.6-4.6
					c0-14.3-12.4-26.2-28.5-28.1v-5.2c0-2.6-2.1-4.6-4.6-4.6c-2.6,0-4.6,2.1-4.6,4.6v5.2c-16.1,1.9-28.5,13.8-28.5,28.1
					s12.4,26.2,28.5,28.1v38.2c-11-1.7-19.3-9.5-19.3-18.8c0-2.6-2.1-4.6-4.6-4.6s-4.6,2.1-4.6,4.6c0,14.3,12.4,26.2,28.5,28.1v5.2
					c0,2.6,2.1,4.6,4.6,4.6c2.6,0,4.6-2.1,4.6-4.6v-5.2c16.1-1.9,28.5-13.8,28.5-28.1C1819.3,976.3,1806.9,964.5,1790.7,962.5z
					 M1781.5,961.9c-11-1.7-19.3-9.5-19.3-18.8s8.3-17.1,19.3-18.8V961.9z M1790.7,1009.4v-37.6c11,1.7,19.3,9.5,19.3,18.8
					S1801.7,1007.7,1790.7,1009.4z"/>
			</g>
		</g>
	</g>
	<g>
		<path class="st1" d="M1724.5,1600c-3.9,0-7.6,1-10.9,2.8c-17.4-22.2-26.9-49.9-26.9-78.2c0-70.1,57.1-127.2,127.2-127.2
			c8.5,0,17,0.8,25.3,2.5c2.9,0.6,5.8-1.3,6.3-4.2c0.6-2.9-1.3-5.8-4.2-6.4c-9-1.8-18.2-2.7-27.5-2.7c-36.9,0-71.5,14.4-97.6,40.4
			c-26.1,26.1-40.4,60.7-40.4,97.6c0,31,10.5,61.3,29.7,85.5c-2.5,3.7-3.8,8-3.8,12.6c0,6,2.4,11.7,6.6,16c4.3,4.3,10,6.6,16,6.6
			s11.7-2.4,16-6.6c4.3-4.3,6.6-10,6.6-16s-2.4-11.7-6.6-16C1736.2,1602.3,1730.5,1600,1724.5,1600z M1732.9,1631
			c-2.2,2.2-5.2,3.5-8.4,3.5s-6.1-1.2-8.4-3.5c-2.2-2.2-3.5-5.2-3.5-8.4c0-3.2,1.2-6.1,3.5-8.4c2.2-2.2,5.2-3.5,8.4-3.5
			s6.1,1.2,8.4,3.5c2.2,2.2,3.5,5.2,3.5,8.4S1735.1,1628.8,1732.9,1631z"/>
		<path class="st1" d="M1922.2,1439c5.9-8.8,4.9-20.8-2.8-28.6c-4.3-4.3-10-6.6-16-6.6s-11.7,2.4-16,6.6c-4.3,4.3-6.6,10-6.6,16
			s2.4,11.7,6.6,16c4.3,4.3,10,6.6,16,6.6c3.9,0,7.6-1,10.9-2.8c17.4,22.3,26.9,49.9,26.9,78.2c0,70.1-57.1,127.2-127.2,127.2
			c-8.4,0-16.9-0.8-25.1-2.5c-2.9-0.6-5.8,1.3-6.3,4.2c-0.6,2.9,1.3,5.8,4.2,6.3c8.9,1.8,18.1,2.7,27.2,2.7
			c36.9,0,71.5-14.4,97.6-40.4c26.1-26.1,40.4-60.7,40.4-97.6C1951.9,1493.5,1941.4,1463.3,1922.2,1439z M1895,1434.9
			c-2.2-2.2-3.5-5.2-3.5-8.4c0-3.2,1.2-6.1,3.5-8.4c2.2-2.2,5.2-3.5,8.4-3.5c3.2,0,6.1,1.2,8.4,3.5c4.6,4.6,4.6,12.1,0,16.8
			c-2.2,2.2-5.2,3.5-8.4,3.5C1900.2,1438.3,1897.2,1437.1,1895,1434.9z"/>
		<path class="st1" d="M1791.7,1617.2c0,3,2.4,5.4,5.4,5.4h33.7c3,0,5.4-2.4,5.4-5.4v-10.4c7.1-1.9,13.9-4.7,20.2-8.4l7.4,7.4
			c1,1,2.4,1.6,3.8,1.6s2.8-0.6,3.8-1.6l23.8-23.8c2.1-2.1,2.1-5.5,0-7.6l-7.4-7.4c3.7-6.4,6.5-13.1,8.4-20.2h10.4
			c3,0,5.4-2.4,5.4-5.4v-33.7c0-3-2.4-5.4-5.4-5.4h-10.4c-1.9-7.1-4.7-13.9-8.4-20.2l7.3-7.3c1-1,1.6-2.4,1.6-3.8s-0.6-2.8-1.6-3.8
			l-23.8-23.8c-2.1-2.1-5.5-2.1-7.6,0l-7.3,7.3c-6.4-3.7-13.1-6.5-20.2-8.4v-10.4c0-3-2.4-5.4-5.4-5.4h-33.7c-3,0-5.4,2.4-5.4,5.4
			v10.4c-7.1,1.9-13.9,4.7-20.2,8.4l-7.3-7.3c-2.1-2.1-5.5-2.1-7.6,0l-23.8,23.8c-1,1-1.6,2.4-1.6,3.8s0.6,2.8,1.6,3.8l7.3,7.3
			c-3.7,6.4-6.5,13.1-8.4,20.2h-10.4c-3,0-5.4,2.4-5.4,5.4v33.7c0,1.4,0.6,2.8,1.6,3.8s2.4,1.6,3.8,1.6h10.4
			c1.9,7.1,4.7,13.9,8.4,20.2l-7.4,7.4c-2.1,2.1-2.1,5.5,0,7.6l23.8,23.8c1,1,2.4,1.6,3.8,1.6l0,0c1.4,0,2.8-0.6,3.8-1.6l7.4-7.4
			c6.4,3.7,13.1,6.5,20.2,8.4L1791.7,1617.2L1791.7,1617.2z M1773.6,1587.1c-2.1-1.4-4.9-1.1-6.7,0.7l-6.6,6.6l-16.2-16.2l6.6-6.6
			c1.8-1.8,2.1-4.6,0.7-6.7c-4.9-7.6-8.3-15.9-10.2-24.6c-0.5-2.5-2.7-4.3-5.3-4.3h-9.3v-22.9h9.2c2.5,0,4.7-1.8,5.3-4.3
			c1.9-8.8,5.3-17.1,10.2-24.6c1.4-2.1,1.1-4.9-0.7-6.7l-6.5-6.5l16.2-16.2l6.5,6.5c1.8,1.8,4.6,2.1,6.7,0.7
			c7.6-4.9,15.8-8.3,24.6-10.2c2.5-0.5,4.3-2.7,4.3-5.3v-9.2h22.9v9.2c0,2.5,1.8,4.7,4.3,5.3c8.8,1.9,17.1,5.3,24.6,10.2
			c2.1,1.4,4.9,1.1,6.7-0.7l6.5-6.5l16.2,16.2l-6.5,6.5c-1.8,1.8-2.1,4.6-0.7,6.7c4.9,7.6,8.3,15.9,10.2,24.6
			c0.5,2.5,2.7,4.3,5.3,4.3h9.3v22.9h-9.3c-2.5,0-4.7,1.8-5.3,4.3c-1.9,8.8-5.3,17.1-10.2,24.6c-1.4,2.1-1.1,4.9,0.7,6.7l6.6,6.6
			l-16.2,16.2l-6.6-6.6c-1.8-1.8-4.6-2.1-6.7-0.7c-7.6,4.9-15.9,8.3-24.6,10.2c-2.5,0.5-4.3,2.7-4.3,5.3v9.3h-22.9v-9.3
			c0-2.5-1.8-4.7-4.3-5.3C1789.4,1595.4,1781.1,1592,1773.6,1587.1z"/>
		<path class="st1" d="M1858.5,1524.5c0-24.6-20-44.5-44.5-44.5c-24.6,0-44.5,20-44.5,44.5c0,24.6,20,44.5,44.5,44.5
			C1838.5,1569.1,1858.5,1549.1,1858.5,1524.5z M1780.2,1524.5c0-18.6,15.1-33.8,33.8-33.8c18.6,0,33.8,15.1,33.8,33.8
			c0,18.6-15.1,33.8-33.8,33.8C1795.3,1558.3,1780.2,1543.2,1780.2,1524.5z"/>
		<path class="st1" d="M1863.6,1407c1.4,0,2.8-0.6,3.8-1.6s1.6-2.4,1.6-3.8s-0.6-2.8-1.6-3.8s-2.4-1.6-3.8-1.6s-2.8,0.6-3.8,1.6
			s-1.6,2.4-1.6,3.8s0.6,2.8,1.6,3.8C1860.8,1406.4,1862.1,1407,1863.6,1407z"/>
		<path class="st1" d="M1764.5,1642.2c-1.4,0-2.8,0.6-3.8,1.6s-1.6,2.4-1.6,3.8s0.6,2.8,1.6,3.8s2.4,1.6,3.8,1.6s2.8-0.6,3.8-1.6
			s1.6-2.4,1.6-3.8s-0.6-2.8-1.6-3.8C1767.4,1642.8,1766,1642.2,1764.5,1642.2z"/>
	</g>
	<g>
		<path class="st1" d="M632.7,528.8c3.3,0,6-2.7,6-6v-27c0-3.3-2.7-6-6-6s-6,2.7-6,6v27C626.6,526.1,629.3,528.8,632.7,528.8
			L632.7,528.8z"/>
		<path class="st1" d="M780.5,697.5l-10.7-10.7c-3.8-3.8-8.9-5.9-14.3-5.9c-3.5,0-6.8,0.9-9.7,2.5l-20.1-20.1l1-1
			c8.2-8.2,8.2-21.5,0-29.6c-2.9-2.9-6.6-4.9-10.5-5.7c0.5-1.9,0.8-3.9,0.8-5.9c0-5.6-2.2-10.9-6.1-14.8c-2.9-2.9-6.6-4.9-10.5-5.7
			c0.5-1.9,0.8-3.9,0.8-5.9c0-5.6-2.2-10.9-6.1-14.8c-3-3-6.7-4.9-10.5-5.7c2.1-7.1,0.3-15.1-5.3-20.7c-4.7-4.6-11-6.6-17.1-6
			l-39.9-7.6c-6.1-1.2-13.7-1.9-18.5,2.5c-0.3,0.3-0.6,0.6-0.9,0.9c-7.4-2.7-16.1-1.1-22.1,4.9c-4,3.9-6.1,9.2-6.1,14.8
			c0,2,0.3,4,0.8,5.9c-4,0.8-7.6,2.8-10.5,5.7c-4,3.9-6.1,9.2-6.1,14.8c0,2,0.3,4,0.8,5.9c-4,0.8-7.6,2.8-10.5,5.7
			c-4,4-6.1,9.2-6.1,14.8c0,4.3,1.3,8.4,3.7,11.9c-3,1-5.8,2.7-8.1,5c-8.2,8.2-8.2,21.5,0,29.7l1,1l-20.1,20.1
			c-7.5-3.5-16.7-2.2-22.9,4L485.9,698c-3.8,3.8-5.9,8.9-5.9,14.3c0,5.4,2.1,10.5,5.9,14.3l13.3,13.3c2.4,2.4,6.2,2.4,8.6,0
			s2.4-6.2,0-8.6L494.4,718c-1.5-1.5-2.3-3.5-2.3-5.7s0.8-4.2,2.3-5.7l10.7-10.7c2.7-2.7,6.8-3.1,9.9-1.2c0.2,0.3,0.5,0.6,0.8,0.9
			c0.5,0.5,1.1,0.9,1.7,1.2l61.3,61.2c0.3,0.6,0.7,1.2,1.2,1.8c0.5,0.5,1.1,0.9,1.7,1.2c1.3,1.5,2,3.3,2,5.3c0,2.2-0.8,4.2-2.3,5.7
			l-10.7,10.7c-3.2,3.1-8.3,3.1-11.4,0L546,769.4c-2.4-2.4-6.2-2.4-8.6,0c-2.4,2.4-2.4,6.2,0,8.6l13.4,13.4
			c3.9,3.9,9.1,5.9,14.3,5.9s10.3-2,14.3-5.9l10.7-10.7c3.8-3.8,5.9-8.9,5.9-14.3c0-3.9-1.1-7.5-3.1-10.7l22.7-22.6c0,0,0,0,0.1-0.1
			c2.6-2.7,9.8-2.2,16.8-1.7c5,0.3,10.5,0.7,15.9,0.1l24.8,24.8c-1.6,2.9-2.5,6.2-2.5,9.7c0,5.4,2.1,10.5,5.9,14.3l10.7,10.7
			c3.8,3.8,8.9,5.9,14.3,5.9c5.4,0,10.5-2.1,14.3-5.9l64.8-64.7c3.8-3.8,5.9-8.9,5.9-14.3C786.4,706.3,784.3,701.3,780.5,697.5
			L780.5,697.5z M620,551.8l26.2,5l-15.7,15.7c-2.4-1.2-5.8-3.3-9.4-6.8c-5-4.8-8.6-10.3-8.9-13.7l0,0l0,0c0-0.2,0-0.4,0-0.6
			C613,551.1,615.1,550.9,620,551.8L620,551.8z M589.3,556.7c3.1-3.1,7.8-3.4,11.3-1.1c2,8.2,9,15.7,12.1,18.7
			c2.3,2.2,9.8,9,17.4,10.8c1,1.5,1.6,3.2,1.6,5.1c0,2.4-0.9,4.6-2.6,6.3c-1.7,1.7-3.9,2.6-6.3,2.6c-2.4,0-4.6-0.9-6.3-2.6l0,0l0,0
			l-27.3-27.2c-1.7-1.7-2.6-3.9-2.6-6.3C586.8,560.6,587.7,558.4,589.3,556.7L589.3,556.7z M573.5,583.1c1.7-1.7,3.9-2.6,6.3-2.6
			c2.4,0,4.6,0.9,6.3,2.6l22,21.9c3.5,3.5,3.5,9.1,0,12.6c-1.7,1.7-3.9,2.6-6.3,2.6s-4.6-0.9-6.3-2.6l0,0L578.8,601
			c0,0-0.1,0-0.1-0.1l-5.2-5.2c-1.7-1.7-2.6-3.9-2.6-6.3C570.9,587,571.8,584.8,573.5,583.1L573.5,583.1z M557.7,609.5
			c1.7-1.7,3.9-2.6,6.3-2.6c2.4,0,4.6,0.9,6.2,2.5l16.7,16.7c1.7,1.7,2.6,3.9,2.6,6.3c0,2.4-0.9,4.6-2.6,6.3
			c-1.7,1.7-3.9,2.6-6.3,2.6c-2.4,0-4.6-0.9-6.3-2.6l-6.1-6.1l0,0L557.6,622c-1.7-1.7-2.6-3.9-2.6-6.3
			C555.1,613.4,556,611.2,557.7,609.5L557.7,609.5z M547.2,641.2c1.7-1.7,3.9-2.6,6.3-2.6c2.4,0,4.6,0.9,6.3,2.6l6.1,6.1
			c1.7,1.7,2.6,3.9,2.6,6.3s-0.9,4.6-2.6,6.3c-1.7,1.7-3.9,2.6-6.3,2.6c-2.4,0-4.6-0.9-6.3-2.6l-0.8-0.8l0,0l0,0l-5.2-5.2
			C543.7,650.3,543.7,644.7,547.2,641.2L547.2,641.2z M670.4,709.9c-2.4-2.4-6.2-2.4-8.6,0l-5.4,5.4c-5.1,5.1-14.4,4.5-23.3,3.8
			c-9.7-0.7-19.8-1.4-26.3,5.3l-22.3,22.2L528.8,691l19.7-19.7c3.3,2,7,3.1,11,3.1c5.6,0,10.9-2.2,14.8-6.1c4-3.9,6.1-9.2,6.1-14.8
			c0-0.1,0-0.1,0-0.2c0.1,0,0.1,0,0.2,0c5.6,0,10.9-2.2,14.8-6.1c4-3.9,6.1-9.2,6.1-14.8c0-0.1,0-0.1,0-0.2c0.1,0,0.1,0,0.2,0
			c5.6,0,10.9-2.2,14.8-6.1c4.1-4.1,6.2-9.6,6.1-15c0.1,0,0.1,0,0.2,0c5.6,0,10.9-2.2,14.8-6.1c4-3.9,6.1-9.2,6.1-14.8
			c0-3.9-1.1-7.7-3.1-10.9l17.3-17.3c1.3-1.3,2.9-2.1,4.5-2.4c0.2,0,0.4,0,0.5-0.1c2.7-0.4,5.5,0.5,7.5,2.5c3.5,3.5,3.5,9.1,0,12.6
			l-5.3,5.2c0,0,0,0-0.1,0.1l-6.1,6.1c-2.4,2.4-2.4,6.2,0,8.6c2.4,2.4,6.2,2.4,8.6,0l5.3-5.3l0,0l0.8-0.8c3.5-3.4,9.1-3.4,12.5,0
			c1.7,1.7,2.6,3.9,2.6,6.3c0,2.4-0.9,4.6-2.6,6.3l-5.3,5.3l0,0l-6.1,6c-2.4,2.4-2.4,6.2,0,8.6c2.4,2.4,6.2,2.4,8.6,0l6.1-6.1
			c1.7-1.7,3.9-2.6,6.3-2.6c2.4,0,4.6,0.9,6.3,2.6c1.7,1.7,2.6,3.9,2.6,6.3c0,2.4-0.9,4.6-2.6,6.3l-10.6,10.6
			c-2.4,2.4-2.4,6.2,0,8.6c1.2,1.2,2.7,1.8,4.3,1.8c1.5,0,3.1-0.6,4.3-1.8l5.2-5.2l0.1-0.1c1.7-1.7,3.9-2.6,6.3-2.6
			c2.4,0,4.6,0.9,6.3,2.6c3.5,3.5,3.5,9.1,0,12.5l-5.3,5.3l0,0l0,0l-8.3,8.3c-2.4,2.4-2.4,6.2,0,8.6c1.2,1.2,2.7,1.8,4.3,1.8
			c1.5,0,3.1-0.6,4.3-1.8l4.1-4.1l19.6,19.5L681,747l-20-19.9c1.4-0.9,2.7-1.9,4-3.2l5.4-5.4C672.8,716.1,672.8,712.3,670.4,709.9
			L670.4,709.9z M771.9,717.4l-64.8,64.7c-1.5,1.5-3.5,2.3-5.7,2.3s-4.2-0.8-5.7-2.3L685,771.5c-1.5-1.5-2.3-3.5-2.3-5.7
			s0.8-4.2,2.3-5.7l64.8-64.7c1.5-1.5,3.5-2.3,5.7-2.3s4.2,0.8,5.7,2.4l10.7,10.7c1.5,1.5,2.3,3.5,2.3,5.7
			C774.3,713.9,773.4,715.9,771.9,717.4z"/>
		<path class="st1" d="M552.4,523.7c1.2,1.2,2.7,1.8,4.3,1.8c1.5,0,3.1-0.6,4.3-1.8c2.4-2.4,2.4-6.2,0-8.6l-22-22
			c-2.4-2.4-6.2-2.4-8.6,0c-2.4,2.4-2.4,6.2,0,8.6L552.4,523.7z"/>
		<path class="st1" d="M708.7,525.4c1.5,0,3.1-0.6,4.3-1.8l22-22c2.4-2.4,2.4-6.2,0-8.6s-6.2-2.4-8.6,0l-22,22
			c-2.4,2.4-2.4,6.2,0,8.6C705.6,524.8,707.1,525.4,708.7,525.4z"/>
		<path class="st1" d="M517.2,749.8c-2.3,2.4-2.3,6.2,0.1,8.6l0,0c1.2,1.2,2.7,1.7,4.2,1.7c1.6,0,3.1-0.6,4.3-1.8
			c2.3-2.4,2.3-6.2-0.1-8.6C523.4,747.4,519.5,747.4,517.2,749.8z"/>
		<path class="st1" d="M685.2,701.2c0.9,0,1.9-0.2,2.7-0.7c3-1.5,4.2-5.1,2.7-8.1s-5.1-4.2-8.1-2.7l0,0c-3,1.5-4.2,5.1-2.7,8.1
			C680.8,700,683,701.2,685.2,701.2L685.2,701.2z"/>
	</g>
	<g>
		<path class="st1" d="M632.7,1122.8c3.3,0,6-2.7,6-6v-27c0-3.3-2.7-6-6-6s-6,2.7-6,6v27C626.6,1120.1,629.3,1122.8,632.7,1122.8
			L632.7,1122.8z"/>
		<path class="st1" d="M780.5,1291.5l-10.7-10.7c-3.8-3.8-8.9-5.9-14.3-5.9c-3.5,0-6.8,0.9-9.7,2.5l-20.1-20.1l1-1
			c8.2-8.2,8.2-21.5,0-29.6c-2.9-2.9-6.6-4.9-10.5-5.7c0.5-1.9,0.8-3.9,0.8-5.9c0-5.6-2.2-10.9-6.1-14.8c-2.9-2.9-6.6-4.9-10.5-5.7
			c0.5-1.9,0.8-3.9,0.8-5.9c0-5.6-2.2-10.9-6.1-14.8c-3-3-6.7-4.9-10.5-5.7c2.1-7.1,0.3-15.1-5.3-20.7c-4.7-4.6-11-6.6-17.1-6
			l-39.9-7.6c-6.1-1.2-13.7-1.9-18.5,2.5c-0.3,0.3-0.6,0.6-0.9,0.9c-7.4-2.7-16.1-1.1-22.1,4.9c-4,3.9-6.1,9.2-6.1,14.8
			c0,2,0.3,4,0.8,5.9c-4,0.8-7.6,2.8-10.5,5.7c-4,3.9-6.1,9.2-6.1,14.8c0,2,0.3,4,0.8,5.9c-4,0.8-7.6,2.8-10.5,5.7
			c-4,4-6.1,9.2-6.1,14.8c0,4.3,1.3,8.4,3.7,11.9c-3,1-5.8,2.7-8.1,5c-8.2,8.2-8.2,21.5,0,29.7l1,1l-20.1,20.1
			c-7.5-3.5-16.7-2.2-22.9,4l-10.7,10.7c-3.8,3.8-5.9,8.9-5.9,14.3s2.1,10.5,5.9,14.3l13.3,13.3c2.4,2.4,6.2,2.4,8.6,0
			s2.4-6.2,0-8.6l-13.3-13.3c-1.5-1.5-2.3-3.5-2.3-5.7s0.8-4.2,2.3-5.7l10.7-10.7c2.7-2.7,6.8-3.1,9.9-1.2c0.2,0.3,0.5,0.6,0.8,0.9
			c0.5,0.5,1.1,0.9,1.7,1.2l61.3,61.2c0.3,0.6,0.7,1.2,1.2,1.8c0.5,0.5,1.1,0.9,1.7,1.2c1.3,1.5,2,3.3,2,5.3c0,2.2-0.8,4.2-2.3,5.7
			l-10.7,10.7c-3.2,3.1-8.3,3.1-11.4,0l-13.3-13.3c-2.4-2.4-6.2-2.4-8.6,0c-2.4,2.4-2.4,6.2,0,8.6l13.4,13.4
			c3.9,3.9,9.1,5.9,14.3,5.9s10.3-2,14.3-5.9l10.7-10.7c3.8-3.8,5.9-8.9,5.9-14.3c0-3.9-1.1-7.5-3.1-10.7l22.7-22.6c0,0,0,0,0.1-0.1
			c2.6-2.7,9.8-2.2,16.8-1.7c5,0.3,10.5,0.7,15.9,0.1l24.8,24.8c-1.6,2.9-2.5,6.2-2.5,9.7c0,5.4,2.1,10.5,5.9,14.3l10.7,10.7
			c3.8,3.8,8.9,5.9,14.3,5.9c5.4,0,10.5-2.1,14.3-5.9l64.8-64.7c3.8-3.8,5.9-8.9,5.9-14.3C786.4,1300.4,784.3,1295.3,780.5,1291.5
			L780.5,1291.5z M620,1145.9l26.2,5l-15.7,15.7c-2.4-1.2-5.8-3.3-9.4-6.8c-5-4.8-8.6-10.3-8.9-13.7l0,0l0,0c0-0.2,0-0.4,0-0.6
			C613,1145.2,615.1,1144.9,620,1145.9L620,1145.9z M589.3,1150.8c3.1-3.1,7.8-3.4,11.3-1.1c2,8.2,9,15.7,12.1,18.7
			c2.3,2.2,9.8,9,17.4,10.8c1,1.5,1.6,3.2,1.6,5.1c0,2.4-0.9,4.6-2.6,6.3c-1.7,1.7-3.9,2.6-6.3,2.6c-2.4,0-4.6-0.9-6.3-2.6l0,0l0,0
			l-27.3-27.2c-1.7-1.7-2.6-3.9-2.6-6.3C586.8,1154.7,587.7,1152.5,589.3,1150.8L589.3,1150.8z M573.5,1177.2
			c1.7-1.7,3.9-2.6,6.3-2.6c2.4,0,4.6,0.9,6.3,2.6l22,21.9c3.5,3.5,3.5,9.1,0,12.6c-1.7,1.7-3.9,2.6-6.3,2.6s-4.6-0.9-6.3-2.6l0,0
			l-16.7-16.7c0,0-0.1,0-0.1-0.1l-5.2-5.2c-1.7-1.7-2.6-3.9-2.6-6.3C570.9,1181.1,571.8,1178.9,573.5,1177.2L573.5,1177.2z
			 M557.7,1203.6c1.7-1.7,3.9-2.6,6.3-2.6c2.4,0,4.6,0.9,6.2,2.5l16.7,16.7c1.7,1.7,2.6,3.9,2.6,6.3s-0.9,4.6-2.6,6.3
			c-1.7,1.7-3.9,2.6-6.3,2.6c-2.4,0-4.6-0.9-6.3-2.6l-6.1-6.1l0,0l-10.6-10.6c-1.7-1.7-2.6-3.9-2.6-6.3
			C555.1,1207.5,556,1205.2,557.7,1203.6L557.7,1203.6z M547.2,1235.3c1.7-1.7,3.9-2.6,6.3-2.6c2.4,0,4.6,0.9,6.3,2.6l6.1,6.1
			c1.7,1.7,2.6,3.9,2.6,6.3s-0.9,4.6-2.6,6.3c-1.7,1.7-3.9,2.6-6.3,2.6c-2.4,0-4.6-0.9-6.3-2.6l-0.8-0.8l0,0l0,0l-5.2-5.2
			C543.7,1244.3,543.7,1238.7,547.2,1235.3L547.2,1235.3z M670.4,1304c-2.4-2.4-6.2-2.4-8.6,0l-5.4,5.4c-5.1,5.1-14.4,4.5-23.3,3.8
			c-9.7-0.7-19.8-1.4-26.3,5.3l-22.3,22.2l-55.7-55.6l19.7-19.7c3.3,2,7,3.1,11,3.1c5.6,0,10.9-2.2,14.8-6.1c4-3.9,6.1-9.2,6.1-14.8
			c0-0.1,0-0.1,0-0.2c0.1,0,0.1,0,0.2,0c5.6,0,10.9-2.2,14.8-6.1c4-3.9,6.1-9.2,6.1-14.8c0-0.1,0-0.1,0-0.2c0.1,0,0.1,0,0.2,0
			c5.6,0,10.9-2.2,14.8-6.1c4.1-4.1,6.2-9.6,6.1-15c0.1,0,0.1,0,0.2,0c5.6,0,10.9-2.2,14.8-6.1c4-3.9,6.1-9.2,6.1-14.8
			c0-3.9-1.1-7.7-3.1-10.9l17.3-17.3c1.3-1.3,2.9-2.1,4.5-2.4c0.2,0,0.4,0,0.5-0.1c2.7-0.4,5.5,0.5,7.5,2.5c3.5,3.5,3.5,9.1,0,12.6
			l-5.3,5.2c0,0,0,0-0.1,0.1l-6.1,6.1c-2.4,2.4-2.4,6.2,0,8.6s6.2,2.4,8.6,0l5.3-5.3l0,0l0.8-0.8c3.5-3.4,9.1-3.4,12.5,0
			c1.7,1.7,2.6,3.9,2.6,6.3s-0.9,4.6-2.6,6.3l-5.3,5.3l0,0l-6.1,6c-2.4,2.4-2.4,6.2,0,8.6s6.2,2.4,8.6,0l6.1-6.1
			c1.7-1.7,3.9-2.6,6.3-2.6c2.4,0,4.6,0.9,6.3,2.6s2.6,3.9,2.6,6.3s-0.9,4.6-2.6,6.3l-10.6,10.6c-2.4,2.4-2.4,6.2,0,8.6
			c1.2,1.2,2.7,1.8,4.3,1.8c1.5,0,3.1-0.6,4.3-1.8l5.2-5.2l0.1-0.1c1.7-1.7,3.9-2.6,6.3-2.6c2.4,0,4.6,0.9,6.3,2.6
			c3.5,3.5,3.5,9.1,0,12.5l-5.3,5.3l0,0l0,0l-8.3,8.3c-2.4,2.4-2.4,6.2,0,8.6c1.2,1.2,2.7,1.8,4.3,1.8c1.5,0,3.1-0.6,4.3-1.8
			l4.1-4.1l19.6,19.5l-55.7,55.6l-20-19.9c1.4-0.9,2.7-1.9,4-3.2l5.4-5.4C672.8,1310.2,672.8,1306.4,670.4,1304L670.4,1304z
			 M771.9,1311.5l-64.8,64.7c-1.5,1.5-3.5,2.3-5.7,2.3s-4.2-0.8-5.7-2.3l-10.7-10.7c-1.5-1.5-2.3-3.5-2.3-5.7s0.8-4.2,2.3-5.7
			l64.8-64.7c1.5-1.5,3.5-2.3,5.7-2.3s4.2,0.8,5.7,2.4l10.7,10.7c1.5,1.5,2.3,3.5,2.3,5.7C774.3,1308,773.4,1310,771.9,1311.5z"/>
		<path class="st1" d="M552.4,1117.7c1.2,1.2,2.7,1.8,4.3,1.8c1.5,0,3.1-0.6,4.3-1.8c2.4-2.4,2.4-6.2,0-8.6l-22-22
			c-2.4-2.4-6.2-2.4-8.6,0c-2.4,2.4-2.4,6.2,0,8.6L552.4,1117.7z"/>
		<path class="st1" d="M708.7,1119.5c1.5,0,3.1-0.6,4.3-1.8l22-22c2.4-2.4,2.4-6.2,0-8.6s-6.2-2.4-8.6,0l-22,22
			c-2.4,2.4-2.4,6.2,0,8.6C705.6,1118.9,707.1,1119.5,708.7,1119.5z"/>
		<path class="st1" d="M517.2,1343.9c-2.3,2.4-2.3,6.2,0.1,8.6l0,0c1.2,1.2,2.7,1.7,4.2,1.7c1.6,0,3.1-0.6,4.3-1.8
			c2.3-2.4,2.3-6.2-0.1-8.6C523.4,1341.5,519.5,1341.5,517.2,1343.9z"/>
		<path class="st1" d="M685.2,1295.3c0.9,0,1.9-0.2,2.7-0.7c3-1.5,4.2-5.1,2.7-8.1s-5.1-4.2-8.1-2.7l0,0c-3,1.5-4.2,5.1-2.7,8.1
			C680.8,1294.1,683,1295.3,685.2,1295.3L685.2,1295.3z"/>
	</g>
	<g>
		<path class="st1" d="M1460.1,528.8c3.3,0,6-2.7,6-6v-27c0-3.3-2.7-6-6-6s-6,2.7-6,6v27C1454,526.1,1456.7,528.8,1460.1,528.8
			L1460.1,528.8z"/>
		<path class="st1" d="M1607.9,697.5l-10.7-10.7c-3.8-3.8-8.9-5.9-14.3-5.9c-3.5,0-6.8,0.9-9.7,2.5l-20.1-20.1l1-1
			c8.2-8.2,8.2-21.5,0-29.6c-2.9-2.9-6.6-4.9-10.5-5.7c0.5-1.9,0.8-3.9,0.8-5.9c0-5.6-2.2-10.9-6.1-14.8c-2.9-2.9-6.6-4.9-10.5-5.7
			c0.5-1.9,0.8-3.9,0.8-5.9c0-5.6-2.2-10.9-6.1-14.8c-3-3-6.7-4.9-10.5-5.7c2.1-7.1,0.3-15.1-5.3-20.7c-4.7-4.6-11-6.6-17.1-6
			l-39.9-7.6c-6.1-1.2-13.7-1.9-18.5,2.5c-0.3,0.3-0.6,0.6-0.9,0.9c-7.4-2.7-16.1-1.1-22.1,4.9c-4,3.9-6.1,9.2-6.1,14.8
			c0,2,0.3,4,0.8,5.9c-4,0.8-7.6,2.8-10.5,5.7c-4,3.9-6.1,9.2-6.1,14.8c0,2,0.3,4,0.8,5.9c-4,0.8-7.6,2.8-10.5,5.7
			c-4,4-6.1,9.2-6.1,14.8c0,4.3,1.3,8.4,3.7,11.9c-3,1-5.8,2.7-8.1,5c-8.2,8.2-8.2,21.5,0,29.7l1,1l-20.1,20.1
			c-7.5-3.5-16.7-2.2-22.9,4l-10.7,10.7c-3.8,3.8-5.9,8.9-5.9,14.3c0,5.4,2.1,10.5,5.9,14.3l13.3,13.3c2.4,2.4,6.2,2.4,8.6,0
			s2.4-6.2,0-8.6l-13.3-13.3c-1.5-1.5-2.3-3.5-2.3-5.7s0.8-4.2,2.3-5.7l10.7-10.7c2.7-2.7,6.8-3.1,9.9-1.2c0.2,0.3,0.5,0.6,0.8,0.9
			c0.5,0.5,1.1,0.9,1.7,1.2l61.3,61.2c0.3,0.6,0.7,1.2,1.2,1.8c0.5,0.5,1.1,0.9,1.7,1.2c1.3,1.5,2,3.3,2,5.3c0,2.2-0.8,4.2-2.3,5.7
			l-10.7,10.7c-3.2,3.1-8.3,3.1-11.4,0l-13.3-13.3c-2.4-2.4-6.2-2.4-8.6,0s-2.4,6.2,0,8.6l13.4,13.4c3.9,3.9,9.1,5.9,14.3,5.9
			c5.2,0,10.3-2,14.3-5.9l10.7-10.7c3.8-3.8,5.9-8.9,5.9-14.3c0-3.9-1.1-7.5-3.1-10.7l22.7-22.6c0,0,0,0,0.1-0.1
			c2.6-2.7,9.8-2.2,16.8-1.7c5,0.3,10.5,0.7,15.9,0.1l24.8,24.8c-1.6,2.9-2.5,6.2-2.5,9.7c0,5.4,2.1,10.5,5.9,14.3l10.7,10.7
			c3.8,3.8,8.9,5.9,14.3,5.9s10.5-2.1,14.3-5.9l64.8-64.7c3.8-3.8,5.9-8.9,5.9-14.3C1613.8,706.3,1611.7,701.3,1607.9,697.5
			L1607.9,697.5z M1447.4,551.8l26.2,5l-15.7,15.7c-2.4-1.2-5.8-3.3-9.4-6.8c-5-4.8-8.6-10.3-8.9-13.7l0,0l0,0c0-0.2,0-0.4,0-0.6
			C1440.4,551.1,1442.5,550.9,1447.4,551.8L1447.4,551.8z M1416.7,556.7c3.1-3.1,7.8-3.4,11.3-1.1c2,8.2,9,15.7,12.1,18.7
			c2.3,2.2,9.8,9,17.4,10.8c1,1.5,1.6,3.2,1.6,5.1c0,2.4-0.9,4.6-2.6,6.3s-3.9,2.6-6.3,2.6s-4.6-0.9-6.3-2.6l0,0l0,0l-27.3-27.2
			c-1.7-1.7-2.6-3.9-2.6-6.3C1414.2,560.6,1415.1,558.4,1416.7,556.7L1416.7,556.7z M1400.9,583.1c1.7-1.7,3.9-2.6,6.3-2.6
			s4.6,0.9,6.3,2.6l22,21.9c3.5,3.5,3.5,9.1,0,12.6c-1.7,1.7-3.9,2.6-6.3,2.6s-4.6-0.9-6.3-2.6l0,0l-16.7-16.7c0,0-0.1,0-0.1-0.1
			l-5.2-5.2c-1.7-1.7-2.6-3.9-2.6-6.3C1398.3,587,1399.3,584.8,1400.9,583.1L1400.9,583.1z M1385.1,609.5c1.7-1.7,3.9-2.6,6.3-2.6
			s4.6,0.9,6.2,2.5l16.7,16.7c1.7,1.7,2.6,3.9,2.6,6.3c0,2.4-0.9,4.6-2.6,6.3s-3.9,2.6-6.3,2.6s-4.6-0.9-6.3-2.6l-6.1-6.1l0,0
			L1385,622c-1.7-1.7-2.6-3.9-2.6-6.3C1382.5,613.4,1383.4,611.2,1385.1,609.5L1385.1,609.5z M1374.6,641.2c1.7-1.7,3.9-2.6,6.3-2.6
			s4.6,0.9,6.3,2.6l6.1,6.1c1.7,1.7,2.6,3.9,2.6,6.3s-0.9,4.6-2.6,6.3s-3.9,2.6-6.3,2.6s-4.6-0.9-6.3-2.6l-0.8-0.8l0,0l0,0l-5.2-5.2
			C1371.1,650.3,1371.1,644.7,1374.6,641.2L1374.6,641.2z M1497.8,709.9c-2.4-2.4-6.2-2.4-8.6,0l-5.4,5.4
			c-5.1,5.1-14.4,4.5-23.3,3.8c-9.7-0.7-19.8-1.4-26.3,5.3l-22.3,22.2l-55.7-55.6l19.7-19.7c3.3,2,7,3.1,11,3.1
			c5.6,0,10.9-2.2,14.8-6.1c4-3.9,6.1-9.2,6.1-14.8c0-0.1,0-0.1,0-0.2c0.1,0,0.1,0,0.2,0c5.6,0,10.9-2.2,14.8-6.1
			c4-3.9,6.1-9.2,6.1-14.8c0-0.1,0-0.1,0-0.2c0.1,0,0.1,0,0.2,0c5.6,0,10.9-2.2,14.8-6.1c4.1-4.1,6.2-9.6,6.1-15c0.1,0,0.1,0,0.2,0
			c5.6,0,10.9-2.2,14.8-6.1c4-3.9,6.1-9.2,6.1-14.8c0-3.9-1.1-7.7-3.1-10.9l17.3-17.3c1.3-1.3,2.9-2.1,4.5-2.4c0.2,0,0.4,0,0.5-0.1
			c2.7-0.4,5.5,0.5,7.5,2.5c3.5,3.5,3.5,9.1,0,12.6l-5.3,5.2c0,0,0,0-0.1,0.1l-6.1,6.1c-2.4,2.4-2.4,6.2,0,8.6
			c2.4,2.4,6.2,2.4,8.6,0l5.3-5.3l0,0l0.8-0.8c3.5-3.4,9.1-3.4,12.5,0c1.7,1.7,2.6,3.9,2.6,6.3c0,2.4-0.9,4.6-2.6,6.3l-5.3,5.3l0,0
			l-6.1,6c-2.4,2.4-2.4,6.2,0,8.6c2.4,2.4,6.2,2.4,8.6,0l6.1-6.1c1.7-1.7,3.9-2.6,6.3-2.6s4.6,0.9,6.3,2.6c1.7,1.7,2.6,3.9,2.6,6.3
			c0,2.4-0.9,4.6-2.6,6.3l-10.6,10.6c-2.4,2.4-2.4,6.2,0,8.6c1.2,1.2,2.7,1.8,4.3,1.8c1.5,0,3.1-0.6,4.3-1.8l5.2-5.2l0.1-0.1
			c1.7-1.7,3.9-2.6,6.3-2.6s4.6,0.9,6.3,2.6c3.5,3.5,3.5,9.1,0,12.5l-5.3,5.3l0,0l0,0l-8.3,8.3c-2.4,2.4-2.4,6.2,0,8.6
			c1.2,1.2,2.7,1.8,4.3,1.8c1.5,0,3.1-0.6,4.3-1.8l4.1-4.1l19.6,19.5l-55.7,55.6l-20-19.9c1.4-0.9,2.7-1.9,4-3.2l5.4-5.4
			C1500.2,716.1,1500.2,712.3,1497.8,709.9L1497.8,709.9z M1599.3,717.4l-64.8,64.7c-1.5,1.5-3.5,2.3-5.7,2.3s-4.2-0.8-5.7-2.3
			l-10.7-10.7c-1.5-1.5-2.3-3.5-2.3-5.7s0.8-4.2,2.3-5.7l64.8-64.7c1.5-1.5,3.5-2.3,5.7-2.3s4.2,0.8,5.7,2.4l10.7,10.7
			c1.5,1.5,2.3,3.5,2.3,5.7C1601.7,713.9,1600.9,715.9,1599.3,717.4z"/>
		<path class="st1" d="M1379.8,523.7c1.2,1.2,2.7,1.8,4.3,1.8c1.5,0,3.1-0.6,4.3-1.8c2.4-2.4,2.4-6.2,0-8.6l-22-22
			c-2.4-2.4-6.2-2.4-8.6,0s-2.4,6.2,0,8.6L1379.8,523.7z"/>
		<path class="st1" d="M1536.1,525.4c1.5,0,3.1-0.6,4.3-1.8l22-22c2.4-2.4,2.4-6.2,0-8.6s-6.2-2.4-8.6,0l-22,22
			c-2.4,2.4-2.4,6.2,0,8.6C1533,524.8,1534.5,525.4,1536.1,525.4z"/>
		<path class="st1" d="M1344.6,749.8c-2.3,2.4-2.3,6.2,0.1,8.6l0,0c1.2,1.2,2.7,1.7,4.2,1.7c1.6,0,3.1-0.6,4.3-1.8
			c2.3-2.4,2.3-6.2-0.1-8.6C1350.8,747.4,1346.9,747.4,1344.6,749.8z"/>
		<path class="st1" d="M1512.6,701.2c0.9,0,1.9-0.2,2.7-0.7c3-1.5,4.2-5.1,2.7-8.1s-5.1-4.2-8.1-2.7l0,0c-3,1.5-4.2,5.1-2.7,8.1
			C1508.3,700,1510.4,701.2,1512.6,701.2L1512.6,701.2z"/>
	</g>
	<g>
		<path class="st1" d="M2191,528.8c3.3,0,6-2.7,6-6v-27c0-3.3-2.7-6-6-6s-6,2.7-6,6v27C2184.9,526.1,2187.7,528.8,2191,528.8
			L2191,528.8z"/>
		<path class="st1" d="M2338.8,697.5l-10.7-10.7c-3.8-3.8-8.9-5.9-14.3-5.9c-3.5,0-6.8,0.9-9.7,2.5l-20.1-20.1l1-1
			c8.2-8.2,8.2-21.5,0-29.6c-2.9-2.9-6.6-4.9-10.5-5.7c0.5-1.9,0.8-3.9,0.8-5.9c0-5.6-2.2-10.9-6.1-14.8c-2.9-2.9-6.6-4.9-10.5-5.7
			c0.5-1.9,0.8-3.9,0.8-5.9c0-5.6-2.2-10.9-6.1-14.8c-3-3-6.7-4.9-10.5-5.7c2.1-7.1,0.3-15.1-5.3-20.7c-4.7-4.6-11-6.6-17.1-6
			l-39.9-7.6c-6.1-1.2-13.7-1.9-18.5,2.5c-0.3,0.3-0.6,0.6-0.9,0.9c-7.4-2.7-16.1-1.1-22.1,4.9c-4,3.9-6.1,9.2-6.1,14.8
			c0,2,0.3,4,0.8,5.9c-4,0.8-7.6,2.8-10.5,5.7c-4,3.9-6.1,9.2-6.1,14.8c0,2,0.3,4,0.8,5.9c-4,0.8-7.6,2.8-10.5,5.7
			c-4,4-6.1,9.2-6.1,14.8c0,4.3,1.3,8.4,3.7,11.9c-3,1-5.8,2.7-8.1,5c-8.2,8.2-8.2,21.5,0,29.7l1,1l-20.1,20.1
			c-7.5-3.5-16.7-2.2-22.9,4l-10.7,10.7c-3.8,3.8-5.9,8.9-5.9,14.3c0,5.4,2.1,10.5,5.9,14.3l13.3,13.3c2.4,2.4,6.2,2.4,8.6,0
			c2.4-2.4,2.4-6.2,0-8.6l-13.3-13.3c-1.5-1.5-2.3-3.5-2.3-5.7s0.8-4.2,2.3-5.7l10.7-10.7c2.7-2.7,6.8-3.1,9.9-1.2
			c0.2,0.3,0.5,0.6,0.8,0.9c0.5,0.5,1.1,0.9,1.7,1.2l61.3,61.2c0.3,0.6,0.7,1.2,1.2,1.8c0.5,0.5,1.1,0.9,1.7,1.2
			c1.3,1.5,2,3.3,2,5.3c0,2.2-0.8,4.2-2.3,5.7l-10.7,10.7c-3.2,3.1-8.3,3.1-11.4,0l-13.3-13.3c-2.4-2.4-6.2-2.4-8.6,0
			c-2.4,2.4-2.4,6.2,0,8.6l13.4,13.4c3.9,3.9,9.1,5.9,14.3,5.9s10.3-2,14.3-5.9l10.7-10.7c3.8-3.8,5.9-8.9,5.9-14.3
			c0-3.9-1.1-7.5-3.1-10.7l22.7-22.6c0,0,0,0,0.1-0.1c2.6-2.7,9.8-2.2,16.8-1.7c5,0.3,10.5,0.7,15.9,0.1l24.8,24.8
			c-1.6,2.9-2.5,6.2-2.5,9.7c0,5.4,2.1,10.5,5.9,14.3l10.7,10.7c3.8,3.8,8.9,5.9,14.3,5.9c5.4,0,10.5-2.1,14.3-5.9l64.8-64.7
			c3.8-3.8,5.9-8.9,5.9-14.3C2344.7,706.3,2342.6,701.3,2338.8,697.5L2338.8,697.5z M2178.3,551.8l26.2,5l-15.7,15.7
			c-2.4-1.2-5.8-3.3-9.4-6.8c-5-4.8-8.6-10.3-8.9-13.7l0,0l0,0c0-0.2,0-0.4,0-0.6C2171.3,551.1,2173.4,550.9,2178.3,551.8
			L2178.3,551.8z M2147.7,556.7c3.1-3.1,7.8-3.4,11.3-1.1c2,8.2,9,15.7,12.1,18.7c2.3,2.2,9.8,9,17.4,10.8c1,1.5,1.6,3.2,1.6,5.1
			c0,2.4-0.9,4.6-2.6,6.3c-1.7,1.7-3.9,2.6-6.3,2.6c-2.4,0-4.6-0.9-6.3-2.6l0,0l0,0l-27.3-27.2c-1.7-1.7-2.6-3.9-2.6-6.3
			C2145.1,560.6,2146,558.4,2147.7,556.7L2147.7,556.7z M2131.9,583.1c1.7-1.7,3.9-2.6,6.3-2.6c2.4,0,4.6,0.9,6.3,2.6l22,21.9
			c3.5,3.5,3.5,9.1,0,12.6c-1.7,1.7-3.9,2.6-6.3,2.6c-2.4,0-4.6-0.9-6.3-2.6l0,0l-16.7-16.7c0,0-0.1,0-0.1-0.1l-5.2-5.2
			c-1.7-1.7-2.6-3.9-2.6-6.3C2129.3,587,2130.2,584.8,2131.9,583.1L2131.9,583.1z M2116,609.5c1.7-1.7,3.9-2.6,6.3-2.6
			c2.4,0,4.6,0.9,6.2,2.5l16.7,16.7c1.7,1.7,2.6,3.9,2.6,6.3c0,2.4-0.9,4.6-2.6,6.3c-1.7,1.7-3.9,2.6-6.3,2.6
			c-2.4,0-4.6-0.9-6.3-2.6l-6.1-6.1l0,0l-10.6-10.6c-1.7-1.7-2.6-3.9-2.6-6.3C2113.4,613.4,2114.4,611.2,2116,609.5L2116,609.5z
			 M2105.5,641.2c1.7-1.7,3.9-2.6,6.3-2.6c2.4,0,4.6,0.9,6.3,2.6l6.1,6.1c1.7,1.7,2.6,3.9,2.6,6.3s-0.9,4.6-2.6,6.3
			c-1.7,1.7-3.9,2.6-6.3,2.6c-2.4,0-4.6-0.9-6.3-2.6l-0.8-0.8l0,0l0,0l-5.2-5.2C2102.1,650.3,2102.1,644.7,2105.5,641.2
			L2105.5,641.2z M2228.7,709.9c-2.4-2.4-6.2-2.4-8.6,0l-5.4,5.4c-5.1,5.1-14.4,4.5-23.3,3.8c-9.7-0.7-19.8-1.4-26.3,5.3l-22.3,22.2
			l-55.7-55.6l19.7-19.7c3.3,2,7,3.1,11,3.1c5.6,0,10.9-2.2,14.8-6.1c4-3.9,6.1-9.2,6.1-14.8c0-0.1,0-0.1,0-0.2c0.1,0,0.1,0,0.2,0
			c5.6,0,10.9-2.2,14.8-6.1c4-3.9,6.1-9.2,6.1-14.8c0-0.1,0-0.1,0-0.2c0.1,0,0.1,0,0.2,0c5.6,0,10.9-2.2,14.8-6.1
			c4.1-4.1,6.2-9.6,6.1-15c0.1,0,0.1,0,0.2,0c5.6,0,10.9-2.2,14.8-6.1c4-3.9,6.1-9.2,6.1-14.8c0-3.9-1.1-7.7-3.1-10.9l17.3-17.3
			c1.3-1.3,2.9-2.1,4.5-2.4c0.2,0,0.4,0,0.5-0.1c2.7-0.4,5.5,0.5,7.5,2.5c3.5,3.5,3.5,9.1,0,12.6l-5.3,5.2c0,0,0,0-0.1,0.1l-6.1,6.1
			c-2.4,2.4-2.4,6.2,0,8.6c2.4,2.4,6.2,2.4,8.6,0l5.3-5.3l0,0l0.8-0.8c3.5-3.4,9.1-3.4,12.6,0c1.7,1.7,2.6,3.9,2.6,6.3
			c0,2.4-0.9,4.6-2.6,6.3l-5.3,5.3l0,0l-6.1,6c-2.4,2.4-2.4,6.2,0,8.6c2.4,2.4,6.2,2.4,8.6,0l6.1-6.1c1.7-1.7,3.9-2.6,6.3-2.6
			c2.4,0,4.6,0.9,6.3,2.6c1.7,1.7,2.6,3.9,2.6,6.3c0,2.4-0.9,4.6-2.6,6.3l-10.6,10.6c-2.4,2.4-2.4,6.2,0,8.6
			c1.2,1.2,2.7,1.8,4.3,1.8c1.5,0,3.1-0.6,4.3-1.8l5.2-5.2l0.1-0.1c1.7-1.7,3.9-2.6,6.3-2.6c2.4,0,4.6,0.9,6.3,2.6
			c3.5,3.5,3.5,9.1,0,12.5l-5.3,5.3l0,0l0,0l-8.3,8.3c-2.4,2.4-2.4,6.2,0,8.6c1.2,1.2,2.7,1.8,4.3,1.8c1.5,0,3.1-0.6,4.3-1.8
			l4.1-4.1l19.6,19.5l-55.7,55.6l-20-19.9c1.4-0.9,2.7-1.9,4-3.2l5.4-5.4C2231.1,716.1,2231.1,712.3,2228.7,709.9L2228.7,709.9z
			 M2330.3,717.4l-64.8,64.7c-1.5,1.5-3.5,2.3-5.7,2.3s-4.2-0.8-5.7-2.3l-10.7-10.7c-1.5-1.5-2.3-3.5-2.3-5.7s0.8-4.2,2.3-5.7
			l64.8-64.7c1.5-1.5,3.5-2.3,5.7-2.3s4.2,0.8,5.7,2.4l10.7,10.7c1.5,1.5,2.3,3.5,2.3,5.7C2332.6,713.9,2331.8,715.9,2330.3,717.4z"
			/>
		<path class="st1" d="M2110.7,523.7c1.2,1.2,2.7,1.8,4.3,1.8c1.5,0,3.1-0.6,4.3-1.8c2.4-2.4,2.4-6.2,0-8.6l-22-22
			c-2.4-2.4-6.2-2.4-8.6,0c-2.4,2.4-2.4,6.2,0,8.6L2110.7,523.7z"/>
		<path class="st1" d="M2267,525.4c1.5,0,3.1-0.6,4.3-1.8l22-22c2.4-2.4,2.4-6.2,0-8.6s-6.2-2.4-8.6,0l-22,22
			c-2.4,2.4-2.4,6.2,0,8.6C2263.9,524.8,2265.5,525.4,2267,525.4z"/>
		<path class="st1" d="M2075.5,749.8c-2.3,2.4-2.3,6.2,0.1,8.6l0,0c1.2,1.2,2.7,1.7,4.2,1.7c1.6,0,3.1-0.6,4.3-1.8
			c2.3-2.4,2.3-6.2-0.1-8.6C2081.7,747.4,2077.9,747.4,2075.5,749.8z"/>
		<path class="st1" d="M2243.5,701.2c0.9,0,1.9-0.2,2.7-0.7c3-1.5,4.2-5.1,2.7-8.1s-5.1-4.2-8.1-2.7l0,0c-3,1.5-4.2,5.1-2.7,8.1
			C2239.2,700,2241.3,701.2,2243.5,701.2L2243.5,701.2z"/>
	</g>
	<g>
		<path class="st1" d="M1460.1,1122.8c3.3,0,6-2.7,6-6v-27c0-3.3-2.7-6-6-6s-6,2.7-6,6v27C1454,1120.1,1456.7,1122.8,1460.1,1122.8
			L1460.1,1122.8z"/>
		<path class="st1" d="M1607.9,1291.5l-10.7-10.7c-3.8-3.8-8.9-5.9-14.3-5.9c-3.5,0-6.8,0.9-9.7,2.5l-20.1-20.1l1-1
			c8.2-8.2,8.2-21.5,0-29.6c-2.9-2.9-6.6-4.9-10.5-5.7c0.5-1.9,0.8-3.9,0.8-5.9c0-5.6-2.2-10.9-6.1-14.8c-2.9-2.9-6.6-4.9-10.5-5.7
			c0.5-1.9,0.8-3.9,0.8-5.9c0-5.6-2.2-10.9-6.1-14.8c-3-3-6.7-4.9-10.5-5.7c2.1-7.1,0.3-15.1-5.3-20.7c-4.7-4.6-11-6.6-17.1-6
			l-39.9-7.6c-6.1-1.2-13.7-1.9-18.5,2.5c-0.3,0.3-0.6,0.6-0.9,0.9c-7.4-2.7-16.1-1.1-22.1,4.9c-4,3.9-6.1,9.2-6.1,14.8
			c0,2,0.3,4,0.8,5.9c-4,0.8-7.6,2.8-10.5,5.7c-4,3.9-6.1,9.2-6.1,14.8c0,2,0.3,4,0.8,5.9c-4,0.8-7.6,2.8-10.5,5.7
			c-4,4-6.1,9.2-6.1,14.8c0,4.3,1.3,8.4,3.7,11.9c-3,1-5.8,2.7-8.1,5c-8.2,8.2-8.2,21.5,0,29.7l1,1l-20.1,20.1
			c-7.5-3.5-16.7-2.2-22.9,4l-10.7,10.7c-3.8,3.8-5.9,8.9-5.9,14.3s2.1,10.5,5.9,14.3l13.3,13.3c2.4,2.4,6.2,2.4,8.6,0
			s2.4-6.2,0-8.6l-13.3-13.3c-1.5-1.5-2.3-3.5-2.3-5.7s0.8-4.2,2.3-5.7l10.7-10.7c2.7-2.7,6.8-3.1,9.9-1.2c0.2,0.3,0.5,0.6,0.8,0.9
			c0.5,0.5,1.1,0.9,1.7,1.2l61.3,61.2c0.3,0.6,0.7,1.2,1.2,1.8c0.5,0.5,1.1,0.9,1.7,1.2c1.3,1.5,2,3.3,2,5.3c0,2.2-0.8,4.2-2.3,5.7
			l-10.7,10.7c-3.2,3.1-8.3,3.1-11.4,0l-13.3-13.3c-2.4-2.4-6.2-2.4-8.6,0s-2.4,6.2,0,8.6l13.4,13.4c3.9,3.9,9.1,5.9,14.3,5.9
			c5.2,0,10.3-2,14.3-5.9l10.7-10.7c3.8-3.8,5.9-8.9,5.9-14.3c0-3.9-1.1-7.5-3.1-10.7l22.7-22.6c0,0,0,0,0.1-0.1
			c2.6-2.7,9.8-2.2,16.8-1.7c5,0.3,10.5,0.7,15.9,0.1l24.8,24.8c-1.6,2.9-2.5,6.2-2.5,9.7c0,5.4,2.1,10.5,5.9,14.3l10.7,10.7
			c3.8,3.8,8.9,5.9,14.3,5.9s10.5-2.1,14.3-5.9l64.8-64.7c3.8-3.8,5.9-8.9,5.9-14.3C1613.8,1300.4,1611.7,1295.3,1607.9,1291.5
			L1607.9,1291.5z M1447.4,1145.9l26.2,5l-15.7,15.7c-2.4-1.2-5.8-3.3-9.4-6.8c-5-4.8-8.6-10.3-8.9-13.7l0,0l0,0c0-0.2,0-0.4,0-0.6
			C1440.4,1145.2,1442.5,1144.9,1447.4,1145.9L1447.4,1145.9z M1416.7,1150.8c3.1-3.1,7.8-3.4,11.3-1.1c2,8.2,9,15.7,12.1,18.7
			c2.3,2.2,9.8,9,17.4,10.8c1,1.5,1.6,3.2,1.6,5.1c0,2.4-0.9,4.6-2.6,6.3c-1.7,1.7-3.9,2.6-6.3,2.6s-4.6-0.9-6.3-2.6l0,0l0,0
			l-27.3-27.2c-1.7-1.7-2.6-3.9-2.6-6.3C1414.2,1154.7,1415.1,1152.5,1416.7,1150.8L1416.7,1150.8z M1400.9,1177.2
			c1.7-1.7,3.9-2.6,6.3-2.6s4.6,0.9,6.3,2.6l22,21.9c3.5,3.5,3.5,9.1,0,12.6c-1.7,1.7-3.9,2.6-6.3,2.6s-4.6-0.9-6.3-2.6l0,0
			l-16.7-16.7c0,0-0.1,0-0.1-0.1l-5.2-5.2c-1.7-1.7-2.6-3.9-2.6-6.3C1398.3,1181.1,1399.3,1178.9,1400.9,1177.2L1400.9,1177.2z
			 M1385.1,1203.6c1.7-1.7,3.9-2.6,6.3-2.6s4.6,0.9,6.2,2.5l16.7,16.7c1.7,1.7,2.6,3.9,2.6,6.3s-0.9,4.6-2.6,6.3
			c-1.7,1.7-3.9,2.6-6.3,2.6s-4.6-0.9-6.3-2.6l-6.1-6.1l0,0l-10.6-10.6c-1.7-1.7-2.6-3.9-2.6-6.3
			C1382.5,1207.5,1383.4,1205.2,1385.1,1203.6L1385.1,1203.6z M1374.6,1235.3c1.7-1.7,3.9-2.6,6.3-2.6s4.6,0.9,6.3,2.6l6.1,6.1
			c1.7,1.7,2.6,3.9,2.6,6.3s-0.9,4.6-2.6,6.3c-1.7,1.7-3.9,2.6-6.3,2.6s-4.6-0.9-6.3-2.6l-0.8-0.8l0,0l0,0l-5.2-5.2
			C1371.1,1244.3,1371.1,1238.7,1374.6,1235.3L1374.6,1235.3z M1497.8,1304c-2.4-2.4-6.2-2.4-8.6,0l-5.4,5.4
			c-5.1,5.1-14.4,4.5-23.3,3.8c-9.7-0.7-19.8-1.4-26.3,5.3l-22.3,22.2l-55.7-55.6l19.7-19.7c3.3,2,7,3.1,11,3.1
			c5.6,0,10.9-2.2,14.8-6.1c4-3.9,6.1-9.2,6.1-14.8c0-0.1,0-0.1,0-0.2c0.1,0,0.1,0,0.2,0c5.6,0,10.9-2.2,14.8-6.1
			c4-3.9,6.1-9.2,6.1-14.8c0-0.1,0-0.1,0-0.2c0.1,0,0.1,0,0.2,0c5.6,0,10.9-2.2,14.8-6.1c4.1-4.1,6.2-9.6,6.1-15c0.1,0,0.1,0,0.2,0
			c5.6,0,10.9-2.2,14.8-6.1c4-3.9,6.1-9.2,6.1-14.8c0-3.9-1.1-7.7-3.1-10.9l17.3-17.3c1.3-1.3,2.9-2.1,4.5-2.4c0.2,0,0.4,0,0.5-0.1
			c2.7-0.4,5.5,0.5,7.5,2.5c3.5,3.5,3.5,9.1,0,12.6l-5.3,5.2c0,0,0,0-0.1,0.1l-6.1,6.1c-2.4,2.4-2.4,6.2,0,8.6s6.2,2.4,8.6,0
			l5.3-5.3l0,0l0.8-0.8c3.5-3.4,9.1-3.4,12.5,0c1.7,1.7,2.6,3.9,2.6,6.3s-0.9,4.6-2.6,6.3l-5.3,5.3l0,0l-6.1,6
			c-2.4,2.4-2.4,6.2,0,8.6s6.2,2.4,8.6,0l6.1-6.1c1.7-1.7,3.9-2.6,6.3-2.6s4.6,0.9,6.3,2.6c1.7,1.7,2.6,3.9,2.6,6.3
			s-0.9,4.6-2.6,6.3l-10.6,10.6c-2.4,2.4-2.4,6.2,0,8.6c1.2,1.2,2.7,1.8,4.3,1.8c1.5,0,3.1-0.6,4.3-1.8l5.2-5.2l0.1-0.1
			c1.7-1.7,3.9-2.6,6.3-2.6s4.6,0.9,6.3,2.6c3.5,3.5,3.5,9.1,0,12.5l-5.3,5.3l0,0l0,0l-8.3,8.3c-2.4,2.4-2.4,6.2,0,8.6
			c1.2,1.2,2.7,1.8,4.3,1.8c1.5,0,3.1-0.6,4.3-1.8l4.1-4.1l19.6,19.5l-55.7,55.6l-20-19.9c1.4-0.9,2.7-1.9,4-3.2l5.4-5.4
			C1500.2,1310.2,1500.2,1306.4,1497.8,1304L1497.8,1304z M1599.3,1311.5l-64.8,64.7c-1.5,1.5-3.5,2.3-5.7,2.3s-4.2-0.8-5.7-2.3
			l-10.7-10.7c-1.5-1.5-2.3-3.5-2.3-5.7s0.8-4.2,2.3-5.7l64.8-64.7c1.5-1.5,3.5-2.3,5.7-2.3s4.2,0.8,5.7,2.4l10.7,10.7
			c1.5,1.5,2.3,3.5,2.3,5.7C1601.7,1308,1600.9,1310,1599.3,1311.5z"/>
		<path class="st1" d="M1379.8,1117.7c1.2,1.2,2.7,1.8,4.3,1.8c1.5,0,3.1-0.6,4.3-1.8c2.4-2.4,2.4-6.2,0-8.6l-22-22
			c-2.4-2.4-6.2-2.4-8.6,0s-2.4,6.2,0,8.6L1379.8,1117.7z"/>
		<path class="st1" d="M1536.1,1119.5c1.5,0,3.1-0.6,4.3-1.8l22-22c2.4-2.4,2.4-6.2,0-8.6s-6.2-2.4-8.6,0l-22,22
			c-2.4,2.4-2.4,6.2,0,8.6C1533,1118.9,1534.5,1119.5,1536.1,1119.5z"/>
		<path class="st1" d="M1344.6,1343.9c-2.3,2.4-2.3,6.2,0.1,8.6l0,0c1.2,1.2,2.7,1.7,4.2,1.7c1.6,0,3.1-0.6,4.3-1.8
			c2.3-2.4,2.3-6.2-0.1-8.6C1350.8,1341.5,1346.9,1341.5,1344.6,1343.9z"/>
		<path class="st1" d="M1512.6,1295.3c0.9,0,1.9-0.2,2.7-0.7c3-1.5,4.2-5.1,2.7-8.1s-5.1-4.2-8.1-2.7l0,0c-3,1.5-4.2,5.1-2.7,8.1
			C1508.3,1294.1,1510.4,1295.3,1512.6,1295.3L1512.6,1295.3z"/>
	</g>
	<g>
		<path class="st1" d="M2166.1,1122.8c3.3,0,6-2.7,6-6v-27c0-3.3-2.7-6-6-6s-6,2.7-6,6v27C2160,1120.1,2162.8,1122.8,2166.1,1122.8
			L2166.1,1122.8z"/>
		<path class="st1" d="M2313.9,1291.5l-10.7-10.7c-3.8-3.8-8.9-5.9-14.3-5.9c-3.5,0-6.8,0.9-9.7,2.5l-20.1-20.1l1-1
			c8.2-8.2,8.2-21.5,0-29.6c-2.9-2.9-6.6-4.9-10.5-5.7c0.5-1.9,0.8-3.9,0.8-5.9c0-5.6-2.2-10.9-6.1-14.8c-2.9-2.9-6.6-4.9-10.5-5.7
			c0.5-1.9,0.8-3.9,0.8-5.9c0-5.6-2.2-10.9-6.1-14.8c-3-3-6.7-4.9-10.5-5.7c2.1-7.1,0.3-15.1-5.3-20.7c-4.7-4.6-11-6.6-17.1-6
			l-39.9-7.6c-6.1-1.2-13.7-1.9-18.5,2.5c-0.3,0.3-0.6,0.6-0.9,0.9c-7.4-2.7-16.1-1.1-22.1,4.9c-4,3.9-6.1,9.2-6.1,14.8
			c0,2,0.3,4,0.8,5.9c-4,0.8-7.6,2.8-10.5,5.7c-4,3.9-6.1,9.2-6.1,14.8c0,2,0.3,4,0.8,5.9c-4,0.8-7.6,2.8-10.5,5.7
			c-4,4-6.1,9.2-6.1,14.8c0,4.3,1.3,8.4,3.7,11.9c-3,1-5.8,2.7-8.1,5c-8.2,8.2-8.2,21.5,0,29.7l1,1l-20.1,20.1
			c-7.5-3.5-16.7-2.2-22.9,4l-10.7,10.7c-3.8,3.8-5.9,8.9-5.9,14.3s2.1,10.5,5.9,14.3l13.3,13.3c2.4,2.4,6.2,2.4,8.6,0
			s2.4-6.2,0-8.6l-13.3-13.3c-1.5-1.5-2.3-3.5-2.3-5.7s0.8-4.2,2.3-5.7l10.7-10.7c2.7-2.7,6.8-3.1,9.9-1.2c0.2,0.3,0.5,0.6,0.8,0.9
			c0.5,0.5,1.1,0.9,1.7,1.2l61.3,61.2c0.3,0.6,0.7,1.2,1.2,1.8c0.5,0.5,1.1,0.9,1.7,1.2c1.3,1.5,2,3.3,2,5.3c0,2.2-0.8,4.2-2.3,5.7
			l-10.7,10.7c-3.2,3.1-8.3,3.1-11.4,0l-13.3-13.3c-2.4-2.4-6.2-2.4-8.6,0c-2.4,2.4-2.4,6.2,0,8.6l13.4,13.4
			c3.9,3.9,9.1,5.9,14.3,5.9s10.3-2,14.3-5.9l10.7-10.7c3.8-3.8,5.9-8.9,5.9-14.3c0-3.9-1.1-7.5-3.1-10.7l22.7-22.6c0,0,0,0,0.1-0.1
			c2.6-2.7,9.8-2.2,16.8-1.7c5,0.3,10.5,0.7,15.9,0.1l24.8,24.8c-1.6,2.9-2.5,6.2-2.5,9.7c0,5.4,2.1,10.5,5.9,14.3l10.7,10.7
			c3.8,3.8,8.9,5.9,14.3,5.9c5.4,0,10.5-2.1,14.3-5.9l64.8-64.7c3.8-3.8,5.9-8.9,5.9-14.3
			C2319.8,1300.4,2317.7,1295.3,2313.9,1291.5L2313.9,1291.5z M2153.4,1145.9l26.2,5l-15.7,15.7c-2.4-1.2-5.8-3.3-9.4-6.8
			c-5-4.8-8.6-10.3-8.9-13.7l0,0l0,0c0-0.2,0-0.4,0-0.6C2146.4,1145.2,2148.5,1144.9,2153.4,1145.9L2153.4,1145.9z M2122.8,1150.8
			c3.1-3.1,7.8-3.4,11.3-1.1c2,8.2,9,15.7,12.1,18.7c2.3,2.2,9.8,9,17.4,10.8c1,1.5,1.6,3.2,1.6,5.1c0,2.4-0.9,4.6-2.6,6.3
			c-1.7,1.7-3.9,2.6-6.3,2.6c-2.4,0-4.6-0.9-6.3-2.6l0,0l0,0l-27.3-27.2c-1.7-1.7-2.6-3.9-2.6-6.3
			C2120.2,1154.7,2121.1,1152.5,2122.8,1150.8L2122.8,1150.8z M2107,1177.2c1.7-1.7,3.9-2.6,6.3-2.6c2.4,0,4.6,0.9,6.3,2.6l22,21.9
			c3.5,3.5,3.5,9.1,0,12.6c-1.7,1.7-3.9,2.6-6.3,2.6c-2.4,0-4.6-0.9-6.3-2.6l0,0l-16.7-16.7c0,0-0.1,0-0.1-0.1l-5.2-5.2
			c-1.7-1.7-2.6-3.9-2.6-6.3C2104.4,1181.1,2105.3,1178.9,2107,1177.2L2107,1177.2z M2091.1,1203.6c1.7-1.7,3.9-2.6,6.3-2.6
			c2.4,0,4.6,0.9,6.2,2.5l16.7,16.7c1.7,1.7,2.6,3.9,2.6,6.3s-0.9,4.6-2.6,6.3c-1.7,1.7-3.9,2.6-6.3,2.6c-2.4,0-4.6-0.9-6.3-2.6
			l-6.1-6.1l0,0l-10.6-10.6c-1.7-1.7-2.6-3.9-2.6-6.3C2088.5,1207.5,2089.5,1205.2,2091.1,1203.6L2091.1,1203.6z M2080.6,1235.3
			c1.7-1.7,3.9-2.6,6.3-2.6c2.4,0,4.6,0.9,6.3,2.6l6.1,6.1c1.7,1.7,2.6,3.9,2.6,6.3s-0.9,4.6-2.6,6.3c-1.7,1.7-3.9,2.6-6.3,2.6
			c-2.4,0-4.6-0.9-6.3-2.6l-0.8-0.8l0,0l0,0l-5.2-5.2C2077.2,1244.3,2077.1,1238.7,2080.6,1235.3L2080.6,1235.3z M2203.8,1304
			c-2.4-2.4-6.2-2.4-8.6,0l-5.4,5.4c-5.1,5.1-14.4,4.5-23.3,3.8c-9.7-0.7-19.8-1.4-26.3,5.3l-22.3,22.2l-55.7-55.6l19.7-19.7
			c3.3,2,7,3.1,11,3.1c5.6,0,10.9-2.2,14.8-6.1c4-3.9,6.1-9.2,6.1-14.8c0-0.1,0-0.1,0-0.2c0.1,0,0.1,0,0.2,0
			c5.6,0,10.9-2.2,14.8-6.1c4-3.9,6.1-9.2,6.1-14.8c0-0.1,0-0.1,0-0.2c0.1,0,0.1,0,0.2,0c5.6,0,10.9-2.2,14.8-6.1
			c4.1-4.1,6.2-9.6,6.1-15c0.1,0,0.1,0,0.2,0c5.6,0,10.9-2.2,14.8-6.1c4-3.9,6.1-9.2,6.1-14.8c0-3.9-1.1-7.7-3.1-10.9l17.3-17.3
			c1.3-1.3,2.9-2.1,4.5-2.4c0.2,0,0.4,0,0.5-0.1c2.7-0.4,5.5,0.5,7.5,2.5c3.5,3.5,3.5,9.1,0,12.6l-5.3,5.2c0,0,0,0-0.1,0.1l-6.1,6.1
			c-2.4,2.4-2.4,6.2,0,8.6s6.2,2.4,8.6,0l5.3-5.3l0,0l0.8-0.8c3.5-3.4,9.1-3.4,12.5,0c1.7,1.7,2.6,3.9,2.6,6.3s-0.9,4.6-2.6,6.3
			l-5.3,5.3l0,0l-6.1,6c-2.4,2.4-2.4,6.2,0,8.6s6.2,2.4,8.6,0l6.1-6.1c1.7-1.7,3.9-2.6,6.3-2.6c2.4,0,4.6,0.9,6.3,2.6
			s2.6,3.9,2.6,6.3s-0.9,4.6-2.6,6.3l-10.6,10.6c-2.4,2.4-2.4,6.2,0,8.6c1.2,1.2,2.7,1.8,4.3,1.8c1.5,0,3.1-0.6,4.3-1.8l5.2-5.2
			l0.1-0.1c1.7-1.7,3.9-2.6,6.3-2.6c2.4,0,4.6,0.9,6.3,2.6c3.5,3.5,3.5,9.1,0,12.5l-5.3,5.3l0,0l0,0l-8.3,8.3
			c-2.4,2.4-2.4,6.2,0,8.6c1.2,1.2,2.7,1.8,4.3,1.8c1.5,0,3.1-0.6,4.3-1.8l4.1-4.1l19.6,19.5l-55.7,55.6l-20-19.9
			c1.4-0.9,2.7-1.9,4-3.2l5.4-5.4C2206.2,1310.2,2206.2,1306.4,2203.8,1304L2203.8,1304z M2305.4,1311.5l-64.8,64.7
			c-1.5,1.5-3.5,2.3-5.7,2.3s-4.2-0.8-5.7-2.3l-10.7-10.7c-1.5-1.5-2.3-3.5-2.3-5.7s0.8-4.2,2.3-5.7l64.8-64.7
			c1.5-1.5,3.5-2.3,5.7-2.3s4.2,0.8,5.7,2.4l10.7,10.7c1.5,1.5,2.3,3.5,2.3,5.7C2307.7,1308,2306.9,1310,2305.4,1311.5z"/>
		<path class="st1" d="M2085.8,1117.7c1.2,1.2,2.7,1.8,4.3,1.8c1.5,0,3.1-0.6,4.3-1.8c2.4-2.4,2.4-6.2,0-8.6l-22-22
			c-2.4-2.4-6.2-2.4-8.6,0c-2.4,2.4-2.4,6.2,0,8.6L2085.8,1117.7z"/>
		<path class="st1" d="M2242.1,1119.5c1.5,0,3.1-0.6,4.3-1.8l22-22c2.4-2.4,2.4-6.2,0-8.6s-6.2-2.4-8.6,0l-22,22
			c-2.4,2.4-2.4,6.2,0,8.6C2239,1118.9,2240.6,1119.5,2242.1,1119.5z"/>
		<path class="st1" d="M2050.6,1343.9c-2.3,2.4-2.3,6.2,0.1,8.6l0,0c1.2,1.2,2.7,1.7,4.2,1.7c1.6,0,3.1-0.6,4.3-1.8
			c2.3-2.4,2.3-6.2-0.1-8.6C2056.8,1341.5,2053,1341.5,2050.6,1343.9z"/>
		<path class="st1" d="M2218.6,1295.3c0.9,0,1.9-0.2,2.7-0.7c3-1.5,4.2-5.1,2.7-8.1s-5.1-4.2-8.1-2.7l0,0c-3,1.5-4.2,5.1-2.7,8.1
			C2214.3,1294.1,2216.4,1295.3,2218.6,1295.3L2218.6,1295.3z"/>
	</g>
</g>
</svg>
