<svg xmlns="http://www.w3.org/2000/svg" xmlns:xlink="http://www.w3.org/1999/xlink" width="568.346" height="333.026" viewBox="0 0 568.346 333.026">
  <defs>
    <clipPath id="clip-path">
      <path id="Trazado_34383" data-name="Trazado 34383" d="M144-553.49a3.67,3.67,0,0,1-3.659-3.659A3.656,3.656,0,0,1,144-560.8a3.645,3.645,0,0,1,3.659,3.655A3.659,3.659,0,0,1,144-553.49Zm-11.851-37.733a12.987,12.987,0,0,1-12.985-12.986,12.991,12.991,0,0,1,12.985-13,12.994,12.994,0,0,1,13,13A12.99,12.99,0,0,1,132.152-591.223ZM119.167-564.17a8.379,8.379,0,0,1-8.38-8.38,8.378,8.378,0,0,1,8.38-8.377,8.377,8.377,0,0,1,8.377,8.377A8.378,8.378,0,0,1,119.167-564.17Zm-22.79-54.415a7.243,7.243,0,0,1-7.243-7.225,7.248,7.248,0,0,1,7.243-7.243,7.237,7.237,0,0,1,7.243,7.243A7.232,7.232,0,0,1,96.377-618.584Zm-2.818,77.9A9.3,9.3,0,0,1,84.27-550a9.292,9.292,0,0,1,9.289-9.292A9.293,9.293,0,0,1,102.851-550,9.3,9.3,0,0,1,93.559-540.687ZM74.5-596.71a11.052,11.052,0,0,1,11.065-11.045A11.048,11.048,0,0,1,96.613-596.71a11.05,11.05,0,0,1-11.045,11.048A11.054,11.054,0,0,1,74.5-596.71ZM63.84-575.437a2.742,2.742,0,0,1-2.746-2.746,2.742,2.742,0,0,1,2.746-2.744,2.741,2.741,0,0,1,2.743,2.744A2.742,2.742,0,0,1,63.84-575.437Zm148.493-29.376a16.163,16.163,0,0,0-18.38-13.57,16.359,16.359,0,0,0-5.561,1.92c-.109.075-.291.146-.475.276a.978.978,0,0,0-.273.164.362.362,0,0,0-.092.072c-.092.055-.164.109-.236.147,0,0-.055.038-.147.092a3.036,3.036,0,0,1-.311.236,1.051,1.051,0,0,0-.256.184,1.323,1.323,0,0,0-.219.182c-.058.038-.092.092-.147.13a12.131,12.131,0,0,0-1.52,1.37.147.147,0,0,1-.089.092c-2.689,2.469-7.41,6.676-10.464,8.251a12.846,12.846,0,0,1-5.89,1.332,62.81,62.81,0,0,0-7.919-18.179,7.351,7.351,0,0,1,1.773-.385c1.923-.055,5.179.99,6.477,1.3a5.868,5.868,0,0,0,.967.146l.058.02h.055c.089,0,.256.018.256.018a3.472,3.472,0,0,0,.475.017h.109v-.017a7.479,7.479,0,0,0,2.614-.547,7.334,7.334,0,0,0,3.935-9.586,7.313,7.313,0,0,0-9.568-3.932,7.322,7.322,0,0,0-2.231,1.462,1.236,1.236,0,0,0-.181.167.4.4,0,0,0-.092.109s-.017,0-.037.038-.072.072-.092.089l-.055.055c-.035.054-.072.092-.109.147a.256.256,0,0,0-.089.109.367.367,0,0,0-.075.092.187.187,0,0,1-.055.072,6.285,6.285,0,0,0-.512.769c-.017.037-.017.037-.037.055a29.1,29.1,0,0,1-3.693,4.775,8.158,8.158,0,0,1-2.45,1.3,62.214,62.214,0,0,0-12.767-12.784,12.539,12.539,0,0,1,3-4.335c2.286-1.886,7.168-3.659,9.016-4.519a9.863,9.863,0,0,0,1.318-.694.268.268,0,0,0,.072-.055c.017,0,.037-.02.072-.037.13-.092.331-.219.331-.219.164-.109.294-.221.584-.44.037-.017.092-.072.13-.092a11.172,11.172,0,0,0,2.614-3.126,11.152,11.152,0,0,0-4.188-15.216,11.168,11.168,0,0,0-15.216,4.188,11.16,11.16,0,0,0-1.336,3.84c0,.092-.037.219-.055.365,0,.075-.017.147-.017.219v.092c-.02.055-.02.13-.037.185a.2.2,0,0,1,0,.109v.273a1.026,1.026,0,0,0-.017.239v.181a.382.382,0,0,1,.017.13,7.4,7.4,0,0,0,.092,1.424c.017.017.017.055.017.092.184,2.5.44,6.859,0,9.2a12.824,12.824,0,0,1-2.1,4.39,63.029,63.029,0,0,0-23.866-8.12,2.885,2.885,0,0,1,.366-.512c1.244-1.483,4.168-3.239,5.268-4.008a6.873,6.873,0,0,0,.748-.621l.055-.035s0-.02.037-.037l.181-.184a1.987,1.987,0,0,0,.311-.345.263.263,0,0,0,.075-.075,7.427,7.427,0,0,0,1.316-2.323,7.319,7.319,0,0,0-4.554-9.289,7.3,7.3,0,0,0-9.289,4.534,7.7,7.7,0,0,0-.4,2.634,1.035,1.035,0,0,1,.017.257.333.333,0,0,0,.017.129v.055c0,.054.02.092.02.127v.075a1.794,1.794,0,0,0,.037.181.483.483,0,0,0,.017.147.359.359,0,0,0,.017.126l.02.075a6.634,6.634,0,0,0,.236.895.132.132,0,0,1,.02.075,29.962,29.962,0,0,1,1.134,5.924c0,.13-.02.311-.037.478a8.076,8.076,0,0,1-1.828-2.268c-.769-1.776-1.062-5.179-1.264-6.494a6.4,6.4,0,0,0-.239-.95v-.054l-.017-.055c-.037-.092-.092-.257-.092-.257a4.481,4.481,0,0,0-.164-.44.318.318,0,0,1-.037-.092,7.616,7.616,0,0,0-1.517-2.193,7.293,7.293,0,0,0-10.351,0,7.309,7.309,0,0,0,0,10.334,7.675,7.675,0,0,0,2.193,1.517c.055.017.13.055.222.092.055.018.089.055.144.055a.09.09,0,0,0,.055.017.987.987,0,0,1,.112.055.167.167,0,0,1,.072.02,1.229,1.229,0,0,1,.164.054c.055.017.092.035.147.055a1.137,1.137,0,0,0,.127.017l.075.02a5.832,5.832,0,0,0,.913.181l.058.017a29.943,29.943,0,0,1,5.815,1.575,62.454,62.454,0,0,0-26.575,6.8,13.7,13.7,0,0,1-4.39-7.131c-.9-4.188.037-11.653.184-14.615a14.675,14.675,0,0,0-.037-2.142v-.144c-.017,0-.017-.054-.017-.113-.037-.2-.075-.564-.075-.564A8.81,8.81,0,0,0,74.574-670a1.707,1.707,0,0,1-.037-.239H74.52a15.985,15.985,0,0,0-2.268-5.432,16.137,16.137,0,0,0-22.349-4.7,16.15,16.15,0,0,0-4.7,22.35,16.357,16.357,0,0,0,4.062,4.263c.109.072.253.2.438.311a1.081,1.081,0,0,0,.273.184.965.965,0,0,1,.092.052c.092.075.184.112.239.167a.776.776,0,0,1,.147.072c.127.073.236.13.345.2.075.055.184.109.276.164.055.02.127.054.256.109a1.845,1.845,0,0,0,.181.092,13.666,13.666,0,0,0,1.883.806.274.274,0,0,1,.112.035c3.345,1.428,9.145,3.969,11.851,6.091a14.08,14.08,0,0,1,4.517,6.97,63.242,63.242,0,0,0-9.856,9.255,8.4,8.4,0,0,1-2.945-2.177c-1.172-1.554-2.2-4.792-2.689-6.036a5.788,5.788,0,0,0-.44-.878.083.083,0,0,0-.017-.055l-.037-.054c-.037-.072-.127-.219-.127-.219-.058-.109-.13-.2-.256-.4l-.075-.075a7.11,7.11,0,0,0-1.957-1.808,7.321,7.321,0,0,0-10.1,2.3,7.317,7.317,0,0,0,2.306,10.078,6.949,6.949,0,0,0,2.467.987,2.264,2.264,0,0,0,.239.055c.055,0,.092.02.147.02h.055a.366.366,0,0,0,.127.018.2.2,0,0,1,.075.017h.181a.326.326,0,0,0,.147.02h.219a5.139,5.139,0,0,0,.915-.02h.055a28.662,28.662,0,0,1,6.036.256,8.359,8.359,0,0,1,2.815,1.5,63.108,63.108,0,0,0-8.046,14.724,12.132,12.132,0,0,1-4.373-1.462c-2.525-1.666-5.78-5.872-7.168-7.444a11.07,11.07,0,0,0-1.1-1.042.2.2,0,0,0-.055-.075c-.017,0-.037-.018-.072-.055-.109-.092-.311-.256-.311-.256a5.007,5.007,0,0,0-.6-.421.68.68,0,0,0-.127-.109v.017a11.391,11.391,0,0,0-3.86-1.609,11.394,11.394,0,0,0-13.553,8.743,11.414,11.414,0,0,0,8.743,13.572,11.823,11.823,0,0,0,4.152.127c.091-.017.219-.038.384-.072a.973.973,0,0,0,.219-.038.551.551,0,0,0,.092-.017.58.58,0,0,1,.183-.037.476.476,0,0,1,.109-.037c.112-.017.184-.055.276-.072a1.03,1.03,0,0,0,.219-.055c.037-.02.092-.037.181-.075a.279.279,0,0,0,.13-.035,10.978,10.978,0,0,0,1.353-.533c.037-.017.055-.034.092-.034,2.378-.952,6.566-2.544,8.978-2.835a12.7,12.7,0,0,1,3.952.421,62.967,62.967,0,0,0-1.793,22.2c-4.26,3.129-7.588,3.642-9.839,3.494-4.28-.256-11.212-3.163-14.028-4.1a12.512,12.512,0,0,0-2.085-.533c-.037-.034-.073-.034-.128-.054-.018.02-.055,0-.109-.018-.2-.017-.567-.074-.567-.074-.275-.052-.531-.072-1.043-.127-.073,0-.165-.017-.238-.017l.018.017a16.145,16.145,0,0,0-5.852.714A16.136,16.136,0,0,0,.757-562.653a16.128,16.128,0,0,0,20.265,10.536,16.163,16.163,0,0,0,5.176-2.746c.11-.089.275-.2.44-.346a2.825,2.825,0,0,0,.237-.221.382.382,0,0,0,.092-.072,1.861,1.861,0,0,1,.2-.184s.055-.052.128-.127c.092-.092.183-.184.274-.273a2.751,2.751,0,0,0,.238-.219c.037-.054.092-.112.183-.222a.907.907,0,0,1,.128-.144,15.562,15.562,0,0,0,1.28-1.592.226.226,0,0,1,.073-.109c2.269-2.836,6.273-7.738,9.054-9.787a14.566,14.566,0,0,1,8.906-2.487,62.811,62.811,0,0,0,5.944,13.72,5.682,5.682,0,0,1-1,.328c-1.9.366-5.288-.147-6.621-.239a8.078,8.078,0,0,0-.97,0h-.109c-.092.02-.256.038-.256.038a2.96,2.96,0,0,0-.475.055c-.037,0-.055.017-.092.017a7.905,7.905,0,0,0-2.507.97,7.342,7.342,0,0,0-2.358,10.078,7.308,7.308,0,0,0,10.078,2.36,7.2,7.2,0,0,0,1.975-1.793,1.874,1.874,0,0,0,.147-.184.643.643,0,0,1,.089-.126.136.136,0,0,1,.02-.055.362.362,0,0,1,.072-.092s.02-.035.037-.073a.687.687,0,0,0,.092-.146.524.524,0,0,0,.072-.127.309.309,0,0,0,.055-.112.172.172,0,0,0,.037-.089,3.442,3.442,0,0,0,.383-.843l.037-.055a29.387,29.387,0,0,1,2.873-5.3,5.776,5.776,0,0,1,.841-.769,61.991,61.991,0,0,0,13.515,14.321,10.507,10.507,0,0,1-2.743,3.6c-1.883,1.336-5.815,2.488-7.315,3.057a8.619,8.619,0,0,0-1.062.492c-.035,0-.055.02-.072.02,0,.017-.02.017-.055.034l-.276.164c-.127.075-.236.147-.475.311-.035.02-.072.037-.109.058l.017.017a8.681,8.681,0,0,0-2.231,2.3,8.763,8.763,0,0,0,2.487,12.145,8.768,8.768,0,0,0,12.165-2.487,9.2,9.2,0,0,0,1.244-2.925c.017-.075.035-.184.055-.293a.568.568,0,0,0,.035-.184v-.055c.02-.055.02-.109.037-.144v-.092c.017-.092.017-.147.037-.222,0-.055.017-.109.017-.164v-.273a5.369,5.369,0,0,0,0-1.1c-.017-.037,0-.055,0-.075a34.879,34.879,0,0,1,.475-7.222,10.772,10.772,0,0,1,2.268-3.788A63.344,63.344,0,0,0,94.621-527.1a6.9,6.9,0,0,1-.512,1.333c-1.647,3.074-6.4,7.317-8.121,9.111a9.754,9.754,0,0,0-1.134,1.37.29.29,0,0,0-.072.092.39.39,0,0,1-.058.072c-.109.147-.273.4-.273.4-.127.164-.219.348-.438.714a1.366,1.366,0,0,0-.092.181h.017a11.349,11.349,0,0,0-1.353,4.554c-.55,7.116,5.524,13.409,13.59,14.048,8.083.639,15.07-4.626,15.619-11.742a11.894,11.894,0,0,0-.584-4.7c-.037-.109-.092-.256-.147-.42a1.571,1.571,0,0,0-.109-.239.191.191,0,0,0-.037-.092,1.991,1.991,0,0,0-.092-.219s-.017-.034-.055-.126c-.055-.109-.092-.2-.147-.294a.67.67,0,0,0-.109-.236,2.033,2.033,0,0,0-.109-.2c-.037-.037-.055-.092-.092-.129a9.323,9.323,0,0,0-.912-1.445c-.037-.035-.055-.055-.055-.092-1.647-2.559-4.445-7.041-5.251-9.71a6.188,6.188,0,0,1-.181-1.007,62.438,62.438,0,0,0,21.123-2.358c3.256,3.437,4.206,6.4,4.407,8.524.423,4.26-1.333,11.575-1.811,14.5a13.665,13.665,0,0,0-.181,2.139.331.331,0,0,0-.02.13c.02.017.02.054,0,.127v.567c0,.273.02.53.058,1.042,0,.075.017.184.017.239l.017-.017a16.093,16.093,0,0,0,1.647,5.668,16.135,16.135,0,0,0,21.693,7.133,16.128,16.128,0,0,0,7.15-21.691,16.523,16.523,0,0,0-3.549-4.683c-.109-.072-.236-.219-.42-.366a2.579,2.579,0,0,0-.239-.2.4.4,0,0,1-.089-.072.965.965,0,0,1-.219-.184.336.336,0,0,1-.13-.092,3.725,3.725,0,0,1-.328-.218,1.532,1.532,0,0,0-.256-.2c-.055-.035-.13-.072-.239-.147a.757.757,0,0,0-.164-.089,10.286,10.286,0,0,0-1.793-1.008c-.035-.017-.072-.055-.109-.072-3.164-1.773-8.65-4.957-11.1-7.372a14.147,14.147,0,0,1-3.785-7.792,62.543,62.543,0,0,0,6.218-3.563,61.4,61.4,0,0,0,7.5-5.726,7.939,7.939,0,0,1,2.617,1.629c1.336,1.408,2.709,4.534,3.348,5.723a8.319,8.319,0,0,0,.512.824l.035.037c0,.017.02.017.037.055.055.072.147.2.147.2.072.109.164.182.311.366l.072.072a7.357,7.357,0,0,0,2.159,1.592,7.317,7.317,0,0,0,9.767-3.4,7.289,7.289,0,0,0-3.382-9.767,7.214,7.214,0,0,0-2.562-.711c-.072,0-.164-.02-.256-.02a.419.419,0,0,0-.147,0h-.055c-.035-.017-.089,0-.127-.017,0,0-.02.017-.075,0a.715.715,0,0,1-.181.017.214.214,0,0,0-.147,0h-.13c-.017.02-.055.02-.089.02a5.137,5.137,0,0,0-.915.126h-.055a28.065,28.065,0,0,1-6.016.4,5.3,5.3,0,0,1-1.482-.44,62.11,62.11,0,0,0,13.9-22.5,10.934,10.934,0,0,1,1.756,2.013c1.554,2.6,2.634,7.809,3.218,9.822a8.489,8.489,0,0,0,.53,1.408c0,.054,0,.074.02.092s.017.037.035.092c.075.127.184.366.184.366a5.982,5.982,0,0,0,.348.639.991.991,0,0,0,.072.147h.017a11.353,11.353,0,0,0,2.743,3.109,11.411,11.411,0,0,0,16.022-1.975,11.4,11.4,0,0,0-1.975-16.022,11.45,11.45,0,0,0-3.676-1.92c-.092-.017-.219-.072-.366-.11l-.219-.054a.293.293,0,0,1-.092-.02c-.055-.017-.147-.017-.184-.055a.406.406,0,0,1-.109-.018c-.109-.017-.2-.017-.273-.037s-.164-.035-.239-.055c-.035,0-.089-.018-.181-.018-.055,0-.092-.02-.147-.02a9.761,9.761,0,0,0-1.445-.109c-.037.02-.055,0-.092,0-2.559-.182-7.024-.564-9.309-1.353a13.818,13.818,0,0,1-4.537-3.181,62.653,62.653,0,0,0,1.246-19.462,12.085,12.085,0,0,1,5.743-.143c4.168.912,10.57,4.882,13.2,6.235a12.826,12.826,0,0,0,1.975.84.157.157,0,0,0,.109.055.494.494,0,0,1,.13.058c.181.055.53.164.53.164.256.089.512.147,1,.274a.706.706,0,0,0,.239.055v-.017a15.846,15.846,0,0,0,5.89.2,16.137,16.137,0,0,0,13.57-18.365Z" transform="translate(0 683)" fill="#5a4276" clip-rule="evenodd"/>
    </clipPath>
    <clipPath id="clip-path-2">
      <path id="Trazado_34382" data-name="Trazado 34382" d="M-773-1318.348H-53.349V-2038H-773Z" transform="translate(773 2038)" fill="#5a4276"/>
    </clipPath>
    <clipPath id="clip-path-3">
      <path id="Trazado_34383-2" data-name="Trazado 34383" d="M65.139-624.417a1.66,1.66,0,0,1-1.655-1.655,1.654,1.654,0,0,1,1.655-1.653,1.649,1.649,0,0,1,1.655,1.653A1.655,1.655,0,0,1,65.139-624.417Zm-5.361-17.068a5.874,5.874,0,0,1-5.874-5.874,5.876,5.876,0,0,1,5.874-5.882,5.878,5.878,0,0,1,5.882,5.882A5.876,5.876,0,0,1,59.778-641.485ZM53.9-629.248a3.79,3.79,0,0,1-3.79-3.791,3.79,3.79,0,0,1,3.79-3.789,3.789,3.789,0,0,1,3.789,3.789A3.79,3.79,0,0,1,53.9-629.248ZM43.6-653.862a3.276,3.276,0,0,1-3.276-3.268,3.279,3.279,0,0,1,3.276-3.276,3.274,3.274,0,0,1,3.276,3.276A3.271,3.271,0,0,1,43.6-653.862Zm-1.275,35.237a4.205,4.205,0,0,1-4.2-4.211,4.2,4.2,0,0,1,4.2-4.2,4.2,4.2,0,0,1,4.2,4.2A4.205,4.205,0,0,1,42.321-618.625ZM33.7-643.967a5,5,0,0,1,5.005-5,5,5,0,0,1,5,5,5,5,0,0,1-5,5A5,5,0,0,1,33.7-643.967Zm-4.823,9.623a1.24,1.24,0,0,1-1.242-1.242,1.24,1.24,0,0,1,1.242-1.241,1.24,1.24,0,0,1,1.241,1.241A1.24,1.24,0,0,1,28.878-634.344Zm67.17-13.288a7.311,7.311,0,0,0-8.314-6.138,7.408,7.408,0,0,0-2.516.869c-.049.034-.132.066-.215.125a.444.444,0,0,0-.124.074.161.161,0,0,0-.042.033c-.042.025-.074.049-.107.066,0,0-.025.017-.066.042a1.366,1.366,0,0,1-.141.107.483.483,0,0,0-.116.083.607.607,0,0,0-.1.082c-.026.017-.042.042-.066.059a5.476,5.476,0,0,0-.688.62.068.068,0,0,1-.04.042,28.882,28.882,0,0,1-4.733,3.732,5.815,5.815,0,0,1-2.664.6,28.41,28.41,0,0,0-3.582-8.223,3.318,3.318,0,0,1,.8-.174,13.723,13.723,0,0,1,2.93.588,2.637,2.637,0,0,0,.438.066l.026.009h.025c.04,0,.116.008.116.008a1.549,1.549,0,0,0,.215.008h.049v-.008a3.379,3.379,0,0,0,1.182-.247,3.318,3.318,0,0,0,1.78-4.336,3.308,3.308,0,0,0-4.328-1.779,3.309,3.309,0,0,0-1.009.661.569.569,0,0,0-.082.076.181.181,0,0,0-.042.049s-.008,0-.017.017-.033.033-.042.04l-.025.025c-.016.024-.033.042-.049.066a.117.117,0,0,0-.04.05.165.165,0,0,0-.034.042.086.086,0,0,1-.025.033,2.821,2.821,0,0,0-.232.348c-.008.017-.008.017-.017.025a13.167,13.167,0,0,1-1.671,2.16,3.689,3.689,0,0,1-1.108.587,28.141,28.141,0,0,0-5.775-5.783,5.674,5.674,0,0,1,1.357-1.961,21.259,21.259,0,0,1,4.078-2.044,4.453,4.453,0,0,0,.6-.314.125.125,0,0,0,.033-.025c.008,0,.017-.009.033-.017.059-.042.15-.1.15-.1.074-.049.133-.1.264-.2.017-.008.042-.033.059-.042a5.055,5.055,0,0,0,1.182-1.414,5.045,5.045,0,0,0-1.895-6.883,5.052,5.052,0,0,0-6.883,1.895,5.046,5.046,0,0,0-.6,1.737c0,.042-.017.1-.025.165,0,.034-.008.066-.008.1v.042c-.009.025-.009.059-.017.083a.091.091,0,0,1,0,.049v.124a.465.465,0,0,0-.008.108v.082a.174.174,0,0,1,.008.059,3.352,3.352,0,0,0,.042.644c.008.008.008.025.008.042a20.477,20.477,0,0,1,0,4.161,5.8,5.8,0,0,1-.952,1.986,28.506,28.506,0,0,0-10.8-3.673,1.3,1.3,0,0,1,.165-.232,13.713,13.713,0,0,1,2.383-1.813,3.134,3.134,0,0,0,.339-.281l.025-.016s0-.009.017-.017l.082-.084a.89.89,0,0,0,.141-.156.119.119,0,0,0,.034-.034,3.357,3.357,0,0,0,.6-1.051,3.311,3.311,0,0,0-2.06-4.2,3.3,3.3,0,0,0-4.2,2.051,3.481,3.481,0,0,0-.182,1.191.466.466,0,0,1,.008.116.15.15,0,0,0,.008.058v.025c0,.025.009.042.009.057v.034a.819.819,0,0,0,.017.082.217.217,0,0,0,.008.066.163.163,0,0,0,.008.057l.009.034a3,3,0,0,0,.107.4.06.06,0,0,1,.009.034,13.555,13.555,0,0,1,.513,2.68c0,.059-.009.14-.017.216a3.655,3.655,0,0,1-.827-1.026,14.062,14.062,0,0,1-.572-2.938,2.89,2.89,0,0,0-.108-.43v-.025l-.008-.025c-.017-.042-.042-.116-.042-.116a2.018,2.018,0,0,0-.074-.2.144.144,0,0,1-.017-.042,3.444,3.444,0,0,0-.686-.992,3.3,3.3,0,0,0-4.682,0,3.306,3.306,0,0,0,0,4.674,3.479,3.479,0,0,0,.992.686c.025.008.059.024.1.041.025.008.04.025.065.025a.041.041,0,0,0,.025.007.471.471,0,0,1,.051.025.075.075,0,0,1,.033.009.545.545,0,0,1,.074.024c.025.008.042.016.066.025a.507.507,0,0,0,.057.008l.034.009a2.637,2.637,0,0,0,.413.082l.026.008a13.536,13.536,0,0,1,2.63.712,28.247,28.247,0,0,0-12.021,3.077,6.2,6.2,0,0,1-1.986-3.226c-.4-1.895.017-5.271.083-6.611a6.639,6.639,0,0,0-.017-.969v-.065c-.008,0-.008-.025-.008-.051-.017-.09-.034-.255-.034-.255a3.994,3.994,0,0,0-.074-.464.771.771,0,0,1-.017-.108h-.008a7.233,7.233,0,0,0-1.026-2.457,7.3,7.3,0,0,0-10.11-2.126,7.305,7.305,0,0,0-2.126,10.11,7.4,7.4,0,0,0,1.837,1.929c.049.032.115.091.2.141a.492.492,0,0,0,.124.083.413.413,0,0,1,.042.024c.042.034.083.051.108.075a.357.357,0,0,1,.066.032c.057.033.107.059.156.091.034.025.083.049.125.074.025.009.057.025.116.05a.908.908,0,0,0,.082.042,6.184,6.184,0,0,0,.852.364.126.126,0,0,1,.051.016,29.508,29.508,0,0,1,5.361,2.755,6.369,6.369,0,0,1,2.043,3.153,28.608,28.608,0,0,0-4.458,4.186,3.8,3.8,0,0,1-1.332-.984A13.314,13.314,0,0,1,24.6-662.4a2.615,2.615,0,0,0-.2-.4.037.037,0,0,0-.008-.025l-.017-.024c-.017-.033-.057-.1-.057-.1-.026-.05-.059-.091-.116-.182l-.034-.034a3.218,3.218,0,0,0-.885-.818,3.312,3.312,0,0,0-4.567,1.042,3.31,3.31,0,0,0,1.043,4.559,3.141,3.141,0,0,0,1.116.447,1.071,1.071,0,0,0,.108.025c.025,0,.042.009.066.009h.025a.164.164,0,0,0,.057.008.089.089,0,0,1,.034.008h.082a.15.15,0,0,0,.066.009h.1a2.33,2.33,0,0,0,.414-.009h.025a12.976,12.976,0,0,1,2.731.116,3.786,3.786,0,0,1,1.273.678,28.547,28.547,0,0,0-3.639,6.66,5.486,5.486,0,0,1-1.978-.661A21.352,21.352,0,0,1,17-654.457a5.008,5.008,0,0,0-.5-.471.09.09,0,0,0-.025-.034c-.008,0-.017-.008-.033-.025-.049-.042-.141-.116-.141-.116a2.308,2.308,0,0,0-.273-.19.318.318,0,0,0-.057-.05v.008a5.147,5.147,0,0,0-1.746-.728,5.154,5.154,0,0,0-6.131,3.955,5.163,5.163,0,0,0,3.955,6.139,5.354,5.354,0,0,0,1.878.057c.041-.008.1-.017.174-.032a.435.435,0,0,0,.1-.017.251.251,0,0,0,.042-.008.263.263,0,0,1,.083-.017.208.208,0,0,1,.049-.017c.051-.008.083-.025.125-.033a.47.47,0,0,0,.1-.025c.017-.009.042-.017.082-.034a.125.125,0,0,0,.059-.016,4.952,4.952,0,0,0,.612-.241c.017-.008.025-.016.042-.016a20.908,20.908,0,0,1,4.061-1.283,5.743,5.743,0,0,1,1.788.19,28.483,28.483,0,0,0-.811,10.043,6.717,6.717,0,0,1-4.451,1.581c-1.936-.116-5.072-1.431-6.346-1.853a5.667,5.667,0,0,0-.943-.241c-.017-.015-.033-.015-.058-.024-.008.009-.025,0-.049-.008-.091-.008-.256-.034-.256-.034-.124-.023-.24-.032-.472-.057-.033,0-.074-.008-.108-.008l.008.008a7.306,7.306,0,0,0-2.647.323,7.3,7.3,0,0,0-4.765,9.167A7.3,7.3,0,0,0,9.509-623.8a7.313,7.313,0,0,0,2.341-1.242c.05-.04.124-.09.2-.156a1.3,1.3,0,0,0,.107-.1.168.168,0,0,0,.041-.033.868.868,0,0,1,.091-.083s.025-.023.058-.057l.124-.124a1.245,1.245,0,0,0,.108-.1c.017-.025.041-.051.083-.1a.406.406,0,0,1,.058-.065,7.017,7.017,0,0,0,.579-.72.1.1,0,0,1,.033-.049,29.533,29.533,0,0,1,4.1-4.427,6.588,6.588,0,0,1,4.029-1.125,28.412,28.412,0,0,0,2.689,6.206,2.582,2.582,0,0,1-.454.148,13.832,13.832,0,0,1-2.995-.108,3.7,3.7,0,0,0-.439,0h-.049c-.042.009-.116.017-.116.017a1.346,1.346,0,0,0-.215.025c-.017,0-.025.008-.042.008a3.576,3.576,0,0,0-1.134.439,3.321,3.321,0,0,0-1.066,4.559,3.306,3.306,0,0,0,4.559,1.068,3.256,3.256,0,0,0,.893-.811.839.839,0,0,0,.066-.083.291.291,0,0,1,.04-.057.063.063,0,0,1,.009-.025.165.165,0,0,1,.033-.042s.009-.016.017-.033a.306.306,0,0,0,.042-.066.234.234,0,0,0,.033-.057.139.139,0,0,0,.025-.051.079.079,0,0,0,.017-.04,1.561,1.561,0,0,0,.173-.382l.017-.025a13.3,13.3,0,0,1,1.3-2.4,2.624,2.624,0,0,1,.38-.348,28.042,28.042,0,0,0,6.113,6.478,4.755,4.755,0,0,1-1.241,1.629,16.922,16.922,0,0,1-3.309,1.383,3.886,3.886,0,0,0-.48.223c-.016,0-.025.009-.033.009s-.009.008-.025.016l-.125.074c-.057.034-.107.066-.215.141-.016.009-.033.017-.049.026l.008.008a3.929,3.929,0,0,0-1.009,1.042A3.964,3.964,0,0,0,26-607.713a3.966,3.966,0,0,0,5.5-1.125,4.16,4.16,0,0,0,.563-1.323c.008-.034.016-.083.025-.133a.256.256,0,0,0,.016-.083v-.024c.009-.025.009-.05.017-.065v-.042c.008-.042.008-.066.017-.1s.008-.05.008-.074v-.124a2.428,2.428,0,0,0,0-.5c-.008-.017,0-.025,0-.034a15.778,15.778,0,0,1,.215-3.267,4.871,4.871,0,0,1,1.026-1.714,28.654,28.654,0,0,0,9.416,3.84,3.116,3.116,0,0,1-.232.6c-.745,1.391-2.9,3.31-3.673,4.121a4.407,4.407,0,0,0-.513.62.132.132,0,0,0-.033.042.176.176,0,0,1-.026.033c-.049.067-.124.182-.124.182-.057.074-.1.157-.2.323a.612.612,0,0,0-.042.082h.008a5.133,5.133,0,0,0-.612,2.06c-.249,3.219,2.5,6.065,6.147,6.354s6.817-2.093,7.065-5.312a5.379,5.379,0,0,0-.264-2.126c-.017-.049-.042-.116-.066-.19a.726.726,0,0,0-.049-.108.087.087,0,0,0-.017-.042.915.915,0,0,0-.042-.1s-.008-.016-.025-.057-.042-.091-.066-.133a.3.3,0,0,0-.049-.107.913.913,0,0,0-.049-.091c-.017-.017-.025-.042-.042-.059a4.215,4.215,0,0,0-.413-.654c-.017-.016-.025-.025-.025-.042a23.272,23.272,0,0,1-2.375-4.392,2.8,2.8,0,0,1-.082-.456,28.246,28.246,0,0,0,9.555-1.067,6.508,6.508,0,0,1,1.994,3.856c.191,1.927-.6,5.236-.819,6.56a6.182,6.182,0,0,0-.082.967.149.149,0,0,0-.009.059c.009.008.009.025,0,.057v.257c0,.124.009.24.026.471,0,.034.008.083.008.108l.008-.008a7.277,7.277,0,0,0,.745,2.564,7.3,7.3,0,0,0,9.813,3.227,7.3,7.3,0,0,0,3.234-9.812,7.472,7.472,0,0,0-1.606-2.118c-.049-.033-.107-.1-.19-.166a1.161,1.161,0,0,0-.108-.091.173.173,0,0,1-.04-.033.433.433,0,0,1-.1-.083.153.153,0,0,1-.059-.042,1.778,1.778,0,0,1-.148-.1.7.7,0,0,0-.116-.091c-.025-.016-.059-.033-.108-.066a.342.342,0,0,0-.074-.04,4.653,4.653,0,0,0-.811-.456c-.016-.008-.033-.024-.049-.032a28.939,28.939,0,0,1-5.022-3.335,6.4,6.4,0,0,1-1.712-3.525,28.293,28.293,0,0,0,2.813-1.612,27.748,27.748,0,0,0,3.392-2.59,3.591,3.591,0,0,1,1.184.737,13.5,13.5,0,0,1,1.514,2.589,3.77,3.77,0,0,0,.232.373l.016.017c0,.008.009.008.017.025.025.032.066.091.066.091.033.049.074.082.141.165l.033.033a3.33,3.33,0,0,0,.977.72,3.31,3.31,0,0,0,4.418-1.539,3.3,3.3,0,0,0-1.53-4.418,3.268,3.268,0,0,0-1.159-.322c-.033,0-.074-.009-.116-.009a.193.193,0,0,0-.066,0h-.025c-.016-.008-.04,0-.057-.008,0,0-.009.008-.034,0a.329.329,0,0,1-.082.008.1.1,0,0,0-.066,0H72.94c-.008.009-.025.009-.04.009a2.323,2.323,0,0,0-.414.057h-.025a12.688,12.688,0,0,1-2.721.182,2.393,2.393,0,0,1-.671-.2,28.092,28.092,0,0,0,6.288-10.176,4.951,4.951,0,0,1,.794.91,21.749,21.749,0,0,1,1.456,4.443,3.837,3.837,0,0,0,.24.637c0,.025,0,.034.009.042s.008.017.016.042c.034.057.083.165.083.165a2.716,2.716,0,0,0,.158.289.441.441,0,0,0,.033.067h.008a5.139,5.139,0,0,0,1.241,1.406,5.162,5.162,0,0,0,7.248-.893,5.156,5.156,0,0,0-.893-7.248,5.176,5.176,0,0,0-1.663-.868c-.042-.008-.1-.033-.165-.05l-.1-.025a.131.131,0,0,1-.042-.009c-.025-.008-.066-.008-.083-.025a.183.183,0,0,1-.049-.008c-.049-.008-.091-.008-.124-.017s-.074-.016-.108-.025c-.016,0-.04-.008-.082-.008-.025,0-.042-.009-.066-.009a4.413,4.413,0,0,0-.654-.049c-.017.009-.025,0-.042,0a20.91,20.91,0,0,1-4.211-.612,6.255,6.255,0,0,1-2.052-1.439,28.34,28.34,0,0,0,.564-8.8,5.465,5.465,0,0,1,2.6-.065c1.885.413,4.781,2.208,5.973,2.82a5.8,5.8,0,0,0,.893.38.072.072,0,0,0,.049.025.225.225,0,0,1,.059.026l.24.074c.116.04.232.066.454.124a.32.32,0,0,0,.108.025v-.008a7.166,7.166,0,0,0,2.664.091,7.3,7.3,0,0,0,6.138-8.307Z" transform="translate(0 683)" fill="#5a4276" clip-rule="evenodd"/>
    </clipPath>
    <clipPath id="clip-path-4">
      <path id="Trazado_34382-2" data-name="Trazado 34382" d="M-773-1712.47h325.53V-2038H-773Z" transform="translate(773 2038)" fill="#5a4276"/>
    </clipPath>
    <clipPath id="clip-path-5">
      <path id="Trazado_34383-3" data-name="Trazado 34383" d="M41.265-645.888a1.052,1.052,0,0,1-1.048-1.049,1.048,1.048,0,0,1,1.048-1.047,1.044,1.044,0,0,1,1.048,1.047A1.048,1.048,0,0,1,41.265-645.888Zm-3.4-10.813a3.721,3.721,0,0,1-3.721-3.721,3.723,3.723,0,0,1,3.721-3.726,3.724,3.724,0,0,1,3.726,3.726A3.722,3.722,0,0,1,37.869-656.7Zm-3.721,7.752a2.4,2.4,0,0,1-2.4-2.4,2.4,2.4,0,0,1,2.4-2.4,2.4,2.4,0,0,1,2.4,2.4A2.4,2.4,0,0,1,34.148-648.949Zm-6.531-15.593a2.075,2.075,0,0,1-2.075-2.07,2.077,2.077,0,0,1,2.075-2.075,2.074,2.074,0,0,1,2.075,2.075A2.072,2.072,0,0,1,27.617-664.541Zm-.808,22.322a2.664,2.664,0,0,1-2.662-2.668,2.663,2.663,0,0,1,2.662-2.663,2.663,2.663,0,0,1,2.663,2.663A2.664,2.664,0,0,1,26.81-642.219Zm-5.461-16.054a3.167,3.167,0,0,1,3.171-3.165,3.166,3.166,0,0,1,3.165,3.165,3.166,3.166,0,0,1-3.165,3.166A3.168,3.168,0,0,1,21.349-658.273Zm-3.055,6.1a.786.786,0,0,1-.787-.787.786.786,0,0,1,.787-.786.786.786,0,0,1,.786.786A.786.786,0,0,1,18.294-652.177ZM60.845-660.6a4.632,4.632,0,0,0-5.267-3.889,4.69,4.69,0,0,0-1.594.55c-.031.021-.083.042-.136.079a.281.281,0,0,0-.078.047.1.1,0,0,0-.026.021c-.026.016-.047.031-.068.042l-.042.026a.883.883,0,0,1-.089.068.3.3,0,0,0-.073.053.384.384,0,0,0-.063.052c-.017.011-.026.026-.042.037a3.47,3.47,0,0,0-.436.393.043.043,0,0,1-.026.026,18.3,18.3,0,0,1-3,2.364,3.685,3.685,0,0,1-1.688.382,18,18,0,0,0-2.269-5.209,2.1,2.1,0,0,1,.508-.111,8.693,8.693,0,0,1,1.856.372,1.666,1.666,0,0,0,.277.042l.016.006h.016c.026,0,.073.005.073.005a.982.982,0,0,0,.136,0h.031v0a2.139,2.139,0,0,0,.749-.157,2.1,2.1,0,0,0,1.128-2.747A2.1,2.1,0,0,0,48-669.269a2.1,2.1,0,0,0-.639.419.357.357,0,0,0-.052.048.114.114,0,0,0-.026.031s0,0-.011.011l-.026.026-.016.016c-.01.016-.021.026-.031.042a.074.074,0,0,0-.026.031.1.1,0,0,0-.021.026.054.054,0,0,1-.016.021,1.783,1.783,0,0,0-.147.22c0,.011,0,.011-.011.016a8.339,8.339,0,0,1-1.058,1.368,2.336,2.336,0,0,1-.7.372,17.828,17.828,0,0,0-3.658-3.663,3.6,3.6,0,0,1,.86-1.242A13.47,13.47,0,0,1,45-672.822a2.817,2.817,0,0,0,.378-.2.078.078,0,0,0,.021-.016s.011-.006.021-.011c.037-.026.095-.063.095-.063.047-.031.084-.063.167-.126.011,0,.026-.021.037-.027a3.2,3.2,0,0,0,.749-.9,3.2,3.2,0,0,0-1.2-4.36,3.2,3.2,0,0,0-4.36,1.2,3.2,3.2,0,0,0-.383,1.1c0,.026-.011.063-.016.1,0,.021,0,.042,0,.063v.027c-.006.016-.006.037-.011.053a.058.058,0,0,1,0,.031v.078a.294.294,0,0,0,0,.069v.052a.111.111,0,0,1,0,.037,2.123,2.123,0,0,0,.026.408s0,.016,0,.027a12.972,12.972,0,0,1,0,2.636,3.674,3.674,0,0,1-.6,1.258,18.058,18.058,0,0,0-6.839-2.327.817.817,0,0,1,.1-.147A8.687,8.687,0,0,1,34.7-675a1.987,1.987,0,0,0,.214-.178l.016-.01s0-.006.011-.011l.052-.053a.561.561,0,0,0,.089-.1.076.076,0,0,0,.021-.022,2.127,2.127,0,0,0,.377-.666,2.1,2.1,0,0,0-1.3-2.662,2.092,2.092,0,0,0-2.662,1.3,2.206,2.206,0,0,0-.115.755.3.3,0,0,1,0,.073.1.1,0,0,0,0,.037v.016c0,.016.006.026.006.036v.021a.52.52,0,0,0,.011.052.138.138,0,0,0,0,.042.1.1,0,0,0,0,.036l.006.021a1.9,1.9,0,0,0,.068.256.038.038,0,0,1,.006.022,8.585,8.585,0,0,1,.325,1.7c0,.037-.006.089-.011.137a2.315,2.315,0,0,1-.524-.65,8.908,8.908,0,0,1-.362-1.861,1.832,1.832,0,0,0-.068-.272v-.016l0-.016c-.011-.026-.026-.073-.026-.073a1.284,1.284,0,0,0-.047-.126.092.092,0,0,1-.011-.026,2.181,2.181,0,0,0-.435-.629,2.09,2.09,0,0,0-2.966,0,2.094,2.094,0,0,0,0,2.961,2.2,2.2,0,0,0,.629.435c.016,0,.037.016.064.026s.026.016.041.016a.026.026,0,0,0,.016,0,.278.278,0,0,1,.032.016.048.048,0,0,1,.021.006.354.354,0,0,1,.047.016l.042.016a.322.322,0,0,0,.036,0l.021.006a1.663,1.663,0,0,0,.261.052l.016,0a8.574,8.574,0,0,1,1.666.451,17.894,17.894,0,0,0-7.615,1.949,3.925,3.925,0,0,1-1.258-2.043,19.278,19.278,0,0,1,.053-4.188,4.207,4.207,0,0,0-.011-.614v-.041s0-.016,0-.032c-.011-.057-.021-.162-.021-.162a2.532,2.532,0,0,0-.047-.294.489.489,0,0,1-.011-.068h0a4.581,4.581,0,0,0-.65-1.557,4.624,4.624,0,0,0-6.4-1.347,4.628,4.628,0,0,0-1.347,6.4,4.686,4.686,0,0,0,1.164,1.222c.031.021.073.058.125.089a.313.313,0,0,0,.078.053.271.271,0,0,1,.026.015c.026.021.053.032.068.048a.23.23,0,0,1,.042.021c.036.021.068.037.1.058s.053.031.079.047l.073.031c.016.011.031.015.052.026A3.908,3.908,0,0,0,15.3-674a.08.08,0,0,1,.032.01,18.692,18.692,0,0,1,3.4,1.745,4.035,4.035,0,0,1,1.294,2A18.122,18.122,0,0,0,17.2-667.6a2.407,2.407,0,0,1-.844-.624,8.434,8.434,0,0,1-.77-1.73,1.655,1.655,0,0,0-.126-.252.024.024,0,0,0,0-.016l-.011-.016c-.011-.021-.036-.063-.036-.063-.016-.031-.037-.058-.073-.115l-.021-.021a2.039,2.039,0,0,0-.561-.518,2.1,2.1,0,0,0-2.893.66,2.1,2.1,0,0,0,.661,2.888,1.99,1.99,0,0,0,.707.283.677.677,0,0,0,.068.016c.016,0,.026.006.042.006h.016a.105.105,0,0,0,.036.005.056.056,0,0,1,.021.005h.052a.1.1,0,0,0,.042.006h.063a1.472,1.472,0,0,0,.262-.006h.016a8.211,8.211,0,0,1,1.73.073,2.4,2.4,0,0,1,.807.43,18.085,18.085,0,0,0-2.306,4.219,3.477,3.477,0,0,1-1.253-.419,13.526,13.526,0,0,1-2.054-2.133,3.178,3.178,0,0,0-.315-.3.057.057,0,0,0-.016-.021s-.011-.005-.021-.016l-.089-.073a1.473,1.473,0,0,0-.173-.12.2.2,0,0,0-.036-.031v.005a3.26,3.26,0,0,0-1.106-.461,3.265,3.265,0,0,0-3.884,2.505,3.271,3.271,0,0,0,2.505,3.889,3.394,3.394,0,0,0,1.19.036l.11-.021A.277.277,0,0,0,9-659.536l.026,0a.166.166,0,0,1,.052-.011.131.131,0,0,1,.031-.011c.032,0,.053-.016.079-.021a.294.294,0,0,0,.063-.016c.011-.006.026-.011.052-.021a.08.08,0,0,0,.037-.01,3.146,3.146,0,0,0,.388-.153c.011,0,.016-.01.026-.01a13.245,13.245,0,0,1,2.573-.812,3.64,3.64,0,0,1,1.133.121,18.044,18.044,0,0,0-.514,6.362,4.255,4.255,0,0,1-2.819,1,19.244,19.244,0,0,1-4.02-1.174,3.583,3.583,0,0,0-.6-.153c-.01-.01-.021-.01-.037-.016s-.016,0-.031-.005c-.058,0-.162-.021-.162-.021-.079-.015-.152-.021-.3-.036-.021,0-.047,0-.068,0l.005,0a4.629,4.629,0,0,0-1.677.2,4.624,4.624,0,0,0-3.019,5.807,4.622,4.622,0,0,0,5.807,3.019,4.634,4.634,0,0,0,1.483-.787c.032-.025.079-.057.126-.1a.81.81,0,0,0,.068-.063.108.108,0,0,0,.026-.021.539.539,0,0,1,.057-.053l.037-.036.079-.078a.8.8,0,0,0,.068-.063c.01-.016.026-.032.052-.064a.252.252,0,0,1,.037-.041,4.451,4.451,0,0,0,.367-.456.064.064,0,0,1,.021-.031,18.709,18.709,0,0,1,2.594-2.8,4.174,4.174,0,0,1,2.552-.713,18,18,0,0,0,1.7,3.931,1.626,1.626,0,0,1-.288.094,8.758,8.758,0,0,1-1.9-.069,2.353,2.353,0,0,0-.278,0H12.8c-.026.006-.073.011-.073.011a.847.847,0,0,0-.136.016c-.011,0-.016,0-.026,0a2.262,2.262,0,0,0-.718.278,2.1,2.1,0,0,0-.676,2.888,2.094,2.094,0,0,0,2.888.676,2.064,2.064,0,0,0,.566-.514.543.543,0,0,0,.042-.053.185.185,0,0,1,.026-.036.04.04,0,0,1,.006-.016.1.1,0,0,1,.021-.026s.006-.01.011-.021a.192.192,0,0,0,.026-.042.149.149,0,0,0,.021-.036.089.089,0,0,0,.016-.032.05.05,0,0,0,.011-.026.989.989,0,0,0,.11-.242l.011-.016a8.425,8.425,0,0,1,.823-1.519,1.661,1.661,0,0,1,.241-.22,17.767,17.767,0,0,0,3.873,4.1,3.012,3.012,0,0,1-.786,1.032,10.717,10.717,0,0,1-2.1.876,2.468,2.468,0,0,0-.3.141c-.01,0-.016.006-.021.006s-.006,0-.016.01l-.079.047c-.036.022-.068.042-.136.089l-.031.017,0,0a2.487,2.487,0,0,0-.639.66,2.511,2.511,0,0,0,.713,3.48,2.512,2.512,0,0,0,3.486-.713,2.636,2.636,0,0,0,.356-.838c0-.021.01-.053.016-.084a.162.162,0,0,0,.01-.053v-.016c.006-.016.006-.031.011-.041v-.026c0-.027,0-.042.011-.063s0-.031,0-.047v-.078a1.539,1.539,0,0,0,0-.314c0-.011,0-.016,0-.022a9.994,9.994,0,0,1,.136-2.07,3.085,3.085,0,0,1,.65-1.086,18.154,18.154,0,0,0,5.965,2.433,1.975,1.975,0,0,1-.147.382,15.707,15.707,0,0,1-2.327,2.611,2.79,2.79,0,0,0-.325.393.083.083,0,0,0-.021.026.111.111,0,0,1-.017.021c-.031.042-.078.116-.078.116-.036.047-.063.1-.125.2a.387.387,0,0,0-.026.052h0a3.251,3.251,0,0,0-.388,1.3,3.98,3.98,0,0,0,3.894,4.026,3.97,3.97,0,0,0,4.476-3.365,3.408,3.408,0,0,0-.167-1.347c-.011-.031-.026-.074-.042-.12a.462.462,0,0,0-.031-.068.055.055,0,0,0-.011-.026.566.566,0,0,0-.026-.063s0-.01-.016-.036-.026-.058-.042-.084a.192.192,0,0,0-.031-.068.586.586,0,0,0-.031-.058c-.011-.011-.016-.026-.026-.037a2.669,2.669,0,0,0-.261-.414c-.011-.01-.016-.016-.016-.026a14.745,14.745,0,0,1-1.5-2.782,1.774,1.774,0,0,1-.052-.289,17.892,17.892,0,0,0,6.053-.676,4.123,4.123,0,0,1,1.263,2.443,19.248,19.248,0,0,1-.519,4.156,3.915,3.915,0,0,0-.052.613.094.094,0,0,0-.006.037c.006.005.006.016,0,.036v.163c0,.078.006.152.016.3,0,.022,0,.053,0,.069l0,0a4.61,4.61,0,0,0,.472,1.624,4.624,4.624,0,0,0,6.216,2.044,4.622,4.622,0,0,0,2.049-6.216,4.735,4.735,0,0,0-1.017-1.342c-.031-.021-.068-.063-.12-.1a.718.718,0,0,0-.068-.058.111.111,0,0,1-.026-.021.276.276,0,0,1-.063-.053.1.1,0,0,1-.037-.026,1.116,1.116,0,0,1-.094-.063.446.446,0,0,0-.073-.058c-.016-.01-.037-.021-.068-.042a.217.217,0,0,0-.047-.025,2.948,2.948,0,0,0-.514-.289c-.01,0-.021-.016-.031-.021a18.331,18.331,0,0,1-3.182-2.113,4.054,4.054,0,0,1-1.085-2.233,17.933,17.933,0,0,0,1.782-1.021,17.582,17.582,0,0,0,2.149-1.641,2.276,2.276,0,0,1,.75.467,8.552,8.552,0,0,1,.959,1.64,2.392,2.392,0,0,0,.147.236l.01.011s.006,0,.011.016l.042.058c.021.031.047.052.089.1l.021.021a2.109,2.109,0,0,0,.619.456,2.1,2.1,0,0,0,2.8-.975,2.089,2.089,0,0,0-.969-2.8,2.07,2.07,0,0,0-.734-.2c-.021,0-.047-.006-.073-.006a.124.124,0,0,0-.042,0H46.4c-.01,0-.026,0-.036,0s-.006,0-.021,0a.211.211,0,0,1-.052,0,.063.063,0,0,0-.042,0h-.037c0,.006-.016.006-.026.006a1.468,1.468,0,0,0-.262.036H45.9a8.043,8.043,0,0,1-1.724.115,1.518,1.518,0,0,1-.425-.126,17.8,17.8,0,0,0,3.983-6.446,3.135,3.135,0,0,1,.5.577,13.777,13.777,0,0,1,.922,2.815,2.43,2.43,0,0,0,.152.4c0,.016,0,.021.006.026s0,.011.01.026c.021.036.053.1.053.1a1.712,1.712,0,0,0,.1.183.281.281,0,0,0,.021.042h0a3.255,3.255,0,0,0,.786.891,3.27,3.27,0,0,0,4.591-.566,3.266,3.266,0,0,0-.566-4.591,3.28,3.28,0,0,0-1.053-.55c-.026-.005-.063-.021-.1-.031l-.063-.016a.083.083,0,0,1-.026-.006c-.016,0-.042,0-.053-.016a.115.115,0,0,1-.031-.005c-.031,0-.058,0-.078-.011l-.068-.016c-.01,0-.026,0-.052,0s-.026-.006-.042-.006a2.79,2.79,0,0,0-.414-.031c-.011.006-.016,0-.026,0a13.251,13.251,0,0,1-2.668-.388,3.961,3.961,0,0,1-1.3-.911,17.954,17.954,0,0,0,.357-5.577,3.462,3.462,0,0,1,1.646-.041,19.328,19.328,0,0,1,3.784,1.787,3.678,3.678,0,0,0,.566.241.045.045,0,0,0,.031.016.143.143,0,0,1,.037.016l.152.047c.073.026.147.042.288.078a.2.2,0,0,0,.068.016v0a4.542,4.542,0,0,0,1.688.058,4.624,4.624,0,0,0,3.888-5.263Z" transform="translate(0 683)" fill="#5a4276" clip-rule="evenodd"/>
    </clipPath>
    <clipPath id="clip-path-6">
      <path id="Trazado_34382-3" data-name="Trazado 34382" d="M-773-1831.78h206.22V-2038H-773Z" transform="translate(773 2038)" fill="#5a4276"/>
    </clipPath>
    <clipPath id="clip-path-7">
      <path id="Trazado_34383-4" data-name="Trazado 34383" d="M108.4-585.51a2.763,2.763,0,0,1-2.754-2.754,2.752,2.752,0,0,1,2.754-2.752,2.744,2.744,0,0,1,2.754,2.752A2.754,2.754,0,0,1,108.4-585.51Zm-8.921-28.4a9.776,9.776,0,0,1-9.775-9.775,9.779,9.779,0,0,1,9.775-9.788,9.782,9.782,0,0,1,9.788,9.788A9.779,9.779,0,0,1,99.479-613.914ZM89.7-593.549a6.307,6.307,0,0,1-6.308-6.308,6.307,6.307,0,0,1,6.308-6.306,6.306,6.306,0,0,1,6.306,6.306A6.307,6.307,0,0,1,89.7-593.549ZM72.549-634.51a5.452,5.452,0,0,1-5.452-5.439,5.456,5.456,0,0,1,5.452-5.452A5.448,5.448,0,0,1,78-639.949,5.444,5.444,0,0,1,72.549-634.51Zm-2.121,58.639a7,7,0,0,1-6.993-7.008,7,7,0,0,1,6.993-6.995,7,7,0,0,1,6.995,6.995A7,7,0,0,1,70.428-575.872ZM56.083-618.044a8.319,8.319,0,0,1,8.33-8.315,8.316,8.316,0,0,1,8.314,8.315,8.318,8.318,0,0,1-8.314,8.317A8.321,8.321,0,0,1,56.083-618.044ZM48.057-602.03a2.064,2.064,0,0,1-2.067-2.067,2.064,2.064,0,0,1,2.067-2.065,2.064,2.064,0,0,1,2.065,2.065A2.064,2.064,0,0,1,48.057-602.03Zm111.78-22.114A12.167,12.167,0,0,0,146-634.359a12.314,12.314,0,0,0-4.186,1.445c-.082.056-.219.11-.358.208a.735.735,0,0,0-.206.124.273.273,0,0,0-.069.054c-.069.041-.124.082-.178.111,0,0-.041.028-.111.069a2.288,2.288,0,0,1-.234.177.79.79,0,0,0-.193.139,1,1,0,0,0-.165.137c-.043.028-.069.069-.111.1a9.131,9.131,0,0,0-1.144,1.031.111.111,0,0,1-.067.069c-2.024,1.859-5.578,5.025-7.877,6.211a9.67,9.67,0,0,1-4.433,1,47.281,47.281,0,0,0-5.961-13.684,5.533,5.533,0,0,1,1.335-.29,22.811,22.811,0,0,1,4.876.978,4.421,4.421,0,0,0,.728.11l.043.015h.041c.067,0,.193.013.193.013a2.614,2.614,0,0,0,.358.013h.082v-.013a5.629,5.629,0,0,0,1.968-.412,5.521,5.521,0,0,0,2.962-7.216,5.5,5.5,0,0,0-7.2-2.96,5.512,5.512,0,0,0-1.679,1.1.933.933,0,0,0-.137.126.3.3,0,0,0-.069.082s-.013,0-.028.028-.054.054-.069.067l-.041.042c-.026.041-.054.07-.082.11a.193.193,0,0,0-.067.082.276.276,0,0,0-.056.069.141.141,0,0,1-.041.054,4.729,4.729,0,0,0-.386.579c-.013.028-.013.028-.028.041a21.9,21.9,0,0,1-2.78,3.595,6.14,6.14,0,0,1-1.844.977,46.833,46.833,0,0,0-9.61-9.623,9.439,9.439,0,0,1,2.258-3.263c1.721-1.42,5.4-2.754,6.787-3.4a7.423,7.423,0,0,0,.992-.522.2.2,0,0,0,.054-.041c.013,0,.028-.015.054-.028.1-.069.249-.165.249-.165.124-.082.221-.167.44-.331.028-.013.069-.054.1-.069a8.409,8.409,0,0,0,1.968-2.353,8.4,8.4,0,0,0-3.153-11.454,8.407,8.407,0,0,0-11.454,3.153,8.4,8.4,0,0,0-1.005,2.891c0,.069-.028.165-.041.275,0,.056-.013.111-.013.165v.069c-.015.041-.015.1-.028.139a.152.152,0,0,1,0,.082v.206a.771.771,0,0,0-.013.18v.137a.288.288,0,0,1,.013.1,5.573,5.573,0,0,0,.069,1.072c.013.013.013.041.013.07a34.08,34.08,0,0,1,0,6.925,9.653,9.653,0,0,1-1.584,3.3,47.446,47.446,0,0,0-17.966-6.113,2.172,2.172,0,0,1,.275-.386,22.841,22.841,0,0,1,3.965-3.017,5.175,5.175,0,0,0,.563-.468l.041-.026s0-.015.028-.028l.136-.139a1.5,1.5,0,0,0,.234-.26.2.2,0,0,0,.056-.057,5.591,5.591,0,0,0,.99-1.749,5.51,5.51,0,0,0-3.428-6.993,5.5,5.5,0,0,0-6.993,3.413,5.794,5.794,0,0,0-.3,1.983.779.779,0,0,1,.013.193.251.251,0,0,0,.013.1v.041c0,.041.015.07.015.1v.056a1.352,1.352,0,0,0,.028.136.364.364,0,0,0,.013.111.27.27,0,0,0,.013.095l.015.057a4.994,4.994,0,0,0,.178.673.1.1,0,0,1,.015.057,22.555,22.555,0,0,1,.854,4.459c0,.1-.015.234-.028.36a6.079,6.079,0,0,1-1.376-1.707,23.408,23.408,0,0,1-.951-4.889,4.814,4.814,0,0,0-.18-.715v-.041l-.013-.041c-.028-.069-.069-.193-.069-.193a3.373,3.373,0,0,0-.124-.331.239.239,0,0,1-.028-.069,5.733,5.733,0,0,0-1.142-1.651,5.49,5.49,0,0,0-7.792,0,5.5,5.5,0,0,0,0,7.779,5.778,5.778,0,0,0,1.651,1.142c.041.013.1.041.167.069.041.013.067.042.108.042a.068.068,0,0,0,.041.013.752.752,0,0,1,.085.042.126.126,0,0,1,.054.015.93.93,0,0,1,.124.041c.041.013.069.026.111.041a.856.856,0,0,0,.1.013l.056.015a4.392,4.392,0,0,0,.687.137l.043.013a22.538,22.538,0,0,1,4.377,1.185,47.013,47.013,0,0,0-20,5.121,10.311,10.311,0,0,1-3.3-5.368c-.674-3.152.028-8.772.139-11a11.047,11.047,0,0,0-.028-1.612v-.108c-.013,0-.013-.041-.013-.085-.028-.149-.056-.425-.056-.425a6.634,6.634,0,0,0-.124-.771,1.284,1.284,0,0,1-.028-.18H56.1a12.033,12.033,0,0,0-1.708-4.089,12.147,12.147,0,0,0-16.824-3.539,12.157,12.157,0,0,0-3.539,16.824,12.313,12.313,0,0,0,3.058,3.209c.082.054.191.152.329.234a.815.815,0,0,0,.206.138.724.724,0,0,1,.069.039c.069.056.139.084.18.126a.584.584,0,0,1,.111.054c.1.055.178.1.26.152.056.041.139.082.208.124.041.015.1.041.193.082a1.4,1.4,0,0,0,.137.07,10.292,10.292,0,0,0,1.417.606.206.206,0,0,1,.085.026c2.518,1.075,6.884,2.988,8.921,4.585a10.6,10.6,0,0,1,3.4,5.247,47.6,47.6,0,0,0-7.419,6.967,6.325,6.325,0,0,1-2.217-1.638,22.149,22.149,0,0,1-2.024-4.544,4.358,4.358,0,0,0-.332-.661.063.063,0,0,0-.013-.041l-.028-.041c-.028-.054-.1-.165-.1-.165-.043-.082-.1-.152-.193-.3l-.056-.056a5.353,5.353,0,0,0-1.473-1.361,5.511,5.511,0,0,0-7.6,1.733,5.508,5.508,0,0,0,1.736,7.587,5.231,5.231,0,0,0,1.857.743,1.713,1.713,0,0,0,.18.041c.041,0,.069.015.111.015h.041a.276.276,0,0,0,.1.013.15.15,0,0,1,.056.013h.137a.246.246,0,0,0,.111.015h.165a3.87,3.87,0,0,0,.689-.015h.041a21.578,21.578,0,0,1,4.544.193,6.293,6.293,0,0,1,2.119,1.129A47.5,47.5,0,0,0,36.973-628.8a9.133,9.133,0,0,1-3.292-1.1c-1.9-1.254-4.351-4.42-5.4-5.6a8.336,8.336,0,0,0-.828-.784.149.149,0,0,0-.041-.056c-.013,0-.028-.013-.054-.041-.082-.069-.234-.193-.234-.193a3.768,3.768,0,0,0-.455-.317.513.513,0,0,0-.1-.082v.013a8.575,8.575,0,0,0-2.906-1.211,8.577,8.577,0,0,0-10.2,6.581,8.592,8.592,0,0,0,6.582,10.217,8.9,8.9,0,0,0,3.125.1c.069-.013.165-.028.289-.054a.732.732,0,0,0,.165-.028.415.415,0,0,0,.069-.013.437.437,0,0,1,.138-.028.357.357,0,0,1,.082-.028c.085-.013.139-.041.208-.054a.775.775,0,0,0,.165-.041c.028-.015.069-.028.137-.056a.21.21,0,0,0,.1-.026,8.264,8.264,0,0,0,1.018-.4c.028-.013.041-.026.069-.026a34.77,34.77,0,0,1,6.759-2.134,9.559,9.559,0,0,1,2.975.317A47.4,47.4,0,0,0,34-607.14c-3.207,2.356-5.712,2.741-7.406,2.63-3.222-.193-8.44-2.381-10.56-3.083a9.419,9.419,0,0,0-1.569-.4c-.028-.026-.055-.026-.1-.041-.014.015-.041,0-.082-.013-.152-.013-.427-.056-.427-.056-.207-.039-.4-.054-.785-.1-.055,0-.124-.013-.179-.013l.014.013a12.154,12.154,0,0,0-4.406.537A12.146,12.146,0,0,0,.57-592.407a12.141,12.141,0,0,0,15.255,7.931,12.167,12.167,0,0,0,3.9-2.067c.083-.067.207-.149.331-.26a2.127,2.127,0,0,0,.179-.167.287.287,0,0,0,.069-.054,1.4,1.4,0,0,1,.151-.139s.042-.039.1-.1l.207-.206a2.073,2.073,0,0,0,.179-.165c.028-.041.069-.084.138-.167a.682.682,0,0,1,.1-.108,11.713,11.713,0,0,0,.964-1.2.17.17,0,0,1,.055-.082c1.708-2.135,4.722-5.825,6.816-7.367a10.965,10.965,0,0,1,6.7-1.872A47.282,47.282,0,0,0,40.18-588.1a4.277,4.277,0,0,1-.756.247,23.008,23.008,0,0,1-4.984-.18,6.089,6.089,0,0,0-.73,0h-.082c-.069.015-.193.028-.193.028a2.229,2.229,0,0,0-.358.041c-.028,0-.041.013-.069.013a5.95,5.95,0,0,0-1.887.73,5.527,5.527,0,0,0-1.775,7.586,5.5,5.5,0,0,0,7.586,1.777,5.422,5.422,0,0,0,1.486-1.35,1.409,1.409,0,0,0,.111-.139.484.484,0,0,1,.067-.1.1.1,0,0,1,.015-.041.273.273,0,0,1,.054-.069s.015-.026.028-.055a.517.517,0,0,0,.069-.11.394.394,0,0,0,.054-.1.233.233,0,0,0,.041-.085.129.129,0,0,0,.028-.067,2.59,2.59,0,0,0,.288-.635l.028-.041a22.122,22.122,0,0,1,2.163-3.991,4.349,4.349,0,0,1,.633-.579,46.664,46.664,0,0,0,10.174,10.78,7.909,7.909,0,0,1-2.065,2.711c-1.417,1.006-4.377,1.873-5.506,2.3a6.487,6.487,0,0,0-.8.371c-.026,0-.041.015-.054.015s-.015.013-.041.026l-.208.123c-.1.057-.178.111-.358.234-.026.015-.054.028-.082.043l.013.013a6.535,6.535,0,0,0-1.679,1.734,6.6,6.6,0,0,0,1.872,9.142,6.6,6.6,0,0,0,9.157-1.872,6.925,6.925,0,0,0,.936-2.2c.013-.056.026-.138.041-.221a.427.427,0,0,0,.026-.139v-.041c.015-.041.015-.082.028-.108v-.07c.013-.069.013-.11.028-.167,0-.041.013-.082.013-.124v-.206a4.042,4.042,0,0,0,0-.826c-.013-.028,0-.041,0-.057a26.255,26.255,0,0,1,.358-5.437,8.109,8.109,0,0,1,1.708-2.852,47.683,47.683,0,0,0,15.669,6.39,5.192,5.192,0,0,1-.386,1c-1.239,2.314-4.819,5.508-6.113,6.859a7.341,7.341,0,0,0-.854,1.031.218.218,0,0,0-.054.069.294.294,0,0,1-.043.054c-.082.111-.206.3-.206.3-.1.124-.165.262-.329.537a1.027,1.027,0,0,0-.069.136h.013a8.543,8.543,0,0,0-1.018,3.428c-.414,5.357,4.158,10.094,10.23,10.575s11.344-3.483,11.758-8.839a8.953,8.953,0,0,0-.44-3.538c-.028-.082-.069-.193-.111-.316a1.182,1.182,0,0,0-.082-.18.144.144,0,0,0-.028-.069,1.5,1.5,0,0,0-.069-.165s-.013-.026-.041-.1-.069-.151-.111-.221a.5.5,0,0,0-.082-.178,1.534,1.534,0,0,0-.082-.152c-.028-.028-.041-.069-.069-.1a7.017,7.017,0,0,0-.687-1.088c-.028-.026-.041-.041-.041-.069-1.239-1.926-3.346-5.3-3.952-7.309a4.658,4.658,0,0,1-.137-.758,47,47,0,0,0,15.9-1.775,10.83,10.83,0,0,1,3.318,6.416c.319,3.207-1,8.713-1.363,10.917a10.288,10.288,0,0,0-.137,1.61.249.249,0,0,0-.015.1c.015.013.015.041,0,.1v.427c0,.206.015.4.043.784,0,.056.013.139.013.18l.013-.013a12.114,12.114,0,0,0,1.239,4.267,12.146,12.146,0,0,0,16.33,5.37,12.14,12.14,0,0,0,5.383-16.328,12.438,12.438,0,0,0-2.672-3.525c-.082-.054-.178-.165-.316-.275a1.942,1.942,0,0,0-.18-.152.3.3,0,0,1-.067-.054.726.726,0,0,1-.165-.139.253.253,0,0,1-.1-.07,2.814,2.814,0,0,1-.247-.164,1.152,1.152,0,0,0-.193-.151c-.041-.026-.1-.054-.18-.111a.57.57,0,0,0-.124-.067,7.742,7.742,0,0,0-1.35-.759c-.026-.013-.054-.041-.082-.054-2.381-1.335-6.512-3.731-8.358-5.55a10.65,10.65,0,0,1-2.849-5.865,47.091,47.091,0,0,0,4.681-2.682,46.222,46.222,0,0,0,5.645-4.311,5.977,5.977,0,0,1,1.97,1.227,22.457,22.457,0,0,1,2.52,4.308,6.262,6.262,0,0,0,.386.62l.026.028c0,.013.015.013.028.041.041.054.111.151.111.151.054.082.124.137.234.275l.054.054a5.538,5.538,0,0,0,1.625,1.2,5.508,5.508,0,0,0,7.352-2.561,5.487,5.487,0,0,0-2.546-7.352,5.431,5.431,0,0,0-1.929-.535c-.054,0-.124-.015-.193-.015a.315.315,0,0,0-.111,0h-.041c-.026-.013-.067,0-.1-.013,0,0-.015.013-.056,0a.537.537,0,0,1-.137.013.161.161,0,0,0-.111,0h-.1c-.013.015-.041.015-.067.015a3.869,3.869,0,0,0-.689.1h-.041a21.128,21.128,0,0,1-4.529.3,3.989,3.989,0,0,1-1.116-.332A46.755,46.755,0,0,0,125.4-596.015a8.229,8.229,0,0,1,1.322,1.515c1.17,1.954,1.983,5.879,2.423,7.393a6.39,6.39,0,0,0,.4,1.06c0,.041,0,.056.015.069s.013.028.026.069c.056.1.139.275.139.275a4.5,4.5,0,0,0,.262.481.746.746,0,0,0,.054.111h.013a8.546,8.546,0,0,0,2.065,2.34,8.59,8.59,0,0,0,12.061-1.487,8.58,8.58,0,0,0-1.487-12.061,8.619,8.619,0,0,0-2.767-1.445c-.069-.013-.165-.054-.275-.083l-.165-.041a.221.221,0,0,1-.069-.015c-.041-.013-.111-.013-.139-.041a.305.305,0,0,1-.082-.013c-.082-.013-.152-.013-.206-.028s-.124-.026-.18-.041c-.026,0-.067-.013-.137-.013-.041,0-.069-.015-.111-.015a7.35,7.35,0,0,0-1.088-.082c-.028.015-.041,0-.069,0a34.77,34.77,0,0,1-7.008-1.019,10.4,10.4,0,0,1-3.415-2.394,47.163,47.163,0,0,0,.938-14.651,9.1,9.1,0,0,1,4.323-.108c3.138.687,7.957,3.675,9.94,4.693a9.653,9.653,0,0,0,1.486.632.118.118,0,0,0,.082.041.371.371,0,0,1,.1.043l.4.123c.193.067.386.111.756.206a.531.531,0,0,0,.18.041v-.013a11.929,11.929,0,0,0,4.434.151,12.147,12.147,0,0,0,10.215-13.825Z" transform="translate(0 683)" fill="#f56b6b" clip-rule="evenodd"/>
    </clipPath>
    <clipPath id="clip-path-8">
      <path id="Trazado_34382-4" data-name="Trazado 34382" d="M-773-1496.272h541.727V-2038H-773Z" transform="translate(773 2038)" fill="#f56b6b"/>
    </clipPath>
    <clipPath id="clip-path-9">
      <path id="Trazado_34383-5" data-name="Trazado 34383" d="M49.034-638.9a1.25,1.25,0,0,1-1.246-1.246,1.245,1.245,0,0,1,1.246-1.245,1.241,1.241,0,0,1,1.246,1.245A1.246,1.246,0,0,1,49.034-638.9ZM45-651.749a4.422,4.422,0,0,1-4.422-4.422A4.423,4.423,0,0,1,45-660.6a4.425,4.425,0,0,1,4.428,4.427A4.423,4.423,0,0,1,45-651.749Zm-4.422,9.212a2.853,2.853,0,0,1-2.853-2.853,2.853,2.853,0,0,1,2.853-2.852,2.853,2.853,0,0,1,2.852,2.852A2.853,2.853,0,0,1,40.577-642.537Zm-7.76-18.529a2.466,2.466,0,0,1-2.466-2.46,2.468,2.468,0,0,1,2.466-2.466,2.464,2.464,0,0,1,2.466,2.466A2.462,2.462,0,0,1,32.817-661.066Zm-.96,26.525a3.165,3.165,0,0,1-3.163-3.17,3.164,3.164,0,0,1,3.163-3.164,3.164,3.164,0,0,1,3.164,3.164A3.166,3.166,0,0,1,31.858-634.541Zm-6.489-19.076a3.763,3.763,0,0,1,3.768-3.761,3.762,3.762,0,0,1,3.761,3.761,3.763,3.763,0,0,1-3.761,3.762A3.764,3.764,0,0,1,25.369-653.617Zm-3.631,7.244a.934.934,0,0,1-.935-.935.934.934,0,0,1,.935-.934.933.933,0,0,1,.934.934A.934.934,0,0,1,21.738-646.374Zm50.563-10A5.5,5.5,0,0,0,66.043-661a5.576,5.576,0,0,0-1.894.654c-.037.025-.1.05-.162.094a.334.334,0,0,0-.093.056.121.121,0,0,0-.031.025c-.031.019-.056.037-.08.05,0,0-.019.013-.05.031a1.024,1.024,0,0,1-.106.08.362.362,0,0,0-.087.063.456.456,0,0,0-.074.062c-.02.013-.031.031-.05.044a4.124,4.124,0,0,0-.518.467.051.051,0,0,1-.03.031,21.741,21.741,0,0,1-3.563,2.809,4.378,4.378,0,0,1-2.005.454,21.386,21.386,0,0,0-2.7-6.19,2.5,2.5,0,0,1,.6-.131,10.327,10.327,0,0,1,2.205.442,1.989,1.989,0,0,0,.329.05l.02.007h.019c.03,0,.087.006.087.006a1.17,1.17,0,0,0,.162.006h.037v-.006a2.543,2.543,0,0,0,.89-.186,2.5,2.5,0,0,0,1.34-3.264,2.49,2.49,0,0,0-3.258-1.339,2.492,2.492,0,0,0-.76.5.429.429,0,0,0-.062.057.136.136,0,0,0-.031.037s-.006,0-.013.013-.025.025-.031.03l-.019.019c-.012.018-.025.031-.037.05a.088.088,0,0,0-.03.037.124.124,0,0,0-.025.031.064.064,0,0,1-.019.025,2.121,2.121,0,0,0-.174.262c-.006.013-.006.013-.013.019a9.913,9.913,0,0,1-1.258,1.626,2.778,2.778,0,0,1-.834.442,21.184,21.184,0,0,0-4.347-4.353,4.272,4.272,0,0,1,1.021-1.476,16,16,0,0,1,3.07-1.539,3.349,3.349,0,0,0,.449-.236.093.093,0,0,0,.025-.019c.006,0,.013-.007.025-.013.044-.031.113-.075.113-.075.056-.037.1-.075.2-.15.013-.006.031-.025.044-.031a3.8,3.8,0,0,0,.89-1.064,3.8,3.8,0,0,0-1.426-5.181,3.8,3.8,0,0,0-5.181,1.426,3.8,3.8,0,0,0-.455,1.308c0,.031-.013.074-.019.124,0,.026-.006.05-.006.074v.031c-.007.019-.007.044-.013.063a.069.069,0,0,1,0,.037v.093a.35.35,0,0,0-.006.082v.062a.131.131,0,0,1,.006.044,2.523,2.523,0,0,0,.031.485c.006.006.006.019.006.031a15.414,15.414,0,0,1,0,3.132,4.366,4.366,0,0,1-.717,1.495,21.459,21.459,0,0,0-8.127-2.765.975.975,0,0,1,.124-.175,10.324,10.324,0,0,1,1.794-1.365,2.356,2.356,0,0,0,.255-.212l.019-.012s0-.007.013-.013l.062-.063a.671.671,0,0,0,.106-.117.09.09,0,0,0,.025-.026,2.527,2.527,0,0,0,.448-.791,2.492,2.492,0,0,0-1.551-3.163,2.486,2.486,0,0,0-3.163,1.544,2.62,2.62,0,0,0-.137.9.351.351,0,0,1,.006.087.113.113,0,0,0,.006.044v.019c0,.019.007.031.007.043v.025a.618.618,0,0,0,.013.062.164.164,0,0,0,.006.05.123.123,0,0,0,.006.043l.007.026a2.257,2.257,0,0,0,.08.3.045.045,0,0,1,.007.026,10.2,10.2,0,0,1,.386,2.017c0,.044-.007.106-.013.163a2.751,2.751,0,0,1-.622-.772,10.586,10.586,0,0,1-.43-2.211,2.176,2.176,0,0,0-.081-.323v-.019l-.006-.019c-.013-.031-.031-.087-.031-.087a1.522,1.522,0,0,0-.056-.15.108.108,0,0,1-.013-.031,2.593,2.593,0,0,0-.517-.747,2.483,2.483,0,0,0-3.525,0,2.489,2.489,0,0,0,0,3.519,2.619,2.619,0,0,0,.747.517c.019.006.044.018.075.031s.03.019.049.019a.031.031,0,0,0,.019.006.348.348,0,0,1,.038.019.056.056,0,0,1,.024.007.415.415,0,0,1,.056.018c.019.006.031.012.05.019a.383.383,0,0,0,.043.006l.025.007a1.985,1.985,0,0,0,.311.062l.02.006a10.188,10.188,0,0,1,1.98.536,21.263,21.263,0,0,0-9.049,2.316,4.664,4.664,0,0,1-1.495-2.428,22.908,22.908,0,0,1,.063-4.976,5,5,0,0,0-.013-.729v-.049c-.006,0-.006-.019-.006-.038-.013-.068-.025-.192-.025-.192a3.007,3.007,0,0,0-.056-.349.581.581,0,0,1-.013-.081h-.006a5.445,5.445,0,0,0-.772-1.85,5.5,5.5,0,0,0-7.61-1.6,5.5,5.5,0,0,0-1.6,7.61,5.569,5.569,0,0,0,1.383,1.452c.037.024.086.069.149.106a.37.37,0,0,0,.093.063.313.313,0,0,1,.031.018c.031.025.063.038.081.057a.271.271,0,0,1,.05.024c.043.025.08.044.118.069s.063.037.094.056.043.019.087.037a.683.683,0,0,0,.062.031,4.652,4.652,0,0,0,.641.274.1.1,0,0,1,.038.012,22.213,22.213,0,0,1,4.035,2.074,4.794,4.794,0,0,1,1.538,2.373,21.534,21.534,0,0,0-3.356,3.151,2.861,2.861,0,0,1-1-.741,10.022,10.022,0,0,1-.915-2.055,1.969,1.969,0,0,0-.15-.3.028.028,0,0,0-.006-.019l-.013-.018c-.013-.025-.043-.074-.043-.074-.02-.037-.044-.069-.087-.137l-.025-.026a2.423,2.423,0,0,0-.667-.616,2.493,2.493,0,0,0-3.438.784,2.491,2.491,0,0,0,.785,3.432,2.364,2.364,0,0,0,.84.336.805.805,0,0,0,.081.019c.019,0,.031.007.05.007h.019a.123.123,0,0,0,.043.006.067.067,0,0,1,.025.006H16a.113.113,0,0,0,.05.007h.074a1.75,1.75,0,0,0,.312-.007h.019a9.768,9.768,0,0,1,2.055.087,2.85,2.85,0,0,1,.959.511,21.489,21.489,0,0,0-2.74,5.014,4.129,4.129,0,0,1-1.489-.5,16.074,16.074,0,0,1-2.441-2.535,3.766,3.766,0,0,0-.374-.355.068.068,0,0,0-.019-.026c-.006,0-.013-.006-.025-.019L12.271-662a1.742,1.742,0,0,0-.206-.143.239.239,0,0,0-.043-.037v.006a3.874,3.874,0,0,0-1.314-.548,3.88,3.88,0,0,0-4.615,2.977,3.887,3.887,0,0,0,2.977,4.621,4.031,4.031,0,0,0,1.414.043c.031-.006.075-.013.131-.024a.327.327,0,0,0,.075-.013.189.189,0,0,0,.031-.006.2.2,0,0,1,.062-.013.158.158,0,0,1,.037-.013c.038-.006.063-.019.094-.025a.354.354,0,0,0,.074-.019c.013-.007.031-.013.062-.025a.094.094,0,0,0,.044-.012,3.729,3.729,0,0,0,.461-.181c.013-.006.019-.012.031-.012a15.741,15.741,0,0,1,3.057-.965,4.324,4.324,0,0,1,1.346.143,21.441,21.441,0,0,0-.611,7.56,5.056,5.056,0,0,1-3.35,1.19,22.866,22.866,0,0,1-4.777-1.395,4.265,4.265,0,0,0-.71-.182c-.012-.012-.025-.012-.044-.018s-.019,0-.037-.006c-.069-.006-.193-.026-.193-.026-.094-.018-.181-.024-.355-.043-.025,0-.056-.006-.081-.006l.006.006a5.5,5.5,0,0,0-1.993.243,5.494,5.494,0,0,0-3.587,6.9,5.492,5.492,0,0,0,6.9,3.587,5.505,5.505,0,0,0,1.762-.935c.037-.03.094-.068.15-.118a.98.98,0,0,0,.081-.075.128.128,0,0,0,.031-.025.655.655,0,0,1,.068-.063s.019-.017.044-.043l.093-.093a.933.933,0,0,0,.081-.074c.012-.019.031-.038.062-.076a.306.306,0,0,1,.044-.049,5.282,5.282,0,0,0,.436-.542.077.077,0,0,1,.025-.037,22.229,22.229,0,0,1,3.083-3.333,4.959,4.959,0,0,1,3.033-.847,21.387,21.387,0,0,0,2.024,4.672,1.942,1.942,0,0,1-.342.112,10.41,10.41,0,0,1-2.254-.082,2.78,2.78,0,0,0-.33,0h-.037c-.031.007-.087.013-.087.013a1.012,1.012,0,0,0-.162.019c-.013,0-.019.006-.031.006a2.692,2.692,0,0,0-.854.33,2.5,2.5,0,0,0-.8,3.432,2.488,2.488,0,0,0,3.432.8,2.452,2.452,0,0,0,.672-.611.635.635,0,0,0,.05-.063.218.218,0,0,1,.03-.043.047.047,0,0,1,.007-.019.124.124,0,0,1,.025-.031s.007-.012.013-.025a.23.23,0,0,0,.031-.05.176.176,0,0,0,.025-.043.1.1,0,0,0,.019-.038.059.059,0,0,0,.013-.03,1.175,1.175,0,0,0,.13-.287l.013-.019a10.01,10.01,0,0,1,.978-1.806,1.978,1.978,0,0,1,.286-.262,21.109,21.109,0,0,0,4.6,4.876,3.58,3.58,0,0,1-.934,1.226,12.737,12.737,0,0,1-2.491,1.041,2.929,2.929,0,0,0-.362.168c-.012,0-.019.007-.025.007s-.007.006-.019.012l-.094.056c-.043.026-.08.05-.162.106l-.037.02.006.006a2.957,2.957,0,0,0-.76.784,2.984,2.984,0,0,0,.847,4.135,2.985,2.985,0,0,0,4.142-.847,3.132,3.132,0,0,0,.423-1c.006-.025.012-.063.019-.1a.193.193,0,0,0,.012-.063v-.018c.007-.019.007-.037.013-.049v-.031c.006-.031.006-.05.013-.075s.006-.037.006-.056v-.093a1.828,1.828,0,0,0,0-.373c-.006-.013,0-.019,0-.026a11.877,11.877,0,0,1,.162-2.459,3.666,3.666,0,0,1,.772-1.29,21.571,21.571,0,0,0,7.088,2.891,2.346,2.346,0,0,1-.174.454,18.665,18.665,0,0,1-2.765,3.1,3.318,3.318,0,0,0-.386.467.1.1,0,0,0-.024.031.133.133,0,0,1-.02.025c-.037.05-.093.137-.093.137-.043.056-.074.119-.149.243a.459.459,0,0,0-.031.062h.006a3.863,3.863,0,0,0-.461,1.551,4.73,4.73,0,0,0,4.627,4.783c2.752.217,5.131-1.575,5.318-4a4.049,4.049,0,0,0-.2-1.6c-.013-.037-.031-.087-.05-.143a.546.546,0,0,0-.037-.081.065.065,0,0,0-.013-.031.686.686,0,0,0-.031-.074s-.006-.012-.019-.043-.031-.069-.05-.1a.228.228,0,0,0-.037-.08.689.689,0,0,0-.037-.069c-.013-.013-.019-.031-.031-.044a3.172,3.172,0,0,0-.311-.492c-.013-.012-.019-.019-.019-.031a17.518,17.518,0,0,1-1.788-3.306,2.109,2.109,0,0,1-.062-.343,21.263,21.263,0,0,0,7.193-.8,4.9,4.9,0,0,1,1.5,2.9,22.871,22.871,0,0,1-.617,4.938,4.653,4.653,0,0,0-.062.728.112.112,0,0,0-.007.044c.007.006.007.019,0,.043v.193c0,.093.007.18.02.355,0,.026.006.063.006.081l.006-.006a5.478,5.478,0,0,0,.561,1.93,5.494,5.494,0,0,0,7.387,2.429,5.492,5.492,0,0,0,2.435-7.386,5.626,5.626,0,0,0-1.209-1.594c-.037-.025-.08-.075-.143-.125a.872.872,0,0,0-.081-.069.13.13,0,0,1-.03-.025.326.326,0,0,1-.074-.063.116.116,0,0,1-.044-.031,1.331,1.331,0,0,1-.112-.074.526.526,0,0,0-.087-.069c-.019-.012-.044-.025-.081-.05a.257.257,0,0,0-.056-.03,3.5,3.5,0,0,0-.611-.343c-.012-.006-.025-.018-.037-.024a21.782,21.782,0,0,1-3.781-2.51,4.818,4.818,0,0,1-1.289-2.653,21.3,21.3,0,0,0,2.117-1.213,20.892,20.892,0,0,0,2.553-1.95,2.7,2.7,0,0,1,.891.555,10.161,10.161,0,0,1,1.14,1.949,2.836,2.836,0,0,0,.174.281l.012.013c0,.006.007.006.013.019s.05.069.05.069c.025.037.056.062.106.125l.025.025a2.507,2.507,0,0,0,.735.542,2.492,2.492,0,0,0,3.326-1.159,2.482,2.482,0,0,0-1.152-3.326,2.46,2.46,0,0,0-.872-.242c-.025,0-.056-.007-.087-.007a.145.145,0,0,0-.05,0h-.019c-.012-.006-.03,0-.043-.006s-.007.006-.025,0a.248.248,0,0,1-.062.006.074.074,0,0,0-.05,0h-.044c-.006.007-.019.007-.03.007a1.749,1.749,0,0,0-.312.043h-.019a9.55,9.55,0,0,1-2.049.137,1.8,1.8,0,0,1-.5-.15,21.147,21.147,0,0,0,4.733-7.66,3.727,3.727,0,0,1,.6.685,16.372,16.372,0,0,1,1.1,3.344,2.887,2.887,0,0,0,.18.479c0,.019,0,.026.007.031s.006.013.012.031c.025.043.063.125.063.125a2.044,2.044,0,0,0,.119.218.332.332,0,0,0,.024.05h.006a3.868,3.868,0,0,0,.934,1.059,3.886,3.886,0,0,0,5.456-.673,3.881,3.881,0,0,0-.672-5.456,3.9,3.9,0,0,0-1.252-.654c-.031-.006-.075-.025-.124-.037l-.074-.019a.1.1,0,0,1-.031-.007c-.019-.006-.05-.006-.063-.019a.138.138,0,0,1-.037-.006c-.037-.006-.069-.006-.093-.013s-.056-.012-.081-.019-.03-.006-.062-.006-.031-.007-.05-.007a3.322,3.322,0,0,0-.492-.037c-.013.007-.019,0-.031,0a15.742,15.742,0,0,1-3.17-.461,4.709,4.709,0,0,1-1.545-1.083,21.334,21.334,0,0,0,.424-6.627,4.114,4.114,0,0,1,1.955-.049,22.96,22.96,0,0,1,4.5,2.123,4.367,4.367,0,0,0,.672.286.054.054,0,0,0,.037.019.169.169,0,0,1,.044.02l.18.056c.087.03.174.05.342.093a.24.24,0,0,0,.081.019v-.006a5.4,5.4,0,0,0,2.005.068,5.5,5.5,0,0,0,4.621-6.254Z" transform="translate(0 683)" fill="#f56b6b" clip-rule="evenodd"/>
    </clipPath>
    <clipPath id="clip-path-10">
      <path id="Trazado_34382-5" data-name="Trazado 34382" d="M-773-1792.953h245.047V-2038H-773Z" transform="translate(773 2038)" fill="#f56b6b"/>
    </clipPath>
    <clipPath id="clip-path-11">
      <path id="Trazado_34383-6" data-name="Trazado 34383" d="M31.063-655.064a.792.792,0,0,1-.789-.789.789.789,0,0,1,.789-.789.786.786,0,0,1,.789.789A.789.789,0,0,1,31.063-655.064ZM28.506-663.2a2.8,2.8,0,0,1-2.8-2.8,2.8,2.8,0,0,1,2.8-2.8,2.8,2.8,0,0,1,2.8,2.8A2.8,2.8,0,0,1,28.506-663.2Zm-2.8,5.836a1.807,1.807,0,0,1-1.808-1.808,1.807,1.807,0,0,1,1.808-1.807,1.807,1.807,0,0,1,1.807,1.807A1.807,1.807,0,0,1,25.705-657.367Zm-4.916-11.738a1.562,1.562,0,0,1-1.562-1.559,1.564,1.564,0,0,1,1.562-1.562,1.561,1.561,0,0,1,1.562,1.562A1.56,1.56,0,0,1,20.789-669.105Zm-.608,16.8a2.005,2.005,0,0,1-2-2.008,2,2,0,0,1,2-2,2,2,0,0,1,2,2A2.005,2.005,0,0,1,20.181-652.3Zm-4.111-12.085a2.384,2.384,0,0,1,2.387-2.383,2.383,2.383,0,0,1,2.383,2.383A2.384,2.384,0,0,1,18.458-662,2.384,2.384,0,0,1,16.071-664.387Zm-2.3,4.589a.592.592,0,0,1-.592-.592.591.591,0,0,1,.592-.592.591.591,0,0,1,.592.592A.591.591,0,0,1,13.771-659.8ZM45.8-666.134a3.487,3.487,0,0,0-3.965-2.927,3.532,3.532,0,0,0-1.2.414c-.024.016-.063.032-.1.06a.212.212,0,0,0-.059.035.076.076,0,0,0-.02.016c-.02.012-.035.024-.051.032l-.032.02a.656.656,0,0,1-.067.051.23.23,0,0,0-.055.04.29.29,0,0,0-.047.039c-.012.008-.02.02-.032.028a2.612,2.612,0,0,0-.328.3.032.032,0,0,1-.019.02,13.775,13.775,0,0,1-2.257,1.78,2.774,2.774,0,0,1-1.27.288,13.548,13.548,0,0,0-1.708-3.921,1.582,1.582,0,0,1,.382-.083,6.545,6.545,0,0,1,1.4.28,1.255,1.255,0,0,0,.209.031l.012,0H36.6c.019,0,.055,0,.055,0a.739.739,0,0,0,.1,0h.024v0a1.611,1.611,0,0,0,.564-.118,1.582,1.582,0,0,0,.849-2.068,1.577,1.577,0,0,0-2.064-.848,1.578,1.578,0,0,0-.481.315.268.268,0,0,0-.039.036.086.086,0,0,0-.02.023s0,0-.008.008l-.02.019-.012.012c-.007.012-.016.02-.024.032a.056.056,0,0,0-.019.024.077.077,0,0,0-.016.02.041.041,0,0,1-.012.016,1.345,1.345,0,0,0-.111.166c0,.008,0,.008-.008.012a6.279,6.279,0,0,1-.8,1.03,1.759,1.759,0,0,1-.528.28,13.419,13.419,0,0,0-2.754-2.758,2.706,2.706,0,0,1,.647-.935,10.14,10.14,0,0,1,1.945-.975,2.123,2.123,0,0,0,.284-.15.058.058,0,0,0,.016-.012s.008,0,.016-.008c.028-.02.071-.047.071-.047.035-.024.063-.048.126-.095.008,0,.02-.016.028-.02a2.411,2.411,0,0,0,.564-.674,2.406,2.406,0,0,0-.9-3.282,2.409,2.409,0,0,0-3.282.9,2.406,2.406,0,0,0-.288.828c0,.02-.008.047-.012.079,0,.016,0,.032,0,.047v.02c0,.012,0,.028-.008.04a.044.044,0,0,1,0,.023v.059a.221.221,0,0,0,0,.052v.039a.083.083,0,0,1,0,.028,1.6,1.6,0,0,0,.02.307s0,.012,0,.02a9.765,9.765,0,0,1,0,1.984,2.766,2.766,0,0,1-.454.947A13.593,13.593,0,0,0,24.9-676a.616.616,0,0,1,.079-.111,6.539,6.539,0,0,1,1.136-.864,1.5,1.5,0,0,0,.161-.134l.012-.008s0,0,.008-.008l.039-.04a.422.422,0,0,0,.067-.074.057.057,0,0,0,.016-.016,1.6,1.6,0,0,0,.284-.5,1.579,1.579,0,0,0-.982-2,1.575,1.575,0,0,0-2,.978,1.66,1.66,0,0,0-.087.568.222.222,0,0,1,0,.055.072.072,0,0,0,0,.028v.012c0,.012,0,.02,0,.027v.016a.394.394,0,0,0,.008.039.1.1,0,0,0,0,.032.078.078,0,0,0,0,.027l0,.016a1.43,1.43,0,0,0,.051.193.029.029,0,0,1,0,.016,6.463,6.463,0,0,1,.245,1.278c0,.028,0,.067-.008.1a1.742,1.742,0,0,1-.394-.489,6.705,6.705,0,0,1-.273-1.4,1.379,1.379,0,0,0-.052-.2v-.012l0-.012c-.008-.02-.02-.055-.02-.055a.964.964,0,0,0-.035-.095.069.069,0,0,1-.008-.02,1.642,1.642,0,0,0-.327-.473,1.573,1.573,0,0,0-2.233,0,1.577,1.577,0,0,0,0,2.229,1.658,1.658,0,0,0,.473.327c.012,0,.028.012.048.02s.019.012.031.012a.02.02,0,0,0,.012,0,.219.219,0,0,1,.024.012.036.036,0,0,1,.016,0,.264.264,0,0,1,.035.012l.032.012a.242.242,0,0,0,.027,0l.016,0a1.248,1.248,0,0,0,.2.039l.012,0a6.454,6.454,0,0,1,1.254.34,13.47,13.47,0,0,0-5.732,1.467,2.955,2.955,0,0,1-.947-1.538,14.512,14.512,0,0,1,.04-3.152,3.167,3.167,0,0,0-.008-.462v-.031s0-.012,0-.024c-.008-.043-.016-.122-.016-.122a1.906,1.906,0,0,0-.035-.221.369.369,0,0,1-.008-.051h0a3.449,3.449,0,0,0-.489-1.172,3.481,3.481,0,0,0-4.821-1.014,3.484,3.484,0,0,0-1.014,4.821,3.527,3.527,0,0,0,.876.92c.024.016.055.044.094.067a.235.235,0,0,0,.059.04l.02.011c.02.016.04.024.052.036a.173.173,0,0,1,.032.015c.027.016.051.028.075.044s.04.024.06.035l.055.024a.436.436,0,0,0,.039.02,2.943,2.943,0,0,0,.406.174.06.06,0,0,1,.024.008A14.071,14.071,0,0,1,14.1-674.9a3.037,3.037,0,0,1,.974,1.5,13.643,13.643,0,0,0-2.126,2,1.812,1.812,0,0,1-.635-.469,6.35,6.35,0,0,1-.58-1.3,1.246,1.246,0,0,0-.1-.189.018.018,0,0,0,0-.012l-.008-.012c-.008-.016-.027-.047-.027-.047-.012-.024-.028-.044-.055-.087l-.016-.016a1.535,1.535,0,0,0-.422-.39,1.579,1.579,0,0,0-2.178.5,1.578,1.578,0,0,0,.5,2.174,1.5,1.5,0,0,0,.532.213.51.51,0,0,0,.052.012c.012,0,.02,0,.032,0h.012a.078.078,0,0,0,.027,0,.042.042,0,0,1,.016,0h.039a.071.071,0,0,0,.032,0h.047a1.106,1.106,0,0,0,.2,0h.012a6.184,6.184,0,0,1,1.3.055,1.8,1.8,0,0,1,.607.323,13.613,13.613,0,0,0-1.736,3.176,2.618,2.618,0,0,1-.943-.315,10.184,10.184,0,0,1-1.546-1.606,2.388,2.388,0,0,0-.237-.225.043.043,0,0,0-.012-.016s-.008,0-.016-.012l-.067-.055a1.1,1.1,0,0,0-.13-.091.152.152,0,0,0-.027-.024v0a2.454,2.454,0,0,0-.833-.347,2.458,2.458,0,0,0-2.924,1.886,2.462,2.462,0,0,0,1.886,2.928,2.554,2.554,0,0,0,.9.027l.083-.016a.207.207,0,0,0,.047-.008l.02,0a.125.125,0,0,1,.039-.008.1.1,0,0,1,.023-.008c.024,0,.04-.012.06-.016a.223.223,0,0,0,.047-.012c.008,0,.02-.008.039-.016a.06.06,0,0,0,.028-.008,2.368,2.368,0,0,0,.292-.115c.008,0,.012-.008.02-.008a9.969,9.969,0,0,1,1.937-.612,2.739,2.739,0,0,1,.853.091,13.583,13.583,0,0,0-.387,4.789,3.2,3.2,0,0,1-2.122.754,14.487,14.487,0,0,1-3.026-.883,2.7,2.7,0,0,0-.45-.115c-.008-.007-.016-.007-.028-.012s-.012,0-.024,0c-.044,0-.122-.016-.122-.016-.059-.011-.114-.016-.225-.027-.016,0-.036,0-.051,0l0,0a3.484,3.484,0,0,0-1.262.154A3.48,3.48,0,0,0,.163-657.04a3.479,3.479,0,0,0,4.371,2.273,3.488,3.488,0,0,0,1.116-.592c.024-.019.059-.043.095-.075a.618.618,0,0,0,.051-.048.081.081,0,0,0,.02-.016.409.409,0,0,1,.043-.04l.028-.027.059-.059A.6.6,0,0,0,6-655.671c.008-.012.02-.024.039-.048a.191.191,0,0,1,.028-.031,3.346,3.346,0,0,0,.276-.343.049.049,0,0,1,.016-.024,14.082,14.082,0,0,1,1.953-2.111,3.142,3.142,0,0,1,1.921-.537,13.549,13.549,0,0,0,1.282,2.959,1.227,1.227,0,0,1-.217.071,6.594,6.594,0,0,1-1.428-.052,1.767,1.767,0,0,0-.209,0H9.636c-.02,0-.055.008-.055.008a.64.64,0,0,0-.1.012c-.008,0-.012,0-.02,0a1.7,1.7,0,0,0-.541.209,1.584,1.584,0,0,0-.509,2.174,1.576,1.576,0,0,0,2.174.509,1.554,1.554,0,0,0,.426-.387.408.408,0,0,0,.032-.04.138.138,0,0,1,.019-.027.03.03,0,0,1,0-.012.078.078,0,0,1,.016-.02l.008-.016a.145.145,0,0,0,.02-.032.111.111,0,0,0,.016-.027.066.066,0,0,0,.012-.024.038.038,0,0,0,.008-.019.744.744,0,0,0,.083-.182l.008-.012a6.341,6.341,0,0,1,.62-1.144,1.252,1.252,0,0,1,.181-.166,13.373,13.373,0,0,0,2.915,3.089,2.267,2.267,0,0,1-.592.777,8.068,8.068,0,0,1-1.578.659,1.858,1.858,0,0,0-.229.106c-.007,0-.012,0-.016,0s0,0-.012.007l-.06.035c-.027.016-.051.032-.1.067l-.024.012,0,0a1.873,1.873,0,0,0-.481.5,1.89,1.89,0,0,0,.536,2.62,1.891,1.891,0,0,0,2.624-.537,1.984,1.984,0,0,0,.268-.631c0-.016.007-.04.012-.063a.122.122,0,0,0,.007-.04v-.012c0-.012,0-.024.008-.031v-.02c0-.02,0-.032.008-.048s0-.024,0-.036v-.059a1.158,1.158,0,0,0,0-.237c0-.008,0-.012,0-.016a7.523,7.523,0,0,1,.1-1.558,2.322,2.322,0,0,1,.489-.817,13.666,13.666,0,0,0,4.49,1.831,1.486,1.486,0,0,1-.111.287,11.823,11.823,0,0,1-1.752,1.965,2.1,2.1,0,0,0-.245.3.063.063,0,0,0-.016.02.085.085,0,0,1-.012.016c-.024.032-.059.087-.059.087-.027.035-.047.075-.094.154a.292.292,0,0,0-.02.039h0a2.447,2.447,0,0,0-.292.982,3,3,0,0,0,2.931,3.03,2.989,2.989,0,0,0,3.369-2.533,2.565,2.565,0,0,0-.126-1.014c-.008-.024-.02-.055-.032-.091a.348.348,0,0,0-.024-.052.041.041,0,0,0-.008-.02.429.429,0,0,0-.02-.047s0-.007-.012-.027-.02-.043-.032-.063a.144.144,0,0,0-.024-.051.434.434,0,0,0-.024-.044c-.008-.008-.012-.02-.02-.028a2.009,2.009,0,0,0-.2-.312c-.008-.007-.012-.012-.012-.02a11.1,11.1,0,0,1-1.133-2.094,1.336,1.336,0,0,1-.039-.217,13.47,13.47,0,0,0,4.556-.509,3.1,3.1,0,0,1,.951,1.839,14.489,14.489,0,0,1-.391,3.128,2.947,2.947,0,0,0-.039.461.071.071,0,0,0,0,.028s0,.012,0,.027v.122c0,.059,0,.114.012.225,0,.016,0,.04,0,.052l0,0a3.47,3.47,0,0,0,.355,1.223,3.48,3.48,0,0,0,4.679,1.539,3.479,3.479,0,0,0,1.542-4.679,3.564,3.564,0,0,0-.766-1.01c-.024-.016-.051-.047-.091-.079a.541.541,0,0,0-.052-.044.083.083,0,0,1-.019-.016.207.207,0,0,1-.047-.04.073.073,0,0,1-.028-.02.826.826,0,0,1-.071-.047.338.338,0,0,0-.055-.043c-.012-.007-.028-.016-.052-.032A.163.163,0,0,0,32.87-647a2.218,2.218,0,0,0-.387-.217c-.007,0-.016-.012-.024-.015a13.8,13.8,0,0,1-2.395-1.59,3.052,3.052,0,0,1-.817-1.681,13.494,13.494,0,0,0,1.341-.769,13.231,13.231,0,0,0,1.618-1.235,1.713,1.713,0,0,1,.564.352,6.437,6.437,0,0,1,.722,1.234,1.8,1.8,0,0,0,.111.178l.007.008s0,0,.008.012l.032.043c.016.024.035.039.067.079l.016.016a1.588,1.588,0,0,0,.466.343,1.578,1.578,0,0,0,2.107-.734,1.572,1.572,0,0,0-.73-2.107,1.558,1.558,0,0,0-.553-.153c-.016,0-.035,0-.055,0a.093.093,0,0,0-.032,0h-.012c-.007,0-.019,0-.027,0s0,0-.016,0a.158.158,0,0,1-.039,0,.047.047,0,0,0-.032,0h-.028s-.012,0-.019,0a1.105,1.105,0,0,0-.2.027h-.012a6.05,6.05,0,0,1-1.3.087,1.143,1.143,0,0,1-.32-.1,13.4,13.4,0,0,0,3-4.853,2.361,2.361,0,0,1,.379.434,10.371,10.371,0,0,1,.694,2.119,1.829,1.829,0,0,0,.114.3c0,.012,0,.016,0,.02s0,.008.007.02c.016.027.04.079.04.079a1.288,1.288,0,0,0,.075.138.212.212,0,0,0,.016.032h0a2.451,2.451,0,0,0,.592.671,2.462,2.462,0,0,0,3.456-.426,2.459,2.459,0,0,0-.426-3.456,2.469,2.469,0,0,0-.793-.414c-.02,0-.047-.016-.079-.024l-.047-.012a.063.063,0,0,1-.02,0c-.012,0-.032,0-.04-.012a.087.087,0,0,1-.024,0c-.024,0-.043,0-.059-.008l-.052-.012c-.007,0-.019,0-.039,0s-.02,0-.032,0a2.1,2.1,0,0,0-.312-.024c-.008,0-.012,0-.02,0a9.975,9.975,0,0,1-2.008-.292,2.983,2.983,0,0,1-.979-.686,13.515,13.515,0,0,0,.269-4.2,2.607,2.607,0,0,1,1.239-.031,14.548,14.548,0,0,1,2.848,1.345,2.768,2.768,0,0,0,.426.181.034.034,0,0,0,.024.012.107.107,0,0,1,.028.012l.114.035c.055.019.111.032.217.059a.152.152,0,0,0,.052.012v0a3.419,3.419,0,0,0,1.27.043,3.481,3.481,0,0,0,2.927-3.962Z" transform="translate(0 683)" fill="#f56b6b" clip-rule="evenodd"/>
    </clipPath>
    <clipPath id="clip-path-12">
      <path id="Trazado_34382-6" data-name="Trazado 34382" d="M-773-1882.765h155.235V-2038H-773Z" transform="translate(773 2038)" fill="#f56b6b"/>
    </clipPath>
  </defs>
  <g id="Grupo_18753" data-name="Grupo 18753" transform="translate(1957.346 1794.512)">
    <path id="Trazado_34992" data-name="Trazado 34992" d="M381.962,162.277c11.242-33.764,51.518-44.223,82.844-28.573q2.867,1.073,5.578,2.378A99.059,99.059,0,0,1,490.5,149.429c13.124,10.894,25.342,22.224,40.154,29.571,1.738.934,5.115,2.752,9.006,4.881,7.784,4.257,17.612,9.791,20.641,11.745q1.172.757,2.392,1.441c15.782,8.8,28.455,22.861,34.768,38.877l.032.08a38.173,38.173,0,0,1,2.591,15.659c-1.025,22.883-11.854,47.688-32.168,59.651a83.469,83.469,0,0,1-8.4,3.839,105.472,105.472,0,0,1-27.15,6.477,125.818,125.818,0,0,1-17.785.819,118.339,118.339,0,0,1-17.248-1.677c-4.864-.592-9.678-1.394-14.4-2.374-2.007-.321-3.985-.636-5.9-.946-15.5-3.756-29.977,2.78-44.458,8.009-15.839,6.1-34.393,4.793-50.6-.491a47.3,47.3,0,0,1-7.95-4.156q-.467-.3-.926-.618a41.8,41.8,0,0,1-15.745-49.064c5.2-14.14,13.2-32.774,14.9-41.793C374.346,218.208,372.114,188.393,381.962,162.277Z" transform="translate(-1346.089 -1355.917) rotate(178)" fill="#324688"/>
    <g id="Grupo_18748" data-name="Grupo 18748" transform="translate(-2933 -1806)">
      <g id="Grupo_17676" data-name="Grupo 17676" transform="translate(1049 179.698)">
        <path id="Trazado_33487" data-name="Trazado 33487" d="M885.256,1767.128a15.539,15.539,0,0,0,21.357,5.067,2.661,2.661,0,1,0-2.793-4.53,10.2,10.2,0,0,1-10.705-17.365l193.212-118.9a2.661,2.661,0,1,0-2.793-4.53l-193.212,118.9A15.539,15.539,0,0,0,885.256,1767.128Z" transform="translate(-882.95 -1626.472)" fill="#748feb"/>
      </g>
      <g id="Grupo_17677" data-name="Grupo 17677" transform="translate(1273.978 158.7)">
        <rect id="Rectngulo_2966" data-name="Rectngulo 2966" width="7.116" height="2.629" transform="translate(3.735 11.718) rotate(-121.654)" fill="#0e236a"/>
        <path id="Trazado_33488" data-name="Trazado 33488" d="M2804.529,1485.886l1.873,3.037-.721,2.529-3.735-6.057Z" transform="translate(-2799.735 -1481.098)" fill="#0e236a"/>
        <path id="Trazado_33489" data-name="Trazado 33489" d="M2805.5,1457.178h0a1.768,1.768,0,0,0,2.426.576l8.74-5.388a1.768,1.768,0,0,0,.576-2.427h0a1.769,1.769,0,0,0-2.427-.576l-8.74,5.388A1.769,1.769,0,0,0,2805.5,1457.178Z" transform="translate(-2802.636 -1449.102)" fill="#0e236a"/>
      </g>
      <path id="Trazado_33490" data-name="Trazado 33490" d="M2407.94,1682.487a70.786,70.786,0,0,0-47.073-51.117l52.2-108.111C2445.535,1575.919,2441.7,1639.909,2407.94,1682.487Z" transform="translate(-1136.896 -1355.78)" fill="#536ec4"/>
      <path id="Trazado_33491" data-name="Trazado 33491" d="M1859.321,1434.634c-4.195-19.271-12.591-40.166-25.1-60.477-12.383-20.1-27.091-36.856-42.248-49.233l59.082-24.821,60.473,26.42s-4.511,23.833-19.454,54.78C1873.443,1419.877,1859.321,1434.634,1859.321,1434.634Z" transform="translate(-635.35 -1159.043)" fill="#3650a7"/>
      <path id="Trazado_33492" data-name="Trazado 33492" d="M1730.083,1006.82s-20.3-5.676-55.366-6.145c-39.412-.527-64.189,4.547-64.189,4.547,4.171-21.7-2.983-45.573-20.945-62.454-1.121-1.054-2.275-2.047-3.442-3.013C1639.181,929.044,1697.744,954.365,1730.083,1006.82Z" transform="translate(-453.889 -839.225)" fill="#536ec4"/>
      <path id="Trazado_33493" data-name="Trazado 33493" d="M1383.416,2270.108l1.637,5.224,20.5-12.637-1.593-5.27Z" transform="translate(-275.166 -2003.029)" fill="#0e236a"/>
    </g>
    <g id="Grupo_18751" data-name="Grupo 18751" transform="translate(-1924.111 -1626.302)">
      <path id="Trazado_34335" data-name="Trazado 34335" d="M1657.878,2444.871a12.466,12.466,0,0,0,1.448,9.506c.246,3.149-.378,25.477-.378,25.477l-1.91,35.522,6.914-.134,11.134-49.984,1.516-24.792Z" transform="translate(-1651.395 -2370.861)" fill="#101930"/>
      <path id="Trazado_34336" data-name="Trazado 34336" d="M1657.038,2849.327v2.949h3.739l1.4-.852,3.166,1.074,6.607-.648.3-1.921-8.795-2.446Z" transform="translate(-1651.395 -2705.031)" fill="#101930"/>
      <path id="Trazado_34337" data-name="Trazado 34337" d="M1646.46,2442.64s-.838,8.536,2.623,13.19c.6,3.1,2.471,25.359,2.471,25.359l2.243,34.609,8.635.122,3.9-50.662,1.516-24.792Z" transform="translate(-1642.637 -2370.861)" fill="#1a2444"/>
      <path id="Trazado_34338" data-name="Trazado 34338" d="M1711.542,2195.447s13.613,35.585,6.5,43.243c-5.174,4.326-11.518,1.387-11.518,1.387Z" transform="translate(-1692.021 -2169.695)" fill="#fff"/>
      <g id="Grupo_18457" data-name="Grupo 18457" transform="translate(7.607 0)">
        <path id="Trazado_34339" data-name="Trazado 34339" d="M1675.969,2113.95l.713-2.473,5.05-2.843,3.207,3.714-.206,5.139Z" transform="translate(-1674.545 -2098.42)" fill="#ffb187"/>
        <path id="Trazado_34340" data-name="Trazado 34340" d="M1696.094,2083.292a35.994,35.994,0,0,0,4.673-1.8c.846-.569.274-7.317-1.689-10.086s-4.529-2.428-7.539.075-1.155,5.963.2,7.1A58.943,58.943,0,0,1,1696.094,2083.292Z" transform="translate(-1685.998 -2066.263)" fill="#ffb187"/>
        <path id="Trazado_34341" data-name="Trazado 34341" d="M1680.772,2056.295l.138-2.572-1.613-1.155a5.375,5.375,0,0,0-5.661-.373l-3.278,1.749a4.039,4.039,0,0,0-2.2,4.753l1.818,6.514s1.925.7,2.708-.126c0,0,.661-3.239.864-4.13.206-.908,1.439-1.93,2.458-.706l-.007,1.376.853-1.506a17.086,17.086,0,0,0,.853-3.07Z" transform="translate(-1668.009 -2051.562)" fill="#242424"/>
        <path id="Trazado_34342" data-name="Trazado 34342" d="M1673.781,2139.2l.392-.869,9.059,3.656.24,1.394Z" transform="translate(-1672.748 -2122.804)" fill="#fff"/>
      </g>
      <path id="Trazado_34343" data-name="Trazado 34343" d="M1687.124,2853.692l-.212,3.58,4.54.27,1.759-.933,3.767,1.532,8.069-.312.1-1.332-10.5-3.6Z" transform="translate(-1675.922 -2709.473)" fill="#1a2444"/>
      <path id="Trazado_34344" data-name="Trazado 34344" d="M1650.56,2188.062c-.711,6.871-.828,10.816-6.569,12.561-7.106,2.159-18.483.808-18.483.808l4.37-15.177s-2.89-28.8-1.443-32.274a85.31,85.31,0,0,1,5.713-10.795l9.69,4.182s6.766,28.421,6.875,37.71c.006.585,0,1.1-.031,1.532C1650.651,2187.114,1650.609,2187.6,1650.56,2188.062Z" transform="translate(-1625.508 -2126.786)" fill="#1a2444"/>
      <g id="Grupo_18459" data-name="Grupo 18459" transform="translate(1.092 23.071)">
        <g id="Grupo_18458" data-name="Grupo 18458" transform="translate(0 60.409)">
          <path id="Trazado_34345" data-name="Trazado 34345" d="M1655.521,2564.8a.249.249,0,0,0,.264.23l29.358-2.008a.247.247,0,0,0,.231-.264l-1.456-21.289a.247.247,0,0,0-.263-.23l-29.36,2.007a.247.247,0,0,0-.23.263Z" transform="translate(-1650.046 -2537.078)" fill="#f59494"/>
          <path id="Trazado_34346" data-name="Trazado 34346" d="M1638.18,2565.984a.248.248,0,0,0,.264.23l29.359-2.008a.247.247,0,0,0,.231-.262l-1.456-21.29a.247.247,0,0,0-.264-.23l-29.36,2.007a.247.247,0,0,0-.229.264Z" transform="translate(-1635.809 -2538.052)" fill="#d15353"/>
          <path id="Trazado_34347" data-name="Trazado 34347" d="M1637.364,2550.414l29.36-2.007a.248.248,0,0,1,.264.229l.5,7.389.085,1.242a41.846,41.846,0,0,1-14.751,3.6q-.921.064-1.827.09a40.815,40.815,0,0,1-13.275-1.646l-.59-8.631A.246.246,0,0,1,1637.364,2550.414Z" transform="translate(-1636.146 -2542.963)" fill="#c14444"/>
          <path id="Trazado_34348" data-name="Trazado 34348" d="M1693.252,2523.086a.245.245,0,0,0,.263.229l8.606-.587a.248.248,0,0,0,.231-.264l-.291-4.242-.132-.2-.008-.011-.125-.024-8.524.582-.055,0-.028,0-.01,0-.072.018-.07.117-.077.128.012.177Z" transform="translate(-1681.981 -2517.991)" fill="none" stroke="#f56b6b" stroke-miterlimit="10" stroke-width="8.377"/>
          <path id="Trazado_34349" data-name="Trazado 34349" d="M1644.933,2530.925l30.883-2.111a.247.247,0,0,1,.264.23l.652,9.552a44.22,44.22,0,0,1-31.376,2.144l-.653-9.551A.246.246,0,0,1,1644.933,2530.925Z" transform="translate(-1642.36 -2526.877)" fill="#f59494"/>
          <path id="Trazado_34350" data-name="Trazado 34350" d="M1631.844,2531.819l30.883-2.111a.246.246,0,0,1,.263.23l.71,10.383c-4.144,2.094-9.591,2.717-15.548,3.125s-11.439.531-15.829-.979l-.71-10.384A.248.248,0,0,1,1631.844,2531.819Z" transform="translate(-1631.612 -2527.611)" fill="#d15353"/>
          <path id="Trazado_34351" data-name="Trazado 34351" d="M1731.181,2597.918l.792,11.588a.248.248,0,0,1-.231.264l-8.411.574a45.329,45.329,0,0,1-8.729-8.739c.6-.019,1.214-.048,1.828-.091A41.846,41.846,0,0,0,1731.181,2597.918Z" transform="translate(-1699.75 -2583.613)" fill="#f56b6b"/>
          <path id="Trazado_34352" data-name="Trazado 34352" d="M1693.454,2529.393a.247.247,0,0,1,.264.23l.709,10.384c-.242.122-.489.239-.741.352-4.042,1.813-9.2,2.389-14.806,2.772q-1.59.11-3.135.182a65.029,65.029,0,0,1-5.747-10.084c-.35-.758-.667-1.483-.955-2.169Z" transform="translate(-1662.344 -2527.352)" fill="#f56b6b"/>
          <path id="Trazado_34353" data-name="Trazado 34353" d="M1719.432,2590.733a1.136,1.136,0,1,0-1.056,1.21A1.136,1.136,0,0,0,1719.432,2590.733Z" transform="translate(-1701.851 -2576.845)" fill="#ffcb08"/>
        </g>
        <path id="Trazado_34354" data-name="Trazado 34354" d="M1710.6,2486.631l.389,1.107s.706,1.359.845,1.592c.254.562.926,2.158.926,2.158s-.066.2-1.056.146a4.565,4.565,0,0,0-1.025.2,9.465,9.465,0,0,0-.476,1.3l.75-.028a1.387,1.387,0,0,1-1.617,1.282,14.605,14.605,0,0,1-1.651-.232s-1.288-.1-1.492-.679a2.733,2.733,0,0,1-.078-1.528s.692-2.6.773-2.857l-.356-1.091Z" transform="translate(-1692.717 -2431.835)" fill="#ffb288" fill-rule="evenodd"/>
        <path id="Trazado_34355" data-name="Trazado 34355" d="M1647.008,2182.925s.666,20.836,2.023,25.4c-.531,4.5,9,28.524,9,28.524l4.308-1.263-3.331-29.053-1.061-26.071Z" transform="translate(-1644.252 -2180.466)" fill="#1a2444"/>
      </g>
      <path id="Trazado_34356" data-name="Trazado 34356" d="M1673.781,2143.184l8.472,7.638-.935,4.28,2.65.971,4.792,16.457" transform="translate(-1665.142 -2126.785)" fill="none" stroke="#c7e0ff" stroke-miterlimit="10" stroke-width="0.767"/>
      <path id="Trazado_34357" data-name="Trazado 34357" d="M1674.173,2138.335l9.059,3.656-1.81,5.466-7.641-8.253Z" transform="translate(-1665.141 -2122.804)" fill="#fff"/>
    </g>
    <g id="Grupo_18752" data-name="Grupo 18752" transform="translate(-2965.034 -1839)">
      <g id="Grupo_18483" data-name="Grupo 18483" transform="translate(1323.633 44.488)">
        <g id="Grupo_18466" data-name="Grupo 18466" transform="translate(0 0)" clip-path="url(#clip-path)">
          <g id="Grupo_18465" data-name="Grupo 18465" transform="translate(-222.516 -390.051)" clip-path="url(#clip-path-2)">
            <path id="Trazado_34381" data-name="Trazado 34381" d="M-5-688H210.392v199.443H-5Z" transform="translate(226.077 1076.612)" fill="#5a4276"/>
          </g>
        </g>
      </g>
      <g id="Grupo_18484" data-name="Grupo 18484" transform="translate(1449.236 273.723)">
        <g id="Grupo_18466-2" data-name="Grupo 18466" transform="translate(0)" clip-path="url(#clip-path-3)">
          <g id="Grupo_18465-2" data-name="Grupo 18465" transform="translate(-100.654 -176.437)" clip-path="url(#clip-path-4)">
            <path id="Trazado_34381-2" data-name="Trazado 34381" d="M-5-688H92.431v90.217H-5Z" transform="translate(105.003 863.786)" fill="#5a4276"/>
          </g>
        </g>
      </g>
      <g id="Grupo_18485" data-name="Grupo 18485" transform="translate(1515.137 198.104)">
        <g id="Grupo_18466-3" data-name="Grupo 18466" transform="translate(0)" clip-path="url(#clip-path-5)">
          <g id="Grupo_18465-3" data-name="Grupo 18465" transform="translate(-63.763 -111.771)" clip-path="url(#clip-path-6)">
            <path id="Trazado_34381-3" data-name="Trazado 34381" d="M-5-688H56.722v57.151H-5Z" transform="translate(68.351 799.359)" fill="#5a4276"/>
          </g>
        </g>
      </g>
    </g>
    <g id="Grupo_18749" data-name="Grupo 18749" transform="translate(-2955 -1811)">
      <g id="Grupo_18483-2" data-name="Grupo 18483" transform="translate(1300.023 44.488)">
        <g id="Grupo_18466-4" data-name="Grupo 18466" transform="translate(0 0)" clip-path="url(#clip-path-7)">
          <g id="Grupo_18465-4" data-name="Grupo 18465" transform="translate(-167.502 -293.616)" clip-path="url(#clip-path-8)">
            <path id="Trazado_34381-4" data-name="Trazado 34381" d="M-5-688H157.139v150.133H-5Z" transform="translate(171.419 980.533)" fill="#f56b6b"/>
          </g>
        </g>
      </g>
      <g id="Grupo_18484-2" data-name="Grupo 18484" transform="translate(1344.137 213.284)">
        <g id="Grupo_18466-5" data-name="Grupo 18466" transform="translate(0)" clip-path="url(#clip-path-9)">
          <g id="Grupo_18465-5" data-name="Grupo 18465" transform="translate(-75.769 -132.816)" clip-path="url(#clip-path-10)">
            <path id="Trazado_34381-5" data-name="Trazado 34381" d="M-5-688H68.343v67.912H-5Z" transform="translate(80.278 820.325)" fill="#f56b6b"/>
          </g>
        </g>
      </g>
      <g id="Grupo_18485-2" data-name="Grupo 18485" transform="translate(1228.137 75.815)">
        <g id="Grupo_18466-6" data-name="Grupo 18466" transform="translate(0)" clip-path="url(#clip-path-11)">
          <g id="Grupo_18465-6" data-name="Grupo 18465" transform="translate(-47.999 -84.137)" clip-path="url(#clip-path-12)">
            <path id="Trazado_34381-6" data-name="Trazado 34381" d="M-5-688H41.462v43.021H-5Z" transform="translate(52.688 771.827)" fill="#f56b6b"/>
          </g>
        </g>
      </g>
    </g>
    <g id="Grupo_18750" data-name="Grupo 18750" transform="translate(-1808.111 -1626.302)">
      <path id="Trazado_34335-2" data-name="Trazado 34335" d="M1657.878,2444.871a12.466,12.466,0,0,0,1.448,9.506c.246,3.149-.378,25.477-.378,25.477l-1.91,35.522,6.914-.134,11.134-49.984,1.516-24.792Z" transform="translate(-1651.395 -2370.861)" fill="#101930"/>
      <path id="Trazado_34336-2" data-name="Trazado 34336" d="M1657.038,2849.327v2.949h3.739l1.4-.852,3.166,1.074,6.607-.648.3-1.921-8.795-2.446Z" transform="translate(-1651.395 -2705.031)" fill="#101930"/>
      <path id="Trazado_34337-2" data-name="Trazado 34337" d="M1646.46,2442.64s-.838,8.536,2.623,13.19c.6,3.1,2.471,25.359,2.471,25.359l2.243,34.609,8.635.122,3.9-50.662,1.516-24.792Z" transform="translate(-1642.637 -2370.861)" fill="#1a2444"/>
      <path id="Trazado_34338-2" data-name="Trazado 34338" d="M1711.542,2195.447s13.613,35.585,6.5,43.243c-5.174,4.326-11.518,1.387-11.518,1.387Z" transform="translate(-1692.021 -2169.695)" fill="#fff"/>
      <g id="Grupo_18457-2" data-name="Grupo 18457" transform="translate(7.607 0)">
        <path id="Trazado_34339-2" data-name="Trazado 34339" d="M1675.969,2113.95l.713-2.473,5.05-2.843,3.207,3.714-.206,5.139Z" transform="translate(-1674.545 -2098.42)" fill="#ffb187"/>
        <path id="Trazado_34340-2" data-name="Trazado 34340" d="M1696.094,2083.292a35.994,35.994,0,0,0,4.673-1.8c.846-.569.274-7.317-1.689-10.086s-4.529-2.428-7.539.075-1.155,5.963.2,7.1A58.943,58.943,0,0,1,1696.094,2083.292Z" transform="translate(-1685.998 -2066.263)" fill="#ffb187"/>
        <path id="Trazado_34341-2" data-name="Trazado 34341" d="M1680.772,2056.295l.138-2.572-1.613-1.155a5.375,5.375,0,0,0-5.661-.373l-3.278,1.749a4.039,4.039,0,0,0-2.2,4.753l1.818,6.514s1.925.7,2.708-.126c0,0,.661-3.239.864-4.13.206-.908,1.439-1.93,2.458-.706l-.007,1.376.853-1.506a17.086,17.086,0,0,0,.853-3.07Z" transform="translate(-1668.009 -2051.562)" fill="#242424"/>
        <path id="Trazado_34342-2" data-name="Trazado 34342" d="M1673.781,2139.2l.392-.869,9.059,3.656.24,1.394Z" transform="translate(-1672.748 -2122.804)" fill="#fff"/>
      </g>
      <path id="Trazado_34343-2" data-name="Trazado 34343" d="M1687.124,2853.692l-.212,3.58,4.54.27,1.759-.933,3.767,1.532,8.069-.312.1-1.332-10.5-3.6Z" transform="translate(-1675.922 -2709.473)" fill="#1a2444"/>
      <path id="Trazado_34344-2" data-name="Trazado 34344" d="M1650.56,2188.062c-.711,6.871-.828,10.816-6.569,12.561-7.106,2.159-18.483.808-18.483.808l4.37-15.177s-2.89-28.8-1.443-32.274a85.31,85.31,0,0,1,5.713-10.795l9.69,4.182s6.766,28.421,6.875,37.71c.006.585,0,1.1-.031,1.532C1650.651,2187.114,1650.609,2187.6,1650.56,2188.062Z" transform="translate(-1625.508 -2126.786)" fill="#1a2444"/>
      <g id="Grupo_18459-2" data-name="Grupo 18459" transform="translate(1.092 23.071)">
        <g id="Grupo_18458-2" data-name="Grupo 18458" transform="translate(0 60.409)">
          <path id="Trazado_34345-2" data-name="Trazado 34345" d="M1655.521,2564.8a.249.249,0,0,0,.264.23l29.358-2.008a.247.247,0,0,0,.231-.264l-1.456-21.289a.247.247,0,0,0-.263-.23l-29.36,2.007a.247.247,0,0,0-.23.263Z" transform="translate(-1650.046 -2537.078)" fill="#f59494"/>
          <path id="Trazado_34346-2" data-name="Trazado 34346" d="M1638.18,2565.984a.248.248,0,0,0,.264.23l29.359-2.008a.247.247,0,0,0,.231-.262l-1.456-21.29a.247.247,0,0,0-.264-.23l-29.36,2.007a.247.247,0,0,0-.229.264Z" transform="translate(-1635.809 -2538.052)" fill="#d15353"/>
          <path id="Trazado_34347-2" data-name="Trazado 34347" d="M1637.364,2550.414l29.36-2.007a.248.248,0,0,1,.264.229l.5,7.389.085,1.242a41.846,41.846,0,0,1-14.751,3.6q-.921.064-1.827.09a40.815,40.815,0,0,1-13.275-1.646l-.59-8.631A.246.246,0,0,1,1637.364,2550.414Z" transform="translate(-1636.146 -2542.963)" fill="#c14444"/>
          <path id="Trazado_34348-2" data-name="Trazado 34348" d="M1693.252,2523.086a.245.245,0,0,0,.263.229l8.606-.587a.248.248,0,0,0,.231-.264l-.291-4.242-.132-.2-.008-.011-.125-.024-8.524.582-.055,0-.028,0-.01,0-.072.018-.07.117-.077.128.012.177Z" transform="translate(-1681.981 -2517.991)" fill="none" stroke="#f56b6b" stroke-miterlimit="10" stroke-width="8.377"/>
          <path id="Trazado_34349-2" data-name="Trazado 34349" d="M1644.933,2530.925l30.883-2.111a.247.247,0,0,1,.264.23l.652,9.552a44.22,44.22,0,0,1-31.376,2.144l-.653-9.551A.246.246,0,0,1,1644.933,2530.925Z" transform="translate(-1642.36 -2526.877)" fill="#f59494"/>
          <path id="Trazado_34350-2" data-name="Trazado 34350" d="M1631.844,2531.819l30.883-2.111a.246.246,0,0,1,.263.23l.71,10.383c-4.144,2.094-9.591,2.717-15.548,3.125s-11.439.531-15.829-.979l-.71-10.384A.248.248,0,0,1,1631.844,2531.819Z" transform="translate(-1631.612 -2527.611)" fill="#d15353"/>
          <path id="Trazado_34351-2" data-name="Trazado 34351" d="M1731.181,2597.918l.792,11.588a.248.248,0,0,1-.231.264l-8.411.574a45.329,45.329,0,0,1-8.729-8.739c.6-.019,1.214-.048,1.828-.091A41.846,41.846,0,0,0,1731.181,2597.918Z" transform="translate(-1699.75 -2583.613)" fill="#f56b6b"/>
          <path id="Trazado_34352-2" data-name="Trazado 34352" d="M1693.454,2529.393a.247.247,0,0,1,.264.23l.709,10.384c-.242.122-.489.239-.741.352-4.042,1.813-9.2,2.389-14.806,2.772q-1.59.11-3.135.182a65.029,65.029,0,0,1-5.747-10.084c-.35-.758-.667-1.483-.955-2.169Z" transform="translate(-1662.344 -2527.352)" fill="#f56b6b"/>
          <path id="Trazado_34353-2" data-name="Trazado 34353" d="M1719.432,2590.733a1.136,1.136,0,1,0-1.056,1.21A1.136,1.136,0,0,0,1719.432,2590.733Z" transform="translate(-1701.851 -2576.845)" fill="#ffcb08"/>
        </g>
        <path id="Trazado_34354-2" data-name="Trazado 34354" d="M1710.6,2486.631l.389,1.107s.706,1.359.845,1.592c.254.562.926,2.158.926,2.158s-.066.2-1.056.146a4.565,4.565,0,0,0-1.025.2,9.465,9.465,0,0,0-.476,1.3l.75-.028a1.387,1.387,0,0,1-1.617,1.282,14.605,14.605,0,0,1-1.651-.232s-1.288-.1-1.492-.679a2.733,2.733,0,0,1-.078-1.528s.692-2.6.773-2.857l-.356-1.091Z" transform="translate(-1692.717 -2431.835)" fill="#ffb288" fill-rule="evenodd"/>
        <path id="Trazado_34355-2" data-name="Trazado 34355" d="M1647.008,2182.925s.666,20.836,2.023,25.4c-.531,4.5,9,28.524,9,28.524l4.308-1.263-3.331-29.053-1.061-26.071Z" transform="translate(-1644.252 -2180.466)" fill="#1a2444"/>
      </g>
      <path id="Trazado_34356-2" data-name="Trazado 34356" d="M1673.781,2143.184l8.472,7.638-.935,4.28,2.65.971,4.792,16.457" transform="translate(-1665.142 -2126.785)" fill="none" stroke="#c7e0ff" stroke-miterlimit="10" stroke-width="0.767"/>
      <path id="Trazado_34357-2" data-name="Trazado 34357" d="M1674.173,2138.335l9.059,3.656-1.81,5.466-7.641-8.253Z" transform="translate(-1665.141 -2122.804)" fill="#fff"/>
    </g>
    <path id="Trazado_34993" data-name="Trazado 34993" d="M429.309-1046.59H499.2" transform="translate(-2315 -510)" fill="none" stroke="#fff" stroke-width="1"/>
    <path id="Polgono_20" data-name="Polgono 20" d="M4,0,8,7H0Z" transform="translate(-1890.5 -1552.5) rotate(-90)" fill="#fff"/>
    <path id="Polgono_21" data-name="Polgono 21" d="M4,0,8,7H0Z" transform="translate(-1812.5 -1560.5) rotate(90)" fill="#fff"/>
  </g>
</svg>
