<svg xmlns="http://www.w3.org/2000/svg" width="154" height="154" viewBox="0 0 154 154">
  <g id="Grupo_18774" data-name="Grupo 18774" transform="translate(-411 -992)">
    <g id="Elipse_986" data-name="Elipse 986" transform="translate(411 992)" fill="#f56b6b" stroke="#2643a2" stroke-width="3">
      <circle cx="77" cy="77" r="77" stroke="none"/>
      <circle cx="77" cy="77" r="75.5" fill="none"/>
    </g>
    <g id="Grupo_16950" data-name="Grupo 16950" transform="translate(-862 692)">
      <circle id="Elipse_995" data-name="Elipse 995" cx="33" cy="33" r="33" transform="translate(1303 334)" fill="#ebedf0"/>
      <g id="Grupo_16949" data-name="Grupo 16949" transform="translate(1302 336.062)">
        <g id="Grupo_16948" data-name="Grupo 16948" transform="translate(0 0)">
          <g id="Grupo_16946" data-name="Grupo 16946" transform="translate(1.237 1.237)">
            <path id="Trazado_31409" data-name="Trazado 31409" d="M1606.881,353.3v26.389a3.308,3.308,0,0,1-3.3,3.3h-3.3l-11.545,11.545V382.986H1567.3a3.308,3.308,0,0,1-3.3-3.3V353.3a3.308,3.308,0,0,1,3.3-3.3h36.284A3.308,3.308,0,0,1,1606.881,353.3Z" transform="translate(-1511.223 -350)" fill="#fff"/>
            <path id="Trazado_31410" data-name="Trazado 31410" d="M1520.536,639.318l7.752-15.5a3.287,3.287,0,0,1,2.935-1.814h32.92a.808.808,0,0,1,.693.4.83.83,0,0,1,.05.808l-11.694,23.354a3.3,3.3,0,0,1-2.952,1.831H1516l3.3-6.6Z" transform="translate(-1473.119 -565.924)" fill="#8ff3ad"/>
            <path id="Trazado_31411" data-name="Trazado 31411" d="M1347.583,593.792v9.9h-11.545a4.955,4.955,0,0,0-5.014-4.948H1317.9v-4.948H1308v-6.6A13.191,13.191,0,0,1,1321.194,574h1.649a10.72,10.72,0,0,0,19.792,0,13.191,13.191,0,0,1,13.194,13.194v6.6h-8.246Z" transform="translate(-1308 -527.82)" fill="#8ff3ad"/>
            <path id="Trazado_31412" data-name="Trazado 31412" d="M1507.834,670v7.422L1506.6,679.9H1500V670h7.834Z" transform="translate(-1460.417 -604.028)" fill="#fff"/>
            <path id="Trazado_31413" data-name="Trazado 31413" d="M1424.038,718l-3.3,6.6H1399.3a3.308,3.308,0,0,1-3.3-3.3V718h28.038Z" transform="translate(-1377.858 -642.133)" fill="#8ff3ad"/>
            <path id="Trazado_31414" data-name="Trazado 31414" d="M1399.792,414a8.578,8.578,0,0,1,3.3,6.6,9.026,9.026,0,0,1-3.431,6.762.13.13,0,0,0-.016-.05c-.248-.528-2.26-4.651-6.449-4.651-4.469,0-6.6,4.536-6.6,4.536-5.674-.924-5.854,5.574-3.3,6.6,0,0-3.3,0-3.3-8.246,0-9.8,11.413-9.9,13.194-9.9C1398.34,415.649,1399.792,414,1399.792,414Z" transform="translate(-1365.156 -400.806)" fill="#8ff3ad"/>
            <path id="Trazado_31415" data-name="Trazado 31415" d="M1406.416,462.185v4.948a8.246,8.246,0,1,1-16.493,0c-2.556-1.023-2.375-7.521,3.3-6.6,0,0,2.128-4.536,6.6-4.536,4.189,0,6.2,4.123,6.449,4.651a.131.131,0,0,1,.016.05A8.647,8.647,0,0,1,1406.416,462.185Z" transform="translate(-1371.781 -434.147)" fill="#fff"/>
            <path id="Trazado_31416" data-name="Trazado 31416" d="M1342.389,679.9h-9.9v3.3h-9.9a6.6,6.6,0,0,1-6.6-6.6V670h8.246v4.948h13.128A4.955,4.955,0,0,1,1342.389,679.9Z" transform="translate(-1314.351 -604.028)" fill="#fff"/>
          </g>
          <g id="Grupo_16947" data-name="Grupo 16947">
            <path id="Trazado_31417" data-name="Trazado 31417" d="M1545.476,644.863h-34.239a1.237,1.237,0,0,1-1.106-1.79l12.288-24.574a4.529,4.529,0,0,1,4.042-2.5h32.92a2.083,2.083,0,0,1,1.876,2.935q-.013.03-.028.059l-11.694,23.354A4.516,4.516,0,0,1,1545.476,644.863Zm-32.237-2.474h32.237a2.056,2.056,0,0,0,1.846-1.147l11.4-22.768H1526.46a2.041,2.041,0,0,0-1.825,1.123Z" transform="translate(-1467.119 -559.924)" fill="#303e58"/>
            <path id="Trazado_31418" data-name="Trazado 31418" d="M1399.483,489.953a9.494,9.494,0,0,1-9.483-9.483,1.237,1.237,0,0,1,2.474,0,7.009,7.009,0,1,0,14.019,0v-4.948a7.4,7.4,0,0,0-.114-1.273,1.237,1.237,0,1,1,2.437-.423,9.945,9.945,0,0,1,.15,1.7v4.948A9.494,9.494,0,0,1,1399.483,489.953Z" transform="translate(-1371.858 -446.247)" fill="#303e58"/>
            <path id="Trazado_31419" data-name="Trazado 31419" d="M1327.73,679.668h-9.9a7.843,7.843,0,0,1-7.834-7.834v-6.6a1.237,1.237,0,0,1,2.474,0v6.6a5.366,5.366,0,0,0,5.36,5.36h9.9a1.237,1.237,0,0,1,0,2.474Z" transform="translate(-1308.351 -598.028)" fill="#303e58"/>
            <path id="Trazado_31420" data-name="Trazado 31420" d="M1369.379,676.37a1.237,1.237,0,0,1-1.237-1.237,3.7,3.7,0,0,0-3.777-3.711h-13.128a1.237,1.237,0,0,1-1.237-1.237v-4.948a1.237,1.237,0,0,1,2.474,0v3.711h11.891a6.225,6.225,0,0,1,6.251,6.185A1.237,1.237,0,0,1,1369.379,676.37Z" transform="translate(-1340.104 -598.028)" fill="#303e58"/>
            <path id="Trazado_31421" data-name="Trazado 31421" d="M1494.032,641.071h-6.8a1.237,1.237,0,0,1-1.237-1.237v-6.6a1.237,1.237,0,0,1,2.474,0v5.36h5.558a1.237,1.237,0,0,1,0,2.474Z" transform="translate(-1448.066 -572.626)" fill="#303e58"/>
            <path id="Trazado_31422" data-name="Trazado 31422" d="M1314.782,590.265h-11.545a1.237,1.237,0,0,1-1.237-1.237v-6.6A14.448,14.448,0,0,1,1316.431,568h1.649a1.237,1.237,0,0,1,1.166.822,9.487,9.487,0,0,0,17.461,0,1.237,1.237,0,0,1,1.165-.822,14.448,14.448,0,0,1,14.431,14.431,1.237,1.237,0,1,1-2.474,0,11.973,11.973,0,0,0-11.137-11.93,12.024,12.024,0,0,1-21.445-.028h-.816a11.971,11.971,0,0,0-11.957,11.957v5.36h9.071v-5.36a1.237,1.237,0,0,1,2.474,0v6.6A1.237,1.237,0,0,1,1314.782,590.265Z" transform="translate(-1302 -521.82)" fill="#303e58"/>
            <path id="Trazado_31423" data-name="Trazado 31423" d="M1378.536,430.159c-.464,0-4.536-.266-4.536-9.483a9.945,9.945,0,0,1,6.7-9.768,20.806,20.806,0,0,1,7.731-1.365c4.088,0,5.515-1.1,5.683-1.249a1.156,1.156,0,0,1,1.63-.172,9.8,9.8,0,0,1,3.819,7.606,10.238,10.238,0,0,1-3.938,7.761,1.237,1.237,0,0,1-1.9-.586c-.4-.819-2.105-3.876-5.3-3.876a5.55,5.55,0,0,0-4.034,1.837,8.4,8.4,0,0,0-1.446,1.99,1.241,1.241,0,0,1-1.317.692c-1.776-.289-2.959.292-3.333,1.635-.321,1.155.116,2.363.693,2.593a1.237,1.237,0,0,1-.459,2.385Zm16.419-19.45a13.194,13.194,0,0,1-6.523,1.307c-3.6,0-11.957.844-11.957,8.659a23.176,23.176,0,0,0,.113,2.385,4.881,4.881,0,0,1,4.569-2.053c.917-1.47,3.273-4.455,7.274-4.455a8.252,8.252,0,0,1,6.753,3.949,7.368,7.368,0,0,0,1.906-4.774A7.179,7.179,0,0,0,1394.955,410.709Zm-1.2,12.252.01.021Zm-.1-.461Zm0,0h0Zm0,0v0Zm0,0v0Zm2.474,0h0Zm-2.033-14.176Z" transform="translate(-1359.156 -394.699)" fill="#303e58"/>
            <path id="Trazado_31424" data-name="Trazado 31424" d="M1415.976,721.071h-21.441a4.541,4.541,0,0,1-4.536-4.536v-3.3a1.237,1.237,0,0,1,1.237-1.237h21.441a1.237,1.237,0,0,1,0,2.474h-20.2v2.062a2.064,2.064,0,0,0,2.062,2.062h21.441a1.237,1.237,0,0,1,0,2.474Z" transform="translate(-1371.858 -636.133)" fill="#303e58"/>
            <path id="Trazado_31425" data-name="Trazado 31425" d="M1495.237,671.422a1.237,1.237,0,0,1-1.237-1.237v-4.948a1.237,1.237,0,0,1,2.474,0v4.948A1.237,1.237,0,0,1,1495.237,671.422Z" transform="translate(-1454.417 -598.028)" fill="#303e58"/>
            <path id="Trazado_31426" data-name="Trazado 31426" d="M1583.976,391a1.237,1.237,0,0,1-1.237-1.237V379.46h-20.2a4.541,4.541,0,0,1-4.536-4.536V348.536a4.541,4.541,0,0,1,4.536-4.536h36.284a4.541,4.541,0,0,1,4.536,4.536v26.389a4.541,4.541,0,0,1-4.536,4.536h-2.786l-11.182,11.183A1.237,1.237,0,0,1,1583.976,391Zm-21.441-44.531a2.064,2.064,0,0,0-2.062,2.062v26.389a2.064,2.064,0,0,0,2.062,2.062h21.441a1.237,1.237,0,0,1,1.237,1.237v8.559l9.433-9.434a1.238,1.238,0,0,1,.875-.362h3.3a2.064,2.064,0,0,0,2.062-2.062V348.536a2.064,2.064,0,0,0-2.062-2.062Z" transform="translate(-1505.223 -344)" fill="#979faf"/>
            <path id="Trazado_31427" data-name="Trazado 31427" d="M1612.431,386.474h-13.194a1.237,1.237,0,0,1,0-2.474h13.194a1.237,1.237,0,1,1,0,2.474Z" transform="translate(-1536.976 -375.754)" fill="#979faf"/>
            <path id="Trazado_31428" data-name="Trazado 31428" d="M1701.834,386.474h-6.6a1.237,1.237,0,1,1,0-2.474h6.6a1.237,1.237,0,0,1,0,2.474Z" transform="translate(-1613.185 -375.754)" fill="#979faf"/>
            <path id="Trazado_31429" data-name="Trazado 31429" d="M1604.185,426.474h-4.948a1.237,1.237,0,0,1,0-2.474h4.948a1.237,1.237,0,0,1,0,2.474Z" transform="translate(-1536.976 -407.507)" fill="#979faf"/>
            <path id="Trazado_31430" data-name="Trazado 31430" d="M1670.081,426.474h-14.844a1.237,1.237,0,1,1,0-2.474h14.844a1.237,1.237,0,1,1,0,2.474Z" transform="translate(-1581.431 -407.507)" fill="#979faf"/>
            <path id="Trazado_31431" data-name="Trazado 31431" d="M1614.081,466.474h-14.844a1.237,1.237,0,0,1,0-2.474h14.844a1.237,1.237,0,0,1,0,2.474Z" transform="translate(-1536.976 -439.261)" fill="#979faf"/>
            <path id="Trazado_31432" data-name="Trazado 31432" d="M1708.185,466.474h-4.948a1.237,1.237,0,1,1,0-2.474h4.948a1.237,1.237,0,1,1,0,2.474Z" transform="translate(-1619.536 -439.261)" fill="#979faf"/>
          </g>
        </g>
      </g>
    </g>
  </g>
</svg>
